<?xml version="1.0" encoding="UTF-8"?>
<svg width="14px" height="14px" viewBox="0 0 14 14" version="1.1" xmlns="http://www.w3.org/2000/svg" xmlns:xlink="http://www.w3.org/1999/xlink">
    <!-- Generator: Sketch 47 (45396) - http://www.bohemiancoding.com/sketch -->
    <title>Icons/Close_Light</title>
    <desc>Created with Sketch.</desc>
    <defs></defs>
    <g id="Design---Mobile" stroke="none" stroke-width="1" fill="none" fill-rule="evenodd">
        <g id="Landing-Page---Get-Notified-Modal" transform="translate(-39.000000, -277.000000)" fill-rule="nonzero" fill="#FFFFFF">
            <g id="Get-Notified">
                <g id="Contact-Form" transform="translate(24.000000, 32.000000)">
                    <g id="Close" transform="translate(0.000000, 230.000000)">
                        <path d="M21.6464466,20.5857864 L16.5303301,15.4696699 C16.2374369,15.1767767 15.7625631,15.1767767 15.4696699,15.4696699 C15.1767767,15.7625631 15.1767767,16.2374369 15.4696699,16.5303301 L20.5857864,21.6464466 L20.5857864,21.6464466 C20.7810486,21.8417088 20.7810486,22.1582912 20.5857864,22.3535534 L15.4696699,27.4696699 C15.1767767,27.7625631 15.1767767,28.2374369 15.4696699,28.5303301 C15.7625631,28.8232233 16.2374369,28.8232233 16.5303301,28.5303301 L21.6464466,23.4142136 L21.6464466,23.4142136 C21.8417088,23.2189514 22.1582912,23.2189514 22.3535534,23.4142136 L27.4696699,28.5303301 C27.7625631,28.8232233 28.2374369,28.8232233 28.5303301,28.5303301 C28.8232233,28.2374369 28.8232233,27.7625631 28.5303301,27.4696699 L23.4142136,22.3535534 L23.4142136,22.3535534 C23.2189514,22.1582912 23.2189514,21.8417088 23.4142136,21.6464466 L28.5303301,16.5303301 C28.8232233,16.2374369 28.8232233,15.7625631 28.5303301,15.4696699 C28.2374369,15.1767767 27.7625631,15.1767767 27.4696699,15.4696699 L22.3535534,20.5857864 L22.3535534,20.5857864 C22.1582912,20.7810486 21.8417088,20.7810486 21.6464466,20.5857864 Z" id="Icons/Close_Light"></path>
                    </g>
                </g>
            </g>
        </g>
    </g>
</svg>