<?xml version="1.0" encoding="UTF-8"?>
<svg width="2px" height="10px" viewBox="0 0 2 10" version="1.1" xmlns="http://www.w3.org/2000/svg" xmlns:xlink="http://www.w3.org/1999/xlink">
    <!-- Generator: Sketch 47 (45396) - http://www.bohemiancoding.com/sketch -->
    <title>Icons/Validation/Error</title>
    <desc>Created with Sketch.</desc>
    <defs></defs>
    <g id="Design---Mobile" stroke="none" stroke-width="1" fill="none" fill-rule="evenodd">
        <g id="Landing-Page" transform="translate(-45.000000, -2300.000000)" fill="#FFFFFF">
            <g id="Content">
                <g id="Contact-Form---Error" transform="translate(36.000000, 2136.000000)">
                    <g id="Name" transform="translate(0.000000, 112.000000)">
                        <g id="Error">
                            <g id="Error-Message" transform="translate(2.000000, 46.000000)">
                                <g id="Error-Icon">
                                    <path d="M7.80000001,6 L8.19999999,6 L8.19999999,6 C8.64182779,6 9,6.35817221 9,6.80000001 L9,12.2 C9,12.6418278 8.64182779,13 8.19999999,13 L7.80000001,13 L7.80000001,13 C7.35817221,13 7,12.6418278 7,12.2 L7,6.80000001 L7,6.80000001 C7,6.35817221 7.35817221,6 7.80000001,6 L7.80000001,6 Z M7.80000001,14 L8.19999999,14 L8.19999999,14 C8.64182779,14 9,14.3581722 9,14.8 L9,15.2 C9,15.6418278 8.64182779,16 8.19999999,16 L7.80000001,16 C7.35817221,16 7,15.6418278 7,15.2 L7,14.8 C7,14.3581722 7.35817221,14 7.80000001,14 L7.80000001,14 Z" id="Icons/Validation/Error"></path>
                                </g>
                            </g>
                        </g>
                    </g>
                </g>
            </g>
        </g>
    </g>
</svg>