<svg width="19" height="16" viewBox="0 0 19 16" xmlns="http://www.w3.org/2000/svg"><title>Icons/PaperAeroplane_Light</title><path d="M.485 8.307c-.598-.306-.584-.763.03-1.02L17.695.09c.615-.258.977.057.81.706l-3.758 14.517c-.168.647-.759.879-1.323.514L9.398 13.23a.676.676 0 0 0-.882.143l-1.319 1.694c-.41.527-.918.442-1.136-.19L4.903 11.51c-.218-.632-.874-1.39-1.477-1.698L.486 8.307zm6.621 4.845l.422-1.258c.107-.32.374-.77.599-1.013l6.54-7.098c.453-.49.38-.567-.158-.174l-8.42 6.143a.941.941 0 0 0-.334.939l.655 2.436c.173.644.485.655.696.025z" fill="#FFF"/></svg>