<?xml version="1.0" encoding="UTF-8"?>
<svg width="19px" height="16px" viewBox="0 0 19 16" version="1.1" xmlns="http://www.w3.org/2000/svg" xmlns:xlink="http://www.w3.org/1999/xlink">
    <!-- Generator: Sketch 47 (45396) - http://www.bohemiancoding.com/sketch -->
    <title>Icons/PaperAeroplane_Light</title>
    <desc>Created with Sketch.</desc>
    <defs></defs>
    <g id="Design---Mobile" stroke="none" stroke-width="1" fill="none" fill-rule="evenodd">
        <g id="Landing-Page" transform="translate(-302.000000, -2598.000000)" fill-rule="nonzero" fill="#FFFFFF">
            <g id="Content">
                <g id="Contact-Form" transform="translate(38.000000, 2136.000000)">
                    <g id="Action" transform="translate(193.000000, 448.000000)">
                        <g id="Send-Icon" transform="translate(54.000000, 0.000000)">
                            <path d="M17.4851103,22.3074114 C16.8869578,22.0013926 16.9012564,21.5441854 17.5150973,21.2870272 L34.6947896,14.089889 C35.3095034,13.8323652 35.672421,14.1467257 35.5043903,14.7958907 L31.746776,29.3129412 C31.5791923,29.960379 30.9884444,30.1916834 30.4237816,29.8273011 L26.3975951,27.2291642 C26.1142794,27.0463379 25.7176154,27.1126912 25.5156136,27.3722387 L24.1972184,29.066215 C23.7873459,29.5928509 23.2789448,29.5080728 23.0612607,28.8756604 L21.9028185,25.5101736 C21.6853189,24.8782973 21.028552,24.1202597 20.4259497,23.8119644 L17.4851103,22.3074114 Z M24.1061535,27.1522578 L24.5280233,25.8944254 C24.6351792,25.5749331 24.9021117,25.1241958 25.1266029,24.880612 L31.6676117,17.7832991 C32.1197414,17.2927165 32.0472901,17.2161315 31.5088456,17.6089236 L23.0882578,23.7516914 C22.8136932,23.9519846 22.668104,24.3697178 22.7545554,24.6909396 L23.4102048,27.127093 C23.5834919,27.7709644 23.8949832,27.781876 24.1061535,27.1522578 Z" id="Icons/PaperAeroplane_Light"></path>
                        </g>
                    </g>
                </g>
            </g>
        </g>
    </g>
</svg>