<svg width="51" height="44" viewBox="0 0 51 44" xmlns="http://www.w3.org/2000/svg"><title>Icons/PaperAeroplane_Dark</title><defs><linearGradient x1="100%" y1="142.838%" x2="0%" y2="-89.309%" id="a"><stop stop-color="#751C5F" offset="0%"/><stop stop-color="#0A5D79" offset="100%"/></linearGradient></defs><path d="M116.21 22.845c-1.646-.841-1.607-2.098.082-2.806L163.536.247c1.69-.708 2.688.156 2.226 1.942L155.43 42.11c-.461 1.78-2.086 2.416-3.639 1.414l-11.072-7.145c-.779-.503-1.87-.32-2.425.394l-3.626 4.658c-1.127 1.448-2.525 1.215-3.124-.524l-3.185-9.255c-.598-1.738-2.404-3.822-4.062-4.67l-8.087-4.138zm18.207 13.324l1.16-3.46c.295-.878 1.029-2.117 1.646-2.787l17.988-19.518c1.243-1.349 1.044-1.56-.437-.48l-23.156 16.893c-.755.551-1.156 1.7-.918 2.583l1.803 6.7c.477 1.77 1.333 1.8 1.914.069z" transform="translate(-115)" fill="url(#a)"/></svg>