<svg width="101" height="38" viewBox="0 0 101 38" xmlns="http://www.w3.org/2000/svg"><title>Icons/PlatformLogos</title><g fill="none" fill-rule="evenodd"><path d="M65 0h38v38H65z"/><path d="M91.74 29.53h.115c1.633 0 2.948-1.335 2.948-2.993V11.122c0-.092-.003-.184-.01-.273H73.21c-.008.09-.015.18-.015.273v15.415c0 1.658 1.316 2.994 2.948 2.994h.117v6.097A2.374 2.374 0 0 0 78.638 38a2.374 2.374 0 0 0 2.377-2.372v-6.097h5.97v6.097A2.374 2.374 0 0 0 89.362 38a2.374 2.374 0 0 0 2.377-2.372v-6.097zM69.376 12.22a2.374 2.374 0 0 1 2.377 2.373v10.174a2.374 2.374 0 0 1-2.377 2.372A2.374 2.374 0 0 1 67 24.767V14.593a2.374 2.374 0 0 1 2.377-2.372zm29.246 0A2.374 2.374 0 0 1 101 14.594v10.174a2.374 2.374 0 0 1-2.377 2.372 2.374 2.374 0 0 1-2.377-2.372V14.593a2.375 2.375 0 0 1 2.377-2.372zm-6.527-8.366c1.608 1.606 2.591 3.694 2.623 5.982H73.281c.031-2.288 1.015-4.376 2.622-5.982L73.89.374a.25.25 0 0 1 .434-.25L76.277 3.5C77.967 1.977 80.25.953 82.805.707h2.39c2.554.246 4.838 1.27 6.528 2.793L93.676.125a.25.25 0 0 1 .434.25l-2.014 3.48zm-11.29 1.739v-.007c-.001-.662-.554-1.197-1.233-1.195-.679.002-1.228.54-1.226 1.202v.006c.002.662.554 1.197 1.233 1.195.68-.001 1.229-.54 1.227-1.201zm9.18 0v-.007c-.001-.662-.554-1.197-1.233-1.195-.679.002-1.228.54-1.226 1.202v.006c.002.662.554 1.197 1.233 1.195.68-.001 1.229-.54 1.227-1.201z" fill="#FFF" fill-rule="nonzero"/><text font-family="OpenSans-Semibold, Open Sans" font-size="14" font-weight="500" fill="#FFF" transform="translate(-4)"><tspan x="48" y="25">&amp;</tspan></text><path d="M-4 0h38v38H-4z"/><path d="M17.104 3.307C19.603.016 23.076 0 23.076 0s.517 3.094-1.965 6.074c-2.65 3.183-5.663 2.662-5.663 2.662s-.565-2.503 1.656-5.43zm-1.338 7.596c1.285 0 3.67-1.765 6.776-1.765 5.345 0 7.447 3.8 7.447 3.8s-4.112 2.101-4.112 7.2c0 5.751 5.123 7.733 5.123 7.733s-3.581 10.073-8.418 10.073c-2.222 0-3.95-1.496-6.29-1.496-2.386 0-4.753 1.552-6.295 1.552C5.58 38 0 28.445 0 20.764c0-7.556 4.723-11.52 9.154-11.52 2.88 0 5.115 1.66 6.612 1.66z" fill="#FFF" fill-rule="nonzero"/></g></svg>