<?xml version="1.0" encoding="UTF-8"?>
<svg width="49px" height="74px" viewBox="0 0 49 74" version="1.1" xmlns="http://www.w3.org/2000/svg" xmlns:xlink="http://www.w3.org/1999/xlink">
    <!-- Generator: Sketch 47 (45396) - http://www.bohemiancoding.com/sketch -->
    <title>Icons/RockHand_Light</title>
    <desc>Created with Sketch.</desc>
    <defs></defs>
    <g id="Design---Mobile" stroke="none" stroke-width="1" fill="none" fill-rule="evenodd">
        <g id="Landing-Page---Get-Notified-Modal-Success" transform="translate(-115.000000, -43.000000)" fill-rule="nonzero" fill="#FFFFFF">
            <g id="Get-Notified-Success">
                <g id="Contact-Form" transform="translate(32.000000, 43.000000)">
                    <path d="M98.0537216,18.2483262 C101.643659,16.7689417 104.717338,17.0744016 107.467734,19.7806172 C110.160436,17.1812128 113.255999,16.6860881 116.945408,18.2702874 C116.945408,16.9506205 116.907609,15.815627 116.952371,14.6836283 C117.109537,10.7366064 119.799255,7.70097318 123.401129,7.36456792 C127.265609,7.00420501 130.516348,9.28317596 131.346937,12.9766462 C131.479235,13.5656049 131.489182,14.1924966 131.490177,14.8014201 C131.498134,26.910013 131.506092,39.0186058 131.493161,51.1281969 C131.48023,63.309661 120.92627,73.7881358 108.787725,73.9947705 C99.6263709,74.1494969 92.3161874,70.8782802 87.1635475,63.1858798 C84.6866994,59.4874184 83.4990059,55.3447424 83.5000006,50.873647 C83.5019901,36.477099 83.5000006,22.0805511 83.5019901,7.68400318 C83.5029848,3.1999307 86.3946304,0.0475039677 90.5406155,0.000586913702 C94.8467503,-0.0483266107 97.9035191,2.9643472 98.0437744,7.44941791 C98.0994786,9.2332642 98.0537216,11.0201052 98.0547163,12.8059479 C98.0537216,14.5269054 98.0537216,16.2488611 98.0537216,18.2483262 Z M111.395876,70.2174485 C120.07877,69.4498056 128.013637,60.6633395 128.135987,51.4047081 C128.298126,39.1873076 128.19567,26.9669124 128.138971,14.7475154 C128.134992,13.8690684 127.767942,12.8518668 127.240741,12.1471127 C126.226128,10.7895129 124.752951,10.3163494 123.079835,10.8514034 C121.398761,11.388454 120.425927,12.7590309 120.421948,14.6626654 C120.406033,21.6932359 120.450795,28.7238063 120.403048,35.7533785 C120.365249,41.2406774 116.159581,44.7664441 111.214837,43.4098424 C109.877936,43.0434901 108.682285,42.160052 107.363289,41.4842467 C106.053245,43.2451336 104.705402,45.0569305 103.338659,46.8936832 C111.46849,52.8361773 114.426782,60.4357419 111.395876,70.2174485 Z M98.6624891,47.401785 C100.235138,45.3314452 102.113166,43.1173595 103.665921,40.6936445 C104.351282,39.6245346 104.721317,38.1012277 104.618861,36.8344672 C104.471643,35.0186774 103.059143,33.9036487 101.301476,33.5173317 C99.4592583,33.1120482 97.8915825,33.751917 96.7476567,35.2692344 C94.2658349,38.5584194 92.0018565,42.0362708 89.2892601,45.1178228 C86.8412588,47.8979079 86.5020599,50.8377105 87.0859595,54.2626554 C88.6466722,63.4094845 97.346477,70.8682978 106.424275,70.7594902 C107.403077,70.7475114 107.882531,70.4410532 108.254556,69.5176856 C110.789098,63.2138304 109.683966,57.0287651 104.850631,52.2931374 C103.011397,50.4903246 100.799144,49.069836 98.6624891,47.401785 Z M86.8820423,42.1999814 C87.0033979,42.2399108 87.1247535,42.2798402 87.2461091,42.3207678 C89.5737495,39.2032793 91.9123318,36.094775 94.2121202,32.9573217 C94.4518472,32.6308988 94.5632557,32.1357742 94.5642504,31.7185119 C94.58315,23.4601121 94.6070233,15.2017124 94.5562926,6.9443109 C94.5423666,4.70726584 92.3937754,3.01525719 90.2352371,3.33469245 C88.1731864,3.64015242 86.826338,5.2792546 86.8233539,7.60913554 C86.8094278,18.769405 86.8163909,29.9286762 86.819375,41.0889456 C86.8203697,41.4592909 86.8601585,41.8296361 86.8820423,42.1999814 Z M116.941429,30.6134655 C116.941429,28.6090093 116.970276,26.604553 116.933472,24.6020932 C116.892688,22.3540675 115.352865,20.7618824 113.231131,20.7009901 C111.031809,20.6381013 109.239327,22.2232987 109.200533,24.4703262 C109.132892,28.4772422 109.135876,32.4861547 109.199538,36.4930708 C109.234353,38.7141441 111.092487,40.4301104 113.183384,40.3652251 C115.241456,40.301338 116.88672,38.6223065 116.933472,36.4581326 C116.974255,34.5105757 116.941429,32.5620206 116.941429,30.6134655 Z M105.810534,32.147753 C105.810534,29.2269168 105.87718,26.7752512 105.789644,24.329575 C105.720014,22.3790234 104.14637,20.8517236 102.283263,20.704983 C100.33461,20.5512548 98.3720314,21.7651088 98.1919874,23.5998651 C97.978123,25.7830054 98.1412568,28.0030805 98.1412568,30.2860444 C100.936415,29.7939144 103.385411,30.1922103 105.810534,32.147753 Z" id="Icons/RockHand_Light"></path>
                </g>
            </g>
        </g>
    </g>
</svg>