<svg width="87" height="16" viewBox="0 0 87 16" xmlns="http://www.w3.org/2000/svg"><title>Icons/SmartFestLogo_Light</title><path d="M2.97 6.707C1.13 6.322.226 5.363.226 3.823.226 1.919 1.76.666 4.09.666c2.188 0 3.748 1.204 3.86 2.954a.086.086 0 0 1-.087.09H6.04a.087.087 0 0 1-.085-.073c-.133-.757-.86-1.256-1.85-1.256-1.058 0-1.758.49-1.758 1.26 0 .623.483.98 1.666 1.232l1.218.259c2.03.427 2.905 1.302 2.905 2.87 0 2.037-1.56 3.283-4.095 3.283C1.672 11.285.123 10.14 0 8.302c0-.046.04-.083.086-.083h1.879c.043 0 .078.031.085.073.137.777.95 1.27 2.103 1.27 1.1 0 1.876-.531 1.876-1.294 0-.644-.504-1.015-1.743-1.281l-1.316-.28zM26.458.925h2.363c.037 0 .07.023.081.058l3.447 9.928a.086.086 0 0 1-.081.115h-2.105a.086.086 0 0 1-.082-.06l-.725-2.288a.086.086 0 0 0-.082-.06h-3.423a.086.086 0 0 0-.082.06l-.738 2.288a.086.086 0 0 1-.082.06H23.01a.087.087 0 0 1-.081-.115L26.377.983a.086.086 0 0 1 .081-.058zm1.033 2.16l-1.212 3.79a.086.086 0 0 0 .082.112h2.41c.059 0 .1-.057.083-.112l-1.199-3.79a.086.086 0 0 0-.164 0zm6.706-2.16h4.156c2.219 0 3.584 1.232 3.584 3.24 0 1.256-.639 2.352-1.747 2.834a.086.086 0 0 0-.043.12l2.016 3.78a.086.086 0 0 1-.076.127H39.89a.086.086 0 0 1-.076-.047L37.978 7.41a.086.086 0 0 0-.077-.046h-1.59a.086.086 0 0 0-.086.086v3.488a.086.086 0 0 1-.086.087h-1.942a.086.086 0 0 1-.086-.087V1.011c0-.048.039-.086.086-.086zm2.028 1.794v2.936c0 .047.038.086.086.086h1.769c1.064 0 1.687-.574 1.687-1.547 0-.96-.658-1.561-1.708-1.561H36.31a.086.086 0 0 0-.086.086zM43.57.925h8.003c.048 0 .086.038.086.086v1.634a.086.086 0 0 1-.086.086h-2.858a.086.086 0 0 0-.086.086v8.122a.086.086 0 0 1-.087.087h-1.941a.086.086 0 0 1-.086-.087V2.817a.086.086 0 0 0-.087-.086H43.57a.086.086 0 0 1-.086-.086V1.01c0-.048.038-.086.086-.086zm10.115 0h5.819c.048 0 .086.038.086.086v.696a.086.086 0 0 1-.086.086h-4.86a.086.086 0 0 0-.087.086v3.622c0 .047.039.086.086.086h4.455c.048 0 .086.038.086.086v.682a.086.086 0 0 1-.086.086h-4.455a.086.086 0 0 0-.086.086v4.412a.086.086 0 0 1-.086.087h-.786a.086.086 0 0 1-.087-.087V1.011c0-.048.039-.086.087-.086zm8.084 0h5.932c.047 0 .086.038.086.086v.696a.086.086 0 0 1-.086.086h-4.973a.086.086 0 0 0-.086.086v3.46c0 .048.039.087.086.087h4.714c.047 0 .086.038.086.086v.682a.086.086 0 0 1-.086.086h-4.714a.086.086 0 0 0-.086.086v3.705c0 .048.039.087.086.087h4.973c.047 0 .086.038.086.086v.695a.086.086 0 0 1-.086.087h-5.932a.086.086 0 0 1-.086-.087V1.011c0-.048.039-.086.086-.086zm10.785 5.222c-1.897-.47-2.695-1.26-2.695-2.632 0-1.631 1.407-2.8 3.458-2.8 1.892 0 3.301 1.095 3.457 2.587a.086.086 0 0 1-.086.094h-.8a.086.086 0 0 1-.084-.072c-.186-1.039-1.147-1.734-2.515-1.734-1.45 0-2.45.798-2.45 1.897 0 .882.623 1.393 2.163 1.778l1 .252c2.087.518 2.94 1.344 2.94 2.772 0 1.764-1.448 2.947-3.66 2.947-2.047 0-3.535-1.106-3.702-2.742a.086.086 0 0 1 .086-.093h.797c.043 0 .078.032.085.074.173 1.121 1.311 1.886 2.818 1.886 1.512 0 2.597-.847 2.597-1.967 0-.952-.693-1.568-2.254-1.953l-1.155-.294zM78.457.925h7.555c.048 0 .086.038.086.086v.696a.086.086 0 0 1-.086.086h-3.215a.086.086 0 0 0-.086.086v9.06a.086.086 0 0 1-.087.087h-.78a.086.086 0 0 1-.085-.087V1.88a.086.086 0 0 0-.087-.086h-3.215a.086.086 0 0 1-.086-.086V1.01c0-.048.038-.086.086-.086zM20.414.042a.162.162 0 0 1 .27.12l.13 12.58c0 1.042-.775 2.085-1.889 2.085-1.114 0-1.89-.522-1.89-1.564s1.037-1.76 2.15-1.76c.077 0 .179.016.276.035a.262.262 0 0 0 .311-.258l-.13-6.15a.162.162 0 0 0-.27-.12l-3.39 2.802a.3.3 0 0 1-.354.034l-3.69-1.97a.162.162 0 0 0-.246.139l.13 7.9c0 1.042-.76 2.085-1.857 2.085-1.095 0-1.857-.522-1.857-1.564s1.022-1.76 2.118-1.76c.074 0 .173.01.266.02a.26.26 0 0 0 .288-.258L10.65 1.73c0-.126.137-.204.245-.14l4.58 2.735a.273.273 0 0 0 .322-.031L20.414.042z" fill="#FFF" fill-rule="evenodd"/></svg>