<?xml version="1.0" encoding="utf-8"?>
<!-- Generator: Adobe Illustrator 22.0.1, SVG Export Plug-In . SVG Version: 6.00 Build 0)  -->
<svg version="1.1" id="katman_1" xmlns="http://www.w3.org/2000/svg" xmlns:xlink="http://www.w3.org/1999/xlink" x="0px" y="0px"
	 viewBox="0 0 896 887" style="enable-background:new 0 0 896 887;" xml:space="preserve">
<path d="M745.1,297.1C745.1,133,612.1,0,448,0C283.9,0,150.9,133,150.9,297.1c0,78.8,31.3,154.4,87,210.1c18.2,18.2,38.6,34,60.9,47
	c-138.2,46-247.6,152.9-296.9,290c-6,16.6,2.7,35,19.3,40.9c16.6,6,35-2.7,40.9-19.3C120.3,703.3,275.4,594.2,448,594.2
	C612.1,594.2,745.1,461.2,745.1,297.1C745.1,297.1,745.1,297.1,745.1,297.1z M448,530.2c-128.5,0-233.1-104.6-233.1-233.1
	S319.5,64,448,64s233.1,104.6,233.1,233.1S576.5,530.2,448,530.2z M894.1,844.2c-36.7-101.7-106.8-188-199-244.5
	c-15-9.4-34.7-4.9-44.1,10.1c-9.4,15-4.9,34.7,10.1,44.1c0.2,0.1,0.4,0.3,0.6,0.4c79.7,48.9,140.5,123.5,172.2,211.5
	c6,16.6,24.3,25.3,40.9,19.3C891.4,879.2,900.1,860.8,894.1,844.2L894.1,844.2z"/>
</svg>
