<svg width="43" height="49" viewBox="0 0 43 49" xmlns="http://www.w3.org/2000/svg" xmlns:xlink="http://www.w3.org/1999/xlink"><title>Atom/Asset/Logo</title><defs><path id="a" d="M42.402 48.17H0V0h42.402z"/></defs><g fill="none" fill-rule="evenodd"><mask id="b" fill="#fff"><use xlink:href="#a"/></mask><path d="M21.088 45.489L8.07 11.297h6.857l5.477 19.258h1.359l5.477-19.258h7.01L21.088 45.489zM35.84 31.145c0 8.235-6.06 14.984-13.705 15.557l9.974-25.911c2.406 2.858 3.73 6.487 3.73 10.354zm-29.512 0c0-3.9 1.358-7.568 3.812-10.442l9.899 26c-7.65-.572-13.711-7.322-13.711-15.558zm36.074-19.848V9.885h-14.76l2.41-8.473h3.762V0H25.38v1.412h3.204l-7.5 26.368-7.498-26.368h3.282V0H8.434v1.412h3.683l2.41 8.473H0v1.412h6.559l3.01 7.906c-3 3.206-4.653 7.44-4.653 11.942 0 9.388 7.254 17.026 16.17 17.026 8.914 0 16.167-7.638 16.167-17.026 0-4.467-1.628-8.646-4.572-11.84l3.083-8.008h6.638z" fill="#000" mask="url(#b)"/></g></svg>