<?xml version="1.0" encoding="utf-8"?>
<!-- Generator: Adobe Illustrator 22.0.1, SVG Export Plug-In . SVG Version: 6.00 Build 0)  -->
<svg version="1.1" id="katman_1" xmlns="http://www.w3.org/2000/svg" xmlns:xlink="http://www.w3.org/1999/xlink" x="0px" y="0px"
	 viewBox="0 0 80 72" style="enable-background:new 0 0 80 72;" xml:space="preserve">
<path d="M53,61.9c4.4-0.9,8.6-2.4,12.5-4.4c-2.4,3.9-5.7,7.3-9.8,9.9c-14.2,8.9-32.9,4.5-41.7-9.7c-0.1-0.2-0.2-0.3-0.3-0.5
	c0.2,0.1,0.3,0.2,0.4,0.2c1.1,0.5,2.1,1.1,3.2,1.5c2.2,1,4.5,1.7,6.8,2.3c2.3,0.6,4.7,1.1,7.1,1.4c1.2,0.1,2.5,0.3,3.7,0.4l3.4,0.2
	h0.4h0.2h0.5h0.9h1.8c1.2,0,2.4-0.1,3.6-0.2c1.2-0.1,2.4-0.3,3.6-0.4C50.6,62.4,51.8,62.2,53,61.9z M72.9,50.2c-1.1,1.1-2.3,2-3.5,3
	c-1.3,0.8-2.5,1.7-3.9,2.4C62.9,57,60,58.1,57.1,59c-5.9,1.8-12.1,2.5-18.4,2.4c-1.7-0.1-3-0.1-4.6-0.3c-1.6-0.2-3.2-0.3-4.7-0.6
	c-3.1-0.5-6.1-1.3-9-2.3c-2.9-1.1-5.7-2.3-8.3-3.9c-1.3-0.7-2.5-1.7-3.8-2.6c-1.2-1-2.3-2-3.3-3.1c-2.1-2.2-3.7-4.9-4.6-7.8
	c-0.1-0.7-0.3-1.5-0.4-2.2c0-0.7,0-1.5,0-2.2v-0.3V36v-0.1c0,0,0-0.3,0-0.2l0.1-0.5l0.2-1c0.1-0.6,0.3-1.3,0.6-2l0.4-1
	c0.1-0.3,0.3-0.6,0.5-0.9c0.3-0.6,0.6-1.2,1-1.7S3.6,27.5,4,27s0.9-0.9,1.3-1.4c0.4-0.5,0.9-0.9,1.4-1.2c0.5-0.4,0.9-0.8,1.4-1.1
	c1-0.6,1.9-1.4,3-1.9c3.8-2.1,7.6-3.4,11-4.3c0.5-0.4,1.1-0.8,1.7-1.1C35,8.8,49.3,10.2,59,18.3c3,1,6.1,2.4,9.3,4.3
	c1,0.5,1.9,1.3,2.9,2c0.5,0.4,0.9,0.8,1.4,1.2s0.9,0.8,1.3,1.3c1.8,1.8,3.2,4.1,4,6.8c0.2,0.7,0.4,1.4,0.5,2.1l0.1,1.1l0.1,0.5v0.6
	c-0.1,0.7,0,1.3-0.2,2c-0.2,0.8-0.4,1.5-0.6,2.3C76.9,45.5,75.1,48,72.9,50.2z M74.6,41.4c0.2-0.5,0.4-1,0.6-1.5
	c0.2-0.6,0.2-1.3,0.3-1.9v-0.2v-0.1l0,0v-0.4v-0.9c0-0.6-0.1-1.1-0.2-1.7c-0.5-2.2-1.4-4.4-2.9-6.2c-0.3-0.5-0.7-0.9-1.1-1.3
	c-0.4-0.4-0.8-0.9-1.2-1.2c-0.9-0.7-1.6-1.5-2.6-2.1c-2.3-1.8-4.8-3.1-7.2-4.1c1.9,1.7,3.5,3.8,4.9,6c3.7,6,5.1,12.7,4.4,19.2
	c-2,1.8-4.5,3.3-7.3,4.6c-3.4,1.5-7.3,2.6-11.3,3.3c-1,0.2-2,0.4-3,0.4c-1,0.1-2.1,0.3-3.1,0.3s-2.1,0.2-3.1,0.1h-3l-3.4-0.2
	c-1.1-0.1-2-0.2-3-0.3c-2-0.3-4.1-0.6-6.1-1c-4-0.9-7.8-2.2-11.1-3.9c-2.1-1.1-4.1-2.4-5.8-3.8c-0.9-9.9,3.1-19.9,11.2-26.4
	c-2.9,1-6.1,2.4-9.1,4.4c-0.9,0.6-1.8,1.3-2.6,2c-0.4,0.4-0.8,0.8-1.2,1.2c-0.4,0.4-0.8,0.8-1.2,1.3c-1.5,1.7-2.6,3.9-3.2,6
	C3.2,33.5,3,34,3,34.7l-0.1,1v0.5c0,0.1,0-0.1,0-0.1v0.1v0.1v0.2C3,37.1,3,37.6,3.1,38.2c0.2,0.6,0.3,1.1,0.5,1.7
	C4.5,42.1,6,44,7.9,45.7c0.9,0.9,2,1.6,3,2.4c1.1,0.7,2.2,1.4,3.5,2c2.4,1.2,5,2.2,7.6,3c1.3,0.4,2.7,0.7,4.1,1
	c0.7,0.1,1.4,0.3,2.1,0.4l2.1,0.3c1.4,0.3,2.8,0.3,4.1,0.5c1.4,0.1,3,0.2,4.3,0.2c5.7,0.1,11.3-0.5,16.7-1.7
	c2.7-0.7,5.3-1.5,7.7-2.6c1.3-0.5,2.4-1.2,3.5-1.8c1.1-0.7,2.2-1.4,3.1-2.2C72,45.4,73.6,43.5,74.6,41.4z M64,14.6
	c4,0,7.3-3.3,7.3-7.3S68,0,64,0s-7.3,3.3-7.3,7.3S60,14.6,64,14.6z M3.9,58.5c-2,0-3.6,1.6-3.6,3.6s1.6,3.6,3.6,3.6s3.6-1.6,3.6-3.6
	C7.6,60.1,6,58.5,3.9,58.5z M75.2,57.8c-2.7,0-4.8,2.2-4.8,4.8c0,2.7,2.2,4.8,4.8,4.8c2.7,0,4.8-2.2,4.8-4.8
	C80,59.9,77.8,57.8,75.2,57.8z"/>
</svg>
