<svg xmlns="http://www.w3.org/2000/svg" viewBox="0 0 80 72"><path d="M53 61.9c4.4-.9 8.6-2.4 12.5-4.4-2.4 3.9-5.7 7.3-9.8 9.9-14.2 8.9-32.9 4.5-41.7-9.7-.1-.2-.2-.3-.3-.5.2.1.3.2.4.2 1.1.5 2.1 1.1 3.2 1.5 2.2 1 4.5 1.7 6.8 2.3 2.3.6 4.7 1.1 7.1 1.4 1.2.1 2.5.3 3.7.4l3.4.2h3.8c1.2 0 2.4-.1 3.6-.2 1.2-.1 2.4-.3 3.6-.4 1.3-.2 2.5-.4 3.7-.7zm19.9-11.7c-1.1 1.1-2.3 2-3.5 3-1.3.8-2.5 1.7-3.9 2.4-2.6 1.4-5.5 2.5-8.4 3.4-5.9 1.8-12.1 2.5-18.4 2.4-1.7-.1-3-.1-4.6-.3-1.6-.2-3.2-.3-4.7-.6-3.1-.5-6.1-1.3-9-2.3-2.9-1.1-5.7-2.3-8.3-3.9-1.3-.7-2.5-1.7-3.8-2.6-1.2-1-2.3-2-3.3-3.1-2.1-2.2-3.7-4.9-4.6-7.8-.1-.7-.3-1.5-.4-2.2v-2.9l.1-.5.2-1c.1-.6.3-1.3.6-2l.4-1c.1-.3.3-.6.5-.9.3-.6.6-1.2 1-1.7S3.6 27.5 4 27s.9-.9 1.3-1.4c.4-.5.9-.9 1.4-1.2.5-.4.9-.8 1.4-1.1 1-.6 1.9-1.4 3-1.9 3.8-2.1 7.6-3.4 11-4.3.5-.4 1.1-.8 1.7-1.1C35 8.8 49.3 10.2 59 18.3c3 1 6.1 2.4 9.3 4.3 1 .5 1.9 1.3 2.9 2 .5.4.9.8 1.4 1.2s.9.8 1.3 1.3c1.8 1.8 3.2 4.1 4 6.8.2.7.4 1.4.5 2.1l.1 1.1.1.5v.6c-.1.7 0 1.3-.2 2-.2.8-.4 1.5-.6 2.3-.9 3-2.7 5.5-4.9 7.7zm1.7-8.8l.6-1.5c.2-.6.2-1.3.3-1.9v-1.6c0-.6-.1-1.1-.2-1.7-.5-2.2-1.4-4.4-2.9-6.2-.3-.5-.7-.9-1.1-1.3-.4-.4-.8-.9-1.2-1.2-.9-.7-1.6-1.5-2.6-2.1-2.3-1.8-4.8-3.1-7.2-4.1 1.9 1.7 3.5 3.8 4.9 6 3.7 6 5.1 12.7 4.4 19.2-2 1.8-4.5 3.3-7.3 4.6-3.4 1.5-7.3 2.6-11.3 3.3-1 .2-2 .4-3 .4-1 .1-2.1.3-3.1.3s-2.1.2-3.1.1h-3l-3.4-.2c-1.1-.1-2-.2-3-.3-2-.3-4.1-.6-6.1-1-4-.9-7.8-2.2-11.1-3.9-2.1-1.1-4.1-2.4-5.8-3.8-.9-9.9 3.1-19.9 11.2-26.4-2.9 1-6.1 2.4-9.1 4.4-.9.6-1.8 1.3-2.6 2l-1.2 1.2c-.4.4-.8.8-1.2 1.3-1.5 1.7-2.6 3.9-3.2 6-.1.5-.3 1-.3 1.7l-.1 1v.8c.1.6.1 1.1.2 1.7.2.6.3 1.1.5 1.7.9 2.2 2.4 4.1 4.3 5.8.9.9 2 1.6 3 2.4 1.1.7 2.2 1.4 3.5 2 2.4 1.2 5 2.2 7.6 3 1.3.4 2.7.7 4.1 1 .7.1 1.4.3 2.1.4l2.1.3c1.4.3 2.8.3 4.1.5 1.4.1 3 .2 4.3.2 5.7.1 11.3-.5 16.7-1.7 2.7-.7 5.3-1.5 7.7-2.6 1.3-.5 2.4-1.2 3.5-1.8 1.1-.7 2.2-1.4 3.1-2.2 2.3-1.8 3.9-3.7 4.9-5.8zM64 14.6c4 0 7.3-3.3 7.3-7.3S68 0 64 0s-7.3 3.3-7.3 7.3 3.3 7.3 7.3 7.3zM3.9 58.5c-2 0-3.6 1.6-3.6 3.6s1.6 3.6 3.6 3.6 3.6-1.6 3.6-3.6c.1-2-1.5-3.6-3.6-3.6zm71.3-.7c-2.7 0-4.8 2.2-4.8 4.8 0 2.7 2.2 4.8 4.8 4.8 2.7 0 4.8-2.2 4.8-4.8 0-2.7-2.2-4.8-4.8-4.8z"/></svg>