<svg width="21px" height="30px" xmlns="http://www.w3.org/2000/svg" xmlns:xlink="http://www.w3.org/1999/xlink" viewBox="88 88 150 150">
  <defs>
    <style>
      .cls-2 {
        fill: url(#Adsız_degrade_22);
      }
    </style>    
    <linearGradient id="Adsız_degrade_22" data-name="Adsız degrade 22" x1="168.36" y1="61.67" x2="168.36" y2="275.05" gradientUnits="userSpaceOnUse">
      <stop offset="0" stop-color="#ee1d47"/>
      <stop offset="0.33" stop-color="#eb1d47"/>
      <stop offset="0.56" stop-color="#e21d47"/>
      <stop offset="0.76" stop-color="#d31d47"/>
      <stop offset="0.93" stop-color="#be1d47"/>
      <stop offset="1" stop-color="#b31d47"/>
    </linearGradient>
  </defs>   
  <path class="cls-2" d="M183.3,269.33l0,.09a8.63,8.63,0,0,0,8.13,5.63,9.17,9.17,0,0,0,2.36-.31,8.69,8.69,0,0,0,5.32-10.47l-2.4-6.88L192,242.68c3.38-2.57,6.36-5.06,9.33-7.75,15.51-14.32,27.51-33,39.46-52.48a8.19,8.19,0,0,0-14-8.53c-10,16.39-21.88,35-36.33,48.91-1.07.77-2.06,1.61-3,2.42l-.85.71c-6.45-21-15.16-50.58-20.3-76.15,34.82-24.41,50.37-39,50.37-59.81,0-16.41-13.18-28.33-31.34-28.33C162,61.67,145,82.07,145,110.17c0,8.18,1.1,18.37,3.44,32-39,28.33-53.11,47.75-53.71,74,0,26.53,17.39,43.68,44.25,43.68a81.91,81.91,0,0,0,38.68-8.28l3.54,10.88ZM161.62,110.77c0-19.91,9.32-32.77,23.74-32.77,8.7,0,15,5,15,12,0,14.48-19.3,30.44-37.09,43.11A171.23,171.23,0,0,1,161.62,110.77Zm11,124.89A71.17,71.17,0,0,1,139,243.47c-17.77,0-28-10-28-27.33C111.33,197.34,122.47,182,152,160,157.92,187.23,166.34,215.77,172.6,235.66Z"/>
</svg>
