<?xml version="1.0" encoding="utf-8"?>
<!-- Generator: Adobe Illustrator 22.0.1, SVG Export Plug-In . SVG Version: 6.00 Build 0)  -->
<svg version="1.1" id="katman_1" xmlns="http://www.w3.org/2000/svg" xmlns:xlink="http://www.w3.org/1999/xlink" x="0px" y="0px"
	 viewBox="0 0 81.3 70.5" style="enable-background:new 0 0 81.3 70.5;" xml:space="preserve">
<g>
	<path d="M76.7,55.7c0,3.7-4.2,6.9-12,9.1c-7,2-16.3,3.1-26.2,3.1s-19.2-1.1-26.2-3.1c-7.6-2.2-11.8-5.2-12-8.8
		c-0.2,0.5-0.3,1-0.3,1.5c0,7.1,17.4,12.9,38.9,12.9c21.5,0,38.9-5.8,38.9-12.9c0-1.1-0.4-2.2-1.2-3.2
		C76.7,54.8,76.7,55.3,76.7,55.7z"/>
	<path d="M38.5,66c20.1,0,36.3-4.6,36.3-10.3c0-3.2-5.1-6-13-7.9c-1.3,2.3-2.7,4.5-4.2,6.6c-0.8,1.6-3,2.8-6.9,3.6
		c-3.4,0.8-7.9,1.2-12.5,1.2c-7,0-15.7-1-18.6-3.8h-0.1L19.2,55c0,0-0.1-0.1-0.1-0.1L19,54.8c-1.6-2.2-3.1-4.5-4.4-6.8
		C7,49.9,2.2,52.6,2.2,55.7C2.2,61.4,18.4,66,38.5,66z"/>
	<path d="M67.3,11.7c-0.2-1.7-0.4-3.4-0.8-5.1h0C65.9,2.9,53.5,0,38.2,0C23,0,10.6,2.9,10,6.6H9.9c-0.8,3.8-1.2,7.8-1.2,11.8
		c0,11.9,3.5,23,9.5,32.3c0,0,0,0,0,0.1c0.3,0.5,0.6,0.9,0.9,1.4c0.1,0.1,0.1,0.2,0.2,0.2c0.3,0.5,0.6,0.9,1,1.4h0
		c1.2,2.1,8.7,3.8,17.8,3.8c9.4,0,17.1-1.7,17.9-4c0.3-0.4,0.6-0.9,1-1.3c0.1-0.1,0.1-0.2,0.2-0.3c0.3-0.4,0.6-0.9,0.9-1.3
		c0,0,0,0,0,0c0.3-0.5,0.6-1,0.9-1.5c0,0,0-0.1,0-0.1c0.3-0.5,0.6-1,0.9-1.5c0,0,0,0,0,0h0c0.5-0.8,0.9-1.7,1.4-2.6
		c8.3-0.6,19.5-10.2,19.8-25.5l0-0.7C81.3,12.3,74.2,11.8,67.3,11.7z M38.2,11.2c-13.4,0-24.3-2-24.3-4.4c0-2.4,10.9-4.4,24.3-4.4
		c13.4,0,24.3,2,24.3,4.4C62.5,9.3,51.6,11.2,38.2,11.2z M75.4,19.3c-0.2,9-5,15.5-10,18.3c2.1-6.2,3.1-12.6,3.1-19.2
		c0-0.3,0-0.5,0-0.8c6.7,0.2,6.9,1,6.9,1.1L75.4,19.3z"/>
</g>
</svg>
