<svg xmlns="http://www.w3.org/2000/svg" viewBox="0 0 81.3 70.5"><path d="M76.7 55.7c0 3.7-4.2 6.9-12 9.1-7 2-16.3 3.1-26.2 3.1s-19.2-1.1-26.2-3.1C4.7 62.6.5 59.6.3 56c-.2.5-.3 1-.3 1.5 0 7.1 17.4 12.9 38.9 12.9s38.9-5.8 38.9-12.9c0-1.1-.4-2.2-1.2-3.2.1.5.1 1 .1 1.4z"/><path d="M38.5 66c20.1 0 36.3-4.6 36.3-10.3 0-3.2-5.1-6-13-7.9-1.3 2.3-2.7 4.5-4.2 6.6-.8 1.6-3 2.8-6.9 3.6-3.4.8-7.9 1.2-12.5 1.2-7 0-15.7-1-18.6-3.8h-.1l-.3-.4-.1-.1-.1-.1c-1.6-2.2-3.1-4.5-4.4-6.8C7 49.9 2.2 52.6 2.2 55.7 2.2 61.4 18.4 66 38.5 66z"/><path d="M67.3 11.7c-.2-1.7-.4-3.4-.8-5.1-.6-3.7-13-6.6-28.3-6.6C23 0 10.6 2.9 10 6.6h-.1c-.8 3.8-1.2 7.8-1.2 11.8 0 11.9 3.5 23 9.5 32.3v.1c.3.5.6.9.9 1.4.1.1.1.2.2.2.3.5.6.9 1 1.4 1.2 2.1 8.7 3.8 17.8 3.8 9.4 0 17.1-1.7 17.9-4 .3-.4.6-.9 1-1.3.1-.1.1-.2.2-.3.3-.4.6-.9.9-1.3l.9-1.5v-.1l.9-1.5c.5-.8.9-1.7 1.4-2.6 8.3-.6 19.5-10.2 19.8-25.5v-.7c.2-6.5-6.9-7-13.8-7.1zm-29.1-.5c-13.4 0-24.3-2-24.3-4.4 0-2.4 10.9-4.4 24.3-4.4s24.3 2 24.3 4.4c0 2.5-10.9 4.4-24.3 4.4zm37.2 8.1c-.2 9-5 15.5-10 18.3 2.1-6.2 3.1-12.6 3.1-19.2v-.8c6.7.2 6.9 1 6.9 1.1v.6z"/></svg>