<?xml version="1.0" encoding="utf-8"?>

<svg version="1.1" class="file-input-icon" xmlns="http://www.w3.org/2000/svg"
  xmlns:xlink="http://www.w3.org/1999/xlink" x="0px" y="0px"
  viewBox="0 0 91 74.6" style="enable-background:new 0 0 91 74.6;" xml:space="preserve">                                
  <g fill="#ff6584">
    <path d="M65.5,0H9C4,0,0,4,0,9l0,0v37c0,5,4,9,9,9h39.3c1,11.8,11.3,20.5,23.1,19.6c11.8-1,20.5-11.3,19.6-23.1
      c-0.8-9.3-7.4-17-16.5-19.1V9C74.5,4,70.5,0,65.5,0L65.5,0z M9,2h56.5c3.9,0,7,3.1,7,7c0,0,0,0,0,0v23l-2.9-0.2c-2,0-4,0.3-5.9,0.8
      l-7.5-6c-0.4-0.3-0.8-0.3-1.2,0L37.6,39.9L23.7,24.6c-0.3-0.4-0.9-0.5-1.3-0.2L2,37.4V9C2,5.1,5.1,2,9,2L9,2z M61.5,33.4
      C54,36.5,48.9,43.5,48.3,51.5L39,41.3l16.5-12.6L61.5,33.4z M2,46v-6.3l20.8-13.1L47,53H9C5.1,53,2,49.9,2,46z M89,53.1
      c0.1,10.7-8.6,19.4-19.3,19.5C59,72.7,50.3,64,50.2,53.3s8.6-19.4,19.3-19.5c0,0,0.1,0,0.1,0C80.3,33.8,89,42.5,89,53.1L89,53.1
      L89,53.1z"/>
    <path d="M39.3,25.9c4.4,0.1,7.9-3.4,8-7.8s-3.4-7.9-7.8-8s-7.9,3.4-8,7.8c0,0,0,0.1,0,0.1C31.5,22.3,35,25.8,39.3,25.9z M39.3,12.2
      c3.3-0.1,5.9,2.5,6,5.8c0.1,3.3-2.5,5.9-5.8,6c-3.3,0.1-5.9-2.5-6-5.8c0-0.1,0-0.1,0-0.2C33.5,14.8,36.1,12.2,39.3,12.2L39.3,12.2z
      "/>
    <path d="M68.9,44.4l-6.8,6.8c-0.3,0.4-0.2,1.1,0.2,1.4c0.4,0.3,0.8,0.3,1.2,0l5.1-5.1V66c0,0.6,0.4,1,1,1s1-0.4,1-1V47.5l5.1,5.1
      c0.4,0.3,1.1,0.2,1.4-0.2c0.3-0.4,0.3-0.8,0-1.2l-6.8-6.8C69.9,44,69.3,44,68.9,44.4z"/>
  </g>
</svg>