<?xml version="1.0" encoding="utf-8"?>
<!-- Generator: Adobe Illustrator 22.0.1, SVG Export Plug-In . SVG Version: 6.00 Build 0)  -->
<svg version="1.1" id="katman_1" xmlns="http://www.w3.org/2000/svg" xmlns:xlink="http://www.w3.org/1999/xlink" x="0px" y="0px"
	 viewBox="0 0 53.3 90" style="enable-background:new 0 0 53.3 90;" xml:space="preserve">
<path d="M26.6,0C24.1,0,22,2.1,22,4.6v37.1h-1.8V10.1c0-2.5-2.1-4.6-4.6-4.6S11,7.6,11,10.1v36.3H9.2V30.6c0-2.5-2.1-4.6-4.6-4.6
	C2.1,26,0,28.1,0,32v34.1C0,78.1,11.9,90,26.6,90c14.7,0,26.6-11.9,26.6-26.6c0.1-8.4,0-16.9,0-25.4c0-3.9,0-4.6-2.6-4.6
	c-4.4,0-6.6,4.1-6.6,6.6v10.5h-1.8V10.1c0-2.5-2.1-4.6-4.6-4.6c-2.5,0-4.6,2.1-4.6,4.6v31.6h-1.8V4.6C31.2,2.1,29.2,0,26.6,0z
	 M26.4,55.5c0.5,0,1.1,0,1.6,0.1c6.8,0.6,12.5,4.8,16.2,10.6c-3.7,5.8-9.4,10-16.2,10.6c-0.5,0-1,0.1-1.6,0.1c-0.5,0-0.9,0-1.4,0
	c-0.1,0-0.1,0-0.2,0C18.1,76.1,12.3,72,8.6,66.1c3.7-5.8,9.4-10,16.2-10.6c0.1,0,0.1,0,0.2,0C25.5,55.5,25.9,55.5,26.4,55.5z"/>
<path d="M26.4,58.2c-4.4,0-7.9,3.5-7.9,7.9c0,4.4,3.5,7.9,7.9,7.9c4.4,0,7.9-3.5,7.9-7.9C34.3,61.7,30.8,58.2,26.4,58.2 M28.6,63.7
	c1.6,0,2.9,1.3,2.9,2.9s-1.3,2.9-2.9,2.9s-2.9-1.3-2.9-2.9S27,63.7,28.6,63.7"/>
</svg>
