<svg xmlns="http://www.w3.org/2000/svg" viewBox="0 0 53.3 90"><path d="M26.6 0C24.1 0 22 2.1 22 4.6v37.1h-1.8V10.1c0-2.5-2.1-4.6-4.6-4.6S11 7.6 11 10.1v36.3H9.2V30.6c0-2.5-2.1-4.6-4.6-4.6C2.1 26 0 28.1 0 32v34.1C0 78.1 11.9 90 26.6 90c14.7 0 26.6-11.9 26.6-26.6.1-8.4 0-16.9 0-25.4 0-3.9 0-4.6-2.6-4.6-4.4 0-6.6 4.1-6.6 6.6v10.5h-1.8V10.1c0-2.5-2.1-4.6-4.6-4.6-2.5 0-4.6 2.1-4.6 4.6v31.6h-1.8V4.6c0-2.5-2-4.6-4.6-4.6zm-.2 55.5c.5 0 1.1 0 1.6.1 6.8.6 12.5 4.8 16.2 10.6-3.7 5.8-9.4 10-16.2 10.6-.5 0-1 .1-1.6.1h-1.6c-6.7-.8-12.5-4.9-16.2-10.8 3.7-5.8 9.4-10 16.2-10.6h1.6z"/><path d="M26.4 58.2c-4.4 0-7.9 3.5-7.9 7.9S22 74 26.4 74s7.9-3.5 7.9-7.9-3.5-7.9-7.9-7.9m2.2 5.5c1.6 0 2.9 1.3 2.9 2.9s-1.3 2.9-2.9 2.9-2.9-1.3-2.9-2.9 1.3-2.9 2.9-2.9"/></svg>