<?xml version="1.0" encoding="utf-8"?>
<!-- Generator: Adobe Illustrator 22.0.1, SVG Export Plug-In . SVG Version: 6.00 Build 0)  -->
<svg version="1.1" id="katman_1" xmlns="http://www.w3.org/2000/svg" xmlns:xlink="http://www.w3.org/1999/xlink" x="0px" y="0px"
	 viewBox="0 0 83.5 126" style="enable-background:new 0 0 83.5 126;" xml:space="preserve">
<path d="M75,0H8.6C3.9,0,0,3.8,0,8.6v108.8c0,4.7,3.8,8.6,8.6,8.6h66.3c4.7,0,8.6-3.8,8.6-8.6V8.6C83.5,3.8,79.7,0,75,0z M41.8,88.3
	c0,0-26.6-26.6-26.6-36.5c0-7.8,6.3-14.1,14.1-14.1c5.5,0,10.2,3.1,12.5,7.7c2.3-4.6,7.1-7.7,12.5-7.7c7.8,0,14.1,6.3,14.1,14.1
	C68.4,61.3,41.8,88.3,41.8,88.3z"/>
</svg>
