<?xml version="1.0" encoding="utf-8"?>
<!-- Generator: Adobe Illustrator 22.0.1, SVG Export Plug-In . SVG Version: 6.00 Build 0)  -->
<svg version="1.1" id="katman_1" xmlns="http://www.w3.org/2000/svg" xmlns:xlink="http://www.w3.org/1999/xlink" x="0px" y="0px"
	 viewBox="0 0 58.6 55.5" style="enable-background:new 0 0 58.6 55.5;" xml:space="preserve">
<path d="M18.6,5.8c0,5-0.5,10.1,0.1,15.1c0.4,3.2,5.4,3.2,5,0c-0.6-5-0.2-10-0.1-15.1C23.7,2.6,18.7,2.6,18.6,5.8L18.6,5.8z"/>
<path d="M36.6,3.7c0.4,5.6-0.9,11.1-1,16.7c-0.1,3.2,4.9,3.2,5,0c0.1-5.6,1.4-11.1,1-16.7C41.4,0.6,36.4,0.5,36.6,3.7L36.6,3.7z"/>
<path d="M0.1,36.1C3.5,49.3,16,55.6,28.9,55.5c13.7-0.1,24.7-6.9,29.6-19.9c1.1-3-3.7-4.3-4.8-1.3c-4.1,11.1-13.4,15.9-24.8,16.2
	c-10.6,0.3-21.2-4.9-24-15.8C4.1,31.6-0.7,33,0.1,36.1L0.1,36.1z"/>
</svg>
