<svg data-name="Layer 1" xmlns="http://www.w3.org/2000/svg" viewBox="0 0 77.77 74.29"><path d="M76 26.58l-12.1-1.76-9-1.3c-.48-.07-2.2-.44-3.14-.5a15.46 15.46 0 0 0-1.33-2.68l-3.79-7.67L41 1.26A2.07 2.07 0 0 0 38.89 0a2.07 2.07 0 0 0-2.16 1.25l-5.41 11-4 8.11a22.38 22.38 0 0 0-1.23 2.49c0 .06 0 .12-.08.17-.95.07-2.7.45-3.16.52l-8.47 1.23L1.8 26.58c-1.91.28-2.33 3-1.1 4.18L18 47.62l-4 23.52A2.54 2.54 0 0 0 17.64 74l21.24-11.21L60.13 74a2.53 2.53 0 0 0 3.67-2.82l-4-23.52 17.3-16.87c1.2-1.23.78-3.93-1.1-4.21z" fill="#e8bbc5"/></svg>