<svg xmlns="http://www.w3.org/2000/svg" viewBox="0 0 67.6 69.9"><path d="M62 8.5H41.1l-3-5.3C37 1.2 34.8 0 32.6 0c-1.1 0-2.2.3-3.1.8l-26.2 15c-1.5.8-2.5 2.2-3 3.9S0 23 .8 24.5l24.1 42.1c.8 1.4 2.1 2.4 3.6 2.9.7.3 1.4.4 2.2.4H62c3.1 0 5.6-2.5 5.6-5.6V14.1c0-3.1-2.6-5.6-5.6-5.6zm.8 26.3l-4.7 3.4-1.6 1.2-3.3 2.4.6 1.7 3.1 9.6v.5c0 .1-.1.2-.2.3-.2.1-.3.1-.5.1-.1 0-.3 0-.4-.1l-9.6-7-9.6 7c-.2.2-.6.2-.8 0-.2-.2-.4-.5-.3-.8l3-9.2.7-2.1-9.6-7c-.2-.2-.4-.5-.3-.8.1-.3.4-.5.7-.5h11.9l.1-.2 3.6-11.1c.1-.3.4-.5.7-.5.2 0 .3.1.4.1.1 0 .1.1.1.1 0 .1.1.1.1.2l3.7 11.3h11.8c.3 0 .6.2.7.5.1.4 0 .7-.3.9zM2.7 23.4c-.6-1-.7-2.1-.4-3.2s1-2 2-2.6l26.2-15c.6-.4 1.4-.6 2.1-.6 1.5 0 2.9.8 3.7 2.1l2.4 4.2h-7.9c-3.1 0-5.6 2.5-5.6 5.6v48.6L2.7 23.4z"/><path d="M39.9 44.1v.2l-2.4 7.1L45 46l-4.6-3.4zm9.6-9.1l-6.6-.1-2 6.3 5.3 3.9 5.3-3.9zm-8.1 0l-1-.1h-8.2l7.5 5.4zm4.8-10.3l-2.8 8.8H49zM47.4 46l7.5 5.4-2.9-8.8zm8.8-11.1H55l-3.7.1H51l1.7 5.3 3-2.1.2-.2 4.3-3.1z"/></svg>