<svg xmlns="http://www.w3.org/2000/svg" viewBox="0 0 896 887"><path d="M745.1 297.1C745.1 133 612.1 0 448 0 283.9 0 150.9 133 150.9 297.1c0 78.8 31.3 154.4 87 210.1 18.2 18.2 38.6 34 60.9 47-138.2 46-247.6 152.9-296.9 290-6 16.6 2.7 35 19.3 40.9 16.6 6 35-2.7 40.9-19.3C120.3 703.3 275.4 594.2 448 594.2c164.1 0 297.1-133 297.1-297.1zM448 530.2c-128.5 0-233.1-104.6-233.1-233.1S319.5 64 448 64s233.1 104.6 233.1 233.1S576.5 530.2 448 530.2zm446.1 314c-36.7-101.7-106.8-188-199-244.5-15-9.4-34.7-4.9-44.1 10.1-9.4 15-4.9 34.7 10.1 44.1.2.1.4.3.6.4 79.7 48.9 140.5 123.5 172.2 211.5 6 16.6 24.3 25.3 40.9 19.3 16.6-5.9 25.3-24.3 19.3-40.9z"/></svg>