<svg xmlns="http://www.w3.org/2000/svg" width="448" height="280" viewBox="0 0 448 280">
    <path fill="#FFF" fill-rule="evenodd" d="M364.375 177.472c.098.02.196.059.45.137-9.355 9.511-17.558 19.725-24.804 31.014.41-.137.664-.215.899-.313 3.75-1.543 7.617-1.855 11.581-.996 5.8 1.27 9.414 4.941 11.386 10.41 1.719 4.745 1.855 9.686 1.523 14.647-.449 6.386-1.992 12.5-4.98 18.202-3.808 7.265-9.179 12.948-16.971 15.917-7.91 3.008-15.859 2.793-23.534-.781-7.324-3.398-11.21-9.53-12.675-17.323-1.328-7.148-.312-14.12 1.64-21.015 2.383-8.339 6.133-16.073 10.527-23.514 5.41-9.16 11.738-17.655 18.534-25.818.235-.274.684-.547 1.035-.547 8.457-.02 16.913-.02 25.39-.02zm72.332 13.925c1.836 5.469 2.324 11.152 2.324 16.425-.214 12.812-2.285 24.803-7.03 36.248-2.461 5.956-5.508 11.58-10.058 16.229-4.336 4.414-9.492 7.402-15.722 8.105-10.312 1.133-19.237-3.144-23.416-13.905-2.032-5.195-2.715-10.625-2.754-16.152-.078-13.124 2.109-25.818 7.03-38.005 2.383-5.918 5.39-11.484 9.922-16.073 4.921-4.98 10.78-8.047 17.87-8.242 10.78-.293 18.397 5.136 21.834 15.37zM282.161 177.61c7.402 2.695 12.167 7.812 13.32 15.76 1.66 11.543-4.61 23.202-16.66 26.444-.234.02-.468.117-.859.254 1.094.293 2.031.488 2.95.8 6.347 2.188 9.725 6.856 10.448 13.3.86 7.637-.508 14.922-4.746 21.484-3.476 5.37-8.417 8.906-14.491 10.8-8.203 2.558-16.484 2.715-24.686.137-10.937-3.457-15.253-12.168-14.628-22.245.117-1.719.39-3.418.605-5.175h21.757c-.04.507-.098 1.015-.098 1.503-.02 1.719-.254 3.477.02 5.156.546 3.379 3.183 4.648 6.327 3.3 1.563-.683 2.676-1.855 3.438-3.339 1.68-3.3 2.128-6.835 1.503-10.448-.644-3.672-3.3-5.8-7.226-6.016-1.62-.078-3.242-.02-5-.02.88-5.546 1.739-11.014 2.618-16.56 1.738 0 3.437.117 5.097-.02 6.25-.547 10.019-4.375 10.488-10.644.097-1.328.136-2.676.039-3.984-.118-1.621-.742-3.066-2.403-3.73-1.777-.703-3.456-.43-4.96.78-1.777 1.446-2.617 3.438-3.164 5.586-.377 1.45-.372 1.52-1.772 1.524h-19.34c.352-2.246.547-4.375 1.055-6.426 2.597-10.76 9.589-16.971 20.252-19.178 6.758-1.387 13.535-1.426 20.116.957zm52.665 47.907c-.976.879-1.796 2.07-2.382 3.281-1.856 3.75-2.246 7.832-2.559 11.933.078 1.328.078 2.676.274 3.984.215 1.582.82 3.008 2.558 3.457 1.348.351 2.754.234 3.75-.762s1.953-2.11 2.597-3.34c1.72-3.241 2.285-6.835 2.5-10.448.117-1.933.137-3.926-.156-5.82-.547-3.457-3.984-4.629-6.582-2.285zm77-28.025a7.644 7.644 0 0 0-1.66 2.128c-.683 1.29-1.308 2.617-1.758 4.004-2.539 7.5-4.238 15.194-5.488 23.006-.82 5.176-1.503 10.37-1.347 15.624.039 1.27.312 2.598.762 3.79.683 1.835 2.656 2.42 4.238 1.23.859-.645 1.601-1.543 2.148-2.461a20.057 20.057 0 0 0 1.797-3.887c4.003-11.66 6.171-23.67 6.991-35.955.059-2.148.098-4.316-.761-6.347-.918-2.187-3.145-2.714-4.922-1.132zM217.735 14.03c11.305 5.88 18.41 15.33 22.645 27.09 3.675 10.045 4.69 20.44 4.375 31.01a192.73 192.73 0 0 1-.216 5.604c.886-5.613 1.774-11.226 2.666-16.84 2.52-15.89 5.075-31.744 7.525-47.634.21-1.225.595-1.645 1.855-1.61 14.525.07 29.05-.07 43.575.175 9.975.175 19.88 1.4 29.33 4.97 12.705 4.795 20.685 13.685 23.1 27.125.877 4.846 1.32 9.664 1.3 14.44 2.458-15.517 4.917-31.039 7.38-46.57h78.995c-2.03 12.88-3.99 25.62-6.02 38.535H399.77c-1.12 6.86-2.24 13.51-3.36 20.44h31.115c-1.96 12.635-3.885 24.955-5.81 37.415H392.21c-.945 0-1.68 0-1.855 1.225-1.015 6.615-2.135 13.23-3.185 19.845-.035.21 0 .455 0 .84h34.37c-2.17 13.825-4.305 27.44-6.475 41.16H336c4.842-30.52 9.673-61.017 14.505-91.524a70.769 70.769 0 0 1-2.255 6.019c-6.195 14.595-17.43 23.73-32.34 28.595-9.135 2.975-18.55 3.99-28.105 3.885-1.61-.035-3.325 0-5.215 0-2.765 17.71-5.495 35.315-8.26 53.025h-44.555c.595-3.71 1.155-7.385 1.715-11.06 2.534-16.013 5.067-31.994 7.601-48.004a138.08 138.08 0 0 1-6.656 18.744c-5.075 11.55-11.655 22.05-21.455 30.24-9.31 7.84-20.125 11.97-32.2 13.02-8.47.77-16.765.105-24.745-3.08-12.705-5.075-21.07-14.42-26.32-26.81-3.99-9.485-5.46-19.495-5.46-29.715.004-2.047.042-4.09.115-6.125a143.513 143.513 0 0 1-3.335 11.27c-3.465 10.15-7.945 19.775-14.525 28.35-8.785 11.445-20.3 18.48-34.475 21.21-7.595 1.47-15.26 1.96-22.96 2.03-13.93.105-27.86.07-41.825.07v-.385c.56-3.185 1.19-6.37 1.715-9.59 2.905-18.165 5.775-36.365 8.645-54.53 2.73-17.255 5.46-34.51 8.19-51.8 2.24-14.14 4.48-28.315 6.72-42.455.035-.28.175-.525.315-.875.49-.035.945-.07 1.4-.07 11.9 0 23.8-.035 35.7.07 9.38.07 18.585 1.365 27.44 4.655 15.575 5.81 24.815 17.185 28.84 33.075 2.237 8.743 2.766 17.61 2.524 26.539a151.267 151.267 0 0 1 4.441-14.99c4.34-12.284 10.185-23.764 19.145-33.424C160.93 16.2 174.02 10.006 189.56 8.92c9.835-.665 19.32.525 28.175 5.11zm-27.65 33.914c-3.15.036-6.055 1.016-8.155 3.396-1.54 1.785-3.08 3.745-3.99 5.88-1.68 4.025-3.15 8.155-4.27 12.355-4.095 15.155-6.195 30.59-6.58 46.305v1.4l.025 1.078c.08 3.775.147 7.56 1.585 11.172 1.54 3.99 4.375 5.88 8.645 5.775 4.55-.07 7.735-2.555 9.835-6.3 1.785-3.22 3.465-6.65 4.55-10.185 5.635-18.41 8.12-37.31 7.7-56.56-.07-3.255-.98-6.545-2.03-9.66-1.12-3.22-3.92-4.69-7.315-4.656zM69.37 51.271c-4.27 26.81-8.575 53.62-12.915 80.64.735.105 1.19.21 1.645.21 6.755.07 11.97-2.8 15.26-8.68 1.505-2.73 2.625-5.705 3.57-8.715 4.515-14.07 6.615-28.595 6.545-43.33a44.13 44.13 0 0 0-1.715-11.69c-1.61-5.565-6.65-8.75-12.39-8.435zM294 47.14c-1.855 11.76-3.71 23.45-5.565 35.28 2.695 0 5.32.245 7.875-.035 5.705-.63 10.15-3.395 12.6-8.75 2.485-5.495 3.115-11.305 2.205-17.255-.56-3.57-2.625-6.16-5.95-7.7-3.535-1.61-7.28-1.785-11.165-1.54z"/>
</svg>
