<?xml version="1.0" encoding="utf-8"?>
<!-- Generator: Adobe Illustrator 22.0.1, SVG Export Plug-In . SVG Version: 6.00 Build 0)  -->
<svg version="1.1" id="katman_1" xmlns="http://www.w3.org/2000/svg" xmlns:xlink="http://www.w3.org/1999/xlink" x="0px" y="0px"
	 viewBox="0 0 67.6 69.9" style="enable-background:new 0 0 67.6 69.9;" xml:space="preserve">
<g>
	<path d="M62,8.5H41.1l-3-5.3c-1.1-2-3.3-3.2-5.5-3.2c-1.1,0-2.2,0.3-3.1,0.8l-26.2,15c-1.5,0.8-2.5,2.2-3,3.9S0,23,0.8,24.5
		l24.1,42.1c0.8,1.4,2.1,2.4,3.6,2.9c0.7,0.3,1.4,0.4,2.2,0.4H62c3.1,0,5.6-2.5,5.6-5.6V14.1C67.6,11,65,8.5,62,8.5z M62.8,34.8
		l-4.7,3.4l0,0l-1.6,1.2l-3.3,2.4l0.6,1.7c0,0,0,0,0,0l3.1,9.6c0,0,0,0.1,0,0.1c0,0.1,0,0.3,0,0.4c0,0,0,0,0,0
		c0,0.1-0.1,0.2-0.2,0.3C56.5,54,56.4,54,56.2,54c-0.1,0-0.3,0-0.4-0.1l-9.6-7l-9.6,7c-0.2,0.2-0.6,0.2-0.8,0
		c-0.2-0.2-0.4-0.5-0.3-0.8l3-9.2c0,0,0,0,0,0l0.7-2.1l0,0l-9.6-7c-0.2-0.2-0.4-0.5-0.3-0.8c0.1-0.3,0.4-0.5,0.7-0.5c0,0,0,0,0,0
		l10.4,0l1.5,0l0.1-0.2l3.6-11.1c0.1-0.3,0.4-0.5,0.7-0.5c0,0,0,0,0,0l0,0c0.2,0,0.3,0.1,0.4,0.1c0,0,0,0,0,0c0.1,0,0.1,0.1,0.1,0.1
		c0,0.1,0.1,0.1,0.1,0.2l3.7,11.3h0.5l1.9,0l0,0l1.6,0l7.8,0c0,0,0,0,0,0c0.3,0,0.6,0.2,0.7,0.5C63.2,34.3,63.1,34.6,62.8,34.8z
		 M2.7,23.4c-0.6-1-0.7-2.1-0.4-3.2s1-2,2-2.6l26.2-15c0.6-0.4,1.4-0.6,2.1-0.6c1.5,0,2.9,0.8,3.7,2.1l2.4,4.2h-7.9
		c-3.1,0-5.6,2.5-5.6,5.6v48.6L2.7,23.4z"/>
	<polygon points="39.9,44.1 39.9,44.3 39.9,44.3 37.5,51.4 45,46 40.4,42.6 	"/>
	<polygon points="49.5,35 42.9,34.9 40.9,41.2 46.2,45.1 51.5,41.2 	"/>
	<polygon points="41.4,35 40.4,34.9 40,34.9 40,34.9 32.2,34.9 39.7,40.3 	"/>
	<polygon points="46.2,24.7 43.4,33.5 49,33.5 	"/>
	<polygon points="47.4,46 54.9,51.4 52,42.6 	"/>
	<polygon points="56.2,34.9 55,34.9 51.3,35 51.3,35 51,35 51,35 52.7,40.3 55.7,38.2 55.7,38.2 55.9,38 60.2,34.9 	"/>
</g>
</svg>
