<?xml version="1.0" encoding="UTF-8"?>
<svg width="40px" height="40px" viewBox="0 0 40 40" version="1.1" xmlns="http://www.w3.org/2000/svg" xmlns:xlink="http://www.w3.org/1999/xlink">
    <!-- Generator: Sketch 48.1 (47250) - http://www.bohemiancoding.com/sketch -->
    <title>computer</title>
    <desc>Created with Sketch.</desc>
    <defs></defs>
    <g id="DataEngi_HomePage-Copy-2" stroke="none" stroke-width="1" fill="none" fill-rule="evenodd" transform="translate(-835.000000, -1412.000000)">
        <g id="computer" transform="translate(835.000000, 1412.000000)" fill="#FFFFFF" fill-rule="nonzero">
            <polygon id="Shape" points="3.87096774 12.9032258 6.4516129 12.9032258 6.4516129 14.1935484 3.87096774 14.1935484"></polygon>
            <path d="M38.0645161,10.3225806 C39.1314894,10.3225806 40,9.45407008 40,8.38709677 L40,1.93548387 C40,0.868510565 39.1314894,0 38.0645161,0 L29.0322581,0 C27.9652848,0 27.0967742,0.868510565 27.0967742,1.93548387 L27.0967742,8.38709677 C27.0967742,9.45407008 27.9652848,10.3225806 29.0322581,10.3225806 L30.9677419,10.3225806 L30.9677419,11.6129032 L29.6774194,11.6129032 L29.6774194,12.9032258 L32.9032258,12.9032258 L32.9032258,19.3548387 L30.2406754,19.3548387 C29.7259324,18.8523815 29.0921119,18.4677419 28.3826865,18.2560484 C28.3858367,18.1908392 28.3870968,18.1278352 28.3870968,18.0645161 C28.3870968,15.218624 26.0716985,12.9032258 23.2258065,12.9032258 C21.4601185,12.9032258 19.8188634,13.8218246 18.8788432,15.2910786 C18.2166709,14.9936996 17.50063,14.8387097 16.7741935,14.8387097 C14.6330015,14.8387097 12.7050781,16.188256 11.9509198,18.1678427 C11.4607485,18.2730595 11.0039693,18.4614415 10.5890877,18.7096774 L5.80645161,18.7096774 L5.80645161,16.7741935 L8.38709677,16.7741935 C9.45407008,16.7741935 10.3225806,15.905683 10.3225806,14.8387097 L10.3225806,1.93548387 C10.3225806,0.868510565 9.45407008,0 8.38709677,0 L1.93548387,0 C0.868510565,0 0,0.868510565 0,1.93548387 L0,14.8387097 C0,15.905683 0.868510565,16.7741935 1.93548387,16.7741935 L4.51612903,16.7741935 L4.51612903,20 L9.21685984,20 C8.94247734,20.3915701 8.72952371,20.8237777 8.58965476,21.2903226 L5.80645161,21.2903226 L5.80645161,28.3870968 L3.22580645,28.3870968 C2.15883315,28.3870968 1.29032258,29.2556073 1.29032258,30.3225806 L1.29032258,36.1290323 L0,36.1290323 L0,38.0645161 C0,39.1314894 0.868510565,40 1.93548387,40 L12.2580645,40 C13.3250378,40 14.1935484,39.1314894 14.1935484,38.0645161 L14.1935484,36.1290323 L12.9032258,36.1290323 L12.9032258,30.3225806 C12.9032258,29.2556073 12.0347152,28.3870968 10.9677419,28.3870968 L7.09677419,28.3870968 L7.09677419,22.5806452 L8.38709677,22.5806452 C8.38709677,25.0702495 10.4136215,27.0967742 12.9032258,27.0967742 L27.0967742,27.0967742 C29.3671245,27.0967742 31.2465348,25.4104713 31.5612399,23.2258065 L34.1935484,23.2258065 L34.1935484,28.3870968 L29.6774194,28.3870968 L29.6774194,40 L40,40 L40,28.3870968 L35.483871,28.3870968 L35.483871,21.9354839 L31.5587198,21.9354839 C31.4916205,21.4812248 31.3523815,21.0490171 31.157384,20.6451613 L34.1935484,20.6451613 L34.1935484,12.9032258 L37.4193548,12.9032258 L37.4193548,11.6129032 L36.1290323,11.6129032 L36.1290323,10.3225806 L38.0645161,10.3225806 Z M9.03225806,10.3225806 L1.29032258,10.3225806 L1.29032258,3.87096774 L9.03225806,3.87096774 L9.03225806,10.3225806 Z M1.93548387,1.29032258 L8.38709677,1.29032258 C8.74306952,1.29032258 9.03225806,1.57951113 9.03225806,1.93548387 L9.03225806,2.58064516 L1.29032258,2.58064516 L1.29032258,1.93548387 C1.29032258,1.57951113 1.57951113,1.29032258 1.93548387,1.29032258 Z M1.29032258,14.8387097 L1.29032258,11.6129032 L9.03225806,11.6129032 L9.03225806,14.8387097 C9.03225806,15.1946824 8.74306952,15.483871 8.38709677,15.483871 L1.93548387,15.483871 C1.57951113,15.483871 1.29032258,15.1946824 1.29032258,14.8387097 Z M12.9032258,38.0645161 C12.9032258,38.4204889 12.6140373,38.7096774 12.2580645,38.7096774 L1.93548387,38.7096774 C1.57951113,38.7096774 1.29032258,38.4204889 1.29032258,38.0645161 L1.29032258,37.4193548 L12.9032258,37.4193548 L12.9032258,38.0645161 Z M11.6129032,30.3225806 L11.6129032,36.1290323 L2.58064516,36.1290323 L2.58064516,30.3225806 C2.58064516,29.9666079 2.86983371,29.6774194 3.22580645,29.6774194 L10.9677419,29.6774194 C11.3237147,29.6774194 11.6129032,29.9666079 11.6129032,30.3225806 Z M30.9677419,38.7096774 L30.9677419,34.8387097 L38.7096774,34.8387097 L38.7096774,38.7096774 L30.9677419,38.7096774 Z M38.7096774,33.5483871 L30.9677419,33.5483871 L30.9677419,29.6774194 L38.7096774,29.6774194 L38.7096774,33.5483871 Z M27.0967742,25.8064516 L12.9032258,25.8064516 C11.1246219,25.8064516 9.67741935,24.359249 9.67741935,22.5806452 C9.67741935,20.9497858 10.8981225,19.5740927 12.516066,19.3806703 L12.9394531,19.3296371 L13.0588458,18.9201109 C13.5361013,17.2766507 15.0645791,16.1290323 16.7741935,16.1290323 C17.4864541,16.1290323 18.1857989,16.3290701 18.7988281,16.7064642 L19.4146926,17.0863785 L19.7218372,16.4301915 C20.3569178,15.0708795 21.7322959,14.1935484 23.2258065,14.1935484 C25.3606981,14.1935484 27.0967742,15.9296245 27.0967742,18.0645161 C27.0967742,18.2425025 27.0807081,18.4321447 27.045741,18.6611644 L26.9483997,19.2993952 L27.5863155,19.3961064 C29.1462953,19.6342616 30.3225806,21.0033392 30.3225806,22.5806452 C30.3225806,24.359249 28.8753781,25.8064516 27.0967742,25.8064516 Z M29.0322581,1.29032258 L38.0645161,1.29032258 C38.4204889,1.29032258 38.7096774,1.57951113 38.7096774,1.93548387 L38.7096774,6.4516129 L28.3870968,6.4516129 L28.3870968,1.93548387 C28.3870968,1.57951113 28.6762853,1.29032258 29.0322581,1.29032258 Z M28.3870968,8.38709677 L28.3870968,7.74193548 L38.7096774,7.74193548 L38.7096774,8.38709677 C38.7096774,8.74306952 38.4204889,9.03225806 38.0645161,9.03225806 L29.0322581,9.03225806 C28.6762853,9.03225806 28.3870968,8.74306952 28.3870968,8.38709677 Z M34.8387097,11.6129032 L32.2580645,11.6129032 L32.2580645,10.3225806 L34.8387097,10.3225806 L34.8387097,11.6129032 Z" id="Shape"></path>
            <polygon id="Shape" points="32.2580645 30.9677419 33.5483871 30.9677419 33.5483871 32.2580645 32.2580645 32.2580645"></polygon>
            <polygon id="Shape" points="36.1290323 36.1290323 37.4193548 36.1290323 37.4193548 37.4193548 36.1290323 37.4193548"></polygon>
            <polygon id="Shape" points="34.8387097 30.9677419 37.4193548 30.9677419 37.4193548 32.2580645 34.8387097 32.2580645"></polygon>
            <polygon id="Shape" points="32.2580645 36.1290323 34.8387097 36.1290323 34.8387097 37.4193548 32.2580645 37.4193548"></polygon>
        </g>
    </g>
</svg>