<?xml version="1.0" encoding="UTF-8"?>
<svg width="40px" height="40px" viewBox="0 0 40 40" version="1.1" xmlns="http://www.w3.org/2000/svg" xmlns:xlink="http://www.w3.org/1999/xlink">
    <!-- Generator: Sketch 48.1 (47250) - http://www.bohemiancoding.com/sketch -->
    <title>diagram</title>
    <desc>Created with Sketch.</desc>
    <defs></defs>
    <g id="DataEngi_HomePage-Copy-2" stroke="none" stroke-width="1" fill="none" fill-rule="evenodd" transform="translate(-835.000000, -1176.000000)">
        <g id="diagram" transform="translate(835.000000, 1176.000000)" fill="#FFFFFF" fill-rule="nonzero">
            <rect id="Rectangle-path" x="0.000249480249" y="38.6699376" width="39.9168399" height="1.33056133"></rect>
            <path d="M38.5166736,5.77380457 L35.8555509,0.451559252 C35.6914761,0.122744283 35.2920582,-0.0108108108 34.9632432,0.153264033 C34.9630769,0.153347193 34.9629106,0.153430353 34.9627443,0.153513514 L29.640499,2.81463617 C29.311684,2.97887734 29.1782121,3.37862786 29.3424532,3.70744283 C29.5066944,4.0362578 29.9064449,4.16972973 30.2352599,4.00548857 L34.089896,2.07950104 L33.0380873,5.08257796 C28.4149688,18.2491476 16.5073597,27.486237 2.60482328,28.6907277 L2.717921,30.021289 C17.1442827,28.7715593 29.4999584,19.1851143 34.2948025,5.5216632 L35.3685655,2.45338877 L37.3258212,6.36856549 C37.4900624,6.69738046 37.8898129,6.83085239 38.2186279,6.66661123 C38.547526,6.50237006 38.6809148,6.1027027 38.5166736,5.77380457 Z" id="Shape"></path>
            <path d="M7.98361746,32.017131 L3.32665281,32.017131 C2.95925156,32.017131 2.66137214,32.3150104 2.66137214,32.6824116 L2.66137214,36.6740956 C2.66137214,37.0414969 2.95925156,37.3393763 3.32665281,37.3393763 L7.98361746,37.3393763 C8.35101871,37.3393763 8.64889813,37.0414969 8.64889813,36.6740956 L8.64889813,32.6824116 C8.64889813,32.3150104 8.35101871,32.017131 7.98361746,32.017131 Z M7.3183368,36.008815 L3.99193347,36.008815 L3.99193347,33.3476923 L7.3183368,33.3476923 L7.3183368,36.008815 Z" id="Shape"></path>
            <path d="M15.3017048,30.021289 L10.6447401,30.021289 C10.2773389,30.021289 9.97945946,30.3191684 9.97945946,30.6865696 L9.97945946,36.6740956 C9.97945946,37.0414969 10.2773389,37.3393763 10.6447401,37.3393763 L15.3017048,37.3393763 C15.669106,37.3393763 15.9669854,37.0414969 15.9669854,36.6740956 L15.9669854,30.6865696 C15.9669854,30.3191684 15.669106,30.021289 15.3017048,30.021289 Z M14.6364241,36.008815 L11.3100208,36.008815 L11.3100208,31.3518503 L14.6364241,31.3518503 L14.6364241,36.008815 Z" id="Shape"></path>
            <path d="M22.6197921,26.6948857 L17.9628274,26.6948857 C17.5954262,26.6948857 17.2975468,26.9927651 17.2975468,27.3601663 L17.2975468,36.6740956 C17.2975468,37.0414969 17.5954262,37.3393763 17.9628274,37.3393763 L22.6197921,37.3393763 C22.9871933,37.3393763 23.2850728,37.0414969 23.2850728,36.6740956 L23.2850728,27.3601663 C23.2850728,26.9927651 22.9871933,26.6948857 22.6197921,26.6948857 Z M21.9545114,36.008815 L18.6281081,36.008815 L18.6281081,28.025447 L21.9545114,28.025447 L21.9545114,36.008815 Z" id="Shape"></path>
            <path d="M29.9378794,22.037921 L25.2809148,22.037921 C24.9135135,22.037921 24.6156341,22.3358004 24.6156341,22.7032017 L24.6156341,36.6740956 C24.6156341,37.0414969 24.9135135,37.3393763 25.2809148,37.3393763 L29.9378794,37.3393763 C30.3052807,37.3393763 30.6031601,37.0414969 30.6031601,36.6740956 L30.6031601,22.7032017 C30.6031601,22.3358004 30.3052807,22.037921 29.9378794,22.037921 Z M29.2725988,36.008815 L25.9461954,36.008815 L25.9461954,23.3684823 L29.2725988,23.3684823 L29.2725988,36.008815 Z" id="Shape"></path>
            <path d="M37.2559667,12.7239917 L32.5990021,12.7239917 C32.2316008,12.7239917 31.9337214,13.0218711 31.9337214,13.3892723 L31.9337214,36.6740956 C31.9337214,37.0414969 32.2316008,37.3393763 32.5990021,37.3393763 L37.2559667,37.3393763 C37.623368,37.3393763 37.9212474,37.0414969 37.9212474,36.6740956 L37.9212474,13.3892723 C37.9212474,13.0218711 37.623368,12.7239917 37.2559667,12.7239917 Z M36.5906861,36.008815 L33.2642827,36.008815 L33.2642827,14.054553 L36.5906861,14.054553 L36.5906861,36.008815 Z" id="Shape"></path>
        </g>
    </g>
</svg>