<?xml version="1.0" encoding="UTF-8"?>
<svg width="20px" height="20px" viewBox="0 0 20 20" version="1.1" xmlns="http://www.w3.org/2000/svg" xmlns:xlink="http://www.w3.org/1999/xlink">
    <!-- Generator: Sketch 48.1 (47250) - http://www.bohemiancoding.com/sketch -->
    <title>Shape</title>
    <desc>Created with Sketch.</desc>
    <defs></defs>
    <g id="DataEngi_HomePage-Copy-2" stroke="none" stroke-width="1" fill="none" fill-rule="evenodd" transform="translate(-259.000000, -4633.000000)">
        <g id="Group-29" transform="translate(0.000000, 4496.000000)" fill="#FFFFFF" fill-rule="nonzero">
            <g id="Group-25" transform="translate(144.000000, 137.000000)">
                <g id="linkedin" transform="translate(115.000000, 0.000000)">
                    <path d="M4.44444444,2.22222222 C4.44444444,3.44444444 3.66666667,4.44444444 2.22222222,4.44444444 C0.888888889,4.44444444 0,3.44444444 0,2.33333333 C0,1.11111111 0.888888889,0 2.22222222,0 C3.55555556,0 4.44444444,1 4.44444444,2.22222222 Z M0,20 L4.44444444,20 L4.44444444,5.55555556 L0,5.55555556 L0,20 Z M15.1111111,5.77777778 C12.7777778,5.77777778 11.4444444,7.11111111 10.8888889,8 L10.7777778,8 L10.5555556,6.11111111 L6.55555556,6.11111111 C6.55555556,7.33333333 6.66666667,8.77777778 6.66666667,10.4444444 L6.66666667,20 L11.1111111,20 L11.1111111,12.1111111 C11.1111111,11.6666667 11.1111111,11.3333333 11.2222222,11 C11.5555556,10.2222222 12.1111111,9.22222222 13.3333333,9.22222222 C14.8888889,9.22222222 15.5555556,10.5555556 15.5555556,12.3333333 L15.5555556,20 L20,20 L20,11.7777778 C20,7.66666667 17.8888889,5.77777778 15.1111111,5.77777778 Z" id="Shape"></path>
                </g>
            </g>
        </g>
    </g>
</svg>