<?xml version="1.0" encoding="UTF-8"?>
<svg width="40px" height="47px" viewBox="0 0 40 47" version="1.1" xmlns="http://www.w3.org/2000/svg" xmlns:xlink="http://www.w3.org/1999/xlink">
    <!-- Generator: Sketch 48.1 (47250) - http://www.bohemiancoding.com/sketch -->
    <title>medal</title>
    <desc>Created with Sketch.</desc>
    <defs></defs>
    <g id="DataEngi_HomePage-Copy-2" stroke="none" stroke-width="1" fill="none" fill-rule="evenodd" transform="translate(-335.000000, -1169.000000)">
        <g id="medal" transform="translate(335.000000, 1169.000000)" fill="#FFFFFF" fill-rule="nonzero">
            <path d="M39.8246957,39.0209975 L32.9609275,26.9815887 C33.6565797,26.6574507 34.073971,25.916564 34.0275942,25.0830665 L33.5174493,20.822968 L36.4391884,17.7668103 C37.0884638,17.1185345 37.1348406,16.0072044 36.4855652,15.2200123 L33.5638261,12.0712438 L34.1667246,7.7648399 C34.2594783,6.83873153 33.6102029,5.91262315 32.6826667,5.72740148 L28.4623768,4.89390394 L26.4217971,1.14316502 C26.0044058,0.263362069 24.9841159,-0.107081281 24.0565797,0.263362069 L24.0102029,0.263362069 L20.1145507,2.0692734 L16.3116522,0.21705665 C15.8942609,-0.0144704433 15.3841159,-0.0607758621 14.9203478,0.0781403941 C14.4565797,0.21705665 14.0855652,0.541194581 13.8536812,0.95794335 L11.7667246,4.70868227 L7.54643478,5.44956897 C6.57252174,5.63479064 5.92324638,6.5145936 6.016,7.53331281 L6.52614493,11.7934113 L3.6044058,14.849569 C2.95513043,15.4978448 2.90875362,16.6091749 3.55802899,17.396367 L6.47976812,20.5451355 L5.87686957,24.8515394 C5.78411594,25.6850369 6.29426087,26.4722291 7.08266667,26.796367 L0.172521739,39.0209975 C-0.0129855072,39.29883 0.0333913043,39.6692734 0.172521739,39.9471059 C0.358028986,40.2249384 0.636289855,40.4101601 0.960927536,40.4101601 L8.38121739,40.4101601 L11.7667246,46.2909483 C11.9522319,46.5687808 12.2304928,46.7540025 12.5551304,46.7540025 C12.8797681,46.7540025 13.2044058,46.5687808 13.3435362,46.2909483 L19.9754203,34.9924261 L26.6073043,46.4298645 C26.7928116,46.707697 27.0710725,46.8929187 27.3957101,46.8929187 C27.7203478,46.8929187 28.0449855,46.707697 28.1841159,46.4298645 L31.5696232,40.4101601 L38.989913,40.4101601 C39.3145507,40.4101601 39.6391884,40.2249384 39.7783188,39.9471059 C40.0102029,39.6692734 40.0102029,39.29883 39.8246957,39.0209975 Z M12.6015072,43.9756773 L9.72614493,39.0209975 C9.54063768,38.743165 9.26237681,38.5579433 8.93773913,38.5579433 L2.53773913,38.5579433 L8.93773913,27.2594212 L11.5812174,27.7224754 L13.6217971,31.4732143 C14.0391884,32.3530172 15.0594783,32.7234606 15.9870145,32.3530172 L16.0333913,32.3530172 L17.9348406,31.4732143 L18.8623768,33.0939039 L12.6015072,43.9756773 Z M15.2913623,30.6860222 C15.2449855,30.6860222 15.2449855,30.6860222 15.2449855,30.6860222 L13.2044058,26.8426724 C12.9261449,26.3796182 12.4623768,26.0091749 11.9058551,25.9628695 L7.63918841,25.1756773 L8.24208696,20.9155788 C8.33484058,20.3599138 8.14933333,19.7579433 7.77831884,19.3875 L4.90295652,16.2387315 L7.82469565,13.1825739 C8.24208696,12.7658251 8.4275942,12.2101601 8.33484058,11.6544951 L7.82469565,7.44070197 C7.82469565,7.44070197 7.82469565,7.39439655 7.87107246,7.34809113 L12.0913623,6.60720443 C12.6015072,6.5145936 13.1116522,6.19045567 13.389913,5.68109606 L15.4768696,1.93035714 L19.2797681,3.78257389 C19.789913,4.0604064 20.4391884,4.0604064 20.9493333,3.78257389 L24.7986087,2.02296798 C24.8449855,2.02296798 24.8449855,2.02296798 24.8449855,2.02296798 L26.8855652,5.86631773 C27.1638261,6.32937192 27.6275942,6.69981527 28.1377391,6.74612069 L32.358029,7.57961823 L31.7551304,11.8397167 C31.6623768,12.3953818 31.8478841,12.9973522 32.2188986,13.3677956 L35.1406377,16.516564 L32.1725217,19.5727217 C31.7551304,19.9894704 31.5696232,20.5451355 31.6623768,21.1008005 L32.1725217,25.360899 L27.9986087,26.0554803 C27.4884638,26.1480911 26.9783188,26.4722291 26.700058,26.9815887 L24.6131014,30.7323276 L20.8102029,28.8801108 C20.300058,28.6022783 19.6507826,28.6022783 19.1406377,28.8801108 L15.2913623,30.6860222 Z M31.0594783,38.5579433 C30.7348406,38.5579433 30.4102029,38.743165 30.2710725,39.0209975 L27.3957101,44.1145936 L20.8565797,32.8160714 C20.8102029,32.6771552 20.7638261,32.5845443 20.6710725,32.4919335 L19.6507826,30.6860222 L19.9754203,30.5471059 L23.7783188,32.3993227 C24.0565797,32.5382389 24.3348406,32.5845443 24.6131014,32.5845443 C25.2623768,32.5845443 25.9116522,32.2604064 26.2362899,31.658436 L28.3232464,27.907697 L31.1058551,27.3983374 L37.4594783,38.5579433 L31.0594783,38.5579433 Z" id="Shape"></path>
            <path d="M29.2507826,16.3313424 C29.2507826,11.2377463 25.0768696,7.07025862 19.9754203,7.07025862 C14.873971,7.07025862 10.700058,11.2377463 10.700058,16.3313424 C10.700058,21.4249384 14.873971,25.5924261 19.9754203,25.5924261 C25.0768696,25.5924261 29.2507826,21.4249384 29.2507826,16.3313424 Z M19.9754203,23.7402094 C15.8942609,23.7402094 12.5551304,20.4062192 12.5551304,16.3313424 C12.5551304,12.2564655 15.8942609,8.92247537 19.9754203,8.92247537 C24.0565797,8.92247537 27.3957101,12.2564655 27.3957101,16.3313424 C27.3957101,20.4062192 24.0565797,23.7402094 19.9754203,23.7402094 Z" id="Shape"></path>
        </g>
    </g>
</svg>