<?xml version="1.0" encoding="UTF-8"?>
<svg width="40px" height="43px" viewBox="0 0 40 43" version="1.1" xmlns="http://www.w3.org/2000/svg" xmlns:xlink="http://www.w3.org/1999/xlink">
    <!-- Generator: Sketch 48.1 (47250) - http://www.bohemiancoding.com/sketch -->
    <title>stopwatch copy 3</title>
    <desc>Created with Sketch.</desc>
    <defs></defs>
    <g id="DataEngi_HomePage-Copy-2" stroke="none" stroke-width="1" fill="none" fill-rule="evenodd" transform="translate(-335.000000, -1409.000000)">
        <g id="stopwatch-copy-3" transform="translate(335.000000, 1409.000000)" fill="#FFFFFF" fill-rule="nonzero">
            <path d="M20.8006977,27.2646021 C21.5105093,27.2047709 22.1575902,26.8125445 22.5776132,26.1869027 L28.9618267,16.6257369 C29.1575192,16.3324904 29.1281994,15.9277068 28.8909137,15.6706545 C28.653628,15.4143408 28.2799711,15.3825786 28.0092745,15.5938342 L19.1819726,22.5120881 C18.6064865,22.965623 18.2444212,23.6666077 18.1891909,24.4355488 C18.1339606,25.2044899 18.3910201,25.9571806 18.8935477,26.5015702 C19.3510728,26.9979472 19.968152,27.2727273 20.6097781,27.2727273 C20.6731907,27.2727273 20.7366032,27.2697726 20.8006977,27.2646021 Z M19.5488109,24.5507792 C19.5726758,24.2132133 19.73223,23.9051937 19.9831529,23.7072338 L25.3677661,19.487291 L21.4736891,25.3189816 C21.2895881,25.5930231 21.0052543,25.76513 20.6936463,25.7917216 C20.3834021,25.8138813 20.0786126,25.6971736 19.8570096,25.4571104 C19.6374521,25.2185244 19.5242641,24.8876064 19.5488109,24.5507792 Z" id="Shape"></path>
            <path d="M37.0230805,13.9319394 C37.0159485,13.9169848 37.0159485,13.9013182 37.0081032,13.8863636 C36.9995448,13.8721212 36.9859939,13.8642879 36.9767222,13.8507576 C36.2556715,12.6159394 35.4026778,11.4672879 34.4341448,10.4261667 L35.9661101,8.89724242 L36.9745826,9.90418182 L40,6.88265152 L36.9745826,3.86183333 L33.9484519,6.88265152 L34.9576376,7.89030303 L33.4256724,9.41922727 C32.382966,8.45216667 31.2332789,7.59975758 29.9958675,6.87980303 C29.9823165,6.87054545 29.9744713,6.85701515 29.9602072,6.8484697 C29.9452299,6.83992424 29.9295393,6.84063636 29.914562,6.83280303 C27.7086176,5.56380303 25.2302288,4.71851515 22.5878027,4.40874242 L22.5878027,3.56060606 L23.6576108,3.56060606 C24.6411211,3.56060606 25.4406244,2.76231818 25.4406244,1.78030303 C25.4406244,0.798287879 24.6404079,0 23.6568976,0 L17.2380487,0 C16.2545385,0 15.4550352,0.798287879 15.4550352,1.78030303 C15.4550352,2.76231818 16.2545385,3.56060606 17.2380487,3.56060606 L18.3078569,3.56060606 L18.3078569,4.38381818 C17.537595,4.46571212 16.7687596,4.59104545 16.0084826,4.76480303 C15.6247781,4.85239394 15.3844278,5.23480303 15.4728653,5.61792424 C15.5605896,6.00104545 15.9435809,6.24174242 16.3272854,6.15272727 C16.9834344,6.0024697 17.6460022,5.88924242 18.3099965,5.81304545 L19.0752659,5.75393939 C19.3091973,5.73613636 19.5245853,5.72331818 19.7342677,5.71334848 L19.7342677,7.12121212 C19.7342677,7.51501515 20.0530706,7.83333333 20.4474732,7.83333333 C20.8418758,7.83333333 21.1606786,7.51501515 21.1606786,7.12121212 L21.1606786,5.71833333 C23.8430442,5.8415303 26.3706443,6.56077273 28.6179546,7.74431818 L27.914734,8.95990909 C27.7178893,9.30101515 27.834855,9.73612121 28.1757672,9.93266667 C28.2877404,9.9974697 28.4104118,10.0280909 28.5316567,10.0280909 C28.7784258,10.0280909 29.0180628,9.90062121 29.1500058,9.6720303 L29.8510867,8.45928788 C32.0827065,9.87284848 33.9784066,11.7656667 35.3941193,13.9938939 L34.1795305,14.6939091 C33.8393315,14.8904545 33.7223658,15.3255606 33.9199237,15.6666667 C34.0525799,15.8952576 34.2915037,16.0227273 34.5382728,16.0227273 C34.6595177,16.0227273 34.7821891,15.9921061 34.8941623,15.927303 L36.111604,15.2251515 C37.3133551,17.5010909 38.0358322,20.0661515 38.1435263,22.7871667 L36.7349455,22.7871667 C36.3405429,22.7871667 36.0217401,23.1054848 36.0217401,23.4992879 C36.0217401,23.8930909 36.3405429,24.2114091 36.7349455,24.2114091 L38.1435263,24.2114091 C38.0358322,26.9324242 37.3133551,29.4974848 36.111604,31.7734242 L34.8941623,31.0712727 C34.5532501,30.8747273 34.1167684,30.9900909 33.9199237,31.3319091 C33.723079,31.6730152 33.8400447,32.1081212 34.1809569,32.3046667 L35.3955458,33.0046818 C33.979833,35.2329091 32.0841329,37.1257273 29.8525132,38.5392879 L29.1514322,37.3265455 C28.9538743,36.9847273 28.5166794,36.8686515 28.1771936,37.0659091 C27.8355682,37.2624545 27.7186025,37.6982727 27.9161604,38.0386667 L28.619381,39.2542576 C26.3720707,40.437803 23.8444706,41.1570455 21.162105,41.2802424 L21.162105,39.8787879 C21.162105,39.4849848 20.8433022,39.1666667 20.4488996,39.1666667 C20.054497,39.1666667 19.7356942,39.4849848 19.7356942,39.8787879 L19.7356942,41.2859394 C18.5967051,41.2467727 17.45415,41.1043485 16.329425,40.8465606 C15.9457205,40.754697 15.5627292,40.9982424 15.4750049,41.3813636 C15.3865674,41.7644848 15.6269177,42.1468939 16.0106222,42.2344848 C17.4341802,42.5620606 18.8884061,42.7272727 20.3312207,42.7272727 C20.3661678,42.7272727 20.3996884,42.7251364 20.4346355,42.7244242 C20.4396279,42.7244242 20.4431939,42.7272727 20.4474732,42.7272727 C20.4531788,42.7272727 20.4581713,42.7237121 20.4638769,42.7237121 C23.8922554,42.7002121 27.1088119,41.7758788 29.8917395,40.179303 C29.9138488,40.1693333 29.9373846,40.1643485 29.9587808,40.1515303 C29.9730449,40.1429848 29.9808901,40.1294545 29.994441,40.120197 C32.8750778,38.4438636 35.2821461,36.043303 36.9645977,33.1691818 C36.9781486,33.1499545 36.9952655,33.135 37.00739,33.1136364 C37.0159485,33.0986818 37.0152353,33.0830152 37.0223673,33.0680606 C38.6513285,30.2480606 39.5877673,26.9822727 39.5877673,23.5 C39.5877673,20.0177273 38.6513285,16.7519394 37.0230805,13.9319394 Z M36.9738694,5.87571212 L37.9823418,6.88265152 L36.9738694,7.89030303 L35.9646837,6.88265152 L36.9738694,5.87571212 Z M19.7342677,4.28768182 L19.7342677,2.13636364 L17.2380487,2.13636364 C17.0419172,2.13636364 16.881446,1.97613636 16.881446,1.78030303 C16.881446,1.5844697 17.0419172,1.42424242 17.2380487,1.42424242 L23.6568976,1.42424242 C23.8530291,1.42424242 24.0135003,1.5844697 24.0135003,1.78030303 C24.0135003,1.97613636 23.8530291,2.13636364 23.6568976,2.13636364 L21.1606786,2.13636364 L21.1606786,4.28768182 C20.9124831,4.27771212 20.6756989,4.27272727 20.4474732,4.27272727 C20.4275034,4.27272727 20.4046808,4.27415152 20.3847111,4.27415152 C20.366881,4.27415152 20.3490508,4.27272727 20.3312207,4.27272727 C20.214255,4.27272727 20.0972893,4.28056061 19.9803236,4.28269697 C19.8975918,4.28483333 19.8198524,4.28412121 19.7342677,4.28768182 Z" id="Shape"></path>
            <path d="M12.987013,10 L9.74025974,10 C9.38116883,10 9.09090909,10.4063636 9.09090909,10.9090909 C9.09090909,11.4118182 9.38116883,11.8181818 9.74025974,11.8181818 L12.987013,11.8181818 C13.3461039,11.8181818 13.6363636,11.4118182 13.6363636,10.9090909 C13.6363636,10.4063636 13.3461039,10 12.987013,10 Z" id="Shape"></path>
            <path d="M13.8636364,14.5454545 L7.04545455,14.5454545 C6.66840909,14.5454545 6.36363636,14.9518182 6.36363636,15.4545455 C6.36363636,15.9572727 6.66840909,16.3636364 7.04545455,16.3636364 L13.8636364,16.3636364 C14.2406818,16.3636364 14.5454545,15.9572727 14.5454545,15.4545455 C14.5454545,14.9518182 14.2406818,14.5454545 13.8636364,14.5454545 Z" id="Shape"></path>
            <path d="M13.8502674,20 L3.42245989,20 C3.03802139,20 2.72727273,20.4063636 2.72727273,20.9090909 C2.72727273,21.4118182 3.03802139,21.8181818 3.42245989,21.8181818 L13.8502674,21.8181818 C14.2347059,21.8181818 14.5454545,21.4118182 14.5454545,20.9090909 C14.5454545,20.4063636 14.2347059,20 13.8502674,20 Z" id="Shape"></path>
            <path d="M13.8528139,24.5454545 L0.692640693,24.5454545 C0.30961039,24.5454545 0,24.9518182 0,25.4545455 C0,25.9572727 0.30961039,26.3636364 0.692640693,26.3636364 L13.8528139,26.3636364 C14.2358442,26.3636364 14.5454545,25.9572727 14.5454545,25.4545455 C14.5454545,24.9518182 14.2358442,24.5454545 13.8528139,24.5454545 Z" id="Shape"></path>
            <path d="M13.8181818,30 L4.36363636,30 C3.96145455,30 3.63636364,30.4063636 3.63636364,30.9090909 C3.63636364,31.4118182 3.96145455,31.8181818 4.36363636,31.8181818 L13.8181818,31.8181818 C14.2203636,31.8181818 14.5454545,31.4118182 14.5454545,30.9090909 C14.5454545,30.4063636 14.2203636,30 13.8181818,30 Z" id="Shape"></path>
            <path d="M13.8383838,34.5454545 L8.88888889,34.5454545 C8.49787879,34.5454545 8.18181818,34.9518182 8.18181818,35.4545455 C8.18181818,35.9572727 8.49787879,36.3636364 8.88888889,36.3636364 L13.8383838,36.3636364 C14.2293939,36.3636364 14.5454545,35.9572727 14.5454545,35.4545455 C14.5454545,34.9518182 14.2293939,34.5454545 13.8383838,34.5454545 Z" id="Shape"></path>
        </g>
    </g>
</svg>