<?xml version="1.0" encoding="UTF-8"?>
<svg width="21px" height="18px" viewBox="0 0 21 18" version="1.1" xmlns="http://www.w3.org/2000/svg" xmlns:xlink="http://www.w3.org/1999/xlink">
    <!-- Generator: sketchtool 48.1 (47250) - http://www.bohemiancoding.com/sketch -->
    <title>855FAB4B-C0B1-4603-9B81-F4F6A7577DAA</title>
    <desc>Created with sketchtool.</desc>
    <defs></defs>
    <g id="DataEngi_HomePage" stroke="none" stroke-width="1" fill="none" fill-rule="evenodd" transform="translate(-144.000000, -4625.000000)">
        <g id="Group-29" transform="translate(0.000000, 4487.000000)" fill="#FFFFFF" fill-rule="nonzero">
            <g id="Group-25" transform="translate(144.000000, 137.000000)">
                <g id="twitter" transform="translate(0.000000, 1.000000)">
                    <path d="M18.4357978,4.80964031 C18.4447277,4.99047098 18.4480764,5.17353412 18.4480764,5.35436478 C18.4480764,10.9243957 14.2097182,17.3450005 6.45967316,17.3450005 C4.07873609,17.3450005 1.86523481,16.6473514 0,15.4507435 C0.330406645,15.4898119 0.665278245,15.5099042 1.0046148,15.5099042 C2.98035724,15.5099042 4.79647755,14.835696 6.23754167,13.7071787 C4.39463163,13.6725753 2.83747869,12.4558752 2.30168413,10.7815172 C2.55841902,10.8295154 2.82296759,10.8551889 3.09421358,10.8551889 C3.47931592,10.8551889 3.85213964,10.8049582 4.20487105,10.7089617 C2.27712688,10.3205106 0.824900374,8.61824664 0.824900374,6.57552988 C0.824900374,6.55767007 0.824900374,6.54092649 0.824900374,6.52306667 C1.39306586,6.83896221 2.043833,7.02872278 2.73366849,7.05104756 C1.60291872,6.29423774 0.858387534,5.00609832 0.858387534,3.54270943 C0.858387534,2.77138851 1.06600793,2.04694962 1.42990173,1.42408844 C3.50722189,3.97469379 6.6137141,5.65128427 10.1153548,5.82764998 C10.0439155,5.51845187 10.0070796,5.19809137 10.0070796,4.86656849 C10.0070796,2.54032711 11.8924067,0.655 14.2197644,0.655 C15.4319996,0.655 16.5270297,1.16512107 17.2961181,1.98444025 C18.2549671,1.79467968 19.156888,1.44418074 19.9717422,0.961965633 C19.6569629,1.9453719 18.9883359,2.77138851 18.118786,3.29267197 C18.9715924,3.18997801 19.7819816,2.96561404 20.5387915,2.6296262 C19.9739747,3.47573511 19.2595819,4.21691758 18.4357978,4.80964031 Z" id="Shape"></path>
                </g>
            </g>
        </g>
    </g>
</svg>