<svg width="25" height="24" xmlns="http://www.w3.org/2000/svg"><defs><radialGradient cx="32.935%" cy="22.41%" fx="32.935%" fy="22.41%" r="78.131%" gradientTransform="matrix(.97273 0 0 1 .009 0)" id="a"><stop stop-color="#423325" stop-opacity=".98" offset="0%"/><stop stop-color="#1C0A00" offset="100%"/></radialGradient></defs><g fill="none"><path fill="url(#a)" d="M1.023 1.054h22.502v21.888H1.023z"/><path d="M1.023 1.054h22.502v21.888H1.023V1.054zM0 23.964h24.548V.032H0v23.934zM16.079 8.562c0-.082.03-.123.122-.123h1.606c.082 0 .123.031.123.123v8.07c0 .082-.02.123-.123.123h-1.585c-.102 0-.133-.051-.133-.133V8.56h-.01zm-.113-2.322c0-.654.46-1.043 1.043-1.043.624 0 1.044.42 1.044 1.043 0 .675-.44 1.044-1.064 1.044-.593 0-1.023-.369-1.023-1.044zm-4.602 5.687c-.287-1.135-.962-3.61-1.218-4.807h-.02c-.215 1.197-.757 3.222-1.187 4.807h2.425zM8.52 13.583l-.808 3.069c-.02.081-.051.102-.153.102H6.055c-.102 0-.123-.03-.102-.154L8.858 6.434c.05-.185.081-.348.102-.85 0-.07.03-.102.082-.102h2.148c.071 0 .102.02.122.103l3.253 11.036c.02.082 0 .133-.082.133h-1.698c-.082 0-.133-.02-.153-.092l-.839-3.079H8.52z" fill="#FF7F18"/></g></svg>