<svg xmlns="http://www.w3.org/2000/svg" width="92" height="24"><path fill="#232B2B" fill-rule="evenodd" d="M3.608 16.626l.007.143c.007.092.005.29.028.341.023.088.023.168.054.298.073.27.156.607.35.952.183.347.437.72.792 1.06.356.336.807.635 1.331.836l.406.132.429.087c.148.01.296.036.448.041l.23-.001.117.001h.029l.034-.003c.553-.054.59-.076.95-.18a3.67 3.67 0 0 0 .856-.401c.551-.334 1.022-.836 1.376-1.409.165-.294.315-.599.413-.921.053-.16.09-.324.126-.487l.2-1.05c.04-.176.072-.351.1-.524l.283-1.483.053-.272.125-.639.056-.281.053-.313c.02-.168.111-.518.187-.794.08-.29.181-.511.273-.763a7.416 7.416 0 0 1 1.655-2.393 7.522 7.522 0 0 1 1.306-1.018 4.75 4.75 0 0 0-.007-.004l.12-.065a7.74 7.74 0 0 1 2.93-1.012c.4-.065.81-.1 1.23-.1 2.515 0 4.432.926 5.747 2.778v-2.4h3.394v16.84h-3.532v-2.194C24.395 23.143 22.49 24 20.043 24c-1.659 0-3.103-.378-4.343-1.117l1.629-3.154a6.3 6.3 0 0 0 1.69.784l-.007-.028c.457.133.933.223 1.446.223 1.455 0 2.69-.469 3.706-1.407 1.015-.937 1.524-2.298 1.524-4.082 0-1.806-.52-3.178-1.558-4.116-1.017-.938-2.24-1.407-3.672-1.407a6.96 6.96 0 0 0-1.86.234 4.274 4.274 0 0 0-1.68 1.03 4.095 4.095 0 0 0-.898 1.324c-.04.128-.11.28-.134.389-.019.092-.047.143-.072.27l-.386 2.04-.444 2.552c-.01.07-.022.14-.033.207a8.53 8.53 0 0 1-.213.863 8.116 8.116 0 0 1-.716 1.639c-.612 1.028-1.452 1.94-2.477 2.585a7.16 7.16 0 0 1-1.622.78c-.502.188-1.354.332-1.682.353l-.082.009-.13.01-.054.001-.214.004-.424.003c-.281-.007-.56-.043-.836-.068-.274-.043-.543-.102-.808-.157-.26-.077-.518-.153-.768-.239a7.621 7.621 0 0 1-2.52-1.546 7.66 7.66 0 0 1-1.52-1.98c-.365-.655-.549-1.287-.683-1.805-.066-.266-.1-.551-.135-.776-.04-.26-.03-.336-.04-.462l-.019-.314L0 16.64V.914h3.636v15.71l-.028.002zm79.111-6.617V.319h3.636v6.462h5.091v3.121H86.39v7.924c0 1.052.27 1.8.814 2.247.542.445 1.39.669 2.545.669.392 0 1.143-.057 2.251-.172v3.053c-1.2.251-2.205.377-3.013.377-1.986 0-3.527-.491-4.623-1.475-1.096-.983-1.645-2.447-1.645-4.39v-8.126zM39.868 6.404c2.446 0 4.409.87 5.886 2.607l-1.973 2.23c-1.109-1.144-2.436-1.716-3.983-1.716-1.547 0-2.32.538-2.32 1.613 0 .434.167.794.502 1.08.335.286.918.589 1.749.909l1.627.652c1.64.686 2.823 1.412 3.55 2.178.727.766 1.09 1.732 1.09 2.898 0 1.624-.6 2.893-1.8 3.807-1.2.892-2.701 1.338-4.502 1.338-2.862 0-5.148-1.085-6.857-3.258l2.078-2.265c1.547 1.601 3.14 2.402 4.78 2.402.784 0 1.436-.16 1.956-.48.52-.32.78-.755.78-1.304 0-.525-.169-.926-.503-1.2-.335-.275-.964-.606-1.887-.995l-1.732-.72c-1.477-.618-2.585-1.292-3.324-2.024-.693-.732-1.063-1.772-1.108-3.121 0-1.373.565-2.481 1.696-3.328 1.155-.868 2.586-1.303 4.295-1.303zm14.305 4.905c-.993 1.007-1.49 2.31-1.49 3.91 0 1.555.497 2.859 1.49 3.91.992 1.03 2.239 1.544 3.74 1.544 1.546 0 2.816-.514 3.809-1.543 1.015-1.075 1.523-2.379 1.523-3.91 0-1.533-.508-2.836-1.523-3.911-.993-1.051-2.252-1.578-3.775-1.578-1.524 0-2.782.527-3.774 1.578zm-2.598-2.367c1.755-1.692 3.867-2.538 6.337-2.538 2.494 0 4.63.846 6.407 2.538 1.777 1.693 2.666 3.773 2.666 6.243s-.889 4.562-2.666 6.277c-1.8 1.692-3.937 2.526-6.407 2.504-2.47 0-4.582-.846-6.337-2.539-1.731-1.691-2.597-3.772-2.597-6.242s.866-4.55 2.597-6.243zm27.066-2.16h.208v3.12H74.07V23.52h-3.636V5.865c0-1.943.53-3.407 1.593-4.39C73.089.492 74.577 0 76.494 0c.9 0 1.685.103 2.355.309V3.36a12.083 12.083 0 0 0-1.455-.103c-1.131 0-1.968.223-2.51.67-.543.445-.814 1.195-.814 2.246v.607h4.57z"/></svg>