<svg width="22" height="24" xmlns="http://www.w3.org/2000/svg"><g fill="#8CC84B"><path d="M9.944.305a2.004 2.004 0 0 1 1.956 0c2.979 1.683 5.958 3.363 8.936 5.047.56.315.935.939.929 1.584V17.06c.004.672-.408 1.31-.999 1.618-2.968 1.674-5.935 3.35-8.903 5.023a1.947 1.947 0 0 1-1.978-.055c-.89-.516-1.781-1.029-2.671-1.544-.182-.109-.387-.195-.516-.371.114-.153.317-.172.482-.24.371-.117.712-.307 1.054-.491.086-.059.191-.036.274.016.761.437 1.515.886 2.279 1.318.163.094.328-.03.467-.108 2.913-1.647 5.83-3.287 8.742-4.934a.29.29 0 0 0 .159-.285c.002-3.34 0-6.68.001-10.02a.313.313 0 0 0-.187-.313c-2.958-1.665-5.914-3.334-8.872-5a.308.308 0 0 0-.349 0C7.791 3.34 4.835 5.01 1.877 6.676a.31.31 0 0 0-.188.31V17.01c-.01.118.054.23.161.281.79.448 1.58.892 2.37 1.338.444.24.99.382 1.48.198.433-.155.737-.596.728-1.056.005-3.32-.002-6.641.004-9.961-.011-.147.129-.27.272-.255.38-.003.759-.005 1.138 0 .158-.003.267.156.248.304-.002 3.342.004 6.683-.003 10.025.001.89-.365 1.86-1.188 2.295-1.015.526-2.27.415-3.272-.09-.868-.433-1.696-.944-2.549-1.408-.592-.307-1.002-.947-.998-1.62V6.937a1.843 1.843 0 0 1 .961-1.604L9.944.305z"/><path d="M12.533 7.318c1.295-.083 2.68-.05 3.846.589.901.488 1.401 1.514 1.417 2.516-.025.135-.166.21-.295.2-.376 0-.751.005-1.127-.002-.16.006-.252-.141-.272-.282-.108-.48-.37-.954-.82-1.185-.693-.347-1.496-.33-2.252-.322-.551.029-1.144.077-1.611.4-.359.246-.468.742-.34 1.142.121.286.452.379.723.464 1.56.408 3.213.368 4.743.904.634.22 1.253.645 1.47 1.308.284.89.16 1.952-.473 2.666-.513.587-1.26.907-2.005 1.08-.991.221-2.02.227-3.027.129-.946-.108-1.931-.357-2.662-1.002-.625-.542-.93-1.388-.9-2.204.008-.137.145-.234.277-.222.378-.003.756-.004 1.134 0 .152-.01.264.12.271.262.07.457.242.937.64 1.207.769.496 1.733.462 2.613.476.73-.032 1.548-.042 2.143-.524.314-.275.407-.735.322-1.13-.092-.334-.441-.49-.741-.592-1.54-.487-3.212-.31-4.737-.861-.619-.219-1.218-.633-1.456-1.269-.331-.9-.18-2.013.52-2.703.68-.686 1.664-.95 2.6-1.045z"/></g></svg>