<svg width="32" height="18" xmlns="http://www.w3.org/2000/svg"><g fill="none"><ellipse fill="#8993BE" cx="16" cy="8.843" rx="16" ry="8.5"/><path d="M5 13.343l1.744-8.736h4.033c1.744.108 2.616.97 2.616 2.48 0 2.589-2.07 4.099-3.924 3.99H7.507l-.436 2.266H5zM7.943 9.46h1.308c.981-.108 1.853-.431 1.962-2.265 0-.647-.545-.97-1.308-.97H8.488L7.943 9.46zm5.045 1.618l1.744-8.735h2.071l-.436 2.264h1.962c1.744.108 2.398.97 2.18 2.05l-.763 4.42h-2.18l.763-3.99c.11-.539.11-.862-.654-.862H16.04l-.98 4.853h-2.072zm6.619 2.265l1.744-8.736h4.033c1.744.108 2.616.97 2.616 2.48 0 2.589-2.071 4.099-3.924 3.99h-1.962l-.436 2.266h-2.071zM22.55 9.46h1.308c.98-.108 1.853-.431 1.962-2.265 0-.647-.545-.97-1.308-.97h-1.417L22.55 9.46z" fill="#232531"/></g></svg>