<svg width="25" height="24" xmlns="http://www.w3.org/2000/svg"><defs><linearGradient x1="12.959%" y1="12.039%" x2="79.639%" y2="78.201%" id="a"><stop stop-color="#387EB8" offset="0%"/><stop stop-color="#366994" offset="100%"/></linearGradient><linearGradient x1="19.128%" y1="20.579%" x2="90.742%" y2="88.429%" id="b"><stop stop-color="#FFE052" offset="0%"/><stop stop-color="#FFC331" offset="100%"/></linearGradient></defs><g fill="none"><path d="M11.974.007c-6.102 0-5.72 2.646-5.72 2.646l.006 2.741h5.823v.823H3.947S.043 5.775.043 11.931c0 6.157 3.408 5.939 3.408 5.939h2.034v-2.857s-.11-3.408 3.353-3.408h5.775s3.245.052 3.245-3.136V3.197s.493-3.19-5.884-3.19zM8.764 1.85a1.047 1.047 0 1 1 0 2.095 1.047 1.047 0 1 1 0-2.095z" fill="url(#a)"/><path d="M12.147 23.918c6.102 0 5.721-2.646 5.721-2.646l-.007-2.742h-5.823v-.823h8.136s3.905.443 3.905-5.714-3.408-5.938-3.408-5.938h-2.034v2.857s.11 3.408-3.354 3.408H9.508s-3.245-.053-3.245 3.136v5.271s-.493 3.19 5.884 3.19zm3.211-1.844a1.047 1.047 0 1 1 0-2.095 1.047 1.047 0 1 1 0 2.095z" fill="url(#b)"/></g></svg>