<svg width="27" height="24" xmlns="http://www.w3.org/2000/svg"><g fill="none"><path d="M21.822 7.979a17.23 17.23 0 0 0-.828-.261c.046-.188.088-.376.127-.565.627-3.042.217-5.494-1.182-6.3-1.342-.774-3.536.033-5.753 1.961-.218.19-.432.387-.64.588a15.66 15.66 0 0 0-.426-.394C10.797.946 8.469.077 7.07.886c-1.34.776-1.737 3.08-1.173 5.964.057.285.12.57.19.852-.329.093-.647.193-.951.3-2.724.949-4.463 2.437-4.463 3.98 0 1.594 1.867 3.193 4.704 4.162.23.079.462.151.695.218-.076.304-.143.61-.202.918-.538 2.834-.118 5.083 1.22 5.854 1.38.797 3.698-.022 5.955-1.994.178-.156.357-.322.536-.495.226.218.458.43.696.634 2.186 1.881 4.345 2.64 5.68 1.868 1.38-.799 1.829-3.216 1.246-6.156a14.569 14.569 0 0 0-.154-.688c.163-.048.323-.098.479-.15 2.948-.976 4.867-2.556 4.867-4.171 0-1.549-1.795-3.047-4.573-4.003z" fill="#53C1DE"/><path d="M21.182 15.11c-.14.047-.285.092-.432.136a25.79 25.79 0 0 0-1.303-3.259 25.779 25.779 0 0 0 1.252-3.21c.263.076.519.156.765.24 2.38.82 3.832 2.032 3.832 2.965 0 .994-1.568 2.285-4.114 3.129zm-1.056 2.094c.257 1.3.294 2.476.123 3.395-.153.826-.461 1.376-.842 1.597-.81.469-2.544-.141-4.414-1.75a14.91 14.91 0 0 1-.646-.59 25.821 25.821 0 0 0 2.156-2.737 25.65 25.65 0 0 0 3.483-.537c.053.212.1.42.14.622zm-10.684 4.91c-.792.28-1.422.288-1.804.068-.811-.467-1.148-2.274-.688-4.697.054-.286.117-.571.188-.854 1.053.233 2.22.4 3.466.502a26.738 26.738 0 0 0 2.208 2.728c-.16.154-.323.305-.49.451-.998.872-1.998 1.491-2.88 1.803zm-3.71-7.01c-1.254-.428-2.29-.985-3-1.593-.638-.546-.96-1.089-.96-1.529 0-.936 1.396-2.131 3.725-2.943.293-.102.588-.195.886-.279a26.353 26.353 0 0 0 1.253 3.249 26.753 26.753 0 0 0-1.269 3.294 13.536 13.536 0 0 1-.635-.198zM6.976 6.64c-.484-2.47-.163-4.334.645-4.802.86-.498 2.764.212 4.77 1.993.127.114.256.233.385.356a26.332 26.332 0 0 0-2.191 2.712c-1.21.112-2.368.292-3.432.533a16.11 16.11 0 0 1-.177-.792zm11.095 2.74a34.945 34.945 0 0 0-.782-1.287c.82.104 1.607.242 2.345.41-.222.71-.498 1.453-.823 2.215a38.296 38.296 0 0 0-.74-1.338zm-4.525-4.407A23.499 23.499 0 0 1 15.06 6.8a32.357 32.357 0 0 0-3.04 0c.5-.66 1.012-1.272 1.526-1.827zM8.993 9.386a32.47 32.47 0 0 0-.726 1.33 24.25 24.25 0 0 1-.818-2.226 24.792 24.792 0 0 1 2.332-.4c-.273.426-.536.858-.788 1.296zm.812 6.566a23.396 23.396 0 0 1-2.37-.38 24.29 24.29 0 0 1 .833-2.272 32.271 32.271 0 0 0 1.537 2.652zm3.772 3.118a24.697 24.697 0 0 1-1.548-1.852 37.145 37.145 0 0 0 3.058-.005 23.555 23.555 0 0 1-1.51 1.857zm5.244-5.81c.344.785.634 1.543.864 2.264a23.32 23.32 0 0 1-2.4.409 36.983 36.983 0 0 0 1.536-2.672zm-1.698.815c-.39.677-.8 1.34-1.234 1.99-.763.055-1.551.083-2.355.083-.8 0-1.579-.024-2.329-.073a31.168 31.168 0 0 1-2.354-4.067 30.878 30.878 0 0 1 2.341-4.059 31.132 31.132 0 0 1 4.689.001c.436.645.85 1.305 1.239 1.979a36.02 36.02 0 0 1 1.109 2.064 33.104 33.104 0 0 1-1.105 2.082zm2.267-12.27c.861.496 1.196 2.5.655 5.126-.035.171-.074.342-.115.512a26.323 26.323 0 0 0-3.44-.544 25.813 25.813 0 0 0-2.174-2.713c.193-.186.39-.367.592-.543 1.899-1.652 3.673-2.305 4.482-1.839z" fill="#FFF"/><path d="M13.534 9.685a2.297 2.297 0 1 1 0 4.594 2.297 2.297 0 0 1 0-4.594" fill="#53C1DE"/></g></svg>