<svg width="30" height="24" xmlns="http://www.w3.org/2000/svg"><g fill="none"><path d="M4.625 16.55l-1.57.573-.083 4.669 5.434-1.985c-1.866-.624-3.226-1.725-3.78-3.258" fill="#FDBD39"/><path d="M5.447 11.611L0 13.601l3.056 3.523 1.57-.573c-.554-1.528-.212-3.252.821-4.94" fill="#F69833"/><path d="M14.612 4.872C7.676 7.406 3.204 12.635 4.625 16.55l25.116-9.174c-1.421-3.915-8.193-5.036-15.13-2.503" fill="#FECF33"/><path d="M19.754 19.053c6.935-2.534 11.415-7.739 9.986-11.677L4.624 16.549c1.429 3.94 8.194 5.037 15.13 2.504" fill="#EE6723"/><path d="M29.74 7.375L4.625 16.549c.492 1.357 2.368 2.025 4.999 2.025 2.566 0 5.85-.634 9.273-1.885 6.936-2.533 11.814-6.636 10.843-9.314" fill="#F69833"/><path d="M24.742 5.351c-2.565 0-5.85.635-9.274 1.885C8.533 9.77 3.654 13.871 4.625 16.55l25.116-9.174c-.492-1.357-2.367-2.024-5-2.024" fill="#FDBD39"/><g fill="#EE6723"><path d="M23.354 22.04c-.74 0-1.829-.667-3.24-1.983-1.67-1.558-3.58-3.84-5.385-6.424-1.803-2.584-3.284-5.168-4.171-7.276-.967-2.296-1.105-3.708-.41-4.196A.926.926 0 0 1 10.692 2c.565 0 1.667.42 3.703 2.425l.045.043-.006.063c-.014.144-.026.289-.037.432l-.023.283-.2-.2c-2.194-2.21-3.159-2.449-3.473-2.449-.09 0-.16.017-.212.054-.302.212-.321 1.249.616 3.474.872 2.07 2.332 4.615 4.11 7.165 1.781 2.552 3.664 4.8 5.304 6.329 1.768 1.65 2.565 1.828 2.825 1.828a.37.37 0 0 0 .217-.058c.318-.223.318-1.334-.726-3.73l-.05-.11.106-.057c.104-.057.207-.114.301-.168l.126-.071.059.132c.74 1.698 1.434 3.856.525 4.494a.931.931 0 0 1-.549.161zm.044-.262v.131-.13z"/><path d="M19.922 18.98l-.01.13c-.176 2.17-.637 4.778-1.842 4.884-.024.002-.05.002-.073.002-.818 0-1.592-1.172-2.3-3.482-.67-2.187-1.19-5.122-1.463-8.265-.274-3.143-.27-6.124.011-8.394.307-2.474.89-3.765 1.736-3.84a.776.776 0 0 1 .076-.004c.593 0 1.487.672 2.402 3.802l-.597.114c-.305-1.045-.638-1.895-.968-2.48-.306-.54-.604-.839-.837-.839-.008 0-.015 0-.024.002-.366.032-.9.92-1.197 3.319-.276 2.229-.28 5.166-.01 8.268.27 3.103.782 5.994 1.44 8.141.295.962.618 1.754.935 2.292.292.496.575.77.796.77.007 0 .015 0 .022-.002.35-.03 1.011-.955 1.29-4.208l.613-.21z"/></g></g></svg>