<?xml version="1.0" standalone="no"?>
<!DOCTYPE svg PUBLIC "-//W3C//DTD SVG 20010904//EN"
 "http://www.w3.org/TR/2001/REC-SVG-20010904/DTD/svg10.dtd">
<svg version="1.0" xmlns="http://www.w3.org/2000/svg"
 width="3184.000000pt" height="3184.000000pt" viewBox="0 0 3184.000000 3184.000000"
 preserveAspectRatio="xMidYMid meet">
<metadata>
Created by potrace 1.11, written by Peter Selinger 2001-2013
</metadata>
<g transform="translate(0.000000,3184.000000) scale(0.100000,-0.100000)"
fill="#000000" stroke="none">
<path d="M13888 24005 c-2 -1 -52 -6 -113 -9 -60 -4 -123 -9 -140 -11 -16 -2
-55 -7 -86 -10 -31 -3 -67 -8 -80 -10 -13 -3 -44 -8 -69 -11 -201 -25 -495
-98 -735 -181 -296 -102 -610 -250 -855 -401 -76 -47 -276 -179 -295 -194 -5
-5 -39 -30 -75 -56 -36 -25 -67 -49 -70 -52 -4 -4 -44 -36 -124 -100 -152
-121 -484 -447 -641 -630 -391 -453 -716 -949 -1005 -1530 -123 -249 -261
-563 -336 -770 -20 -52 -40 -106 -46 -120 -23 -55 -101 -281 -128 -370 -28
-91 -29 -93 -30 -50 -5 133 -20 385 -25 425 -2 16 -7 62 -10 100 -3 39 -8 81
-10 95 -2 14 -6 48 -9 75 -4 28 -8 61 -11 75 -2 14 -9 59 -15 100 -6 41 -15
91 -20 110 -5 19 -11 53 -15 75 -7 47 -48 220 -76 320 -79 280 -164 504 -284
750 -81 164 -246 446 -266 453 -5 2 -9 8 -9 14 0 11 -158 220 -230 303 -344
396 -788 723 -1280 944 -63 29 -124 56 -135 61 -255 118 -838 277 -1190 325
-22 3 -51 8 -65 10 -14 3 -47 8 -75 11 -27 3 -61 7 -75 9 -14 2 -54 6 -90 10
-36 3 -78 8 -95 10 -16 2 -68 6 -115 10 -47 4 -114 9 -150 12 -36 2 -720 6
-1521 8 l-1457 3 -11 -76 c-13 -85 -15 -97 -31 -192 -7 -36 -14 -81 -16 -100
-2 -19 -6 -46 -9 -60 -3 -14 -7 -43 -10 -65 -4 -22 -10 -65 -15 -95 -5 -30
-12 -71 -15 -90 -3 -19 -7 -46 -10 -60 -3 -14 -7 -43 -10 -65 -3 -22 -7 -53
-10 -70 -3 -16 -9 -58 -15 -92 -5 -35 -15 -91 -20 -125 -6 -35 -12 -79 -15
-98 -3 -19 -7 -46 -10 -60 -2 -14 -7 -43 -10 -65 -3 -22 -7 -47 -10 -55 -2 -8
-6 -37 -10 -65 -3 -27 -10 -75 -15 -105 -9 -52 -16 -96 -55 -350 -9 -58 -20
-127 -25 -155 -5 -27 -12 -68 -15 -90 -3 -23 -7 -50 -9 -60 -3 -19 -13 -76
-21 -135 -2 -14 -9 -54 -14 -90 -6 -36 -13 -83 -16 -105 -3 -22 -8 -51 -11
-65 -10 -55 -12 -67 -18 -110 -3 -25 -8 -54 -10 -65 -2 -11 -6 -41 -10 -66 -4
-25 -9 -57 -11 -70 -6 -32 -33 -203 -40 -254 -4 -22 -8 -51 -10 -64 -2 -13 -7
-45 -11 -70 -7 -47 -10 -68 -18 -111 -3 -14 -8 -43 -11 -65 -7 -46 -54 -348
-60 -385 -5 -31 -32 -202 -39 -250 -3 -19 -19 -118 -35 -220 -16 -102 -32
-203 -36 -225 -3 -23 -7 -52 -10 -65 -3 -13 -7 -42 -10 -65 -6 -41 -41 -262
-51 -325 -3 -19 -8 -44 -9 -55 -2 -11 -13 -78 -24 -150 -11 -71 -22 -146 -25
-165 -3 -19 -8 -46 -10 -60 -3 -14 -7 -42 -10 -62 -3 -21 -9 -55 -12 -75 -3
-21 -7 -49 -10 -63 -2 -14 -7 -43 -9 -65 -3 -22 -10 -65 -15 -95 -5 -30 -11
-68 -14 -85 -2 -16 -8 -50 -12 -75 -4 -25 -8 -54 -10 -65 -5 -35 -55 -349 -60
-380 -3 -16 -7 -43 -9 -58 -11 -78 -16 -113 -20 -127 -2 -8 -7 -35 -10 -60 -3
-25 -10 -67 -15 -95 -5 -27 -12 -70 -15 -95 -5 -40 -8 -61 -19 -120 -1 -8 -6
-37 -10 -65 -4 -27 -23 -145 -42 -261 -18 -115 -35 -226 -38 -245 -5 -38 -15
-101 -22 -139 -2 -14 -9 -55 -14 -92 -11 -75 -39 -251 -45 -288 -11 -60 -28
-165 -51 -325 -2 -16 -6 -41 -9 -55 -3 -14 -7 -38 -9 -55 -15 -92 -26 -165
-31 -200 -8 -48 -13 -85 -20 -122 -2 -16 -11 -73 -20 -128 -9 -55 -18 -111
-20 -125 -24 -146 -78 -491 -90 -575 -3 -22 -8 -51 -11 -63 -3 -13 -7 -43 -10
-65 -3 -23 -12 -82 -20 -132 -23 -138 -25 -148 -29 -175 -7 -51 -17 -115 -20
-130 -2 -8 -6 -35 -9 -60 -3 -25 -8 -56 -11 -70 -2 -13 -7 -42 -10 -65 -3 -22
-8 -47 -10 -55 -2 -8 -7 -40 -10 -70 -4 -30 -10 -73 -15 -95 -5 -22 -12 -65
-15 -95 -4 -30 -8 -57 -10 -60 -1 -3 -6 -32 -10 -65 -3 -32 -8 -62 -10 -65 -2
-3 -6 -28 -9 -55 -4 -28 -8 -60 -10 -71 -3 -12 -7 -37 -10 -55 -7 -45 -34
-216 -39 -254 -3 -16 -12 -73 -20 -125 -9 -52 -18 -112 -21 -133 l-6 -38 1602
4 c882 2 1622 7 1645 10 24 3 91 8 150 12 60 3 126 8 148 10 22 2 69 7 105 10
36 3 76 8 90 10 14 2 45 6 70 9 104 12 143 18 310 46 592 100 1120 269 1620
519 96 48 217 113 269 144 52 31 96 57 98 57 8 0 280 184 372 252 337 250 666
570 949 923 125 155 345 470 427 613 6 9 29 49 52 87 160 271 318 598 460 950
36 88 71 178 78 200 8 22 45 132 84 245 68 199 70 203 71 150 3 -180 15 -457
25 -570 9 -99 16 -165 20 -190 2 -14 6 -54 10 -90 8 -82 12 -111 19 -157 4
-21 8 -51 11 -68 6 -46 27 -169 39 -230 4 -16 13 -66 22 -110 9 -44 31 -143
50 -220 350 -1412 1151 -2335 2314 -2669 69 -19 136 -38 150 -40 14 -3 66 -14
115 -25 124 -27 287 -50 485 -68 164 -15 653 -8 815 12 17 2 55 6 86 9 31 4
67 9 80 11 13 3 42 8 64 10 22 3 74 12 115 20 41 8 86 17 100 19 71 14 95 20
219 52 73 20 197 57 275 84 136 47 177 62 296 109 70 28 377 180 452 223 31
18 83 48 115 67 58 34 284 181 293 191 3 3 30 23 60 45 52 37 233 178 256 200
6 5 35 30 64 55 57 48 197 179 289 271 593 592 1112 1392 1501 2316 70 166
162 405 220 573 38 108 51 132 40 68 -5 -23 -11 -61 -14 -83 -4 -23 -8 -50
-10 -60 -2 -11 -9 -56 -16 -100 -12 -86 -17 -118 -24 -150 -2 -11 -7 -40 -10
-65 -3 -25 -8 -56 -10 -70 -3 -14 -7 -43 -11 -65 -3 -22 -10 -66 -16 -98 -5
-32 -12 -74 -15 -95 -5 -41 -22 -146 -28 -178 -2 -12 -7 -45 -11 -74 -4 -29
-8 -60 -10 -69 -1 -9 -6 -36 -10 -61 -4 -25 -9 -52 -10 -60 -1 -8 -6 -35 -10
-60 -3 -25 -9 -58 -12 -75 -2 -16 -6 -39 -8 -50 -10 -75 -27 -188 -35 -230 -5
-27 -12 -68 -15 -90 -3 -22 -12 -80 -20 -130 -22 -134 -46 -286 -50 -318 -2
-16 -6 -40 -9 -55 -3 -15 -8 -45 -11 -67 -3 -23 -7 -50 -9 -60 -3 -18 -7 -39
-22 -140 -3 -16 -7 -41 -9 -55 -5 -33 -35 -218 -40 -250 -12 -78 -18 -117 -20
-131 -2 -9 -6 -40 -10 -70 -4 -30 -8 -56 -10 -59 -2 -3 -6 -27 -9 -55 -4 -27
-8 -61 -11 -75 -3 -14 -7 -38 -9 -55 -38 -242 -58 -366 -62 -395 -3 -19 -9
-60 -14 -90 -5 -30 -12 -68 -14 -85 -30 -181 -37 -227 -42 -272 l-6 -53 1570
0 1571 0 6 48 c4 26 13 83 20 127 8 44 16 102 20 129 3 27 8 52 10 55 2 3 6
31 10 61 9 76 26 185 80 515 14 83 27 168 30 190 4 22 8 51 10 65 3 14 7 43
10 65 3 22 10 65 15 95 12 68 19 116 25 155 2 17 11 73 20 125 8 52 17 113 20
135 4 22 8 47 10 55 2 8 7 38 11 65 3 28 8 59 10 70 2 10 6 37 9 60 4 22 15
96 26 165 11 69 22 138 24 153 2 16 6 40 9 55 3 15 8 45 11 67 3 22 7 51 10
65 2 14 6 41 9 60 3 19 15 94 26 165 11 72 23 146 26 165 12 78 15 96 19 120
2 14 7 43 10 65 3 22 7 47 10 55 2 8 6 35 9 60 3 25 8 54 10 65 2 11 6 38 10
60 13 87 67 431 71 450 4 19 12 20 317 20 276 1 543 9 648 20 19 2 71 6 115
10 86 7 101 9 290 31 54 6 277 40 310 47 11 3 40 8 65 12 25 4 53 9 63 11 33
8 62 14 92 20 735 151 1416 475 1911 909 124 108 306 297 400 414 10 13 24 28
29 35 6 6 38 47 71 91 134 178 262 383 368 595 63 125 88 179 137 295 4 11 16
40 27 65 10 25 24 56 30 70 11 23 12 22 7 -15 -2 -22 -11 -80 -19 -130 -8 -49
-17 -108 -21 -130 -3 -22 -7 -51 -10 -65 -2 -14 -13 -83 -24 -155 -12 -71 -23
-139 -25 -150 -2 -11 -7 -42 -10 -70 -4 -27 -14 -90 -22 -140 -17 -103 -21
-124 -29 -180 -3 -23 -7 -50 -9 -60 -2 -11 -7 -42 -10 -68 -4 -27 -9 -58 -12
-70 -2 -12 -6 -39 -9 -62 -4 -22 -8 -53 -11 -70 -3 -16 -7 -41 -9 -55 -3 -22
-7 -45 -20 -130 -2 -14 -14 -83 -25 -155 -12 -71 -23 -141 -25 -155 -2 -14
-11 -70 -20 -125 -9 -55 -18 -116 -21 -135 -3 -19 -7 -46 -9 -60 -3 -14 -7
-43 -11 -65 -3 -22 -7 -51 -10 -65 -2 -14 -6 -45 -10 -70 -3 -25 -7 -52 -9
-60 -3 -8 -13 -73 -24 -145 -11 -71 -22 -143 -25 -160 -3 -16 -15 -91 -26
-165 -11 -74 -23 -146 -25 -160 -2 -14 -9 -56 -15 -95 -6 -38 -13 -81 -15 -95
-10 -62 -57 -359 -61 -390 -3 -19 -9 -57 -14 -85 -5 -27 -12 -72 -16 -100 -4
-27 -9 -57 -10 -65 -2 -8 -6 -33 -9 -55 -3 -22 -7 -51 -9 -65 -3 -14 -10 -59
-16 -100 -7 -41 -14 -82 -15 -90 -1 -8 -6 -35 -10 -60 -3 -25 -9 -58 -11 -75
-3 -16 -7 -41 -9 -55 -2 -14 -11 -70 -20 -125 -9 -55 -18 -116 -21 -135 -12
-81 -33 -210 -38 -235 -2 -11 -7 -42 -10 -70 -4 -27 -9 -57 -11 -65 -2 -8 -6
-35 -9 -60 -3 -25 -8 -54 -10 -65 -2 -11 -7 -42 -10 -70 -4 -27 -9 -57 -11
-65 -2 -8 -6 -33 -10 -55 -6 -43 -12 -83 -20 -130 -3 -16 -7 -48 -10 -70 -3
-22 -7 -51 -10 -65 -5 -25 -13 -75 -20 -120 -9 -60 -18 -116 -21 -135 -2 -10
-6 -37 -9 -60 -4 -22 -8 -51 -10 -65 -19 -119 -25 -158 -29 -176 -2 -12 -7
-45 -11 -75 -4 -30 -13 -84 -20 -122 l-13 -67 2922 2 2921 3 12 75 c6 41 16
107 22 145 6 39 20 126 30 195 11 69 23 143 26 165 3 22 8 49 10 61 3 12 7 39
10 60 6 38 42 272 50 324 3 14 7 43 10 65 7 44 13 80 20 123 24 148 47 294 60
377 8 55 28 183 44 285 17 102 33 208 37 235 3 28 7 57 9 65 1 8 6 35 10 60 4
25 9 52 10 60 1 8 6 35 10 60 3 25 9 59 12 75 2 17 6 43 8 58 9 61 17 114 26
161 5 27 9 58 9 70 l0 21 -1345 0 c-740 -1 -1345 2 -1345 5 0 4 4 31 10 61 5
30 12 74 15 99 3 25 10 68 15 95 5 28 12 68 15 90 3 22 10 65 15 95 5 30 12
75 15 100 3 25 8 52 10 60 2 8 6 38 10 65 3 28 12 86 20 130 8 44 17 100 20
125 3 25 8 56 10 70 2 14 6 39 9 55 15 96 19 121 21 135 1 8 6 40 11 70 4 30
8 57 9 60 1 6 17 109 20 130 1 8 5 31 8 50 13 71 39 234 40 252 1 10 6 19 12
19 5 1 550 2 1210 3 l1199 1 13 75 c7 41 15 91 18 110 3 19 17 104 31 188 14
84 27 168 29 185 3 18 7 43 10 57 3 14 8 45 11 70 3 25 7 52 9 60 3 8 7 33 11
55 3 22 17 108 30 190 14 83 27 161 29 175 6 41 46 277 49 297 2 10 7 43 11
73 4 30 9 64 11 75 3 16 46 274 80 480 2 17 9 55 14 85 5 30 12 71 14 90 3 19
8 51 11 70 16 91 44 269 50 305 3 22 8 54 11 72 l6 31 -1184 1 c-650 0 -1195
0 -1209 1 l-26 0 12 79 c7 44 16 99 19 123 3 24 8 52 10 64 2 12 7 45 11 75 4
30 8 56 10 59 2 3 6 30 10 60 3 30 8 66 10 80 2 14 9 54 14 90 6 36 13 83 16
105 3 22 8 51 10 65 3 14 7 43 11 65 3 22 7 51 10 65 2 14 7 43 9 65 3 22 12
78 20 125 7 47 17 110 21 140 4 30 8 64 10 75 2 11 5 34 8 50 3 17 7 44 10 60
3 17 8 50 11 75 4 25 9 52 10 60 2 8 4 20 4 25 1 7 446 10 1334 10 732 -1
1339 1 1348 3 11 2 19 19 23 50 3 26 8 58 10 72 11 62 36 219 41 255 3 22 10
65 15 95 5 30 12 71 15 90 3 19 9 62 15 95 5 33 17 105 25 160 9 55 18 112 20
126 3 14 7 41 9 60 3 19 7 48 10 64 3 17 7 48 11 70 3 23 7 50 9 60 6 33 18
104 21 128 2 19 47 304 61 390 2 15 6 39 8 55 36 227 48 301 52 322 2 14 6 45
9 70 3 25 8 52 10 60 2 8 7 35 10 60 9 64 15 103 20 120 2 8 7 38 10 65 3 28
14 97 24 155 10 58 16 108 15 111 -2 4 -1316 6 -2920 5 l-2917 -1 -4 -25 c-2
-14 -10 -63 -18 -110 -8 -47 -17 -105 -20 -130 -3 -25 -10 -70 -15 -100 -5
-30 -12 -71 -15 -90 -3 -19 -8 -46 -10 -60 -3 -14 -7 -41 -9 -60 -3 -19 -14
-91 -25 -160 -11 -69 -23 -147 -27 -175 -3 -27 -7 -52 -9 -55 -2 -3 -6 -29
-10 -59 -4 -30 -9 -63 -11 -75 -4 -21 -41 -251 -50 -316 -3 -19 -10 -62 -16
-95 -14 -86 -15 -91 -28 -178 -6 -43 -13 -88 -15 -100 -9 -51 -45 -276 -51
-322 -3 -27 -8 -59 -10 -70 -2 -11 -13 -78 -25 -150 -11 -71 -22 -141 -24
-155 -3 -14 -7 -43 -10 -65 -3 -22 -10 -65 -15 -95 -5 -30 -12 -73 -15 -94 -7
-47 -15 -59 -16 -25 -4 133 -52 427 -95 589 -74 273 -183 528 -319 745 -27 43
-154 214 -190 255 -77 90 -209 219 -298 293 -243 202 -569 389 -877 504 -30
12 -74 28 -98 37 -36 14 -95 33 -297 96 -96 30 -422 103 -555 125 -19 3 -60
10 -90 15 -69 11 -125 20 -170 26 -19 2 -51 6 -70 9 -34 5 -79 10 -157 19 -56
7 -160 17 -223 21 -50 3 -97 6 -315 22 -38 2 -820 6 -1737 8 -1544 3 -1668 2
-1672 -13 -2 -10 -8 -37 -11 -62 -4 -25 -9 -54 -11 -65 -5 -33 -23 -147 -29
-190 -3 -22 -10 -65 -15 -95 -11 -64 -15 -90 -30 -185 -15 -99 -29 -185 -35
-220 -3 -16 -8 -52 -11 -80 -3 -27 -8 -53 -9 -56 -2 -3 -7 -28 -10 -55 -4 -27
-15 -101 -25 -164 -10 -63 -22 -135 -25 -160 -4 -25 -13 -85 -21 -135 -9 -49
-17 -101 -19 -115 -33 -203 -47 -291 -51 -320 -3 -19 -7 -46 -9 -59 -2 -13 -7
-45 -11 -70 -4 -25 -8 -55 -10 -66 -3 -11 -7 -39 -10 -61 -2 -23 -7 -53 -9
-65 -5 -21 -46 -283 -60 -379 -3 -19 -12 -73 -20 -120 -7 -47 -16 -103 -20
-125 -11 -78 -27 -177 -49 -310 -16 -96 -19 -114 -42 -270 -8 -55 -17 -107
-19 -115 -2 -8 -6 -35 -9 -60 -4 -25 -8 -56 -11 -70 -5 -31 -44 -275 -55 -355
-24 -163 -29 -179 -31 -94 -1 30 -2 72 -4 94 -1 22 -5 105 -9 185 -4 80 -9
156 -11 170 -3 28 -13 127 -21 205 -3 28 -9 86 -15 130 -6 44 -12 91 -13 105
-17 141 -93 515 -144 710 -223 835 -611 1504 -1141 1967 -129 112 -342 264
-481 342 -317 179 -739 323 -1095 376 -22 3 -53 7 -70 10 -43 7 -92 13 -160
20 -33 3 -80 9 -105 12 -47 5 -546 13 -552 8z m7717 -2707 c39 -7 72 -12 75
-13 94 -18 265 -114 345 -192 127 -125 223 -306 270 -508 13 -54 17 -82 31
-190 5 -41 5 -301 0 -345 -9 -72 -47 -293 -52 -301 -3 -5 -8 -22 -10 -37 -3
-15 -19 -67 -35 -117 -131 -392 -389 -689 -736 -847 -88 -40 -255 -92 -328
-103 -11 -2 -54 -8 -95 -15 -99 -15 -330 -21 -353 -9 -10 6 -16 13 -13 17 3 6
11 48 40 222 3 14 7 43 11 65 3 22 17 108 30 190 13 83 27 168 30 190 3 22 13
81 21 130 21 127 22 129 39 240 9 55 18 114 21 131 4 34 47 301 64 394 5 30
12 75 15 100 3 25 8 52 10 60 2 8 7 35 10 60 3 25 12 81 20 125 8 44 16 98 20
120 3 22 10 65 15 95 10 58 28 169 37 235 3 22 15 98 27 169 19 112 24 130 41
132 11 2 74 6 140 10 66 3 121 7 122 8 6 5 123 -5 188 -16z m-7832 -230 c68
-13 186 -54 207 -73 9 -8 20 -15 25 -15 14 0 97 -70 148 -124 147 -157 256
-431 312 -781 33 -214 40 -329 40 -685 -1 -323 -6 -451 -30 -690 -3 -30 -7
-75 -10 -100 -5 -51 -14 -128 -20 -180 -2 -19 -7 -57 -10 -85 -3 -27 -8 -61
-10 -75 -4 -26 -11 -75 -19 -145 -6 -43 -15 -104 -22 -139 -2 -11 -7 -37 -10
-56 -3 -19 -16 -93 -29 -165 -14 -71 -27 -143 -30 -160 -2 -16 -7 -41 -10 -55
-3 -14 -8 -36 -11 -50 -41 -200 -119 -527 -161 -670 -14 -47 -34 -116 -44
-155 -11 -38 -39 -124 -61 -190 -265 -783 -589 -1269 -973 -1460 -138 -68
-225 -89 -380 -89 -141 -1 -170 3 -258 33 -349 121 -555 528 -614 1214 -16
182 -8 805 12 980 2 18 6 64 10 102 3 39 8 86 10 105 2 19 7 58 10 85 3 28 10
84 15 125 5 41 12 94 15 118 3 24 7 53 10 65 2 12 7 44 10 71 3 27 8 52 9 55
2 3 7 33 11 66 3 32 8 62 10 65 1 3 6 28 9 55 4 28 8 61 11 75 10 53 15 86 21
120 2 19 7 46 10 60 2 14 7 39 10 55 2 17 13 73 24 125 11 52 21 106 24 120 2
14 16 79 31 145 15 66 28 125 29 130 1 6 5 19 9 30 3 11 8 31 11 45 2 14 18
77 36 140 17 63 32 123 35 132 34 145 184 569 270 763 44 98 156 319 171 336
8 8 14 19 14 23 0 10 111 176 169 251 75 99 220 237 316 301 109 72 242 130
345 149 85 16 224 17 303 3z m-8944 -188 c153 -31 318 -102 426 -184 66 -49
197 -186 245 -256 100 -143 188 -348 239 -558 27 -108 32 -134 45 -217 3 -16
8 -48 11 -70 29 -186 41 -696 22 -955 -12 -161 -31 -352 -42 -430 -2 -14 -7
-52 -10 -85 -6 -55 -67 -426 -80 -485 -3 -14 -10 -43 -14 -65 -30 -138 -45
-203 -72 -310 -32 -125 -35 -135 -94 -330 -186 -609 -463 -1119 -781 -1440
-264 -266 -542 -415 -890 -479 -12 -3 -57 -7 -100 -11 -43 -4 -94 -8 -112 -10
-33 -3 -34 -2 -28 28 3 18 8 50 11 72 3 22 8 49 10 61 3 12 7 37 10 58 9 67
15 101 19 121 2 11 7 42 10 68 4 27 9 58 12 70 2 12 6 39 9 62 5 35 20 129 66
410 13 85 15 97 24 160 3 28 8 57 10 65 3 8 7 33 10 55 3 22 8 51 10 65 3 14
7 43 11 65 3 22 7 51 9 65 2 14 11 70 20 125 18 111 22 136 29 180 9 50 35
217 41 260 4 22 13 78 20 125 8 47 17 103 20 125 8 49 13 82 19 115 3 14 8 45
11 70 3 25 7 56 10 70 2 13 7 42 10 65 3 22 10 65 15 95 5 30 12 73 15 95 4
22 13 81 21 130 8 50 17 104 20 120 2 17 6 41 9 55 5 29 11 66 21 135 3 28 8
59 10 70 2 11 13 79 24 150 12 72 23 141 25 155 3 14 8 43 10 65 3 22 10 65
15 95 11 68 28 173 35 220 3 19 7 46 10 60 4 23 9 50 19 118 3 15 14 90 26
167 11 77 25 163 30 190 5 28 12 67 15 88 3 20 7 52 10 70 3 17 7 46 10 62 2
17 6 39 8 50 3 11 8 40 11 65 3 25 8 54 10 65 2 11 7 40 11 65 3 25 8 56 10
70 5 26 73 457 80 500 2 14 13 81 24 150 11 69 23 148 27 175 5 28 9 53 10 58
1 4 2 10 3 14 2 11 196 -6 300 -27z"/>
<path d="M19397 11815 c-1 -1 -45 -5 -97 -8 -52 -4 -106 -9 -120 -11 -14 -3
-43 -7 -65 -10 -40 -5 -50 -7 -155 -27 -154 -30 -374 -106 -537 -186 -118 -58
-320 -182 -397 -244 -187 -150 -325 -288 -444 -442 -207 -266 -369 -603 -467
-968 l-24 -89 857 2 856 3 14 50 c65 248 151 384 279 442 61 28 177 35 248 15
128 -36 197 -161 195 -352 -1 -175 -34 -319 -103 -460 -33 -67 -59 -102 -123
-165 -88 -88 -121 -110 -217 -149 -85 -34 -174 -54 -277 -62 -92 -8 -110 -8
-245 -4 l-90 3 -6 -34 c-4 -19 -10 -52 -13 -74 -2 -22 -14 -98 -26 -170 -11
-71 -23 -143 -26 -160 -2 -16 -6 -41 -9 -55 -2 -14 -7 -43 -10 -65 -3 -22 -8
-53 -11 -70 -2 -16 -9 -55 -14 -85 -5 -30 -11 -75 -14 -100 -4 -25 -8 -56 -11
-70 -2 -14 -11 -68 -19 -120 -9 -52 -18 -111 -21 -130 -3 -19 -14 -86 -24
-148 l-18 -113 86 8 c103 9 339 10 399 0 289 -43 443 -216 445 -502 2 -158
-32 -308 -100 -445 -38 -76 -64 -111 -128 -175 -120 -121 -232 -166 -394 -160
-178 6 -288 99 -320 271 -11 58 -12 199 -1 267 l7 47 -863 0 c-813 0 -863 -1
-868 -17 -3 -10 -8 -37 -11 -60 -3 -23 -8 -57 -11 -75 -22 -150 -22 -504 0
-569 3 -8 7 -30 10 -49 28 -190 133 -424 269 -605 282 -372 700 -588 1262
-652 146 -16 638 -8 738 13 12 2 41 7 63 10 23 2 53 7 65 10 13 3 35 7 49 10
14 2 39 7 55 11 17 4 35 8 41 9 7 1 54 14 105 28 425 120 809 345 1120 657
259 260 429 544 543 904 17 55 52 201 61 255 3 19 10 60 15 90 27 159 28 399
4 540 -2 14 -7 41 -10 60 -9 53 -39 157 -67 232 -80 210 -245 420 -451 575
-56 42 -102 79 -104 84 -2 4 12 15 30 25 57 29 239 153 312 214 299 244 499
543 601 898 14 49 28 100 30 113 40 204 49 290 48 464 -1 77 -4 153 -7 169 -3
16 -8 50 -12 75 -16 116 -74 302 -130 413 -25 50 -89 162 -106 183 -246 320
-444 478 -761 605 -110 44 -293 90 -422 105 -27 3 -65 8 -84 11 -32 5 -368 13
-374 9z"/>
<path d="M29837 11814 c-1 -1 -36 -5 -77 -9 -114 -11 -117 -11 -230 -33 -700
-138 -1296 -604 -1762 -1377 -62 -102 -192 -357 -233 -455 -15 -36 -36 -84
-46 -107 -10 -23 -19 -48 -19 -55 0 -8 -4 -18 -8 -23 -5 -6 -19 -39 -31 -75
-12 -36 -26 -74 -31 -85 -5 -11 -23 -65 -40 -120 -17 -55 -40 -127 -50 -160
-30 -95 -101 -388 -124 -510 -1 -5 -5 -19 -9 -30 -3 -11 -8 -37 -11 -58 -4
-21 -17 -102 -30 -180 -25 -149 -29 -176 -46 -315 -6 -48 -12 -100 -14 -117
-3 -16 -8 -66 -11 -110 -4 -44 -9 -87 -10 -96 -7 -35 -18 -330 -18 -459 0
-214 12 -404 38 -599 31 -232 99 -490 186 -702 208 -508 563 -856 1028 -1009
66 -22 135 -42 153 -45 18 -3 40 -8 48 -10 17 -5 72 -15 115 -20 17 -3 55 -8
85 -12 70 -10 435 -10 515 -1 198 24 394 75 579 150 120 49 390 205 476 274
239 194 386 342 555 559 289 372 522 827 688 1340 32 98 116 401 130 465 66
305 118 586 132 715 4 28 8 60 10 73 2 13 7 53 10 90 4 37 8 78 11 92 2 14 6
59 9 100 4 41 8 89 11 105 13 73 12 713 -2 840 -13 123 -37 300 -49 355 -2 14
-10 50 -16 80 -6 30 -17 78 -25 106 -8 28 -16 60 -18 70 -8 38 -78 236 -112
316 -60 142 -196 378 -247 429 -7 8 -20 24 -29 37 -27 39 -134 148 -204 208
-219 185 -511 311 -814 349 -25 3 -63 8 -85 12 -35 5 -373 11 -378 7z m4
-1552 c109 -50 200 -211 225 -402 3 -25 8 -48 10 -51 9 -15 17 -183 17 -349 0
-220 -14 -445 -38 -620 -2 -14 -6 -52 -10 -85 -4 -33 -9 -69 -10 -80 -2 -11
-6 -42 -10 -70 -3 -27 -8 -61 -10 -75 -9 -55 -26 -166 -30 -190 -2 -14 -9 -56
-15 -95 -12 -78 -83 -433 -104 -522 -97 -408 -206 -702 -331 -888 -53 -79
-162 -195 -184 -195 -6 0 -11 -3 -11 -8 0 -4 -21 -17 -48 -29 -157 -72 -294
-46 -384 72 -58 76 -108 227 -123 375 -4 36 -9 79 -11 95 -6 43 -6 414 0 515
10 148 23 290 41 435 9 75 12 94 19 160 4 33 16 114 26 180 11 66 22 140 26
165 3 25 8 54 10 65 46 312 183 862 253 1020 5 11 21 49 36 85 118 278 271
454 439 505 59 18 162 12 217 -13z"/>
<path d="M24137 11639 c-23 -32 -80 -113 -125 -181 -46 -68 -128 -188 -182
-268 -54 -80 -126 -185 -160 -235 -34 -49 -120 -175 -191 -280 -70 -104 -133
-197 -139 -205 -28 -40 -234 -352 -301 -457 -142 -221 -383 -621 -474 -788
-82 -149 -113 -207 -203 -385 -397 -779 -566 -1372 -565 -1975 2 -771 345
-1376 943 -1662 128 -61 367 -132 500 -148 14 -2 54 -7 90 -11 132 -17 552
-10 685 12 456 73 822 226 1167 486 477 360 825 872 992 1463 44 154 81 322
92 420 3 28 7 56 10 64 18 56 26 516 11 639 -37 302 -131 566 -285 802 -91
141 -177 239 -294 332 -157 127 -362 210 -578 233 -156 17 -301 3 -460 -44
-98 -29 -295 -106 -317 -124 -9 -6 -13 -6 -13 1 0 6 4 13 10 17 34 21 401 505
657 868 13 18 33 46 45 64 13 17 104 143 202 280 237 328 353 489 390 541 17
24 40 55 52 70 42 56 374 521 374 525 0 2 -426 4 -946 4 l-946 0 -41 -58z
m153 -3424 c19 -4 60 -20 92 -37 192 -102 246 -392 162 -883 -3 -16 -9 -48
-14 -70 -5 -22 -12 -55 -15 -74 -12 -68 -87 -282 -125 -358 -112 -222 -273
-342 -468 -348 -211 -7 -334 109 -377 355 -13 75 -14 334 -1 415 4 22 11 72
17 110 31 211 96 439 161 569 126 251 327 365 568 321z"/>
</g>
</svg>
