<svg width="36" height="42" xmlns="http://www.w3.org/2000/svg" xmlns:xlink="http://www.w3.org/1999/xlink" x="0px" y="0px"
	 viewBox="30 40 220 310" style="enable-background:new 30 40 220 310;" xml:space="preserve">
<defs>
  <linearGradient id="gradient1" x1="0" y1="0" x2="1" y2="1">
    <stop offset="0%" stop-color="#ffffff" />                
    <stop offset="100%" stop-color="#ffa0eb" />            
  </linearGradient>
</defs>
<g fill="url(#gradient1) #ffa0eb">
	<path d="M257.9,213.1c-10.1-9.1-22.9-8.2-38.4-0.9c0.9-8.2,0-12.8,0-12.8c-1.8-21.9-46.6-40.2-100.6-40.2s-98.7,18.3-100.6,40.2
		c0,0-3.7,67.7,50.3,98.7c0,14.6,40.2,17.4,50.3,17.4c9.1,0,53.9-3.7,50.3-18.3c4-2.7,7.8-5.5,11.3-8.4c0.8,1.6,1.5,3.3,1.5,5.7
		c0,32-114.3,37.5-146.3,14.6c21.9,31.1,158.2,24.7,158.2-10.1c0-4.3-3.3-9.5-9.1-13.9c1.5-1.4,2.9-2.7,4.3-4.1
		c15,7,24,14.9,23.1,24.5c-2.7,39.3-151.8,32.9-200.2,22.9c48.5,19.2,215.8,22.9,218.5-21.9c0.9-13.2-14.4-22.2-36.9-30.2
		c0.8-0.9,1.5-1.8,2.2-2.7c11.9,6.4,27.4,3.7,41.1-6.4C252.4,255.2,272.6,225.9,257.9,213.1z M119,171.1c44.8,0,81.4,14.6,81.4,32
		c0,3.7-0.9,6.4-3.7,9.1c-0.9-13.7-35.7-23.8-77.7-23.8s-76.8,10.1-78.6,23.8c-1.8-2.7-2.7-5.5-2.7-9.1
		C37.6,185.7,74.2,171.1,119,171.1z M34.9,224.1c17.4,11.9,48.5,19.2,84.1,19.2c34.7,0,65.8-7.3,84.1-18.3
		C183,321,54.1,324.7,34.9,224.1z M226.8,263.4c-11,7.3-20.1,8.2-27.4,5.5c10.1-15.5,15.5-31.1,18.3-43.9c10.1-3.7,21-5.5,25.6-0.9
		C250.6,231.4,246,249.7,226.8,263.4z"/>
	<path d="M119,156.5c61.3-51.2-27.4-60.3,1.8-103.3C71.4,92.5,151.9,105.3,119,156.5z"/>
</g>
</svg>
