<svg width="36" height="39" xmlns="http://www.w3.org/2000/svg" xmlns:xlink="http://www.w3.org/1999/xlink" x="0px" y="0px"
	 viewBox="10 10 71 79" style="enable-background:new 10 10 71 79;" xml:space="preserve">
<defs>
  <linearGradient id="gradient1" x1="0" y1="0" x2="1" y2="1">
    <stop offset="0%" stop-color="#ffffff" />                
    <stop offset="100%" stop-color="#939393" />            
  </linearGradient>
</defs>
<g fill="url(#gradient1) #939393">
  <path d="M76.9,52c-0.2-0.3-5.6-8-13.6-8c-0.8,0-1.7,0.1-2.5,0.3V29.9c0-0.4,0.2-4.2-2.2-6.8c-1.5-1.6-3.9-3.2-9.5-2.1
    c-0.6-1.4-2.6-5.3-8.4-5.3c-5.8,0-7.6,3.9-8,5.3c-0.5-0.1-1.4-0.2-2.5-0.2c-3.4,0-9.2,1.2-9.2,8.9l0.1,14.2
    c-0.4-0.1-0.9-0.1-1.5-0.1c-2.8,0-8.5,1-15.1,7.9c-0.1,0.1-0.2,0.3-0.1,0.5c0,0.2,0.2,0.3,0.4,0.4c0.1,0,9.9,3.1,11.5,9.2
    c0.3,1,0.4,2.6,0.7,4.4c0.6,4.9,1.3,11.6,4.6,17.3c3.9,6.8,10.6,10.2,19.8,10.2c8.1,0,13.8-2.6,17.5-8.1c3.1-4.7,4.3-10.7,5.3-16
    c0.8-4.1,1.5-8,3-10.3c3.7-5.6,9.4-6.4,9.5-6.4c0.2,0,0.4-0.1,0.4-0.3C77,52.4,77,52.2,76.9,52z M66.2,58.6
    c-1.6,2.5-2.4,6.5-3.2,10.7c-1,5.2-2.1,11.1-5.1,15.6c-3.4,5.1-8.9,7.6-16.6,7.6c-8.9,0-15.1-3.2-18.9-9.7
    C19.3,77.4,18.5,70.8,18,66c-0.2-1.9-0.4-3.5-0.7-4.5c-1.5-5.6-8.9-8.7-11.4-9.6c6-6.1,11.2-7,13.7-7c1.2,0,1.9,0.2,1.9,0.2
    c0.5,0.1,0.7-0.1,0.7-0.5l-0.2-14.8c0-6.5,4.4-7.8,8.1-7.8c1,0,1.9,0.1,2.4,0.2v2c0,0.3,0.2,0.5,0.5,0.5c0.3,0,0.5-0.2,0.5-0.5
    c0,0,0-2.3,0-2.3c0-0.2,0.9-4.9,7.1-4.9c6.3,0,7.2,4.7,7.2,4.8V24c0,0.3,0.2,0.5,0.5,0.5c0.3,0,0.5-0.2,0.5-0.5v-1.9
    c4.6-1,7.7,0.3,8.9,1.7c1.9,1.9,1.9,5.5,1.9,6.1c0,0.6,0,15.1,0,15.1c0,0.2,0.1,0.3,0.2,0.4c0.1,0.1,0.3,0.1,0.5,0.1
    c1-0.2,1.9-0.4,2.9-0.4c6.1,0,10.7,5,12.2,6.9C73.6,52.4,69.2,53.9,66.2,58.6z"/>
  <path d="M24.2,64.2c0,0,0.6-0.8,1.6-1.8c0.2-0.2,0.2-0.5,0-0.7s-0.5-0.2-0.7,0c-1,1.1-1.6,1.9-1.6,1.9c-0.2,0.2-0.1,0.6,0.1,0.7
    C23.8,64.5,24.1,64.3,24.2,64.2z"/>
  <path d="M29.1,59.4c0.2-0.2,0.3-0.5,0.1-0.7c-0.2-0.2-0.5-0.3-0.7-0.1c-0.6,0.5-1.3,1-1.9,1.6c-0.2,0.2-0.2,0.5,0,0.7
    c0.3,0.3,0.6,0.1,0.7,0C27.9,60.4,28.5,59.8,29.1,59.4z"/>
  <path d="M25,65c-0.2-0.2-0.5-0.3-0.7-0.1c-0.2,0.2-0.3,0.5-0.1,0.7c0.4,0.7,0.9,1.4,1.5,2c0.1,0.1,0.5,0.3,0.7,0.1
    c0.2-0.2,0.3-0.5,0.1-0.7C25.9,66.3,25.5,65.7,25,65z"/>
  <path d="M30.6,58.2c0.3,0,1.7-0.9,2.4-1.3c0.3-0.1,0.4-0.4,0.2-0.7c-0.1-0.3-0.4-0.4-0.7-0.2c-0.7,0.4-1.5,0.8-2.2,1.2
    c-0.2,0.2-0.3,0.5-0.2,0.7C30.2,58.1,30.4,58.2,30.6,58.2z"/>
  <path d="M34.7,56.1c0.1,0,1.7-0.5,2.4-0.7c0.3-0.1,0.5-0.3,0.4-0.6c-0.1-0.3-0.3-0.5-0.6-0.4c-0.8,0.2-1.6,0.4-2.4,0.7
    c-0.3,0.1-0.4,0.4-0.3,0.7C34.3,56,34.5,56.1,34.7,56.1z"/>
  <path d="M48,56.8c0.7,0.3,2.1,1.2,2.4,1.2c0.2,0,0.3-0.1,0.4-0.2c0.2-0.2,0.1-0.6-0.2-0.7c-0.7-0.4-1.5-0.8-2.2-1.2
    c-0.3-0.1-0.6,0-0.7,0.2C47.6,56.3,47.7,56.6,48,56.8z"/>
  <path d="M29.6,70.1c-0.6-0.5-1.2-1-1.8-1.6c-0.2-0.2-0.5-0.2-0.7,0c-0.2,0.2-0.2,0.5,0,0.7c0.6,0.6,1.2,1.2,1.9,1.7
    c0.3,0.2,0.6,0,0.7-0.1C29.9,70.6,29.9,70.3,29.6,70.1z"/>
  <path d="M51.8,59.1c0.6,0.5,1.2,1,1.9,1.5c0.3,0.3,0.6,0.1,0.7,0c0.2-0.2,0.2-0.5,0-0.7c-0.6-0.6-1.3-1.1-1.9-1.6
    c-0.2-0.2-0.6-0.1-0.7,0.1C51.6,58.6,51.6,58.9,51.8,59.1z"/>
  <path d="M39.2,55.1c0,0,2.1-0.1,2.4,0c0.3,0,0.5-0.2,0.6-0.5c0-0.3-0.2-0.5-0.5-0.6c-0.3,0-2,0-2.5,0c-0.3,0-0.5,0.3-0.5,0.6
    C38.7,54.9,38.9,55.1,39.2,55.1z"/>
  <path d="M43.7,55.3c0.8,0.1,1.5,0.4,2.3,0.6c0.1,0,0.1,0,0.2,0c0.2,0,0.4-0.1,0.5-0.4c0.1-0.3,0-0.6-0.3-0.7
    c-0.8-0.3-1.6-0.5-2.4-0.7c-0.3-0.1-0.6,0.1-0.6,0.4C43.3,55,43.4,55.3,43.7,55.3z"/>
  <path d="M57.6,63.9c0.2-0.2,0.2-0.5,0.1-0.7c-0.5-0.6-1.1-1.2-1.7-1.8c-0.2-0.2-0.5-0.2-0.7,0c-0.2,0.2-0.2,0.5,0,0.7
    c0.6,0.6,1.1,1.2,1.6,1.8C57.2,64.2,57.5,64,57.6,63.9z"/>
  <path d="M50.6,71.3c-0.7,0.4-1.4,0.8-2.1,1.1c-0.3,0.1-0.4,0.4-0.3,0.7c0.1,0.2,0.3,0.3,0.5,0.3c0.1,0,1.7-0.8,2.4-1.2
    c0.2-0.2,0.3-0.5,0.2-0.7C51.2,71.2,50.9,71.1,50.6,71.3z"/>
  <path d="M54.2,68.5C53.6,69,53,69.6,52.4,70c-0.2,0.2-0.3,0.5-0.1,0.7c0.3,0.3,0.6,0.2,0.7,0.1c0.6-0.5,1.3-1.1,1.9-1.6
    c0.2-0.2,0.2-0.5,0-0.7C54.7,68.3,54.4,68.3,54.2,68.5z"/>
  <path d="M57.8,64.9c-0.2-0.2-0.6-0.1-0.7,0.1c-0.3,0.4-0.8,1.1-1.5,1.9c-0.2,0.2-0.2,0.6,0.1,0.7c0.3,0.3,0.6,0.1,0.7-0.1
    c0.6-0.7,1.1-1.3,1.5-2C58.1,65.4,58.1,65.1,57.8,64.9z"/>
  <path d="M33.4,72.5c-0.7-0.3-1.4-0.7-2.1-1.1c-0.2-0.2-0.6-0.1-0.7,0.2c-0.2,0.2-0.1,0.6,0.2,0.7c0.7,0.5,1.4,0.9,2.2,1.2
    c0.3,0.1,0.6-0.1,0.7-0.3C33.8,73,33.7,72.6,33.4,72.5z"/>
  <path d="M37.7,73.9c-0.8-0.1-1.5-0.3-2.3-0.6c-0.3-0.1-0.6,0.1-0.7,0.3c-0.1,0.3,0.1,0.6,0.3,0.7c0.8,0.3,2.5,0.6,2.5,0.6
    c0.2,0,0.5-0.2,0.5-0.4C38.2,74.2,38,73.9,37.7,73.9z"/>
  <path d="M46.6,73.2c-0.7,0.2-1.5,0.5-2.3,0.6c-0.3,0.1-0.5,0.3-0.4,0.6c0.2,0.5,0.6,0.4,0.6,0.4c0.8-0.2,1.6-0.4,2.4-0.6
    c0.3-0.1,0.4-0.4,0.3-0.7C47.2,73.3,46.9,73.1,46.6,73.2z"/>
  <path d="M42.2,74.1c-0.8,0.1-1.6,0.1-2.4,0c-0.3,0-0.5,0.2-0.6,0.5s0.2,0.5,0.5,0.6c0.3,0,2,0,2.5,0c0.3,0,0.5-0.3,0.5-0.6
    C42.7,74.3,42.5,74.1,42.2,74.1z"/>
  <path d="M54.3,64.2c-0.2-0.3-5.7-7.8-13.5-7.8c-7.8,0-13.1,7-13.3,7.3c-0.1,0.2-0.1,0.4,0,0.6c0,0.1,1.1,2.1,3.2,4.2
    c2.9,2.8,6.4,4.2,10.1,4.2c9,0,13.4-7.6,13.6-8C54.4,64.6,54.4,64.4,54.3,64.2z M40.8,71.7c-7.4,0-11.4-6.1-12.2-7.5
    c0.8-1,4.1-4.7,8.7-6.1c-1.2,1-1.9,2.5-1.9,4.2c0,3.1,2.5,5.5,5.5,5.5c3.1,0,5.5-2.5,5.5-5.5c0-1.6-0.7-3-1.7-4
    c4.5,1.6,7.7,5.3,8.5,6.4C52.3,65.9,48.2,71.7,40.8,71.7z"/>
  <path d="M33.1,43c0.3,0,0.5-0.2,0.5-0.5v-2.4c0-0.3-0.2-0.5-0.5-0.5c-0.3,0-0.5,0.2-0.5,0.5v2.4C32.5,42.8,32.8,43,33.1,43z"/>
  <path d="M33.1,38.4c0.3,0,0.5-0.2,0.5-0.5v-2.4c0-0.3-0.2-0.5-0.5-0.5c-0.3,0-0.5,0.2-0.5,0.5v2.4C32.5,38.2,32.8,38.4,33.1,38.4z
    "/>
  <path d="M33.1,29.1c0.3,0,0.5-0.2,0.5-0.5v-2.4c0-0.3-0.2-0.5-0.5-0.5c-0.3,0-0.5,0.2-0.5,0.5v2.4C32.5,28.9,32.8,29.1,33.1,29.1z
    "/>
  <path d="M33.1,33.8c0.3,0,0.5-0.2,0.5-0.5v-2.4c0-0.3-0.2-0.5-0.5-0.5c-0.3,0-0.5,0.2-0.5,0.5v2.4C32.5,33.5,32.8,33.8,33.1,33.8z
    "/>
  <path d="M33.1,46.8c0.3,0,0.5-0.2,0.5-0.5v-1.6c0-0.3-0.2-0.5-0.5-0.5c-0.3,0-0.5,0.2-0.5,0.5v1.6C32.5,46.6,32.8,46.8,33.1,46.8z
    "/>
  <path d="M48.4,33.8c0.3,0,0.5-0.2,0.5-0.5v-2.4c0-0.3-0.2-0.5-0.5-0.5c-0.3,0-0.5,0.2-0.5,0.5v2.4C47.9,33.5,48.1,33.8,48.4,33.8z
    "/>
  <path d="M48.4,29.1c0.3,0,0.5-0.2,0.5-0.5v-2.4c0-0.3-0.2-0.5-0.5-0.5c-0.3,0-0.5,0.2-0.5,0.5v2.4C47.9,28.9,48.1,29.1,48.4,29.1z
    "/>
  <path d="M48.4,43c0.3,0,0.5-0.2,0.5-0.5v-2.4c0-0.3-0.2-0.5-0.5-0.5c-0.3,0-0.5,0.2-0.5,0.5v2.4C47.9,42.8,48.1,43,48.4,43z"/>
  <path d="M48.4,46.8c0.3,0,0.5-0.2,0.5-0.5v-1.6c0-0.3-0.2-0.5-0.5-0.5c-0.3,0-0.5,0.2-0.5,0.5v1.6C47.9,46.6,48.1,46.8,48.4,46.8z
    "/>
  <path d="M48.4,38.4c0.3,0,0.5-0.2,0.5-0.5v-2.4c0-0.3-0.2-0.5-0.5-0.5c-0.3,0-0.5,0.2-0.5,0.5v2.4C47.9,38.2,48.1,38.4,48.4,38.4z
    "/>
</g>
</svg>
