<svg width="37" height="36" xmlns="http://www.w3.org/2000/svg" xmlns:xlink="http://www.w3.org/1999/xlink" x="0px" y="0px"
	 viewBox="15 15 66 90" style="enable-background:new 15 15 66 90;" xml:space="preserve">
<defs>
  <linearGradient id="gradient1" x1="0" y1="0" x2="1" y2="1">
    <stop offset="0%" stop-color="#ffffff" />                
    <stop offset="100%" stop-color="#ffa0eb" />            
  </linearGradient>
</defs>
<g fill="url(#gradient1) #ffa0eb">
	<path d="M80.1,71.2c0.4-0.3,0.3-0.7-0.5-2c-0.3-0.4-0.5-0.8-0.7-1.2c-0.4-0.8-0.4-1.9-0.5-3.3c0-1.4-0.1-3-0.6-4.8
		c-0.2-0.9-0.3-1.7-0.5-2.5c-0.3-2.6-0.7-5-4.8-7.9c-3-2.1-4.8-4.1-5.8-5.6l-0.2,0c0,0,0-0.1,0-0.2c-0.9-1.3-1.2-2.2-1.2-2.2
		l1.1-0.4c0,0,0.2,0.5,0.6,1.2c1.3-3.8,4.9-11.6,6.1-14.1H55.5c-0.6,2-3.4,10.8-5,13.4c-1.6,2.7-1.7,4.2-1.7,4.2
		c0,0.1-0.1,11.8,0,16.1c0,3,0.5,6.4,0.7,8.4c0.1,1.1,0.2,1.7,0.2,2c0,0.3,0,0.6,0,0.9c0,0.6-0.1,1.4,0,1.8c0.1,0.5,0,1.3-0.2,2.9
		c-0.1,0.9-0.3,1.9-0.4,3.1c-0.3,3.2-0.1,3.7,0.9,3.8c1,0.1,1.6-0.5,1.8-0.7c0.5-2.5,0.9-4.8,0.9-5.5c0-0.4,0.2-1.1,0.5-2.1
		c0.4-1.4,1-3.3,1-4.6l1.2,0c0,1.5-0.6,3.4-1,4.9c-0.2,0.8-0.5,1.5-0.5,1.8c-0.1,1-0.8,5.5-1.6,8.7c-0.6,2.5-0.4,3.6-0.1,4.1
		c0.2,0.3,0.4,0.5,0.8,0.6c0.8,0.2,1.7-0.7,2.1-1.2c-0.2-1.5,0.6-3.3,1.3-4.7c0.3-0.6,0.5-1.2,0.7-1.6c0.3-0.8,0.6-1.7,0.9-2.5
		c0.4-1,0.9-2.4,0.9-2.7c0-0.3,0.1-0.9,0.3-2.1c0.3-1.6,0.8-4.1,0.6-5.1l1.1-0.2c0.2,1.1-0.1,3.2-0.6,5.6c-0.1,0.7-0.3,1.6-0.3,1.7
		c0.1,0.5-0.3,1.5-0.9,3.2c-0.3,0.8-0.6,1.7-0.8,2.5c-0.2,0.5-0.4,1.1-0.7,1.8c-0.7,1.5-1.5,3.4-1.1,4.5c0.1,0.4,0.4,0.6,0.9,0.8
		c2.3,1,4.8-3.5,5.2-4.2c0-1.7,0.4-3.7,1-6c0.9-3.3,1.1-5.7,1.3-7.5c0.1-1.2,0.2-2.2,0.5-3l1.1,0.3c-0.2,0.8-0.3,1.7-0.4,2.9
		c-0.2,1.8-0.5,4.3-1.4,7.7c-1.1,4.2-1.3,7.6-0.4,8.9c0.2,0.3,0.4,0.4,0.7,0.5c1.8,0.2,4.2-9.5,5.1-13.1c1.5-6.1,1.7-14.8,1.7-16.1
		c-0.3-0.4-0.6-0.9-0.9-1.3c-0.9-1.2-1.7-2.3-2.1-3.3l1.1-0.4c0.3,0.9,1.1,1.9,1.9,3.1c1.2,1.6,2.5,3.4,2.8,5.3
		c0.4,2.1,3,4.9,4.7,5.7C79.7,71.3,80,71.3,80.1,71.2z M68.4,62.5c-3.7-1.1-16.8-1.1-16.9-1.1l0-1.2c0.4,0,7.5,0,12.7,0.5
		c-5.6-5.1-3.6-12.3-3.5-12.3l1.1,0.3c-0.1,0.3-2.1,7.6,4.5,12.2l0,0c1,0.1,1.9,0.3,2.5,0.5L68.4,62.5z"/>
	<path d="M45.1,41.5c-1.6-2.6-4.4-11.4-5-13.4H22.5c1.2,2.6,4.8,10.4,6.1,14.1c0.4-0.7,0.6-1.2,0.6-1.2l1.1,0.4
		c0,0.1-0.4,0.9-1.2,2.2c0,0.1,0,0.1,0,0.2l-0.2,0c-1.1,1.5-2.9,3.6-5.8,5.6c-4.1,2.9-4.4,5.3-4.8,7.9c-0.1,0.8-0.2,1.6-0.5,2.5
		c-0.5,1.8-0.5,3.4-0.6,4.8c0,1.4-0.1,2.4-0.5,3.3c-0.2,0.4-0.5,0.8-0.7,1.2c-0.9,1.4-1,1.8-0.5,2c0.1,0,0.3,0.1,0.8-0.1
		c1.7-0.8,4.3-3.6,4.7-5.7c0.4-1.9,1.7-3.7,2.8-5.3c0.8-1.1,1.6-2.2,1.9-3.1l1.1,0.4c-0.4,1-1.2,2.2-2.1,3.3
		c-0.3,0.4-0.6,0.9-0.9,1.3c0,1.3,0.2,10,1.7,16.1c0.9,3.7,3.3,13.4,5.1,13.1c0.3,0,0.5-0.2,0.7-0.5c0.9-1.3,0.7-4.7-0.4-8.9
		c-0.9-3.4-1.2-5.9-1.4-7.7c-0.1-1.2-0.2-2.1-0.4-2.9l1.1-0.3c0.2,0.9,0.3,1.8,0.5,3c0.2,1.9,0.5,4.2,1.3,7.5c0.6,2.3,0.9,4.3,1,6
		c0.4,0.7,2.9,5.2,5.2,4.2c0.4-0.2,0.7-0.5,0.9-0.8c0.4-1.1-0.4-3-1.1-4.5c-0.3-0.7-0.6-1.3-0.7-1.8c-0.2-0.8-0.5-1.6-0.8-2.5
		c-0.6-1.8-1-2.7-0.9-3.2c0-0.2-0.2-1-0.3-1.7c-0.5-2.4-0.9-4.4-0.6-5.6l1.1,0.2c-0.2,1,0.3,3.5,0.6,5.1c0.3,1.2,0.4,1.8,0.3,2.1
		c0,0.3,0.5,1.7,0.9,2.7c0.3,0.8,0.6,1.7,0.9,2.5c0.1,0.4,0.4,1,0.7,1.6c0.7,1.5,1.5,3.3,1.3,4.7c0.4,0.5,1.3,1.4,2.1,1.2
		c0.4-0.1,0.6-0.3,0.8-0.6c0.3-0.5,0.5-1.6-0.1-4.1c-0.8-3.2-1.6-7.7-1.6-8.7c0-0.3-0.2-1-0.5-1.8c-0.4-1.5-1-3.4-1-4.9l1.2,0
		c0,1.4,0.6,3.2,1,4.6c0.3,1,0.5,1.7,0.5,2.1c0,0.6,0.4,3,0.9,5.5c0.2,0.2,0.8,0.8,1.8,0.7c1-0.1,1.3-0.6,0.9-3.8
		c-0.1-1.2-0.3-2.2-0.4-3.1c-0.2-1.6-0.3-2.4-0.2-2.9c0.1-0.4,0-1.2,0-1.8c0-0.3,0-0.7,0-0.9c0-0.3,0.1-0.8,0.2-2
		c0.3-2,0.7-5.4,0.7-8.4c0.1-4.3,0-16,0-16.1C46.8,45.7,46.7,44.2,45.1,41.5z M27.3,62.5L27,61.4c0.6-0.2,1.5-0.3,2.5-0.5l0,0
		c6.7-4.6,4.6-11.9,4.5-12.2l1.1-0.3c0,0.1,2.1,7.3-3.5,12.3c5.2-0.5,12.3-0.5,12.7-0.5l0,1.2C44.1,61.4,31,61.4,27.3,62.5z"/>
	<circle cx="28.1" cy="100.5" r="2.4"/>
	<polygon points="8.3,45 10.5,46.1 10.1,43.7 11.8,42.1 9.4,41.7 8.3,39.5 7.3,41.7 4.9,42.1 6.6,43.7 6.2,46.1 	"/>
	<polygon points="28.9,20.1 28.1,18.5 27.4,20.1 25.6,20.3 26.9,21.6 26.6,23.3 28.1,22.5 29.7,23.3 29.4,21.6 30.6,20.3 	"/>
	<polygon points="86.9,82.1 88.5,82.9 88.2,81.2 89.4,80 87.7,79.7 86.9,78.2 86.2,79.7 84.4,80 85.7,81.2 85.4,82.9 	"/>
	<polygon points="86.9,25.7 85.9,28.8 82.7,28.8 85.3,30.7 84.3,33.7 86.9,31.8 89.5,33.7 88.5,30.7 91.1,28.8 87.9,28.8 	"/>
	<circle cx="79" cy="19.5" r="2.4"/>
	<circle cx="88.5" cy="61" r="1.9"/>
	<circle cx="14.8" cy="29.2" r="2.5"/>
	<path d="M21.8,100.6c0.3,0.1,0.7,0.2,1,0.2l0.1-0.7c-0.3-0.1-0.6-0.1-1-0.2L21.8,100.6z"/>
	<path d="M7.1,80.9c0-0.3,0-0.7,0-1l-0.8,0c0,0.3,0,0.7,0,1c0,0.3,0,0.7,0,1l0.7,0C7.1,81.5,7.1,81.2,7.1,80.9z"/>
	<path d="M7.3,83.7l-0.7,0.1c0.1,0.7,0.2,1.3,0.4,2l0.7-0.2C7.5,85,7.4,84.4,7.3,83.7z"/>
	<path d="M9.3,91.3c0.3,0.6,0.7,1.1,1.1,1.7l0.6-0.4c-0.4-0.5-0.7-1.1-1.1-1.6L9.3,91.3z"/>
	<path d="M18,99.3c0.6,0.3,1.2,0.5,1.9,0.8l0.3-0.7c-0.6-0.2-1.2-0.5-1.8-0.7L18,99.3z"/>
	<path d="M7.5,87.7C7.8,88.3,8,89,8.3,89.6L9,89.2c-0.3-0.6-0.5-1.2-0.7-1.8L7.5,87.7z"/>
	<path d="M14.6,97.2c0.5,0.4,1.1,0.8,1.7,1.1l0.4-0.6c-0.5-0.3-1.1-0.7-1.6-1.1L14.6,97.2z"/>
	<path d="M11.6,94.5c0.4,0.5,0.9,1,1.4,1.4l0.5-0.6c-0.5-0.4-0.9-0.9-1.4-1.4L11.6,94.5z"/>
	<path d="M7.3,77.9c0-0.3,0.1-0.6,0.2-1l-0.7-0.1c-0.1,0.3-0.1,0.7-0.2,1L7.3,77.9z"/>
	<path d="M88.9,89l0.7,0.1c0-0.3,0.1-0.7,0.1-1l-0.8,0C88.9,88.3,88.9,88.6,88.9,89z"/>
	<path d="M78.3,100.9l0.2,0.7c0.7-0.2,1.5-0.4,2.2-0.6l-0.3-0.7C79.7,100.5,79,100.7,78.3,100.9z"/>
	<path d="M82.3,99.3l0.4,0.6c0.6-0.4,1.3-0.8,1.8-1.3L84,98.1C83.5,98.6,82.9,99,82.3,99.3z"/>
	<path d="M85.6,96.6l0.6,0.5c0.5-0.6,1-1.2,1.4-1.8L86.8,95C86.5,95.5,86,96.1,85.6,96.6z"/>
	<path d="M87.8,93.1l0.7,0.3c0.3-0.7,0.5-1.4,0.7-2.1l-0.7-0.2C88.4,91.8,88.1,92.4,87.8,93.1z"/>
	<path d="M75.2,101.2l0,0.8c0.1,0,0.2,0,0.3,0c0.2,0,0.5,0,0.7,0l0-0.8C75.9,101.2,75.6,101.2,75.2,101.2z"/>
	<rect x="88.1" y="52.4" width="0.8" height="2"/>
	<rect x="88.1" y="48.4" width="0.8" height="2"/>
	<rect x="88.1" y="40.4" width="0.8" height="2"/>
	<rect x="88.1" y="44.4" width="0.8" height="2"/>
</g>
</svg>
