<svg width="33" height="36" xmlns="http://www.w3.org/2000/svg" xmlns:xlink="http://www.w3.org/1999/xlink" x="0px" y="0px"
	 viewBox="8 15 78 90" style="enable-background:new 8 15 78 90;" xml:space="preserve">
<defs>
  <linearGradient id="gradient1" x1="0" y1="0" x2="1" y2="1">
    <stop offset="0%" stop-color="#ffffff" />                
    <stop offset="100%" stop-color="#ffa0eb" />            
  </linearGradient>
</defs>
<g fill="url(#gradient1) #ffa0eb">
	<path d="M55,50c-0.3-0.6-0.9-1-1.7-1c-1,0-1.7,0.7-1.9,1.6c-3.1,1.1-6.7,3.4-9.9,6.6c-2.9,2.9-5.2,6.2-6.4,9.3
		c-1.3,3.2-1.1,5.8,0.4,7.3c0.8,0.8,1.9,1.2,3.4,1.2c3.7,0,8.9-2.8,13.3-7.2c6.3-6.3,9-13.7,6-16.6C57.4,50.4,56.4,50,55,50z
		 M53.4,50.5c0.2,0,0.4,0.2,0.4,0.4s-0.2,0.4-0.4,0.4S53,51.1,53,50.9S53.1,50.5,53.4,50.5z M51.1,66.7c-4.1,4.1-8.9,6.8-12.2,6.8
		c-1,0-1.8-0.3-2.3-0.8c-1-1-1-3.1,0-5.7c1.1-2.9,3.3-6,6-8.8c3-3,6.4-5.2,9.2-6.2c0.3,0.4,0.9,0.7,1.5,0.7c0.8,0,1.5-0.5,1.8-1.3
		c0.9,0,1.6,0.3,2,0.8C59.2,54.2,57.2,60.7,51.1,66.7z"/>
	<path d="M62.5,40.1c-6.3,0-15.4,5-23.1,12.7C33,59.2,28.7,66.2,27.3,72c-0.6,0-1.3,0.3-1.7,0.8c-1.1,1.1-1.1,2.8,0,3.9
		c0.4,0.4,0.8,0.6,1.3,0.7c0.2,1.6,0.8,3,1.9,4c1.3,1.3,3.2,2,5.6,2c6.3,0,15.4-5,23.1-12.7c2.7-2.7,5.1-5.6,7-8.4
		c0.3,0.1,0.7,0.2,1,0.2c0.7,0,1.4-0.3,2-0.8s0.8-1.2,0.8-2s-0.3-1.4-0.8-2c-0.1-0.1-0.1-0.1-0.2-0.2c3.3-6.6,3.9-12.5,0.9-15.5
		C66.8,40.8,64.9,40.1,62.5,40.1z M26.8,75.7c-0.1,0-0.1-0.1-0.2-0.1c-0.5-0.5-0.5-1.3,0-1.8c0.1-0.1,0.2-0.2,0.4-0.2
		c0.2-0.1,0.3-0.1,0.5-0.1c0.3,0,0.7,0.1,0.9,0.4c0,0,0,0,0,0c0.2,0.2,0.4,0.6,0.4,0.9c0,0.3-0.1,0.7-0.4,0.9
		c-0.1,0.1-0.1,0.1-0.2,0.1C27.8,76,27.2,76,26.8,75.7z M66.3,60.6c-0.3,0.3-0.7,0.4-1,0.3c-0.3,0-0.6-0.1-0.8-0.3
		c-0.2-0.2-0.3-0.5-0.3-0.7c-0.1-0.4,0-0.8,0.3-1.1c0.1-0.1,0.3-0.2,0.5-0.3c0.1-0.1,0.3-0.1,0.4-0.1c0.3,0,0.7,0.1,0.9,0.4
		c0.1,0.1,0.1,0.1,0.1,0.2c0.2,0.2,0.3,0.5,0.3,0.7C66.7,60.1,66.6,60.4,66.3,60.6z M65.8,57c-0.8-0.1-1.7,0.1-2.3,0.8
		c-1,1-1.1,2.5-0.2,3.6c-1.9,2.8-4.2,5.6-6.9,8.3c-7.4,7.4-16.1,12.2-22,12.2c-1.9,0-3.5-0.5-4.5-1.6c-0.8-0.8-1.2-1.8-1.4-3
		c0.4-0.1,0.8-0.4,1.1-0.7c0.5-0.5,0.8-1.2,0.8-2c0-0.7-0.3-1.4-0.8-2c-0.2-0.2-0.5-0.4-0.7-0.5c1.4-5.4,5.6-12.3,11.7-18.4
		c7.4-7.4,16.1-12.2,22-12.2c1.9,0,3.5,0.5,4.5,1.6C69.6,45.7,68.9,51,65.8,57z"/>
	<path d="M60.7,31.5c0,0.2,0,0.5,0.1,0.7c-8,2.6-17.3,8.7-25.5,16.9C19.6,64.8,12.6,83.4,19.7,90.5c1.9,1.9,4.5,2.8,7.9,2.8
		c9.2,0,22.3-7.2,33.5-18.4c15.7-15.7,22.7-34.3,15.6-41.4C75,31.9,72.8,31,70,30.8c-0.3-2.2-2.3-4-4.6-4
		C62.8,26.8,60.7,28.9,60.7,31.5z M75.6,34.6C82,41,74.9,59,60,73.8c-10.9,10.9-23.6,18-32.4,18c-2.9,0-5.2-0.8-6.8-2.4
		C14.3,83,21.5,65,36.3,50.2c8.1-8.1,17.2-14.1,24.9-16.6c0.8,1.5,2.3,2.6,4.1,2.6c2.3,0,4.2-1.7,4.6-3.9
		C72.4,32.5,74.2,33.2,75.6,34.6z M68.5,30.7c0.1,0.2,0.1,0.5,0.1,0.7c0,0.3,0,0.5-0.1,0.8c-0.3,1.4-1.6,2.4-3.1,2.4
		c-1.1,0-2.1-0.6-2.7-1.5c-0.3-0.4-0.4-0.9-0.5-1.4c0-0.1,0-0.2,0-0.3c0-1.7,1.4-3.2,3.2-3.2C66.9,28.3,68.2,29.3,68.5,30.7z"/>
	<path d="M46.9,58.5c-1.9,0-3.5,1.6-3.5,3.5s1.6,3.5,3.5,3.5c1.9,0,3.5-1.6,3.5-3.5S48.8,58.5,46.9,58.5z M46.9,64c-1.1,0-2-0.9-2-2
		s0.9-2,2-2c1.1,0,2,0.9,2,2S48,64,46.9,64z"/>
	<path d="M30.4,100.5c0-1.2-1-2.2-2.2-2.2s-2.2,1-2.2,2.2s1,2.2,2.2,2.2S30.4,101.7,30.4,100.5z M26.4,100.5c0-1,0.8-1.7,1.7-1.7
		s1.7,0.8,1.7,1.7s-0.8,1.7-1.7,1.7S26.4,101.5,26.4,100.5z"/>
	<path d="M8.4,39.8l-1,2l-2.2,0.3l1.6,1.6l-0.4,2.2l2-1l2,1L10,43.7l1.6-1.6l-2.2-0.3L8.4,39.8z M9.5,43.5L9.7,45l-1.3-0.7L7.1,45
		l0.3-1.5l-1.1-1l1.5-0.2l0.7-1.3l0.7,1.3l1.5,0.2L9.5,43.5z"/>
	<path d="M28.9,20.2l-0.7-1.4l-0.7,1.4L26,20.4l1.1,1.1L26.8,23l1.4-0.7l1.4,0.7l-0.3-1.5l1.1-1.1L28.9,20.2z M28.9,22.1l-0.7-0.4
		l-0.7,0.4l0.1-0.8L27,20.8l0.8-0.1l0.4-0.7l0.4,0.7l0.8,0.1l-0.6,0.6L28.9,22.1z"/>
	<path d="M84.8,80.1l1.1,1.1l-0.3,1.5l1.4-0.7l1.4,0.7l-0.3-1.5l1.1-1.1l-1.5-0.2L87,78.5l-0.7,1.4L84.8,80.1z M87,79.6l0.4,0.7
		l0.8,0.1L87.6,81l0.1,0.8L87,81.4l-0.7,0.4l0.1-0.8l-0.6-0.6l0.8-0.1L87,79.6z"/>
	<path d="M87,26.1l-0.9,2.8h-2.9l2.4,1.7l-0.9,2.8l2.4-1.7l2.4,1.7l-0.9-2.8l2.4-1.7h-2.9L87,26.1z M87.9,30.4l0.5,1.7l-1.4-1
		l-1.4,1l0.5-1.7l-1.4-1h1.7l0.5-1.7l0.5,1.7h1.7L87.9,30.4z"/>
	<path d="M79,21.8c1.2,0,2.2-1,2.2-2.2c0-1.2-1-2.2-2.2-2.2s-2.2,1-2.2,2.2S77.8,21.8,79,21.8z M79,17.8c1,0,1.7,0.8,1.7,1.7
		c0,1-0.8,1.7-1.7,1.7s-1.7-0.8-1.7-1.7C77.3,18.5,78.1,17.8,79,17.8z"/>
	<path d="M86.7,61c0,1,0.8,1.8,1.8,1.8s1.8-0.8,1.8-1.8s-0.8-1.8-1.8-1.8S86.7,60,86.7,61z M88.5,59.7c0.7,0,1.3,0.6,1.3,1.3
		s-0.6,1.3-1.3,1.3s-1.3-0.6-1.3-1.3S87.8,59.7,88.5,59.7z"/>
	<path d="M14.9,26.8c-1.3,0-2.4,1.1-2.4,2.4c0,1.3,1.1,2.4,2.4,2.4s2.4-1.1,2.4-2.4C17.2,27.9,16.2,26.8,14.9,26.8z M14.9,31
		c-1,0-1.9-0.8-1.9-1.9c0-1,0.8-1.9,1.9-1.9s1.9,0.8,1.9,1.9C16.7,30.2,15.9,31,14.9,31z"/>
	<path d="M22.9,100.7l0.1-0.5c-0.3-0.1-0.6-0.1-1-0.2l-0.1,0.5C22.2,100.6,22.5,100.7,22.9,100.7z"/>
	<path d="M9.9,91l-0.4,0.3c0.3,0.6,0.7,1.1,1.1,1.7l0.4-0.3C10.5,92.1,10.2,91.5,9.9,91z"/>
	<path d="M13.5,95.5c-0.5-0.4-0.9-0.9-1.4-1.4l-0.4,0.3c0.4,0.5,0.9,1,1.4,1.4L13.5,95.5z"/>
	<path d="M18.1,99.2c0.6,0.3,1.2,0.5,1.8,0.8l0.2-0.5c-0.6-0.2-1.2-0.5-1.8-0.7L18.1,99.2z"/>
	<path d="M6.5,80.9c0,0.3,0,0.7,0,1l0.5,0c0-0.3,0-0.6,0-1c0-0.3,0-0.7,0-1l-0.5,0C6.5,80.2,6.5,80.5,6.5,80.9z"/>
	<path d="M6.8,83.8c0.1,0.7,0.2,1.3,0.4,1.9l0.5-0.1c-0.2-0.6-0.3-1.3-0.4-1.9L6.8,83.8z"/>
	<path d="M14.7,97.1c0.5,0.4,1.1,0.8,1.7,1.1l0.3-0.4c-0.6-0.3-1.1-0.7-1.6-1.1L14.7,97.1z"/>
	<path d="M8.9,89.3c-0.3-0.6-0.5-1.2-0.7-1.8l-0.5,0.2c0.2,0.6,0.5,1.2,0.8,1.8L8.9,89.3z"/>
	<path d="M6.8,77.8l0.5,0.1c0-0.3,0.1-0.6,0.2-1l-0.5-0.1C6.9,77.2,6.8,77.5,6.8,77.8z"/>
	<path d="M89.6,88l-0.5,0c0,0.3,0,0.7-0.1,1l0.5,0C89.6,88.7,89.6,88.4,89.6,88z"/>
	<path d="M88,93.1l0.5,0.2c0.3-0.7,0.5-1.4,0.7-2.1l-0.5-0.1C88.5,91.8,88.3,92.5,88,93.1z"/>
	<path d="M86.1,97.1c0.5-0.6,0.9-1.2,1.3-1.8L87,95c-0.4,0.6-0.8,1.2-1.3,1.7L86.1,97.1z"/>
	<path d="M84.5,98.6l-0.3-0.4c-0.6,0.5-1.1,0.9-1.8,1.2l0.3,0.4C83.3,99.5,83.9,99.1,84.5,98.6z"/>
	<path d="M80.5,100.4c-0.7,0.3-1.4,0.5-2.1,0.6l0.1,0.5c0.7-0.2,1.4-0.4,2.1-0.6L80.5,100.4z"/>
	<path d="M75.3,101.8c0.1,0,0.2,0,0.3,0c0.2,0,0.5,0,0.7,0l0-0.5c-0.3,0-0.7,0-1,0L75.3,101.8z"/>
	<rect x="88.3" y="48.4" width="0.5" height="2"/>
	<rect x="88.3" y="44.4" width="0.5" height="2"/>
	<rect x="88.3" y="52.4" width="0.5" height="2"/>
	<rect x="88.3" y="40.4" width="0.5" height="2"/>
</g>
</svg>
