<svg width="38" height="35" xmlns:cc="http://creativecommons.org/ns#" xmlns:dc="http://purl.org/dc/elements/1.1/" xmlns:rdf="http://www.w3.org/1999/02/22-rdf-syntax-ns#" xmlns:svg="http://www.w3.org/2000/svg"
	 xmlns="http://www.w3.org/2000/svg" xmlns:xlink="http://www.w3.org/1999/xlink" x="0px" y="0px" viewBox="15 20 70 90"
	 style="enable-background:new 15 20 70 90;" xml:space="preserve">
<defs>
  <linearGradient id="gradient1" x1="0" y1="0" x2="1" y2="1">
    <stop offset="0%" stop-color="#ffffff" />                
    <stop offset="100%" stop-color="#939393" />            
  </linearGradient>
</defs>
<g fill="url(#gradient1) #939393">
	<path d="M29.3,22.7c-4.2,0-8,3.4-7.6,7.6c0.6,5.5,4.1,8.6,7.9,11.7C15.6,44.7,5,57,5,71.8c0,16.8,13.6,30.5,30.4,30.5
		s30.5-13.7,30.5-30.5c0-7.1-2.5-13.7-6.6-18.9c-2.7,0.8-5.2,2.1-7.3,3.9c3.6,4,5.8,9.2,5.8,15c0,12.4-10,22.4-22.4,22.4
		c-12.4,0-22.3-10-22.3-22.4c0-12.4,10-22.3,22.3-22.3c1.4,0,2.8,0.1,4.2,0.4c2.1-2.4,4.6-4.5,7.4-6.2c-1.9-0.8-3.9-1.4-6-1.8
		c4.2-3.8,8.2-7.6,8.3-11.6c0.1-4.2-3.4-7.6-7.6-7.6c-2.6,0-4.9,1.5-6.2,3.5C34.1,24.2,31.8,22.7,29.3,22.7z M64.6,41.4
		c-16.8,0-30.5,13.6-30.5,30.4c0,7.1,2.4,13.7,6.5,18.8c2.7-0.7,5.2-2,7.4-3.8c-3.6-4-5.8-9.2-5.8-15c0-12.4,10-22.3,22.4-22.3
		c12.4,0,22.3,10,22.3,22.3c0,12.4-10,22.4-22.3,22.4c-1.4,0-2.8-0.2-4.2-0.4c-2.1,2.4-4.6,4.5-7.3,6.3c3.5,1.4,7.4,2.3,11.5,2.3
		c16.8,0,30.4-13.7,30.4-30.5C95,55,81.4,41.4,64.6,41.4z"/>
</g>
</svg>
