<svg width="35" height="39" xmlns="http://www.w3.org/2000/svg" xmlns:xlink="http://www.w3.org/1999/xlink" x="0px" y="0px"
	 viewBox="50 50 430 530" style="enable-background:new 50 50 430 530;" xml:space="preserve">
<defs>
  <linearGradient id="gradient1" x1="0" y1="0" x2="1" y2="1">
    <stop offset="0%" stop-color="#ffffff" />                
    <stop offset="100%" stop-color="#939393" />            
  </linearGradient>
</defs>
<g fill="url(#gradient1) #939393">
	<path d="M83.5,91.4c-9.8-3.7-14.2-8.1-17.9-17.9c-0.9-2.5-4.5-2.5-5.4,0c-3.7,9.8-8.1,14.2-17.9,17.9c-2.5,0.9-2.5,4.5,0,5.4
		c9.8,3.7,14.2,8.1,17.9,17.9c0.9,2.5,4.5,2.5,5.4,0c3.7-9.8,8.1-14.2,17.9-17.9C86,95.9,86,92.4,83.5,91.4z"/>
	<path d="M469.7,328.4c-9.8-3.7-14.2-8.1-17.9-17.9c-0.9-2.5-4.5-2.5-5.4,0c-3.7,9.8-8.1,14.2-17.9,17.9c-2.5,0.9-2.5,4.5,0,5.4
		c9.8,3.7,14.2,8.1,17.9,17.9c0.9,2.5,4.5,2.5,5.4,0c3.7-9.8,8.1-14.2,17.9-17.9C472.1,332.8,472.1,329.3,469.7,328.4z"/>
	<path d="M234.7,85.5l-1.6-13.7c-10.4,1.2-20.6,3.4-30.5,6.6l4.3,13.1C215.9,88.6,225.3,86.6,234.7,85.5z"/>
	<path d="M293.1,78.4c-9.9-3.2-20.1-5.4-30.5-6.6L261,85.5c9.4,1.1,18.8,3.1,27.8,6L293.1,78.4z"/>
	<path d="M385,258l13.5,2.9c2.1-10.1,3.3-20.6,3.4-31l-13.8-0.1C388,239.3,386.9,248.8,385,258z"/>
	<path d="M343.5,105.8c-8.1-6.6-16.9-12.3-26.1-17.2l-6.4,12.2c8.4,4.4,16.4,9.7,23.8,15.7L343.5,105.8z"/>
	<path d="M380.8,149.4c-5.2-9-11.3-17.5-18.2-25.3l-10.4,9.1c6.3,7.1,11.9,14.9,16.6,23.1L380.8,149.4z"/>
	<path d="M143.5,133.2l-10.4-9.1c-6.9,7.8-13,16.3-18.2,25.3l11.9,6.9C131.6,148.1,137.2,140.3,143.5,133.2z"/>
	<path d="M110.8,258c-2-9.3-3-18.8-3.1-28.3l-13.8,0.1c0.1,10.4,1.3,20.9,3.4,31L110.8,258z"/>
	<path d="M116.6,178.1l-12.9-4.8c-3.6,9.7-6.3,19.9-7.9,30.2l13.6,2.1C110.9,196.3,113.3,187,116.6,178.1z"/>
	<path d="M184.7,100.9l-6.4-12.2c-9.2,4.8-18,10.6-26.1,17.2l8.7,10.7C168.3,110.5,176.3,105.3,184.7,100.9z"/>
	<path d="M386.3,205.7l13.6-2.1c-1.6-10.3-4.3-20.5-7.9-30.2l-12.9,4.8C382.4,187,384.9,196.3,386.3,205.7z"/>
	<path d="M225,256.9c-0.4,3.9-3.7,6.9-7.6,6.9h-28.9c-1.5,0-3.1,0.1-4.6,0.2c-35.9,2.4-63.5,34.2-61.6,70.9l5.7,111.3
		c0.3,6.2,2.9,11.7,7,15.8h0c4.4,4.5,10.7,7.4,17.5,7.4h87l-0.4-37.1h-56.4c-3.7,0-6.7-2.9-6.9-6.5l-3.1-55l13.8-0.8l2.7,48.5H303
		l2.7-48.5l13.8,0.8l-3.1,55c-0.2,3.7-3.2,6.5-6.9,6.5h-56.8l0.4,37.1h88c6.8,0,13-2.8,17.5-7.4h0c4-4.1,6.6-9.6,7-15.8l5.7-111.3
		c1.9-36.7-25.8-68.5-61.6-70.9c-1.5-0.1-3-0.1-4.6-0.1h-28.9c-3.9,0-7.2-3-7.6-6.9l-0.6-5.7c-0.3-2.8,1-5.5,3.4-7.1
		c13.6-9.2,22.6-25.6,22.6-44.5c0-28.8-21.1-47.6-47.2-47.6c-26.1,0-47.2,18.8-47.2,47.6c0,18.9,9.1,35.3,22.6,44.5
		c2.4,1.6,3.7,4.3,3.4,7.1L225,256.9z M230.2,213.5h9.2v4.6c0,3,3.7,5.6,8.2,5.6c4.4,0,8.1-2.5,8.1-5.6v-4.6h9.2v4.6
		c0,8.1-7.8,14.8-17.3,14.8c-9.6,0-17.4-6.6-17.4-14.8L230.2,213.5L230.2,213.5z M230.4,329.5c0.6-11.8,5.3-26.8,17.5-45.6v0
		c0,0,0,0,0,0c0,0,0,0,0,0v0c11.6,18.3,16.1,33.1,16.7,44.7c9.4-6.9,23.7-12.8,45.4-15.5l0,0c0,0,0,0,0,0c0,0,0,0,0,0l0,0
		c-20.1,63.3-57,54.4-62.5,52.7c-0.2,0.1-0.3,0.2-0.3,0.2l0,0l0,0l0,0v0c0,0-0.2-0.1-0.5-0.3c-3.7,1.2-42.2,12.6-62.9-52.6l0,0
		c0,0,0,0,0,0c0,0,0,0,0,0l0,0C206.4,316,220.9,322.3,230.4,329.5z"/>
	<path d="M391.9,461.9h-15.7c-6.3,13-19.7,21.9-35.1,21.9H152.4c-15.4,0-28.7-8.9-35.1-21.9h-15.7c-14.4,0.2-26.1,11.9-26.1,26.4
		v53.7c0,14.6,11.8,26.4,26.4,26.4h289.6c14.6,0,26.4-11.8,26.4-26.4v-53.7C418,473.8,406.3,462.1,391.9,461.9z M378.1,537.4
		l-9.6-12.3H124.8c-1.8,0-3.5-0.7-4.7-1.9l-16.4-15.5l9.5-10l14.4,13.6h244.3c2.1,0,4.1,1,5.4,2.6l11.7,14.9L378.1,537.4z"/>
</g>
</svg>
