<svg xmlns="http://www.w3.org/2000/svg" viewBox="0 0 275 395"><path d="M257.9 213.1c-10.1-9.1-22.9-8.2-38.4-.9.9-8.2 0-12.8 0-12.8-1.8-21.9-46.6-40.2-100.6-40.2s-98.7 18.3-100.6 40.2c0 0-3.7 67.7 50.3 98.7 0 14.6 40.2 17.4 50.3 17.4 9.1 0 53.9-3.7 50.3-18.3 4-2.7 7.8-5.5 11.3-8.4.8 1.6 1.5 3.3 1.5 5.7 0 32-114.3 37.5-146.3 14.6 21.9 31.1 158.2 24.7 158.2-10.1 0-4.3-3.3-9.5-9.1-13.9 1.5-1.4 2.9-2.7 4.3-4.1 15 7 24 14.9 23.1 24.5-2.7 39.3-151.8 32.9-200.2 22.9 48.5 19.2 215.8 22.9 218.5-21.9.9-13.2-14.4-22.2-36.9-30.2.8-.9 1.5-1.8 2.2-2.7 11.9 6.4 27.4 3.7 41.1-6.4 15.5-12 35.7-41.3 21-54.1zm-138.9-42c44.8 0 81.4 14.6 81.4 32 0 3.7-.9 6.4-3.7 9.1-.9-13.7-35.7-23.8-77.7-23.8s-76.8 10.1-78.6 23.8c-1.8-2.7-2.7-5.5-2.7-9.1-.1-17.4 36.5-32 81.3-32zm-84.1 53c17.4 11.9 48.5 19.2 84.1 19.2 34.7 0 65.8-7.3 84.1-18.3-20.1 96-149 99.7-168.2-.9zm191.9 39.3c-11 7.3-20.1 8.2-27.4 5.5 10.1-15.5 15.5-31.1 18.3-43.9 10.1-3.7 21-5.5 25.6-.9 7.3 7.3 2.7 25.6-16.5 39.3zM119 156.5c61.3-51.2-27.4-60.3 1.8-103.3-49.4 39.3 31.1 52.1-1.8 103.3z"/></svg>