<svg xmlns="http://www.w3.org/2000/svg" viewBox="0 0 100 125"><path d="M88.6 58c-1-.4-2.2.1-2.6 1.1-.4 1 .1 2.2 1.1 2.6 4.3 1.7 3.8 3.2 3.5 4-.6 1.8-5.8 3.9-12.7 5.2l8.7-15.1c1.7-3 .7-6.8-2.3-8.5L44.7 24.5c-3-1.7-6.7-.7-8.5 2.3L15.8 62.1c-4.5-1.4-6.6-3-6.6-4.1 0-1.8 2.6-4.2 9.8-5.9 1.1-.2 1.8-1.3 1.5-2.4-.2-1.1-1.3-1.8-2.4-1.5-11.4 2.6-13 7.3-13 9.8.1 7.3 15.6 9.8 23.2 10.5v.1c0 .1 0 .2-.1.3-.2 1-1.2 1.7-2.2 1.6-5.4-.5-9.8-1.4-13.3-2.5-.6 2.6.5 5.4 2.9 6.8l38.9 22.5h-13c-1.1 0-2 .9-2 2s.9 2 2 2h32c1.1 0 2-.9 2-2s-.9-2-2-2H62.1c.6-.5 1.2-1.1 1.6-1.8l9.9-17.2c-2.2.2-4.3.3-6.2.3-1 0-1.9-.7-2.2-1.7-.1-.2-.1-.4-.1-.5 8.9-.2 27.1-2.7 29.3-9.4 1-2.7.7-6.5-5.8-9zm-37.2 8.4c-2.9.8-5.9-.9-6.7-3.9-.8-2.9 1-5.9 3.9-6.7 2.9-.8 5.9 1 6.7 3.9.8 2.9-1 5.9-3.9 6.7zm-14.9 33c0 1.1-.9 2-2 2H23.7c-1.1 0-2-.9-2-2s.9-2 2-2h10.7c1.2-.1 2.1.8 2.1 2z"/></svg>