<?xml version="1.0" encoding="utf-8"?>
<!-- Generator: Adobe Illustrator 21.0.0, SVG Export Plug-In . SVG Version: 6.00 Build 0)  -->
<svg version="1.1" id="katman_1" xmlns="http://www.w3.org/2000/svg" xmlns:xlink="http://www.w3.org/1999/xlink" x="0px" y="0px"
	 viewBox="0 0 100 125" style="enable-background:new 0 0 100 125;" xml:space="preserve">
<path d="M88.6,58c-1-0.4-2.2,0.1-2.6,1.1c-0.4,1,0.1,2.2,1.1,2.6c4.3,1.7,3.8,3.2,3.5,4c-0.6,1.8-5.8,3.9-12.7,5.2l8.7-15.1
	c1.7-3,0.7-6.8-2.3-8.5L44.7,24.5c-3-1.7-6.7-0.7-8.5,2.3L15.8,62.1c-4.5-1.4-6.6-3-6.6-4.1c0-1.8,2.6-4.2,9.8-5.9
	c1.1-0.2,1.8-1.3,1.5-2.4c-0.2-1.1-1.3-1.8-2.4-1.5c-11.4,2.6-13,7.3-13,9.8c0.1,7.3,15.6,9.8,23.2,10.5c0,0,0,0.1,0,0.1
	c0,0.1,0,0.2-0.1,0.3c-0.2,1-1.2,1.7-2.2,1.6c-5.4-0.5-9.8-1.4-13.3-2.5c-0.6,2.6,0.5,5.4,2.9,6.8l38.9,22.5H41.5c-1.1,0-2,0.9-2,2
	s0.9,2,2,2h32c1.1,0,2-0.9,2-2s-0.9-2-2-2H62.1c0.6-0.5,1.2-1.1,1.6-1.8l9.9-17.2c-2.2,0.2-4.3,0.3-6.2,0.3c-1,0-1.9-0.7-2.2-1.7
	c-0.1-0.2-0.1-0.4-0.1-0.5c0,0,0,0,0,0c8.9-0.2,27.1-2.7,29.3-9.4C95.4,64.3,95.1,60.5,88.6,58z M51.4,66.4
	c-2.9,0.8-5.9-0.9-6.7-3.9c-0.8-2.9,1-5.9,3.9-6.7c2.9-0.8,5.9,1,6.7,3.9C56.1,62.6,54.3,65.6,51.4,66.4z M36.5,99.4
	c0,1.1-0.9,2-2,2H23.7c-1.1,0-2-0.9-2-2s0.9-2,2-2h10.7C35.6,97.3,36.5,98.2,36.5,99.4z"/>
</svg>
