<?xml version="1.0" encoding="utf-8"?>
<!-- Generator: Adobe Illustrator 21.0.0, SVG Export Plug-In . SVG Version: 6.00 Build 0)  -->
<svg version="1.1" id="katman_1" xmlns="http://www.w3.org/2000/svg" xmlns:xlink="http://www.w3.org/1999/xlink" x="0px" y="0px"
	 viewBox="0 0 500 500" style="enable-background:new 0 0 500 500;" xml:space="preserve">
<g>
	<g>
		<path d="M275,67.2c0.2-1,1.2-1.6,2.2-1.4c1,0.2,1.6,1.2,1.4,2.2l-10,43.6c-0.2,1-1.2,1.6-2.2,1.4c-1-0.2-1.6-1.2-1.4-2.2L275,67.2
			z M191.7,418.6c-0.4,1-1.5,1.4-2.4,1c-1-0.4-1.4-1.5-1-2.4l16.8-42.1c0.4-1,1.5-1.4,2.4-1c1,0.4,1.4,1.5,1,2.4L191.7,418.6z
			 M225.1,460c-0.2,1-1.2,1.6-2.2,1.4s-1.6-1.2-1.4-2.2l10-43.6c0.2-1,1.2-1.6,2.2-1.4c1,0.2,1.6,1.2,1.4,2.2L225.1,460z
			 M127.4,422.8c-0.7,0.7-1.9,0.7-2.6,0c-0.7-0.7-0.7-1.9,0-2.6l33.5-33.7c0.7-0.7,1.9-0.7,2.6,0c0.7,0.7,0.7,1.9,0,2.6L127.4,422.8
			z M166.2,411.3l5.4,2.7l-2.7,5.4l-5.4-2.7L166.2,411.3z M187.5,368.4l5.4,2.7l-2.7,5.4l-5.4-2.7L187.5,368.4z M182.2,379.1
			l5.4,2.7l-2.7,5.4l-5.4-2.7L182.2,379.1z M176.9,389.8l5.4,2.7l-2.7,5.4l-5.4-2.7L176.9,389.8z M171.5,400.6l5.4,2.7l-2.7,5.4
			l-5.4-2.7L171.5,400.6z M204.9,430.3l5.8,1.5l-1.5,5.8l-5.8-1.5L204.9,430.3z M223.5,361l5.8,1.5l-1.5,5.8l-5.8-1.5L223.5,361z
			 M220.4,372.5l5.8,1.5l-1.5,5.8l-5.8-1.5L220.4,372.5z M217.3,384.1l5.8,1.5l-1.5,5.8l-5.8-1.5L217.3,384.1z M214.2,395.6l5.8,1.5
			l-1.5,5.8l-5.8-1.5L214.2,395.6z M211.1,407.2l5.8,1.5l-1.5,5.8l-5.8-1.5L211.1,407.2z M208,418.7l5.8,1.5l-1.5,5.8l-5.8-1.5
			L208,418.7z M311.8,417.2c0.4,1-0.1,2-1,2.4c-1,0.4-2-0.1-2.4-1l-16.8-42.1c-0.4-1,0.1-2,1-2.4s2,0.1,2.4,1L311.8,417.2z
			 M278.6,459.2c0.2,1-0.4,2-1.4,2.2c-1,0.2-2-0.4-2.2-1.4l-10-43.6c-0.2-1,0.4-2,1.4-2.2c1-0.2,2,0.4,2.2,1.4L278.6,459.2z
			 M371.7,413.4c0.8,0.7,0.8,1.9,0.1,2.6c-0.7,0.8-1.9,0.8-2.6,0.1l-30-27.1c-0.8-0.7-0.8-1.9-0.1-2.6c0.7-0.8,1.9-0.8,2.6-0.1
			L371.7,413.4z M328.5,413.9l5.4-2.7l2.7,5.4l-5.4,2.7L328.5,413.9z M307.2,371.1l5.4-2.7l2.7,5.4l-5.4,2.7L307.2,371.1z
			 M312.5,381.8l5.4-2.7l2.7,5.4l-5.4,2.7L312.5,381.8z M317.8,392.5l5.4-2.7l2.7,5.4l-5.4,2.7L317.8,392.5z M323.1,403.2l5.4-2.7
			l2.7,5.4l-5.4,2.7L323.1,403.2z M289.3,431.8l5.8-1.5l1.5,5.8l-5.8,1.5L289.3,431.8z M270.8,362.5l5.8-1.5l1.5,5.8l-5.8,1.5
			L270.8,362.5z M273.9,374.1l5.8-1.5l1.5,5.8l-5.8,1.5L273.9,374.1z M277,385.6l5.8-1.5l1.5,5.8l-5.8,1.5L277,385.6z M280.1,397.2
			l5.8-1.5l1.5,5.8l-5.8,1.5L280.1,397.2z M283.2,408.7l5.8-1.5l1.5,5.8l-5.8,1.5L283.2,408.7z M286.3,420.3l5.8-1.5l1.5,5.8
			l-5.8,1.5L286.3,420.3z M188.2,110c-0.4-1,0.1-2,1-2.4c1-0.4,2,0.1,2.4,1l16.8,42.1c0.4,1-0.1,2-1,2.4c-1,0.4-2-0.1-2.4-1
			L188.2,110z M108.1,313.7c-1,0.4-2-0.1-2.4-1.1s0.1-2,1.1-2.4l39.6-15.2c1-0.4,2,0.1,2.4,1.1s-0.1,2-1.1,2.4L108.1,313.7z
			 M106.4,195.5c-0.9-0.5-1.3-1.6-0.8-2.5c0.5-0.9,1.6-1.3,2.5-0.8l27.3,13.7c0.9,0.5,1.3,1.6,0.8,2.5c-0.5,0.9-1.6,1.3-2.5,0.8
			L106.4,195.5z M58.2,277.5c-1,0.1-2-0.6-2.1-1.6c-0.1-1,0.6-2,1.6-2.1l39.8-5c1-0.1,2,0.6,2.1,1.6c0.1,1-0.6,2-1.6,2.1L58.2,277.5
			z M112.5,270.6c-1,0.1-2-0.6-2.1-1.6c-0.1-1,0.6-2,1.6-2.1l18.4-2.3c1-0.1,2,0.6,2.1,1.6c0.1,1-0.6,2-1.6,2.1L112.5,270.6z
			 M101,369.1c-0.8,0.6-2,0.4-2.6-0.4c-0.6-0.8-0.4-2,0.4-2.6l35.1-25c0.8-0.6,2-0.4,2.6,0.4s0.4,2-0.4,2.6L101,369.1z M151.5,332.3
			c-0.8,0.6-2,0.5-2.6-0.3c-0.6-0.8-0.5-2,0.3-2.6l17.7-13.6c0.8-0.6,2-0.5,2.6,0.3c0.6,0.8,0.5,2-0.3,2.6L151.5,332.3z M59.8,232.3
			c-1-0.1-1.8-1.1-1.6-2.1c0.1-1,1.1-1.8,2.1-1.6l39.8,5c1,0.1,1.8,1.1,1.6,2.1c-0.1,1-1.1,1.8-2.1,1.6L59.8,232.3z M114.1,239.3
			c-1-0.1-1.8-1.1-1.6-2.1c0.1-1,1.1-1.8,2.1-1.6l18.4,2.3c1,0.1,1.8,1.1,1.6,2.1c-0.1,1-1.1,1.8-2.1,1.6L114.1,239.3z M98.2,135.9
			c-0.8-0.6-1-1.8-0.3-2.6c0.6-0.8,1.8-1,2.6-0.3l37.8,29.1c0.8,0.6,1,1.8,0.3,2.6c-0.6,0.8-1.8,1-2.6,0.3L98.2,135.9z M151.3,176.8
			c-0.8-0.6-1-1.8-0.3-2.6c0.6-0.8,1.8-1,2.6-0.3l17.7,13.6c0.8,0.6,1,1.8,0.3,2.6c-0.6,0.8-1.8,1-2.6,0.3L151.3,176.8z M221.4,68
			c-0.2-1,0.4-2,1.4-2.2c1-0.2,2,0.4,2.2,1.4l10,43.6c0.2,1-0.4,2-1.4,2.2c-1,0.2-2-0.4-2.2-1.4L221.4,68z M235,130.6
			c-0.2-1,0.5-2,1.5-2.2c1-0.2,2,0.5,2.2,1.5l3,15.7l5.4-11.6l0-105.5c0-1.6,1.3-3,3-3h0h0c1.6,0,3,1.3,3,3l0,105.4l5.4,11.6
			l2.9-15.7c0.2-1,1.2-1.7,2.2-1.5c1,0.2,1.7,1.2,1.5,2.2l-3.9,20.8l27.4,58.3L405.8,93.8c1.2-1.2,3.1-1.1,4.2,0
			c1.2,1.2,1.1,3.1,0,4.2L294.7,212l79.9,10c1.6,0.2,2.8,1.7,2.6,3.3c-0.1,0.8-0.5,1.5-1.1,1.9l-23.8,22.3l117.4,0.3
			c1.6,0,3,1.3,3,3c0,1.6-1.3,3-3,3l-123.7-0.3L313.6,286l8.2,42.7l0,0l86,80c1.2,1.1,1.3,3,0.2,4.2c-1.1,1.2-3,1.3-4.2,0.2
			l-80-74.4l6.1,31.8c0.3,1.6-0.8,3.2-2.4,3.5c-0.7,0.1-1.4,0-2-0.3l-71.9-39.6l-0.2,137.3c0,1.6-1.3,3-3,3c-1.6,0-3-1.3-3-3
			l0.2-137.8l-72.8,40.1c-1.4,0.8-3.3,0.3-4-1.2c-0.3-0.6-0.4-1.3-0.3-2l6.1-31.9l-80,74.4c-1.2,1.1-3.1,1.1-4.2-0.2
			c-1.1-1.2-1.1-3.1,0.2-4.2l86-80l0,0l8.2-42.7l-32.5-30.5l-123.8,0.3c-1.6,0-3-1.3-3-3c0-1.6,1.3-3,3-3l117.4-0.3l-23.9-22.4
			c-1.2-1.1-1.3-3-0.1-4.2c0.5-0.5,1.1-0.8,1.8-0.9v0l79.9-10L90,98.1c-1.2-1.2-1.2-3,0-4.2c1.2-1.2,3-1.2,4.2,0l117.3,115.9
			l27.4-58.3L235,130.6L235,130.6z M128.7,103.1c-0.6-0.8-0.5-2,0.3-2.6c0.8-0.6,2-0.5,2.6,0.3l29.4,37.5c0.6,0.8,0.5,2-0.3,2.6
			c-0.8,0.6-2,0.5-2.6-0.3L128.7,103.1z M168.7,156.4c-0.6-0.8-0.5-2,0.3-2.6c0.8-0.6,2-0.5,2.6,0.3l13.8,17.6
			c0.6,0.8,0.5,2-0.3,2.6c-0.8,0.6-2,0.5-2.6-0.3L168.7,156.4z M111.7,326.1l3,5.2l-5.2,3l-3-5.2L111.7,326.1z M142.7,308.1l3,5.2
			l-5.2,3l-3-5.2L142.7,308.1z M132.4,314.1l3,5.2l-5.2,3l-3-5.2L132.4,314.1z M122,320.1l3,5.2l-5.2,3l-3-5.2L122,320.1z
			 M93.7,291.6l1.5,5.8l-5.8,1.5l-1.5-5.8L93.7,291.6z M163.1,273l1.5,5.8l-5.8,1.5l-1.5-5.8L163.1,273z M151.5,276.1l1.5,5.8
			l-5.8,1.5l-1.5-5.8L151.5,276.1z M140,279.2l1.5,5.8l-5.8,1.5l-1.5-5.8L140,279.2z M128.4,282.3l1.5,5.8l-5.8,1.5l-1.5-5.8
			L128.4,282.3z M116.9,285.4l1.5,5.8l-5.8,1.5l-1.5-5.8L116.9,285.4z M105.3,288.5l1.5,5.8l-5.8,1.5l-1.5-5.8L105.3,288.5z
			 M94.9,208.6l-2.4,5.5l-5.5-2.4l2.4-5.5L94.9,208.6z M116.7,218.3l-2.4,5.5l-5.5-2.4l2.4-5.5L116.7,218.3z M105.8,213.5l-2.4,5.5
			l-5.5-2.4l2.4-5.5L105.8,213.5z M110.8,169.1l-2.9,5.2l-5.2-2.9l2.9-5.2L110.8,169.1z M181.7,208.2l-2.8-1.6l-2.9,5.2l2.8,1.6
			L181.7,208.2z M173.7,203.8l-2.9,5.2l-5.2-2.9l2.9-5.2L173.7,203.8z M163.2,198l-2.9,5.2l-5.2-2.9l2.9-5.2L163.2,198z
			 M152.7,192.2l-2.9,5.2l-5.2-2.9l2.9-5.2L152.7,192.2z M142.2,186.4l-2.9,5.2l-5.2-2.9l2.9-5.2L142.2,186.4z M131.8,180.6
			l-2.9,5.2l-5.2-2.9l2.9-5.2L131.8,180.6z M121.3,174.9l-2.9,5.2l-5.2-2.9l2.9-5.2L121.3,174.9z M171.6,113.3l-5.4,2.7l-2.7-5.4
			l5.4-2.7L171.6,113.3z M208.9,188.3l-5.4,2.7l-2.7-5.4l5.4-2.7L208.9,188.3z M203.5,177.5l-5.4,2.7l-2.7-5.4l5.4-2.7L203.5,177.5z
			 M198.2,166.8l-5.4,2.7l-2.7-5.4l5.4-2.7L198.2,166.8z M192.9,156.1l-5.4,2.7l-2.7-5.4l5.4-2.7L192.9,156.1z M187.6,145.4
			l-5.4,2.7l-2.7-5.4l5.4-2.7L187.6,145.4z M182.2,134.7l-5.4,2.7l-2.7-5.4l5.4-2.7L182.2,134.7z M176.9,124l-5.4,2.7l-2.7-5.4
			l5.4-2.7L176.9,124z M210.7,95.4l-5.8,1.5l-1.5-5.8l5.8-1.5L210.7,95.4z M229.3,164.7l-5.8,1.5l-1.5-5.8l5.8-1.5L229.3,164.7z
			 M226.2,153.1l-5.8,1.5l-1.5-5.8l5.8-1.5L226.2,153.1z M223.1,141.6l-5.8,1.5l-1.5-5.8l5.8-1.5L223.1,141.6z M220,130l-5.8,1.5
			l-1.5-5.8l5.8-1.5L220,130z M216.9,118.5l-5.8,1.5l-1.5-5.8l5.8-1.5L216.9,118.5z M213.8,106.9l-5.8,1.5l-1.5-5.8l5.8-1.5
			L213.8,106.9z M308.3,108.6c0.4-1,1.5-1.4,2.4-1c1,0.4,1.4,1.5,1,2.4L295,152c-0.4,1-1.5,1.4-2.4,1c-1-0.4-1.4-1.5-1-2.4
			L308.3,108.6z M393.3,310.2c1,0.4,1.5,1.4,1.1,2.4c-0.4,1-1.4,1.5-2.4,1.1l-39.6-15.2c-1-0.4-1.5-1.4-1.1-2.4s1.4-1.5,2.4-1.1
			L393.3,310.2z M392,192.1c0.9-0.5,2-0.1,2.5,0.8c0.5,0.9,0.1,2-0.8,2.5l-27.3,13.7c-0.9,0.5-2,0.1-2.5-0.8c-0.5-0.9-0.1-2,0.8-2.5
			L392,192.1z M442.3,273.8c1,0.1,1.8,1.1,1.6,2.1c-0.1,1-1.1,1.8-2.1,1.6l-39.8-5c-1-0.1-1.8-1.1-1.6-2.1c0.1-1,1.1-1.8,2.1-1.6
			L442.3,273.8z M388,266.9c1,0.1,1.8,1.1,1.6,2.1c-0.1,1-1.1,1.8-2.1,1.6l-18.4-2.3c-1-0.1-1.8-1.1-1.6-2.1c0.1-1,1.1-1.8,2.1-1.6
			L388,266.9z M401.2,366.1c0.8,0.6,1,1.8,0.4,2.6c-0.6,0.8-1.8,1-2.6,0.4l-35.1-25c-0.8-0.6-1-1.8-0.4-2.6s1.8-1,2.6-0.4
			L401.2,366.1z M350.8,329.3c0.8,0.6,1,1.8,0.3,2.6c-0.6,0.8-1.8,1-2.6,0.3l-17.7-13.6c-0.8-0.6-1-1.8-0.3-2.6
			c0.6-0.8,1.8-1,2.6-0.3L350.8,329.3z M439.8,228.6c1-0.1,2,0.6,2.1,1.6c0.1,1-0.6,2-1.6,2.1l-39.8,5c-1,0.1-2-0.6-2.1-1.6
			c-0.1-1,0.6-2,1.6-2.1L439.8,228.6z M385.5,235.5c1-0.1,2,0.6,2.1,1.6c0.1,1-0.6,2-1.6,2.1l-18.4,2.3c-1,0.1-2-0.6-2.1-1.6
			c-0.1-1,0.6-2,1.6-2.1L385.5,235.5z M399.6,133c0.8-0.6,2-0.5,2.6,0.3c0.6,0.8,0.5,2-0.3,2.6L364.1,165c-0.8,0.6-2,0.5-2.6-0.3
			c-0.6-0.8-0.5-2,0.3-2.6L399.6,133z M346.5,173.9c0.8-0.6,2-0.5,2.6,0.3c0.6,0.8,0.5,2-0.3,2.6l-17.7,13.6c-0.8,0.6-2,0.5-2.6-0.3
			c-0.6-0.8-0.5-2,0.3-2.6L346.5,173.9z M368.4,100.8c0.6-0.8,1.8-1,2.6-0.3c0.8,0.6,1,1.8,0.3,2.6l-29.4,37.5
			c-0.6,0.8-1.8,1-2.6,0.3c-0.8-0.6-1-1.8-0.3-2.6L368.4,100.8z M328.4,154.1c0.6-0.8,1.8-1,2.6-0.3c0.8,0.6,1,1.8,0.3,2.6
			L317.6,174c-0.6,0.8-1.8,1-2.6,0.3c-0.8-0.6-1-1.8-0.3-2.6L328.4,154.1z M385.3,331.2l3-5.2l5.2,3l-3,5.2L385.3,331.2z
			 M354.3,313.2l3-5.2l5.2,3l-3,5.2L354.3,313.2z M364.6,319.2l3-5.2l5.2,3l-3,5.2L364.6,319.2z M375,325.2l3-5.2l5.2,3l-3,5.2
			L375,325.2z M404.7,297.4l1.5-5.8l5.8,1.5l-1.5,5.8L404.7,297.4z M335.4,278.8l1.5-5.8l5.8,1.5l-1.5,5.8L335.4,278.8z M347,281.9
			l1.5-5.8l5.8,1.5l-1.5,5.8L347,281.9z M358.5,285l1.5-5.8l5.8,1.5l-1.5,5.8L358.5,285z M370.1,288.1l1.5-5.8l5.8,1.5l-1.5,5.8
			L370.1,288.1z M381.6,291.2l1.5-5.8l5.8,1.5l-1.5,5.8L381.6,291.2z M393.2,294.3l1.5-5.8l5.8,1.5l-1.5,5.8L393.2,294.3z
			 M407.6,214.1l-2.4-5.5l5.5-2.4l2.4,5.5L407.6,214.1z M385.7,223.8l-2.4-5.5l5.5-2.4l2.4,5.5L385.7,223.8z M396.7,218.9l-2.4-5.5
			l5.5-2.4l2.4,5.5L396.7,218.9z M392.1,174.3l-2.9-5.2l5.2-2.9l2.9,5.2L392.1,174.3z M321.2,213.5l2.8-1.6l-2.9-5.2l-2.8,1.6
			L321.2,213.5z M329.3,209l-2.9-5.2l5.2-2.9l2.9,5.2L329.3,209z M339.7,203.2l-2.9-5.2l5.2-2.9l2.9,5.2L339.7,203.2z M350.2,197.4
			l-2.9-5.2l5.2-2.9l2.9,5.2L350.2,197.4z M360.7,191.7l-2.9-5.2l5.2-2.9l2.9,5.2L360.7,191.7z M371.1,185.9l-2.9-5.2l5.2-2.9
			l2.9,5.2L371.1,185.9z M381.6,180.1l-2.9-5.2l5.2-2.9l2.9,5.2L381.6,180.1z M333.8,115.9l-5.4-2.7l2.7-5.4l5.4,2.7L333.8,115.9z
			 M296.5,190.9l-5.4-2.7l2.7-5.4l5.4,2.7L296.5,190.9z M301.8,180.2l-5.4-2.7l2.7-5.4l5.4,2.7L301.8,180.2z M307.2,169.5l-5.4-2.7
			l2.7-5.4l5.4,2.7L307.2,169.5z M312.5,158.8l-5.4-2.7l2.7-5.4l5.4,2.7L312.5,158.8z M317.8,148.1l-5.4-2.7l2.7-5.4l5.4,2.7
			L317.8,148.1z M323.1,137.4l-5.4-2.7l2.7-5.4l5.4,2.7L323.1,137.4z M328.5,126.6l-5.4-2.7l2.7-5.4l5.4,2.7L328.5,126.6z
			 M295.1,96.9l-5.8-1.5l1.5-5.8l5.8,1.5L295.1,96.9z M276.5,166.2l-5.8-1.5l1.5-5.8l5.8,1.5L276.5,166.2z M279.6,154.7l-5.8-1.5
			l1.5-5.8l5.8,1.5L279.6,154.7z M282.7,143.1l-5.8-1.5l1.5-5.8l5.8,1.5L282.7,143.1z M285.8,131.6L280,130l1.5-5.8l5.8,1.5
			L285.8,131.6z M288.9,120l-5.8-1.5l1.5-5.8l5.8,1.5L288.9,120z M292,108.5l-5.8-1.5l1.5-5.8l5.8,1.5L292,108.5z M284.6,215.3
			L250,141.7l-34.5,73.4c-0.4,1-1.3,1.8-2.4,1.9l-80.7,10.1l59.2,55.5c0.8,0.7,1.2,1.7,1,2.8l-15.3,79.9l71.2-39.2
			c0.9-0.5,2-0.5,2.9,0l71.2,39.2l-15.3-79.9l0,0c-0.2-1,0.1-2,0.9-2.7l59.3-55.6L286.9,217v0C286,216.9,285,216.3,284.6,215.3
			L284.6,215.3z"/>
	</g>
</g>
</svg>
