<svg xmlns="http://www.w3.org/2000/svg" viewBox="0 0 500 500"><path d="M275 67.2c.2-1 1.2-1.6 2.2-1.4 1 .2 1.6 1.2 1.4 2.2l-10 43.6c-.2 1-1.2 1.6-2.2 1.4-1-.2-1.6-1.2-1.4-2.2l10-43.6zm-83.3 351.4c-.4 1-1.5 1.4-2.4 1-1-.4-1.4-1.5-1-2.4l16.8-42.1c.4-1 1.5-1.4 2.4-1 1 .4 1.4 1.5 1 2.4l-16.8 42.1zm33.4 41.4c-.2 1-1.2 1.6-2.2 1.4s-1.6-1.2-1.4-2.2l10-43.6c.2-1 1.2-1.6 2.2-1.4 1 .2 1.6 1.2 1.4 2.2l-10 43.6zm-97.7-37.2c-.7.7-1.9.7-2.6 0-.7-.7-.7-1.9 0-2.6l33.5-33.7c.7-.7 1.9-.7 2.6 0 .7.7.7 1.9 0 2.6l-33.5 33.7zm38.8-11.5l5.4 2.7-2.7 5.4-5.4-2.7 2.7-5.4zm21.3-42.9l5.4 2.7-2.7 5.4-5.4-2.7 2.7-5.4zm-5.3 10.7l5.4 2.7-2.7 5.4-5.4-2.7 2.7-5.4zm-5.3 10.7l5.4 2.7-2.7 5.4-5.4-2.7 2.7-5.4zm-5.4 10.8l5.4 2.7-2.7 5.4-5.4-2.7 2.7-5.4zm33.4 29.7l5.8 1.5-1.5 5.8-5.8-1.5 1.5-5.8zm18.6-69.3l5.8 1.5-1.5 5.8-5.8-1.5 1.5-5.8zm-3.1 11.5l5.8 1.5-1.5 5.8-5.8-1.5 1.5-5.8zm-3.1 11.6l5.8 1.5-1.5 5.8-5.8-1.5 1.5-5.8zm-3.1 11.5l5.8 1.5-1.5 5.8-5.8-1.5 1.5-5.8zm-3.1 11.6l5.8 1.5-1.5 5.8-5.8-1.5 1.5-5.8zm-3.1 11.5l5.8 1.5-1.5 5.8-5.8-1.5 1.5-5.8zm103.8-1.5c.4 1-.1 2-1 2.4-1 .4-2-.1-2.4-1l-16.8-42.1c-.4-1 .1-2 1-2.4s2 .1 2.4 1l16.8 42.1zm-33.2 42c.2 1-.4 2-1.4 2.2-1 .2-2-.4-2.2-1.4l-10-43.6c-.2-1 .4-2 1.4-2.2 1-.2 2 .4 2.2 1.4l10 43.6zm93.1-45.8c.8.7.8 1.9.1 2.6-.7.8-1.9.8-2.6.1l-30-27.1c-.8-.7-.8-1.9-.1-2.6.7-.8 1.9-.8 2.6-.1l30 27.1zm-43.2.5l5.4-2.7 2.7 5.4-5.4 2.7-2.7-5.4zm-21.3-42.8l5.4-2.7 2.7 5.4-5.4 2.7-2.7-5.4zm5.3 10.7l5.4-2.7 2.7 5.4-5.4 2.7-2.7-5.4zm5.3 10.7l5.4-2.7 2.7 5.4-5.4 2.7-2.7-5.4zm5.3 10.7l5.4-2.7 2.7 5.4-5.4 2.7-2.7-5.4zm-33.8 28.6l5.8-1.5 1.5 5.8-5.8 1.5-1.5-5.8zm-18.5-69.3l5.8-1.5 1.5 5.8-5.8 1.5-1.5-5.8zm3.1 11.6l5.8-1.5 1.5 5.8-5.8 1.5-1.5-5.8zm3.1 11.5l5.8-1.5 1.5 5.8-5.8 1.5-1.5-5.8zm3.1 11.6l5.8-1.5 1.5 5.8-5.8 1.5-1.5-5.8zm3.1 11.5l5.8-1.5 1.5 5.8-5.8 1.5-1.5-5.8zm3.1 11.6l5.8-1.5 1.5 5.8-5.8 1.5-1.5-5.8zM188.2 110c-.4-1 .1-2 1-2.4 1-.4 2 .1 2.4 1l16.8 42.1c.4 1-.1 2-1 2.4-1 .4-2-.1-2.4-1L188.2 110zm-80.1 203.7c-1 .4-2-.1-2.4-1.1s.1-2 1.1-2.4l39.6-15.2c1-.4 2 .1 2.4 1.1s-.1 2-1.1 2.4l-39.6 15.2zm-1.7-118.2c-.9-.5-1.3-1.6-.8-2.5.5-.9 1.6-1.3 2.5-.8l27.3 13.7c.9.5 1.3 1.6.8 2.5-.5.9-1.6 1.3-2.5.8l-27.3-13.7zm-48.2 82c-1 .1-2-.6-2.1-1.6-.1-1 .6-2 1.6-2.1l39.8-5c1-.1 2 .6 2.1 1.6.1 1-.6 2-1.6 2.1l-39.8 5zm54.3-6.9c-1 .1-2-.6-2.1-1.6-.1-1 .6-2 1.6-2.1l18.4-2.3c1-.1 2 .6 2.1 1.6.1 1-.6 2-1.6 2.1l-18.4 2.3zM101 369.1c-.8.6-2 .4-2.6-.4-.6-.8-.4-2 .4-2.6l35.1-25c.8-.6 2-.4 2.6.4s.4 2-.4 2.6l-35.1 25zm50.5-36.8c-.8.6-2 .5-2.6-.3-.6-.8-.5-2 .3-2.6l17.7-13.6c.8-.6 2-.5 2.6.3.6.8.5 2-.3 2.6l-17.7 13.6zm-91.7-100c-1-.1-1.8-1.1-1.6-2.1.1-1 1.1-1.8 2.1-1.6l39.8 5c1 .1 1.8 1.1 1.6 2.1-.1 1-1.1 1.8-2.1 1.6l-39.8-5zm54.3 7c-1-.1-1.8-1.1-1.6-2.1.1-1 1.1-1.8 2.1-1.6l18.4 2.3c1 .1 1.8 1.1 1.6 2.1-.1 1-1.1 1.8-2.1 1.6l-18.4-2.3zM98.2 135.9c-.8-.6-1-1.8-.3-2.6.6-.8 1.8-1 2.6-.3l37.8 29.1c.8.6 1 1.8.3 2.6-.6.8-1.8 1-2.6.3l-37.8-29.1zm53.1 40.9c-.8-.6-1-1.8-.3-2.6.6-.8 1.8-1 2.6-.3l17.7 13.6c.8.6 1 1.8.3 2.6-.6.8-1.8 1-2.6.3l-17.7-13.6zM221.4 68c-.2-1 .4-2 1.4-2.2 1-.2 2 .4 2.2 1.4l10 43.6c.2 1-.4 2-1.4 2.2-1 .2-2-.4-2.2-1.4l-10-43.6zm13.6 62.6c-.2-1 .5-2 1.5-2.2 1-.2 2 .5 2.2 1.5l3 15.7 5.4-11.6V28.5c0-1.6 1.3-3 3-3 1.6 0 3 1.3 3 3v105.4l5.4 11.6 2.9-15.7c.2-1 1.2-1.7 2.2-1.5 1 .2 1.7 1.2 1.5 2.2l-3.9 20.8 27.4 58.3L405.8 93.8c1.2-1.2 3.1-1.1 4.2 0 1.2 1.2 1.1 3.1 0 4.2L294.7 212l79.9 10c1.6.2 2.8 1.7 2.6 3.3-.1.8-.5 1.5-1.1 1.9l-23.8 22.3 117.4.3c1.6 0 3 1.3 3 3 0 1.6-1.3 3-3 3l-123.7-.3-32.4 30.5 8.2 42.7 86 80c1.2 1.1 1.3 3 .2 4.2-1.1 1.2-3 1.3-4.2.2l-80-74.4 6.1 31.8c.3 1.6-.8 3.2-2.4 3.5-.7.1-1.4 0-2-.3l-71.9-39.6-.2 137.3c0 1.6-1.3 3-3 3-1.6 0-3-1.3-3-3l.2-137.8-72.8 40.1c-1.4.8-3.3.3-4-1.2-.3-.6-.4-1.3-.3-2l6.1-31.9-80 74.4c-1.2 1.1-3.1 1.1-4.2-.2-1.1-1.2-1.1-3.1.2-4.2l86-80 8.2-42.7-32.5-30.5-123.8.3c-1.6 0-3-1.3-3-3 0-1.6 1.3-3 3-3l117.4-.3L124 227c-1.2-1.1-1.3-3-.1-4.2.5-.5 1.1-.8 1.8-.9l79.9-10L90 98.1c-1.2-1.2-1.2-3 0-4.2 1.2-1.2 3-1.2 4.2 0l117.3 115.9 27.4-58.3-3.9-20.9zm-106.3-27.5c-.6-.8-.5-2 .3-2.6.8-.6 2-.5 2.6.3l29.4 37.5c.6.8.5 2-.3 2.6-.8.6-2 .5-2.6-.3l-29.4-37.5zm40 53.3c-.6-.8-.5-2 .3-2.6.8-.6 2-.5 2.6.3l13.8 17.6c.6.8.5 2-.3 2.6-.8.6-2 .5-2.6-.3l-13.8-17.6zm-57 169.7l3 5.2-5.2 3-3-5.2 5.2-3zm31-18l3 5.2-5.2 3-3-5.2 5.2-3zm-10.3 6l3 5.2-5.2 3-3-5.2 5.2-3zm-10.4 6l3 5.2-5.2 3-3-5.2 5.2-3zm-28.3-28.5l1.5 5.8-5.8 1.5-1.5-5.8 5.8-1.5zm69.4-18.6l1.5 5.8-5.8 1.5-1.5-5.8 5.8-1.5zm-11.6 3.1l1.5 5.8-5.8 1.5-1.5-5.8 5.8-1.5zm-11.5 3.1l1.5 5.8-5.8 1.5-1.5-5.8 5.8-1.5zm-11.6 3.1l1.5 5.8-5.8 1.5-1.5-5.8 5.8-1.5zm-11.5 3.1l1.5 5.8-5.8 1.5-1.5-5.8 5.8-1.5zm-11.6 3.1l1.5 5.8-5.8 1.5-1.5-5.8 5.8-1.5zm-10.4-79.9l-2.4 5.5-5.5-2.4 2.4-5.5 5.5 2.4zm21.8 9.7l-2.4 5.5-5.5-2.4 2.4-5.5 5.5 2.4zm-10.9-4.8l-2.4 5.5-5.5-2.4 2.4-5.5 5.5 2.4zm5-44.4l-2.9 5.2-5.2-2.9 2.9-5.2 5.2 2.9zm70.9 39.1l-2.8-1.6-2.9 5.2 2.8 1.6 2.9-5.2zm-8-4.4l-2.9 5.2-5.2-2.9 2.9-5.2 5.2 2.9zm-10.5-5.8l-2.9 5.2-5.2-2.9 2.9-5.2 5.2 2.9zm-10.5-5.8l-2.9 5.2-5.2-2.9 2.9-5.2 5.2 2.9zm-10.5-5.8l-2.9 5.2-5.2-2.9 2.9-5.2 5.2 2.9zm-10.4-5.8l-2.9 5.2-5.2-2.9 2.9-5.2 5.2 2.9zm-10.5-5.7l-2.9 5.2-5.2-2.9 2.9-5.2 5.2 2.9zm50.3-61.6l-5.4 2.7-2.7-5.4 5.4-2.7 2.7 5.4zm37.3 75l-5.4 2.7-2.7-5.4 5.4-2.7 2.7 5.4zm-5.4-10.8l-5.4 2.7-2.7-5.4 5.4-2.7 2.7 5.4zm-5.3-10.7l-5.4 2.7-2.7-5.4 5.4-2.7 2.7 5.4zm-5.3-10.7l-5.4 2.7-2.7-5.4 5.4-2.7 2.7 5.4zm-5.3-10.7l-5.4 2.7-2.7-5.4 5.4-2.7 2.7 5.4zm-5.4-10.7l-5.4 2.7-2.7-5.4 5.4-2.7 2.7 5.4zm-5.3-10.7l-5.4 2.7-2.7-5.4 5.4-2.7 2.7 5.4zm33.8-28.6l-5.8 1.5-1.5-5.8 5.8-1.5 1.5 5.8zm18.6 69.3l-5.8 1.5-1.5-5.8 5.8-1.5 1.5 5.8zm-3.1-11.6l-5.8 1.5-1.5-5.8 5.8-1.5 1.5 5.8zm-3.1-11.5l-5.8 1.5-1.5-5.8 5.8-1.5 1.5 5.8zM220 130l-5.8 1.5-1.5-5.8 5.8-1.5 1.5 5.8zm-3.1-11.5l-5.8 1.5-1.5-5.8 5.8-1.5 1.5 5.8zm-3.1-11.6l-5.8 1.5-1.5-5.8 5.8-1.5 1.5 5.8zm94.5 1.7c.4-1 1.5-1.4 2.4-1 1 .4 1.4 1.5 1 2.4L295 152c-.4 1-1.5 1.4-2.4 1-1-.4-1.4-1.5-1-2.4l16.7-42zm85 201.6c1 .4 1.5 1.4 1.1 2.4-.4 1-1.4 1.5-2.4 1.1l-39.6-15.2c-1-.4-1.5-1.4-1.1-2.4s1.4-1.5 2.4-1.1l39.6 15.2zM392 192.1c.9-.5 2-.1 2.5.8s.1 2-.8 2.5l-27.3 13.7c-.9.5-2 .1-2.5-.8s-.1-2 .8-2.5l27.3-13.7zm50.3 81.7c1 .1 1.8 1.1 1.6 2.1-.1 1-1.1 1.8-2.1 1.6l-39.8-5c-1-.1-1.8-1.1-1.6-2.1.1-1 1.1-1.8 2.1-1.6l39.8 5zm-54.3-6.9c1 .1 1.8 1.1 1.6 2.1-.1 1-1.1 1.8-2.1 1.6l-18.4-2.3c-1-.1-1.8-1.1-1.6-2.1.1-1 1.1-1.8 2.1-1.6l18.4 2.3zm13.2 99.2c.8.6 1 1.8.4 2.6s-1.8 1-2.6.4l-35.1-25c-.8-.6-1-1.8-.4-2.6s1.8-1 2.6-.4l35.1 25zm-50.4-36.8c.8.6 1 1.8.3 2.6-.6.8-1.8 1-2.6.3l-17.7-13.6c-.8-.6-1-1.8-.3-2.6.6-.8 1.8-1 2.6-.3l17.7 13.6zm89-100.7c1-.1 2 .6 2.1 1.6.1 1-.6 2-1.6 2.1l-39.8 5c-1 .1-2-.6-2.1-1.6-.1-1 .6-2 1.6-2.1l39.8-5zm-54.3 6.9c1-.1 2 .6 2.1 1.6.1 1-.6 2-1.6 2.1l-18.4 2.3c-1 .1-2-.6-2.1-1.6-.1-1 .6-2 1.6-2.1l18.4-2.3zM399.6 133c.8-.6 2-.5 2.6.3.6.8.5 2-.3 2.6L364.1 165c-.8.6-2 .5-2.6-.3-.6-.8-.5-2 .3-2.6l37.8-29.1zm-53.1 40.9c.8-.6 2-.5 2.6.3.6.8.5 2-.3 2.6l-17.7 13.6c-.8.6-2 .5-2.6-.3-.6-.8-.5-2 .3-2.6l17.7-13.6zm21.9-73.1c.6-.8 1.8-1 2.6-.3.8.6 1 1.8.3 2.6l-29.4 37.5c-.6.8-1.8 1-2.6.3-.8-.6-1-1.8-.3-2.6l29.4-37.5zm-40 53.3c.6-.8 1.8-1 2.6-.3.8.6 1 1.8.3 2.6L317.6 174c-.6.8-1.8 1-2.6.3-.8-.6-1-1.8-.3-2.6l13.7-17.6zm56.9 177.1l3-5.2 5.2 3-3 5.2-5.2-3zm-31-18l3-5.2 5.2 3-3 5.2-5.2-3zm10.3 6l3-5.2 5.2 3-3 5.2-5.2-3zm10.4 6l3-5.2 5.2 3-3 5.2-5.2-3zm29.7-27.8l1.5-5.8 5.8 1.5-1.5 5.8-5.8-1.5zm-69.3-18.6l1.5-5.8 5.8 1.5-1.5 5.8-5.8-1.5zm11.6 3.1l1.5-5.8 5.8 1.5-1.5 5.8-5.8-1.5zm11.5 3.1l1.5-5.8 5.8 1.5-1.5 5.8-5.8-1.5zm11.6 3.1l1.5-5.8 5.8 1.5-1.5 5.8-5.8-1.5zm11.5 3.1l1.5-5.8 5.8 1.5-1.5 5.8-5.8-1.5zm11.6 3.1l1.5-5.8 5.8 1.5-1.5 5.8-5.8-1.5zm14.4-80.2l-2.4-5.5 5.5-2.4 2.4 5.5-5.5 2.4zm-21.9 9.7l-2.4-5.5 5.5-2.4 2.4 5.5-5.5 2.4zm11-4.9l-2.4-5.5 5.5-2.4 2.4 5.5-5.5 2.4zm-4.6-44.6l-2.9-5.2 5.2-2.9 2.9 5.2-5.2 2.9zm-70.9 39.2l2.8-1.6-2.9-5.2-2.8 1.6 2.9 5.2zm8.1-4.5l-2.9-5.2 5.2-2.9 2.9 5.2-5.2 2.9zm10.4-5.8l-2.9-5.2 5.2-2.9 2.9 5.2-5.2 2.9zm10.5-5.8l-2.9-5.2 5.2-2.9 2.9 5.2-5.2 2.9zm10.5-5.7l-2.9-5.2 5.2-2.9 2.9 5.2-5.2 2.9zm10.4-5.8l-2.9-5.2 5.2-2.9 2.9 5.2-5.2 2.9zm10.5-5.8l-2.9-5.2 5.2-2.9 2.9 5.2-5.2 2.9zm-47.8-64.2l-5.4-2.7 2.7-5.4 5.4 2.7-2.7 5.4zm-37.3 75l-5.4-2.7 2.7-5.4 5.4 2.7-2.7 5.4zm5.3-10.7l-5.4-2.7 2.7-5.4 5.4 2.7-2.7 5.4zm5.4-10.7l-5.4-2.7 2.7-5.4 5.4 2.7-2.7 5.4zm5.3-10.7l-5.4-2.7 2.7-5.4 5.4 2.7-2.7 5.4zm5.3-10.7l-5.4-2.7 2.7-5.4 5.4 2.7-2.7 5.4zm5.3-10.7l-5.4-2.7 2.7-5.4 5.4 2.7-2.7 5.4zm5.4-10.8l-5.4-2.7 2.7-5.4 5.4 2.7-2.7 5.4zm-33.4-29.7l-5.8-1.5 1.5-5.8 5.8 1.5-1.5 5.8zm-18.6 69.3l-5.8-1.5 1.5-5.8 5.8 1.5-1.5 5.8zm3.1-11.5l-5.8-1.5 1.5-5.8 5.8 1.5-1.5 5.8zm3.1-11.6l-5.8-1.5 1.5-5.8 5.8 1.5-1.5 5.8zm3.1-11.5L280 130l1.5-5.8 5.8 1.5-1.5 5.9zm3.1-11.6l-5.8-1.5 1.5-5.8 5.8 1.5-1.5 5.8zm3.1-11.5l-5.8-1.5 1.5-5.8 5.8 1.5-1.5 5.8zm-7.4 106.8L250 141.7l-34.5 73.4c-.4 1-1.3 1.8-2.4 1.9l-80.7 10.1 59.2 55.5c.8.7 1.2 1.7 1 2.8l-15.3 79.9 71.2-39.2c.9-.5 2-.5 2.9 0l71.2 39.2-15.3-79.9c-.2-1 .1-2 .9-2.7l59.3-55.6-80.6-10.1c-.9-.1-1.9-.7-2.3-1.7z"/></svg>