<?xml version="1.0" encoding="utf-8"?>
<!-- Generator: Adobe Illustrator 21.0.0, SVG Export Plug-In . SVG Version: 6.00 Build 0)  -->
<svg version="1.1" id="katman_1" xmlns="http://www.w3.org/2000/svg" xmlns:xlink="http://www.w3.org/1999/xlink" x="0px" y="0px"
	 viewBox="0 0 98 122.5" style="enable-background:new 0 0 98 122.5;" xml:space="preserve">
<g>
	<rect x="11.8" y="89.8" width="2" height="4.8"/>
	<path d="M82.5,77.9l1.6,1.1c0.6-0.8,1.1-1.7,1.7-2.5l-1.7-1C83.5,76.3,83,77.1,82.5,77.9z"/>
	<path d="M88.5,71.2l-1.8-0.8c-0.4,0.9-0.8,1.7-1.2,2.6l1.7,0.9C87.7,73,88.1,72.1,88.5,71.2z"/>
	<path d="M87.8,67.7l1.8,0.7c0.3-0.9,0.6-1.9,0.9-2.9L88.7,65C88.4,65.9,88.1,66.9,87.8,67.7z"/>
	<path d="M12.6,30.9c0.5-0.8,1.1-1.6,1.6-2.4l-1.6-1.2c-0.6,0.8-1.2,1.6-1.7,2.5L12.6,30.9z"/>
	<path d="M8.1,35.1l1.8,0.8c0.4-0.9,0.8-1.7,1.3-2.6l-1.7-0.9C8.9,33.3,8.5,34.2,8.1,35.1z"/>
	<path d="M14.5,25l1.5,1.3c0.6-0.7,1.3-1.4,1.9-2.1l-1.4-1.4C15.8,23.5,15.1,24.2,14.5,25z"/>
	<path d="M5.9,40.7l1.9,0.6c0.3-0.9,0.6-1.8,0.9-2.7l-1.8-0.7C6.6,38.8,6.2,39.8,5.9,40.7z"/>
	<path d="M22.2,20.3L21,18.7c-0.8,0.6-1.6,1.3-2.3,1.9l1.3,1.5C20.7,21.5,21.4,20.9,22.2,20.3z"/>
	<path d="M23.5,85.1H21c-2.2,0-3.9,1.8-3.9,3.9v7.5h-3.5c-2.7,0-4.9,2.2-4.9,4.9v7.9h79.1v-7.9c0-2.7-2.2-4.9-4.9-4.9h-3.5V89
		c0-2.2-1.8-3.9-3.9-3.9h-2.5c9.8-7.6,15.5-19.2,15.5-31.7c0-22.1-18-40.2-40.2-40.2S8,31.3,8,53.4C8,65.9,13.8,77.5,23.5,85.1z
		 M82.8,98.5c1.6,0,2.9,1.3,2.9,2.9v5.9H10.6v-5.9c0-1.6,1.3-2.9,2.9-2.9C45.6,98.5,51.1,98.5,82.8,98.5z M77.3,89v7.5H19V89
		c0-1.1,0.9-2,2-2h54.4C76.4,87.1,77.3,88,77.3,89z M48.2,15.2c21.1,0,38.2,17.1,38.2,38.2c0,12.8-6.3,24.6-16.9,31.7H26.9
		C16.3,78,10,66.2,10,53.4C10,32.3,27.1,15.2,48.2,15.2z"/>
	<rect x="28.9" y="101.9" width="19.2" height="2"/>
	<rect x="23" y="101.9" width="3.7" height="2"/>
	<rect x="64.1" y="90.8" width="3.9" height="2"/>
	<rect x="41.8" y="90.8" width="19.6" height="2"/>
	<path d="M42.8,37c-0.1,0.4,0,0.8,0.4,1.1l2.9,2.1l-1.1,3.4c-0.1,0.4,0,0.8,0.4,1.1c0.3,0.2,0.8,0.2,1.2,0l2.9-2.1l2.9,2.1
		c0.2,0.1,0.4,0.2,0.6,0.2s0.4-0.1,0.6-0.2c0.3-0.2,0.5-0.7,0.4-1.1l-1.1-3.4l2.9-2.1c0.3-0.2,0.5-0.7,0.4-1.1
		c-0.1-0.4-0.5-0.7-0.9-0.7h-3.6L50.3,33c-0.1-0.4-0.5-0.7-0.9-0.7s-0.8,0.3-0.9,0.7l-1.1,3.4h-3.6C43.3,36.4,42.9,36.6,42.8,37z
		 M48,38.3c0.4,0,0.8-0.3,0.9-0.7l0.4-1.2l0.4,1.2c0.1,0.4,0.5,0.7,0.9,0.7h1.3l-1,0.7c-0.3,0.2-0.5,0.7-0.4,1.1l0.4,1.2l-1-0.7
		c-0.2-0.1-0.4-0.2-0.6-0.2c-0.2,0-0.4,0.1-0.6,0.2l-1,0.7l0.4-1.2c0.1-0.4,0-0.8-0.4-1.1l-1-0.7H48z"/>
	<path d="M27,64.1l-1.1,3.4c-0.1,0.4,0,0.8,0.4,1.1c0.3,0.2,0.8,0.2,1.2,0l2.9-2.1l2.9,2.1c0.2,0.1,0.4,0.2,0.6,0.2
		c0.2,0,0.4-0.1,0.6-0.2c0.3-0.2,0.5-0.7,0.4-1.1l-1.1-3.4l2.9-2.1c0.3-0.2,0.5-0.7,0.4-1.1c-0.1-0.4-0.5-0.7-0.9-0.7h-3.6l-1.1-3.4
		c-0.1-0.4-0.5-0.7-0.9-0.7s-0.8,0.3-0.9,0.7l-1.1,3.4h-3.6c-0.4,0-0.8,0.3-0.9,0.7c-0.1,0.4,0,0.8,0.4,1.1L27,64.1z M29,62.2
		c0.4,0,0.8-0.3,0.9-0.7l0.4-1.2l0.4,1.2c0.1,0.4,0.5,0.7,0.9,0.7h1.3l-1,0.7c-0.3,0.2-0.5,0.7-0.4,1.1l0.4,1.2l-1-0.7
		c-0.3-0.2-0.8-0.2-1.2,0l-1,0.7l0.4-1.2c0.1-0.4,0-0.8-0.4-1.1l-1-0.7H29z"/>
	<path d="M52.7,54.4c-0.1,0.4,0,0.8,0.4,1.1l2.9,2.1l-1.1,3.4c-0.1,0.4,0,0.8,0.4,1.1c0.3,0.2,0.8,0.2,1.2,0l2.9-2.1l2.9,2.1
		c0.2,0.1,0.4,0.2,0.6,0.2c0.2,0,0.4-0.1,0.6-0.2c0.3-0.2,0.5-0.7,0.4-1.1l-1.1-3.4l2.9-2.1c0.3-0.2,0.5-0.7,0.4-1.1
		c-0.1-0.4-0.5-0.7-0.9-0.7h-3.6l-1.1-3.4c-0.1-0.4-0.5-0.7-0.9-0.7s-0.8,0.3-0.9,0.7l-1.1,3.4h-3.6C53.2,53.7,52.8,54,52.7,54.4z
		 M57.9,55.6c0.4,0,0.8-0.3,0.9-0.7l0.4-1.2l0.4,1.2c0.1,0.4,0.5,0.7,0.9,0.7h1.3l-1,0.7c-0.3,0.2-0.5,0.7-0.4,1.1l0.4,1.2l-1-0.7
		c-0.2-0.1-0.4-0.2-0.6-0.2c-0.2,0-0.4,0.1-0.6,0.2l-1,0.7l0.4-1.2c0.1-0.4,0-0.8-0.4-1.1l-1-0.7H57.9z"/>
	<path d="M30.3,50c2.2,0,3.9-1.8,3.9-3.9s-1.8-3.9-3.9-3.9s-3.9,1.8-3.9,3.9C26.4,48.2,28.1,50,30.3,50z M30.3,44.1c1.1,0,2,0.9,2,2
		s-0.9,2-2,2s-2-0.9-2-2C28.4,45,29.2,44.1,30.3,44.1z"/>
	<path d="M46.2,68c-1.9,0-3.4,1.5-3.4,3.4s1.5,3.4,3.4,3.4s3.4-1.5,3.4-3.4S48.1,68,46.2,68z M46.2,72.9c-0.8,0-1.5-0.7-1.5-1.5
		c0-0.8,0.7-1.5,1.5-1.5s1.5,0.7,1.5,1.5C47.7,72.3,47,72.9,46.2,72.9z"/>
	<path d="M70.9,47.9c2.2,0,3.9-1.8,3.9-3.9S73.1,40,70.9,40S67,41.8,67,43.9S68.7,47.9,70.9,47.9z M70.9,42c1.1,0,2,0.9,2,2
		s-0.9,2-2,2s-2-0.9-2-2C68.9,42.9,69.8,42,70.9,42z"/>
	<path d="M40.4,31.7c1.9,0,3.4-1.5,3.4-3.4s-1.5-3.4-3.4-3.4S37,26.4,37,28.3S38.5,31.7,40.4,31.7z M40.4,26.8
		c0.8,0,1.5,0.7,1.5,1.5s-0.7,1.5-1.5,1.5s-1.5-0.7-1.5-1.5C38.9,27.5,39.6,26.8,40.4,26.8z"/>
	<path d="M69.5,66.5c0,1.9,1.5,3.4,3.4,3.4s3.4-1.5,3.4-3.4c0-1.9-1.5-3.4-3.4-3.4C71,63.1,69.5,64.6,69.5,66.5z M74.4,66.5
		c0,0.8-0.7,1.5-1.5,1.5c-0.8,0-1.5-0.7-1.5-1.5c0-0.8,0.7-1.5,1.5-1.5S74.4,65.7,74.4,66.5z"/>
	<rect x="90.1" y="101.8" width="2" height="6.4"/>
</g>
</svg>
