<svg xmlns="http://www.w3.org/2000/svg" viewBox="0 0 98 122.5"><path d="M11.8 89.8h2v4.8h-2zm70.7-11.9l1.6 1.1c.6-.8 1.1-1.7 1.7-2.5l-1.7-1c-.6.8-1.1 1.6-1.6 2.4zm6-6.7l-1.8-.8c-.4.9-.8 1.7-1.2 2.6l1.7.9c.5-.9.9-1.8 1.3-2.7zm-.7-3.5l1.8.7c.3-.9.6-1.9.9-2.9l-1.8-.5c-.3.9-.6 1.9-.9 2.7zM12.6 30.9c.5-.8 1.1-1.6 1.6-2.4l-1.6-1.2c-.6.8-1.2 1.6-1.7 2.5l1.7 1.1zm-4.5 4.2l1.8.8c.4-.9.8-1.7 1.3-2.6l-1.7-.9c-.6.9-1 1.8-1.4 2.7zM14.5 25l1.5 1.3c.6-.7 1.3-1.4 1.9-2.1l-1.4-1.4c-.7.7-1.4 1.4-2 2.2zM5.9 40.7l1.9.6.9-2.7-1.8-.7c-.3.9-.7 1.9-1 2.8zm16.3-20.4L21 18.7c-.8.6-1.6 1.3-2.3 1.9l1.3 1.5c.7-.6 1.4-1.2 2.2-1.8z"/><path d="M23.5 85.1H21c-2.2 0-3.9 1.8-3.9 3.9v7.5h-3.5c-2.7 0-4.9 2.2-4.9 4.9v7.9h79.1v-7.9c0-2.7-2.2-4.9-4.9-4.9h-3.5V89c0-2.2-1.8-3.9-3.9-3.9H73c9.8-7.6 15.5-19.2 15.5-31.7 0-22.1-18-40.2-40.2-40.2S8 31.3 8 53.4c0 12.5 5.8 24.1 15.5 31.7zm59.3 13.4c1.6 0 2.9 1.3 2.9 2.9v5.9H10.6v-5.9c0-1.6 1.3-2.9 2.9-2.9h69.3zM77.3 89v7.5H19V89c0-1.1.9-2 2-2h54.4c1 .1 1.9 1 1.9 2zM48.2 15.2c21.1 0 38.2 17.1 38.2 38.2 0 12.8-6.3 24.6-16.9 31.7H26.9C16.3 78 10 66.2 10 53.4c0-21.1 17.1-38.2 38.2-38.2z"/><path d="M28.9 101.9h19.2v2H28.9zm-5.9 0h3.7v2H23zm41.1-11.1H68v2h-3.9zm-22.3 0h19.6v2H41.8zm1-53.8c-.1.4 0 .8.4 1.1l2.9 2.1-1.1 3.4c-.1.4 0 .8.4 1.1.3.2.8.2 1.2 0l2.9-2.1 2.9 2.1c.2.1.4.2.6.2s.4-.1.6-.2c.3-.2.5-.7.4-1.1l-1.1-3.4 2.9-2.1c.3-.2.5-.7.4-1.1-.1-.4-.5-.7-.9-.7h-3.6L50.3 33c-.1-.4-.5-.7-.9-.7s-.8.3-.9.7l-1.1 3.4h-3.6c-.5 0-.9.2-1 .6zm5.2 1.3c.4 0 .8-.3.9-.7l.4-1.2.4 1.2c.1.4.5.7.9.7h1.3l-1 .7c-.3.2-.5.7-.4 1.1l.4 1.2-1-.7c-.2-.1-.4-.2-.6-.2-.2 0-.4.1-.6.2l-1 .7.4-1.2c.1-.4 0-.8-.4-1.1l-1-.7H48zM27 64.1l-1.1 3.4c-.1.4 0 .8.4 1.1.3.2.8.2 1.2 0l2.9-2.1 2.9 2.1c.2.1.4.2.6.2.2 0 .4-.1.6-.2.3-.2.5-.7.4-1.1l-1.1-3.4 2.9-2.1c.3-.2.5-.7.4-1.1-.1-.4-.5-.7-.9-.7h-3.6l-1.1-3.4c-.1-.4-.5-.7-.9-.7s-.8.3-.9.7l-1.1 3.4H25c-.4 0-.8.3-.9.7-.1.4 0 .8.4 1.1l2.5 2.1zm2-1.9c.4 0 .8-.3.9-.7l.4-1.2.4 1.2c.1.4.5.7.9.7h1.3l-1 .7c-.3.2-.5.7-.4 1.1l.4 1.2-1-.7c-.3-.2-.8-.2-1.2 0l-1 .7.4-1.2c.1-.4 0-.8-.4-1.1l-1-.7H29zm23.7-7.8c-.1.4 0 .8.4 1.1l2.9 2.1-1.1 3.4c-.1.4 0 .8.4 1.1.3.2.8.2 1.2 0l2.9-2.1 2.9 2.1c.2.1.4.2.6.2.2 0 .4-.1.6-.2.3-.2.5-.7.4-1.1l-1.1-3.4 2.9-2.1c.3-.2.5-.7.4-1.1-.1-.4-.5-.7-.9-.7h-3.6l-1.1-3.4c-.1-.4-.5-.7-.9-.7s-.8.3-.9.7l-1.1 3.4H54c-.8 0-1.2.3-1.3.7zm5.2 1.2c.4 0 .8-.3.9-.7l.4-1.2.4 1.2c.1.4.5.7.9.7h1.3l-1 .7c-.3.2-.5.7-.4 1.1l.4 1.2-1-.7c-.2-.1-.4-.2-.6-.2-.2 0-.4.1-.6.2l-1 .7.4-1.2c.1-.4 0-.8-.4-1.1l-1-.7h1.3zM30.3 50c2.2 0 3.9-1.8 3.9-3.9s-1.8-3.9-3.9-3.9-3.9 1.8-3.9 3.9c0 2.1 1.7 3.9 3.9 3.9zm0-5.9c1.1 0 2 .9 2 2s-.9 2-2 2-2-.9-2-2c.1-1.1.9-2 2-2zM46.2 68c-1.9 0-3.4 1.5-3.4 3.4s1.5 3.4 3.4 3.4 3.4-1.5 3.4-3.4-1.5-3.4-3.4-3.4zm0 4.9c-.8 0-1.5-.7-1.5-1.5s.7-1.5 1.5-1.5 1.5.7 1.5 1.5c0 .9-.7 1.5-1.5 1.5zm24.7-25c2.2 0 3.9-1.8 3.9-3.9s-1.7-4-3.9-4-3.9 1.8-3.9 3.9 1.7 4 3.9 4zm0-5.9c1.1 0 2 .9 2 2s-.9 2-2 2-2-.9-2-2 .9-2 2-2zM40.4 31.7c1.9 0 3.4-1.5 3.4-3.4s-1.5-3.4-3.4-3.4-3.4 1.5-3.4 3.4 1.5 3.4 3.4 3.4zm0-4.9c.8 0 1.5.7 1.5 1.5s-.7 1.5-1.5 1.5-1.5-.7-1.5-1.5.7-1.5 1.5-1.5zm29.1 39.7c0 1.9 1.5 3.4 3.4 3.4s3.4-1.5 3.4-3.4-1.5-3.4-3.4-3.4-3.4 1.5-3.4 3.4zm4.9 0c0 .8-.7 1.5-1.5 1.5s-1.5-.7-1.5-1.5.7-1.5 1.5-1.5 1.5.7 1.5 1.5zm15.7 35.3h2v6.4h-2z"/></svg>