<svg xmlns="http://www.w3.org/2000/svg" viewBox="0 0 512.001 512.001"><path d="M491.876 53.092c-7.091-9.626-17.507-15.915-29.327-17.707a7.903 7.903 0 00-9.004 6.633 7.907 7.907 0 006.632 9.003c7.645 1.159 14.38 5.226 18.966 11.451 4.585 6.225 6.472 13.863 5.313 21.507l-58.562 386.087c-1.159 7.645-5.226 14.38-11.451 18.965-6.225 4.587-13.867 6.476-21.507 5.313l-63.084-9.568a44.495 44.495 0 003.582-17.536v-81.995c28.735-9.47 54.48-27.737 72.977-51.9 20.355-26.587 31.113-58.382 31.113-91.949s-10.758-65.362-31.113-91.949c-18.498-24.164-44.242-42.43-72.977-51.9v-20.81c0-24.681-20.08-44.761-44.761-44.761h-88.7a28.807 28.807 0 018.807-10.512c6.225-4.586 13.87-6.471 21.507-5.313l190.212 28.851c4.31.65 8.349-2.314 9.004-6.632a7.908 7.908 0 00-6.632-9.004L232.66.516c-11.821-1.793-23.632 1.123-33.259 8.215-7.937 5.846-13.597 13.955-16.346 23.246H56.156c-24.681 0-44.761 20.08-44.761 44.761v106.31a7.907 7.907 0 1015.814 0V76.737c0-15.961 12.985-28.946 28.946-28.946h232.518c15.961 0 28.946 12.985 28.946 28.946v390.502c0 15.961-12.985 28.946-28.946 28.946H56.156c-15.961 0-28.946-12.984-28.946-28.946V222.796a7.907 7.907 0 10-15.814 0V467.24c0 24.681 20.08 44.761 44.761 44.761h232.518c12.139 0 23.158-4.864 31.23-12.738l70.66 10.717a45.39 45.39 0 006.808.516c9.478 0 18.677-3.004 26.451-8.731 9.626-7.09 15.915-17.506 17.707-29.326l58.56-386.088c1.793-11.821-1.124-23.633-8.215-33.259zM333.434 291.245l44.24-72.701a94.197 94.197 0 013.082 23.937 93.447 93.447 0 01-23.2 61.663 7.907 7.907 0 0011.888 10.43 109.252 109.252 0 0027.127-72.093c0-42.843-24.615-81.185-63.137-99.121v-29.05c23.734 8.874 44.916 24.497 60.42 44.749 18.223 23.804 27.855 52.276 27.855 82.337s-9.632 58.532-27.855 82.335c-15.504 20.253-36.687 35.876-60.42 44.749v-77.235zm34.997-87.934l-34.997 57.511v-57.511h34.997zm-34.997-15.815v-26.36c11.797 6.682 21.817 15.705 29.55 26.36h-29.55z"/><path d="M289.999 320.499l-29.426-48.424 28.908-47.505a13.655 13.655 0 00.237-13.776 13.657 13.657 0 00-11.891-6.957h-58.721l-35.032-57.649c-2.496-4.106-6.855-6.558-11.66-6.557-4.804 0-9.163 2.452-11.657 6.558h.001l-35.033 57.648h-58.72a13.657 13.657 0 00-11.892 6.958 13.657 13.657 0 00.238 13.776l28.907 47.504-29.427 48.423c-2.558 4.206-2.646 9.484-.234 13.773s6.969 6.954 11.891 6.954h59.848l34.424 56.571c2.496 4.102 6.853 6.55 11.654 6.55 4.802 0 9.159-2.448 11.655-6.55l34.425-56.571h59.848c4.922 0 9.478-2.665 11.89-6.954s2.324-9.567-.233-13.772zm-16.038-100.848l-22.638 37.202-22.607-37.202h45.245zm-101.546-62.195l28.185 46.38h-56.37l28.185-46.38zM70.868 219.651h45.245l-22.607 37.201-22.638-37.201zm-.518 105.76l23.165-38.12 23.196 38.12H70.35zm102.065 61.116l-27.566-45.301h55.133l-27.567 45.301zm37.19-61.116h-74.38l-32.459-53.341 31.854-52.418h75.59l31.854 52.418-32.459 53.341zm18.512 0l23.196-38.12 23.165 38.12h-46.361z"/><path d="M172.415 243.833c-15.465 0-28.046 12.581-28.046 28.046 0 15.464 12.581 28.045 28.046 28.045 15.464 0 28.045-12.581 28.045-28.045 0-15.465-12.581-28.046-28.045-28.046zm0 40.275c-6.744 0-12.231-5.486-12.231-12.23s5.487-12.231 12.231-12.231 12.23 5.487 12.23 12.231c0 6.745-5.486 12.23-12.23 12.23z"/></svg>