<?xml version="1.0" encoding="iso-8859-1"?>
<!-- Generator: Adobe Illustrator 19.0.0, SVG Export Plug-In . SVG Version: 6.00 Build 0)  -->
<svg version="1.1" id="Capa_1" xmlns="http://www.w3.org/2000/svg" xmlns:xlink="http://www.w3.org/1999/xlink" x="0px" y="0px"
	 viewBox="0 0 512.001 512.001" style="enable-background:new 0 0 512.001 512.001;" xml:space="preserve">
<g>
	<g>
		<path d="M491.876,53.092c-7.091-9.626-17.507-15.915-29.327-17.707c-4.321-0.658-8.349,2.313-9.004,6.633
			c-0.655,4.317,2.315,8.348,6.632,9.003c7.645,1.159,14.38,5.226,18.966,11.451c4.585,6.225,6.472,13.863,5.313,21.507
			l-58.562,386.087c-1.159,7.645-5.226,14.38-11.451,18.965c-6.225,4.587-13.867,6.476-21.507,5.313l-63.084-9.568
			c2.304-5.388,3.582-11.315,3.582-17.536v-81.995c28.735-9.47,54.48-27.737,72.977-51.9c20.355-26.587,31.113-58.382,31.113-91.949
			s-10.758-65.362-31.113-91.949c-18.498-24.164-44.242-42.43-72.977-51.9v-20.81c0-24.681-20.08-44.761-44.761-44.761h-88.7
			c2.021-4.115,5.01-7.715,8.807-10.512c6.225-4.586,13.87-6.471,21.507-5.313l190.212,28.851c4.31,0.65,8.349-2.314,9.004-6.632
			c0.655-4.318-2.315-8.349-6.632-9.004L232.66,0.516c-11.821-1.793-23.632,1.123-33.259,8.215
			c-7.937,5.846-13.597,13.955-16.346,23.246H56.156c-24.681,0-44.761,20.08-44.761,44.761v106.31c0,4.368,3.54,7.907,7.907,7.907
			c4.367,0,7.907-3.54,7.907-7.907V76.737c0-15.961,12.985-28.946,28.946-28.946h232.518c15.961,0,28.946,12.985,28.946,28.946
			v390.502c0,15.961-12.985,28.946-28.946,28.946H56.156c-15.961,0-28.946-12.984-28.946-28.946V222.796
			c0-4.368-3.54-7.907-7.907-7.907s-7.907,3.54-7.907,7.907V467.24c0,24.681,20.08,44.761,44.761,44.761h232.518
			c12.139,0,23.158-4.864,31.23-12.738l70.66,10.717c2.275,0.345,4.549,0.516,6.808,0.516c9.478,0,18.677-3.004,26.451-8.731
			c9.626-7.09,15.915-17.506,17.707-29.326l58.56-386.088C501.884,74.53,498.967,62.718,491.876,53.092z M333.434,291.245
			l44.24-72.701c2.017,7.684,3.082,15.712,3.082,23.937c0,22.713-8.239,44.612-23.2,61.663c-2.88,3.282-2.554,8.278,0.729,11.159
			c1.501,1.317,3.36,1.963,5.212,1.963c2.197,0,4.384-0.911,5.947-2.692c17.493-19.936,27.127-45.539,27.127-72.093
			c0-42.843-24.615-81.185-63.137-99.121v-29.05c23.734,8.874,44.916,24.497,60.42,44.749
			c18.223,23.804,27.855,52.276,27.855,82.337s-9.632,58.532-27.855,82.335c-15.504,20.253-36.687,35.876-60.42,44.749V291.245z
			 M368.431,203.311l-34.997,57.511v-57.511H368.431z M333.434,187.496v-26.36c11.797,6.682,21.817,15.705,29.55,26.36H333.434z"/>
	</g>
</g>
<g>
	<g>
		<path d="M289.999,320.499l-29.426-48.424l28.908-47.505c2.56-4.206,2.65-9.485,0.237-13.776
			c-2.412-4.291-6.968-6.957-11.891-6.957h-58.721l-35.032-57.649c-2.496-4.106-6.855-6.558-11.66-6.557
			c-4.804,0-9.163,2.452-11.657,6.558h0.001l-35.033,57.648h-58.72c-4.924,0-9.481,2.667-11.892,6.958
			c-2.412,4.292-2.322,9.571,0.238,13.776l28.907,47.504l-29.427,48.423c-2.558,4.206-2.646,9.484-0.234,13.773
			s6.969,6.954,11.891,6.954h59.848l34.424,56.571c2.496,4.102,6.853,6.55,11.654,6.55c4.802,0,9.159-2.448,11.655-6.55
			l34.425-56.571h59.848c4.922,0,9.478-2.665,11.89-6.954S292.556,324.704,289.999,320.499z M273.961,219.651l-22.638,37.202
			l-22.607-37.202H273.961z M172.415,157.456l28.185,46.38H144.23L172.415,157.456z M70.868,219.651h45.245l-22.607,37.201
			L70.868,219.651z M70.35,325.411l23.165-38.12l23.196,38.12H70.35z M172.415,386.527l-27.566-45.301h55.133L172.415,386.527z
			 M209.605,325.411h-74.38l-32.459-53.341l31.854-52.418h75.59l31.854,52.418L209.605,325.411z M228.117,325.411l23.196-38.12
			l23.165,38.12H228.117z"/>
	</g>
</g>
<g>
	<g>
		<path d="M172.415,243.833c-15.465,0-28.046,12.581-28.046,28.046c0,15.464,12.581,28.045,28.046,28.045
			c15.464,0,28.045-12.581,28.045-28.045C200.46,256.414,187.879,243.833,172.415,243.833z M172.415,284.108
			c-6.744,0-12.231-5.486-12.231-12.23s5.487-12.231,12.231-12.231s12.23,5.487,12.23,12.231
			C184.645,278.623,179.159,284.108,172.415,284.108z"/>
	</g>
</g>
<g>
</g>
<g>
</g>
<g>
</g>
<g>
</g>
<g>
</g>
<g>
</g>
<g>
</g>
<g>
</g>
<g>
</g>
<g>
</g>
<g>
</g>
<g>
</g>
<g>
</g>
<g>
</g>
<g>
</g>
</svg>
