<svg id="Layer_1" enable-background="new 0 0 512.5 512.5" height="512" viewBox="0 0 512.5 512.5" width="512" xmlns="http://www.w3.org/2000/svg"><path d="m340.959 415.192h-170c-44.112 0-80 35.888-80 80v2c0 8.284 6.716 15 15 15h300c8.284 0 15-6.716 15-15v-2c0-44.112-35.888-80-80-80z"/><path d="m394.24 336.266-15.526-29.288-29.291-15.527c-14.756-7.823-23.923-23.058-23.923-39.759s9.167-31.936 23.923-39.758l29.291-15.528 15.527-29.291c5.094-9.612 13.344-16.83 23.087-20.71-35.114-51.649-94.345-85.643-161.37-85.643-107.523 0-195 87.477-195 195 0 55.479 23.29 105.621 60.605 141.163 14.862-7.501 31.642-11.734 49.395-11.734h170c17.753 0 34.534 4.233 49.395 11.734 11.983-11.414 22.51-24.34 31.293-38.458-11.613-3.303-21.573-11.194-27.406-22.201zm-160.698-204.074c-58.763 0-106.571 47.808-106.571 106.571 0 .983.014 1.965.041 2.948.228 8.281-6.301 15.179-14.582 15.406-.14.004-.281.006-.42.006-8.094 0-14.763-6.447-14.986-14.588-.035-1.257-.052-2.515-.052-3.772 0-75.305 61.266-136.571 136.571-136.571 8.285 0 15 6.716 15 15s-6.717 15-15.001 15z"/><path d="m504.525 238.439-37.43-19.842-19.843-37.43c-2.601-4.907-7.7-7.975-13.253-7.975s-10.652 3.068-13.253 7.975l-19.843 37.43-37.43 19.842c-4.906 2.601-7.975 7.7-7.975 13.253s3.068 10.652 7.975 13.253l37.43 19.842 19.843 37.43c2.601 4.907 7.7 7.975 13.253 7.975s10.652-3.068 13.253-7.975l19.843-37.43 37.43-19.842c4.906-2.601 7.975-7.7 7.975-13.253s-3.068-10.652-7.975-13.253z"/><path d="m68.281 104.849 14.258-22.003 22.003-14.257c4.267-2.765 6.843-7.504 6.843-12.588 0-5.085-2.576-9.823-6.843-12.588l-22.004-14.259-14.257-22.003c-2.765-4.267-7.503-6.843-12.588-6.843-5.084 0-9.823 2.576-12.588 6.843l-14.259 22.003-22.003 14.258c-4.267 2.765-6.843 7.504-6.843 12.588 0 5.085 2.576 9.823 6.843 12.588l22.003 14.257 14.257 22.003c2.765 4.267 7.504 6.843 12.588 6.843s9.825-2.575 12.59-6.842z"/></svg>