<svg xmlns="http://www.w3.org/2000/svg" viewBox="0 0 81.4 109.2"><path d="M76.9 52c-.2-.3-5.6-8-13.6-8-.8 0-1.7.1-2.5.3V29.9c0-.4.2-4.2-2.2-6.8-1.5-1.6-3.9-3.2-9.5-2.1-.6-1.4-2.6-5.3-8.4-5.3-5.8 0-7.6 3.9-8 5.3-.5-.1-1.4-.2-2.5-.2-3.4 0-9.2 1.2-9.2 8.9l.1 14.2c-.4-.1-.9-.1-1.5-.1-2.8 0-8.5 1-15.1 7.9-.1.1-.2.3-.1.5 0 .2.2.3.4.4.1 0 9.9 3.1 11.5 9.2.3 1 .4 2.6.7 4.4.6 4.9 1.3 11.6 4.6 17.3 3.9 6.8 10.6 10.2 19.8 10.2 8.1 0 13.8-2.6 17.5-8.1 3.1-4.7 4.3-10.7 5.3-16 .8-4.1 1.5-8 3-10.3 3.7-5.6 9.4-6.4 9.5-6.4.2 0 .4-.1.4-.3-.1-.2-.1-.4-.2-.6zm-10.7 6.6c-1.6 2.5-2.4 6.5-3.2 10.7-1 5.2-2.1 11.1-5.1 15.6-3.4 5.1-8.9 7.6-16.6 7.6-8.9 0-15.1-3.2-18.9-9.7-3.1-5.4-3.9-12-4.4-16.8-.2-1.9-.4-3.5-.7-4.5-1.5-5.6-8.9-8.7-11.4-9.6 6-6.1 11.2-7 13.7-7 1.2 0 1.9.2 1.9.2.5.1.7-.1.7-.5L22 29.8c0-6.5 4.4-7.8 8.1-7.8 1 0 1.9.1 2.4.2v2c0 .3.2.5.5.5s.5-.2.5-.5v-2.3c0-.2.9-4.9 7.1-4.9 6.3 0 7.2 4.7 7.2 4.8V24c0 .3.2.5.5.5s.5-.2.5-.5v-1.9c4.6-1 7.7.3 8.9 1.7 1.9 1.9 1.9 5.5 1.9 6.1V45c0 .2.1.3.2.4.1.1.3.1.5.1 1-.2 1.9-.4 2.9-.4 6.1 0 10.7 5 12.2 6.9-1.8.4-6.2 1.9-9.2 6.6z"/><path d="M24.2 64.2s.6-.8 1.6-1.8c.2-.2.2-.5 0-.7s-.5-.2-.7 0c-1 1.1-1.6 1.9-1.6 1.9-.2.2-.1.6.1.7.2.2.5 0 .6-.1zm4.9-4.8c.2-.2.3-.5.1-.7-.2-.2-.5-.3-.7-.1-.6.5-1.3 1-1.9 1.6-.2.2-.2.5 0 .7.3.3.6.1.7 0 .6-.5 1.2-1.1 1.8-1.5zM25 65c-.2-.2-.5-.3-.7-.1-.2.2-.3.5-.1.7.4.7.9 1.4 1.5 2 .1.1.5.3.7.1.2-.2.3-.5.1-.7-.6-.7-1-1.3-1.5-2zm5.6-6.8c.3 0 1.7-.9 2.4-1.3.3-.1.4-.4.2-.7-.1-.3-.4-.4-.7-.2-.7.4-1.5.8-2.2 1.2-.2.2-.3.5-.2.7.1.2.3.3.5.3zm4.1-2.1c.1 0 1.7-.5 2.4-.7.3-.1.5-.3.4-.6-.1-.3-.3-.5-.6-.4-.8.2-1.6.4-2.4.7-.3.1-.4.4-.3.7.1.2.3.3.5.3zm13.3.7c.7.3 2.1 1.2 2.4 1.2.2 0 .3-.1.4-.2.2-.2.1-.6-.2-.7-.7-.4-1.5-.8-2.2-1.2-.3-.1-.6 0-.7.2-.1.2 0 .5.3.7zM29.6 70.1c-.6-.5-1.2-1-1.8-1.6-.2-.2-.5-.2-.7 0-.2.2-.2.5 0 .7.6.6 1.2 1.2 1.9 1.7.3.2.6 0 .7-.1.2-.2.2-.5-.1-.7zm22.2-11c.6.5 1.2 1 1.9 1.5.3.3.6.1.7 0 .2-.2.2-.5 0-.7-.6-.6-1.3-1.1-1.9-1.6-.2-.2-.6-.1-.7.1-.2.2-.2.5 0 .7zm-12.6-4s2.1-.1 2.4 0c.3 0 .5-.2.6-.5 0-.3-.2-.5-.5-.6h-2.5c-.3 0-.5.3-.5.6s.2.5.5.5zm4.5.2c.8.1 1.5.4 2.3.6h.2c.2 0 .4-.1.5-.4.1-.3 0-.6-.3-.7-.8-.3-1.6-.5-2.4-.7-.3-.1-.6.1-.6.4-.1.5 0 .8.3.8zm13.9 8.6c.2-.2.2-.5.1-.7-.5-.6-1.1-1.2-1.7-1.8-.2-.2-.5-.2-.7 0-.2.2-.2.5 0 .7.6.6 1.1 1.2 1.6 1.8.3.3.6.1.7 0zm-7 7.4c-.7.4-1.4.8-2.1 1.1-.3.1-.4.4-.3.7.1.2.3.3.5.3.1 0 1.7-.8 2.4-1.2.2-.2.3-.5.2-.7-.1-.3-.4-.4-.7-.2zm3.6-2.8c-.6.5-1.2 1.1-1.8 1.5-.2.2-.3.5-.1.7.3.3.6.2.7.1.6-.5 1.3-1.1 1.9-1.6.2-.2.2-.5 0-.7-.2-.2-.5-.2-.7 0zm3.6-3.6c-.2-.2-.6-.1-.7.1-.3.4-.8 1.1-1.5 1.9-.2.2-.2.6.1.7.3.3.6.1.7-.1.6-.7 1.1-1.3 1.5-2 .2-.1.2-.4-.1-.6zm-24.4 7.6c-.7-.3-1.4-.7-2.1-1.1-.2-.2-.6-.1-.7.2-.2.2-.1.6.2.7.7.5 1.4.9 2.2 1.2.3.1.6-.1.7-.3.1-.2 0-.6-.3-.7zm4.3 1.4c-.8-.1-1.5-.3-2.3-.6-.3-.1-.6.1-.7.3-.1.3.1.6.3.7.8.3 2.5.6 2.5.6.2 0 .5-.2.5-.4.2-.3 0-.6-.3-.6zm8.9-.7c-.7.2-1.5.5-2.3.6-.3.1-.5.3-.4.6.2.5.6.4.6.4l2.4-.6c.3-.1.4-.4.3-.7 0-.2-.3-.4-.6-.3zm-4.4.9c-.8.1-1.6.1-2.4 0-.3 0-.5.2-.6.5s.2.5.5.6h2.5c.3 0 .5-.3.5-.6s-.2-.5-.5-.5zm12.1-9.9c-.2-.3-5.7-7.8-13.5-7.8s-13.1 7-13.3 7.3c-.1.2-.1.4 0 .6 0 .1 1.1 2.1 3.2 4.2 2.9 2.8 6.4 4.2 10.1 4.2 9 0 13.4-7.6 13.6-8 0-.1 0-.3-.1-.5zm-13.5 7.5c-7.4 0-11.4-6.1-12.2-7.5.8-1 4.1-4.7 8.7-6.1-1.2 1-1.9 2.5-1.9 4.2 0 3.1 2.5 5.5 5.5 5.5 3.1 0 5.5-2.5 5.5-5.5 0-1.6-.7-3-1.7-4 4.5 1.6 7.7 5.3 8.5 6.4-.9 1.2-5 7-12.4 7zM33.1 43c.3 0 .5-.2.5-.5v-2.4c0-.3-.2-.5-.5-.5s-.5.2-.5.5v2.4c-.1.3.2.5.5.5zm0-4.6c.3 0 .5-.2.5-.5v-2.4c0-.3-.2-.5-.5-.5s-.5.2-.5.5v2.4c-.1.3.2.5.5.5zm0-9.3c.3 0 .5-.2.5-.5v-2.4c0-.3-.2-.5-.5-.5s-.5.2-.5.5v2.4c-.1.3.2.5.5.5zm0 4.7c.3 0 .5-.2.5-.5v-2.4c0-.3-.2-.5-.5-.5s-.5.2-.5.5v2.4c-.1.2.2.5.5.5zm0 13c.3 0 .5-.2.5-.5v-1.6c0-.3-.2-.5-.5-.5s-.5.2-.5.5v1.6c-.1.3.2.5.5.5zm15.3-13c.3 0 .5-.2.5-.5v-2.4c0-.3-.2-.5-.5-.5s-.5.2-.5.5v2.4c0 .2.2.5.5.5zm0-4.7c.3 0 .5-.2.5-.5v-2.4c0-.3-.2-.5-.5-.5s-.5.2-.5.5v2.4c0 .3.2.5.5.5zm0 13.9c.3 0 .5-.2.5-.5v-2.4c0-.3-.2-.5-.5-.5s-.5.2-.5.5v2.4c0 .3.2.5.5.5zm0 3.8c.3 0 .5-.2.5-.5v-1.6c0-.3-.2-.5-.5-.5s-.5.2-.5.5v1.6c0 .3.2.5.5.5zm0-8.4c.3 0 .5-.2.5-.5v-2.4c0-.3-.2-.5-.5-.5s-.5.2-.5.5v2.4c0 .3.2.5.5.5z"/></svg>