<svg xmlns="http://www.w3.org/2000/svg" viewBox="0 0 500 500"><defs><style>.cls-1{isolation:isolate;}.cls-2,.cls-6{fill:#ff88f9;}.cls-3,.cls-6{opacity:0.8;}.cls-4{fill:#ff43ff;}.cls-5{mix-blend-mode:screen;}.cls-6{font-size:9px;font-family:Roboto-Thin, Roboto;}</style></defs><title>hakkinda background</title><g class="cls-1"><g id="OBJECTS"><path class="cls-2" d="M250,53.39c108.58,0,196.61,88,196.61,196.61S358.6,446.61,250,446.61,53.41,358.58,53.41,250,141.43,53.39,250,53.39m0-.5a196.49,196.49,0,1,0,76.72,15.49A195.88,195.88,0,0,0,250,52.89Z"/><path class="cls-2" d="M250,56.72C356.76,56.72,443.3,143.26,443.3,250S356.76,443.28,250,443.28,56.74,356.74,56.74,250,143.27,56.72,250,56.72m0-.5a193.17,193.17,0,1,0,75.43,15.23A192.57,192.57,0,0,0,250,56.22Z"/><path class="cls-2" d="M250,54.39C358,54.39,445.62,142,445.62,250S358,445.61,250,445.61,54.41,358,54.41,250,142,54.39,250,54.39m0-.2a195.19,195.19,0,1,0,76.22,15.39A194.58,194.58,0,0,0,250,54.19Z"/><path class="cls-2" d="M250,55.27c107.54,0,194.73,87.18,194.73,194.73S357.56,444.73,250,444.73,55.29,357.55,55.29,250,142.47,55.27,250,55.27m0-.2a194.32,194.32,0,1,0,75.87,15.32A193.71,193.71,0,0,0,250,55.07Z"/><path class="cls-2" d="M250,150.15A99.85,99.85,0,1,1,150.16,250,99.85,99.85,0,0,1,250,150.15m0-.1a99.64,99.64,0,1,0,38.91,7.86A99.33,99.33,0,0,0,250,150Z"/><path class="cls-2" d="M250,158a92,92,0,1,1-92,92,92,92,0,0,1,92-92m0-.09a91.78,91.78,0,1,0,35.84,7.24A91.49,91.49,0,0,0,250,157.93Z"/><path class="cls-2" d="M250,171.32A78.68,78.68,0,1,1,171.33,250,78.68,78.68,0,0,1,250,171.32m0-.08a78.52,78.52,0,1,0,30.66,6.19A78.27,78.27,0,0,0,250,171.23Z"/><path class="cls-2" d="M250,165a85,85,0,1,1-85,85,85,85,0,0,1,85-85m0-.09a84.82,84.82,0,1,0,33.12,6.69A84.55,84.55,0,0,0,250,164.91Z"/><path class="cls-2" d="M250,117.46A132.54,132.54,0,1,1,117.48,250,132.54,132.54,0,0,1,250,117.46m0-.5a133,133,0,1,0,94.07,39A132.17,132.17,0,0,0,250,117Z"/><path class="cls-2" d="M250,133A117,117,0,1,1,133,250,117,117,0,0,1,250,133m0-.5a117.51,117.51,0,1,0,83.09,34.42A116.74,116.74,0,0,0,250,132.49Z"/><g class="cls-3"><path class="cls-4" d="M249.77,198.64h.5v-2.39h-.5Zm0-4.78h.5v-2.39h-.5Zm0,9.56h.5V201h-.5Zm0-14.33h.5v-2.39h-.5Zm0-28.67h.5V158h-.5Zm0,9.56h.5v-2.39h-.5Zm0,4.78h.5v-2.39h-.5Zm0,4.78h.5v-2.39h-.5Zm0,4.78h.5v-2.39h-.5Zm0-19.11h.5V162.8h-.5Zm0,76.44h.5v-2.39h-.5Zm0-4.78h.5v-2.39h-.5Zm0,9.56h.5V244h-.5Zm0-14.33h.5v-2.39h-.5Zm0,19.11h.5V248.8h-.5Zm0-33.44h.5v-2.39h-.5Zm0-4.78h.5v-2.39h-.5Zm0-4.78h.5V205.8h-.5Zm0,19.11h.5v-2.39h-.5Zm0-4.78h.5v-2.39h-.5Zm0-133.78h.5V86.36h-.5Zm0-4.78h.5V81.58h-.5Zm0,71.67h.5v-2.39h-.5Zm0-57.33h.5V95.91h-.5Zm0-19.11h.5V76.8h-.5Zm0,14.33h.5V91.14h-.5Zm0-23.89h.5V67.25h-.5Zm0,4.78h.5V72h-.5Zm0-9.56h.5V62.47h-.5Zm0-4.78h.5V57.69h-.5Zm0,43h.5v-2.39h-.5Zm0,152.89h.5v-2.39h-.5Zm0-109.89h.5v-2.39h-.5Zm0-38.22h.5v-2.39h-.5Zm0,28.67h.5v-2.39h-.5Zm0,14.33h.5v-2.39h-.5Zm0-9.56h.5v-2.39h-.5Zm0-19.11h.5V119.8h-.5Zm0-4.78h.5V115h-.5Zm0,9.56h.5v-2.39h-.5Zm0,4.78h.5v-2.39h-.5Zm0-19.11h.5v-2.39h-.5Zm0,281.88h.5v-2.39h-.5Zm0-4.78h.5v-2.39h-.5Zm0-4.78h.5v-2.39h-.5Zm0,19.11h.5v-2.39h-.5Zm0-4.78h.5v-2.39h-.5Zm0-38.22h.5v-2.39h-.5Zm0,47.78h.5v-2.39h-.5Zm0-43h.5v-2.39h-.5Zm0,9.56h.5V373h-.5Zm0,4.78h.5V377.8h-.5Zm0-9.55h.5v-2.39h-.5Zm0,43h.5v-2.39h-.5Zm0,23.89h.5v-2.39h-.5Zm0,9.56h.5v-2.39h-.5Zm0-394.16V55.3h.5V52.92Zm0,389.38h.5v-2.39h-.5Zm0-9.56h.5v-2.39h-.5Zm0-14.33h.5V416h-.5Zm0,4.78h.5V420.8h-.5Zm0,4.78h.5v-2.39h-.5Zm0-143.33h.5v-2.39h-.5Zm0,4.78h.5V287h-.5Zm0,4.78h.5V291.8h-.5Zm0,4.78h.5v-2.39h-.5Zm0,4.78h.5v-2.39h-.5Zm0-43h.5v-2.39h-.5Zm0,19.11h.5v-2.39h-.5Zm0,28.67h.5v-2.39h-.5Zm0-43h.5v-2.39h-.5Zm0,4.78h.5v-2.39h-.5Zm0,4.78h.5v-2.39h-.5Zm0,47.78h.5v-2.39h-.5Zm0,23.89h.5v-2.39h-.5Zm0-9.56h.5V334.8h-.5Zm0,4.78h.5v-2.39h-.5Zm0-28.67h.5v-2.39h-.5Zm0,38.22h.5v-2.39h-.5Zm0-19.11h.5V330h-.5Zm0,23.89h.5v-2.39h-.5Zm0-38.22h.5v-2.39h-.5Zm0,9.56h.5v-2.39h-.5Z"/><path class="cls-4" d="M164.8,397.1l.43.25,1.5-2.61-.43-.25Zm.4-98.42.25.43,2.61-1.5-.25-.43Zm2.6,93.21.43.25,1.5-2.61-.43-.25Zm-1.07-286.63-1.5-2.61-.43.25,1.5,2.61Zm6,10.42-1.5-2.61-.43.25,1.5,2.61Zm-7.3,85.21-.25.43,2.61,1.5.25-.43Zm2.35-92.78,1.5,2.61.43-.25-1.5-2.61Zm-6,294.19.43.25,1.5-2.61-.43-.25Zm-4.4-99.12-2.61,1.5.25.43,2.61-1.5Zm13-98.86,2.61,1.5.25-.43-2.61-1.5ZM161.79,97.69l1.5,2.61.43-.25-1.5-2.61Zm-4.15,98.69-2.61-1.5-.25.43,2.61,1.5Zm3.08-101.54-1.5-2.61-.43.25,1.5,2.61Zm-.48,103-.25.43,2.61,1.5.25-.43Zm-1.46,209.64.43.25,1.5-2.61-.43-.25ZM160,301.68l.25.43,2.61-1.5-.25-.43Zm20.85-12,.25.43,2.61-1.5-.25-.43Zm-1,81.39.43.25,1.5-2.61-.43-.25Zm3-5.21.43.25,1.5-2.61-.43-.25Zm-27.08,46.9.43.25,1.5-2.61-.43-.25Zm33.1-57.33.43.25,1.5-2.61-.43-.25Zm-6-221.23,1.5,2.61.43-.25-1.5-2.61Zm6,10.42,1.5,2.61.43-.25-1.5-2.61Zm-7.09-13.28-1.5-2.61-.43.25,1.5,2.61Zm-4.95,244.94.43.25,1.5-2.61-.43-.25Zm0-252.5,1.5,2.61.43-.25-1.5-2.61Zm-6,262.92.43.25,1.5-2.61-.43-.25Zm-.4-91,.25.43,2.61-1.5-.25-.43Zm5.35-174.77-1.5-2.61-.43.25,1.5,2.61Zm2.47,88,.25-.43-2.61-1.5-.25.43Zm-4.41,172.62.43.25,1.5-2.61-.43-.25Zm4.41-90.31-2.61,1.5.25.43,2.61-1.5Zm2.86-81.24-.25.43,2.61,1.5.25-.43ZM97.46,162.21l2.61,1.5.25-.43-2.61-1.5Zm0,175.58.25.43,2.61-1.5-.25-.43Zm5.21-3,.25.43,2.61-1.5-.25-.43Zm10.42-163.55,2.61,1.5.25-.43-2.61-1.5Zm-20.85-12,2.61,1.5.25-.43-2.61-1.5Zm10.42,6,2.61,1.5.25-.43-2.61-1.5Zm5.21,166.55.25.43,2.61-1.5-.25-.43Zm0-163.55,2.61,1.5.25-.43-2.61-1.5Zm5.21,160.54.25.43,2.61-1.5-.25-.43ZM82.48,346.44l.25.43,1.94-1.12-.25-.43Zm70.67,70.84.43.25,1.12-1.95-.43-.25ZM87,343.81l.25.43,2.61-1.5-.25-.43Zm0-187.62,2.61,1.5.25-.43-2.61-1.5Zm-4.55-2.63,1.95,1.12.25-.43-1.94-1.12ZM92.25,340.8l.25.43,2.61-1.5-.25-.43Zm36.48-160.54,2.61,1.5.25-.43-2.61-1.5Zm15.63,130.45.25.43,2.61-1.5-.25-.43Zm-5.21-124.43,2.61,1.5.25-.43-2.61-1.5Zm5.21,3,2.61,1.5.25-.43-2.61-1.5Zm5.21,118.41.25.43,2.61-1.5-.25-.43Zm3.58-225,1.12,1.94.43-.25-1.12-1.95ZM149.57,192.3l2.61,1.5.25-.43-2.61-1.5ZM139.15,313.72l.25.43,2.61-1.5-.25-.43Zm-15.63,9,.25.43,2.61-1.5-.25-.43Zm-5.21,3,.25.43,2.61-1.5-.25-.43Zm0-151.51,2.61,1.5.25-.43-2.61-1.5Zm5.21,3,2.61,1.5.25-.43-2.61-1.5Zm32.26-90,1.5,2.61.43-.25L156.21,87ZM133.94,316.73l.25.43,2.61-1.5-.25-.43Zm-5.21,3,.25.43,2.61-1.5-.25-.43Zm5.21-136.47,2.61,1.5.25-.43-2.61-1.5Zm73,42.12,2.61,1.5.25-.43-2.61-1.5Zm23-10.7-1.5-2.61-.43.25,1.5,2.61Zm-2.18,22.73,2.61,1.5.25-.43L228,237Zm-3.84-33.15-1.5-2.61-.43.25,1.5,2.61ZM231,282.45l.43.25,1.5-2.61-.43-.25ZM222.78,234l-.25.43,2.61,1.5.25-.43Zm5.2,53.67.43.25,1.5-2.61-.43-.25Zm-.24-25.09.25.43,2.61-1.5-.25-.43Zm-10.42,6,.25.43,2.61-1.5-.25-.43Zm5.21-3,.25.43,2.61-1.5-.25-.43Zm-36.67,95,.43.25,1.5-2.61-.43-.25ZM231,217.55l1.5,2.61.43-.25-1.5-2.61ZM217.57,231l-.25.43,2.61,1.5.25-.43Zm4.4,67.1.43.25,1.5-2.61-.43-.25Zm3-5.21.43.25,1.5-2.61-.43-.25Zm0-85.74,1.5,2.61.43-.25-1.5-2.61ZM238.42,243l-.25.43,2.61,1.5.25-.43ZM243,261.6l.43.25,1.5-2.61-.43-.25Zm3-5.21.43.25L248,254l-.43-.25Zm0-12.78,1.5,2.61L248,246l-1.5-2.61Zm-12-20.85,1.5,2.61.43-.25-1.5-2.61Zm4.95,7.57-1.5-2.61L237,228l1.5,2.61ZM243.63,246l-.25.43L246,248l.25-.43Zm-.25,7.52.25.43,2.61-1.5L246,252ZM245,240.75l-1.5-2.61-.43.25,1.5,2.61ZM216,308.5l.43.25,1.5-2.61-.43-.25Zm19.61-50.45-2.61,1.5.25.43,2.61-1.5ZM234,277.24l.43.25,1.5-2.61-.43-.25Zm1.81-35.73-2.61-1.5-.25.43,2.61,1.5Zm4.21-8.32,1.5,2.61.43-.25-1.5-2.61Zm-1.86,23.36.25.43,2.61-1.5-.25-.43ZM237,272l.43.25,1.5-2.61-.43-.25Zm-19.12-78.17-1.5-2.61-.43.25,1.5,2.61ZM194.89,345l.43.25,1.5-2.61-.43-.25Zm3-184.75,1.5,2.61.43-.25-1.5-2.61Zm0,179.54.43.25,1.5-2.61-.43-.25Zm-1.42-59.15.25.43,2.61-1.5-.25-.43Zm7.44-110,1.5,2.61.43-.25-1.5-2.61Zm-7.19,48.29-.25.43,2.61,1.5.25-.43Zm.1-61.57-1.5-2.61-.43.25,1.5,2.61Zm-9-15.63-1.5-2.61-.43.25,1.5,2.61Zm16.12,187.61.43.25,1.5-2.61-.43-.25ZM186.3,212.93l-.25.43,2.61,1.5.25-.43Zm-.25,73.71.25.43,2.61-1.5-.25-.43Zm5.21-3,.25.43,2.61-1.5-.25-.43Zm.62,66.56.43.25,1.5-2.61-.43-.25Zm-.62-133.83,2.61,1.5.25-.43-2.61-1.5Zm2.55-64.21-1.5-2.61-.43.25,1.5,2.61Zm7.87,125.45.25.43,2.61-1.5-.25-.43Zm13.19-89-1.5-2.61-.43.25,1.5,2.61Zm-4.95,130.28.43.25,1.5-2.61-.43-.25Zm0-137.85,1.5,2.61.43-.25-1.5-2.61Zm2.18,47.33,2.61,1.5.25-.43-2.61-1.5ZM219,196.71l1.5,2.61.43-.25-1.5-2.61Zm-6,117,.43.25,1.5-2.61-.43-.25Zm-.83-42.12.25.43,2.61-1.5-.25-.43Zm-3.25-93.38-1.5-2.61-.43.25,1.5,2.61Zm-6-10.42-1.5-2.61-.43.25,1.5,2.61ZM201.94,222l-.25.43,2.61,1.5.25-.43Zm17,81.34.43.25,1.5-2.61-.43-.25Zm-12,20.85.43.25,1.5-2.61-.43-.25Zm0-49.53.25.43,2.61-1.5-.25-.43Zm-6,60,.43.25,1.5-2.61-.43-.25ZM251.2,249l-.5.29.29-.49-.43-.25-.54.93-.54-.93-.43.25.29.5-.49-.29-.25.43.93.54-.93.54.25.43.5-.29-.29.5.43.25.54-.93.54.93.43-.25-.29-.5.5.29.25-.43-.93-.54.93-.54ZM240,266.81l.43.25,1.5-2.61-.43-.25Zm48.14,49.76,1.5,2.61.43-.25-1.5-2.61Zm0-133.14.43.25,1.5-2.61-.43-.25Zm4.95-7.57-.43-.25-1.5,2.61.43.25Zm-8,94.66,2.61,1.5.25-.43-2.61-1.5Zm6.1,51.25,1.5,2.61.43-.25-1.5-2.61Zm6-154,.43.25,1.5-2.61-.43-.25Zm-12,143.56,1.5,2.61.43-.25-1.5-2.61Zm8-86-.25-.43-2.61,1.5.25.43Zm-2.86,48.14,2.61,1.5.25-.43-2.61-1.5Zm-10.42-6,2.61,1.5.25-.43-2.61-1.5Zm2.29,38.63,1.5,2.61.43-.25-1.5-2.61Zm5.78-77.74-.25-.43-2.61,1.5.25.43Zm-8.79,72.53,1.5,2.61.43-.25-1.5-2.61Zm.72-68.45.25.43,2.61-1.5-.25-.43Zm7.23-46.2-.43-.25-1.5,2.61.43.25Zm-6,10.42-.43-.25-1.5,2.61.43.25Zm24.84,85.85,2.61,1.5.25-.43-2.61-1.5Zm2.24-132.75-.43-.25-1.5,2.61.43.25Zm-8,187.61,1.5,2.61.43-.25-1.5-2.61Zm.5-117,.25.43,2.61-1.5-.25-.43Zm1.43-60.22-.43-.25-1.5,2.61.43.25Zm-4.95,172,1.5,2.61.43-.25-1.5-2.61Zm-15-138.35.43.25,1.5-2.61-.43-.25Zm24.07,154,1.5,2.61.43-.25-1.5-2.61Zm2.55-131.47-.25-.43-2.61,1.5.25.43ZM294.18,327l1.5,2.61.43-.25-1.5-2.61ZM298.1,278l.25-.43-2.61-1.5-.25.43Zm14.14-136.31.43.25,1.5-2.61-.43-.25Zm-8.92,139.32.25-.43-2.61-1.5-.25.43Zm-7.19-110.4-.43-.25-1.5,2.61.43.25Zm7.09,172,1.5,2.61.43-.25-1.5-2.61Zm0-185.25.43.25,1.5-2.61-.43-.25Zm-7.72,66.08.25.43,2.61-1.5-.25-.43Zm-34.41,6.88.43.25L263,228l-.43-.25Zm0,39.33,1.5,2.61L263,272l-1.5-2.61ZM254,243.61l-.43-.25-1.5,2.61.43.25Zm4.08,20.85,1.5,2.61.43-.25-1.5-2.61Zm.94-9,2.61,1.5.25-.43-2.61-1.5ZM261.62,243l-2.61,1.5.25.43,2.61-1.5Zm-5.21,3-2.61,1.5.25.43,2.61-1.5Zm-4.35,8,1.5,2.61.43-.25-1.5-2.61Zm93.27,161.55,1.13,1.95.43-.25-1.12-1.94Zm38.76-87.89,2.61,1.5.25-.43-2.61-1.5Zm31.52,17.62-.25.43,1.94,1.12.25-.43ZM255.07,259.25l1.5,2.61.43-.25L255.5,259Zm-1.27-6.77,2.61,1.5.25-.43-2.61-1.5ZM260,233.19l-.43-.25-1.5,2.61.43.25Zm-4.95,7.57.43.25,1.5-2.61-.43-.25Zm17.22-3.33L272,237l-2.61,1.5.25.43Zm3.84-33.15.43.25,1.5-2.61-.43-.25Zm0,91.45,1.5,2.61.43-.25-1.5-2.61Zm-6.69-34.22L272,263l.25-.43-2.61-1.5Zm-5.34,13.38,1.5,2.61.43-.25-1.5-2.61Zm10.55-10.37,2.61,1.5.25-.43-2.61-1.5Zm0-29,.25.43,2.61-1.5-.25-.43Zm-1.53,55,1.5,2.61.43-.25-1.5-2.61Zm-3-5.21,1.5,2.61.43-.25-1.5-2.61ZM266,222.77l-.43-.25-1.5,2.61.43.25Zm-1.56,19.18,2.61-1.5-.25-.43-2.61,1.5Zm-.25,16.55,2.61,1.5.25-.43-2.61-1.5ZM272,212.34l-.43-.25-1.5,2.61.43.25Zm-4.95,67.75,1.5,2.61.43-.25-1.5-2.61Zm8-73-.43-.25-1.5,2.61.43.25Zm-8,12.78.43.25,1.5-2.61-.43-.25ZM358,312.65l2.61,1.5.25-.43-2.61-1.5Zm2.85-126.37-.25-.43-2.61,1.5.25.43Zm56.67-32.72-.25-.43-1.94,1.12.25.43Zm-61.88,35.73-.25-.43-2.61,1.5.25.43Zm-2.85,120.35,2.61,1.5.25-.43-2.61-1.5Zm15.63,9,2.61,1.5.25-.43-2.61-1.5Zm2.85-138.4-.25-.43-2.61,1.5.25.43Zm-8.07,135.4,2.61,1.5.25-.43-2.61-1.5Zm2.85-132.39-.25-.43-2.61,1.5.25.43Zm-23.77,227.1,1.5,2.61.43-.25-1.5-2.61Zm.07-106.75,2.61,1.5.25-.43-2.61-1.5Zm.25-106.81,2.61-1.5-.25-.43-2.61,1.5Zm5,109.82,2.61,1.5.25-.43-2.61-1.5Zm2.85-114.33-.25-.43-2.61,1.5.25.43Zm-6.2-105-.43-.25-1.5,2.61.43.25Zm-6,10.42-.43-.25L336.3,100l.43.25Zm8.64-15-.43-.25-1.13,1.95.43.25Zm29.63,94.53-.25-.43-2.61,1.5.25.43Zm26.06-15-.25-.43-2.61,1.5.25.43Zm5.21-3-.25-.43-2.61,1.5.25.43Zm-8.07,177.52,2.61,1.5.25-.43-2.61-1.5Zm10.42,6,2.61,1.5.25-.43-2.61-1.5Zm-5.21-3,2.61,1.5.25-.43-2.61-1.5ZM413,156.19l-.25-.43-2.61,1.5.25.43ZM394.51,333.71l2.61,1.5.25-.43-2.61-1.5ZM381.73,174.24l-.25-.43-2.61,1.5.25.43Zm-2.85,150.44,2.61,1.5.25-.43-2.61-1.5Zm-5.21-3,2.61,1.5.25-.43-2.61-1.5Zm18.49-153.45-.25-.43-2.61,1.5.25.43Zm-5.21,3-.25-.43-2.61,1.5.25.43ZM389.3,330.7l2.61,1.5.25-.43-2.61-1.5Zm8.07-165.48-.25-.43-2.61,1.5.25.43ZM334.58,299.11l.25-.43-2.61-1.5-.25.43Zm-17.4-164.94-.43-.25-1.5,2.61.43.25Zm-.84,77.25.25.43,2.61-1.5-.25-.43Zm-1.1,152,1.5,2.61.43-.25-1.5-2.61Zm9-242.58.43.25,1.5-2.61-.43-.25Zm-3,253,1.5,2.61.43-.25-1.5-2.61Zm3,5.21,1.5,2.61.43-.25-1.5-2.61ZM321.8,208.85l2.61-1.5-.25-.43-2.61,1.5Zm0,82.31-.25.43,2.61,1.5.25-.43Zm-10.67-76.72.25.43,2.61-1.5-.25-.43ZM309.22,353l1.5,2.61.43-.25-1.5-2.61Zm4.51-66,.25-.43-2.61-1.5-.25.43Zm4.52-155.76.43.25,1.5-2.61-.43-.25Zm0,237.37,1.5,2.61.43-.25-1.5-2.61Zm.69-78.6.25-.43-2.61-1.5-.25.43ZM311.16,144.6l-.43-.25-1.5,2.61.43.25ZM332,202.4l.25.43,2.61-1.5-.25-.43Zm-8.77-78.65-.43-.25-1.5,2.61.43.25Zm7.09,265.78,1.5,2.61.43-.25-1.5-2.61Zm9-294.69.43.25,1.5-2.61-.43-.25Zm-2.13,104.55.25.43,2.61-1.5-.25-.43ZM336.3,400l1.5,2.61.43-.25-1.5-2.61Zm3,5.21,1.5,2.61.43-.25-1.5-2.61Zm.48-103,.25-.43-2.61-1.5-.25.43Zm-7.57-194-.43-.25-1.5,2.61.43.25Zm-2.61,96.22-.25-.43-2.61,1.5.25.43Zm-2.34,180,1.5,2.61.43-.25-1.5-2.61Zm1.94-271-.43-.25-1.5,2.61.43.25ZM326.76,294.6l2.61,1.5.25-.43-2.61-1.5Zm6.53,100.14,1.5,2.61.43-.25-1.5-2.61Zm-21.06-36.48,1.5,2.61.43-.25-1.5-2.61Zm21.06-253,.43.25,1.5-2.61-.43-.25Z"/><path class="cls-4" d="M181.89,250.25h2.39v-.5h-2.39Zm-23.88,0h2.39v-.5H158Zm28.66,0h2.39v-.5h-2.39Zm-33.43,0h2.39v-.5h-2.39Zm38.21,0h2.39v-.5h-2.39Zm-23.88,0H170v-.5h-2.39Zm9.55,0h2.39v-.5h-2.39Zm-14.33,0h2.39v-.5h-2.39Zm9.55,0h2.39v-.5h-2.39Zm23.88,0h2.39v-.5h-2.39Zm33.43,0H232v-.5h-2.39Zm4.78,0h2.39v-.5h-2.39Zm9.55,0h2.39v-.5H244Zm-19.1,0h2.39v-.5h-2.39Zm14.33,0h2.39v-.5h-2.39Zm-19.1,0h2.39v-.5H220.1Zm-19.1,0h2.39v-.5H201Zm9.55,0h2.39v-.5h-2.39Zm-4.78,0h2.39v-.5h-2.39Zm9.55,0h2.39v-.5h-2.39Zm-162.39,0h2.39v-.5H52.94Zm43,0h2.39v-.5H95.93Zm-14.33,0H84v-.5H81.6Zm-4.78,0h2.39v-.5H76.82Zm71.64,0h2.39v-.5h-2.39Zm-62.09,0h2.39v-.5H86.37Zm-14.33,0h2.39v-.5H72Zm-4.78,0h2.39v-.5H67.27Zm181.49,0h2.39v-.5h-2.39Zm-191,0H60.1v-.5H57.72Zm4.78,0h2.39v-.5H62.49Zm28.66,0h2.39v-.5H91.15Zm43,0h2.39v-.5h-2.39Zm-4.78,0h2.39v-.5h-2.39Zm9.55,0h2.39v-.5h-2.39Zm4.78,0h2.39v-.5h-2.39Zm-38.21,0h2.39v-.5h-2.39Zm9.55,0h2.39v-.5H115Zm-4.78,0h2.39v-.5h-2.39Zm9.55,0h2.39v-.5h-2.39Zm4.78,0H127v-.5h-2.39Zm-23.88,0h2.39v-.5H100.7Zm286.56,0h2.39v-.5h-2.39Zm-4.78,0h2.39v-.5h-2.39Zm-4.78,0h2.39v-.5h-2.39Zm19.1,0h2.39v-.5h-2.39Zm-4.78,0h2.39v-.5H392Zm-33.43,0H361v-.5h-2.39Zm43,0H404v-.5h-2.39Zm-38.21,0h2.39v-.5h-2.39Zm9.55,0h2.39v-.5h-2.39Zm-4.78,0h2.39v-.5h-2.39Zm47.76,0h2.39v-.5h-2.39Zm14.33,0h2.39v-.5h-2.39Zm9.55,0h2.39v-.5H439.8Zm-4.78,0h2.39v-.5H435Zm9.55-.5v.5H447v-.5Zm-33.43.5h2.39v-.5h-2.39Zm14.33,0h2.39v-.5h-2.39Zm-71.64,0h2.39v-.5h-2.39Zm52.54,0h2.39v-.5h-2.39Zm14.33,0h2.39v-.5H420.7Zm-90.74,0h2.39v-.5H330Zm-43,0h2.39v-.5H287Zm-4.78,0h2.39v-.5h-2.39Zm9.55,0h2.39v-.5h-2.39Zm-14.33,0h2.39v-.5h-2.39Zm23.88,0h2.39v-.5H301.3Zm-4.78,0h2.39v-.5h-2.39Zm52.54,0h2.39v-.5h-2.39Zm-90.74,0h2.39v-.5h-2.39Zm14.33,0H275v-.5h-2.39Zm-4.78,0h2.39v-.5h-2.39Zm-4.78,0h2.39v-.5h-2.39Zm43,0h2.39v-.5h-2.39Zm28.66,0h2.39v-.5h-2.39Zm9.55,0h2.39v-.5h-2.39Zm-90.74,0h2.39v-.5h-2.39Zm86,0h2.39v-.5H339.5Zm-23.88,0H318v-.5h-2.39Zm9.55,0h2.39v-.5h-2.39Zm-14.33,0h2.39v-.5h-2.39Zm9.55,0h2.39v-.5H320.4Z"/></g><path class="cls-2" d="M289.19,182.15,328.36,250l-39.17,67.85H210.85L171.68,250l39.17-67.85h78.34m.12-.2H210.73l-.06.1L171.5,249.9l-.06.1.06.1,39.17,67.85.06.1H289.3l.06-.1,39.17-67.85.06-.1-.06-.1-39.17-67.85-.06-.1Z"/><path class="cls-2" d="M250,217.46l28.18,16.27v32.54L250,282.54l-28.18-16.27V233.73L250,217.46m0-.58-.25.14L221.59,233.3l-.25.14v33.12l.25.14L249.77,283l.25.14.25-.14,28.18-16.27.25-.14V233.44l-.25-.14L250.27,217l-.25-.14Z"/><path class="cls-2" d="M289.59,318.55,250,282.88l-39.58,35.67,11.11-52.11L170.86,250l50.68-16.44-11.11-52.11L250,217.13l39.58-35.67-11.11,52.11L329.17,250l-50.68,16.44ZM250,282.2l.17.15,38.6,34.79-10.88-51,.21-.07,49.43-16L277.9,233.9l0-.22,10.83-50.82L250,217.8l-38.77-34.94,10.88,51-.21.07-49.43,16,49.64,16.1-10.88,51Z"/><path class="cls-2" d="M309.13,284.56H191.41l.21-.37L250,181.55Zm-116.86-.5h116L250,182.56Z"/><path class="cls-2" d="M250,318.67l-.22-.38-59-102.2H308.57ZM191.71,216.59,250,317.66,307.7,216.59Z"/><path class="cls-2" d="M270.94,262.27h-41.7l.13-.22,20.72-36.47Zm-41.19-.3h40.67l-20.33-35.78Z"/><path class="cls-2" d="M249.69,274.5l-.13-.23L229,238h41.7Zm-20.14-36.19,20.14,35.59,20.53-35.59Z"/><path class="cls-2" d="M282.85,245.7a14.76,14.76,0,1,1,14.76-14.76A14.77,14.77,0,0,1,282.85,245.7Zm0-29.21a14.46,14.46,0,1,0,14.46,14.46A14.47,14.47,0,0,0,282.85,216.49Z"/><path class="cls-2" d="M288.51,221v-.3h1v.3Zm-1,0-1,0v-.3l1,0Zm3,0,0-.3,1-.06,0,.3Zm-5-.06-1-.09,0-.3,1,.09Zm7-.09,0-.3,1-.11,0,.3Zm-9-.11-1-.14,0-.3,1,.14Zm11-.15,0-.3,1-.17.05.3Zm-13-.16-1-.19.06-.29,1,.19Zm14.93-.2-.06-.29,1-.22.07.29Zm-16.89-.2-1-.24.08-.29,1,.24Zm18.84-.26-.08-.29,1-.27.08.29Zm-20.78-.25-1-.29.09-.29,1,.29Zm22.7-.31-.09-.29.94-.31.1.28Zm-24.61-.3-.94-.34.11-.28.94.34Zm26.51-.36-.11-.28.93-.36.11.28Zm-28.39-.34-.93-.39.12-.27.92.39Zm30.24-.41-.12-.27.9-.41.13.27ZM272,217.33l-.9-.44.13-.27.9.43Zm33.89-.45-.13-.27.88-.46.14.26Zm-35.68-.44-.88-.48.15-.26.87.48Zm37.44-.5-.15-.26.86-.5.15.26Zm-39.19-.49-.85-.53.16-.25.85.52Zm40.9-.54-.16-.25.83-.54.17.25Zm-42.6-.54-.82-.57.17-.24.82.57Zm44.25-.58-.17-.24.8-.59.18.24Zm-45.89-.58-.79-.61.19-.24.79.61Zm47.49-.62-.19-.24.77-.63.19.23ZM263.56,212l-.76-.65.2-.23.76.65Zm50.59-.66-.2-.23.74-.67.2.22Zm-52.1-.66-.73-.69.21-.21.72.68Zm53.57-.7-.21-.21.7-.7.21.21Zm-55-.7-.69-.73.22-.2.69.72Zm56.4-.73-.22-.2.67-.74.23.2Zm-57.77-.73-.65-.76.23-.19.65.75Zm59.09-.77-.23-.19.63-.77.24.19ZM258,206.24l-.61-.79.24-.18.61.79Zm61.62-.81-.24-.18.59-.8.24.17Zm-62.82-.79-.57-.82.25-.17.57.81Zm64-.84-.25-.17.55-.83.25.16Zm-65.1-.82-.53-.85.26-.16.52.84Zm66.18-.87-.26-.16.5-.86.26.15Zm-67.21-.84-.48-.87.26-.14.48.87Zm68.2-.91-.26-.14.46-.88.27.13Zm-69.15-.86q-.22-.45-.44-.9l.27-.13.43.89Zm70-.94-.27-.13q.21-.45.41-.91l.27.12Q323.94,198.12,323.72,198.57Zm-70.9-.87q-.2-.46-.39-.92l.28-.11q.19.46.39.91Zm71.7-1-.28-.11q.19-.46.36-.93l.28.11Q324.72,196.27,324.53,196.73Zm-72.46-.88q-.18-.47-.34-.94l.28-.1q.16.47.34.93Zm73.17-1-.28-.1q.16-.47.32-.95l.29.09Q325.4,194.38,325.24,194.85ZM251.41,194q-.15-.48-.29-1l.29-.08q.14.48.29,1Zm74.44-1-.29-.08q.14-.48.27-1l.29.08Q326,192.46,325.85,192.94Zm-75-.9q-.13-.48-.24-1l.29-.07q.11.48.24,1Zm75.51-1-.29-.07q.11-.48.21-1l.29.06Q326.47,190.52,326.36,191Zm-76-.91q-.1-.49-.19-1l.29-.05q.09.49.19,1Zm76.38-1-.29-.05c.06-.33.11-.65.16-1l.3,0Q326.85,188.55,326.76,189ZM250,188.12q-.08-.49-.14-1l.3,0q.06.49.14,1Zm77-1.06-.3,0q.06-.49.11-1l.3,0Q327.13,186.57,327.07,187.06Zm-77.3-.93q-.05-.5-.09-1l.3,0q0,.5.09,1Zm77.5-1.06-.3,0q0-.49.06-1l.3,0Q327.31,184.57,327.27,185.07Zm-77.66-.93q0-.5,0-1h.3q0,.5,0,1Zm77.76-1.07h-.3q0-.5,0-1v-.13h.3v.13Q327.39,182.57,327.37,183.07Zm-77.52-.93h-.3v-.07q0-.47,0-.93h.3c0,.31,0,.62,0,.93Zm77.21-1.19q0-.5,0-1l.3,0q0,.5,0,1Zm-77.16-.79h-.3q0-.5.06-1l.3,0Q249.93,179.65,249.9,180.15ZM327,179q0-.5-.09-1l.3,0q.05.5.09,1Zm-76.91-.79-.3,0q.05-.5.11-1l.3,0Q250.1,177.67,250.05,178.17Zm76.7-1.18q-.06-.49-.14-1l.3,0q.08.49.14,1Zm-76.45-.79-.3,0q.08-.5.16-1l.29.05Q250.38,175.7,250.3,176.19ZM326.44,175q-.09-.49-.19-1l.29-.06q.1.49.19,1Zm-75.79-.78-.29-.06q.1-.49.21-1l.29.07Q250.75,173.75,250.65,174.24ZM326,173.07q-.11-.48-.24-1l.29-.08q.13.48.25,1Zm-74.93-.77-.29-.08q.13-.49.27-1l.29.08Q251.23,171.82,251.1,172.3Zm74.42-1.15q-.14-.48-.29-.95l.29-.09q.15.48.3,1Zm-73.87-.76-.29-.09q.15-.48.32-1l.28.1Q251.81,169.92,251.65,170.39Zm73.26-1.13q-.16-.47-.34-.93l.28-.11q.18.47.34.94Zm-72.6-.75-.28-.11q.18-.47.37-.94l.28.11Q252.48,168,252.31,168.51Zm71.9-1.1q-.19-.46-.39-.91l.27-.12q.2.46.39.92Zm-71.15-.74-.28-.12q.2-.46.41-.92l.27.13Q253.25,166.2,253.05,166.66Zm70.35-1.07q-.21-.45-.43-.89l.27-.13q.22.45.44.9Zm-69.51-.74-.27-.13.46-.89.26.14Zm68.61-1L322,163l.26-.15.48.87Zm-67.68-.73-.26-.15.5-.87.26.15Zm66.7-1-.52-.84.25-.16.53.85Zm-65.67-.71-.25-.16.55-.84.25.17Zm64.6-1-.57-.81.24-.17.57.82ZM257,159.74l-.24-.17.59-.81.24.18Zm62.34-.92-.61-.78.23-.19.61.79Zm-61.14-.67-.24-.19.63-.78.23.19Zm59.91-.88-.65-.75.22-.2.65.76Zm-58.63-.64-.23-.2.67-.74.22.2Zm57.32-.85-.69-.72.21-.21.69.72Zm-56-.62-.21-.21.71-.71.21.21Zm54.58-.8-.72-.68.2-.22.73.69Zm-53.16-.58-.2-.22.74-.67.2.22Zm51.7-.76-.76-.65.19-.23.76.65Zm-50.21-.55-.19-.23.78-.63.19.23Zm48.68-.72-.79-.61.18-.24.8.61Zm-47.12-.52-.18-.24.81-.59.17.24Zm45.53-.67L310,150l.17-.25.83.57Zm-43.92-.48-.17-.25.83-.55.16.25Zm42.26-.63-.85-.52.15-.26.85.53ZM268.53,149l-.16-.26.86-.51.15.26Zm38.88-.58-.87-.48.14-.26.88.48Zm-37.16-.4-.14-.26.89-.46.13.27Zm35.4-.53-.9-.43.13-.27.9.44ZM272,147.12l-.13-.27.91-.41.12.27Zm31.83-.48-.92-.39L303,146l.93.39Zm-30-.31-.11-.28.93-.37.11.28Zm28.16-.43-.94-.34.1-.28.95.34Zm-26.31-.27-.1-.28.95-.32.09.29Zm24.42-.38-1-.29.08-.29,1,.29ZM277.59,145l-.08-.29,1-.27.08.29Zm20.62-.32-1-.24.07-.29,1,.24Zm-18.7-.19-.07-.29,1-.22.06.29Zm16.76-.26-1-.19.05-.29,1,.19Zm-14.82-.15-.05-.3,1-.17,0,.3Zm12.86-.2-1-.14,0-.3,1,.14Zm-10.9-.11,0-.3,1-.12,0,.3Zm8.92-.14-1-.09,0-.3,1,.09Zm-6.95-.07,0-.3,1-.07,0,.3Zm5-.08-1,0v-.3l1,0Zm-3,0v-.3l1,0v.3Z"/><path class="cls-2" d="M328.26,289v-.3h1v.3Zm-1,0-1,0v-.3l1,0Zm3,0v-.3l1-.06,0,.3Zm-5-.06-1-.09,0-.3,1,.09Zm7-.09,0-.3,1-.11,0,.3Zm-9-.11-1-.14,0-.3,1,.14Zm11-.15,0-.3,1-.16.05.3Zm-13-.15-1-.19.06-.29,1,.19Zm14.93-.2-.06-.29,1-.22.07.29Zm-16.89-.2-1-.24.08-.29,1,.24Zm18.84-.26-.08-.29,1-.26.08.29Zm-20.78-.25-1-.29.09-.29,1,.29Zm22.7-.31-.09-.29.94-.32.1.28Zm-24.61-.3-.94-.34.11-.28.94.34Zm26.51-.36-.11-.28.92-.36.11.28Zm-28.39-.34-.93-.39.12-.28.92.39Zm30.24-.41-.12-.28.9-.41.13.27Zm-32.08-.39-.9-.44.13-.27.9.43Zm33.89-.45-.13-.27.88-.46.14.26ZM310,284.43l-.88-.48.15-.26.87.48Zm37.44-.5-.15-.26.86-.5.15.26Zm-39.19-.49-.85-.53.16-.25.85.52Zm40.9-.54-.16-.25.83-.54.17.25Zm-42.6-.54-.82-.57.17-.24.82.57Zm44.25-.58-.17-.24.8-.59.18.24Zm-45.89-.58-.79-.61.19-.24.79.61Zm47.49-.62-.19-.24.77-.63.19.23ZM303.31,280l-.76-.65.2-.22.76.65Zm50.6-.66-.2-.22.74-.67.2.22Zm-52.1-.66-.73-.69.21-.21.72.68Zm53.57-.7-.21-.21.7-.7.21.21Zm-55-.7-.69-.72.22-.21.69.72Zm56.4-.74-.22-.2.67-.74.23.2ZM299,275.78l-.65-.76.23-.19.65.75ZM358.1,275l-.23-.19.63-.77.24.19Zm-60.37-.76-.61-.79.24-.18.61.78Zm61.62-.81-.24-.18.59-.8.24.17Zm-62.82-.79-.57-.82.25-.17.57.82Zm64-.84-.25-.17.55-.83.25.16ZM295.4,271l-.53-.85.26-.15.52.84Zm66.18-.87-.26-.15.5-.86.26.15Zm-67.21-.84-.48-.87.26-.14.48.87Zm68.2-.91-.26-.14.46-.88.27.13Zm-69.15-.86q-.22-.45-.44-.9l.27-.13c.14.3.29.6.43.89Zm70-.94-.27-.13q.21-.45.41-.91l.27.12Q363.69,266.12,363.47,266.57Zm-70.9-.87q-.2-.46-.39-.92l.28-.11c.13.31.25.61.39.91Zm71.7-1-.28-.11c.13-.31.25-.62.36-.93l.28.11Q364.47,264.27,364.28,264.73Zm-72.46-.88q-.18-.47-.34-.94l.28-.1q.16.47.34.93Zm73.17-1-.28-.1q.16-.47.32-.95l.29.09Q365.15,262.38,365,262.85ZM291.16,262c-.1-.32-.2-.64-.29-1l.29-.08q.14.48.29.95Zm74.44-1-.29-.08c.09-.32.18-.64.27-1l.29.08Q365.74,260.46,365.6,260.94Zm-75-.9c-.09-.32-.17-.65-.24-1l.29-.07q.11.48.24,1Zm75.51-1-.29-.07c.08-.32.15-.65.21-1l.29.06Q366.22,258.52,366.11,259Zm-76-.91q-.1-.49-.19-1l.29-.05q.09.49.19,1Zm76.38-1-.29-.05c.06-.33.11-.65.16-1l.3,0Q366.6,256.55,366.51,257Zm-76.74-.92q-.08-.5-.14-1l.3,0q.06.49.14,1Zm77-1.06-.3,0q.06-.49.11-1l.3,0C366.9,254.4,366.86,254.73,366.82,255.06Zm-77.3-.93q-.05-.5-.09-1l.3,0c0,.33.06.66.09,1Zm77.5-1.06-.3,0q0-.49.06-1l.3,0Q367.06,252.57,367,253.07Zm-77.66-.93q0-.5,0-1h.3c0,.33,0,.66,0,1Zm77.76-1.07h-.3q0-.5,0-1v-.13h.3v.13C367.14,250.4,367.13,250.74,367.12,251.07Zm-77.51-.94h-.3v-.06c0-.32,0-.63,0-.94h.3q0,.46,0,.93Zm77.21-1.19q0-.5,0-1l.3,0q0,.5,0,1Zm-77.16-.79h-.3q0-.5.06-1l.3,0Q289.68,247.65,289.65,248.15ZM366.71,247q0-.5-.09-1l.3,0q.05.5.09,1Zm-76.91-.79-.3,0q.05-.5.11-1l.3,0Q289.85,245.67,289.8,246.16ZM366.5,245q-.06-.49-.14-1l.3,0q.08.49.14,1Zm-76.45-.79-.3,0q.08-.5.16-1l.3.05Q290.13,243.7,290.05,244.19ZM366.19,243q-.09-.49-.19-1l.29-.06q.1.49.19,1Zm-75.79-.78-.29-.06q.1-.49.21-1l.29.07Q290.5,241.75,290.4,242.24Zm75.38-1.16q-.11-.48-.24-1l.29-.08q.13.48.25,1Zm-74.93-.77-.29-.08q.13-.49.27-1l.29.08Q291,239.82,290.85,240.3Zm74.42-1.15q-.14-.48-.29-.95l.29-.09q.15.48.3,1Zm-73.87-.76-.29-.09q.15-.48.32-1l.28.1Q291.56,237.91,291.4,238.39Zm73.26-1.13q-.16-.47-.34-.93l.28-.11q.18.47.34.94Zm-72.6-.75-.28-.11q.18-.47.37-.94l.28.11Q292.23,236,292.06,236.51Zm71.9-1.1q-.19-.46-.39-.91l.27-.12q.2.46.39.92Zm-71.15-.74-.28-.12q.2-.46.41-.92l.27.13Q293,234.2,292.8,234.66Zm70.35-1.07q-.21-.45-.43-.89l.27-.13q.22.45.44.9Zm-69.51-.74-.27-.13.46-.89.26.14Zm68.61-1-.48-.87.26-.15.48.87Zm-67.68-.73-.26-.15.5-.87.26.15Zm66.7-1-.52-.84.25-.16.53.85Zm-65.67-.71-.25-.16.55-.84.25.17Zm64.6-1-.57-.81.24-.17.57.82Zm-63.49-.69-.24-.17.59-.81.24.18Zm62.34-.92-.61-.78.23-.19.61.79Zm-61.14-.67-.24-.19.63-.78.23.19Zm59.91-.88-.65-.75.22-.2.65.76Zm-58.63-.64-.23-.2.67-.74.22.2Zm57.32-.84-.69-.72.21-.21.69.72Zm-56-.62-.21-.21.71-.71.21.21Zm54.58-.8-.72-.68.2-.22.73.69ZM302,221.77l-.2-.22.74-.67.2.22Zm51.7-.76-.76-.65.19-.23.76.65Zm-50.21-.55-.19-.23.78-.63.19.23Zm48.68-.72-.79-.61.18-.24.8.61ZM305,219.22l-.18-.24.81-.59.17.24Zm45.53-.67-.82-.56.17-.25.83.57Zm-43.92-.48-.17-.25.83-.55.16.25Zm42.26-.63-.85-.52.15-.26.85.53ZM308.28,217l-.16-.26.86-.51.15.26Zm38.88-.58-.87-.48.14-.26.88.48ZM310,216l-.14-.26.89-.46.13.27Zm35.4-.53-.9-.43.13-.27.9.44Zm-33.63-.36-.13-.27.91-.41.12.27Zm31.83-.48-.92-.39.11-.28.93.39Zm-30-.32-.11-.28.93-.37.11.28Zm28.16-.43-.94-.34.1-.28.95.34Zm-26.31-.27-.1-.28.95-.32.09.29Zm24.42-.38-1-.29.08-.29,1,.29ZM317.34,213l-.08-.29,1-.27.08.29Zm20.62-.32-1-.24.07-.29,1,.24Zm-18.7-.19-.07-.29,1-.22.06.29Zm16.76-.26-1-.19.05-.29,1,.19Zm-14.82-.15-.05-.3,1-.17,0,.3Zm12.86-.2-1-.14,0-.3,1,.14Zm-10.9-.11,0-.3,1-.12,0,.3Zm8.92-.14-1-.09,0-.3,1,.09Zm-6.95-.07,0-.3,1-.07,0,.3Zm5-.07-1,0v-.3l1,0Zm-3,0v-.3l1,0v.3Z"/><path class="cls-2" d="M171,289v-.3h1v.3Zm-1,0-1,0v-.3l1,0Zm3,0v-.3l1-.06,0,.3Zm-5-.06-1-.09,0-.3,1,.09Zm7-.09,0-.3,1-.11,0,.3Zm-9-.11-1-.14,0-.3,1,.14Zm11-.15,0-.3,1-.16.05.3Zm-13-.15-1-.19.06-.29,1,.19Zm14.93-.2-.06-.29,1-.22.07.29Zm-16.89-.2-1-.24.08-.29,1,.24Zm18.84-.26-.08-.29,1-.26.08.29Zm-20.78-.25-1-.29.09-.29,1,.29Zm22.7-.31-.09-.29.94-.32.1.28Zm-24.61-.3-.94-.34.11-.28.94.34Zm26.51-.36-.11-.28.92-.36.11.28Zm-28.39-.34-.93-.39.12-.28.92.39Zm30.24-.41-.12-.28.9-.41.13.27Zm-32.08-.39-.9-.44.13-.27.9.43Zm33.89-.45-.13-.27.88-.46.14.26Zm-35.68-.44-.88-.48.15-.26.87.48Zm37.44-.5-.15-.26.86-.5.15.26ZM151,283.45l-.85-.53.16-.25.85.52Zm40.9-.54-.16-.25.83-.54.17.25Zm-42.6-.54-.82-.57.17-.24.82.57Zm44.25-.58-.17-.24.8-.59.18.24Zm-45.89-.58-.79-.61.19-.24.79.61Zm47.49-.62-.19-.24.77-.63.19.23ZM146.06,280l-.76-.65.2-.22.76.65Zm50.6-.66-.2-.22.74-.67.2.22Zm-52.1-.66-.73-.69.21-.21.72.68Zm53.57-.7-.21-.21.7-.7.21.21Zm-55-.7-.69-.72.22-.21.69.72Zm56.4-.74-.22-.2.67-.74.23.2Zm-57.76-.73-.65-.76.23-.19.65.75Zm59.09-.77-.23-.19.63-.77.24.19Zm-60.37-.76-.61-.79.24-.18.61.78Zm61.62-.81-.24-.18.59-.8.24.17Zm-62.82-.79-.57-.82.25-.17.57.82Zm64-.84-.25-.17.55-.83.25.16Zm-65.1-.82-.53-.85.26-.15.52.84Zm66.18-.87-.26-.15.5-.86.26.15Zm-67.21-.84-.48-.87.26-.14.48.87Zm68.2-.91-.26-.14.46-.88.27.13Zm-69.15-.86q-.22-.45-.44-.9l.27-.13c.14.3.29.6.43.89Zm70-.94-.27-.13q.21-.45.41-.91l.27.12Q206.44,266.12,206.22,266.57Zm-70.9-.87q-.2-.46-.39-.92l.28-.11c.13.31.25.61.39.91Zm71.7-1-.28-.11c.13-.31.25-.62.36-.93l.28.11Q207.22,264.27,207,264.73Zm-72.46-.88q-.18-.47-.34-.94l.28-.1q.16.47.34.93Zm73.17-1-.28-.1q.16-.47.32-.95l.29.09Q207.9,262.38,207.74,262.85ZM133.91,262c-.1-.32-.2-.64-.29-1l.29-.08q.14.48.29.95Zm74.44-1-.29-.08c.09-.32.18-.64.27-1l.29.08Q208.49,260.46,208.35,260.94Zm-75-.9c-.09-.32-.17-.65-.24-1l.29-.07q.11.48.24,1Zm75.51-1-.29-.07c.08-.32.15-.65.21-1l.29.06Q209,258.52,208.86,259Zm-76-.91q-.1-.49-.19-1l.29-.05q.09.49.19,1Zm76.38-1L209,257c.06-.33.11-.65.16-1l.3,0Q209.35,256.55,209.26,257Zm-76.74-.92q-.08-.5-.14-1l.3,0q.06.49.14,1Zm77-1.06-.3,0q.06-.49.11-1l.3,0C209.65,254.4,209.61,254.73,209.57,255.06Zm-77.3-.93q-.05-.5-.09-1l.3,0c0,.33.06.66.09,1Zm77.5-1.06-.3,0q0-.49.06-1l.3,0Q209.81,252.57,209.77,253.07Zm-77.66-.93q0-.5,0-1h.3c0,.33,0,.66,0,1Zm77.76-1.07h-.3q0-.5,0-1v-.13h.3v.13C209.89,250.4,209.88,250.74,209.87,251.07Zm-77.51-.94h-.3v-.06c0-.32,0-.63,0-.94h.3q0,.46,0,.93Zm77.21-1.19q0-.5,0-1l.3,0q0,.5,0,1Zm-77.16-.79h-.3q0-.5.06-1l.3,0Q132.43,247.65,132.4,248.15ZM209.46,247q0-.5-.09-1l.3,0q.05.5.09,1Zm-76.91-.79-.3,0q.05-.5.11-1l.3,0Q132.6,245.67,132.55,246.16Zm76.7-1.18q-.06-.49-.14-1l.3,0q.08.49.14,1Zm-76.45-.79-.3,0q.08-.5.16-1l.29.05Q132.88,243.7,132.8,244.19ZM208.94,243q-.09-.49-.19-1L209,242q.1.49.19,1Zm-75.79-.78-.29-.06q.1-.49.21-1l.29.07Q133.25,241.75,133.15,242.24Zm75.38-1.16q-.11-.48-.24-1l.29-.08q.13.48.25,1Zm-74.93-.77-.29-.08q.13-.49.27-1l.29.08Q133.73,239.82,133.6,240.3ZM208,239.15q-.14-.48-.29-.95l.29-.09q.15.48.3,1Zm-73.87-.76-.29-.09q.15-.48.32-1l.28.1Q134.31,237.91,134.15,238.39Zm73.26-1.13q-.16-.47-.34-.93l.28-.11q.18.47.34.94Zm-72.6-.75-.28-.11q.18-.47.37-.94l.28.11Q135,236,134.81,236.51Zm71.9-1.1q-.19-.46-.39-.91l.27-.12q.2.46.39.92Zm-71.15-.74-.28-.12q.2-.46.41-.92l.27.13Q135.75,234.2,135.55,234.66Zm70.35-1.07q-.21-.45-.43-.89l.27-.13q.22.45.44.9Zm-69.51-.74-.27-.13.46-.89.26.14Zm68.61-1-.48-.87.26-.15.48.87Zm-67.68-.73-.26-.15.5-.87.26.15Zm66.7-1-.52-.84.25-.16.53.85Zm-65.67-.71-.25-.16.55-.84.25.17Zm64.6-1-.57-.81.24-.17.57.82Zm-63.49-.69-.24-.17.59-.81.24.18Zm62.34-.92-.61-.78.23-.19.61.79Zm-61.14-.67-.24-.19.63-.78.23.19Zm59.91-.88-.65-.75.22-.2.65.76Zm-58.63-.64-.23-.2.67-.74.22.2Zm57.32-.84-.69-.72.21-.21.69.72Zm-56-.62-.21-.21.71-.71.21.21Zm54.58-.8-.72-.68.2-.22.73.69Zm-53.16-.59-.2-.22.74-.67.2.22Zm51.7-.76-.76-.65.19-.23.76.65Zm-50.21-.55-.19-.23.78-.63.19.23Zm48.68-.72-.79-.61.18-.24.8.61Zm-47.12-.52-.18-.24.81-.59.17.24Zm45.53-.67-.82-.56.17-.25.83.57Zm-43.92-.48-.17-.25.83-.55.16.25Zm42.26-.63-.85-.52.15-.26.85.53ZM151,217l-.16-.26.86-.51.15.26Zm38.88-.58-.87-.48.14-.26.88.48Zm-37.16-.4-.14-.26.89-.46.13.27Zm35.4-.53-.9-.43.13-.27.9.44Zm-33.63-.36-.13-.27.91-.41.12.27Zm31.83-.48-.92-.39.11-.28.93.39Zm-30-.32-.11-.28.93-.37.11.28Zm28.16-.43-.94-.34.1-.28.95.34Zm-26.31-.27-.1-.28L159,213l.09.29Zm24.42-.38-1-.29.08-.29,1,.29ZM160.09,213l-.08-.29,1-.27.08.29Zm20.62-.32-1-.24.07-.29,1,.24ZM162,212.5l-.07-.29,1-.22.06.29Zm16.76-.26-1-.19.05-.29,1,.19ZM164,212.09l-.05-.3,1-.17,0,.3Zm12.86-.2-1-.14,0-.3,1,.14Zm-10.9-.11,0-.3,1-.12,0,.3Zm8.92-.14-1-.09,0-.3,1,.09Zm-6.95-.07,0-.3,1-.07,0,.3Zm5-.07-1,0v-.3l1,0Zm-3,0v-.3l1,0v.3Z"/><path class="cls-2" d="M210.51,221v-.3h1v.3Zm-1,0-1,0v-.3l1,0Zm3,0,0-.3,1-.06,0,.3Zm-5-.06-1-.09,0-.3,1,.09Zm7-.09,0-.3,1-.11,0,.3Zm-9-.11-1-.14,0-.3,1,.14Zm11-.15,0-.3,1-.17.05.3Zm-13-.16-1-.19.06-.29,1,.19Zm14.93-.2-.06-.29,1-.22.07.29Zm-16.89-.2-1-.24.08-.29,1,.24Zm18.84-.26-.08-.29,1-.27.08.29Zm-20.78-.25-1-.29.09-.29,1,.29Zm22.7-.31-.09-.29.94-.31.1.28Zm-24.61-.3-.94-.34.11-.28.94.34Zm26.51-.36-.11-.28.93-.36.11.28Zm-28.39-.34-.93-.39.12-.27.92.39Zm30.24-.41-.12-.27.9-.41.13.27ZM194,217.33l-.9-.44.13-.27.9.43Zm33.89-.45-.13-.27.88-.46.14.26Zm-35.68-.44-.88-.48.15-.26.87.48Zm37.44-.5-.15-.26.86-.5.15.26Zm-39.19-.49-.85-.53.16-.25.85.52Zm40.9-.54-.16-.25.83-.54.17.25Zm-42.6-.54-.82-.57.17-.24.82.57Zm44.25-.58-.17-.24.8-.59.18.24Zm-45.89-.58-.79-.61.19-.24.79.61Zm47.49-.62-.19-.24.77-.63.19.23ZM185.56,212l-.76-.65.2-.23.76.65Zm50.59-.66-.2-.23.74-.67.2.22Zm-52.1-.66-.73-.69.21-.21.72.68Zm53.57-.7-.21-.21.7-.7.21.21Zm-55-.7-.69-.73.22-.2.69.72Zm56.4-.73-.22-.2.67-.74.23.2Zm-57.77-.73-.65-.76.23-.19.65.75Zm59.09-.77-.23-.19.63-.77.24.19ZM180,206.24l-.61-.79.24-.18.61.79Zm61.62-.81-.24-.18.59-.8.24.17Zm-62.82-.79-.57-.82.25-.17.57.81Zm64-.84-.25-.17.55-.83.25.16Zm-65.1-.82-.53-.85.26-.16.52.84Zm66.18-.87-.26-.16.5-.86.26.15Zm-67.21-.84-.48-.87.26-.14.48.87Zm68.2-.91-.26-.14.46-.88.27.13Zm-69.15-.86q-.22-.45-.44-.9l.27-.13.43.89Zm70-.94-.27-.13q.21-.45.41-.91l.27.12Q245.94,198.12,245.72,198.57Zm-70.9-.87q-.2-.46-.39-.92l.28-.11q.19.46.39.91Zm71.7-1-.28-.11q.19-.46.36-.93l.28.11Q246.72,196.27,246.53,196.73Zm-72.46-.88q-.18-.47-.34-.94l.28-.1q.16.47.34.93Zm73.17-1-.28-.1q.16-.47.32-.95l.29.09Q247.4,194.38,247.24,194.85ZM173.41,194q-.15-.48-.29-1l.29-.08q.14.48.29,1Zm74.44-1-.29-.08q.14-.48.27-1l.29.08Q248,192.46,247.85,192.94Zm-75-.9q-.13-.48-.24-1l.29-.07q.11.48.24,1Zm75.51-1-.29-.07q.11-.48.21-1l.29.06Q248.47,190.52,248.36,191Zm-76-.91q-.1-.49-.19-1l.29-.05q.09.49.19,1Zm76.38-1-.29-.05c.06-.33.11-.65.16-1l.3,0Q248.85,188.55,248.76,189ZM172,188.12q-.08-.49-.14-1l.3,0q.06.49.14,1Zm77-1.06-.3,0q.06-.49.11-1l.3,0Q249.13,186.57,249.07,187.06Zm-77.3-.93q-.05-.5-.09-1l.3,0q0,.5.09,1Zm77.5-1.06-.3,0q0-.49.06-1l.3,0Q249.31,184.57,249.27,185.07Zm-77.66-.93q0-.5,0-1h.3q0,.5,0,1Zm77.76-1.07h-.3q0-.5,0-1v-.13h.3v.13Q249.39,182.57,249.37,183.07Zm-77.52-.93h-.3v-.07q0-.47,0-.93h.3c0,.31,0,.62,0,.93Zm77.21-1.19q0-.5,0-1l.3,0q0,.5,0,1Zm-77.16-.79h-.3q0-.5.06-1l.3,0Q171.93,179.65,171.9,180.15ZM249,179q0-.5-.09-1l.3,0q.05.5.09,1Zm-76.91-.79-.3,0q.05-.5.11-1l.3,0Q172.1,177.67,172.05,178.17Zm76.7-1.18q-.06-.49-.14-1l.3,0q.08.49.14,1Zm-76.45-.79-.3,0q.08-.5.16-1l.29.05Q172.38,175.7,172.3,176.19ZM248.44,175q-.09-.49-.19-1l.29-.06q.1.49.19,1Zm-75.79-.78-.29-.06q.1-.49.21-1l.29.07Q172.75,173.75,172.65,174.24ZM248,173.07q-.11-.48-.24-1l.29-.08q.13.48.25,1Zm-74.93-.77-.29-.08q.13-.49.27-1l.29.08Q173.23,171.82,173.1,172.3Zm74.42-1.15q-.14-.48-.29-.95l.29-.09q.15.48.3,1Zm-73.87-.76-.29-.09q.15-.48.32-1l.28.1Q173.81,169.92,173.65,170.39Zm73.26-1.13q-.16-.47-.34-.93l.28-.11q.18.47.34.94Zm-72.6-.75-.28-.11q.18-.47.37-.94l.28.11Q174.48,168,174.31,168.51Zm71.9-1.1q-.19-.46-.39-.91l.27-.12q.2.46.39.92Zm-71.15-.74-.28-.12q.2-.46.41-.92l.27.13Q175.25,166.2,175.05,166.66Zm70.35-1.07q-.21-.45-.43-.89l.27-.13q.22.45.44.9Zm-69.51-.74-.27-.13.46-.89.26.14Zm68.61-1L244,163l.26-.15.48.87Zm-67.68-.73-.26-.15.5-.87.26.15Zm66.7-1-.52-.84.25-.16.53.85Zm-65.67-.71-.25-.16.55-.84.25.17Zm64.6-1-.57-.81.24-.17.57.82ZM179,159.74l-.24-.17.59-.81.24.18Zm62.34-.92-.61-.78.23-.19.61.79Zm-61.14-.67-.24-.19.63-.78.23.19Zm59.91-.88-.65-.75.22-.2.65.76Zm-58.63-.64-.23-.2.67-.74.22.2Zm57.32-.85-.69-.72.21-.21.69.72Zm-56-.62-.21-.21.71-.71.21.21Zm54.58-.8-.72-.68.2-.22.73.69Zm-53.16-.58-.2-.22.74-.67.2.22Zm51.7-.76-.76-.65.19-.23.76.65Zm-50.21-.55-.19-.23.78-.63.19.23Zm48.68-.72-.79-.61.18-.24.8.61Zm-47.12-.52-.18-.24.81-.59.17.24Zm45.53-.67L232,150l.17-.25.83.57Zm-43.92-.48-.17-.25.84-.55.16.25Zm42.26-.63-.85-.52.15-.26.85.53ZM190.53,149l-.16-.26.86-.51.15.26Zm38.88-.58-.87-.48.14-.26.88.48Zm-37.16-.4-.14-.26.89-.46.13.27Zm35.4-.53-.9-.43.13-.27.9.44ZM194,147.12l-.13-.27.91-.41.12.27Zm31.83-.48-.92-.39L225,146l.93.39Zm-30-.31-.11-.28.93-.37.11.28Zm28.16-.43-.94-.34.1-.28.95.34Zm-26.31-.27-.1-.28.95-.32.09.29Zm24.42-.38-1-.29.08-.29,1,.29ZM199.59,145l-.08-.29,1-.27.08.29Zm20.62-.32-1-.24.07-.29,1,.24Zm-18.7-.19-.07-.29,1-.22.06.29Zm16.76-.26-1-.19.05-.29,1,.19Zm-14.82-.15-.05-.3,1-.17,0,.3Zm12.86-.2-1-.14,0-.3,1,.14Zm-10.9-.11,0-.3,1-.12,0,.3Zm8.92-.14-1-.09,0-.3,1,.09Zm-6.95-.07,0-.3,1-.07,0,.3Zm5-.08-1,0v-.3l1,0Zm-3,0v-.3l1,0v.3Z"/><path class="cls-2" d="M288.51,356.23v-.3h1v.3Zm-1,0-1,0v-.3l1,0Zm3,0v-.3l1-.06,0,.3Zm-5-.06-1-.09,0-.3,1,.09Zm7-.09,0-.3,1-.11,0,.3Zm-9-.11-1-.14,0-.3,1,.14Zm11-.15,0-.3,1-.16.05.3Zm-13-.15-1-.19.06-.29,1,.19Zm14.93-.2-.06-.29,1-.22.07.29Zm-16.89-.2-1-.24.08-.29,1,.24Zm18.84-.26-.08-.29,1-.26.08.29Zm-20.78-.25-1-.29.09-.29,1,.29Zm22.7-.31-.09-.29.94-.32.1.28Zm-24.61-.3-.94-.34.11-.28.94.34Zm26.51-.36-.11-.28.92-.36.11.28Zm-28.39-.34-.93-.39.12-.28.92.39Zm30.24-.41-.12-.28.9-.41.13.27ZM272,352.58l-.9-.44.13-.27.9.43Zm33.89-.45-.13-.27.88-.46.14.26Zm-35.68-.44-.88-.48.15-.26.87.48Zm37.44-.5-.15-.26.86-.5.15.26Zm-39.19-.49-.85-.53.16-.25.85.52Zm40.9-.54-.16-.25.83-.54.17.25Zm-42.6-.54-.82-.57.17-.24.82.57ZM311,349l-.17-.24.8-.59.18.24Zm-45.89-.58-.79-.61.19-.24.79.61Zm47.49-.62-.19-.24.77-.63.19.23Zm-49.06-.62-.76-.65.2-.22.76.65Zm50.6-.66-.2-.22.74-.67.2.22Zm-52.1-.66-.73-.69.21-.21.72.68Zm53.57-.7-.21-.21.7-.7.21.21Zm-55-.7-.69-.72.22-.21.69.72Zm56.4-.74-.22-.2.67-.74.23.2ZM259.26,343l-.65-.76.23-.19.65.75Zm59.09-.77-.23-.19.63-.77.24.19ZM258,341.49l-.61-.79.24-.18.61.78Zm61.62-.81-.24-.18.59-.8.24.17Zm-62.82-.79-.57-.82.25-.17.57.82Zm64-.84-.25-.17.55-.83.25.16Zm-65.1-.82-.53-.85.26-.15.52.84Zm66.18-.87-.26-.15.5-.86.26.15Zm-67.21-.84-.48-.87.26-.14.48.87Zm68.2-.91-.26-.14.46-.88.27.13Zm-69.15-.86q-.22-.45-.44-.9l.27-.13c.14.3.29.6.43.89Zm70-.94-.27-.13q.21-.45.41-.91l.27.12Q323.94,333.37,323.72,333.82Zm-70.9-.87q-.2-.46-.39-.92l.28-.11c.13.31.25.61.39.91Zm71.7-1-.28-.11c.13-.31.25-.62.36-.93l.28.11Q324.72,331.52,324.53,332Zm-72.46-.88q-.18-.47-.34-.94l.28-.1q.16.47.34.93Zm73.17-1L325,330q.16-.47.32-.95l.29.09Q325.4,329.63,325.24,330.1Zm-73.83-.89c-.1-.32-.2-.64-.29-1l.29-.08q.14.48.29.95Zm74.44-1-.29-.08c.09-.32.18-.64.27-1l.29.08Q326,327.71,325.85,328.19Zm-75-.9c-.09-.32-.17-.65-.24-1l.29-.07q.11.48.24,1Zm75.51-1-.29-.07c.08-.32.15-.65.21-1l.29.06Q326.47,325.77,326.36,326.25Zm-76-.91q-.1-.49-.19-1l.29-.05q.09.49.19,1Zm76.38-1-.29-.05c.06-.33.11-.65.16-1l.3,0Q326.85,323.8,326.76,324.29ZM250,323.37q-.08-.5-.14-1l.3,0q.06.49.14,1Zm77-1.06-.3,0q.06-.49.11-1l.3,0C327.15,321.65,327.11,322,327.07,322.31Zm-77.3-.93q-.05-.5-.09-1l.3,0c0,.33.06.66.09,1Zm77.5-1.06-.3,0q0-.49.06-1l.3,0Q327.31,319.82,327.27,320.32Zm-77.66-.93q0-.5,0-1h.3c0,.33,0,.66,0,1Zm77.76-1.07h-.3q0-.5,0-1v-.13h.3v.13C327.39,317.65,327.38,318,327.37,318.32Zm-77.51-.94h-.3v-.06c0-.32,0-.63,0-.94h.3c0,.31,0,.62,0,.93Zm77.21-1.19q0-.5,0-1l.3,0c0,.33,0,.66,0,1Zm-77.16-.8h-.3c0-.33,0-.67.06-1l.3,0C249.94,314.73,249.92,315.06,249.9,315.4ZM327,314.21q0-.5-.09-1l.3,0c0,.33.07.66.09,1Zm-76.91-.79-.3,0c0-.33.07-.67.11-1l.3,0Q250.1,312.92,250.05,313.41Zm76.7-1.18c0-.33-.09-.66-.14-1l.3,0q.08.49.14,1Zm-76.45-.79-.3,0q.08-.5.16-1l.29.05Q250.38,311,250.3,311.44Zm76.14-1.17c-.06-.33-.12-.65-.19-1l.29-.06q.1.49.19,1Zm-75.79-.78-.29-.06c.07-.33.14-.65.21-1l.29.07Q250.75,309,250.65,309.49ZM326,308.32q-.12-.48-.24-1l.29-.08q.13.48.25,1Zm-74.93-.77-.29-.08q.13-.48.27-1l.29.08Q251.23,307.07,251.1,307.55Zm74.42-1.15q-.14-.48-.29-.95l.29-.09q.15.48.3,1Zm-73.87-.76-.29-.09c.1-.32.21-.64.32-1l.28.1Q251.81,305.17,251.65,305.64Zm73.26-1.13q-.16-.47-.34-.93l.28-.11q.18.47.34.94Zm-72.6-.76-.28-.11q.18-.47.37-.94l.28.11Q252.48,303.29,252.31,303.76Zm71.9-1.1q-.19-.46-.39-.91l.27-.12q.2.46.39.92Zm-71.15-.74-.28-.12q.2-.46.41-.92l.27.13Zm70.35-1.07q-.21-.45-.43-.89l.27-.13q.22.45.44.9Zm-69.51-.74-.27-.13q.22-.45.46-.89l.26.14Zm68.61-1-.48-.87.26-.15.48.87Zm-67.68-.73-.26-.15.5-.87.26.15Zm66.7-1-.52-.84.25-.16.53.85Zm-65.67-.71-.25-.16.55-.84.25.17Zm64.6-1-.57-.81.24-.18.57.82ZM257,295l-.24-.17.59-.81.24.18Zm62.34-.92-.61-.78.23-.19.61.79Zm-61.14-.67-.24-.19.63-.78.23.19Zm59.91-.88-.65-.75.22-.2.65.76Zm-58.63-.65-.23-.2.67-.74.22.2Zm57.32-.84-.69-.72.21-.21.69.72Zm-56-.62-.21-.21.71-.71.21.21Zm54.58-.8-.72-.68.2-.22.73.69ZM262.2,289l-.2-.22.74-.67.2.22Zm51.7-.76-.76-.65.19-.23.76.65Zm-50.21-.55-.19-.23.78-.63.19.23Zm48.68-.72-.79-.61.18-.24.79.61Zm-47.12-.52-.18-.24.81-.59.17.24Zm45.53-.67-.82-.56.17-.25.83.57Zm-43.92-.48-.17-.25.84-.55.16.25Zm42.26-.63-.85-.52.15-.26.85.53Zm-40.59-.44-.16-.26.86-.51.15.26Zm38.88-.58-.87-.48.14-.27.88.48Zm-37.16-.4-.14-.26.89-.46.13.27Zm35.4-.53-.9-.43.13-.27.9.44ZM272,282.37l-.13-.27.91-.41.12.28Zm31.83-.48-.92-.39.11-.28.93.39Zm-30-.31-.11-.28.93-.37.11.28Zm28.16-.43-.94-.34.1-.28.95.34Zm-26.31-.27-.1-.28.95-.32.09.29Zm24.42-.38-1-.29.08-.29,1,.29Zm-22.53-.23-.08-.29,1-.27.08.29Zm20.62-.32-1-.24.07-.29,1,.24Zm-18.7-.19-.07-.29,1-.22.06.29Zm16.76-.26-1-.19.05-.29,1,.19Zm-14.82-.15-.05-.29,1-.17,0,.3Zm12.86-.2-1-.14,0-.3,1,.14Zm-10.9-.11,0-.3,1-.12,0,.3Zm8.92-.14-1-.09,0-.3,1,.09Zm-6.95-.07,0-.3,1-.07,0,.3Zm5-.08-1,0v-.3l1,0Zm-3,0v-.3h1v.3Z"/><path class="cls-2" d="M210.51,356.23v-.3h1v.3Zm-1,0-1,0v-.3l1,0Zm3,0v-.3l1-.06,0,.3Zm-5-.06-1-.09,0-.3,1,.09Zm7-.09,0-.3,1-.11,0,.3Zm-9-.11-1-.14,0-.3,1,.14Zm11-.15,0-.3,1-.16.05.3Zm-13-.15-1-.19.06-.29,1,.19Zm14.93-.2-.06-.29,1-.22.07.29Zm-16.89-.2-1-.24.08-.29,1,.24Zm18.84-.26-.08-.29,1-.26.08.29Zm-20.78-.25-1-.29.09-.29,1,.29Zm22.7-.31-.09-.29.94-.32.1.28Zm-24.61-.3-.94-.34.11-.28.94.34Zm26.51-.36-.11-.28.92-.36.11.28Zm-28.39-.34-.93-.39.12-.28.92.39Zm30.24-.41-.12-.28.9-.41.13.27ZM194,352.58l-.9-.44.13-.27.9.43Zm33.89-.45-.13-.27.88-.46.14.26Zm-35.68-.44-.88-.48.15-.26.87.48Zm37.44-.5-.15-.26.86-.5.15.26Zm-39.19-.49-.85-.53.16-.25.85.52Zm40.9-.54-.16-.25.83-.54.17.25Zm-42.6-.54-.82-.57.17-.24.82.57ZM233,349l-.17-.24.8-.59.18.24Zm-45.89-.58-.79-.61.19-.24.79.61Zm47.49-.62-.19-.24.77-.63.19.23Zm-49.06-.62-.76-.65.2-.22.76.65Zm50.6-.66-.2-.22.74-.67.2.22Zm-52.1-.66-.73-.69.21-.21.72.68Zm53.57-.7-.21-.21.7-.7.21.21Zm-55-.7-.69-.72.22-.21.69.72Zm56.4-.74-.22-.2.67-.74.23.2ZM181.26,343l-.65-.76.23-.19.65.75Zm59.09-.77-.23-.19.63-.77.24.19ZM180,341.49l-.61-.79.24-.18.61.78Zm61.62-.81-.24-.18.59-.8.24.17Zm-62.82-.79-.57-.82.25-.17.57.82Zm64-.84-.25-.17.55-.83.25.16Zm-65.1-.82-.53-.85.26-.15.52.84Zm66.18-.87-.26-.15.5-.86.26.15Zm-67.21-.84-.48-.87.26-.14.48.87Zm68.2-.91-.26-.14.46-.88.27.13Zm-69.15-.86q-.22-.45-.44-.9l.27-.13c.14.3.29.6.43.89Zm70-.94-.27-.13q.21-.45.41-.91l.27.12Q245.94,333.37,245.72,333.82Zm-70.9-.87q-.2-.46-.39-.92l.28-.11c.13.31.25.61.39.91Zm71.7-1-.28-.11c.13-.31.25-.62.36-.93l.28.11Q246.72,331.52,246.53,332Zm-72.46-.88q-.18-.47-.34-.94l.28-.1q.16.47.34.93Zm73.17-1L247,330q.16-.47.32-.95l.29.09Q247.4,329.63,247.24,330.1Zm-73.83-.89c-.1-.32-.2-.64-.29-1l.29-.08q.14.48.29.95Zm74.44-1-.29-.08c.09-.32.18-.64.27-1l.29.08Q248,327.71,247.85,328.19Zm-75-.9c-.09-.32-.17-.65-.24-1l.29-.07q.11.48.24,1Zm75.51-1-.29-.07c.08-.32.15-.65.21-1l.29.06Q248.47,325.77,248.36,326.25Zm-76-.91q-.1-.49-.19-1l.29-.05q.09.49.19,1Zm76.38-1-.29-.05c.06-.33.11-.65.16-1l.3,0Q248.85,323.8,248.76,324.29ZM172,323.37q-.08-.5-.14-1l.3,0q.06.49.14,1Zm77-1.06-.3,0q.06-.49.11-1l.3,0C249.15,321.65,249.11,322,249.07,322.31Zm-77.3-.93q-.05-.5-.09-1l.3,0c0,.33.06.66.09,1Zm77.5-1.06-.3,0q0-.49.06-1l.3,0Q249.31,319.82,249.27,320.32Zm-77.66-.93q0-.5,0-1h.3c0,.33,0,.66,0,1Zm77.76-1.07h-.3q0-.5,0-1v-.13h.3v.13C249.39,317.65,249.38,318,249.37,318.32Zm-77.51-.94h-.3v-.06c0-.32,0-.63,0-.94h.3c0,.31,0,.62,0,.93Zm77.21-1.19q0-.5,0-1l.3,0c0,.33,0,.66,0,1Zm-77.16-.8h-.3c0-.33,0-.67.06-1l.3,0C171.94,314.73,171.92,315.06,171.9,315.4ZM249,314.21q0-.5-.09-1l.3,0c0,.33.07.66.09,1Zm-76.91-.79-.3,0c0-.33.07-.67.11-1l.3,0Q172.1,312.92,172.05,313.41Zm76.7-1.18c0-.33-.09-.66-.14-1l.3,0q.08.49.14,1Zm-76.45-.79-.3,0q.08-.5.16-1l.29.05Q172.38,311,172.3,311.44Zm76.14-1.17c-.06-.33-.12-.65-.19-1l.29-.06q.1.49.19,1Zm-75.79-.78-.29-.06c.07-.33.14-.65.21-1l.29.07Q172.75,309,172.65,309.49ZM248,308.32q-.12-.48-.24-1l.29-.08q.13.48.25,1Zm-74.93-.77-.29-.08q.13-.48.27-1l.29.08Q173.23,307.07,173.1,307.55Zm74.42-1.15q-.14-.48-.29-.95l.29-.09q.15.48.3,1Zm-73.87-.76-.29-.09c.1-.32.21-.64.32-1l.28.1Q173.81,305.17,173.65,305.64Zm73.26-1.13q-.16-.47-.34-.93l.28-.11q.18.47.34.94Zm-72.6-.76-.28-.11q.18-.47.37-.94l.28.11Q174.48,303.29,174.31,303.76Zm71.9-1.1q-.19-.46-.39-.91l.27-.12q.2.46.39.92Zm-71.15-.74-.28-.12q.2-.46.41-.92l.27.13Zm70.35-1.07q-.21-.45-.43-.89l.27-.13q.22.45.44.9Zm-69.51-.74-.27-.13q.22-.45.46-.89l.26.14Zm68.61-1-.48-.87.26-.15.48.87Zm-67.68-.73-.26-.15.5-.87.26.15Zm66.7-1-.52-.84.25-.16.53.85Zm-65.67-.71-.25-.16.55-.84.25.17Zm64.6-1-.57-.81.24-.18.57.82ZM179,295l-.24-.17.59-.81.24.18Zm62.34-.92-.61-.78.23-.19.61.79Zm-61.14-.67-.24-.19.63-.78.23.19Zm59.91-.88-.65-.75.22-.2.65.76Zm-58.63-.65-.23-.2.67-.74.22.2Zm57.32-.84-.69-.72.21-.21.69.72Zm-56-.62-.21-.21.71-.71.21.21Zm54.58-.8-.72-.68.2-.22.73.69ZM184.2,289l-.2-.22.74-.67.2.22Zm51.7-.76-.76-.65.19-.23.76.65Zm-50.21-.55-.19-.23.78-.63.19.23Zm48.68-.72-.79-.61.18-.24.79.61Zm-47.12-.52-.18-.24.81-.59.17.24Zm45.53-.67-.82-.56.17-.25.83.57Zm-43.92-.48-.17-.25.84-.55.16.25Zm42.26-.63-.85-.52.15-.26.85.53Zm-40.59-.44-.16-.26.86-.51.15.26Zm38.88-.58-.87-.48.14-.27.88.48Zm-37.16-.4-.14-.26.89-.46.13.27Zm35.4-.53-.9-.43.13-.27.9.44ZM194,282.37l-.13-.27.91-.41.12.28Zm31.83-.48-.92-.39.11-.28.93.39Zm-30-.31-.11-.28.93-.37.11.28Zm28.16-.43-.94-.34.1-.28.95.34Zm-26.31-.27-.1-.28.95-.32.09.29Zm24.42-.38-1-.29.08-.29,1,.29Zm-22.53-.23-.09-.29,1-.27.08.29Zm20.62-.32-1-.24.07-.29,1,.24Zm-18.7-.19-.07-.29,1-.22.06.29Zm16.76-.26-1-.19.05-.29,1,.19Zm-14.82-.15-.05-.29,1-.17,0,.3Zm12.86-.2-1-.14,0-.3,1,.14Zm-10.9-.11,0-.3,1-.12,0,.3Zm8.92-.14-1-.09,0-.3,1,.09Zm-6.95-.07,0-.3,1-.07,0,.3Zm5-.08-1,0v-.3l1,0Zm-3,0v-.3h1v.3Z"/><path class="cls-2" d="M250,264.31A14.31,14.31,0,1,1,264.33,250,14.33,14.33,0,0,1,250,264.31ZM250,236a14,14,0,1,0,14,14A14,14,0,0,0,250,236Z"/><path class="cls-2" d="M250,317.86A67.86,67.86,0,1,1,317.87,250,67.93,67.93,0,0,1,250,317.86Zm0-135.41A67.56,67.56,0,1,0,317.57,250,67.63,67.63,0,0,0,250,182.44Z"/><path class="cls-2" d="M250,297.27A47.27,47.27,0,1,1,297.29,250,47.32,47.32,0,0,1,250,297.27ZM250,203a47,47,0,1,0,47,47A47,47,0,0,0,250,203Z"/><path class="cls-2" d="M216.86,245.7a14.76,14.76,0,1,1,14.76-14.76A14.77,14.77,0,0,1,216.86,245.7Zm0-29.21a14.46,14.46,0,1,0,14.46,14.46A14.47,14.47,0,0,0,216.86,216.49Z"/><path class="cls-2" d="M282.85,284a14.76,14.76,0,1,1,14.76-14.76A14.77,14.77,0,0,1,282.85,284Zm0-29.21a14.46,14.46,0,1,0,14.46,14.46A14.47,14.47,0,0,0,282.85,254.75Z"/><path class="cls-2" d="M216.86,284a14.76,14.76,0,1,1,14.76-14.76A14.77,14.77,0,0,1,216.86,284Zm0-29.21a14.46,14.46,0,1,0,14.46,14.46A14.47,14.47,0,0,0,216.86,254.75Z"/><g class="cls-5"><path class="cls-2" d="M376,130.39c-4.32,1.84-6.37.75-7.8-.56s-2.69-3.25-1.2-7.82c1.92-5.89,3.31-10.15-.34-13.48l-2.43,2.65c1.86,1.7,1.14,4.21-.69,9.82-1.06,3.25-1.07,6-.06,8.3a12.26,12.26,0,1,0,5.66,5.18c2.4.8,5.15.54,8.36-.83,5.33-2.28,7.77-3.21,9.63-1.51l2.43-2.65C386,126.16,381.84,127.91,376,130.39Zm-11.15,15.94a8.66,8.66,0,1,1-.54-12.24A8.67,8.67,0,0,1,364.89,146.33Z"/><path class="cls-2" d="M277.54,72.44a7.44,7.44,0,0,1,7.27-1.64c4.7,1.33,9.05,6.35,7.8,21,6.61-13.13,12.95-15.13,17.65-13.8a7.44,7.44,0,0,1,5.33,5.21c1.27,4.38-.91,9.83-3.71,12.94l-2.67-2.4c2.41-2.68,3.69-6.87,2.92-9.54a3.81,3.81,0,0,0-2.85-2.75c-3.31-.94-12,.42-21.24,33.1l-3.46-1c9.25-32.68,2.56-38.39-.75-39.32a3.81,3.81,0,0,0-3.87.84c-2.06,1.87-3.16,6.11-2.51,9.66l-3.53.65C273.16,81.29,274.16,75.51,277.54,72.44Z"/><path class="cls-2" d="M191.8,95.55l8.54-2.43c-4.06-12.64-11.66-13.89-11.74-13.9l.5-3.56c.42.06,10,1.57,14.71,16.47l6.91-2c-3.81-15.16,3.53-21.48,3.85-21.75l1.15,1.38,1.16,1.37c-.25.22-5.84,5.28-2.69,18l8.54-2.43,1,3.46-8.51,2.42c4.2,12.11,12,14.91,12.33,15l-1.13,3.41c-.42-.14-9.85-3.4-14.65-17.46l-7,2c3.31,14.48-3,22.22-3.28,22.55l-2.75-2.32c.23-.28,5.38-6.74,2.57-19.25L192.79,99Z"/><path class="cls-2" d="M144.76,136.21l-8.7-1.39-2.61,12.89-8.7-1.39-3,14.58,3.52.71,2.27-11.2,8.7,1.39,2.61-12.89,8.7,1.39,2.61-12.89,7,1.12.57-3.55-10.4-1.66Zm-28.29,3.26,8.7,1.39L127.78,128l8.7,1.39,2.61-12.89,7,1.12.57-3.55-10.4-1.66-2.61,12.89-8.7-1.39-2.61,12.89-8.7-1.39-3,14.58,3.52.71Z"/><path class="cls-2" d="M71.84,201.5c1.46,2.79,4.48,4.19,8.29,3.83,3.24-.31,5.82-2.42,8-4.9a17.89,17.89,0,0,1-1.37,5.81l-3.08,8.88c-2.49,7.19,1.54,11.45,5.76,12.91a12.27,12.27,0,0,0,7.26.24c.3-.09.59-.19.86-.3a5.55,5.55,0,0,0,.51,1.91,6.48,6.48,0,0,0,4.24,3l.36.12,1.18-3.4-.48-.15c-.77-.24-1.73-.53-2.09-1.24s-.25-1.84.27-3.35l8.1-23.36-3.4-1.18-7.65,22.08c-.88,2.53-4.93,3.24-8,2.19a6.12,6.12,0,0,1-3.49-2.78,6.84,6.84,0,0,1,0-5.56l3.07-8.87c1.15-3.3,2.44-7,.76-10.56l.39-.53c1.14-1.57,3-4.19,3.78-4.26l6.23,2.16,1.18-3.4-6.23-2.16c-3-1-5.26,2-7.65,5.24a19.07,19.07,0,0,0-6.67-3.45c-3.6-1.17-6.88-.39-9,2.14A8.22,8.22,0,0,0,71.84,201.5Zm3.82-6.58c1.16-1.37,3-1.74,5.16-1a15.27,15.27,0,0,1,5.63,2.93c-2,2.51-4.16,4.71-6.67,4.94-2.34.22-4-.44-4.76-1.92A4.61,4.61,0,0,1,75.66,194.91Z"/><polygon class="cls-2" points="99.37 292.24 102.61 300.13 99.29 301.5 96.05 293.61 75.33 302.12 89.51 308.04 88.12 311.36 68.29 303.07 76.57 283.24 79.89 284.62 73.97 298.79 94.68 290.28 91.44 282.4 94.77 281.03 98.01 288.92 112.15 283.11 113.51 286.43 99.37 292.24"/><path class="cls-2" d="M133.93,390.48l-2.64,2.44c-.72-.78-2.38-2.57-2.24-5a7.45,7.45,0,0,1-6.49-7.19,6.88,6.88,0,0,1-4.67-2.31c-2.22-2.4-3.28-6.18.41-9.6l18.54-17.17c3.48-3.23,3.35-4.06-1.38-9.23l-1.92,1.78-.19-6.71,6.67.71L138.09,340c4.78,5.23,7.21,8.73,1.19,14.31l-18.54,17.17c-1.1,1-2.12,2.46-.21,4.52a2.74,2.74,0,0,0,4.37.13h0l.08-.08,18.54-17.17,2.44,2.64L127.42,378.7c-1.1,1-2.12,2.46-.21,4.52a2.74,2.74,0,0,0,4.37.13h0l.08-.08L150.2,366.1l2.44,2.64L134.1,385.91C131.85,388,132.57,389,133.93,390.48Z"/><path class="cls-2" d="M274,393.1a2.7,2.7,0,0,1,2.28.41,4.44,4.44,0,0,1,1.1,1.12,21.8,21.8,0,0,0-4.58,9.57c-1.36,6.26-.2,12.25,2.88,14.9,2.77,2.38,6.59,1.78,9.15.14l.11-.08,1,3.37c1.41,4.83,5.26,5.58,8.4,4.66A6.88,6.88,0,0,0,298.5,424a7.45,7.45,0,0,0,9.34-2.58c2.07,1.19,4.41.51,5.44.21l-1-3.45c-1.92.56-3.14.75-4-2.2l-7.06-24.26-3.45,1L304.81,417l0,.11h0a2.74,2.74,0,0,1-2.07,3.85c-2.7.79-3.53-.77-3.95-2.21l-7.06-24.26-3.45,1,7.06,24.26,0,.11h0a2.74,2.74,0,0,1-2.07,3.85c-2.7.79-3.53-.77-3.95-2.21L282,396c-.07-.23-.16-.43-.24-.65a12.72,12.72,0,0,1,4.74-2.56l-1-3.45a16.25,16.25,0,0,0-5.47,2.82,7.83,7.83,0,0,0-1.7-1.62,6.33,6.33,0,0,0-5.28-.87c-3.19.93-5.66,4.49-4.2,9.51l3.45-1C271.42,395.28,272.58,393.52,274,393.1Zm9.83,22.23a4.19,4.19,0,0,1-2.52,1.58,3.59,3.59,0,0,1-3.28-.54c-2-1.73-2.75-6.64-1.71-11.41a20,20,0,0,1,2.62-6.45Z"/><path class="cls-2" d="M346.36,356.77c2.31,0,5.55,3.27,7.08,12.6,1.31,8,6,14.3,11.85,16.12,4.39,1.36,8.81,0,12.42-3.78,3.38-3.55,4.4-7.84,2.85-12.08a17.37,17.37,0,0,0-8.25-8.89,9.13,9.13,0,1,0-6.48,1.63h0c4.83.54,9.81,4.27,11.35,8.49,1.08,3,.38,5.79-2.08,8.37-2.68,2.8-5.69,3.77-8.75,2.83-4.53-1.4-8.29-6.73-9.37-13.26-.6-3.68-3.16-15.67-10.65-15.61A6.33,6.33,0,0,0,342,355a9.07,9.07,0,0,0-2.61,5.3l3.55.53C343.29,358.48,344.73,356.78,346.36,356.77Zm16.62.34a5.54,5.54,0,1,1,7.83.23A5.55,5.55,0,0,1,363,357.11Z"/><path class="cls-2" d="M402.18,278.07a9.27,9.27,0,0,0,17,5.1,49.53,49.53,0,0,1,1.4,11.53,45.94,45.94,0,0,1-4.08,19.57l3.18,1.68c.19-.35,4.53-8.73,4.5-21.26s-4.42-20.88-4.61-21.23l0,0a9.27,9.27,0,0,0-17.34,4.59Zm15,0a5.68,5.68,0,1,1-5.7-5.67A5.69,5.69,0,0,1,417.14,278ZM403.25,317a9.28,9.28,0,1,0-7.76-14.4A49.59,49.59,0,0,1,394.1,291a45.94,45.94,0,0,1,4.08-19.57L395,269.77c-.19.35-4.53,8.73-4.5,21.26s4.42,20.88,4.61,21.23l0,0A9.28,9.28,0,0,0,403.25,317Zm-5.71-9.26a5.68,5.68,0,1,1,5.7,5.67A5.69,5.69,0,0,1,397.54,307.69Z"/><path class="cls-2" d="M423.88,215.07a47.24,47.24,0,0,0,5.54,9.68l2.79-2.26c0-.06-4.53-5.69-8-16.66s-3.07-18.15-3.06-18.22l-3.59-.24a47.22,47.22,0,0,0,1.06,11.11l-28.72,9.11a47.24,47.24,0,0,0-5.54-9.68l-2.79,2.26c0,.06,4.53,5.69,8,16.66S392.64,235,392.64,235l3.59.24a47.24,47.24,0,0,0-1.06-11.11Zm-29.5,5.59c-.38-1.55-.83-3.18-1.38-4.92s-1.13-3.33-1.71-4.82L419.4,202c.38,1.55.83,3.18,1.38,4.92s1.13,3.33,1.71,4.82Z"/><path class="cls-2" d="M232,397l-41.71-11.26-.94,3.47L231,400.44Zm-33.69,7.15a13.52,13.52,0,0,0-5.75,7.7c-1.76,6.53,2,12.44,9.17,14.37s13.39-1.28,15.16-7.81a13.52,13.52,0,0,0-1.09-9.55l12.11,3.27.94-3.47-18.11-4.89-.93,3.46.92.74a9.86,9.86,0,0,1,2.7,9.51c-1.23,4.56-5.55,6.68-10.75,5.28s-7.87-5.41-6.64-10a9.86,9.86,0,0,1,7.12-6.86l1.16-.18.93-3.46-18.11-4.89-.94,3.47Z"/></g><text class="cls-6" transform="translate(257.24 128.13) rotate(3.98)"> </text><text class="cls-6" transform="matrix(1, 0.09, -0.09, 1, 259.35, 128.27)"> </text><text class="cls-6" transform="matrix(0.99, 0.1, -0.1, 0.99, 261.49, 128.46)"> </text><text class="cls-6" transform="translate(263.6 128.68) rotate(6.99)"> </text><text class="cls-6" transform="matrix(0.99, 0.14, -0.14, 0.99, 265.71, 128.94)"> </text><text class="cls-6" transform="translate(267.8 129.23) rotate(8.98)"> </text><text class="cls-6" transform="translate(269.9 129.56) rotate(9.98)"> </text><text class="cls-6" transform="matrix(0.98, 0.2, -0.2, 0.98, 271.99, 129.9)">A</text><text class="cls-6" transform="translate(277.18 130.97) rotate(14.3)">R</text><text class="cls-6" transform="translate(282.83 132.46) rotate(15.55)">I</text><text class="cls-6" transform="translate(285.06 133.07) rotate(17.88)">E</text><text class="cls-6" transform="translate(289.85 134.61) rotate(20.26)">S</text><text class="cls-6" transform="translate(294.79 136.46) rotate(21.98)"> </text><text class="cls-6" transform="matrix(0.92, 0.39, -0.39, 0.92, 296.76, 137.25)"> </text><text class="cls-6" transform="matrix(0.91, 0.41, -0.41, 0.91, 298.73, 138.09)"> </text><text class="cls-6" transform="translate(300.66 138.95) rotate(24.97)"> </text><text class="cls-6" transform="matrix(0.9, 0.44, -0.44, 0.9, 302.59, 139.85)"> </text><text class="cls-6" transform="translate(304.5 140.78) rotate(26.97)"> </text><text class="cls-6" transform="translate(306.39 141.74) rotate(27.97)"> </text><text class="cls-6" transform="translate(308.28 142.74) rotate(28.98)"> </text><text class="cls-6" transform="translate(310.14 143.77) rotate(29.99)"> </text><text class="cls-6" transform="translate(311.98 144.83) rotate(30.99)"> </text><text class="cls-6" transform="translate(313.8 145.92) rotate(32)"> </text><text class="cls-6" transform="translate(315.6 147.05) rotate(33)"> </text><text class="cls-6" transform="translate(317.39 148.21) rotate(34.01)"> </text><text class="cls-6" transform="matrix(0.82, 0.57, -0.57, 0.82, 319.16, 149.4)"> </text><text class="cls-6" transform="translate(320.88 150.61) rotate(36.01)"> </text><text class="cls-6" transform="translate(322.62 151.87) rotate(37.03)"> </text><text class="cls-6" transform="translate(324.17 153.01) rotate(38.7)">T</text><text class="cls-6" transform="translate(328.06 156.11) rotate(41.04)">A</text><text class="cls-6" transform="matrix(0.72, 0.69, -0.69, 0.72, 332, 159.53)">U</text><text class="cls-6" transform="translate(336.28 163.61) rotate(46.41)">R</text><text class="cls-6" transform="translate(340.29 167.82) rotate(49.16)">U</text><text class="cls-6" transform="matrix(0.62, 0.79, -0.79, 0.62, 344.17, 172.32)">S</text><text class="cls-6" transform="matrix(0.59, 0.8, -0.8, 0.59, 347.4, 176.46)"> </text><text class="cls-6" transform="matrix(0.58, 0.81, -0.81, 0.58, 348.67, 178.17)"> </text><text class="cls-6" transform="matrix(0.57, 0.82, -0.82, 0.57, 349.91, 179.91)"> </text><text class="cls-6" transform="translate(351.11 181.66) rotate(56.49)"> </text><text class="cls-6" transform="translate(352.29 183.44) rotate(57.48)"> </text><text class="cls-6" transform="matrix(0.52, 0.85, -0.85, 0.52, 353.42, 185.22)"> </text><text class="cls-6" transform="matrix(0.51, 0.86, -0.86, 0.51, 354.55, 187.05)"> </text><text class="cls-6" transform="translate(355.62 188.86) rotate(60.45)"> </text><text class="cls-6" transform="translate(356.67 190.71) rotate(61.44)"> </text><text class="cls-6" transform="matrix(0.46, 0.89, -0.89, 0.46, 357.69, 192.58)"> </text><text class="cls-6" transform="translate(358.67 194.47) rotate(63.43)"> </text><text class="cls-6" transform="translate(359.62 196.37) rotate(64.42)"> </text><text class="cls-6" transform="translate(360.54 198.29) rotate(65.42)"> </text><text class="cls-6" transform="translate(361.43 200.23) rotate(66.41)"> </text><text class="cls-6" transform="matrix(0.37, 0.93, -0.93, 0.37, 362.3, 202.13)">G</text><text class="cls-6" transform="translate(364.54 207.8) rotate(70.93)">E</text><text class="cls-6" transform="translate(366.22 212.56) rotate(73.9)">M</text><text class="cls-6" transform="matrix(0.24, 0.97, -0.97, 0.24, 368.29, 219.92)">I</text><text class="cls-6" transform="matrix(0.2, 0.98, -0.98, 0.2, 368.88, 222.15)">N</text><text class="cls-6" transform="translate(370.13 228.33) rotate(80.28)">I</text><text class="cls-6" transform="matrix(0.15, 0.99, -0.99, 0.15, 370.52, 230.62)"> </text><text class="cls-6" transform="translate(370.84 232.7) rotate(82.32)"> </text><text class="cls-6" transform="translate(371.12 234.82) rotate(83.33)"> </text><text class="cls-6" transform="matrix(0.1, 1, -1, 0.1, 371.37, 236.94)"> </text><text class="cls-6" transform="translate(371.58 239.05) rotate(85.34)"> </text><text class="cls-6" transform="translate(371.75 241.16) rotate(86.34)"> </text><text class="cls-6" transform="translate(371.89 243.28) rotate(87.35)"> </text><text class="cls-6" transform="matrix(0.03, 1, -1, 0.03, 371.99, 245.41)"> </text><text class="cls-6" transform="translate(372.05 247.54) rotate(89.36)"> </text><text class="cls-6" transform="translate(372.07 249.66) rotate(90.37)"> </text><text class="cls-6" transform="translate(372.06 251.8) rotate(91.38)"> </text><text class="cls-6" transform="translate(372.01 253.92) rotate(92.38)"> </text><text class="cls-6" transform="translate(371.92 256.05) rotate(93.39)"> </text><text class="cls-6" transform="matrix(-0.08, 1, -1, -0.08, 371.79, 258.15)"> </text><text class="cls-6" transform="translate(371.63 260.26) rotate(95.38)"> </text><text class="cls-6" transform="matrix(-0.13, 0.99, -0.99, -0.13, 371.46, 262.38)">C</text><text class="cls-6" transform="matrix(-0.17, 0.99, -0.99, -0.17, 370.74, 268.08)">A</text><text class="cls-6" transform="translate(369.84 273.32) rotate(102.55)">N</text><text class="cls-6" transform="translate(368.47 279.45) rotate(105.34)">C</text><text class="cls-6" transform="translate(366.94 285) rotate(107.82)">E</text><text class="cls-6" transform="translate(365.4 289.83) rotate(110.35)">R</text><text class="cls-6" transform="translate(363.34 295.3) rotate(112.21)"> </text><text class="cls-6" transform="translate(362.54 297.26) rotate(113.2)"> </text><text class="cls-6" transform="matrix(-0.41, 0.91, -0.91, -0.41, 361.7, 299.21)"> </text><text class="cls-6" transform="matrix(-0.43, 0.9, -0.9, -0.43, 360.84, 301.13)"> </text><text class="cls-6" transform="translate(359.93 303.06) rotate(116.19)"> </text><text class="cls-6" transform="translate(359 304.96) rotate(117.19)"> </text><text class="cls-6" transform="translate(358.02 306.87) rotate(118.2)"> </text><text class="cls-6" transform="translate(357.01 308.75) rotate(119.2)"> </text><text class="cls-6" transform="translate(355.98 310.59) rotate(120.2)"> </text><text class="cls-6" transform="translate(354.91 312.43) rotate(121.2)"> </text><text class="cls-6" transform="translate(353.8 314.26) rotate(122.22)"> </text><text class="cls-6" transform="translate(352.68 316.05) rotate(123.22)"> </text><text class="cls-6" transform="matrix(-0.56, 0.83, -0.83, -0.56, 351.52, 317.82)"> </text><text class="cls-6" transform="matrix(-0.58, 0.82, -0.82, -0.58, 350.32, 319.58)"> </text><text class="cls-6" transform="translate(349.1 321.32) rotate(126.23)"> </text><text class="cls-6" transform="matrix(-0.61, 0.8, -0.8, -0.61, 347.84, 323.03)"> </text><text class="cls-6" transform="matrix(-0.62, 0.79, -0.79, -0.62, 346.56, 324.72)"> </text><text class="cls-6" transform="matrix(-0.63, 0.77, -0.77, -0.63, 345.23, 326.4)"> </text><text class="cls-6" transform="matrix(-0.65, 0.76, -0.76, -0.65, 343.88, 328.05)"> </text><text class="cls-6" transform="matrix(-0.67, 0.75, -0.75, -0.67, 342.55, 329.66)">L</text><text class="cls-6" transform="matrix(-0.7, 0.72, -0.72, -0.7, 339.49, 333.09)">E</text><text class="cls-6" transform="translate(335.98 336.72) rotate(136.69)">O</text><text class="cls-6" transform="translate(331.63 340.78) rotate(138.58)"> </text><text class="cls-6" transform="matrix(-0.76, 0.65, -0.65, -0.76, 330.04, 342.18)"> </text><text class="cls-6" transform="matrix(-0.77, 0.64, -0.64, -0.77, 328.43, 343.55)"> </text><text class="cls-6" transform="translate(326.79 344.91) rotate(141.56)"> </text><text class="cls-6" transform="translate(325.11 346.23) rotate(142.56)"> </text><text class="cls-6" transform="translate(323.44 347.51) rotate(143.54)"> </text><text class="cls-6" transform="matrix(-0.81, 0.58, -0.58, -0.81, 321.72, 348.78)"> </text><text class="cls-6" transform="translate(319.99 350.02) rotate(145.54)"> </text><text class="cls-6" transform="matrix(-0.83, 0.55, -0.55, -0.83, 318.23, 351.22)"> </text><text class="cls-6" transform="matrix(-0.84, 0.54, -0.54, -0.84, 316.46, 352.4)"> </text><text class="cls-6" transform="matrix(-0.85, 0.52, -0.52, -0.85, 314.68, 353.53)"> </text><text class="cls-6" transform="translate(312.85 354.65) rotate(149.51)"> </text><text class="cls-6" transform="matrix(-0.87, 0.49, -0.49, -0.87, 311.03, 355.72)"> </text><text class="cls-6" transform="translate(309.18 356.77) rotate(151.49)"> </text><text class="cls-6" transform="translate(307.31 357.78) rotate(152.48)"> </text><text class="cls-6" transform="matrix(-0.89, 0.45, -0.45, -0.89, 305.42, 358.77)"> </text><text class="cls-6" transform="matrix(-0.9, 0.43, -0.43, -0.9, 303.52, 359.72)"> </text><text class="cls-6" transform="translate(301.62 360.63) rotate(155.45)"> </text><text class="cls-6" transform="matrix(-0.92, 0.4, -0.4, -0.92, 299.66, 361.52)"> </text><text class="cls-6" transform="translate(297.73 362.36) rotate(157.44)"> </text><text class="cls-6" transform="translate(295.76 363.18) rotate(158.43)"> </text><text class="cls-6" transform="translate(293.78 363.97) rotate(159.43)"> </text><text class="cls-6" transform="matrix(-0.95, 0.32, -0.32, -0.95, 291.82, 364.73)">V</text><text class="cls-6" transform="matrix(-0.96, 0.29, -0.29, -0.96, 286.77, 366.43)">I</text><text class="cls-6" transform="translate(284.6 367.12) rotate(164.85)">R</text><text class="cls-6" transform="translate(278.99 368.65) rotate(167.65)">G</text><text class="cls-6" transform="matrix(-0.99, 0.17, -0.17, -0.99, 273.01, 369.96)">O</text><text class="cls-6" transform="matrix(-0.99, 0.13, -0.13, -0.99, 267.16, 370.91)"> </text><text class="cls-6" transform="translate(265.06 371.19) rotate(173.37)"> </text><text class="cls-6" transform="translate(262.94 371.44) rotate(174.38)"> </text><text class="cls-6" transform="matrix(-1, 0.08, -0.08, -1, 260.83, 371.64)"> </text><text class="cls-6" transform="matrix(-1, 0.06, -0.06, -1, 258.72, 371.81)"> </text><text class="cls-6" transform="translate(256.57 371.95) rotate(177.4)"> </text><text class="cls-6" transform="translate(254.47 372.05) rotate(178.4)"> </text><text class="cls-6" transform="translate(252.34 372.11) rotate(179.41)"> </text><text class="cls-6" transform="matrix(-1, -0.01, 0.01, -1, 250.2, 372.13)"> </text><text class="cls-6" transform="matrix(-1, -0.02, 0.02, -1, 248.08, 372.11)"> </text><text class="cls-6" transform="translate(245.96 372.06) rotate(-177.57)"> </text><text class="cls-6" transform="translate(243.83 371.97) rotate(-176.57)"> </text><text class="cls-6" transform="translate(241.72 371.84) rotate(-175.57)"> </text><text class="cls-6" transform="matrix(-1, -0.09, 0.09, -1, 239.59, 371.68)"> </text><text class="cls-6" transform="translate(237.48 371.48) rotate(-173.56)"> </text><text class="cls-6" transform="translate(235.37 371.24) rotate(-172.56)"> </text><text class="cls-6" transform="matrix(-0.99, -0.15, 0.15, -0.99, 233.25, 370.96)"> </text><text class="cls-6" transform="translate(231.16 370.65) rotate(-170.57)"> </text><text class="cls-6" transform="matrix(-0.98, -0.19, 0.19, -0.98, 229.08, 370.33)">L</text><text class="cls-6" transform="translate(224.57 369.43) rotate(-167.39)">I</text><text class="cls-6" transform="translate(222.33 368.96) rotate(-165.61)">B</text><text class="cls-6" transform="translate(217.13 367.65) rotate(-162.6)">R</text><text class="cls-6" transform="translate(211.57 365.93) rotate(-160.46)">A</text><text class="cls-6" transform="translate(206.55 364.12) rotate(-158.73)"> </text><text class="cls-6" transform="matrix(-0.93, -0.38, 0.38, -0.93, 204.57, 363.35)"> </text><text class="cls-6" transform="translate(202.6 362.55) rotate(-156.74)"> </text><text class="cls-6" transform="translate(200.66 361.71) rotate(-155.75)"> </text><text class="cls-6" transform="translate(198.71 360.84) rotate(-154.75)"> </text><text class="cls-6" transform="translate(196.79 359.93) rotate(-153.75)"> </text><text class="cls-6" transform="translate(194.88 358.99) rotate(-152.75)"> </text><text class="cls-6" transform="translate(193 358.02) rotate(-151.75)"> </text><text class="cls-6" transform="matrix(-0.87, -0.49, 0.49, -0.87, 191.12, 357.01)"> </text><text class="cls-6" transform="translate(189.28 355.98) rotate(-149.74)"> </text><text class="cls-6" transform="translate(187.45 354.91) rotate(-148.74)"> </text><text class="cls-6" transform="matrix(-0.85, -0.53, 0.53, -0.85, 185.61, 353.8)"> </text><text class="cls-6" transform="matrix(-0.84, -0.55, 0.55, -0.84, 183.83, 352.67)"> </text><text class="cls-6" transform="translate(182.04 351.5) rotate(-145.71)"> </text><text class="cls-6" transform="matrix(-0.82, -0.58, 0.58, -0.82, 180.28, 350.3)"> </text><text class="cls-6" transform="translate(178.55 349.1) rotate(-142.96)">S</text><text class="cls-6" transform="matrix(-0.77, -0.64, 0.64, -0.77, 174.36, 345.95)">C</text><text class="cls-6" transform="translate(169.92 342.28) rotate(-137.61)">O</text><text class="cls-6" transform="matrix(-0.71, -0.71, 0.71, -0.71, 165.55, 338.29)">R</text><text class="cls-6" transform="matrix(-0.67, -0.74, 0.74, -0.67, 161.45, 334.16)">P</text><text class="cls-6" transform="translate(157.86 330.17) rotate(-130.43)">I</text><text class="cls-6" transform="translate(156.37 328.47) rotate(-128.52)">O</text><text class="cls-6" transform="matrix(-0.6, -0.8, 0.8, -0.6, 152.68, 323.79)"> </text><text class="cls-6" transform="translate(151.41 322.08) rotate(-125.63)"> </text><text class="cls-6" transform="translate(150.17 320.35) rotate(-124.64)"> </text><text class="cls-6" transform="translate(148.97 318.61) rotate(-123.65)"> </text><text class="cls-6" transform="translate(147.79 316.84) rotate(-122.66)"> </text><text class="cls-6" transform="translate(146.64 315.05) rotate(-121.66)"> </text><text class="cls-6" transform="translate(145.52 313.24) rotate(-120.67)"> </text><text class="cls-6" transform="translate(144.44 311.41) rotate(-119.68)"> </text><text class="cls-6" transform="translate(143.39 309.58) rotate(-118.7)"> </text><text class="cls-6" transform="matrix(-0.46, -0.89, 0.89, -0.46, 142.36, 307.69)"> </text><text class="cls-6" transform="matrix(-0.45, -0.89, 0.89, -0.45, 141.38, 305.83)"> </text><text class="cls-6" transform="translate(140.41 303.94) rotate(-114.98)">S</text><text class="cls-6" transform="translate(138.19 299.19) rotate(-112.52)">A</text><text class="cls-6" transform="translate(136.16 294.34) rotate(-109.88)">G</text><text class="cls-6" transform="translate(134.12 288.58) rotate(-107.91)">I</text><text class="cls-6" transform="translate(133.42 286.51) rotate(-106.18)">T</text><text class="cls-6" transform="translate(132.03 281.76) rotate(-103.86)">A</text><text class="cls-6" transform="translate(130.75 276.59) rotate(-101.23)">R</text><text class="cls-6" transform="matrix(-0.16, -0.99, 0.99, -0.16, 129.64, 270.86)">I</text><text class="cls-6" transform="matrix(-0.13, -0.99, 0.99, -0.13, 129.24, 268.61)">U</text><text class="cls-6" transform="translate(128.48 262.72) rotate(-94.74)">S</text><text class="cls-6" transform="translate(128.07 257.47) rotate(-92.99)"> </text><text class="cls-6" transform="matrix(-0.03, -1, 1, -0.03, 127.96, 255.34)"> </text><text class="cls-6" transform="matrix(-0.02, -1, 1, -0.02, 127.89, 253.21)"> </text><text class="cls-6" transform="translate(127.85 251.1) rotate(-89.98)"> </text><text class="cls-6" transform="translate(127.85 248.98) rotate(-88.98)"> </text><text class="cls-6" transform="translate(127.89 246.86) rotate(-87.98)"> </text><text class="cls-6" transform="translate(127.96 244.74) rotate(-86.97)"> </text><text class="cls-6" transform="matrix(0.09, -1, 1, 0.09, 128.04, 242.64)">C</text><text class="cls-6" transform="translate(128.54 236.9) rotate(-82.5)">A</text><text class="cls-6" transform="translate(129.23 231.63) rotate(-80)">P</text><text class="cls-6" transform="translate(130.15 226.38) rotate(-77.4)">R</text><text class="cls-6" transform="matrix(0.25, -0.97, 0.97, 0.25, 131.45, 220.7)">I</text><text class="cls-6" transform="matrix(0.27, -0.96, 0.96, 0.27, 132.03, 218.49)">C</text><text class="cls-6" transform="matrix(0.33, -0.95, 0.95, 0.33, 133.61, 212.94)">O</text><text class="cls-6" transform="translate(135.55 207.33) rotate(-68.22)">R</text><text class="cls-6" transform="translate(137.69 201.95) rotate(-65.4)">N</text><text class="cls-6" transform="translate(140.35 196.22) rotate(-63.42)"> </text><text class="cls-6" transform="translate(141.31 194.3) rotate(-62.41)"> </text><text class="cls-6" transform="translate(142.29 192.43) rotate(-61.41)"> </text><text class="cls-6" transform="translate(143.3 190.57) rotate(-60.41)"> </text><text class="cls-6" transform="matrix(0.51, -0.86, 0.86, 0.51, 144.35, 188.72)"> </text><text class="cls-6" transform="matrix(0.52, -0.85, 0.85, 0.52, 145.43, 186.9)"> </text><text class="cls-6" transform="translate(146.55 185.07) rotate(-57.39)"> </text><text class="cls-6" transform="translate(147.7 183.27) rotate(-56.38)"> </text><text class="cls-6" transform="matrix(0.58, -0.82, 0.82, 0.58, 148.84, 181.52)">A</text><text class="cls-6" transform="matrix(0.62, -0.79, 0.79, 0.62, 151.86, 177.23)">Q</text><text class="cls-6" transform="matrix(0.65, -0.76, 0.76, 0.65, 155.51, 172.57)">U</text><text class="cls-6" transform="matrix(0.69, -0.73, 0.73, 0.69, 159.33, 168.14)">A</text><text class="cls-6" transform="translate(162.95 164.3) rotate(-43.99)">R</text><text class="cls-6" transform="matrix(0.74, -0.67, 0.67, 0.74, 167.18, 160.26)">I</text><text class="cls-6" transform="matrix(0.76, -0.64, 0.64, 0.76, 168.86, 158.7)">U</text><text class="cls-6" transform="translate(173.4 154.88) rotate(-37.53)">S</text><text class="cls-6" transform="translate(177.58 151.7) rotate(-35.81)"> </text><text class="cls-6" transform="matrix(0.82, -0.57, 0.57, 0.82, 179.31, 150.45)"> </text><text class="cls-6" transform="matrix(0.83, -0.56, 0.56, 0.83, 181.06, 149.23)"> </text><text class="cls-6" transform="matrix(0.84, -0.54, 0.54, 0.84, 182.83, 148.05)"> </text><text class="cls-6" transform="translate(184.62 146.89) rotate(-31.83)"> </text><text class="cls-6" transform="matrix(0.86, -0.51, 0.51, 0.86, 186.4, 145.78)"> </text><text class="cls-6" transform="matrix(0.87, -0.5, 0.5, 0.87, 188.25, 144.68)"> </text><text class="cls-6" transform="translate(190.08 143.63) rotate(-28.87)"> </text><text class="cls-6" transform="translate(191.96 142.59) rotate(-27.86)"> </text><text class="cls-6" transform="matrix(0.89, -0.45, 0.45, 0.89, 193.82, 141.61)"> </text><text class="cls-6" transform="translate(195.72 140.64) rotate(-25.89)"> </text><text class="cls-6" transform="matrix(0.91, -0.42, 0.42, 0.91, 197.64, 139.71)"> </text><text class="cls-6" transform="translate(199.57 138.82) rotate(-23.9)"> </text><text class="cls-6" transform="translate(201.51 137.96) rotate(-22.91)"> </text><text class="cls-6" transform="translate(203.42 137.12) rotate(-21.17)">P</text><text class="cls-6" transform="matrix(0.94, -0.33, 0.33, 0.94, 208.45, 135.2)">I</text><text class="cls-6" transform="translate(210.59 134.42) rotate(-17.61)">S</text><text class="cls-6" transform="translate(215.6 132.82) rotate(-15.02)">C</text><text class="cls-6" transform="translate(221.15 131.34) rotate(-12.49)">E</text><text class="cls-6" transform="matrix(0.98, -0.17, 0.17, 0.98, 226.1, 130.24)">S</text></g></g></svg>