<svg xmlns="http://www.w3.org/2000/svg" viewBox="0 0 96 120"><path d="M80.1 71.2c.4-.3.3-.7-.5-2-.3-.4-.5-.8-.7-1.2-.4-.8-.4-1.9-.5-3.3 0-1.4-.1-3-.6-4.8-.2-.9-.3-1.7-.5-2.5-.3-2.6-.7-5-4.8-7.9-3-2.1-4.8-4.1-5.8-5.6h-.2v-.2c-.9-1.3-1.2-2.2-1.2-2.2l1.1-.4s.2.5.6 1.2c1.3-3.8 4.9-11.6 6.1-14.1H55.5c-.6 2-3.4 10.8-5 13.4-1.6 2.7-1.7 4.2-1.7 4.2 0 .1-.1 11.8 0 16.1 0 3 .5 6.4.7 8.4.1 1.1.2 1.7.2 2v.9c0 .6-.1 1.4 0 1.8.1.5 0 1.3-.2 2.9-.1.9-.3 1.9-.4 3.1-.3 3.2-.1 3.7.9 3.8 1 .1 1.6-.5 1.8-.7.5-2.5.9-4.8.9-5.5 0-.4.2-1.1.5-2.1.4-1.4 1-3.3 1-4.6h1.2c0 1.5-.6 3.4-1 4.9-.2.8-.5 1.5-.5 1.8-.1 1-.8 5.5-1.6 8.7-.6 2.5-.4 3.6-.1 4.1.2.3.4.5.8.6.8.2 1.7-.7 2.1-1.2-.2-1.5.6-3.3 1.3-4.7.3-.6.5-1.2.7-1.6.3-.8.6-1.7.9-2.5.4-1 .9-2.4.9-2.7 0-.3.1-.9.3-2.1.3-1.6.8-4.1.6-5.1l1.1-.2c.2 1.1-.1 3.2-.6 5.6-.1.7-.3 1.6-.3 1.7.1.5-.3 1.5-.9 3.2-.3.8-.6 1.7-.8 2.5-.2.5-.4 1.1-.7 1.8-.7 1.5-1.5 3.4-1.1 4.5.1.4.4.6.9.8 2.3 1 4.8-3.5 5.2-4.2 0-1.7.4-3.7 1-6 .9-3.3 1.1-5.7 1.3-7.5.1-1.2.2-2.2.5-3l1.1.3c-.2.8-.3 1.7-.4 2.9-.2 1.8-.5 4.3-1.4 7.7-1.1 4.2-1.3 7.6-.4 8.9.2.3.4.4.7.5 1.8.2 4.2-9.5 5.1-13.1 1.5-6.1 1.7-14.8 1.7-16.1-.3-.4-.6-.9-.9-1.3-.9-1.2-1.7-2.3-2.1-3.3l1.1-.4c.3.9 1.1 1.9 1.9 3.1 1.2 1.6 2.5 3.4 2.8 5.3.4 2.1 3 4.9 4.7 5.7.4-.2.7-.2.8-.3zm-11.7-8.7c-3.7-1.1-16.8-1.1-16.9-1.1v-1.2c.4 0 7.5 0 12.7.5-5.6-5.1-3.6-12.3-3.5-12.3l1.1.3c-.1.3-2.1 7.6 4.5 12.2 1 .1 1.9.3 2.5.5l-.4 1.1zm-23.3-21c-1.6-2.6-4.4-11.4-5-13.4H22.5c1.2 2.6 4.8 10.4 6.1 14.1.4-.7.6-1.2.6-1.2l1.1.4c0 .1-.4.9-1.2 2.2v.2h-.2c-1.1 1.5-2.9 3.6-5.8 5.6-4.1 2.9-4.4 5.3-4.8 7.9-.1.8-.2 1.6-.5 2.5-.5 1.8-.5 3.4-.6 4.8 0 1.4-.1 2.4-.5 3.3-.2.4-.5.8-.7 1.2-.9 1.4-1 1.8-.5 2 .1 0 .3.1.8-.1 1.7-.8 4.3-3.6 4.7-5.7.4-1.9 1.7-3.7 2.8-5.3.8-1.1 1.6-2.2 1.9-3.1l1.1.4c-.4 1-1.2 2.2-2.1 3.3-.3.4-.6.9-.9 1.3 0 1.3.2 10 1.7 16.1.9 3.7 3.3 13.4 5.1 13.1.3 0 .5-.2.7-.5.9-1.3.7-4.7-.4-8.9-.9-3.4-1.2-5.9-1.4-7.7-.1-1.2-.2-2.1-.4-2.9l1.1-.3c.2.9.3 1.8.5 3 .2 1.9.5 4.2 1.3 7.5.6 2.3.9 4.3 1 6 .4.7 2.9 5.2 5.2 4.2.4-.2.7-.5.9-.8.4-1.1-.4-3-1.1-4.5-.3-.7-.6-1.3-.7-1.8-.2-.8-.5-1.6-.8-2.5-.6-1.8-1-2.7-.9-3.2 0-.2-.2-1-.3-1.7-.5-2.4-.9-4.4-.6-5.6l1.1.2c-.2 1 .3 3.5.6 5.1.3 1.2.4 1.8.3 2.1 0 .3.5 1.7.9 2.7.3.8.6 1.7.9 2.5.1.4.4 1 .7 1.6.7 1.5 1.5 3.3 1.3 4.7.4.5 1.3 1.4 2.1 1.2.4-.1.6-.3.8-.6.3-.5.5-1.6-.1-4.1-.8-3.2-1.6-7.7-1.6-8.7 0-.3-.2-1-.5-1.8-.4-1.5-1-3.4-1-4.9h1.2c0 1.4.6 3.2 1 4.6.3 1 .5 1.7.5 2.1 0 .6.4 3 .9 5.5.2.2.8.8 1.8.7 1-.1 1.3-.6.9-3.8-.1-1.2-.3-2.2-.4-3.1-.2-1.6-.3-2.4-.2-2.9.1-.4 0-1.2 0-1.8v-.9c0-.3.1-.8.2-2 .3-2 .7-5.4.7-8.4.1-4.3 0-16 0-16.1 0 .4-.1-1.1-1.7-3.8zm-17.8 21l-.3-1.1c.6-.2 1.5-.3 2.5-.5 6.7-4.6 4.6-11.9 4.5-12.2l1.1-.3c0 .1 2.1 7.3-3.5 12.3 5.2-.5 12.3-.5 12.7-.5v1.2c-.2 0-13.3 0-17 1.1z"/><circle cx="28.1" cy="100.5" r="2.4"/><path d="M8.3 45l2.2 1.1-.4-2.4 1.7-1.6-2.4-.4-1.1-2.2-1 2.2-2.4.4 1.7 1.6-.4 2.4zm20.6-24.9l-.8-1.6-.7 1.6-1.8.2 1.3 1.3-.3 1.7 1.5-.8 1.6.8-.3-1.7 1.2-1.3zm58 62l1.6.8-.3-1.7 1.2-1.2-1.7-.3-.8-1.5-.7 1.5-1.8.3 1.3 1.2-.3 1.7zm0-56.4l-1 3.1h-3.2l2.6 1.9-1 3 2.6-1.9 2.6 1.9-1-3 2.6-1.9h-3.2z"/><circle cx="79" cy="19.5" r="2.4"/><circle cx="88.5" cy="61" r="1.9"/><circle cx="14.8" cy="29.2" r="2.5"/><path d="M21.8 100.6c.3.1.7.2 1 .2l.1-.7c-.3-.1-.6-.1-1-.2l-.1.7zM7.1 80.9v-1h-.8v2H7c.1-.4.1-.7.1-1zm.2 2.8l-.7.1c.1.7.2 1.3.4 2l.7-.2c-.2-.6-.3-1.2-.4-1.9zm2 7.6c.3.6.7 1.1 1.1 1.7l.6-.4c-.4-.5-.7-1.1-1.1-1.6l-.6.3zm8.7 8c.6.3 1.2.5 1.9.8l.3-.7c-.6-.2-1.2-.5-1.8-.7l-.4.6zM7.5 87.7c.3.6.5 1.3.8 1.9l.7-.4c-.3-.6-.5-1.2-.7-1.8l-.8.3zm7.1 9.5c.5.4 1.1.8 1.7 1.1l.4-.6c-.5-.3-1.1-.7-1.6-1.1l-.5.6zm-3-2.7c.4.5.9 1 1.4 1.4l.5-.6c-.5-.4-.9-.9-1.4-1.4l-.5.6zM7.3 77.9c0-.3.1-.6.2-1l-.7-.1c-.1.3-.1.7-.2 1l.7.1zM88.9 89l.7.1c0-.3.1-.7.1-1h-.8v.9zm-10.6 11.9l.2.7c.7-.2 1.5-.4 2.2-.6l-.3-.7-2.1.6zm4-1.6l.4.6c.6-.4 1.3-.8 1.8-1.3l-.5-.5c-.5.5-1.1.9-1.7 1.2zm3.3-2.7l.6.5c.5-.6 1-1.2 1.4-1.8l-.8-.3c-.3.5-.8 1.1-1.2 1.6zm2.2-3.5l.7.3c.3-.7.5-1.4.7-2.1l-.7-.2c-.1.7-.4 1.3-.7 2zm-12.6 8.1v.8h1v-.8h-1zm12.9-48.8h.8v2h-.8zm0-4h.8v2h-.8zm0-8h.8v2h-.8zm0 4h.8v2h-.8z"/></svg>