<svg xmlns="http://www.w3.org/2000/svg" viewBox="0 0 96 120"><path d="M55 50c-.3-.6-.9-1-1.7-1-1 0-1.7.7-1.9 1.6-3.1 1.1-6.7 3.4-9.9 6.6-2.9 2.9-5.2 6.2-6.4 9.3-1.3 3.2-1.1 5.8.4 7.3.8.8 1.9 1.2 3.4 1.2 3.7 0 8.9-2.8 13.3-7.2 6.3-6.3 9-13.7 6-16.6-.8-.8-1.8-1.2-3.2-1.2zm-1.6.5c.2 0 .4.2.4.4s-.2.4-.4.4-.4-.2-.4-.4.1-.4.4-.4zm-2.3 16.2c-4.1 4.1-8.9 6.8-12.2 6.8-1 0-1.8-.3-2.3-.8-1-1-1-3.1 0-5.7 1.1-2.9 3.3-6 6-8.8 3-3 6.4-5.2 9.2-6.2.3.4.9.7 1.5.7.8 0 1.5-.5 1.8-1.3.9 0 1.6.3 2 .8 2.1 2 .1 8.5-6 14.5z"/><path d="M62.5 40.1c-6.3 0-15.4 5-23.1 12.7C33 59.2 28.7 66.2 27.3 72c-.6 0-1.3.3-1.7.8-1.1 1.1-1.1 2.8 0 3.9.4.4.8.6 1.3.7.2 1.6.8 3 1.9 4 1.3 1.3 3.2 2 5.6 2 6.3 0 15.4-5 23.1-12.7 2.7-2.7 5.1-5.6 7-8.4.3.1.7.2 1 .2.7 0 1.4-.3 2-.8s.8-1.2.8-2-.3-1.4-.8-2l-.2-.2c3.3-6.6 3.9-12.5.9-15.5-1.4-1.2-3.3-1.9-5.7-1.9zM26.8 75.7c-.1 0-.1-.1-.2-.1-.5-.5-.5-1.3 0-1.8.1-.1.2-.2.4-.2.2-.1.3-.1.5-.1.3 0 .7.1.9.4.2.2.4.6.4.9 0 .3-.1.7-.4.9-.1.1-.1.1-.2.1-.4.2-1 .2-1.4-.1zm39.5-15.1c-.3.3-.7.4-1 .3-.3 0-.6-.1-.8-.3-.2-.2-.3-.5-.3-.7-.1-.4 0-.8.3-1.1.1-.1.3-.2.5-.3.1-.1.3-.1.4-.1.3 0 .7.1.9.4.1.1.1.1.1.2.2.2.3.5.3.7 0 .4-.1.7-.4.9zm-.5-3.6c-.8-.1-1.7.1-2.3.8-1 1-1.1 2.5-.2 3.6-1.9 2.8-4.2 5.6-6.9 8.3-7.4 7.4-16.1 12.2-22 12.2-1.9 0-3.5-.5-4.5-1.6-.8-.8-1.2-1.8-1.4-3 .4-.1.8-.4 1.1-.7.5-.5.8-1.2.8-2 0-.7-.3-1.4-.8-2-.2-.2-.5-.4-.7-.5 1.4-5.4 5.6-12.3 11.7-18.4 7.4-7.4 16.1-12.2 22-12.2 1.9 0 3.5.5 4.5 1.6 2.5 2.6 1.8 7.9-1.3 13.9z"/><path d="M60.7 31.5c0 .2 0 .5.1.7-8 2.6-17.3 8.7-25.5 16.9-15.7 15.7-22.7 34.3-15.6 41.4 1.9 1.9 4.5 2.8 7.9 2.8 9.2 0 22.3-7.2 33.5-18.4 15.7-15.7 22.7-34.3 15.6-41.4-1.7-1.6-3.9-2.5-6.7-2.7-.3-2.2-2.3-4-4.6-4-2.6 0-4.7 2.1-4.7 4.7zm14.9 3.1C82 41 74.9 59 60 73.8c-10.9 10.9-23.6 18-32.4 18-2.9 0-5.2-.8-6.8-2.4-6.5-6.4.7-24.4 15.5-39.2 8.1-8.1 17.2-14.1 24.9-16.6.8 1.5 2.3 2.6 4.1 2.6 2.3 0 4.2-1.7 4.6-3.9 2.5.2 4.3.9 5.7 2.3zm-7.1-3.9c.1.2.1.5.1.7 0 .3 0 .5-.1.8-.3 1.4-1.6 2.4-3.1 2.4-1.1 0-2.1-.6-2.7-1.5-.3-.4-.4-.9-.5-1.4v-.3c0-1.7 1.4-3.2 3.2-3.2 1.5.1 2.8 1.1 3.1 2.5z"/><path d="M46.9 58.5c-1.9 0-3.5 1.6-3.5 3.5s1.6 3.5 3.5 3.5 3.5-1.6 3.5-3.5-1.6-3.5-3.5-3.5zm0 5.5c-1.1 0-2-.9-2-2s.9-2 2-2 2 .9 2 2-.9 2-2 2zm-16.5 36.5c0-1.2-1-2.2-2.2-2.2s-2.2 1-2.2 2.2 1 2.2 2.2 2.2 2.2-1 2.2-2.2zm-4 0c0-1 .8-1.7 1.7-1.7s1.7.8 1.7 1.7-.8 1.7-1.7 1.7-1.7-.7-1.7-1.7zm-18-60.7l-1 2-2.2.3 1.6 1.6-.4 2.2 2-1 2 1-.4-2.2 1.6-1.6-2.2-.3-1-2zm1.1 3.7l.2 1.5-1.3-.7-1.3.7.3-1.5-1.1-1 1.5-.2.7-1.3.7 1.3 1.5.2-1.2 1zm19.4-23.3l-.7-1.4-.7 1.4-1.5.2 1.1 1.1-.3 1.5 1.4-.7 1.4.7-.3-1.5 1.1-1.1-1.5-.2zm0 1.9l-.7-.4-.7.4.1-.8-.6-.5.8-.1.4-.7.4.7.8.1-.6.6.1.7zm55.9 58l1.1 1.1-.3 1.5L87 82l1.4.7-.3-1.5 1.1-1.1-1.5-.2-.7-1.4-.7 1.4-1.5.2zm2.2-.5l.4.7.8.1-.6.6.1.8-.7-.4-.7.4.1-.8-.6-.6.8-.1.4-.7zm0-53.5l-.9 2.8h-2.9l2.4 1.7-.9 2.8 2.4-1.7 2.4 1.7-.9-2.8 2.4-1.7h-2.9L87 26.1zm.9 4.3l.5 1.7-1.4-1-1.4 1 .5-1.7-1.4-1h1.7l.5-1.7.5 1.7h1.7l-1.2 1zM79 21.8c1.2 0 2.2-1 2.2-2.2 0-1.2-1-2.2-2.2-2.2s-2.2 1-2.2 2.2 1 2.2 2.2 2.2zm0-4c1 0 1.7.8 1.7 1.7 0 1-.8 1.7-1.7 1.7s-1.7-.8-1.7-1.7c0-1 .8-1.7 1.7-1.7zM86.7 61c0 1 .8 1.8 1.8 1.8s1.8-.8 1.8-1.8-.8-1.8-1.8-1.8-1.8.8-1.8 1.8zm1.8-1.3c.7 0 1.3.6 1.3 1.3s-.6 1.3-1.3 1.3-1.3-.6-1.3-1.3.6-1.3 1.3-1.3zM14.9 26.8c-1.3 0-2.4 1.1-2.4 2.4 0 1.3 1.1 2.4 2.4 2.4s2.4-1.1 2.4-2.4c-.1-1.3-1.1-2.4-2.4-2.4zm0 4.2c-1 0-1.9-.8-1.9-1.9 0-1 .8-1.9 1.9-1.9s1.9.8 1.9 1.9c-.1 1.1-.9 1.9-1.9 1.9zm8 69.7l.1-.5c-.3-.1-.6-.1-1-.2l-.1.5c.3.1.6.2 1 .2zM9.9 91l-.4.3c.3.6.7 1.1 1.1 1.7l.4-.3c-.5-.6-.8-1.2-1.1-1.7zm3.6 4.5c-.5-.4-.9-.9-1.4-1.4l-.4.3c.4.5.9 1 1.4 1.4l.4-.3zm4.6 3.7c.6.3 1.2.5 1.8.8l.2-.5c-.6-.2-1.2-.5-1.8-.7l-.2.4zM6.5 80.9v1H7v-2h-.5v1zm.3 2.9c.1.7.2 1.3.4 1.9l.5-.1c-.2-.6-.3-1.3-.4-1.9l-.5.1zm7.9 13.3c.5.4 1.1.8 1.7 1.1l.3-.4c-.6-.3-1.1-.7-1.6-1.1l-.4.4zm-5.8-7.8c-.3-.6-.5-1.2-.7-1.8l-.5.2c.2.6.5 1.2.8 1.8l.4-.2zM6.8 77.8l.5.1c0-.3.1-.6.2-1l-.5-.1c-.1.4-.2.7-.2 1zM89.6 88h-.5c0 .3 0 .7-.1 1h.5c.1-.3.1-.6.1-1zM88 93.1l.5.2c.3-.7.5-1.4.7-2.1l-.5-.1c-.2.7-.4 1.4-.7 2zm-1.9 4c.5-.6.9-1.2 1.3-1.8L87 95c-.4.6-.8 1.2-1.3 1.7l.4.4zm-1.6 1.5l-.3-.4c-.6.5-1.1.9-1.8 1.2l.3.4c.6-.3 1.2-.7 1.8-1.2zm-4 1.8c-.7.3-1.4.5-2.1.6l.1.5 2.1-.6-.1-.5zm-5.2 1.4h1v-.5h-1v.5zm13-53.4h.5v2h-.5zm0-4h.5v2h-.5zm0 8h.5v2h-.5zm0-12h.5v2h-.5z"/></svg>