<?xml version="1.0" encoding="utf-8"?>
<!-- Generator: Adobe Illustrator 21.0.0, SVG Export Plug-In . SVG Version: 6.00 Build 0)  -->
<svg version="1.1" id="katman_1" xmlns="http://www.w3.org/2000/svg" xmlns:xlink="http://www.w3.org/1999/xlink" x="0px" y="0px"
	 viewBox="0 0 100 125" style="enable-background:new 0 0 100 125;" xml:space="preserve">
<g>
	<path d="M91.4,72.7c-1.2-0.8-2.7-1.9-6.9-3.1c-3.3-0.9-5.9-1.2-8.6-1c-0.1,0-0.2,0-0.3,0c3.1-4.2,5-9.4,5-15c0-0.6,0-1.3-0.1-1.9
		c0-0.3-0.2-0.5-0.5-0.6c0,0-0.1,0-0.1,0c-0.1,0-0.3,0-0.4,0.1c-0.1,0.1-0.2,0.3-0.2,0.4c-0.6,7.2-5,13.2-11.2,16.2
		c-1.5-0.3-3.1-0.7-4.9-1.1c-4.6-1.2-6.5-2.8-8.8-4.7c-0.6-0.5-1.2-1-1.8-1.5c-3.4-2.7-6.4-3.7-8.3-2.8c-1,0.5-1.6,1.4-1.6,2.6
		c0,0.1,0,0.3,0.1,0.6c-2.1-3.2-3.3-6.9-3.3-11c0-10.9,8.9-19.9,19.8-19.9l0.1,0c0,0,0.1,0,0.1,0c0.3,0,0.6-0.2,0.6-0.5
		c0-0.2,0-0.4-0.1-0.5s-0.3-0.2-0.5-0.2l-0.1,0c-1.3-0.2-2.6-0.3-3.9-0.3c-13.8,0-25.1,11.3-25.1,25.1c0,7.9,3.6,14.9,9.3,19.5
		c-0.8-0.3-1.7-0.4-2.8-0.5c0,0,0-0.1-0.1-0.1c-0.5-0.5-1-0.8-1.6-0.8c-0.4,0-0.7,0.2-0.8,0.2c-0.2,0.1-0.3,0.3-0.4,0.5
		c-0.1,0.5,0.1,1.1,1.3,2.8c0.5,0.8,1.2,1.7,1.7,2.1c0.2,0.3,0.5,0.8,0.9,1.4c-0.8,0.5-1.4,0.9-1.8,1.3c-0.2,0.2-0.5,0.3-0.6,0.5
		c-0.5-0.5-0.9-1.2-1.1-1.5c-0.4-0.7-3.2-4.7-5-5.9c-1.7-1.1-2.1-1.2-3.2-1.4l-0.1,0c-0.1,0-0.3,0-0.5-0.1c-0.1-0.1-0.1-0.2-0.2-0.3
		c-0.5-0.5-1-0.8-1.6-0.8c-0.4,0-0.7,0.2-0.8,0.2c-0.2,0.1-0.3,0.3-0.4,0.5c-0.1,0.4,0.1,1.1,1.3,2.8c0.4,0.6,0.9,1.2,1.3,1.7
		c0.1,0.2,0.2,0.3,0.4,0.5c0.6,0.7,1.1,1.4,1.6,2.1c-0.8-0.7-1.5-1.4-1.9-1.9c-0.5-0.6-2.9-3.2-4.9-4.2c-1.8-0.9-2.2-1-3.3-1l-0.1,0
		c-0.1,0-0.3,0-0.5,0c-0.1-0.1-0.2-0.2-0.3-0.2c-0.5-0.4-1-0.6-1.5-0.6c-0.5,0-0.9,0.3-1,0.4c-0.2,0.1-0.3,0.3-0.3,0.6
		c0,0.5,0.2,1,1.6,2.7c0.4,0.5,1,1.1,1.4,1.5c0.1,0.1,0.3,0.3,0.4,0.5c0.4,0.4,0.8,0.8,1.2,1.2c-1.7-0.7-4.4-1.6-5.9-1.6
		c0,0,0,0,0,0c-2,0-2.4,0.1-3.4,0.6l-0.1,0c-0.1,0.1-0.3,0.1-0.5,0.2c-0.1,0-0.2-0.1-0.3-0.1c-0.3-0.1-0.5-0.1-0.7-0.1
		c-0.5,0-1.2,0.2-1.6,1c-0.1,0.2-0.1,0.4,0,0.7C5.5,78.6,6,79,8,79.8c0.8,0.3,1.5,0.6,2,0.7c0.2,0.1,0.4,0.1,0.6,0.2
		c0.9,0.3,1.8,0.6,2.7,0.9c2.7,0.9,5,1.7,6.9,2.6c0.9,0.5,1.9,0.6,2.7,0.6c0.6,0,1.2-0.1,1.7-0.2c1.2,1.1,2.4,1.5,3.4,1.8
		c0.3,0.1,0.6,0.2,0.9,0.3c1,0.4,4.8,1.3,7.9,1.5c0.1,0.1,0.3,0.1,0.4,0.2c1.2,0.7,5.8,1.4,8.7,1.4c0.1,0,0.3,0,0.4,0
		c1.5,0,3.1,0,4.2,0c0.8,0.3,1.6,0.7,2.5,1.2c3.5,2.1,5.2,2.6,10.1,1.5c4.7-1.1,6.9-0.8,10.7,0.2c4.1,1,6.8,1.6,9.9,1.6
		c2.1,0,2.1,0,2.7,0.8c0.2,0.3,0.4,0.6,0.8,1l1-0.8c-0.3-0.4-0.6-0.7-0.8-1c-0.9-1.2-1.2-1.3-3.7-1.3c-3,0-5.6-0.6-9.6-1.6
		c-4-1-6.4-1.3-11.3-0.2c-4.5,1-5.9,0.7-9.2-1.3c-2-1.2-3.7-1.7-4.8-2c-0.6-0.2-1.2-0.3-1.3-0.5c-0.4-0.5-0.8-0.8-1.4-1.3
		c-0.6-0.4-1.4-1-2.5-2c-0.7-0.6-1.3-1-1.7-1.4c-0.9-0.7-1.3-1-1.9-2.5c-0.5-1.1-1.2-2.3-1.7-3.1c0.3-0.1,0.5-0.4,0.7-0.7
		c0.1-0.3,0.2-0.8-0.2-1.4c-0.2-0.3-0.4-0.6-0.5-0.8c-0.1-0.2-0.2-0.3-0.3-0.5c2.1,0.3,3.6,1.3,4.5,3c0.5,1.1,1.2,2.1,1.9,2.9
		c0.1,0.1,0.2,0.2,0.4,0.2c0.1,0,0.3,0,0.5,0.1c0.7,0.1,1.6,0.3,2.9,0.7c1.3,0.5,2.5,1.5,3.2,2.3c0,0,0,0,0,0
		c0.1,0.1,0.3,0.2,0.4,0.2c2.1,0.2,3.1-0.2,3.9-0.4c0.2-0.1,0.3-0.1,0.5-0.2c3.5-0.8,3.7-0.9,8.6-1.4c1.4-0.1,2.4-0.2,3.2-0.3
		c2-0.2,2.7-0.3,4.6-0.7c2.8-0.7,3.5-2.1,3.5-2.2l-1.1-0.5c0,0-0.5,1-2.7,1.5c-1.8,0.4-2.5,0.5-4.4,0.7c-0.8,0.1-1.8,0.2-3.2,0.3
		c-4.8,0.5-5.1,0.6-8.8,1.5c-0.2,0-0.4,0.1-0.6,0.2c-0.7,0.2-1.5,0.5-3.2,0.4c-0.8-0.8-2.1-1.9-3.5-2.4c-1.4-0.5-2.4-0.7-3.2-0.8
		c-0.1,0-0.1,0-0.2,0c-0.3-0.3-0.6-0.7-0.8-1.1c0.9-0.2,1.8-0.3,2.8-0.3c0.2,0,0.4,0,0.5,0c2.5,0.8,5.1,1.3,7.9,1.3
		c7.7,0,14.5-3.5,19.2-8.9c0.5,0,0.9,0,1.4,0c2.6-0.2,5,0,8.1,0.9c4,1.1,5.4,2.1,6.6,2.9c1,0.7,1.8,1.3,3.7,1.7l0.3-1.2
		C93,73.9,92.3,73.4,91.4,72.7z M20.7,83.2c-2-1-4.3-1.8-7.1-2.7c-0.6-0.2-1.3-0.4-2-0.7c0.1-0.3,0.3-0.6,0.2-0.9
		c-0.1-0.3-0.3-0.8-0.9-1c-0.3-0.1-0.6-0.3-0.9-0.4c-0.1,0-0.1-0.1-0.2-0.1c0.5-0.2,1-0.2,2.3-0.2c0,0,0,0,0,0
		c1.8,0,5.9,1.6,6.9,2.1c0.3,0.1,0.7,0.3,1.2,0.5c1.3,1.4,2.5,2.6,3.5,3.9C22.7,83.7,21.7,83.6,20.7,83.2z M29.3,85.6
		c-0.3-0.1-0.6-0.2-1-0.3c-1.1-0.3-2.5-0.7-3.7-2.3c-1.3-1.8-3.1-3.5-5.1-5.6c-0.5-0.5-1-1-1.5-1.5c0.3-0.2,0.5-0.4,0.6-0.8
		c0.1-0.3,0.1-0.8-0.4-1.3c-0.2-0.3-0.4-0.5-0.6-0.7c-0.1-0.1-0.1-0.1-0.1-0.2c0.5,0.1,0.9,0.3,2.1,0.8c1.7,0.9,4,3.3,4.5,3.9
		c0,0,3.1,3.6,4.9,3.8c0.9,1.2,1.7,2.3,2.4,3.4c0.4,0.7,1,1.3,1.6,1.8C31.2,86.2,29.8,85.8,29.3,85.6z M40.2,83.1
		c0.3,0.3,0.6,0.6,1.1,0.9c0.4,0.3,0.9,0.7,1.6,1.3c1.2,1,2,1.6,2.6,2.1c0.6,0.4,0.9,0.7,1.2,1c0.1,0.1,0.2,0.2,0.3,0.3
		c-0.2,0-0.4,0-0.6,0c-2.8,0.1-7.5-0.7-8.5-1.3c-0.4-0.2-0.8-0.4-1.3-0.5c-1.4-0.5-3-1.1-4-2.7c-1.1-1.9-2.7-3.9-4.4-6.1
		c-0.4-0.5-0.9-1.1-1.3-1.7c0.3-0.1,0.5-0.4,0.7-0.7c0.1-0.3,0.2-0.8-0.2-1.4c-0.2-0.3-0.4-0.6-0.5-0.8c0-0.1-0.1-0.1-0.1-0.2
		c0.5,0.1,0.9,0.4,2,1.1c1.5,1,4.1,4.7,4.6,5.5c0.4,0.7,1.5,2.4,3,2.7C37.2,82.8,39.4,83.1,40.2,83.1z M38.4,80.1
		c0.2,0.3,0.3,0.7,0.5,1c0.1,0.3,0.2,0.5,0.3,0.7c-0.9-0.1-1.9-0.3-2.6-0.4c0,0,0.1-0.1,0.1-0.1C37.2,80.9,37.7,80.5,38.4,80.1z
		 M44.7,59c1.1-0.5,3.5-0.1,7,2.7c0.6,0.5,1.2,1,1.8,1.4c2.4,2,4.4,3.7,9.3,5c1.1,0.3,2.2,0.6,3.2,0.8c-2.1,0.8-4.4,1.2-6.7,1.2
		c-4.8,0-9.2-1.7-12.7-4.6c-1.6-2.1-2.8-4.5-2.8-4.9C43.9,59.8,44.2,59.3,44.7,59z M43.6,76.8c0-0.1-0.1-0.1-0.1-0.2
		c-0.2-0.4-0.5-0.8-0.8-1.2c0.7,0.4,1.5,0.8,2.3,1.2C44.5,76.7,44.1,76.7,43.6,76.8z"/>
</g>
</svg>
