<svg xmlns="http://www.w3.org/2000/svg" viewBox="0 0 100 125"><path d="M29.3 22.7c-4.2 0-8 3.4-7.6 7.6.6 5.5 4.1 8.6 7.9 11.7C15.6 44.7 5 57 5 71.8c0 16.8 13.6 30.5 30.4 30.5s30.5-13.7 30.5-30.5c0-7.1-2.5-13.7-6.6-18.9-2.7.8-5.2 2.1-7.3 3.9 3.6 4 5.8 9.2 5.8 15 0 12.4-10 22.4-22.4 22.4-12.4 0-22.3-10-22.3-22.4 0-12.4 10-22.3 22.3-22.3 1.4 0 2.8.1 4.2.4 2.1-2.4 4.6-4.5 7.4-6.2-1.9-.8-3.9-1.4-6-1.8 4.2-3.8 8.2-7.6 8.3-11.6.1-4.2-3.4-7.6-7.6-7.6-2.6 0-4.9 1.5-6.2 3.5-1.4-2-3.7-3.5-6.2-3.5zm35.3 18.7c-16.8 0-30.5 13.6-30.5 30.4 0 7.1 2.4 13.7 6.5 18.8 2.7-.7 5.2-2 7.4-3.8-3.6-4-5.8-9.2-5.8-15 0-12.4 10-22.3 22.4-22.3 12.4 0 22.3 10 22.3 22.3 0 12.4-10 22.4-22.3 22.4-1.4 0-2.8-.2-4.2-.4-2.1 2.4-4.6 4.5-7.3 6.3 3.5 1.4 7.4 2.3 11.5 2.3 16.8 0 30.4-13.7 30.4-30.5C95 55 81.4 41.4 64.6 41.4z"/></svg>