<svg xmlns="http://www.w3.org/2000/svg" viewBox="0 0 512 640"><path d="M83.5 91.4c-9.8-3.7-14.2-8.1-17.9-17.9-.9-2.5-4.5-2.5-5.4 0-3.7 9.8-8.1 14.2-17.9 17.9-2.5.9-2.5 4.5 0 5.4 9.8 3.7 14.2 8.1 17.9 17.9.9 2.5 4.5 2.5 5.4 0 3.7-9.8 8.1-14.2 17.9-17.9 2.5-.9 2.5-4.4 0-5.4zm386.2 237c-9.8-3.7-14.2-8.1-17.9-17.9-.9-2.5-4.5-2.5-5.4 0-3.7 9.8-8.1 14.2-17.9 17.9-2.5.9-2.5 4.5 0 5.4 9.8 3.7 14.2 8.1 17.9 17.9.9 2.5 4.5 2.5 5.4 0 3.7-9.8 8.1-14.2 17.9-17.9 2.4-1 2.4-4.5 0-5.4zm-235-242.9l-1.6-13.7c-10.4 1.2-20.6 3.4-30.5 6.6l4.3 13.1c9-2.9 18.4-4.9 27.8-6zm58.4-7.1c-9.9-3.2-20.1-5.4-30.5-6.6L261 85.5c9.4 1.1 18.8 3.1 27.8 6l4.3-13.1zM385 258l13.5 2.9c2.1-10.1 3.3-20.6 3.4-31l-13.8-.1c-.1 9.5-1.2 19-3.1 28.2zm-41.5-152.2c-8.1-6.6-16.9-12.3-26.1-17.2l-6.4 12.2c8.4 4.4 16.4 9.7 23.8 15.7l8.7-10.7zm37.3 43.6c-5.2-9-11.3-17.5-18.2-25.3l-10.4 9.1c6.3 7.1 11.9 14.9 16.6 23.1l12-6.9zm-237.3-16.2l-10.4-9.1c-6.9 7.8-13 16.3-18.2 25.3l11.9 6.9c4.8-8.2 10.4-16 16.7-23.1zM110.8 258c-2-9.3-3-18.8-3.1-28.3l-13.8.1c.1 10.4 1.3 20.9 3.4 31l13.5-2.8zm5.8-79.9l-12.9-4.8c-3.6 9.7-6.3 19.9-7.9 30.2l13.6 2.1c1.5-9.3 3.9-18.6 7.2-27.5zm68.1-77.2l-6.4-12.2c-9.2 4.8-18 10.6-26.1 17.2l8.7 10.7c7.4-6.1 15.4-11.3 23.8-15.7zm201.6 104.8l13.6-2.1c-1.6-10.3-4.3-20.5-7.9-30.2l-12.9 4.8c3.3 8.8 5.8 18.1 7.2 27.5zM225 256.9c-.4 3.9-3.7 6.9-7.6 6.9h-28.9c-1.5 0-3.1.1-4.6.2-35.9 2.4-63.5 34.2-61.6 70.9l5.7 111.3c.3 6.2 2.9 11.7 7 15.8 4.4 4.5 10.7 7.4 17.5 7.4h87l-.4-37.1h-56.4c-3.7 0-6.7-2.9-6.9-6.5l-3.1-55 13.8-.8 2.7 48.5H303l2.7-48.5 13.8.8-3.1 55c-.2 3.7-3.2 6.5-6.9 6.5h-56.8l.4 37.1h88c6.8 0 13-2.8 17.5-7.4 4-4.1 6.6-9.6 7-15.8l5.7-111.3c1.9-36.7-25.8-68.5-61.6-70.9-1.5-.1-3-.1-4.6-.1h-28.9c-3.9 0-7.2-3-7.6-6.9l-.6-5.7c-.3-2.8 1-5.5 3.4-7.1C285 235 294 218.6 294 199.7c0-28.8-21.1-47.6-47.2-47.6s-47.2 18.8-47.2 47.6c0 18.9 9.1 35.3 22.6 44.5 2.4 1.6 3.7 4.3 3.4 7.1l-.6 5.6zm5.2-43.4h9.2v4.6c0 3 3.7 5.6 8.2 5.6 4.4 0 8.1-2.5 8.1-5.6v-4.6h9.2v4.6c0 8.1-7.8 14.8-17.3 14.8-9.6 0-17.4-6.6-17.4-14.8v-4.6zm.2 116c.6-11.8 5.3-26.8 17.5-45.6 11.6 18.3 16.1 33.1 16.7 44.7 9.4-6.9 23.7-12.8 45.4-15.5-20.1 63.3-57 54.4-62.5 52.7-.2.1-.3.2-.3.2s-.2-.1-.5-.3c-3.7 1.2-42.2 12.6-62.9-52.6 22.6 2.9 37.1 9.2 46.6 16.4z"/><path d="M391.9 461.9h-15.7c-6.3 13-19.7 21.9-35.1 21.9H152.4c-15.4 0-28.7-8.9-35.1-21.9h-15.7c-14.4.2-26.1 11.9-26.1 26.4V542c0 14.6 11.8 26.4 26.4 26.4h289.6c14.6 0 26.4-11.8 26.4-26.4v-53.7c.1-14.5-11.6-26.2-26-26.4zm-13.8 75.5l-9.6-12.3H124.8c-1.8 0-3.5-.7-4.7-1.9l-16.4-15.5 9.5-10 14.4 13.6h244.3c2.1 0 4.1 1 5.4 2.6l11.7 14.9-10.9 8.6z"/></svg>