<svg id="katman_1" data-name="katman 1" xmlns="http://www.w3.org/2000/svg" viewBox="0 0 100 125"><title>face</title><path d="M73,28.5h1v1a1,1,0,0,0,2,0v-1h1a1,1,0,0,0,0-2H76v-1a1,1,0,0,0-2,0v1H73a1,1,0,0,0,0,2Z"/><path d="M23,28.5h1v1a1,1,0,0,0,2,0v-1h1a1,1,0,0,0,0-2H26v-1a1,1,0,0,0-2,0v1H23a1,1,0,0,0,0,2Z"/><path d="M89,36.5H87a1,1,0,0,0,0,2h2a1,1,0,0,0,0-2Z"/><path d="M81,38.5h2a1,1,0,0,0,0-2H81a1,1,0,0,0,0,2Z"/><path d="M85,38.5a.94.94,0,0,0-1,1v2a1,1,0,0,0,2,0v-2A.94.94,0,0,0,85,38.5Z"/><path d="M85,36.5a.94.94,0,0,0,1-1v-2a1,1,0,0,0-2,0v2A.94.94,0,0,0,85,36.5Z"/><path d="M17,38.5h2a1,1,0,0,0,0-2H17a1,1,0,0,0,0,2Z"/><path d="M13,36.5H11a1,1,0,0,0,0,2h2a1,1,0,0,0,0-2Z"/><path d="M16,41.5v-2a1,1,0,0,0-2,0v2a1,1,0,0,0,2,0Z"/><path d="M15,36.5a.94.94,0,0,0,1-1v-2a1,1,0,0,0-2,0v2A.94.94,0,0,0,15,36.5Z"/><path d="M69.9,70a1.06,1.06,0,0,0-.2-1.2,1,1,0,0,0-1.4.1,5.81,5.81,0,0,1-4.2,1.6,6,6,0,0,1-4.2-1.6,1,1,0,1,0-1.5,1.3,7.68,7.68,0,0,0,5.8,2.4c.5,0,1-.1,1.5-.1l1.8,1.8a1,1,0,0,0,1.4,0,1,1,0,0,0,0-1.4l-1.1-1.1c.3-.1.5-.3.8-.4l1.9,1.9a1,1,0,0,0,1.4,0,1,1,0,0,0,0-1.4Z"/><path d="M41.8,70.1a1,1,0,0,0-1.5-1.3,5.81,5.81,0,0,1-4.2,1.6,5.74,5.74,0,0,1-4.2-1.6,1,1,0,0,0-1.4-.1,1,1,0,0,0-.4,1.3l-1.8,1.8a1,1,0,0,0,0,1.4,1,1,0,0,0,1.4,0l1.9-1.9a5.94,5.94,0,0,0,.8.4l-1.1,1.1a1,1,0,0,0,0,1.4,1,1,0,0,0,1.4,0l1.8-1.8a7.08,7.08,0,0,0,1.5.1A7.68,7.68,0,0,0,41.8,70.1Z"/><path d="M59.7,64.2h0l.3-.3c.2-.2.6-.4,1-.7a5.94,5.94,0,0,1,.8-.4l.9-.3a3,3,0,0,1,1-.2c.4,0,.8-.1,1.2-.1h2.2a3.08,3.08,0,0,1,1,.1c.3,0,.6.1.9.1a8.57,8.57,0,0,1,1.3.3,4.2,4.2,0,0,1,.5.2.45.45,0,0,0,.4-.8h0a4.2,4.2,0,0,0-.5-.2c-.3-.1-.8-.3-1.4-.5-.3-.1-.6-.1-1-.2a3.59,3.59,0,0,0-1.1-.2c-.4,0-.8-.1-1.2-.1s-.8-.1-1.2-.1H63.6a6.88,6.88,0,0,0-1.3.2c-.4.1-.8.2-1.1.3a10.37,10.37,0,0,0-1,.4,5.77,5.77,0,0,0-1.4.8,1.38,1.38,0,0,0-.4.3.31.31,0,0,1-.2.1l-.1.1a1,1,0,0,0,0,1.4A1.34,1.34,0,0,0,59.7,64.2Z"/><path d="M29.2,62.9a4.21,4.21,0,0,1,.5-.2,8.57,8.57,0,0,1,1.3-.3c.3,0,.6-.1.9-.1a3.4,3.4,0,0,1,1-.1h2.2c.4,0,.8.1,1.2.1a4.4,4.4,0,0,0,1,.2l.9.3c.3.1.5.3.8.4a5.34,5.34,0,0,1,1,.7l.2.2v.1h0l.1.1a1,1,0,0,0,1.3-1.5.31.31,0,0,1-.2-.1,1.38,1.38,0,0,0-.4-.3,13.7,13.7,0,0,0-1.4-.8,10.38,10.38,0,0,0-1-.4,8.66,8.66,0,0,0-1-.2c-.4-.1-.8-.1-1.3-.2H35.1c-.5,0-.8.1-1.2.1s-.8.1-1.2.1a4.25,4.25,0,0,0-1.1.2,3.55,3.55,0,0,1-1,.2,7.17,7.17,0,0,0-1.4.5,4.2,4.2,0,0,0-.5.2h0a.48.48,0,0,0-.2.6A.66.66,0,0,0,29.2,62.9Z"/><path d="M57.7,90.6a25.89,25.89,0,0,1-7.7.9,25.52,25.52,0,0,1-7.6-.9,1,1,0,0,0-.7,1.9,26.66,26.66,0,0,0,8.4,1.1c5.5,0,8.2-1,8.4-1.1a1,1,0,0,0,.6-1.3A1.13,1.13,0,0,0,57.7,90.6Z"/><path d="M53.2,93.9A3.79,3.79,0,0,1,50,95.5a4,4,0,0,1-3.2-1.6A1,1,0,1,0,45.1,95a6.14,6.14,0,0,0,4.8,2.4A5.72,5.72,0,0,0,54.7,95a.93.93,0,1,0-1.5-1.1Z"/><path d="M47.3,84.2a.91.91,0,0,0,.7.3h4a.91.91,0,0,0,.7-.3l1-1a1,1,0,1,0-1.4-1.4l-.7.7H48.4l-.7-.7a1,1,0,0,0-1.4,1.4Z"/><path d="M80.8,69.7c.1-1.4.2-2.7.2-4.1V64.4c-.3-12-5-21.6-12.7-27.2a13,13,0,0,0,.8-4.6c0-8.3-8.5-15-19-15s-19,6.7-19,15a13,13,0,0,0,.8,4.6C24,42.8,19.3,52.3,19,64.3v1.2c0,1.4.1,2.7.2,4.1-3.6,1.2-5.1,4-4.2,8,1,4.3,4.6,9.8,8.4,9.8a2.2,2.2,0,0,0,.8-.1,42.61,42.61,0,0,0,10.8,14v5a1,1,0,0,0,2,0V103a23,23,0,0,0,13,4.5A22.25,22.25,0,0,0,63,103v3.5a1,1,0,0,0,2,0v-5a42.61,42.61,0,0,0,10.8-14,2.2,2.2,0,0,0,.8.1c3.7,0,7.4-5.6,8.4-9.8S84.4,70.9,80.8,69.7Zm-59-12.6a23.17,23.17,0,0,1,4.7-3.7.88.88,0,0,0,.4-1.3.9.9,0,0,0-1.3-.4,25.14,25.14,0,0,0-2.9,2,14.27,14.27,0,0,1,.8-2.2c.1-.1.2-.1.3-.2,7.2-7.9,17-12.7,26.3-12.7s19.1,4.7,26.3,12.7c.1.1.2.2.3.2.3.7.5,1.5.8,2.2a12.6,12.6,0,0,0-2.9-2,1,1,0,1,0-.9,1.7c1.7.8,4.2,3.3,4.7,3.7.2,1.2.4,2.5.6,3.8-6.5-8.5-17-13.5-28.8-13.5S28,52.4,21.4,60.9A16.37,16.37,0,0,1,21.8,57.1ZM33,32.5c0-7.2,7.6-13,17-13s17,5.8,17,13a12.86,12.86,0,0,1-.5,3.5A30.61,30.61,0,0,0,50,31.5,30.61,30.61,0,0,0,33.5,36,12.86,12.86,0,0,1,33,32.5Zm.1,6a.37.37,0,0,0,.3-.1.78.78,0,0,0,.4-.4A29.33,29.33,0,0,1,50,33.5,29.33,29.33,0,0,1,66.2,38a.78.78,0,0,0,.4.4.37.37,0,0,1,.3.1,27.26,27.26,0,0,1,7.3,7.8C67,40.1,58.3,36.5,50,36.5s-17,3.6-24.1,9.8A25.73,25.73,0,0,1,33.1,38.5ZM17,77.3c-.7-2.8.1-4.6,2.4-5.5a49.68,49.68,0,0,0,3.9,13.8C21,85.5,17.9,81.1,17,77.3Zm33,28.2c-14.9,0-29-19.4-29-39.9v-.8c5.9-9.6,16.7-15.3,29-15.3s23.1,5.7,29,15.3v.8C79,86.1,64.9,105.5,50,105.5ZM83,77.3c-.9,3.8-4,8.2-6.3,8.3a49.68,49.68,0,0,0,3.9-13.8C82.9,72.7,83.7,74.5,83,77.3Z"/><path d="M45,90.5c.2,0,.3,0,.4-.1a7.35,7.35,0,0,1,2.6-.9,2.26,2.26,0,0,1,1.3.6,1.05,1.05,0,0,0,1.3,0,2.62,2.62,0,0,1,1.3-.6,9,9,0,0,1,2.6.9,1,1,0,0,0,.9-1.7A10.4,10.4,0,0,0,52,87.6a3.94,3.94,0,0,0-2,.6,3.94,3.94,0,0,0-2-.6,9,9,0,0,0-3.4,1.1.88.88,0,0,0-.4,1.3A.79.79,0,0,0,45,90.5Z"/></svg>