<svg data-name="katman 1" xmlns="http://www.w3.org/2000/svg" viewBox="0 0 100 125"><path d="M73 28.5h1v1a1 1 0 002 0v-1h1a1 1 0 000-2h-1v-1a1 1 0 00-2 0v1h-1a1 1 0 000 2zm-50 0h1v1a1 1 0 002 0v-1h1a1 1 0 000-2h-1v-1a1 1 0 00-2 0v1h-1a1 1 0 000 2zm66 8h-2a1 1 0 000 2h2a1 1 0 000-2zm-8 2h2a1 1 0 000-2h-2a1 1 0 000 2zm4 0a.94.94 0 00-1 1v2a1 1 0 002 0v-2a.94.94 0 00-1-1zm0-2a.94.94 0 001-1v-2a1 1 0 00-2 0v2a.94.94 0 001 1zm-68 2h2a1 1 0 000-2h-2a1 1 0 000 2zm-4-2h-2a1 1 0 000 2h2a1 1 0 000-2zm3 5v-2a1 1 0 00-2 0v2a1 1 0 002 0zm-1-5a.94.94 0 001-1v-2a1 1 0 00-2 0v2a.94.94 0 001 1zM69.9 70a1.06 1.06 0 00-.2-1.2 1 1 0 00-1.4.1 5.81 5.81 0 01-4.2 1.6 6 6 0 01-4.2-1.6 1 1 0 10-1.5 1.3 7.68 7.68 0 005.8 2.4c.5 0 1-.1 1.5-.1l1.8 1.8a1 1 0 001.4 0 1 1 0 000-1.4l-1.1-1.1c.3-.1.5-.3.8-.4l1.9 1.9a1 1 0 001.4 0 1 1 0 000-1.4zm-28.1.1a1 1 0 00-1.5-1.3 5.81 5.81 0 01-4.2 1.6 5.74 5.74 0 01-4.2-1.6 1 1 0 00-1.4-.1 1 1 0 00-.4 1.3l-1.8 1.8a1 1 0 000 1.4 1 1 0 001.4 0l1.9-1.9a5.94 5.94 0 00.8.4l-1.1 1.1a1 1 0 000 1.4 1 1 0 001.4 0l1.8-1.8a7.08 7.08 0 001.5.1 7.68 7.68 0 005.8-2.4zm17.9-5.9l.3-.3c.2-.2.6-.4 1-.7a5.94 5.94 0 01.8-.4l.9-.3a3 3 0 011-.2c.4 0 .8-.1 1.2-.1h2.2a3.08 3.08 0 011 .1c.3 0 .6.1.9.1a8.57 8.57 0 011.3.3 4.2 4.2 0 01.5.2.45.45 0 00.4-.8 4.2 4.2 0 00-.5-.2c-.3-.1-.8-.3-1.4-.5-.3-.1-.6-.1-1-.2a3.59 3.59 0 00-1.1-.2c-.4 0-.8-.1-1.2-.1s-.8-.1-1.2-.1h-1.2a6.88 6.88 0 00-1.3.2c-.4.1-.8.2-1.1.3a10.37 10.37 0 00-1 .4 5.77 5.77 0 00-1.4.8 1.38 1.38 0 00-.4.3.31.31 0 01-.2.1l-.1.1a1 1 0 000 1.4 1.34 1.34 0 001.6-.2zm-30.5-1.3a4.21 4.21 0 01.5-.2 8.57 8.57 0 011.3-.3c.3 0 .6-.1.9-.1a3.4 3.4 0 011-.1h2.2c.4 0 .8.1 1.2.1a4.4 4.4 0 001 .2l.9.3c.3.1.5.3.8.4a5.34 5.34 0 011 .7l.2.2v.1l.1.1a1 1 0 001.3-1.5.31.31 0 01-.2-.1 1.38 1.38 0 00-.4-.3 13.7 13.7 0 00-1.4-.8 10.38 10.38 0 00-1-.4 8.66 8.66 0 00-1-.2c-.4-.1-.8-.1-1.3-.2h-1.2c-.5 0-.8.1-1.2.1s-.8.1-1.2.1a4.25 4.25 0 00-1.1.2 3.55 3.55 0 01-1 .2 7.17 7.17 0 00-1.4.5 4.2 4.2 0 00-.5.2.48.48 0 00-.2.6.66.66 0 00.7.2zm28.5 27.7a25.89 25.89 0 01-7.7.9 25.52 25.52 0 01-7.6-.9 1 1 0 00-.7 1.9 26.66 26.66 0 008.4 1.1c5.5 0 8.2-1 8.4-1.1a1 1 0 00.6-1.3 1.13 1.13 0 00-1.4-.6z"/><path d="M53.2 93.9a3.79 3.79 0 01-3.2 1.6 4 4 0 01-3.2-1.6 1 1 0 10-1.7 1.1 6.14 6.14 0 004.8 2.4 5.72 5.72 0 004.8-2.4.93.93 0 10-1.5-1.1zm-5.9-9.7a.91.91 0 00.7.3h4a.91.91 0 00.7-.3l1-1a1 1 0 10-1.4-1.4l-.7.7h-3.2l-.7-.7a1 1 0 00-1.4 1.4z"/><path d="M80.8 69.7c.1-1.4.2-2.7.2-4.1v-1.2c-.3-12-5-21.6-12.7-27.2a13 13 0 00.8-4.6c0-8.3-8.5-15-19-15s-19 6.7-19 15a13 13 0 00.8 4.6C24 42.8 19.3 52.3 19 64.3v1.2c0 1.4.1 2.7.2 4.1-3.6 1.2-5.1 4-4.2 8 1 4.3 4.6 9.8 8.4 9.8a2.2 2.2 0 00.8-.1 42.61 42.61 0 0010.8 14v5a1 1 0 002 0V103a23 23 0 0013 4.5 22.25 22.25 0 0013-4.5v3.5a1 1 0 002 0v-5a42.61 42.61 0 0010.8-14 2.2 2.2 0 00.8.1c3.7 0 7.4-5.6 8.4-9.8s-.6-6.9-4.2-8.1zm-59-12.6a23.17 23.17 0 014.7-3.7.88.88 0 00.4-1.3.9.9 0 00-1.3-.4 25.14 25.14 0 00-2.9 2 14.27 14.27 0 01.8-2.2c.1-.1.2-.1.3-.2 7.2-7.9 17-12.7 26.3-12.7s19.1 4.7 26.3 12.7c.1.1.2.2.3.2.3.7.5 1.5.8 2.2a12.6 12.6 0 00-2.9-2 1 1 0 10-.9 1.7c1.7.8 4.2 3.3 4.7 3.7.2 1.2.4 2.5.6 3.8-6.5-8.5-17-13.5-28.8-13.5s-22.2 5-28.8 13.5a16.37 16.37 0 01.4-3.8zM33 32.5c0-7.2 7.6-13 17-13s17 5.8 17 13a12.86 12.86 0 01-.5 3.5A30.61 30.61 0 0050 31.5 30.61 30.61 0 0033.5 36a12.86 12.86 0 01-.5-3.5zm.1 6a.37.37 0 00.3-.1.78.78 0 00.4-.4A29.33 29.33 0 0150 33.5 29.33 29.33 0 0166.2 38a.78.78 0 00.4.4.37.37 0 01.3.1 27.26 27.26 0 017.3 7.8C67 40.1 58.3 36.5 50 36.5s-17 3.6-24.1 9.8a25.73 25.73 0 017.2-7.8zM17 77.3c-.7-2.8.1-4.6 2.4-5.5a49.68 49.68 0 003.9 13.8c-2.3-.1-5.4-4.5-6.3-8.3zm33 28.2c-14.9 0-29-19.4-29-39.9v-.8c5.9-9.6 16.7-15.3 29-15.3s23.1 5.7 29 15.3v.8c0 20.5-14.1 39.9-29 39.9zm33-28.2c-.9 3.8-4 8.2-6.3 8.3a49.68 49.68 0 003.9-13.8c2.3.9 3.1 2.7 2.4 5.5z"/><path d="M45 90.5c.2 0 .3 0 .4-.1a7.35 7.35 0 012.6-.9 2.26 2.26 0 011.3.6 1.05 1.05 0 001.3 0 2.62 2.62 0 011.3-.6 9 9 0 012.6.9 1 1 0 00.9-1.7 10.4 10.4 0 00-3.4-1.1 3.94 3.94 0 00-2 .6 3.94 3.94 0 00-2-.6 9 9 0 00-3.4 1.1.88.88 0 00-.4 1.3.79.79 0 00.8.5z"/></svg>