<?xml version="1.0" encoding="utf-8"?>
<!-- Generator: Adobe Illustrator 21.0.0, SVG Export Plug-In . SVG Version: 6.00 Build 0)  -->
<svg version="1.1" id="livetype" xmlns="http://www.w3.org/2000/svg" xmlns:xlink="http://www.w3.org/1999/xlink" x="0px" y="0px"
	 viewBox="-10 5 145 30" style="enable-background:new 0 0 151.3 40;" xml:space="preserve">
<style type="text/css">
	.st0{fill:#7F7F7F;}
	.st1{fill:#8500D1;}
</style>
<g>
	<g id="_Group_">
		<g id="_Group_2">
			<path id="_Path_" class="st0" d="M24.8,20.3c0-1.7,0.9-3.3,2.4-4.2c-0.9-1.3-2.4-2.1-4-2.2c-1.7-0.2-3.3,1-4.2,1s-2.2-1-3.6-1
				c-1.9,0.1-3.6,1.1-4.5,2.7c-1.9,3.3-0.5,8.3,1.4,11c0.9,1.3,2,2.8,3.4,2.8c1.4-0.1,1.9-0.9,3.6-0.9s2.1,0.9,3.6,0.9
				s2.4-1.3,3.3-2.7c0.7-0.9,1.2-2,1.5-3.1C25.9,24,24.8,22.2,24.8,20.3z"/>
			<path id="_Path_2" class="st0" d="M22,12.2c0.8-1,1.2-2.2,1.1-3.5c-1.2,0.1-2.4,0.7-3.2,1.7c-0.8,0.9-1.2,2.1-1.1,3.4
				C20.1,13.8,21.2,13.2,22,12.2z"/>
		</g>
	</g>
	<g id="_Group_3">
		<g>
			<path class="st1" d="M35.6,24.5c0-0.3,0.3-0.5,0.6-0.5s0.5,0.3,0.5,0.6c0,0.3-0.3,0.5-0.6,0.5S35.6,24.8,35.6,24.5L35.6,24.5z
				 M35.7,31.6v-6h0.9v6H35.7z"/>
			<path class="st1" d="M38.1,27.1H39v0.7l0,0c0.2-0.5,0.8-0.8,1.3-0.8c0.8-0.1,1.5,0.5,1.6,1.4c0,0.1,0,0.2,0,0.3v2.9H41v-2.7
				c0-0.7-0.3-1.1-1-1.1c-0.6,0-1.1,0.4-1.1,1c0,0.1,0,0.1,0,0.2v2.6H38L38.1,27.1L38.1,27.1z"/>
			<path class="st1" d="M43.1,29.3c0-1.4,0.7-2.3,1.9-2.3c0.6,0,1.1,0.3,1.4,0.8h0.1v-2.5h0.9v6.3h-0.9v-0.7h-0.1
				c-0.3,0.5-0.8,0.8-1.4,0.8C43.8,31.6,43.1,30.7,43.1,29.3z M44,29.3c0,1,0.5,1.5,1.2,1.5s1.2-0.6,1.2-1.5s-0.5-1.5-1.2-1.5
				S44,28.4,44,29.3L44,29.3z"/>
			<path class="st1" d="M48.6,25.7c0-0.3,0.2-0.6,0.5-0.6s0.6,0.2,0.6,0.5s-0.2,0.6-0.5,0.6l0,0C48.9,26.3,48.7,26.1,48.6,25.7
				C48.6,25.8,48.6,25.7,48.6,25.7z M48.8,27.1h0.9v4.5h-0.9V27.1z"/>
			<path class="st1" d="M51.1,27.1H52v0.7l0,0c0.2-0.5,0.7-0.8,1.2-0.8c0.1,0,0.3,0,0.4,0v0.9c-0.2,0-0.3-0.1-0.5-0.1
				c-0.6-0.1-1.1,0.4-1.1,1v0.1v2.7h-0.9L51.1,27.1z"/>
			<path class="st1" d="M54.6,25.7c0-0.3,0.2-0.6,0.5-0.6s0.6,0.2,0.6,0.5s-0.2,0.6-0.5,0.6l0,0C54.8,26.3,54.6,26.1,54.6,25.7
				C54.6,25.8,54.6,25.7,54.6,25.7z M54.7,27.1h0.9v4.5h-0.9V27.1z"/>
			<path class="st1" d="M57,27.1h0.9v0.7H58c0.2-0.5,0.8-0.8,1.3-0.8c0.8-0.1,1.5,0.5,1.6,1.4c0,0.1,0,0.2,0,0.3v2.9H60v-2.7
				c0-0.7-0.3-1.1-1-1.1c-0.6,0-1.1,0.4-1.1,1c0,0.1,0,0.1,0,0.2v2.6H57V27.1z"/>
		</g>
	</g>
	<g>
		<path class="st1" d="M40.9,15.9H37l-0.9,2.8h-1.6l3.7-10.2h1.6l3.7,10.2h-1.6L40.9,15.9z M37.5,14.5h3.1L39,10.1h-0.1L37.5,14.5z"
			/>
		<path class="st1" d="M51.5,14.9c0,2.3-1.2,3.8-3.1,3.8c-1,0.1-1.9-0.5-2.3-1.3l0,0V21h-1.6v-9.8H46v1.2l0,0
			c0.5-0.8,1.4-1.3,2.4-1.3C50.2,11.1,51.5,12.6,51.5,14.9z M49.9,14.9c0-1.5-0.7-2.5-2-2.5c-1.1,0-2,1-2,2.5s0.8,2.5,2,2.5
			C49.1,17.4,49.9,16.4,49.9,14.9L49.9,14.9z"/>
		<path class="st1" d="M59.6,14.9c0,2.3-1.2,3.8-3.1,3.8c-1,0.1-1.9-0.5-2.3-1.3l0,0V21h-1.6v-9.8h1.5v1.2l0,0
			c0.5-0.8,1.4-1.3,2.4-1.3C58.4,11.1,59.6,12.6,59.6,14.9z M58.1,14.9c0-1.5-0.7-2.5-2-2.5c-1.1,0-2,1-2,2.5s0.8,2.5,2,2.5
			C57.3,17.4,58.1,16.4,58.1,14.9L58.1,14.9z"/>
		<path class="st1" d="M65,15.8c0.1,1,1.1,1.6,2.5,1.6c1.3,0,2.2-0.7,2.2-1.6c0-0.8-0.6-1.2-1.9-1.6L66.5,14
			c-1.9-0.5-2.7-1.3-2.7-2.7c0-1.7,1.6-3,3.7-3c2.1,0,3.6,1.2,3.7,3h-1.6c-0.1-1-0.9-1.6-2.1-1.6s-2.1,0.7-2.1,1.6
			c0,0.7,0.6,1.1,1.9,1.5l1.1,0.2c2.1,0.5,3,1.3,3,2.8c0,1.9-1.6,3.1-3.9,3.1c-2.3,0-3.8-1.1-3.9-3H65z"/>
		<path class="st1" d="M74.6,9.4v1.7H76v1.2h-1.4v4.1c0,0.7,0.2,0.9,0.9,0.9c0.2,0,0.3,0,0.5,0v1.2c-0.2,0.1-0.6,0.1-0.8,0.1
			c-1.5,0-2.1-0.6-2.1-2v-4.3H72v-1.2h1.1V9.4H74.6z"/>
		<path class="st1" d="M76.9,14.9c0-2.3,1.4-3.8,3.5-3.8s3.5,1.5,3.5,3.8c0,2.4-1.4,3.8-3.5,3.8C78.2,18.6,76.9,17.2,76.9,14.9z
			 M82.4,14.9c0-1.6-0.7-2.5-2-2.5s-2,1-2,2.5c0,1.6,0.7,2.5,2,2.5S82.4,16.5,82.4,14.9z"/>
		<path class="st1" d="M85.1,11.2h1.5v1.2l0,0c0.2-0.8,1-1.4,1.8-1.3c0.2,0,0.3,0,0.5,0.1v1.4c-0.2-0.1-0.5-0.1-0.7-0.1
			c-0.8,0-1.6,0.7-1.6,1.5c0,0.1,0,0.2,0,0.2v4.4h-1.6C85.1,18.6,85.1,11.2,85.1,11.2z"/>
		<path class="st1" d="M96,16.4c-0.2,1.3-1.6,2.3-3.2,2.3c-2.1,0-3.5-1.5-3.5-3.8s1.3-3.9,3.4-3.9c2.1,0,3.4,1.4,3.4,3.7v0.5h-5.3
			v0.1c-0.1,1.1,0.7,2,1.7,2.1c0.1,0,0.2,0,0.2,0c0.7,0.1,1.5-0.3,1.7-1.1L96,16.4z M90.8,14.2h3.7c0.1-1-0.7-1.8-1.7-1.9
			c-0.1,0-0.1,0-0.2,0C91.6,12.3,90.8,13.1,90.8,14.2L90.8,14.2z"/>
		<path class="st1" d="M97,12.2l0.8-3.7h1.5l-1,3.7H97z"/>
		<path class="st1" d="M99.3,14.9c0-2.3,1.2-3.8,3.1-3.8c1-0.1,1.9,0.5,2.3,1.3l0,0v-4h1.6v10.2h-1.5v-1.2l0,0
			c-0.5,0.9-1.4,1.4-2.4,1.3C100.6,18.6,99.3,17.2,99.3,14.9z M100.9,14.9c0,1.6,0.7,2.5,2,2.5c1.1,0,2-1,2-2.5s-0.8-2.5-2-2.5
			C101.6,12.4,100.9,13.4,100.9,14.9L100.9,14.9z"/>
		<path class="st1" d="M107.6,16.5c0-1.3,1-2.1,2.8-2.2l2.1-0.1v-0.6c0-0.8-0.6-1.3-1.5-1.3c-0.7-0.1-1.4,0.3-1.6,1.1H108
			c0.1-1.3,1.3-2.3,3-2.3c1.8,0,3,1,3,2.5v5.1h-1.5v-1.2l0,0c-0.5,0.8-1.4,1.4-2.4,1.3c-1.2,0.1-2.4-0.8-2.5-2.1
			C107.6,16.6,107.6,16.5,107.6,16.5z M112.5,15.8v-0.6l-1.8,0.1c-0.9,0.1-1.4,0.5-1.4,1.1c0,0.7,0.6,1.1,1.4,1.1
			C111.6,17.6,112.4,16.8,112.5,15.8C112.5,15.9,112.5,15.9,112.5,15.8L112.5,15.8z"/>
		<path class="st1" d="M115.5,11.2h1.5v1.2l0,0c0.4-0.9,1.3-1.4,2.3-1.3c1.6,0,2.5,1.1,2.5,2.8v4.8h-1.6v-4.4c0-1.1-0.5-1.7-1.6-1.7
			c-1,0-1.7,0.7-1.8,1.7c0,0.1,0,0.2,0,0.2v4.3h-1.6v-7.6H115.5z"/>
	</g>
</g>
</svg>
