<svg version="1.1" id="livetype" xmlns="http://www.w3.org/2000/svg" x="0" y="0" viewBox="0 0 151.3 40" xml:space="preserve"><style>.st0{fill:#7f7f7f}.st1{fill:#8500d1}</style><g id="_Group_"><g id="_Group_2"><path id="_Path_" class="st0" d="M24.8 20.3c0-1.7.9-3.3 2.4-4.2-.9-1.3-2.4-2.1-4-2.2-1.7-.2-3.3 1-4.2 1s-2.2-1-3.6-1c-1.9.1-3.6 1.1-4.5 2.7-1.9 3.3-.5 8.3 1.4 11 .9 1.3 2 2.8 3.4 2.8 1.4-.1 1.9-.9 3.6-.9s2.1.9 3.6.9 2.4-1.3 3.3-2.7c.7-.9 1.2-2 1.5-3.1-1.8-.6-2.9-2.4-2.9-4.3z"/><path id="_Path_2" class="st0" d="M22 12.2c.8-1 1.2-2.2 1.1-3.5-1.2.1-2.4.7-3.2 1.7-.8.9-1.2 2.1-1.1 3.4 1.3 0 2.4-.6 3.2-1.6z"/></g></g><path class="st1" d="M35.6 24.5c0-.3.3-.5.6-.5s.5.3.5.6-.3.5-.6.5-.5-.3-.5-.6zm.1 7.1v-6h.9v6h-.9zm2.4-4.5h.9v.7c.2-.5.8-.8 1.3-.8.8-.1 1.5.5 1.6 1.4v3.2H41v-2.7c0-.7-.3-1.1-1-1.1-.6 0-1.1.4-1.1 1v2.8H38l.1-4.5zm5 2.2c0-1.4.7-2.3 1.9-2.3.6 0 1.1.3 1.4.8h.1v-2.5h.9v6.3h-.9v-.7h-.1c-.3.5-.8.8-1.4.8-1.2-.1-1.9-1-1.9-2.4zm.9 0c0 1 .5 1.5 1.2 1.5s1.2-.6 1.2-1.5-.5-1.5-1.2-1.5-1.2.6-1.2 1.5zm4.6-3.6c0-.3.2-.6.5-.6s.6.2.6.5-.2.6-.5.6c-.3.1-.5-.1-.6-.5 0 .1 0 0 0 0zm.2 1.4h.9v4.5h-.9v-4.5zm2.3 0h.9v.7c.2-.5.7-.8 1.2-.8h.4v.9c-.2 0-.3-.1-.5-.1-.6-.1-1.1.4-1.1 1v2.8h-.9v-4.5zm3.5-1.4c0-.3.2-.6.5-.6s.6.2.6.5-.2.6-.5.6c-.4.1-.6-.1-.6-.5 0 .1 0 0 0 0zm.1 1.4h.9v4.5h-.9v-4.5zm2.3 0h.9v.7h.1c.2-.5.8-.8 1.3-.8.8-.1 1.5.5 1.6 1.4v3.2H60v-2.7c0-.7-.3-1.1-1-1.1-.6 0-1.1.4-1.1 1v2.8H57v-4.5z" id="_Group_3"/><path class="st1" d="M40.9 15.9H37l-.9 2.8h-1.6l3.7-10.2h1.6l3.7 10.2h-1.6l-1-2.8zm-3.4-1.4h3.1L39 10.1h-.1l-1.4 4.4zm14 .4c0 2.3-1.2 3.8-3.1 3.8-1 .1-1.9-.5-2.3-1.3V21h-1.6v-9.8H46v1.2c.5-.8 1.4-1.3 2.4-1.3 1.8 0 3.1 1.5 3.1 3.8zm-1.6 0c0-1.5-.7-2.5-2-2.5-1.1 0-2 1-2 2.5s.8 2.5 2 2.5 2-1 2-2.5zm9.7 0c0 2.3-1.2 3.8-3.1 3.8-1 .1-1.9-.5-2.3-1.3V21h-1.6v-9.8h1.5v1.2c.5-.8 1.4-1.3 2.4-1.3 1.9 0 3.1 1.5 3.1 3.8zm-1.5 0c0-1.5-.7-2.5-2-2.5-1.1 0-2 1-2 2.5s.8 2.5 2 2.5 2-1 2-2.5zm6.9.9c.1 1 1.1 1.6 2.5 1.6 1.3 0 2.2-.7 2.2-1.6 0-.8-.6-1.2-1.9-1.6l-1.3-.2c-1.9-.5-2.7-1.3-2.7-2.7 0-1.7 1.6-3 3.7-3s3.6 1.2 3.7 3h-1.6c-.1-1-.9-1.6-2.1-1.6s-2.1.7-2.1 1.6c0 .7.6 1.1 1.9 1.5l1.1.2c2.1.5 3 1.3 3 2.8 0 1.9-1.6 3.1-3.9 3.1s-3.8-1.1-3.9-3H65zm9.6-6.4v1.7H76v1.2h-1.4v4.1c0 .7.2.9.9.9h.5v1.2c-.2.1-.6.1-.8.1-1.5 0-2.1-.6-2.1-2v-4.3H72v-1.2h1.1V9.4h1.5zm2.3 5.5c0-2.3 1.4-3.8 3.5-3.8s3.5 1.5 3.5 3.8c0 2.4-1.4 3.8-3.5 3.8-2.2-.1-3.5-1.5-3.5-3.8zm5.5 0c0-1.6-.7-2.5-2-2.5s-2 1-2 2.5c0 1.6.7 2.5 2 2.5s2-.9 2-2.5zm2.7-3.7h1.5v1.2c.2-.8 1-1.4 1.8-1.3.2 0 .3 0 .5.1v1.4c-.2-.1-.5-.1-.7-.1-.8 0-1.6.7-1.6 1.5v4.6H85c.1 0 .1-7.4.1-7.4zM96 16.4c-.2 1.3-1.6 2.3-3.2 2.3-2.1 0-3.5-1.5-3.5-3.8s1.3-3.9 3.4-3.9c2.1 0 3.4 1.4 3.4 3.7v.5h-5.3v.1c-.1 1.1.7 2 1.7 2.1h.2c.7.1 1.5-.3 1.7-1.1l1.6.1zm-5.2-2.2h3.7c.1-1-.7-1.8-1.7-1.9h-.2c-1 0-1.8.8-1.8 1.9zm6.2-2l.8-3.7h1.5l-1 3.7H97zm2.3 2.7c0-2.3 1.2-3.8 3.1-3.8 1-.1 1.9.5 2.3 1.3v-4h1.6v10.2h-1.5v-1.2c-.5.9-1.4 1.4-2.4 1.3-1.8-.1-3.1-1.5-3.1-3.8zm1.6 0c0 1.6.7 2.5 2 2.5 1.1 0 2-1 2-2.5s-.8-2.5-2-2.5c-1.3 0-2 1-2 2.5zm6.7 1.6c0-1.3 1-2.1 2.8-2.2l2.1-.1v-.6c0-.8-.6-1.3-1.5-1.3-.7-.1-1.4.3-1.6 1.1H108c.1-1.3 1.3-2.3 3-2.3 1.8 0 3 1 3 2.5v5.1h-1.5v-1.2c-.5.8-1.4 1.4-2.4 1.3-1.2.1-2.4-.8-2.5-2.1v-.2zm4.9-.7v-.6l-1.8.1c-.9.1-1.4.5-1.4 1.1 0 .7.6 1.1 1.4 1.1.9.1 1.7-.7 1.8-1.7 0 .1 0 .1 0 0zm3-4.6h1.5v1.2c.4-.9 1.3-1.4 2.3-1.3 1.6 0 2.5 1.1 2.5 2.8v4.8h-1.6v-4.4c0-1.1-.5-1.7-1.6-1.7-1 0-1.7.7-1.8 1.7v4.5h-1.6v-7.6h.3z"/></svg>