<svg xmlns="http://www.w3.org/2000/svg" viewBox="0 0 1130.6 557.7"><defs><style>.cls-1{fill:#af72d6;}.cls-2{fill:#ff4dc2;}</style></defs><title>Asset 2</title><g id="Layer_2" data-name="Layer 2"><g id="katman_1" data-name="katman 1"><path class="cls-1" d="M74.6,12.4C33.3,12.4,0,41.2,0,76.7,0,90.6,5.1,103.4,13.8,114c2.4,2.9,3.3,3.8,3.3,3.8,2.6,2.5,4.4,6.9,3.8,9.9s-1,5.5-1,5.5l-4,22c-.7,3.7,1.3,4.8,4.3,2.8l18.4-12.4,7.8-5.3a12.7,12.7,0,0,1,8.9-1.6S66.1,141,74.6,141c41.2,0,74.5-28.7,74.5-64.2S115.8,12.4,74.6,12.4ZM42.3,87.5A10.8,10.8,0,1,1,53,76.7,10.8,10.8,0,0,1,42.3,87.5Zm32.3,0A10.8,10.8,0,1,1,85.3,76.7,10.8,10.8,0,0,1,74.6,87.5Zm32.3,0a10.8,10.8,0,1,1,10.7-10.8A10.8,10.8,0,0,1,106.9,87.5Z"/><path class="cls-1" d="M398.9,0c-23.2,0-42,16.3-42,36.3a33.5,33.5,0,0,0,7.7,21,17.3,17.3,0,0,0,1.9,2.1,7.2,7.2,0,0,1,2.2,5.6c-.3,1.7-.6,3.1-.6,3.1l-2.3,12.5c-.3,2,.8,2.7,2.5,1.6l10.4-7.1,4.3-2.9a7.2,7.2,0,0,1,5.1-1,63.1,63.1,0,0,0,10.8,1.3c23.3,0,42.1-16.1,42.1-36.1S422.2,0,398.9,0ZM380.7,42.3a6.1,6.1,0,1,1,6.1-6A6,6,0,0,1,380.7,42.3Zm18.2,0a6.1,6.1,0,1,1,6.1-6A6,6,0,0,1,398.9,42.3Zm18.3,0a6.1,6.1,0,1,1,6-6A6,6,0,0,1,417.2,42.3Z"/><path class="cls-1" d="M352.9,287.8c-16.3,0-29.4,11.4-29.4,25.4a22.9,22.9,0,0,0,5.4,14.6l1.3,1.5a4.7,4.7,0,0,1,1.5,4l-.4,2.1-1.5,8.7c-.3,1.4.5,1.9,1.7,1.1l7.2-4.9,3.1-2.1a4.7,4.7,0,0,1,3.5-.6,43.6,43.6,0,0,0,7.6.9c16.2,0,29.3-11.3,29.3-25.3S369.1,287.8,352.9,287.8Z"/><path class="cls-2" d="M246.5,12.4c-24.9,0-45,17.4-45,38.8a35.5,35.5,0,0,0,8.3,22.5l2,2.3c1.6,1.5,2.7,4.2,2.3,6s-.6,3.3-.6,3.3l-2.4,13.3c-.4,2.2.8,2.9,2.6,1.7l11.1-7.5,4.7-3.2a7.9,7.9,0,0,1,5.4-1A66.7,66.7,0,0,0,246.5,90c24.9,0,45-17.3,45-38.7S271.4,12.4,246.5,12.4ZM227,57.7a6.5,6.5,0,1,1,6.5-6.5A6.5,6.5,0,0,1,227,57.7Zm19.5,0a6.5,6.5,0,1,1,6.5-6.5A6.5,6.5,0,0,1,246.5,57.7Zm19.5,0a6.5,6.5,0,1,1,6.5-6.5A6.5,6.5,0,0,1,266,57.7Z"/><path class="cls-2" d="M415.9,114.4c-37.2,0-67.2,26-67.2,58,0,12.5,4.6,24,12.4,33.6a33.6,33.6,0,0,0,3,3.4c2.3,2.2,4,6.3,3.4,9s-.9,4.9-.9,4.9L363,243.1c-.6,3.3,1.2,4.4,3.9,2.6l16.6-11.2,7-4.8a12,12,0,0,1,8-1.5,99.3,99.3,0,0,0,17.4,2.1c37.1,0,67.1-25.8,67.1-57.8S453,114.4,415.9,114.4Zm-29.2,67.7a9.7,9.7,0,1,1,9.8-9.7A9.8,9.8,0,0,1,386.7,182.1Zm29.2,0a9.7,9.7,0,1,1,9.7-9.7A9.7,9.7,0,0,1,415.9,182.1Zm29.1,0a9.7,9.7,0,1,1,9.7-9.7A9.7,9.7,0,0,1,445,182.1Z"/><path class="cls-2" d="M348.7,377.9c-50.6,0-91.4,35.4-91.4,78.8,0,17.1,6.3,32.7,16.8,45.7,3.1,3.7,4.1,4.7,4.1,4.7,3.2,3.1,5.5,8.6,4.7,12.2l-1.3,6.7-4.8,27c-.9,4.5,1.6,5.9,5.2,3.5l22.6-15.2,9.5-6.6c2.9-1.8,7.8-2.8,11-2,0,0,13.2,2.9,23.6,2.9,50.6,0,91.4-35.2,91.4-78.7S399.3,377.9,348.7,377.9Zm-39.6,92a13.2,13.2,0,1,1,13.2-13.2A13.1,13.1,0,0,1,309.1,469.9Zm39.6,0a13.2,13.2,0,1,1,13.2-13.2A13.1,13.1,0,0,1,348.7,469.9Zm39.6,0a13.2,13.2,0,1,1,13.2-13.2A13.1,13.1,0,0,1,388.3,469.9Z"/><path class="cls-1" d="M584.2,12.4c-41.2,0-74.5,28.8-74.5,64.3,0,13.9,5.1,26.7,13.7,37.3l3.3,3.8c2.7,2.5,4.5,6.9,3.9,9.9s-1,5.5-1,5.5l-4,22c-.7,3.7,1.3,4.8,4.3,2.8l18.4-12.4,7.8-5.3a12.7,12.7,0,0,1,8.9-1.6s10.8,2.3,19.2,2.3c41.3,0,74.6-28.7,74.6-64.2S625.5,12.4,584.2,12.4ZM551.9,87.5a10.8,10.8,0,1,1,10.8-10.8A10.8,10.8,0,0,1,551.9,87.5Zm32.3,0A10.8,10.8,0,1,1,595,76.7,10.8,10.8,0,0,1,584.2,87.5Zm32.4,0a10.8,10.8,0,1,1,10.7-10.8A10.8,10.8,0,0,1,616.6,87.5Z"/><path class="cls-1" d="M1056,347.6c-41.2,0-74.5,28.8-74.5,64.3,0,13.9,5.1,26.7,13.7,37.3l3.3,3.8c2.7,2.5,4.5,6.9,3.9,9.9s-1,5.5-1,5.5l-4,22c-.7,3.7,1.3,4.8,4.3,2.8l18.4-12.4,7.8-5.3a12.7,12.7,0,0,1,8.9-1.6s10.8,2.3,19.2,2.3c41.3,0,74.6-28.7,74.6-64.2S1097.3,347.6,1056,347.6Zm-32.3,75.1a10.8,10.8,0,1,1,10.8-10.8A10.8,10.8,0,0,1,1023.7,422.7Zm32.3,0a10.8,10.8,0,1,1,10.8-10.8A10.8,10.8,0,0,1,1056,422.7Zm32.4,0a10.8,10.8,0,1,1,10.7-10.8A10.8,10.8,0,0,1,1088.4,422.7Z"/><path class="cls-1" d="M744.4,145.4c-31.4,0-56.7,22-56.7,49a44.4,44.4,0,0,0,10.5,28.3,23.8,23.8,0,0,0,2.5,2.9c2,1.9,3.4,5.3,2.9,7.6s-.8,4.2-.8,4.2l-3,16.7c-.5,2.8,1,3.7,3.3,2.2l14-9.5,5.9-4a9.7,9.7,0,0,1,6.8-1.3,82.6,82.6,0,0,0,14.6,1.8c31.4,0,56.8-21.8,56.8-48.8S775.8,145.4,744.4,145.4Zm-24.6,57.2a8.2,8.2,0,1,1,8.2-8.2A8.2,8.2,0,0,1,719.8,202.6Zm24.6,0a8.2,8.2,0,1,1,0-16.4,8.2,8.2,0,1,1,0,16.4Zm24.6,0a8.2,8.2,0,0,1,0-16.4,8.2,8.2,0,1,1,0,16.4Z"/><path class="cls-1" d="M1072,111c-27,0-48.8,18.9-48.8,42.1a38,38,0,0,0,9,24.4l2.1,2.5c1.8,1.6,3,4.6,2.5,6.5s-.6,3.6-.6,3.6l-2.6,14.4c-.4,2.4.9,3.2,2.8,1.9l12-8.2,5.1-3.5a8.8,8.8,0,0,1,5.9-1,72.5,72.5,0,0,0,12.6,1.5c27,0,48.8-18.8,48.8-42S1099,111,1072,111Zm-21.2,49.1a7,7,0,0,1-7-7,7,7,0,0,1,7-7.1,7.1,7.1,0,0,1,7.1,7.1A7,7,0,0,1,1050.8,160.1Zm21.2,0a7,7,0,0,1-7.1-7,7.1,7.1,0,0,1,7.1-7.1,7,7,0,0,1,7,7.1A7,7,0,0,1,1072,160.1Zm21.1,0a7,7,0,0,1-7-7,7,7,0,0,1,7-7.1,7.1,7.1,0,0,1,7.1,7.1A7,7,0,0,1,1093.1,160.1Z"/><path class="cls-1" d="M908.6,0c-23.3,0-42,16.3-42,36.3a33.5,33.5,0,0,0,7.7,21,17.3,17.3,0,0,0,1.9,2.1c1.5,1.4,2.5,4,2.1,5.6s-.5,3.1-.5,3.1l-2.3,12.5c-.3,2,.8,2.7,2.5,1.6l10.3-7.1,4.4-2.9a7.1,7.1,0,0,1,5.1-1,61.5,61.5,0,0,0,10.8,1.3c23.3,0,42.1-16.1,42.1-36.1S931.9,0,908.6,0ZM890.4,42.3a6.1,6.1,0,1,1,6.1-6A6,6,0,0,1,890.4,42.3Zm18.2,0a6.1,6.1,0,1,1,6.1-6A6,6,0,0,1,908.6,42.3Zm18.2,0a6.1,6.1,0,1,1,6.1-6A6,6,0,0,1,926.8,42.3Z"/><path class="cls-1" d="M981.5,69.4c-13.9,0-25.2,9.8-25.2,21.8a19.4,19.4,0,0,0,4.6,12.5l1.2,1.3a4.3,4.3,0,0,1,1.3,3.4c-.2,1-.4,1.8-.4,1.8l-1.3,7.5c-.2,1.2.4,1.6,1.4.9l6.2-4.2,2.7-1.8a4.5,4.5,0,0,1,3-.5,36.1,36.1,0,0,0,6.5.8c13.9,0,25.2-9.7,25.2-21.7S995.4,69.4,981.5,69.4Z"/><path class="cls-1" d="M862.5,287.8c-16.2,0-29.3,11.4-29.3,25.4a22.9,22.9,0,0,0,5.4,14.6l1.3,1.5a5,5,0,0,1,1.5,4l-.4,2.1-1.6,8.7c-.2,1.4.6,1.9,1.7,1.1l7.3-4.9,3.1-2.1a4.7,4.7,0,0,1,3.5-.6,43.3,43.3,0,0,0,7.5.9c16.3,0,29.4-11.3,29.4-25.3S878.8,287.8,862.5,287.8Zm-12.7,29.6a4.3,4.3,0,0,1,0-8.5,4.3,4.3,0,1,1,0,8.5Zm12.7,0a4.3,4.3,0,0,1,0-8.5,4.3,4.3,0,1,1,0,8.5Zm12.8,0a4.3,4.3,0,1,1,4.2-4.2A4.2,4.2,0,0,1,875.3,317.4Z"/><path class="cls-2" d="M756.2,12.4c-24.9,0-45,17.4-45,38.8a35.5,35.5,0,0,0,8.3,22.5l2,2.3c1.6,1.5,2.7,4.2,2.3,6s-.6,3.3-.6,3.3l-2.4,13.3c-.4,2.2.8,2.9,2.6,1.7l11.1-7.5,4.7-3.2a7.9,7.9,0,0,1,5.4-1A66.7,66.7,0,0,0,756.2,90c24.9,0,45-17.3,45-38.7S781.1,12.4,756.2,12.4Z"/><path class="cls-2" d="M1064.4,0c-24.9,0-45,17.4-45,38.8a35.5,35.5,0,0,0,8.3,22.5l2,2.3c1.6,1.5,2.7,4.2,2.3,6s-.6,3.3-.6,3.3L1029,86.2c-.4,2.2.8,2.9,2.6,1.7l11.1-7.5,4.7-3.2a7.9,7.9,0,0,1,5.4-1,66.7,66.7,0,0,0,11.6,1.4c24.9,0,45-17.3,45-38.7S1089.3,0,1064.4,0Zm-19.5,45.3a6.5,6.5,0,1,1,6.5-6.5A6.5,6.5,0,0,1,1044.9,45.3Zm19.5,0a6.5,6.5,0,1,1,6.5-6.5A6.5,6.5,0,0,1,1064.4,45.3Zm19.5,0a6.5,6.5,0,1,1,6.5-6.5A6.5,6.5,0,0,1,1083.9,45.3Z"/><path class="cls-2" d="M1072,226c-24.9,0-45,17.4-45,38.8a35.5,35.5,0,0,0,8.3,22.5l2,2.3c1.6,1.5,2.7,4.2,2.3,6s-.6,3.3-.6,3.3l-2.4,13.3c-.4,2.2.8,2.9,2.6,1.7l11.1-7.5,4.7-3.2a7.9,7.9,0,0,1,5.4-1,66.7,66.7,0,0,0,11.6,1.4c24.9,0,45-17.3,45-38.7S1096.9,226,1072,226Zm-19.5,45.3a6.5,6.5,0,1,1,6.5-6.5A6.5,6.5,0,0,1,1052.5,271.3Zm19.5,0a6.5,6.5,0,1,1,6.5-6.5A6.5,6.5,0,0,1,1072,271.3Zm19.5,0a6.5,6.5,0,1,1,6.5-6.5A6.5,6.5,0,0,1,1091.5,271.3Z"/><path class="cls-2" d="M553.1,270.3c-42.4,0-76.6,29.6-76.6,66,0,14.3,5.3,27.4,14.1,38.3,2.6,3.1,3.4,3.9,3.4,3.9,2.7,2.6,4.6,7.2,3.9,10.3s-1,5.6-1,5.6L492.8,417c-.7,3.8,1.4,5,4.5,2.9l18.9-12.8,8-5.4a13.2,13.2,0,0,1,9.1-1.7s11.1,2.4,19.8,2.4c42.4,0,76.6-29.5,76.6-65.9S595.5,270.3,553.1,270.3Zm-33.2,77.1A11.1,11.1,0,1,1,531,336.3,11.1,11.1,0,0,1,519.9,347.4Zm33.2,0a11.1,11.1,0,1,1,11.1-11.1A11.1,11.1,0,0,1,553.1,347.4Zm33.2,0a11.1,11.1,0,1,1,11.1-11.1A11.1,11.1,0,0,1,586.3,347.4Z"/><path class="cls-2" d="M912.2,114.4c-37.2,0-67.2,26-67.2,58,0,12.5,4.6,24,12.4,33.6a33.6,33.6,0,0,0,3,3.4c2.4,2.2,4,6.3,3.4,9s-.9,4.9-.9,4.9l-3.6,19.8c-.6,3.3,1.2,4.4,3.9,2.6l16.6-11.2,7-4.8a12.1,12.1,0,0,1,8.1-1.5,99.1,99.1,0,0,0,17.3,2.1c37.2,0,67.2-25.8,67.2-57.8S949.4,114.4,912.2,114.4Zm-29.1,67.7a9.7,9.7,0,1,1,9.7-9.7A9.7,9.7,0,0,1,883.1,182.1Zm29.1,0a9.7,9.7,0,1,1,9.7-9.7A9.7,9.7,0,0,1,912.2,182.1Zm29.1,0a9.7,9.7,0,1,1,9.7-9.7A9.7,9.7,0,0,1,941.3,182.1Z"/><path class="cls-2" d="M858.4,377.9c-50.6,0-91.5,35.4-91.5,78.8,0,17.1,6.3,32.7,16.9,45.7a50.9,50.9,0,0,0,4.1,4.7c3.2,3.1,5.4,8.6,4.6,12.2s-1.2,6.7-1.2,6.7l-4.9,27c-.8,4.5,1.7,5.9,5.3,3.5l22.6-15.2,9.5-6.6c2.9-1.8,7.7-2.8,11-2,0,0,13.2,2.9,23.6,2.9,50.5,0,91.4-35.2,91.4-78.7S908.9,377.9,858.4,377.9Zm-39.7,92a13.2,13.2,0,1,1,13.2-13.2A13.1,13.1,0,0,1,818.7,469.9Zm39.7,0a13.2,13.2,0,1,1,13.2-13.2A13.1,13.1,0,0,1,858.4,469.9Zm39.6,0a13.2,13.2,0,1,1,13.2-13.2A13.1,13.1,0,0,1,898,469.9Z"/><path class="cls-2" d="M970,298.7c-12.5,0-22.5,8.7-22.5,19.4a17.8,17.8,0,0,0,4.1,11.3l1,1.1a3.8,3.8,0,0,1,1.2,3c-.2.9-.3,1.7-.3,1.7l-1.2,6.6c-.2,1.1.4,1.5,1.3.9l5.5-3.8,2.4-1.6a4.2,4.2,0,0,1,2.7-.5,32.6,32.6,0,0,0,5.8.7c12.4,0,22.5-8.6,22.5-19.3S982.4,298.7,970,298.7Z"/><path class="cls-2" d="M744.4,320.8c-12.4,0-22.5,8.7-22.5,19.4a17.9,17.9,0,0,0,4.2,11.3,5.7,5.7,0,0,0,1,1.1,3.7,3.7,0,0,1,1.1,3,14.5,14.5,0,0,1-.3,1.7l-1.2,6.6c-.2,1.1.4,1.5,1.3.9l5.6-3.8,2.3-1.6a4.2,4.2,0,0,1,2.7-.5,34.2,34.2,0,0,0,5.8.7c12.5,0,22.5-8.6,22.5-19.3S756.9,320.8,744.4,320.8Zm0,22.7a3.2,3.2,0,0,1-3.2-3.3,3.2,3.2,0,0,1,3.2-3.2,3.2,3.2,0,0,1,3.3,3.2A3.3,3.3,0,0,1,744.4,343.5Z"/></g></g></svg>