<svg id="Layer" enable-background="new 8 8 48 48" viewBox="8 8 48 48" xmlns="http://www.w3.org/2000/svg">
  <defs>    
    <linearGradient id="svg-gradient3" x1="0" y1="0" x2="1" y2="1">
      <stop offset="0%" stop-color="#3bc0fa" /> 
      <stop offset="26%" stop-color="#3bc0fa" />            
      <stop offset="100%" stop-color="#810dd3" />            
    </linearGradient>    
  </defs>
  <g fill="url(#svg-gradient3) #3bc0fa">
    <path d="m45 40c-2.046 0-4.224 1.416-6 2.971v-15.971c0-3.687-1.831-7.108-4.898-9.152-3.707-2.472-8.497-2.472-12.203 0-.57.38-1.081.821-1.562 1.289-.963-3.958-2.968-7.597-5.922-10.551-.78-.781-2.048-.781-2.828 0-.781.781-.781 2.047 0 2.828 3.49 3.492 5.413 8.134 5.413 13.071v2.515 3 18c0 1.104.896 2 2 2s2-.896 2-2v-18-3c0-2.346 1.165-4.523 3.117-5.824 2.359-1.573 5.407-1.572 7.766 0 1.952 1.301 3.117 3.478 3.117 5.824v20.172l-2.585 2.586c-1.447 1.445-3.37 2.242-5.415 2.242-1.104 0-2 .896-2 2s.896 2 2 2c3.113 0 6.041-1.212 8.243-3.414l1.641-1.641c1.889 2.062 5.139 5.055 8.116 5.055 4.411 0 8-3.589 8-8s-3.589-8-8-8zm0 12c-1.166 0-3.498-1.898-5.388-4 1.89-2.102 4.222-4 5.388-4 2.206 0 4 1.794 4 4s-1.794 4-4 4z"/>
  </g>
</svg>