<?xml version="1.0" encoding="utf-8"?>
<!-- Generator: Adobe Illustrator 23.0.5, SVG Export Plug-In . SVG Version: 6.00 Build 0)  -->
<svg version="1.1" id="katman_1" xmlns="http://www.w3.org/2000/svg" xmlns:xlink="http://www.w3.org/1999/xlink" x="0px" y="0px"
	 viewBox="0 0 1170 1170" style="enable-background:new 0 0 1170 1170;" xml:space="preserve">
<style type="text/css">
	.st0{fill:#AF72D6;}
	.st1{fill:#FF4DC2;}
</style>
<path class="st0" d="M106.5,28.1c-41.3,0-74.6,28.8-74.6,64.3c0,13.9,5.1,26.7,13.8,37.3c2.5,3,3.3,3.8,3.3,3.8
	c2.7,2.5,4.5,7,3.8,9.9c-0.5,3-1,5.5-1,5.5l-4,22c-0.7,3.6,1.3,4.8,4.3,2.8l18.4-12.4l7.8-5.3c2.3-1.5,6.3-2.3,8.9-1.7
	c0,0,10.8,2.3,19.2,2.3c41.3,0,74.6-28.7,74.6-64.1C181,56.9,147.7,28.1,106.5,28.1z M74.2,103.1c-6,0-10.8-4.8-10.8-10.8
	c0-6,4.8-10.8,10.8-10.8c6,0,10.8,4.8,10.8,10.8S80.1,103.1,74.2,103.1z M106.5,103.1c-6,0-10.8-4.8-10.8-10.8
	c0-6,4.8-10.8,10.8-10.8c6,0,10.8,4.8,10.8,10.8S112.4,103.1,106.5,103.1z M138.8,103.1c-6,0-10.8-4.8-10.8-10.8
	c0-6,4.8-10.8,10.8-10.8c6,0,10.8,4.8,10.8,10.8S144.7,103.1,138.8,103.1z"/>
<path class="st0" d="M245.8,600.7c-41.3,0-74.6,28.8-74.6,64.3c0,13.9,5.1,26.7,13.8,37.3c2.5,3,3.3,3.8,3.3,3.8
	c2.7,2.5,4.5,7,3.8,9.9c-0.5,3-1,5.5-1,5.5l-4,22c-0.7,3.6,1.3,4.8,4.3,2.8l18.4-12.4l7.8-5.3c2.3-1.5,6.3-2.3,8.9-1.7
	c0,0,10.8,2.3,19.2,2.3c41.3,0,74.6-28.7,74.6-64.1C320.4,629.5,287.1,600.7,245.8,600.7z M213.5,675.8c-6,0-10.8-4.8-10.8-10.8
	c0-6,4.8-10.8,10.8-10.8c6,0,10.8,4.8,10.8,10.8C224.3,671,219.5,675.8,213.5,675.8z M245.8,675.8c-6,0-10.8-4.8-10.8-10.8
	c0-6,4.8-10.8,10.8-10.8c6,0,10.8,4.8,10.8,10.8C256.6,671,251.8,675.8,245.8,675.8z M278.2,675.8c-6,0-10.8-4.8-10.8-10.8
	c0-6,4.8-10.8,10.8-10.8s10.8,4.8,10.8,10.8C288.9,671,284.1,675.8,278.2,675.8z"/>
<path class="st0" d="M575.6,901c-50.1,0-90.6,35-90.6,78.1c0,16.9,6.2,32.4,16.7,45.3c3,3.6,4,4.6,4,4.6c3.2,3,5.4,8.5,4.6,12.1
	c-0.6,3.6-1.2,6.6-1.2,6.6l-4.8,26.8c-0.8,4.4,1.6,5.8,5.2,3.4l22.3-15.1l9.5-6.4c2.8-1.8,7.6-2.8,10.9-2c0,0,13.1,2.8,23.3,2.8
	c50.1,0,90.6-34.8,90.6-77.9C666.1,936,625.7,901,575.6,901z M536.3,992.1c-7.2,0-13.1-5.8-13.1-13.1c0-7.2,5.8-13.1,13.1-13.1
	c7.2,0,13.1,5.8,13.1,13.1C549.4,986.3,543.6,992.1,536.3,992.1z M575.6,992.1c-7.2,0-13.1-5.8-13.1-13.1c0-7.2,5.8-13.1,13.1-13.1
	c7.2,0,13.1,5.8,13.1,13.1C588.6,986.3,582.8,992.1,575.6,992.1z M614.8,992.1c-7.2,0-13.1-5.8-13.1-13.1c0-7.2,5.8-13.1,13.1-13.1
	c7.2,0,13.1,5.8,13.1,13.1C627.9,986.3,622.1,992.1,614.8,992.1z"/>
<path class="st0" d="M1058.9,833.6c-53.6,0-96.9,37.5-96.9,83.6c0,18.1,6.7,34.7,17.9,48.5c3.2,3.9,4.3,5,4.3,5
	c3.4,3.2,5.8,9,5,12.9c-0.6,3.9-1.3,7.1-1.3,7.1l-5.2,28.6c-0.9,4.7,1.7,6.2,5.6,3.7l23.9-16.2l10.1-6.9c3-1.9,8.2-3,11.6-2.2
	c0,0,14,3,25,3c53.6,0,96.9-37.3,96.9-83.3C1155.8,871.1,1112.5,833.6,1058.9,833.6z M1016.9,931.2c-7.8,0-14-6.2-14-14
	s6.2-14,14-14s14,6.2,14,14S1024.6,931.2,1016.9,931.2z M1058.9,931.2c-7.8,0-14-6.2-14-14s6.2-14,14-14s14,6.2,14,14
	S1066.6,931.2,1058.9,931.2z M1100.9,931.2c-7.8,0-14-6.2-14-14s6.2-14,14-14s14,6.2,14,14S1108.6,931.2,1100.9,931.2z"/>
<path class="st0" d="M171.3,967.3c-30.2,0-54.5,21.1-54.5,47c0,10.2,3.8,19.5,10.1,27.3c1.8,2.2,2.4,2.8,2.4,2.8
	c1.9,1.8,3.3,5.1,2.8,7.3c-0.4,2.2-0.7,4-0.7,4l-2.9,16.1c-0.5,2.7,1,3.5,3.2,2.1l13.5-9.1l5.7-3.9c1.7-1.1,4.6-1.7,6.5-1.2
	c0,0,7.9,1.7,14.1,1.7c30.2,0,54.5-21,54.5-46.9C225.8,988.4,201.5,967.3,171.3,967.3z M147.6,1022.2c-4.4,0-7.9-3.5-7.9-7.9
	s3.5-7.9,7.9-7.9s7.9,3.5,7.9,7.9S152,1022.2,147.6,1022.2z M171.3,1022.2c-4.4,0-7.9-3.5-7.9-7.9s3.5-7.9,7.9-7.9s7.9,3.5,7.9,7.9
	S175.6,1022.2,171.3,1022.2z M194.9,1022.2c-4.4,0-7.9-3.5-7.9-7.9s3.5-7.9,7.9-7.9s7.9,3.5,7.9,7.9S199.3,1022.2,194.9,1022.2z"/>
<path class="st0" d="M257.5,1084.8c-17.5,0-31.7,12.3-31.7,27.3c0,5.9,2.2,11.3,5.8,15.8c1.1,1.3,1.4,1.6,1.4,1.6
	c1.1,1.1,1.9,3,1.6,4.2c-0.2,1.3-0.4,2.3-0.4,2.3l-1.7,9.4c-0.3,1.5,0.6,2,1.8,1.2l7.8-5.3l3.3-2.3c1-0.6,2.7-1,3.8-0.7
	c0,0,4.6,1,8.2,1c17.5,0,31.7-12.2,31.7-27.3C289.2,1097,275.1,1084.8,257.5,1084.8z M243.8,1116.7c-2.5,0-4.6-2-4.6-4.6
	s2-4.6,4.6-4.6s4.6,2,4.6,4.6S246.3,1116.7,243.8,1116.7z M257.5,1116.7c-2.5,0-4.6-2-4.6-4.6s2-4.6,4.6-4.6s4.6,2,4.6,4.6
	S260.1,1116.7,257.5,1116.7z M271.3,1116.7c-2.5,0-4.6-2-4.6-4.6s2-4.6,4.6-4.6c2.5,0,4.6,2,4.6,4.6S273.8,1116.7,271.3,1116.7z"/>
<path class="st0" d="M266.7,161.1c-31.4,0-56.7,21.9-56.7,48.9c0,10.6,3.9,20.3,10.5,28.4c1.9,2.3,2.5,2.9,2.5,2.9
	c2,1.9,3.4,5.3,2.9,7.6c-0.4,2.3-0.8,4.2-0.8,4.2l-3,16.8c-0.5,2.8,1,3.7,3.3,2.1l14-9.5l5.9-4c1.8-1.1,4.8-1.8,6.8-1.3
	c0,0,8.2,1.8,14.6,1.8c31.4,0,56.7-21.8,56.7-48.8C323.4,183.1,298.1,161.1,266.7,161.1z M242.1,218.2c-4.5,0-8.2-3.7-8.2-8.2
	s3.7-8.2,8.2-8.2s8.2,3.7,8.2,8.2S246.6,218.2,242.1,218.2z M266.7,218.2c-4.5,0-8.2-3.7-8.2-8.2s3.7-8.2,8.2-8.2s8.2,3.7,8.2,8.2
	S271.2,218.2,266.7,218.2z M291.3,218.2c-4.5,0-8.2-3.7-8.2-8.2s3.7-8.2,8.2-8.2c4.5,0,8.2,3.7,8.2,8.2S295.8,218.2,291.3,218.2z"/>
<path class="st0" d="M430.8,15.7c-23.3,0-42.1,16.3-42.1,36.3c0,7.9,2.9,15,7.8,21c1.4,1.7,1.9,2.1,1.9,2.1c1.5,1.4,2.5,3.9,2.1,5.6
	c-0.3,1.7-0.6,3.1-0.6,3.1l-2.2,12.4c-0.4,2.1,0.7,2.7,2.4,1.6l10.4-7l4.4-3c1.3-0.8,3.6-1.3,5-0.9c0,0,6.1,1.3,10.8,1.3
	c23.3,0,42.1-16.2,42.1-36.2C472.9,32,454.1,15.7,430.8,15.7z M412.6,58c-3.4,0-6.1-2.7-6.1-6.1s2.7-6.1,6.1-6.1s6.1,2.7,6.1,6.1
	S416,58,412.6,58z M430.8,58c-3.4,0-6.1-2.7-6.1-6.1s2.7-6.1,6.1-6.1s6.1,2.7,6.1,6.1S434.2,58,430.8,58z M449.1,58
	c-3.4,0-6.1-2.7-6.1-6.1s2.7-6.1,6.1-6.1s6.1,2.7,6.1,6.1S452.4,58,449.1,58z"/>
<path class="st0" d="M189.1,427.7c-31.4,0-56.7,21.9-56.7,48.9c0,10.6,3.9,20.3,10.5,28.4c1.9,2.3,2.5,2.9,2.5,2.9
	c2,1.9,3.4,5.3,2.9,7.6c-0.4,2.3-0.8,4.2-0.8,4.2l-3,16.8c-0.5,2.8,1,3.7,3.3,2.1l14-9.5l5.9-4c1.8-1.1,4.8-1.8,6.8-1.3
	c0,0,8.2,1.8,14.6,1.8c31.4,0,56.7-21.8,56.7-48.8C245.8,449.6,220.5,427.7,189.1,427.7z M164.5,484.8c-4.5,0-8.2-3.7-8.2-8.2
	s3.7-8.2,8.2-8.2s8.2,3.7,8.2,8.2C172.7,481.2,169,484.8,164.5,484.8z M189.1,484.8c-4.5,0-8.2-3.7-8.2-8.2s3.7-8.2,8.2-8.2
	c4.5,0,8.2,3.7,8.2,8.2C197.3,481.2,193.6,484.8,189.1,484.8z M213.7,484.8c-4.5,0-8.2-3.7-8.2-8.2s3.7-8.2,8.2-8.2s8.2,3.7,8.2,8.2
	C221.9,481.2,218.2,484.8,213.7,484.8z"/>
<path class="st0" d="M46.7,499.4c-13.9,0-25.2,9.7-25.2,21.7c0,4.7,1.7,9,4.6,12.6c0.8,1,1.1,1.3,1.1,1.3c0.9,0.8,1.5,2.3,1.3,3.4
	c-0.2,1-0.3,1.8-0.3,1.8l-1.3,7.4c-0.2,1.2,0.4,1.6,1.5,1l6.2-4.2l2.6-1.8c0.8-0.5,2.1-0.8,3-0.6c0,0,3.6,0.8,6.5,0.8
	c13.9,0,25.2-9.7,25.2-21.7C71.8,509.1,60.6,499.4,46.7,499.4z M35.8,524.7c-2,0-3.6-1.6-3.6-3.6c0-2,1.6-3.6,3.6-3.6
	c2,0,3.6,1.6,3.6,3.6C39.4,523.1,37.8,524.7,35.8,524.7z M46.7,524.7c-2,0-3.6-1.6-3.6-3.6c0-2,1.6-3.6,3.6-3.6c2,0,3.6,1.6,3.6,3.6
	C50.3,523.1,48.7,524.7,46.7,524.7z M57.6,524.7c-2,0-3.6-1.6-3.6-3.6c0-2,1.6-3.6,3.6-3.6c2,0,3.6,1.6,3.6,3.6
	C61.2,523.1,59.6,524.7,57.6,524.7z"/>
<path class="st0" d="M113.8,699.1c-13.9,0-25.2,9.7-25.2,21.7c0,4.7,1.7,9,4.6,12.6c0.8,1,1.1,1.3,1.1,1.3c0.9,0.8,1.5,2.3,1.3,3.4
	c-0.2,1-0.3,1.8-0.3,1.8l-1.3,7.4c-0.2,1.2,0.4,1.6,1.5,1l6.2-4.2l2.6-1.8c0.8-0.5,2.1-0.8,3-0.6c0,0,3.6,0.8,6.5,0.8
	c13.9,0,25.2-9.7,25.2-21.7C139,708.8,127.8,699.1,113.8,699.1z M102.9,724.4c-2,0-3.6-1.6-3.6-3.6s1.6-3.6,3.6-3.6s3.6,1.6,3.6,3.6
	S105,724.4,102.9,724.4z M113.8,724.4c-2,0-3.6-1.6-3.6-3.6s1.6-3.6,3.6-3.6s3.6,1.6,3.6,3.6S115.9,724.4,113.8,724.4z M124.8,724.4
	c-2,0-3.6-1.6-3.6-3.6s1.6-3.6,3.6-3.6s3.6,1.6,3.6,3.6S126.8,724.4,124.8,724.4z"/>
<path class="st0" d="M384.8,303.5c-16.2,0-29.4,11.4-29.4,25.3c0,5.5,2,10.5,5.4,14.7c1,1.2,1.3,1.5,1.3,1.5c1,1,1.8,2.7,1.5,3.9
	c-0.2,1.2-0.4,2.2-0.4,2.2l-1.6,8.7c-0.3,1.4,0.5,1.9,1.7,1.1l7.2-4.9l3.1-2.1c0.9-0.6,2.5-0.9,3.5-0.7c0,0,4.2,0.9,7.6,0.9
	c16.2,0,29.4-11.3,29.4-25.3C414.1,314.9,401,303.5,384.8,303.5z M372,333.1c-2.3,0-4.2-1.9-4.2-4.2c0-2.3,1.9-4.2,4.2-4.2
	c2.3,0,4.2,1.9,4.2,4.2C376.3,331.2,374.4,333.1,372,333.1z M384.8,333.1c-2.3,0-4.2-1.9-4.2-4.2c0-2.3,1.9-4.2,4.2-4.2
	c2.3,0,4.2,1.9,4.2,4.2C389,331.2,387.1,333.1,384.8,333.1z M397.5,333.1c-2.3,0-4.2-1.9-4.2-4.2c0-2.3,1.9-4.2,4.2-4.2
	c2.3,0,4.2,1.9,4.2,4.2C401.7,331.2,399.8,333.1,397.5,333.1z"/>
<path class="st0" d="M414.1,629.4c-16.2,0-29.4,11.4-29.4,25.3c0,5.5,2,10.5,5.4,14.7c1,1.2,1.3,1.5,1.3,1.5c1,1,1.8,2.7,1.5,3.9
	c-0.2,1.2-0.4,2.2-0.4,2.2l-1.6,8.7c-0.3,1.4,0.5,1.9,1.7,1.1l7.2-4.9l3.1-2.1c0.9-0.6,2.5-0.9,3.5-0.7c0,0,4.2,0.9,7.6,0.9
	c16.2,0,29.4-11.3,29.4-25.3C443.5,640.8,430.4,629.4,414.1,629.4z M401.4,659c-2.3,0-4.2-1.9-4.2-4.2s1.9-4.2,4.2-4.2
	c2.3,0,4.2,1.9,4.2,4.2S403.8,659,401.4,659z M414.1,659c-2.3,0-4.2-1.9-4.2-4.2s1.9-4.2,4.2-4.2c2.3,0,4.2,1.9,4.2,4.2
	S416.5,659,414.1,659z M426.9,659c-2.3,0-4.2-1.9-4.2-4.2s1.9-4.2,4.2-4.2s4.2,1.9,4.2,4.2S429.2,659,426.9,659z"/>
<path class="st0" d="M568.4,1095.1c-16.2,0-29.4,11.4-29.4,25.3c0,5.5,2,10.5,5.4,14.7c1,1.2,1.3,1.5,1.3,1.5c1,1,1.8,2.7,1.5,3.9
	c-0.2,1.2-0.4,2.2-0.4,2.2l-1.6,8.7c-0.3,1.4,0.5,1.9,1.7,1.1l7.2-4.9l3.1-2.1c0.9-0.6,2.5-0.9,3.5-0.7c0,0,4.2,0.9,7.6,0.9
	c16.2,0,29.4-11.3,29.4-25.3C597.8,1106.5,584.6,1095.1,568.4,1095.1z M555.7,1124.7c-2.3,0-4.2-1.9-4.2-4.2c0-2.3,1.9-4.2,4.2-4.2
	c2.3,0,4.2,1.9,4.2,4.2C559.9,1122.8,558,1124.7,555.7,1124.7z M568.4,1124.7c-2.3,0-4.2-1.9-4.2-4.2c0-2.3,1.9-4.2,4.2-4.2
	c2.3,0,4.2,1.9,4.2,4.2C572.6,1122.8,570.8,1124.7,568.4,1124.7z M581.1,1124.7c-2.3,0-4.2-1.9-4.2-4.2c0-2.3,1.9-4.2,4.2-4.2
	s4.2,1.9,4.2,4.2C585.4,1122.8,583.5,1124.7,581.1,1124.7z"/>
<path class="st0" d="M278.4,804.8c-16.2,0-29.4,11.4-29.4,25.3c0,5.5,2,10.5,5.4,14.7c1,1.2,1.3,1.5,1.3,1.5c1,1,1.8,2.7,1.5,3.9
	c-0.2,1.2-0.4,2.2-0.4,2.2l-1.6,8.7c-0.3,1.4,0.5,1.9,1.7,1.1l7.2-4.9l3.1-2.1c0.9-0.6,2.5-0.9,3.5-0.7c0,0,4.2,0.9,7.6,0.9
	c16.2,0,29.4-11.3,29.4-25.3C307.8,816.1,294.7,804.8,278.4,804.8z M265.7,834.3c-2.3,0-4.2-1.9-4.2-4.2c0-2.3,1.9-4.2,4.2-4.2
	c2.3,0,4.2,1.9,4.2,4.2C269.9,832.4,268,834.3,265.7,834.3z M278.4,834.3c-2.3,0-4.2-1.9-4.2-4.2c0-2.3,1.9-4.2,4.2-4.2
	c2.3,0,4.2,1.9,4.2,4.2C282.7,832.4,280.8,834.3,278.4,834.3z M291.1,834.3c-2.3,0-4.2-1.9-4.2-4.2c0-2.3,1.9-4.2,4.2-4.2
	c2.3,0,4.2,1.9,4.2,4.2C295.4,832.4,293.5,834.3,291.1,834.3z"/>
<path class="st0" d="M969.5,1067.8c-21.7,0-39.2,15.2-39.2,33.8c0,7.3,2.7,14,7.2,19.6c1.3,1.6,1.7,2,1.7,2c1.4,1.3,2.4,3.7,2,5.2
	c-0.3,1.6-0.5,2.9-0.5,2.9l-2.1,11.6c-0.3,1.9,0.7,2.5,2.3,1.5l9.7-6.5l4.1-2.8c1.2-0.8,3.3-1.2,4.7-0.9c0,0,5.7,1.2,10.1,1.2
	c21.7,0,39.2-15.1,39.2-33.7C1008.7,1083,991.1,1067.8,969.5,1067.8z M952.5,1107.3c-3.1,0-5.7-2.5-5.7-5.7s2.5-5.7,5.7-5.7
	c3.1,0,5.7,2.5,5.7,5.7S955.6,1107.3,952.5,1107.3z M969.5,1107.3c-3.1,0-5.7-2.5-5.7-5.7s2.5-5.7,5.7-5.7c3.1,0,5.7,2.5,5.7,5.7
	S972.6,1107.3,969.5,1107.3z M986.4,1107.3c-3.1,0-5.7-2.5-5.7-5.7s2.5-5.7,5.7-5.7s5.7,2.5,5.7,5.7S989.6,1107.3,986.4,1107.3z"/>
<path class="st0" d="M788.1,791.7c-16.2,0-29.4,11.4-29.4,25.3c0,5.5,2,10.5,5.4,14.7c1,1.2,1.3,1.5,1.3,1.5c1,1,1.8,2.7,1.5,3.9
	c-0.2,1.2-0.4,2.2-0.4,2.2L765,848c-0.3,1.4,0.5,1.9,1.7,1.1l7.2-4.9l3.1-2.1c0.9-0.6,2.5-0.9,3.5-0.7c0,0,4.2,0.9,7.6,0.9
	c16.2,0,29.4-11.3,29.4-25.3C817.5,803.1,804.3,791.7,788.1,791.7z M775.4,821.3c-2.3,0-4.2-1.9-4.2-4.2c0-2.3,1.9-4.2,4.2-4.2
	s4.2,1.9,4.2,4.2C779.6,819.4,777.7,821.3,775.4,821.3z M788.1,821.3c-2.3,0-4.2-1.9-4.2-4.2c0-2.3,1.9-4.2,4.2-4.2
	c2.3,0,4.2,1.9,4.2,4.2C792.3,819.4,790.4,821.3,788.1,821.3z M800.8,821.3c-2.3,0-4.2-1.9-4.2-4.2c0-2.3,1.9-4.2,4.2-4.2
	s4.2,1.9,4.2,4.2C805.1,819.4,803.2,821.3,800.8,821.3z"/>
<path class="st1" d="M278.4,28.1c-24.9,0-45,17.4-45,38.8c0,8.4,3.1,16.1,8.3,22.5c1.5,1.8,2,2.3,2,2.3c1.6,1.5,2.7,4.2,2.3,6
	c-0.3,1.8-0.6,3.3-0.6,3.3l-2.4,13.3c-0.4,2.2,0.8,2.9,2.6,1.7l11.1-7.5l4.7-3.2c1.4-0.9,3.8-1.4,5.4-1c0,0,6.5,1.4,11.6,1.4
	c24.9,0,45-17.3,45-38.7C323.4,45.5,303.3,28.1,278.4,28.1z M258.9,73.4c-3.6,0-6.5-2.9-6.5-6.5c0-3.6,2.9-6.5,6.5-6.5
	c3.6,0,6.5,2.9,6.5,6.5C265.4,70.5,262.5,73.4,258.9,73.4z M278.4,73.4c-3.6,0-6.5-2.9-6.5-6.5c0-3.6,2.9-6.5,6.5-6.5
	c3.6,0,6.5,2.9,6.5,6.5C284.9,70.5,282,73.4,278.4,73.4z M297.9,73.4c-3.6,0-6.5-2.9-6.5-6.5c0-3.6,2.9-6.5,6.5-6.5
	c3.6,0,6.5,2.9,6.5,6.5C304.4,70.5,301.5,73.4,297.9,73.4z"/>
<path class="st1" d="M91.3,569.8c-24.9,0-45,17.4-45,38.8c0,8.4,3.1,16.1,8.3,22.5c1.5,1.8,2,2.3,2,2.3c1.6,1.5,2.7,4.2,2.3,6
	c-0.3,1.8-0.6,3.3-0.6,3.3L55.9,656c-0.4,2.2,0.8,2.9,2.6,1.7l11.1-7.5l4.7-3.2c1.4-0.9,3.8-1.4,5.4-1c0,0,6.5,1.4,11.6,1.4
	c24.9,0,45-17.3,45-38.7C136.3,587.2,116.2,569.8,91.3,569.8z M71.8,615.1c-3.6,0-6.5-2.9-6.5-6.5c0-3.6,2.9-6.5,6.5-6.5
	s6.5,2.9,6.5,6.5C78.3,612.2,75.4,615.1,71.8,615.1z M91.3,615.1c-3.6,0-6.5-2.9-6.5-6.5c0-3.6,2.9-6.5,6.5-6.5s6.5,2.9,6.5,6.5
	C97.8,612.2,94.9,615.1,91.3,615.1z M110.8,615.1c-3.6,0-6.5-2.9-6.5-6.5c0-3.6,2.9-6.5,6.5-6.5s6.5,2.9,6.5,6.5
	C117.3,612.2,114.4,615.1,110.8,615.1z"/>
<path class="st1" d="M71.8,1084.2c-17.8,0-32.3,12.5-32.3,27.8c0,6,2.2,11.5,5.9,16.1c1.1,1.3,1.4,1.6,1.4,1.6
	c1.1,1.1,1.9,3,1.6,4.3c-0.2,1.3-0.4,2.4-0.4,2.4l-1.7,9.5c-0.3,1.6,0.6,2.1,1.9,1.2l8-5.4l3.4-2.3c1-0.6,2.7-1,3.9-0.7
	c0,0,4.7,1,8.3,1c17.8,0,32.3-12.4,32.3-27.7C104.1,1096.7,89.7,1084.2,71.8,1084.2z M57.9,1116.7c-2.6,0-4.7-2.1-4.7-4.7
	c0-2.6,2.1-4.7,4.7-4.7c2.6,0,4.7,2.1,4.7,4.7C62.5,1114.6,60.4,1116.7,57.9,1116.7z M71.8,1116.7c-2.6,0-4.7-2.1-4.7-4.7
	c0-2.6,2.1-4.7,4.7-4.7s4.7,2.1,4.7,4.7C76.5,1114.6,74.4,1116.7,71.8,1116.7z M85.8,1116.7c-2.6,0-4.7-2.1-4.7-4.7
	c0-2.6,2.1-4.7,4.7-4.7c2.6,0,4.7,2.1,4.7,4.7C90.5,1114.6,88.4,1116.7,85.8,1116.7z"/>
<path class="st1" d="M402.8,745.2c-24.9,0-45,17.4-45,38.8c0,8.4,3.1,16.1,8.3,22.5c1.5,1.8,2,2.3,2,2.3c1.6,1.5,2.7,4.2,2.3,6
	c-0.3,1.8-0.6,3.3-0.6,3.3l-2.4,13.3c-0.4,2.2,0.8,2.9,2.6,1.7l11.1-7.5l4.7-3.2c1.4-0.9,3.8-1.4,5.4-1c0,0,6.5,1.4,11.6,1.4
	c24.9,0,45-17.3,45-38.7C447.8,762.6,427.7,745.2,402.8,745.2z M383.3,790.5c-3.6,0-6.5-2.9-6.5-6.5c0-3.6,2.9-6.5,6.5-6.5
	s6.5,2.9,6.5,6.5C389.8,787.6,386.9,790.5,383.3,790.5z M402.8,790.5c-3.6,0-6.5-2.9-6.5-6.5c0-3.6,2.9-6.5,6.5-6.5s6.5,2.9,6.5,6.5
	C409.3,787.6,406.4,790.5,402.8,790.5z M422.3,790.5c-3.6,0-6.5-2.9-6.5-6.5c0-3.6,2.9-6.5,6.5-6.5s6.5,2.9,6.5,6.5
	C428.8,787.6,425.9,790.5,422.3,790.5z"/>
<path class="st1" d="M414.1,1071.7c-24.9,0-45,17.4-45,38.8c0,8.4,3.1,16.1,8.3,22.5c1.5,1.8,2,2.3,2,2.3c1.6,1.5,2.7,4.2,2.3,6
	c-0.3,1.8-0.6,3.3-0.6,3.3l-2.4,13.3c-0.4,2.2,0.8,2.9,2.6,1.7l11.1-7.5l4.7-3.2c1.4-0.9,3.8-1.4,5.4-1c0,0,6.5,1.4,11.6,1.4
	c24.9,0,45-17.3,45-38.7C459.1,1089.1,439,1071.7,414.1,1071.7z M394.6,1117c-3.6,0-6.5-2.9-6.5-6.5s2.9-6.5,6.5-6.5
	s6.5,2.9,6.5,6.5S398.2,1117,394.6,1117z M414.1,1117c-3.6,0-6.5-2.9-6.5-6.5s2.9-6.5,6.5-6.5s6.5,2.9,6.5,6.5
	S417.7,1117,414.1,1117z M433.6,1117c-3.6,0-6.5-2.9-6.5-6.5s2.9-6.5,6.5-6.5s6.5,2.9,6.5,6.5S437.2,1117,433.6,1117z"/>
<path class="st1" d="M106.5,292.6c-37.2,0-67.2,26-67.2,57.9c0,12.5,4.6,24,12.4,33.6c2.2,2.7,3,3.4,3,3.4c2.4,2.2,4,6.3,3.4,9
	c-0.4,2.7-0.9,4.9-0.9,4.9l-3.6,19.9c-0.6,3.3,1.2,4.3,3.9,2.5l16.6-11.2l7-4.8c2.1-1.3,5.7-2.1,8.1-1.5c0,0,9.7,2.1,17.3,2.1
	c37.2,0,67.2-25.8,67.2-57.8C173.7,318.6,143.6,292.6,106.5,292.6z M77.4,360.2c-5.4,0-9.7-4.3-9.7-9.7s4.3-9.7,9.7-9.7
	c5.4,0,9.7,4.3,9.7,9.7S82.7,360.2,77.4,360.2z M106.5,360.2c-5.4,0-9.7-4.3-9.7-9.7s4.3-9.7,9.7-9.7c5.4,0,9.7,4.3,9.7,9.7
	S111.8,360.2,106.5,360.2z M135.6,360.2c-5.4,0-9.7-4.3-9.7-9.7s4.3-9.7,9.7-9.7c5.4,0,9.7,4.3,9.7,9.7S141,360.2,135.6,360.2z"/>
<path class="st1" d="M447.8,130.1c-37.2,0-67.2,26-67.2,57.9c0,12.5,4.6,24,12.4,33.6c2.2,2.7,3,3.4,3,3.4c2.4,2.2,4,6.3,3.4,9
	c-0.4,2.7-0.9,4.9-0.9,4.9l-3.6,19.9c-0.6,3.3,1.2,4.3,3.9,2.5l16.6-11.2l7-4.8c2.1-1.3,5.7-2.1,8.1-1.5c0,0,9.7,2.1,17.3,2.1
	c37.2,0,67.2-25.8,67.2-57.8C515,156.1,484.9,130.1,447.8,130.1z M418.7,197.8c-5.4,0-9.7-4.3-9.7-9.7s4.3-9.7,9.7-9.7
	s9.7,4.3,9.7,9.7C428.4,193.4,424,197.8,418.7,197.8z M447.8,197.8c-5.4,0-9.7-4.3-9.7-9.7s4.3-9.7,9.7-9.7s9.7,4.3,9.7,9.7
	C457.5,193.4,453.1,197.8,447.8,197.8z M476.9,197.8c-5.4,0-9.7-4.3-9.7-9.7s4.3-9.7,9.7-9.7s9.7,4.3,9.7,9.7
	C486.6,193.4,482.3,197.8,476.9,197.8z"/>
<path class="st1" d="M380.6,393.6c-50.6,0-91.4,35.3-91.4,78.8c0,17.1,6.3,32.7,16.9,45.7c3,3.7,4.1,4.7,4.1,4.7
	c3.3,3,5.5,8.5,4.7,12.2c-0.6,3.7-1.2,6.7-1.2,6.7l-4.9,27c-0.8,4.5,1.6,5.9,5.3,3.5l22.6-15.2l9.5-6.5c2.8-1.8,7.7-2.8,11-2
	c0,0,13.2,2.8,23.6,2.8c50.6,0,91.4-35.1,91.4-78.6C472,429,431.2,393.6,380.6,393.6z M341,485.6c-7.3,0-13.2-5.9-13.2-13.2
	s5.9-13.2,13.2-13.2s13.2,5.9,13.2,13.2S348.3,485.6,341,485.6z M380.6,485.6c-7.3,0-13.2-5.9-13.2-13.2s5.9-13.2,13.2-13.2
	s13.2,5.9,13.2,13.2S387.9,485.6,380.6,485.6z M420.2,485.6c-7.3,0-13.2-5.9-13.2-13.2s5.9-13.2,13.2-13.2s13.2,5.9,13.2,13.2
	S427.5,485.6,420.2,485.6z"/>
<path class="st1" d="M355.4,890.9c-43,0-77.7,30-77.7,67c0,14.5,5.4,27.8,14.3,38.8c2.6,3.1,3.5,4,3.5,4c2.8,2.6,4.7,7.3,4,10.4
	c-0.5,3.1-1,5.7-1,5.7l-4.1,23c-0.7,3.8,1.4,5,4.5,2.9l19.2-12.9l8.1-5.5c2.4-1.6,6.6-2.4,9.3-1.7c0,0,11.2,2.4,20,2.4
	c43,0,77.7-29.9,77.7-66.8C433.1,920.9,398.4,890.9,355.4,890.9z M321.7,969.1c-6.2,0-11.2-5-11.2-11.2s5-11.2,11.2-11.2
	c6.2,0,11.2,5,11.2,11.2C333,964.1,328,969.1,321.7,969.1z M355.4,969.1c-6.2,0-11.2-5-11.2-11.2s5-11.2,11.2-11.2s11.2,5,11.2,11.2
	C366.6,964.1,361.6,969.1,355.4,969.1z M389.1,969.1c-6.2,0-11.2-5-11.2-11.2s5-11.2,11.2-11.2s11.2,5,11.2,11.2
	C400.3,964.1,395.3,969.1,389.1,969.1z"/>
<path class="st1" d="M106.5,789.4c-50.6,0-91.4,35.3-91.4,78.8c0,17.1,6.3,32.7,16.9,45.7c3,3.7,4.1,4.7,4.1,4.7
	c3.3,3,5.5,8.5,4.7,12.2c-0.6,3.7-1.2,6.7-1.2,6.7l-4.9,27c-0.8,4.5,1.6,5.9,5.3,3.5l22.6-15.2l9.5-6.5c2.8-1.8,7.7-2.8,11-2
	c0,0,13.2,2.8,23.6,2.8c50.6,0,91.4-35.1,91.4-78.6C197.9,824.7,157.1,789.4,106.5,789.4z M66.9,881.4c-7.3,0-13.2-5.9-13.2-13.2
	c0-7.3,5.9-13.2,13.2-13.2c7.3,0,13.2,5.9,13.2,13.2C80.1,875.5,74.2,881.4,66.9,881.4z M106.5,881.4c-7.3,0-13.2-5.9-13.2-13.2
	c0-7.3,5.9-13.2,13.2-13.2s13.2,5.9,13.2,13.2C119.7,875.5,113.8,881.4,106.5,881.4z M146.1,881.4c-7.3,0-13.2-5.9-13.2-13.2
	c0-7.3,5.9-13.2,13.2-13.2s13.2,5.9,13.2,13.2C159.3,875.5,153.4,881.4,146.1,881.4z"/>
<path class="st1" d="M113.8,204.4c-12.4,0-22.5,8.7-22.5,19.4c0,4.2,1.6,8.1,4.2,11.3c0.8,0.9,1,1.2,1,1.2c0.8,0.8,1.3,2.1,1.2,3
	c-0.2,0.9-0.3,1.6-0.3,1.6l-1.2,6.7c-0.2,1.1,0.4,1.4,1.3,0.8l5.6-3.8l2.3-1.6c0.7-0.4,1.9-0.7,2.7-0.5c0,0,3.3,0.7,5.8,0.7
	c12.5,0,22.5-8.6,22.5-19.4C136.3,213.1,126.3,204.4,113.8,204.4z M104.1,227.1c-1.8,0-3.3-1.4-3.3-3.3c0-1.8,1.4-3.3,3.3-3.3
	s3.3,1.5,3.3,3.3C107.3,225.6,105.9,227.1,104.1,227.1z M113.8,227.1c-1.8,0-3.3-1.4-3.3-3.3c0-1.8,1.5-3.3,3.3-3.3
	c1.8,0,3.3,1.5,3.3,3.3C117.1,225.6,115.6,227.1,113.8,227.1z M123.6,227.1c-1.8,0-3.3-1.4-3.3-3.3c0-1.8,1.5-3.3,3.3-3.3
	c1.8,0,3.3,1.5,3.3,3.3C126.8,225.6,125.4,227.1,123.6,227.1z"/>
<path class="st1" d="M266.7,336.5c-12.4,0-22.5,8.7-22.5,19.4c0,4.2,1.5,8.1,4.1,11.3c0.8,0.9,1,1.1,1,1.1c0.8,0.8,1.4,2.1,1.1,3
	c-0.1,0.9-0.3,1.7-0.3,1.7l-1.2,6.6c-0.2,1.1,0.4,1.5,1.3,0.9l5.6-3.8l2.3-1.6c0.7-0.5,1.9-0.7,2.7-0.5c0,0,3.3,0.7,5.8,0.7
	c12.5,0,22.5-8.7,22.5-19.4C289.2,345.2,279.1,336.5,266.7,336.5z M256.9,359.2c-1.8,0-3.2-1.4-3.2-3.3c0-1.8,1.4-3.3,3.2-3.3
	c1.8,0,3.3,1.5,3.3,3.3C260.2,357.7,258.7,359.2,256.9,359.2z M266.7,359.2c-1.8,0-3.3-1.4-3.3-3.3c0-1.8,1.5-3.3,3.3-3.3
	c1.8,0,3.3,1.5,3.3,3.3C269.9,357.7,268.5,359.2,266.7,359.2z M276.4,359.2c-1.8,0-3.3-1.4-3.3-3.3c0-1.8,1.5-3.3,3.3-3.3
	c1.8,0,3.3,1.5,3.3,3.3C279.7,357.7,278.2,359.2,276.4,359.2z"/>
<path class="st0" d="M616.2,28.1c-41.3,0-74.6,28.8-74.6,64.3c0,13.9,5.1,26.7,13.8,37.3c2.5,3,3.3,3.8,3.3,3.8
	c2.7,2.5,4.5,7,3.8,9.9c-0.5,3-1,5.5-1,5.5l-4,22c-0.7,3.6,1.3,4.8,4.3,2.8l18.4-12.4l7.8-5.3c2.3-1.5,6.3-2.3,8.9-1.7
	c0,0,10.8,2.3,19.2,2.3c41.3,0,74.6-28.7,74.6-64.1C690.7,56.9,657.4,28.1,616.2,28.1z M583.8,103.1c-6,0-10.8-4.8-10.8-10.8
	c0-6,4.8-10.8,10.8-10.8c6,0,10.8,4.8,10.8,10.8S589.8,103.1,583.8,103.1z M616.2,103.1c-6,0-10.8-4.8-10.8-10.8
	c0-6,4.8-10.8,10.8-10.8c6,0,10.8,4.8,10.8,10.8S622.1,103.1,616.2,103.1z M648.5,103.1c-6,0-10.8-4.8-10.8-10.8
	c0-6,4.8-10.8,10.8-10.8c6,0,10.8,4.8,10.8,10.8S654.4,103.1,648.5,103.1z"/>
<path class="st0" d="M755.5,600.7c-41.3,0-74.6,28.8-74.6,64.3c0,13.9,5.1,26.7,13.8,37.3c2.5,3,3.3,3.8,3.3,3.8
	c2.7,2.5,4.5,7,3.8,9.9c-0.5,3-1,5.5-1,5.5l-4,22c-0.7,3.6,1.3,4.8,4.3,2.8l18.4-12.4l7.8-5.3c2.3-1.5,6.3-2.3,8.9-1.7
	c0,0,10.8,2.3,19.2,2.3c41.3,0,74.6-28.7,74.6-64.1C830.1,629.5,796.8,600.7,755.5,600.7z M723.2,675.8c-6,0-10.8-4.8-10.8-10.8
	c0-6,4.8-10.8,10.8-10.8c6,0,10.8,4.8,10.8,10.8C734,671,729.2,675.8,723.2,675.8z M755.5,675.8c-6,0-10.8-4.8-10.8-10.8
	c0-6,4.8-10.8,10.8-10.8c6,0,10.8,4.8,10.8,10.8C766.3,671,761.5,675.8,755.5,675.8z M787.8,675.8c-6,0-10.8-4.8-10.8-10.8
	c0-6,4.8-10.8,10.8-10.8c6,0,10.8,4.8,10.8,10.8C798.6,671,793.8,675.8,787.8,675.8z"/>
<path class="st0" d="M1087.9,363.3c-41.3,0-74.6,28.8-74.6,64.3c0,13.9,5.1,26.7,13.8,37.3c2.5,3,3.3,3.8,3.3,3.8
	c2.7,2.5,4.5,7,3.8,9.9c-0.5,3-1,5.5-1,5.5l-4,22c-0.7,3.6,1.3,4.8,4.3,2.8l18.4-12.4l7.8-5.3c2.3-1.5,6.3-2.3,8.9-1.7
	c0,0,10.8,2.3,19.2,2.3c41.3,0,74.6-28.7,74.6-64.1C1162.5,392.1,1129.2,363.3,1087.9,363.3z M1055.6,438.3c-6,0-10.8-4.8-10.8-10.8
	s4.8-10.8,10.8-10.8s10.8,4.8,10.8,10.8S1061.6,438.3,1055.6,438.3z M1087.9,438.3c-6,0-10.8-4.8-10.8-10.8s4.8-10.8,10.8-10.8
	c6,0,10.8,4.8,10.8,10.8S1093.9,438.3,1087.9,438.3z M1120.3,438.3c-6,0-10.8-4.8-10.8-10.8s4.8-10.8,10.8-10.8s10.8,4.8,10.8,10.8
	S1126.2,438.3,1120.3,438.3z"/>
<path class="st0" d="M552.1,688.9c-37.1,0-67,25.9-67,57.8c0,12.5,4.6,24,12.4,33.5c2.2,2.7,3,3.4,3,3.4c2.4,2.2,4,6.3,3.4,8.9
	c-0.4,2.7-0.9,4.9-0.9,4.9l-3.6,19.8c-0.6,3.3,1.2,4.3,3.9,2.5l16.5-11.2l7-4.8c2.1-1.3,5.7-2.1,8-1.5c0,0,9.7,2.1,17.3,2.1
	c37.1,0,67-25.8,67-57.6C619.1,714.8,589.2,688.9,552.1,688.9z M523.1,756.3c-5.4,0-9.7-4.3-9.7-9.7c0-5.4,4.3-9.7,9.7-9.7
	s9.7,4.3,9.7,9.7C532.8,752,528.5,756.3,523.1,756.3z M552.1,756.3c-5.4,0-9.7-4.3-9.7-9.7c0-5.4,4.3-9.7,9.7-9.7s9.7,4.3,9.7,9.7
	C561.8,752,557.5,756.3,552.1,756.3z M581.2,756.3c-5.4,0-9.7-4.3-9.7-9.7c0-5.4,4.3-9.7,9.7-9.7c5.4,0,9.7,4.3,9.7,9.7
	C590.8,752,586.5,756.3,581.2,756.3z"/>
<path class="st0" d="M776.3,161.1c-31.4,0-56.7,21.9-56.7,48.9c0,10.6,3.9,20.3,10.5,28.4c1.9,2.3,2.5,2.9,2.5,2.9
	c2,1.9,3.4,5.3,2.9,7.6c-0.4,2.3-0.8,4.2-0.8,4.2l-3,16.8c-0.5,2.8,1,3.7,3.3,2.1l14-9.5l5.9-4c1.8-1.1,4.8-1.8,6.8-1.3
	c0,0,8.2,1.8,14.6,1.8c31.4,0,56.7-21.8,56.7-48.8C833.1,183.1,807.7,161.1,776.3,161.1z M751.8,218.2c-4.5,0-8.2-3.7-8.2-8.2
	s3.7-8.2,8.2-8.2c4.5,0,8.2,3.7,8.2,8.2S756.3,218.2,751.8,218.2z M776.3,218.2c-4.5,0-8.2-3.7-8.2-8.2s3.7-8.2,8.2-8.2
	c4.5,0,8.2,3.7,8.2,8.2S780.9,218.2,776.3,218.2z M800.9,218.2c-4.5,0-8.2-3.7-8.2-8.2s3.7-8.2,8.2-8.2c4.5,0,8.2,3.7,8.2,8.2
	S805.5,218.2,800.9,218.2z"/>
<path class="st0" d="M1103.9,126.7c-27,0-48.8,18.9-48.8,42.1c0,9.1,3.4,17.5,9,24.4c1.6,2,2.2,2.5,2.2,2.5c1.7,1.6,2.9,4.6,2.5,6.5
	c-0.3,2-0.7,3.6-0.7,3.6l-2.6,14.4c-0.4,2.4,0.9,3.1,2.8,1.8l12-8.1l5.1-3.5c1.5-1,4.1-1.5,5.9-1.1c0,0,7.1,1.5,12.6,1.5
	c27,0,48.8-18.8,48.8-42C1152.7,145.6,1130.9,126.7,1103.9,126.7z M1082.7,175.8c-3.9,0-7.1-3.1-7.1-7.1s3.1-7.1,7.1-7.1
	c3.9,0,7.1,3.1,7.1,7.1S1086.6,175.8,1082.7,175.8z M1103.9,175.8c-3.9,0-7.1-3.1-7.1-7.1s3.1-7.1,7.1-7.1s7.1,3.1,7.1,7.1
	S1107.8,175.8,1103.9,175.8z M1125,175.8c-3.9,0-7.1-3.1-7.1-7.1s3.1-7.1,7.1-7.1s7.1,3.1,7.1,7.1S1128.9,175.8,1125,175.8z"/>
<path class="st0" d="M1110.4,715.6c-25.1,0-45.4,17.5-45.4,39.1c0,8.5,3.1,16.2,8.4,22.7c1.5,1.8,2,2.3,2,2.3c1.6,1.5,2.7,4.2,2.3,6
	c-0.3,1.8-0.6,3.3-0.6,3.3l-2.4,13.4c-0.4,2.2,0.8,2.9,2.6,1.7l11.2-7.6l4.7-3.2c1.4-0.9,3.8-1.4,5.4-1c0,0,6.6,1.4,11.7,1.4
	c25.1,0,45.4-17.4,45.4-39C1155.8,733.1,1135.5,715.6,1110.4,715.6z M1090.8,761.2c-3.6,0-6.6-2.9-6.6-6.6c0-3.6,2.9-6.6,6.6-6.6
	c3.6,0,6.6,2.9,6.6,6.6C1097.3,758.3,1094.4,761.2,1090.8,761.2z M1110.4,761.2c-3.6,0-6.6-2.9-6.6-6.6c0-3.6,2.9-6.6,6.6-6.6
	s6.6,2.9,6.6,6.6C1117,758.3,1114.1,761.2,1110.4,761.2z M1130.1,761.2c-3.6,0-6.6-2.9-6.6-6.6c0-3.6,2.9-6.6,6.6-6.6
	c3.6,0,6.6,2.9,6.6,6.6C1136.7,758.3,1133.7,761.2,1130.1,761.2z"/>
<path class="st0" d="M940.5,15.7c-23.3,0-42.1,16.3-42.1,36.3c0,7.9,2.9,15,7.8,21c1.4,1.7,1.9,2.1,1.9,2.1c1.5,1.4,2.5,3.9,2.1,5.6
	c-0.3,1.7-0.6,3.1-0.6,3.1l-2.2,12.4c-0.4,2.1,0.7,2.7,2.4,1.6l10.4-7l4.4-3c1.3-0.8,3.6-1.3,5-0.9c0,0,6.1,1.3,10.8,1.3
	c23.3,0,42.1-16.2,42.1-36.2C982.6,32,963.8,15.7,940.5,15.7z M922.3,58c-3.4,0-6.1-2.7-6.1-6.1s2.7-6.1,6.1-6.1s6.1,2.7,6.1,6.1
	S925.7,58,922.3,58z M940.5,58c-3.4,0-6.1-2.7-6.1-6.1s2.7-6.1,6.1-6.1s6.1,2.7,6.1,6.1S943.9,58,940.5,58z M958.7,58
	c-3.4,0-6.1-2.7-6.1-6.1s2.7-6.1,6.1-6.1s6.1,2.7,6.1,6.1S962.1,58,958.7,58z"/>
<path class="st0" d="M698.8,427.7c-31.4,0-56.7,21.9-56.7,48.9c0,10.6,3.9,20.3,10.5,28.4c1.9,2.3,2.5,2.9,2.5,2.9
	c2,1.9,3.4,5.3,2.9,7.6c-0.4,2.3-0.8,4.2-0.8,4.2l-3,16.8c-0.5,2.8,1,3.7,3.3,2.1l14-9.5l5.9-4c1.8-1.1,4.8-1.8,6.8-1.3
	c0,0,8.2,1.8,14.6,1.8c31.4,0,56.7-21.8,56.7-48.8C755.5,449.6,730.2,427.7,698.8,427.7z M674.2,484.8c-4.5,0-8.2-3.7-8.2-8.2
	s3.7-8.2,8.2-8.2c4.5,0,8.2,3.7,8.2,8.2C682.4,481.2,678.7,484.8,674.2,484.8z M698.8,484.8c-4.5,0-8.2-3.7-8.2-8.2s3.7-8.2,8.2-8.2
	c4.5,0,8.2,3.7,8.2,8.2C707,481.2,703.3,484.8,698.8,484.8z M723.4,484.8c-4.5,0-8.2-3.7-8.2-8.2s3.7-8.2,8.2-8.2
	c4.5,0,8.2,3.7,8.2,8.2C731.6,481.2,727.9,484.8,723.4,484.8z"/>
<path class="st0" d="M556.3,499.4c-13.9,0-25.2,9.7-25.2,21.7c0,4.7,1.7,9,4.6,12.6c0.8,1,1.1,1.3,1.1,1.3c0.9,0.8,1.5,2.3,1.3,3.4
	c-0.2,1-0.3,1.8-0.3,1.8l-1.3,7.4c-0.2,1.2,0.4,1.6,1.5,1l6.2-4.2l2.6-1.8c0.8-0.5,2.1-0.8,3-0.6c0,0,3.6,0.8,6.5,0.8
	c13.9,0,25.2-9.7,25.2-21.7C581.5,509.1,570.3,499.4,556.3,499.4z M545.4,524.7c-2,0-3.6-1.6-3.6-3.6c0-2,1.6-3.6,3.6-3.6
	c2,0,3.6,1.6,3.6,3.6C549.1,523.1,547.4,524.7,545.4,524.7z M556.3,524.7c-2,0-3.6-1.6-3.6-3.6c0-2,1.6-3.6,3.6-3.6s3.6,1.6,3.6,3.6
	C560,523.1,558.4,524.7,556.3,524.7z M567.3,524.7c-2,0-3.6-1.6-3.6-3.6c0-2,1.6-3.6,3.6-3.6s3.6,1.6,3.6,3.6
	C570.9,523.1,569.3,524.7,567.3,524.7z"/>
<path class="st0" d="M1013.4,85.1c-13.9,0-25.2,9.7-25.2,21.7c0,4.7,1.7,9,4.6,12.6c0.8,1,1.1,1.3,1.1,1.3c0.9,0.8,1.5,2.3,1.3,3.4
	c-0.2,1-0.3,1.8-0.3,1.8l-1.3,7.4c-0.2,1.2,0.4,1.6,1.5,1l6.2-4.2l2.6-1.8c0.8-0.5,2.1-0.8,3-0.6c0,0,3.6,0.8,6.5,0.8
	c13.9,0,25.2-9.7,25.2-21.7C1038.6,94.9,1027.3,85.1,1013.4,85.1z M1002.5,110.5c-2,0-3.6-1.6-3.6-3.6s1.6-3.6,3.6-3.6
	s3.6,1.6,3.6,3.6S1004.5,110.5,1002.5,110.5z M1013.4,110.5c-2,0-3.6-1.6-3.6-3.6s1.6-3.6,3.6-3.6c2,0,3.6,1.6,3.6,3.6
	S1015.4,110.5,1013.4,110.5z M1024.3,110.5c-2,0-3.6-1.6-3.6-3.6s1.6-3.6,3.6-3.6c2,0,3.6,1.6,3.6,3.6S1026.3,110.5,1024.3,110.5z"
	/>
<path class="st0" d="M724,942.5c-13.9,0-25.2,9.7-25.2,21.7c0,4.7,1.7,9,4.6,12.6c0.8,1,1.1,1.3,1.1,1.3c0.9,0.8,1.5,2.3,1.3,3.4
	c-0.2,1-0.3,1.8-0.3,1.8l-1.3,7.4c-0.2,1.2,0.4,1.6,1.5,1l6.2-4.2l2.6-1.8c0.8-0.5,2.1-0.8,3-0.6c0,0,3.6,0.8,6.5,0.8
	c13.9,0,25.2-9.7,25.2-21.7C749.1,952.3,737.9,942.5,724,942.5z M713,967.9c-2,0-3.6-1.6-3.6-3.6s1.6-3.6,3.6-3.6s3.6,1.6,3.6,3.6
	S715.1,967.9,713,967.9z M724,967.9c-2,0-3.6-1.6-3.6-3.6s1.6-3.6,3.6-3.6c2,0,3.6,1.6,3.6,3.6S726,967.9,724,967.9z M734.9,967.9
	c-2,0-3.6-1.6-3.6-3.6s1.6-3.6,3.6-3.6c2,0,3.6,1.6,3.6,3.6S736.9,967.9,734.9,967.9z"/>
<path class="st0" d="M894.4,303.5c-16.2,0-29.4,11.4-29.4,25.3c0,5.5,2,10.5,5.4,14.7c1,1.2,1.3,1.5,1.3,1.5c1,1,1.8,2.7,1.5,3.9
	c-0.2,1.2-0.4,2.2-0.4,2.2l-1.6,8.7c-0.3,1.4,0.5,1.9,1.7,1.1l7.2-4.9l3.1-2.1c0.9-0.6,2.5-0.9,3.5-0.7c0,0,4.2,0.9,7.6,0.9
	c16.2,0,29.4-11.3,29.4-25.3C923.8,314.9,910.7,303.5,894.4,303.5z M881.7,333.1c-2.3,0-4.2-1.9-4.2-4.2c0-2.3,1.9-4.2,4.2-4.2
	s4.2,1.9,4.2,4.2C886,331.2,884.1,333.1,881.7,333.1z M894.4,333.1c-2.3,0-4.2-1.9-4.2-4.2c0-2.3,1.9-4.2,4.2-4.2
	c2.3,0,4.2,1.9,4.2,4.2C898.7,331.2,896.8,333.1,894.4,333.1z M907.2,333.1c-2.3,0-4.2-1.9-4.2-4.2c0-2.3,1.9-4.2,4.2-4.2
	s4.2,1.9,4.2,4.2C911.4,331.2,909.5,333.1,907.2,333.1z"/>
<path class="st0" d="M910.6,629.4c-16.2,0-29.4,11.4-29.4,25.3c0,5.5,2,10.5,5.4,14.7c1,1.2,1.3,1.5,1.3,1.5c1,1,1.8,2.7,1.5,3.9
	c-0.2,1.2-0.4,2.2-0.4,2.2l-1.6,8.7c-0.3,1.4,0.5,1.9,1.7,1.1l7.2-4.9l3.1-2.1c0.9-0.6,2.5-0.9,3.5-0.7c0,0,4.2,0.9,7.6,0.9
	c16.2,0,29.4-11.3,29.4-25.3C939.9,640.8,926.8,629.4,910.6,629.4z M897.8,659c-2.3,0-4.2-1.9-4.2-4.2s1.9-4.2,4.2-4.2
	c2.3,0,4.2,1.9,4.2,4.2S900.2,659,897.8,659z M910.6,659c-2.3,0-4.2-1.9-4.2-4.2s1.9-4.2,4.2-4.2s4.2,1.9,4.2,4.2
	S912.9,659,910.6,659z M923.3,659c-2.3,0-4.2-1.9-4.2-4.2s1.9-4.2,4.2-4.2c2.3,0,4.2,1.9,4.2,4.2S925.6,659,923.3,659z"/>
<path class="st1" d="M788.1,28.1c-24.9,0-45,17.4-45,38.8c0,8.4,3.1,16.1,8.3,22.5c1.5,1.8,2,2.3,2,2.3c1.6,1.5,2.7,4.2,2.3,6
	c-0.3,1.8-0.6,3.3-0.6,3.3l-2.4,13.3c-0.4,2.2,0.8,2.9,2.6,1.7l11.1-7.5l4.7-3.2c1.4-0.9,3.8-1.4,5.4-1c0,0,6.5,1.4,11.6,1.4
	c24.9,0,45-17.3,45-38.7C833.1,45.5,813,28.1,788.1,28.1z M768.6,73.4c-3.6,0-6.5-2.9-6.5-6.5c0-3.6,2.9-6.5,6.5-6.5
	c3.6,0,6.5,2.9,6.5,6.5C775.1,70.5,772.2,73.4,768.6,73.4z M788.1,73.4c-3.6,0-6.5-2.9-6.5-6.5c0-3.6,2.9-6.5,6.5-6.5
	c3.6,0,6.5,2.9,6.5,6.5C794.6,70.5,791.7,73.4,788.1,73.4z M807.6,73.4c-3.6,0-6.5-2.9-6.5-6.5c0-3.6,2.9-6.5,6.5-6.5
	c3.6,0,6.5,2.9,6.5,6.5C814.1,70.5,811.2,73.4,807.6,73.4z"/>
<path class="st1" d="M1096.3,15.7c-24.9,0-45,17.4-45,38.8c0,8.4,3.1,16.1,8.3,22.5c1.5,1.8,2,2.3,2,2.3c1.6,1.5,2.7,4.2,2.3,6
	c-0.3,1.8-0.6,3.3-0.6,3.3l-2.4,13.3c-0.4,2.2,0.8,2.9,2.6,1.7l11.1-7.5l4.7-3.2c1.4-0.9,3.8-1.4,5.4-1c0,0,6.5,1.4,11.6,1.4
	c24.9,0,45-17.3,45-38.7C1141.3,33.1,1121.2,15.7,1096.3,15.7z M1076.8,61c-3.6,0-6.5-2.9-6.5-6.5s2.9-6.5,6.5-6.5
	c3.6,0,6.5,2.9,6.5,6.5C1083.3,58.1,1080.4,61,1076.8,61z M1096.3,61c-3.6,0-6.5-2.9-6.5-6.5s2.9-6.5,6.5-6.5c3.6,0,6.5,2.9,6.5,6.5
	C1102.8,58.1,1099.9,61,1096.3,61z M1115.8,61c-3.6,0-6.5-2.9-6.5-6.5s2.9-6.5,6.5-6.5c3.6,0,6.5,2.9,6.5,6.5
	C1122.3,58.1,1119.4,61,1115.8,61z"/>
<path class="st1" d="M601,569.8c-24.9,0-45,17.4-45,38.8c0,8.4,3.1,16.1,8.3,22.5c1.5,1.8,2,2.3,2,2.3c1.6,1.5,2.7,4.2,2.3,6
	c-0.3,1.8-0.6,3.3-0.6,3.3l-2.4,13.3c-0.4,2.2,0.8,2.9,2.6,1.7l11.1-7.5l4.7-3.2c1.4-0.9,3.8-1.4,5.4-1c0,0,6.5,1.4,11.6,1.4
	c24.9,0,45-17.3,45-38.7C646,587.2,625.9,569.8,601,569.8z M581.5,615.1c-3.6,0-6.5-2.9-6.5-6.5c0-3.6,2.9-6.5,6.5-6.5
	s6.5,2.9,6.5,6.5C588,612.2,585.1,615.1,581.5,615.1z M601,615.1c-3.6,0-6.5-2.9-6.5-6.5c0-3.6,2.9-6.5,6.5-6.5s6.5,2.9,6.5,6.5
	C607.5,612.2,604.6,615.1,601,615.1z M620.5,615.1c-3.6,0-6.5-2.9-6.5-6.5c0-3.6,2.9-6.5,6.5-6.5s6.5,2.9,6.5,6.5
	C627,612.2,624.1,615.1,620.5,615.1z"/>
<path class="st1" d="M1103.9,241.7c-24.9,0-45,17.4-45,38.8c0,8.4,3.1,16.1,8.3,22.5c1.5,1.8,2,2.3,2,2.3c1.6,1.5,2.7,4.2,2.3,6
	c-0.3,1.8-0.6,3.3-0.6,3.3l-2.4,13.3c-0.4,2.2,0.8,2.9,2.6,1.7l11.1-7.5l4.7-3.2c1.4-0.9,3.8-1.4,5.4-1c0,0,6.5,1.4,11.6,1.4
	c24.9,0,45-17.3,45-38.7C1148.9,259.1,1128.8,241.7,1103.9,241.7z M1084.4,287c-3.6,0-6.5-2.9-6.5-6.5s2.9-6.5,6.5-6.5
	s6.5,2.9,6.5,6.5S1088,287,1084.4,287z M1103.9,287c-3.6,0-6.5-2.9-6.5-6.5s2.9-6.5,6.5-6.5s6.5,2.9,6.5,6.5S1107.5,287,1103.9,287z
	 M1123.4,287c-3.6,0-6.5-2.9-6.5-6.5s2.9-6.5,6.5-6.5s6.5,2.9,6.5,6.5S1127,287,1123.4,287z"/>
<path class="st1" d="M666.1,796.4c-24.9,0-45,17.4-45,38.8c0,8.4,3.1,16.1,8.3,22.5c1.5,1.8,2,2.3,2,2.3c1.6,1.5,2.7,4.2,2.3,6
	c-0.3,1.8-0.6,3.3-0.6,3.3l-2.4,13.3c-0.4,2.2,0.8,2.9,2.6,1.7l11.1-7.5l4.7-3.2c1.4-0.9,3.8-1.4,5.4-1c0,0,6.5,1.4,11.6,1.4
	c24.9,0,45-17.3,45-38.7C711.1,813.8,691,796.4,666.1,796.4z M646.6,841.7c-3.6,0-6.5-2.9-6.5-6.5c0-3.6,2.9-6.5,6.5-6.5
	s6.5,2.9,6.5,6.5C653.1,838.8,650.2,841.7,646.6,841.7z M666.1,841.7c-3.6,0-6.5-2.9-6.5-6.5c0-3.6,2.9-6.5,6.5-6.5s6.5,2.9,6.5,6.5
	C672.6,838.8,669.7,841.7,666.1,841.7z M685.6,841.7c-3.6,0-6.5-2.9-6.5-6.5c0-3.6,2.9-6.5,6.5-6.5s6.5,2.9,6.5,6.5
	C692.1,838.8,689.2,841.7,685.6,841.7z"/>
<path class="st1" d="M962,723.8c-28.5,0-51.4,19.9-51.4,44.3c0,9.6,3.5,18.4,9.5,25.7c1.7,2.1,2.3,2.6,2.3,2.6
	c1.8,1.7,3.1,4.8,2.6,6.9c-0.3,2.1-0.7,3.8-0.7,3.8l-2.7,15.2c-0.5,2.5,0.9,3.3,3,1.9l12.7-8.6l5.4-3.7c1.6-1,4.3-1.6,6.2-1.1
	c0,0,7.4,1.6,13.3,1.6c28.5,0,51.4-19.8,51.4-44.2C1013.4,743.7,990.4,723.8,962,723.8z M939.7,775.6c-4.1,0-7.4-3.3-7.4-7.4
	c0-4.1,3.3-7.4,7.4-7.4c4.1,0,7.4,3.3,7.4,7.4S943.8,775.6,939.7,775.6z M962,775.6c-4.1,0-7.4-3.3-7.4-7.4c0-4.1,3.3-7.4,7.4-7.4
	c4.1,0,7.4,3.3,7.4,7.4S966.1,775.6,962,775.6z M984.2,775.6c-4.1,0-7.4-3.3-7.4-7.4c0-4.1,3.3-7.4,7.4-7.4c4.1,0,7.4,3.3,7.4,7.4
	S988.4,775.6,984.2,775.6z"/>
<path class="st1" d="M865.1,871.4c-24.9,0-45,17.4-45,38.8c0,8.4,3.1,16.1,8.3,22.5c1.5,1.8,2,2.3,2,2.3c1.6,1.5,2.7,4.2,2.3,6
	c-0.3,1.8-0.6,3.3-0.6,3.3l-2.4,13.3c-0.4,2.2,0.8,2.9,2.6,1.7l11.1-7.5l4.7-3.2c1.4-0.9,3.8-1.4,5.4-1c0,0,6.5,1.4,11.6,1.4
	c24.9,0,45-17.3,45-38.7C910.1,888.8,890,871.4,865.1,871.4z M845.6,916.7c-3.6,0-6.5-2.9-6.5-6.5c0-3.6,2.9-6.5,6.5-6.5
	s6.5,2.9,6.5,6.5C852.1,913.8,849.2,916.7,845.6,916.7z M865.1,916.7c-3.6,0-6.5-2.9-6.5-6.5c0-3.6,2.9-6.5,6.5-6.5s6.5,2.9,6.5,6.5
	C871.6,913.8,868.7,916.7,865.1,916.7z M884.6,916.7c-3.6,0-6.5-2.9-6.5-6.5c0-3.6,2.9-6.5,6.5-6.5s6.5,2.9,6.5,6.5
	C891.1,913.8,888.2,916.7,884.6,916.7z"/>
<path class="st1" d="M1103.9,1062.1c-24.9,0-45,17.4-45,38.8c0,8.4,3.1,16.1,8.3,22.5c1.5,1.8,2,2.3,2,2.3c1.6,1.5,2.7,4.2,2.3,6
	c-0.3,1.8-0.6,3.3-0.6,3.3l-2.4,13.3c-0.4,2.2,0.8,2.9,2.6,1.7l11.1-7.5l4.7-3.2c1.4-0.9,3.8-1.4,5.4-1c0,0,6.5,1.4,11.6,1.4
	c24.9,0,45-17.3,45-38.7C1148.9,1079.5,1128.8,1062.1,1103.9,1062.1z M1084.4,1107.4c-3.6,0-6.5-2.9-6.5-6.5c0-3.6,2.9-6.5,6.5-6.5
	s6.5,2.9,6.5,6.5C1090.9,1104.5,1088,1107.4,1084.4,1107.4z M1103.9,1107.4c-3.6,0-6.5-2.9-6.5-6.5c0-3.6,2.9-6.5,6.5-6.5
	s6.5,2.9,6.5,6.5C1110.4,1104.5,1107.5,1107.4,1103.9,1107.4z M1123.4,1107.4c-3.6,0-6.5-2.9-6.5-6.5c0-3.6,2.9-6.5,6.5-6.5
	s6.5,2.9,6.5,6.5C1129.9,1104.5,1127,1107.4,1123.4,1107.4z"/>
<path class="st1" d="M585,286c-42.4,0-76.6,29.6-76.6,66.1c0,14.3,5.3,27.4,14.1,38.3c2.6,3.1,3.4,3.9,3.4,3.9
	c2.7,2.6,4.6,7.2,3.9,10.2c-0.5,3.1-1,5.6-1,5.6l-4.1,22.6c-0.7,3.7,1.4,4.9,4.4,2.9l18.9-12.8l8-5.4c2.4-1.5,6.5-2.4,9.2-1.7
	c0,0,11.1,2.4,19.7,2.4c42.4,0,76.6-29.5,76.6-65.9C661.6,315.6,627.4,286,585,286z M551.8,363.1c-6.1,0-11.1-4.9-11.1-11.1
	s4.9-11.1,11.1-11.1c6.1,0,11.1,4.9,11.1,11.1S557.9,363.1,551.8,363.1z M585,363.1c-6.1,0-11.1-4.9-11.1-11.1s4.9-11.1,11.1-11.1
	s11.1,4.9,11.1,11.1S591.1,363.1,585,363.1z M618.2,363.1c-6.1,0-11.1-4.9-11.1-11.1s4.9-11.1,11.1-11.1c6.1,0,11.1,4.9,11.1,11.1
	S624.3,363.1,618.2,363.1z"/>
<path class="st1" d="M944.1,130.1c-37.2,0-67.2,26-67.2,57.9c0,12.5,4.6,24,12.4,33.6c2.2,2.7,3,3.4,3,3.4c2.4,2.2,4,6.3,3.4,9
	c-0.4,2.7-0.9,4.9-0.9,4.9l-3.6,19.9c-0.6,3.3,1.2,4.3,3.9,2.5l16.6-11.2l7-4.8c2.1-1.3,5.7-2.1,8.1-1.5c0,0,9.7,2.1,17.3,2.1
	c37.2,0,67.2-25.8,67.2-57.8C1011.3,156.1,981.3,130.1,944.1,130.1z M915,197.8c-5.4,0-9.7-4.3-9.7-9.7s4.3-9.7,9.7-9.7
	c5.4,0,9.7,4.3,9.7,9.7C924.7,193.4,920.3,197.8,915,197.8z M944.1,197.8c-5.4,0-9.7-4.3-9.7-9.7s4.3-9.7,9.7-9.7
	c5.4,0,9.7,4.3,9.7,9.7C953.8,193.4,949.5,197.8,944.1,197.8z M973.2,197.8c-5.4,0-9.7-4.3-9.7-9.7s4.3-9.7,9.7-9.7
	c5.4,0,9.7,4.3,9.7,9.7C982.9,193.4,978.6,197.8,973.2,197.8z"/>
<path class="st1" d="M890.3,393.6c-50.6,0-91.4,35.3-91.4,78.8c0,17.1,6.3,32.7,16.9,45.7c3,3.7,4.1,4.7,4.1,4.7
	c3.3,3,5.5,8.5,4.7,12.2c-0.6,3.7-1.2,6.7-1.2,6.7l-4.9,27c-0.8,4.5,1.6,5.9,5.3,3.5l22.6-15.2l9.5-6.5c2.8-1.8,7.7-2.8,11-2
	c0,0,13.2,2.8,23.6,2.8c50.6,0,91.4-35.1,91.4-78.6C981.7,429,940.8,393.6,890.3,393.6z M850.6,485.6c-7.3,0-13.2-5.9-13.2-13.2
	s5.9-13.2,13.2-13.2c7.3,0,13.2,5.9,13.2,13.2S858,485.6,850.6,485.6z M890.3,485.6c-7.3,0-13.2-5.9-13.2-13.2s5.9-13.2,13.2-13.2
	c7.3,0,13.2,5.9,13.2,13.2S897.6,485.6,890.3,485.6z M929.9,485.6c-7.3,0-13.2-5.9-13.2-13.2s5.9-13.2,13.2-13.2
	c7.3,0,13.2,5.9,13.2,13.2S937.2,485.6,929.9,485.6z"/>
<path class="st1" d="M1078.8,538.4c-42.6,0-77,29.8-77,66.4c0,14.4,5.3,27.5,14.2,38.5c2.6,3.1,3.4,3.9,3.4,3.9
	c2.7,2.6,4.6,7.2,3.9,10.3c-0.5,3.1-1,5.6-1,5.6l-4.1,22.7c-0.7,3.8,1.4,5,4.4,2.9l19-12.8l8-5.5c2.4-1.5,6.5-2.4,9.2-1.7
	c0,0,11.1,2.4,19.8,2.4c42.6,0,77-29.6,77-66.2C1155.8,568.2,1121.4,538.4,1078.8,538.4z M1045.5,615.9c-6.2,0-11.1-5-11.1-11.1
	c0-6.2,5-11.1,11.1-11.1c6.2,0,11.1,5,11.1,11.1C1056.6,610.9,1051.7,615.9,1045.5,615.9z M1078.8,615.9c-6.2,0-11.1-5-11.1-11.1
	c0-6.2,5-11.1,11.1-11.1c6.2,0,11.1,5,11.1,11.1C1090,610.9,1085,615.9,1078.8,615.9z M1112.2,615.9c-6.2,0-11.1-5-11.1-11.1
	c0-6.2,5-11.1,11.1-11.1s11.1,5,11.1,11.1C1123.3,610.9,1118.4,615.9,1112.2,615.9z"/>
<path class="st1" d="M809.4,981.8c-50.6,0-91.4,35.3-91.4,78.8c0,17.1,6.3,32.7,16.9,45.7c3,3.7,4.1,4.7,4.1,4.7
	c3.3,3,5.5,8.5,4.7,12.2c-0.6,3.7-1.2,6.7-1.2,6.7l-4.9,27c-0.8,4.5,1.6,5.9,5.3,3.5l22.6-15.2l9.5-6.5c2.8-1.8,7.7-2.8,11-2
	c0,0,13.2,2.8,23.6,2.8c50.6,0,91.4-35.1,91.4-78.6C900.9,1017.2,860,981.8,809.4,981.8z M769.8,1073.8c-7.3,0-13.2-5.9-13.2-13.2
	c0-7.3,5.9-13.2,13.2-13.2c7.3,0,13.2,5.9,13.2,13.2C783,1067.9,777.1,1073.8,769.8,1073.8z M809.4,1073.8
	c-7.3,0-13.2-5.9-13.2-13.2c0-7.3,5.9-13.2,13.2-13.2c7.3,0,13.2,5.9,13.2,13.2C822.7,1067.9,816.8,1073.8,809.4,1073.8z
	 M849.1,1073.8c-7.3,0-13.2-5.9-13.2-13.2c0-7.3,5.9-13.2,13.2-13.2c7.3,0,13.2,5.9,13.2,13.2
	C862.3,1067.9,856.4,1073.8,849.1,1073.8z"/>
<path class="st1" d="M623.5,204.4c-12.5,0-22.5,8.7-22.5,19.4c0,4.2,1.5,8.1,4.2,11.3c0.8,0.9,1,1.2,1,1.2c0.8,0.8,1.3,2.1,1.1,3
	c-0.1,0.9-0.3,1.6-0.3,1.6l-1.2,6.7c-0.2,1.1,0.4,1.4,1.3,0.8l5.6-3.8l2.3-1.6c0.7-0.4,1.9-0.7,2.7-0.5c0,0,3.3,0.7,5.8,0.7
	c12.5,0,22.5-8.6,22.5-19.4C646,213.1,636,204.4,623.5,204.4z M613.8,227.1c-1.8,0-3.3-1.4-3.3-3.3c0-1.8,1.5-3.3,3.3-3.3
	s3.3,1.5,3.3,3.3C617,225.6,615.6,227.1,613.8,227.1z M623.5,227.1c-1.8,0-3.3-1.4-3.3-3.3c0-1.8,1.5-3.3,3.3-3.3s3.3,1.5,3.3,3.3
	C626.8,225.6,625.3,227.1,623.5,227.1z M633.3,227.1c-1.8,0-3.3-1.4-3.3-3.3c0-1.8,1.5-3.3,3.3-3.3s3.3,1.5,3.3,3.3
	C636.5,225.6,635.1,227.1,633.3,227.1z"/>
<path class="st1" d="M1001.9,314.4c-12.5,0-22.5,8.7-22.5,19.4c0,4.2,1.5,8,4.2,11.3c0.8,0.9,1,1.1,1,1.1c0.8,0.8,1.3,2.1,1.1,3
	c-0.1,0.9-0.3,1.7-0.3,1.7l-1.2,6.6c-0.2,1.1,0.4,1.4,1.3,0.9l5.5-3.8l2.3-1.6c0.7-0.5,1.9-0.7,2.7-0.5c0,0,3.3,0.7,5.8,0.7
	c12.5,0,22.5-8.6,22.5-19.3C1024.4,323.1,1014.3,314.4,1001.9,314.4z M992.1,337c-1.8,0-3.3-1.5-3.3-3.3s1.5-3.3,3.3-3.3
	s3.3,1.5,3.3,3.3C995.4,335.6,993.9,337,992.1,337z M1001.9,337c-1.8,0-3.3-1.5-3.3-3.3s1.5-3.3,3.3-3.3s3.3,1.5,3.3,3.3
	C1005.1,335.6,1003.7,337,1001.9,337z M1011.6,337c-1.8,0-3.3-1.5-3.3-3.3s1.5-3.3,3.3-3.3s3.3,1.5,3.3,3.3
	C1014.9,335.6,1013.4,337,1011.6,337z"/>
<path class="st1" d="M776.3,336.5c-12.5,0-22.5,8.7-22.5,19.4c0,4.2,1.5,8.1,4.1,11.3c0.8,0.9,1,1.1,1,1.1c0.8,0.8,1.4,2.1,1.2,3
	c-0.2,0.9-0.3,1.7-0.3,1.7l-1.2,6.6c-0.2,1.1,0.4,1.5,1.3,0.9l5.5-3.8l2.4-1.6c0.7-0.5,1.9-0.7,2.7-0.5c0,0,3.3,0.7,5.8,0.7
	c12.5,0,22.5-8.7,22.5-19.4C798.8,345.2,788.8,336.5,776.3,336.5z M766.6,359.2c-1.8,0-3.3-1.4-3.3-3.3c0-1.8,1.5-3.3,3.3-3.3
	s3.3,1.5,3.3,3.3C769.8,357.7,768.4,359.2,766.6,359.2z M776.3,359.2c-1.8,0-3.3-1.4-3.3-3.3c0-1.8,1.5-3.3,3.3-3.3s3.3,1.5,3.3,3.3
	C779.6,357.7,778.1,359.2,776.3,359.2z M786.1,359.2c-1.8,0-3.3-1.4-3.3-3.3c0-1.8,1.5-3.3,3.3-3.3s3.3,1.5,3.3,3.3
	C789.3,357.7,787.9,359.2,786.1,359.2z"/>
<path class="st1" d="M485.1,857.1c-12.4,0-22.5,8.7-22.5,19.4c0,4.2,1.6,8,4.1,11.3c0.8,0.9,1,1.2,1,1.2c0.8,0.8,1.4,2.1,1.2,3
	c-0.2,0.9-0.3,1.6-0.3,1.6l-1.2,6.7c-0.2,1.1,0.4,1.5,1.3,0.8l5.5-3.8l2.4-1.6c0.7-0.5,1.9-0.7,2.7-0.5c0,0,3.3,0.7,5.8,0.7
	c12.5,0,22.5-8.7,22.5-19.4C507.6,865.8,497.6,857.1,485.1,857.1z M475.4,879.8c-1.8,0-3.3-1.5-3.3-3.3s1.5-3.3,3.3-3.3
	s3.3,1.5,3.3,3.3S477.2,879.8,475.4,879.8z M485.1,879.8c-1.8,0-3.3-1.5-3.3-3.3s1.5-3.3,3.3-3.3s3.3,1.5,3.3,3.3
	S486.9,879.8,485.1,879.8z M494.9,879.8c-1.8,0-3.3-1.5-3.3-3.3s1.5-3.3,3.3-3.3s3.3,1.5,3.3,3.3S496.7,879.8,494.9,879.8z"/>
<path class="st1" d="M666.1,1084.2c-12.5,0-22.5,8.7-22.5,19.4c0,4.2,1.5,8.1,4.2,11.3c0.8,0.9,1,1.2,1,1.2c0.8,0.8,1.3,2.1,1.1,3
	c-0.1,0.9-0.3,1.7-0.3,1.7l-1.2,6.7c-0.2,1.1,0.4,1.4,1.3,0.8l5.6-3.8l2.3-1.6c0.7-0.5,1.9-0.7,2.7-0.5c0,0,3.3,0.7,5.8,0.7
	c12.5,0,22.5-8.7,22.5-19.3C688.6,1092.9,678.6,1084.2,666.1,1084.2z M656.4,1106.9c-1.8,0-3.3-1.4-3.3-3.3c0-1.8,1.5-3.3,3.3-3.3
	s3.3,1.5,3.3,3.3C659.6,1105.4,658.2,1106.9,656.4,1106.9z M666.1,1106.9c-1.8,0-3.3-1.4-3.3-3.3c0-1.8,1.5-3.3,3.3-3.3
	s3.3,1.5,3.3,3.3C669.4,1105.4,667.9,1106.9,666.1,1106.9z M675.9,1106.9c-1.8,0-3.3-1.4-3.3-3.3c0-1.8,1.5-3.3,3.3-3.3
	s3.3,1.5,3.3,3.3C679.1,1105.4,677.7,1106.9,675.9,1106.9z"/>
</svg>
