<svg version="1.1" xmlns="http://www.w3.org/2000/svg" xmlns:xlink="http://www.w3.org/1999/xlink" x="0px" y="0px"
	 viewBox="14 14 72 92" style="enable-background:new 14 14 72 92;" xml:space="preserve">
<path fill="#BB68D4" d="M50,18.3c-24.9,0-45,17.4-45,38.8c0,8.4,3.1,16.1,8.3,22.5c1.5,1.8,2,2.3,2,2.3c1.6,1.5,2.7,4.2,2.3,6
    c-0.3,1.8-0.6,3.3-0.6,3.3l-2.4,13.3c-0.4,2.2,0.8,2.9,2.6,1.7l11.1-7.5l4.7-3.2c1.4-0.9,3.8-1.4,5.4-1c0,0,6.5,1.4,11.6,1.4
    c24.9,0,45-17.3,45-38.7C95,35.7,74.9,18.3,50,18.3z M30.5,63.6c-3.6,0-6.5-2.9-6.5-6.5c0-3.6,2.9-6.5,6.5-6.5s6.5,2.9,6.5,6.5
    C37,60.7,34.1,63.6,30.5,63.6z M50,63.6c-3.6,0-6.5-2.9-6.5-6.5c0-3.6,2.9-6.5,6.5-6.5s6.5,2.9,6.5,6.5C56.5,60.7,53.6,63.6,50,63.6
    z M69.5,63.6c-3.6,0-6.5-2.9-6.5-6.5c0-3.6,2.9-6.5,6.5-6.5s6.5,2.9,6.5,6.5C76,60.7,73.1,63.6,69.5,63.6z"></path>
</svg>