<svg id="Capa_1" data-name="Capa 1" xmlns="http://www.w3.org/2000/svg" width="44px" height="45px" viewBox="0 0 124.81 124.81" fill="#7d17d5">
  <title>date</title>
  <path d="M48.08,80.36,46.17,91.73a4.15,4.15,0,0,0,6,4.37L62.4,90.76,72.63,96.1a4.15,4.15,0,0,0,6-4.37L76.73,80.36,85,72.28a4.15,4.15,0,0,0-2.3-7.07L71.26,63.52,66.12,53.19a4.15,4.15,0,0,0-7.43,0L53.55,63.52,42.14,65.21a4.15,4.15,0,0,0-2.3,7.07Z"/>
  <path d="M111.44,13.27H98.38V6a6,6,0,0,0-6-6h-1a6,6,0,0,0-6,6v7.25H39.28V6a6,6,0,0,0-6-6h-1a6,6,0,0,0-6,6v7.25H13.37A12.41,12.41,0,0,0,1,25.66v86.76a12.41,12.41,0,0,0,12.39,12.39h98.07a12.41,12.41,0,0,0,12.39-12.39V25.66A12.41,12.41,0,0,0,111.44,13.27Zm-1.62,97.53H15V43.27h94.84Z"/>
</svg>