<?xml version="1.0" encoding="utf-8"?>
<svg version="1.1" id="katman_1" xmlns="http://www.w3.org/2000/svg" xmlns:xlink="http://www.w3.org/1999/xlink" x="0px" y="0px"
	 viewBox="0 0 100 125" style="enable-background:new 0 0 100 125;" xml:space="preserve">
<defs>
  <linearGradient id="adv-svg-gradient" x1="0" y1="0" x2="1" y2="1">
    <stop offset="0%" stop-color="#ffffff" /> 
    <stop offset="26%" stop-color="#ffffff" />            
    <stop offset="100%" stop-color="#ffa0eb" />            
  </linearGradient>
</defs>
<g fill="url(#adv-svg-gradient) #ffa0eb" >
	<g>
		<path d="M27.2,58.8c-0.1,0-0.1,0-0.2,0c-0.7-0.1-1.1-0.7-1-1.4C27.8,46.7,37,34.9,51,33c6.5-0.9,18.8-0.5,28.2,11.6
			c0.4,0.5,0.3,1.3-0.2,1.7s-1.3,0.3-1.7-0.2c-8.2-10.6-18.7-11.7-26-10.7c-14.4,1.9-21.6,14.5-22.9,22.4
			C28.3,58.4,27.8,58.8,27.2,58.8z"/>
	</g>
	<g>
		<path d="M55.5,92.3c-6.9,0-17.3-2.1-25-13.3c-0.4-0.5-0.2-1.3,0.3-1.7c0.5-0.4,1.3-0.2,1.7,0.3c7.6,11.1,18,12.7,25.3,12.1
			c14.6-1,22.5-13.1,24.2-21c0.1-0.6,0.8-1.1,1.4-0.9c0.6,0.1,1.1,0.8,0.9,1.4c-2.4,10.6-12.2,21.9-26.3,23
			C57.3,92.3,56.4,92.3,55.5,92.3z"/>
	</g>
	<g>
		<path d="M84.1,66.1L84.1,66.1c-0.8-0.1-1.2-0.6-1.2-1.3c0.8-9.3-3.3-15.5-3.5-15.8c-0.4-0.5-0.2-1.3,0.3-1.7s1.3-0.2,1.7,0.3
			c0.5,0.7,4.8,7.4,3.9,17.3C85.2,65.6,84.7,66.1,84.1,66.1z"/>
	</g>
	<path d="M63.7,63l-8.3-1.6l-8-15c-0.3-0.6-1-0.8-1.6-0.5s-0.8,1-0.5,1.6l8.3,15.6c0.1,0.1,0.2,0.2,0.3,0.3c0.2,0.1,0.3,0.2,0.6,0.3
		l8.8,1.7c0,0,0.1,0,0.2,0c0.6,0,1.1-0.4,1.2-1C64.8,63.8,64.4,63.1,63.7,63z"/>
	<g>
		<g>
			<path d="M32.2,69.3H15.8c-0.7,0-1.2-0.5-1.2-1.2c0-0.7,0.5-1.2,1.2-1.2h16.4c0.7,0,1.2,0.5,1.2,1.2
				C33.4,68.8,32.9,69.3,32.2,69.3z"/>
		</g>
	</g>
	<g>
		<g>
			<path d="M32.2,64.3h-6c-0.7,0-1.2-0.5-1.2-1.2s0.5-1.2,1.2-1.2h6c0.7,0,1.2,0.5,1.2,1.2S32.9,64.3,32.2,64.3z"/>
		</g>
	</g>
	<g>
		<g>
			<path d="M22.7,64.3h-2.4c-0.7,0-1.2-0.5-1.2-1.2s0.5-1.2,1.2-1.2h2.4c0.7,0,1.2,0.5,1.2,1.2S23.4,64.3,22.7,64.3z"/>
		</g>
	</g>
	<g>
		<g>
			<path d="M45.2,74.5H32c-0.7,0-1.2-0.5-1.2-1.2c0-0.7,0.5-1.2,1.2-1.2h13.3c0.7,0,1.2,0.5,1.2,1.2C46.4,74,45.9,74.5,45.2,74.5z"
				/>
		</g>
	</g>
	<g>
		<g>
			<path d="M28.6,74.5h-2.4c-0.7,0-1.2-0.5-1.2-1.2c0-0.7,0.5-1.2,1.2-1.2h2.4c0.7,0,1.2,0.5,1.2,1.2C29.8,74,29.2,74.5,28.6,74.5z"
				/>
		</g>
	</g>
	<g>
		<g>
			<circle cx="55.7" cy="39.2" r="1.3"/>
		</g>
	</g>
	<g>
		<g>
			<circle cx="79" cy="62.5" r="1.3"/>
		</g>
	</g>
	<g>
		<g>
			<circle cx="55.7" cy="85.8" r="1.3"/>
		</g>
	</g>
	<g>
		<g>
			<circle cx="75.9" cy="50.8" r="1.3"/>
		</g>
	</g>
	<g>
		<g>
			<circle cx="67.4" cy="82.7" r="1.3"/>
		</g>
	</g>
	<g>
		<g>
			<circle cx="44" cy="42.3" r="1.3"/>
		</g>
	</g>
	<g>
		<g>
			<circle cx="67.5" cy="42.4" r="1.3"/>
		</g>
	</g>
	<g>
		<g>
			<circle cx="75.8" cy="74.3" r="1.3"/>
		</g>
	</g>
	<g>
		<g>
			<circle cx="43.9" cy="82.6" r="1.3"/>
		</g>
	</g>
	<g>
		<g>
			<circle cx="35.5" cy="50.7" r="1.3"/>
		</g>
	</g>
</g>
</svg>
