<svg xmlns="http://www.w3.org/2000/svg" xmlns:xlink="http://www.w3.org/1999/xlink" viewBox="0 0 93.18 86.04">
  <defs>
    <style>
      .cls-1{isolation:isolate;}.cls-2,.cls-3{mix-blend-mode:multiply;}.cls-2{fill:url(#Degradado_sin_nombre_17);}.cls-3{fill:url(#Degradado_sin_nombre_17-2);}.cls-4{fill:#fff;fill-rule:evenodd;}
    </style>
    <linearGradient id="Degradado_sin_nombre_17" x1="49.76" y1="4.94" x2="50.17" y2="91.09" gradientUnits="userSpaceOnUse">
      <stop offset="0" stop-color="#33338e"/>
      <stop offset="0.54" stop-color="#6e5acc"/>
      <stop offset="1" stop-color="#22b5cc"/>
    </linearGradient>
    <linearGradient id="Degradado_sin_nombre_17-2" x1="0" y1="42.15" x2="86.85" y2="42.15" xlink:href="#Degradado_sin_nombre_17"/>
  </defs>
  <title>fb</title>
  <g class="cls-1">
    <g id="OBJECTS">
      <path class="cls-2" d="M92.59,66A17.76,17.76,0,0,1,75.95,78.57c-5.51,0-10.71-2.62-16.2-3-6.43-.48-12.67,2.1-18.55,4.77-7.37,3.36-15,7-23.39,5.27a13.85,13.85,0,0,1-9-5.93c-4.36-6.84-.39-14.27,3.61-20.35,3.42-5.21,7.18-11,6.13-17.15-.62-3.64-2.86-6.78-4.1-10.26A19.32,19.32,0,0,1,17.34,14,19.17,19.17,0,0,1,27.18,7.4c.76-.22,1.52-.44,2.26-.71a24.57,24.57,0,0,1,29.89,11c4.19,7.4,4.81,17.23,11.56,22.41,4.1,3.13,9.6,3.77,14,6.44A17.76,17.76,0,0,1,92.59,66Z"/>
      <path class="cls-3" d="M84.56,36.44c-2.5,4.4-6.25,8.07-8.27,12.71-3.6,8.25-1.21,18.35-5.51,26.27a17.79,17.79,0,0,1-21.46,7.76c-4.81-1.91-8.6-5.93-13.49-7.6-7-2.39-14.75.36-21.91-1.32A18.57,18.57,0,0,1,.05,58.13,18.59,18.59,0,0,1,11.17,40c5.27-2.17,11.56-1.86,16.18-5.21,4.21-3,6-8.37,7.1-13.43S36.24,10.9,39.2,6.65C44.09-.37,53-3.76,58.63,6.33c1.54,2.77,2.32,6,4.45,8.35,5.27,5.76,16.35,1.75,21.59,7.56C88.07,26,87.07,32,84.56,36.44Z"/>
      <path class="cls-4" d="M50.31,37.46V33.4A2.13,2.13,0,0,1,52.53,31H58.2V22.33H50.39c-8.69,0-10.64,6.42-10.64,10.58v4.55h-5V47.58h5.1V72.86H49.92V47.58h7.48l.33-4,.6-6.14Z"/>
    </g>
  </g>
</svg>