<?xml version="1.0" encoding="utf-8"?>
<!-- Generator: Adobe Illustrator 21.0.0, SVG Export Plug-In . SVG Version: 6.00 Build 0)  -->
<svg version="1.1" id="katman_1" xmlns="http://www.w3.org/2000/svg" xmlns:xlink="http://www.w3.org/1999/xlink" x="0px" y="0px"
	 viewBox="0 0 64 80" style="enable-background:new 0 0 64 80;" xml:space="preserve">
<defs>
  <linearGradient id="adv-svg-gradient" x1="0" y1="0" x2="1" y2="1">
    <stop offset="0%" stop-color="#ffffff" /> 
    <stop offset="26%" stop-color="#ffffff" />            
    <stop offset="100%" stop-color="#ffa0eb" />            
  </linearGradient>
</defs>
<g fill="url(#adv-svg-gradient) #ffa0eb" >
	<path d="M54.9,36.5c0.1,0.1,0.2,0.2,0.3,0.3c0.1,0,0.2,0,0.4,0l0.2-0.1l0.1,0.2C56,36.9,56,37,56.2,37c0.1,0,0.1,0,0.2,0
		c0.1,0,0.1,0,0.2-0.1c0.3-0.1,0.4-0.4,0.3-0.7l-0.1-0.2l0.2-0.1c0.3-0.1,0.4-0.4,0.3-0.7c-0.1-0.1-0.2-0.2-0.3-0.3
		c-0.1-0.1-0.3,0-0.4,0l-0.2,0.1L56.1,35c-0.1-0.1-0.2-0.2-0.3-0.3c-0.1,0-0.2,0-0.4,0c-0.3,0.1-0.4,0.4-0.2,0.7l0.1,0.2l-0.2,0.1
		C54.9,35.9,54.8,36.2,54.9,36.5z"/>
	<path d="M53.2,45.9v-0.2h0.2c0.3,0,0.5-0.3,0.5-0.5c0-0.3-0.3-0.5-0.5-0.5h-0.2v-0.2c0-0.3-0.3-0.5-0.5-0.5c-0.3,0-0.5,0.3-0.5,0.5
		v0.2H52c-0.3,0-0.5,0.3-0.5,0.5c0,0.3,0.3,0.5,0.5,0.5h0.2v0.2c0,0.3,0.3,0.5,0.5,0.5C53,46.4,53.2,46.2,53.2,45.9z"/>
	<path d="M60.1,35.4c-1.3-8.2-6.2-15.4-13.2-19.7c-0.3-0.1-0.5-0.1-0.7,0.2c-0.1,0.3-0.1,0.5,0.2,0.7c6.8,4.2,11.5,11.1,12.8,19
		c1.3,7.9-0.8,16-5.9,22.1c-0.1,0.1-0.2,0.2-0.2,0.3c0,0.1,0.1,0.2,0.1,0.3c0.1,0.1,0.2,0.2,0.4,0.2c0,0,0,0,0,0
		c0.2,0,0.3-0.1,0.3-0.2C59.2,51.9,61.4,43.6,60.1,35.4z"/>
	<path d="M34,23.3c0.1,0.1,0.4,0.1,0.6,0l0,0c0,0,1.3-1.2,3.2-0.2c1.7,0.8,2.5,0.9,2.8,0.9c0.1,0,0.1,0,0.2,0c0.3,0,0.5-0.3,0.5-0.5
		c0-0.3-0.3-0.5-0.5-0.5c0,0,0,0,0,0c0,0-0.5,0.1-2.5-0.9c-2.3-1.2-4.1,0.3-4.2,0.5c-0.1,0.1-0.2,0.2-0.2,0.4
		C33.8,23.1,33.9,23.2,34,23.3z"/>
	<path d="M32.6,26.3c0.7,0,1.5-0.4,1.5-1.1c0-0.7-0.9-1.1-1.5-1.1c-0.7,0-1.5,0.4-1.5,1.1C31.1,25.9,32,26.3,32.6,26.3z M32.1,25.2
		c0-0.1,0.1-0.2,0.5-0.2s0.5,0.1,0.5,0.2c0,0.1-0.1,0.2-0.5,0.2S32.1,25.3,32.1,25.2z"/>
	<path d="M11.6,58.4c-2.3-2.5-4.1-5.4-5.2-8.6c-2.9-7.8-2.2-16.4,1.9-23.6c2.4-4.2,5.9-7.7,10.1-10.1l0,0c0.1-0.1,0.2-0.4,0.1-0.6
		l0,0c-0.1-0.1-0.4-0.2-0.6-0.1c-4.3,2.4-8,6.1-10.4,10.4c-4.2,7.5-4.9,16.4-1.9,24.4c1.2,3.1,3,6.1,5.4,8.8
		c0.1,0.1,0.2,0.1,0.3,0.1s0.3,0,0.3-0.1C11.7,58.9,11.7,58.7,11.6,58.4L11.6,58.4z"/>
	<path d="M12.7,27.8c0.1,0.1,0.2,0.2,0.4,0.2c0,0,0.1,0,0.1,0c0.1,0,0.1,0,0.2-0.1c0.1-0.1,0.2-0.2,0.2-0.4v-0.2h0.1
		c0.1,0,0.2,0,0.3,0c0.1-0.1,0.2-0.2,0.2-0.4c0-0.1,0-0.2,0-0.3c-0.1-0.1-0.2-0.2-0.4-0.2h-0.2v-0.1c0-0.1,0-0.2,0-0.3
		c-0.1-0.1-0.2-0.2-0.4-0.2c-0.1,0-0.2,0-0.3,0c-0.1,0.1-0.2,0.2-0.2,0.4v0.2h-0.1c-0.1,0-0.2,0-0.3,0c-0.1,0.1-0.2,0.2-0.2,0.4
		c0,0.1,0,0.2,0,0.3c0.1,0.1,0.2,0.2,0.4,0.2h0.2v0.1C12.6,27.6,12.6,27.7,12.7,27.8z"/>
	<path d="M7,38.4c0.1,0.1,0.2,0.2,0.4,0.2c0,0,0.1,0,0.1,0c0.1,0,0.1,0,0.2-0.1c0.1-0.1,0.2-0.2,0.2-0.4V38h0.1c0.1,0,0.2,0,0.3,0
		c0.1-0.1,0.2-0.2,0.2-0.4c0-0.1,0-0.2,0-0.3c-0.1-0.1-0.2-0.2-0.4-0.2H8v-0.1c0-0.1,0-0.2,0-0.3c-0.1-0.1-0.2-0.2-0.4-0.2
		c-0.1,0-0.2,0-0.3,0c-0.1,0.1-0.2,0.2-0.2,0.4V37H6.9c-0.1,0-0.2,0-0.3,0c-0.1,0.1-0.2,0.2-0.2,0.4c0,0.1,0,0.2,0,0.3
		c0.1,0.1,0.2,0.2,0.4,0.2c0.1,0,0.1,0,0.2,0v0.1C6.9,38.2,6.9,38.3,7,38.4z"/>
	<path d="M12.7,46.5c0-0.2-0.1-0.4-0.1-0.5l-0.1-0.1l0.1-0.1c0.1,0,0.1-0.1,0.2-0.2c0-0.2,0-0.3-0.1-0.4c-0.1-0.1-0.2-0.2-0.4-0.2
		c-0.1,0-0.3,0.1-0.4,0.2l-0.1,0.1l-0.1-0.1c-0.1-0.1-0.2-0.2-0.4-0.2c-0.1,0-0.3,0.1-0.3,0.2c-0.1,0.1-0.1,0.1-0.1,0.2
		c0,0.2,0.1,0.4,0.1,0.5l0.1,0.1L11,46c-0.1,0.1-0.1,0.1-0.2,0.2c0,0.2,0,0.3,0.1,0.4c0.1,0.1,0.2,0.2,0.4,0.2
		c0.1,0,0.3-0.1,0.4-0.2l0.1-0.1l0.1,0.1c0.1,0.1,0.2,0.2,0.4,0.2c0.1,0,0.3-0.1,0.3-0.2C12.7,46.6,12.7,46.6,12.7,46.5z"/>
	<path d="M38.2,26.6c-0.1-0.1-0.2-0.1-0.4-0.1c-0.1,0-0.3,0.1-0.3,0.2c-0.3,0.4-0.8,0.7-1.1,0.9c-0.9,0.4-1.8,0.4-2.6,0
		c-0.4-0.2-0.7-0.5-1-0.8c-0.2-0.2-0.5-0.3-0.8,0c-0.2,0.2-0.5,0.5-0.8,0.7l-0.1,0.1c-0.9,0.4-1.8,0.4-2.6,0c-0.5-0.2-0.8-0.5-1-0.8
		c-0.1-0.2-0.4-0.3-0.7-0.2c-0.2,0.1-0.3,0.4-0.2,0.7l0,0c0.3,0.5,0.8,0.9,1.5,1.2c1.1,0.5,2.4,0.5,3.5,0c0.4-0.2,0.7-0.4,0.9-0.6
		c0.3,0.3,0.5,0.4,0.9,0.6c0.5,0.3,1,0.4,1.6,0.4s1.2-0.1,1.8-0.4c0.6-0.4,1.1-0.8,1.3-1.2c0.1-0.1,0.1-0.2,0.1-0.4
		C38.4,26.8,38.3,26.7,38.2,26.6z"/>
	<path d="M24.4,23.8c0,0,0.1,0,0.2,0c0.3,0,1.1-0.1,2.8-0.9c1.9-0.9,3.1,0.2,3.2,0.3c0.1,0.1,0.5,0.1,0.7,0c0.1-0.1,0.1-0.3,0.1-0.3
		s0-0.2-0.1-0.3c0,0-1.8-1.7-4.2-0.6c-2,1-2.5,0.9-2.5,0.9l0,0c-0.3,0-0.5,0.3-0.5,0.5C23.9,23.6,24.1,23.8,24.4,23.8z"/>
	<path d="M47.6,43L47.6,43c0-1.1,0-1.9-0.1-2.8c0.9-0.1,1.8-0.7,2.6-1.6c0.9-1.1,1.4-2.5,1.4-3.8v-8.3c0.4-0.3,0.6-0.7,0.8-1.1
		c0.2-0.5,0.3-1,0.3-1.5c0-1.1-0.4-2-1.1-2.8c-0.4-0.3-0.8-0.6-1.2-0.8c-0.5-0.2-1-0.3-1.5-0.3c-1.1,0-2,0.4-2.8,1.1
		c-0.7,0.7-1.1,1.7-1.1,2.8c0,0.5,0.1,1,0.3,1.5c0.1,0.5,0.5,0.9,0.7,1.1V32c0,0.7-0.6,1.4-1.4,1.4h-0.6c-0.1-0.1-0.3-0.2-0.5-0.3
		c-0.2-0.1-0.3-0.2-0.5-0.3l-0.5-0.2c1.3-1.6,2-3.6,2-5.7V16.1c0-1.3-0.5-2.4-1.3-3.3c-1.7-1.7-4.6-1.7-6.5,0c-0.9,1-1.3,2-1.3,3.4
		h-5.5c0-1.4-0.5-2.5-1.3-3.4c-0.8-0.9-1.9-1.3-3.1-1.4c0,0,0,0-0.1,0c-1.2,0-2.4,0.5-3.3,1.3c-0.8,0.8-1.3,2.1-1.3,3.3v10.8
		c0,1.3,0.3,2.6,0.8,3.8c-0.1-0.2-0.3-0.5-0.4-0.7c-0.7-1.1-1.8-1.8-2.9-1.8c-1.2,0-2.2,0.6-3,1.8c-0.7,0.9-1.1,2.3-1.1,3.9
		c0,0.8,0.1,1.5,0.3,2.2c0.2,0.5,0.4,1,0.7,1.4c-0.5,0.6-0.8,1.4-0.8,2.2c0,1,0.4,1.9,1.1,2.7c0.4,0.4,1,0.8,1.8,1l-4.6,17.7l0,0
		c0,0.2,0,0.4,0,0.6c0,0.2-0.1,0.4-0.1,0.6c0,2.9,2.8,5.2,5.5,5.9c0.6,0.2,1.3,0.3,1.9,0.3h25.1c0.7,0,1.4-0.1,1.9-0.3
		c2.7-0.7,5.5-3,5.5-5.9c0-0.4-0.1-0.8-0.2-1.2L47.6,43z M43.6,21c-0.2-0.3-0.4-0.6-0.6-1l-0.2-0.3c-1.6-2.1-3.8-3.3-6.5-3.5
		c0-1.2,0.3-2,1.1-2.7c1.4-1.4,3.6-1.4,5.1,0c0.7,0.8,1.1,1.7,1.1,2.6V21z M31.8,38.2c0.2-0.2,0.5-0.3,0.8-0.3
		c0.3,0,0.6,0.1,0.8,0.3c0.4,0.5,0.4,1.2,0,1.6c-0.4,0.4-1.2,0.4-1.6,0C31.3,39.4,31.3,38.6,31.8,38.2z M36.5,36.9h-7.7
		c-2.5,0-4.8-0.9-6.6-2.5v-0.3c0.1-0.1,0.2-0.2,0.4-0.3c0.1-0.1,0.2-0.2,0.4-0.3c0.1,0,0.2-0.1,0.3-0.1c0.1,0,0.2-0.1,0.3-0.1
		c2.8,2.6,6.3,2.5,10,2.4c0.7,0,1.5,0,2.3,0c2.2,0,4.2-0.8,6-2.4c0.1,0,0.2,0.1,0.3,0.2c0.1,0.1,0.3,0.2,0.4,0.2l0.8,0.5
		C41.6,35.9,39.1,36.9,36.5,36.9z M43.6,26.9c0,2.1-0.8,4.1-2.3,5.5c-1.7,1.6-3.6,2.4-5.6,2.4c-0.8,0-1.7,0-2.5,0.1
		c-3.5,0.2-6.7,0.3-9.4-2.3c-1.4-1.4-2.3-3.4-2.3-5.5v-1.9c0-4.4,3.5-7.9,7.9-7.9h6.2c3.3,0,6.2,2,7.4,5.2c0.5,1.4,0.5,2.5,0.5,3.8
		C43.6,26.5,43.6,26.7,43.6,26.9z M34,51.4l-0.2,0.2c-0.1,0.1-0.1,0.1-0.2,0.1c-0.2,0-0.3-0.2-0.3-0.3c0-0.1,0-0.2,0.1-0.2
		c0.1-0.1,0.1-0.1,0.2-0.1c0.1,0,0.2,0,0.2,0L34,51.4z M34.3,52.4l0.6-0.6c0.1-0.1,0.2-0.2,0.2-0.3c0-0.1,0-0.3-0.2-0.4l-0.6-0.6
		c-0.2-0.3-0.5-0.5-0.9-0.5c-0.1,0-0.1,0-0.2,0.1c0.2-0.7,0.4-1.6,0.8-2.2c0.6-0.8,1.4-1.3,2.1-1.3c0.8,0,1.5,0.4,2.1,1.2
		c0.4,0.6,0.7,1.4,0.8,2.1c-0.1,0-0.2,0-0.2,0c-0.4,0-0.7,0.1-0.9,0.3L37.3,51c-0.2,0.2-0.2,0.3-0.3,0.4c0,0.1,0,0.1-0.1,0.2l0,0.1
		l0.7,0.7c0.2,0.2,0.5,0.3,0.9,0.3c0.1,0,0.2,0,0.2-0.1c0,0,0,0,0,0c-0.1,0.7-0.3,1.4-0.8,2c-0.6,0.8-1.4,1.3-2.1,1.3
		c-0.8,0-1.5-0.4-2.1-1.2c-0.3-0.5-0.5-1.2-0.7-1.9c0.1,0,0.2,0,0.2,0C33.7,52.7,34.1,52.6,34.3,52.4z M38.4,51.4l0.2-0.2
		c0.1-0.1,0.2-0.2,0.2-0.2c0.2,0,0.3,0.2,0.3,0.3c0,0.2-0.1,0.3-0.3,0.3c-0.1,0-0.2,0-0.2-0.1L38.4,51.4z M46.2,52.6l1.2,5.4
		c0.1,0.2,0.1,0.5,0.1,0.6c0,2.1-2,3.6-3.8,4c-0.4,0.1-0.8,0.1-1.2,0.1h-20c-0.4,0-0.9-0.1-1.3-0.2c-1.8-0.5-3.7-2-3.7-3.9
		c0-0.3,0-0.5,0.1-0.8l1.4-5.5c0.2,1.8,1.7,3.1,3.5,3.1c1.5,0,2.8-1,3.4-2.4c1.5,0.2,3.1,0.2,4.7,0.1c0.6,0,1.2,0,1.7,0
		c0.2,0.8,0.5,1.5,0.9,2.1c0.7,1.1,1.8,1.8,2.9,1.8c1.1,0,2.1-0.6,2.9-1.7c0.4-0.4,0.6-0.9,0.8-1.4c0.3,0.3,0.5,0.6,0.6,0.9l0,0
		c1.1,0.8,2.6,0.9,3.8,0.3C45.3,54.6,46,53.7,46.2,52.6z M21.1,33.9v0.6c0,0.4-0.1,0.8-0.2,1.2c-0.1,0.3-0.3,0.7-0.4,1
		c-0.8-0.6-1.5-0.8-2.5-0.8c0,0,0,0,0,0c-0.8,0.1-1.5,0.4-2.2,0.8c-0.2-0.3-0.3-0.7-0.4-1.1c-0.2-0.6-0.3-1.2-0.3-1.9
		c0-1.2,0.3-2.4,1-3.3c0.6-0.8,1.4-1.3,2.1-1.3c0.8,0,1.5,0.4,2.1,1.2C20.7,31.2,21.2,32.3,21.1,33.9z M16.4,37.4v2.7
		c0,0.3,0.3,0.5,0.5,0.5s0.5-0.3,0.5-0.5V37c0.4-0.1,1.1-0.2,1.6-0.1V40c0,0.3,0.3,0.5,0.5,0.5S20,40.3,20,40v-2.6
		c0.7,0.5,1.1,1.3,1.1,2.2c0,0.7-0.3,1.5-0.9,2c-0.4,0.5-1.2,0.9-2,0.9c-0.7,0-1.5-0.3-2-0.9c-0.6-0.6-0.9-1.3-0.9-2
		C15.3,38.7,15.7,37.9,16.4,37.4z M13.7,61.4l4.1-15.6c0,0.1,0,0.2,0.1,0.3c0,0.2,0.7,2.2,1.2,2.6c-1,3.9-2.3,8.4-2.4,8.9h0
		c-0.1,0.3-0.1,0.6-0.1,0.9c0,2.5,2.3,4.3,4.4,4.8c0.5,0.1,1,0.2,1.5,0.2h20c0.4,0,1-0.1,1.3-0.2c2.3-0.5,4.6-2.5,4.6-4.9
		c0-0.3,0-0.6-0.1-0.9l-2.1-9.2c0.5-0.7,0.9-1.7,1.1-2.8l4.2,15.9c0.1,0.4,0.1,0.7,0.1,1c0,2.5-2.4,4.4-4.7,5
		c-0.5,0.1-1.1,0.2-1.7,0.2H20c-0.5,0-0.9-0.1-1.4-0.2l-0.2,0c-2.3-0.6-4.7-2.5-4.7-5C13.6,62.1,13.6,61.7,13.7,61.4z M47.6,39.4H44
		c-0.3,0-0.5,0.3-0.5,0.5s0.3,0.5,0.5,0.5h3.2c0.1,1.5,0.1,3-0.1,4.3c-0.2,1.2-0.5,2.2-0.9,2.9c-1.8-1.7-4.2-3.1-6.7-4
		c-0.1-0.1-0.2-0.1-0.4,0c-0.1,0-0.2,0.1-0.3,0.3c-0.1,0.2,0,0.5,0.3,0.7c2.6,0.9,4.9,2.4,6.7,4.1V52c0,0.6-0.2,1.1-0.6,1.6v-0.3
		c0-0.3-0.3-0.5-0.5-0.5c-0.3,0-0.5,0.3-0.5,0.5v1.1c-0.1,0.1-0.3,0.2-0.5,0.2v-1.3c0-0.3-0.3-0.5-0.5-0.5c-0.3,0-0.5,0.3-0.5,0.5
		v1.3c-0.1,0-0.3-0.1-0.5-0.1v-1.1c0-0.3-0.3-0.5-0.5-0.5c-0.3,0-0.5,0.3-0.5,0.5v0.4c-0.3-0.4-0.5-0.7-0.5-1c0-0.1,0-0.2-0.1-0.2
		c0.1-0.4,0.1-0.7,0.1-1.1c0-1.5-0.4-2.8-1.1-3.9c-0.7-1.1-1.8-1.8-2.9-1.8c-1.1,0-2.1,0.6-2.9,1.8c-0.7,1-1.1,2.4-1.1,3.9
		c0,0.2,0,0.3,0.1,0.5c0,0.1,0,0.2,0,0.3c-0.4,0-0.9,0-1.4,0c-1.6,0-3.2,0-4.7-0.1v-0.3c0-0.3-0.3-0.5-0.5-0.5s-0.5,0.3-0.5,0.5
		c0,0.6-0.2,1.2-0.6,1.7v-0.4c0-0.3-0.3-0.5-0.5-0.5s-0.5,0.3-0.5,0.5v1.1c-0.1,0.1-0.3,0.1-0.4,0.1v-1.3c0-0.3-0.3-0.5-0.5-0.5
		s-0.5,0.3-0.5,0.5v1.2c-0.1,0-0.2-0.1-0.2-0.1c-0.1,0-0.2-0.1-0.3-0.1v-1.1c0-0.3-0.3-0.5-0.5-0.5s-0.5,0.3-0.5,0.5v0.3
		c-0.3-0.5-0.5-1-0.5-1.6v-3.1c0-0.2,0-0.3-0.1-0.4c1.9-1.7,4.1-3.1,6.6-4c0.3-0.1,0.4-0.4,0.3-0.7c-0.1-0.1-0.2-0.2-0.3-0.3
		c-0.1-0.1-0.3,0-0.4,0c-2.6,0.9-4.8,2.3-6.8,4.1c-0.3-0.5-0.5-1.1-0.3-1.6l0,0l0,0c-0.3-0.7-0.4-1.4-0.4-2.3c1,0,1.9-0.4,2.5-1.1
		c0.7-0.6,1.1-1.6,1.1-2.7c0-0.8-0.3-1.6-0.8-2.2c0.3-0.4,0.5-0.9,0.7-1.5l0,0c0-0.1,0-0.2,0-0.3c0,0,0-0.1,0-0.1
		c1.9,1.5,4.3,2.4,6.7,2.4h2c-0.5,0.8-0.4,2,0.3,2.7c0.3,0.4,0.8,0.6,1.4,0.6c0,0,0,0,0.1,0c0.6,0,1.1-0.2,1.5-0.6
		c0.7-0.7,0.8-1.8,0.2-2.7h2.1c3.2,0,6.1-1.3,8-3.5h0c1.4,0,2.4-1.1,2.4-2.4v-5.8c0-0.1,0-0.3-0.1-0.4c-0.3-0.3-0.5-0.6-0.7-0.9
		c-0.1-0.4-0.2-0.8-0.2-1.2c0-0.8,0.3-1.6,0.9-2.1c0.1-0.1,0.2-0.2,0.3-0.3v2.5c0,0.3,0.3,0.5,0.5,0.5c0.3,0,0.5-0.3,0.5-0.5v-2.9
		c0.3-0.1,0.5-0.1,0.8-0.1c0.4,0,0.6,0,0.9,0.1v2.9c0,0.3,0.3,0.5,0.5,0.5c0.3,0,0.5-0.3,0.5-0.5v-2.4c0.1,0.1,0.2,0.2,0.3,0.3
		c0.6,0.6,0.9,1.3,0.9,2.1c0,0.4,0,0.8-0.2,1.1c-0.2,0.4-0.4,0.7-0.7,1l0,0V26c0,0,0,0.1,0,0.1c0,0.1-0.1,0.1-0.1,0.2v8.6
		c0,1.1-0.4,2.3-1.2,3.1C49.3,38.9,48.4,39.4,47.6,39.4z M21.6,21v-4.9c0-0.9,0.4-1.8,1.1-2.5l0,0c0.6-0.7,1.5-1.1,2.5-1.1
		c0,0,0,0,0.1,0c1,0,1.9,0.4,2.6,1.1c0.7,0.7,1,1.5,1.1,2.6C25.8,16.4,23.1,18.2,21.6,21z M22.8,32.7c0,0-0.1,0.1-0.1,0.1
		c-0.1,0-0.1,0.1-0.2,0.1L22.2,33c-0.2-0.9-0.4-1.6-0.6-2.2C21.9,31.5,22.3,32.1,22.8,32.7z"/>
	<path d="M36.1,55.3c0.4,0,0.8-0.1,1-0.4c0.2-0.3,0.3-0.6,0.3-1c0-0.4-0.1-0.8-0.3-1l-0.6-0.6c-0.1-0.1-0.2-0.2-0.3-0.2
		c-0.1,0-0.3,0-0.4,0.2L35.2,53l0,0c-0.2,0.3-0.3,0.6-0.3,1c0,0.1,0,0.1,0,0.2c0,0.2,0,0.4,0.2,0.7C35.4,55.2,35.7,55.3,36.1,55.3z
		 M35.9,53.9c0-0.1,0-0.2,0.1-0.2l0.2-0.2c0.1,0.1,0.2,0.2,0.4,0.3c0,0,0,0,0,0c0,0,0,0.1,0,0.2C36.6,54.3,35.9,54.3,35.9,53.9z"/>
	<path d="M40.7,25.2c-0.3-0.1-0.5-0.1-0.7,0.1c-0.1,0.1-0.1,0.2-0.1,0.4c0,0.1,0.1,0.3,0.2,0.3c0,0,1.3,0.7,1.4,1.6
		c0,0.3,0.3,0.4,0.5,0.4c0.2,0,0.4-0.2,0.4-0.6C42.2,26.1,40.7,25.2,40.7,25.2z"/>
	<path d="M42.3,58H22.8c-0.3,0-0.5,0.3-0.5,0.5s0.3,0.5,0.5,0.5h19.5c0.3,0,0.5-0.3,0.5-0.5S42.6,58,42.3,58z"/>
	<path d="M35.8,50.3L35.8,50.3c0.1,0.1,0.2,0.1,0.3,0.1c0.2,0,0.3-0.1,0.4-0.2l0.6-0.6c0.2-0.2,0.3-0.5,0.3-0.9
		c0-0.8-0.6-1.3-1.3-1.3s-1.3,0.6-1.3,1.3c0,0.4,0.1,0.8,0.3,1L35.8,50.3z M35.8,48.8c0-0.2,0.2-0.3,0.3-0.3c0.2,0,0.3,0.1,0.3,0.3
		c0,0.1,0,0.2-0.1,0.2l-0.2,0.2L36,49C35.9,48.9,35.8,48.8,35.8,48.8z"/>
	<path d="M40.8,26.9c-0.1,0-0.2,0-0.4,0c-0.3,0.1-0.4,0.4-0.3,0.7c0,0,0.5,1.1,0.2,1.9c-0.1,0.3,0,0.5,0.3,0.7
		c0.1,0,0.1,0.1,0.2,0.1c0.2,0,0.4-0.1,0.5-0.3c0.5-1.3-0.2-2.6-0.2-2.7C41,27,40.9,26.9,40.8,26.9z"/>
	<path d="M24.4,25.2L24.4,25.2c-0.1,0-1.6,0.8-1.8,2.3c0,0.3,0.2,0.5,0.4,0.5c0.3,0,0.5-0.2,0.5-0.4C23.8,26.7,25,26,25,26
		c0.2-0.1,0.3-0.4,0.2-0.7C25,25.1,24.7,25,24.4,25.2z"/>
	<path d="M24.7,26.9c-0.1-0.1-0.3-0.1-0.4,0c-0.1,0-0.2,0.1-0.3,0.3l0,0c0,0.1-0.6,1.4-0.2,2.9c0.1,0.2,0.3,0.3,0.5,0.3
		c0.1,0,0.1,0,0.2-0.1c0.1-0.1,0.2-0.2,0.3-0.3c0.1-0.1,0-0.3,0-0.4c-0.3-0.9,0.2-2.1,0.2-2.1C25,27.3,24.9,27,24.7,26.9z"/>
	<path d="M19.3,31.1c-0.6-0.6-1.5-0.6-2.1,0c-0.2,0.2-0.3,0.4-0.4,0.7c-0.2,0-0.4,0.1-0.6,0.3c-0.6,0.6-0.6,1.5,0,2.1
		c0.2,0.2,0.4,0.3,0.6,0.4c0.1,0.2,0.2,0.4,0.4,0.6c0.3,0.3,0.7,0.4,1,0.4s0.8-0.1,1-0.4c0.2-0.2,0.3-0.4,0.4-0.6
		c0.2-0.1,0.4-0.2,0.6-0.4c0.5-0.7,0.5-1.5,0-2.1c-0.2-0.2-0.4-0.3-0.6-0.4C19.6,31.5,19.5,31.3,19.3,31.1z M17.9,31.9
		c0.2-0.2,0.5-0.2,0.6,0c0.1,0.1,0.2,0.2,0.2,0.3c0,0.3,0.3,0.5,0.5,0.5c0.1,0,0.2,0.1,0.3,0.2c0.2,0.2,0.2,0.5,0,0.6
		c-0.1,0.1-0.3,0.2-0.3,0.2c-0.3,0-0.5,0.3-0.5,0.5c0,0.1-0.1,0.2-0.2,0.3c-0.2,0.2-0.5,0.2-0.6,0c-0.1-0.1-0.2-0.2-0.2-0.3
		c0-0.3-0.3-0.5-0.5-0.5c-0.1,0-0.2-0.1-0.3-0.2c-0.2-0.2-0.2-0.5,0-0.6c0.1-0.1,0.2-0.2,0.3-0.2c0.3,0,0.5-0.3,0.5-0.5
		C17.7,32.1,17.8,32,17.9,31.9z"/>
</g>
</svg>
