<svg xmlns="http://www.w3.org/2000/svg" viewBox="0 0 155 60"><path d="M74.7 22.8c-2.1 0-3.7 1.6-3.7 3.7s1.7 3.7 3.7 3.7c2.1 0 3.7-1.6 3.7-3.7.1-2.1-1.6-3.7-3.7-3.7zm0 6c-1.1 0-2.1-.9-2.1-2.3 0-1.3 1-2.3 2.1-2.3s2.1.9 2.1 2.3c0 1.3-.9 2.3-2.1 2.3zm-8.1-6c-2.1 0-3.7 1.6-3.7 3.7s1.7 3.7 3.7 3.7 3.7-1.6 3.7-3.7-1.7-3.7-3.7-3.7zm0 6c-1.1 0-2.1-.9-2.1-2.3 0-1.3 1-2.3 2.1-2.3s2.1.9 2.1 2.3c0 1.3-1 2.3-2.1 2.3zm-9.7-4.9v1.6h3.8c-.1.9-.4 1.5-.9 2s-1.4 1.2-2.9 1.2c-2.3 0-4.1-1.9-4.1-4.2s1.8-4.2 4.1-4.2c1.3 0 2.2.5 2.8 1.1l1.1-1.1c-.9-.9-2.2-1.6-4-1.6-3.2 0-5.9 2.6-5.9 5.8s2.7 5.8 5.9 5.8c1.7 0 3-.6 4-1.6s1.4-2.5 1.4-3.7c0-.4 0-.7-.1-1l-5.2-.1zm39.6 1.3c-.3-.8-1.3-2.4-3.2-2.4-1.9 0-3.5 1.5-3.5 3.7 0 2.1 1.6 3.7 3.7 3.7 1.7 0 2.7-1 3.1-1.6l-1.3-.8c-.4.6-1 1-1.8 1s-1.4-.4-1.8-1.1l5-2.1-.2-.4zm-5.1 1.2c0-1.4 1.1-2.2 1.9-2.2.6 0 1.2.3 1.4.8l-3.3 1.4zm-4 3.6H89V19.1h-1.6V30zm-2.7-6.4c-.4-.4-1.1-.8-2-.8-1.9 0-3.6 1.6-3.6 3.7s1.7 3.7 3.6 3.7c.9 0 1.6-.4 2-.8h.1v.5c0 1.4-.8 2.2-2 2.2-1 0-1.6-.7-1.9-1.3l-1.4.6c.4 1 1.5 2.2 3.3 2.2 1.9 0 3.5-1.1 3.5-3.9V23h-1.5l-.1.6zm-1.9 5.2c-1.1 0-2.1-.9-2.1-2.2 0-1.3.9-2.3 2.1-2.3 1.1 0 2 1 2 2.3 0 1.2-.8 2.2-2 2.2zm21.4-9.7h-3.9V30h1.6v-4.1h2.3c1.8 0 3.6-1.3 3.6-3.4s-1.8-3.4-3.6-3.4zm0 5.2h-2.3v-3.7h2.3c1.2 0 1.9 1 1.9 1.9 0 .8-.7 1.8-1.9 1.8zm10.1-1.5c-1.2 0-2.4.5-2.9 1.7l1.4.6c.3-.6.9-.8 1.5-.8.8 0 1.7.5 1.7 1.4v.1c-.3-.2-.9-.4-1.7-.4-1.6 0-3.1.9-3.1 2.5 0 1.5 1.3 2.4 2.7 2.4 1.1 0 1.7-.5 2.1-1.1h.1v.8h1.6v-4.2c-.1-1.9-1.6-3-3.4-3zm-.2 6c-.5 0-1.3-.3-1.3-.9 0-.8.9-1.2 1.7-1.2.7 0 1.1.2 1.5.4-.1.9-1 1.7-1.9 1.7zm9.2-5.8l-1.9 4.7h-.1l-1.9-4.7h-1.8l2.9 6.6-1.7 3.7h1.7L125 23h-1.7zm-14.7 7h1.6V19.1h-1.6V30z" fill="#8500d1"/><linearGradient id="a" gradientUnits="userSpaceOnUse" x1="31.77" y1="-394.68" x2="14.988" y2="-411.462" gradientTransform="matrix(1 0 0 -1 0 -376)"><stop offset="0" stop-color="#00a0ff"/><stop offset=".007" stop-color="#00a1ff"/><stop offset=".26" stop-color="#00beff"/><stop offset=".512" stop-color="#00d2ff"/><stop offset=".76" stop-color="#00dfff"/><stop offset="1" stop-color="#00e3ff"/></linearGradient><path d="M20.4 17.5c-.3.3-.5.8-.5 1.4V41c0 .6.2 1.1.5 1.4l.1.1 12.4-12.4v-.2L20.4 17.5z" fill="url(#a)"/><linearGradient id="b" gradientUnits="userSpaceOnUse" x1="43.834" y1="-406.05" x2="19.637" y2="-406.05" gradientTransform="matrix(1 0 0 -1 0 -376)"><stop offset="0" stop-color="#ffe000"/><stop offset=".409" stop-color="#ffbd00"/><stop offset=".775" stop-color="orange"/><stop offset="1" stop-color="#ff9c00"/></linearGradient><path d="M37 34.3l-4.1-4.1v-.3l4.1-4.1.1.1 4.9 2.8c1.4.8 1.4 2.1 0 2.9l-5 2.7z" fill="url(#b)"/><linearGradient id="c" gradientUnits="userSpaceOnUse" x1="34.816" y1="-408.284" x2="12.057" y2="-431.043" gradientTransform="matrix(1 0 0 -1 0 -376)"><stop offset="0" stop-color="#ff3a44"/><stop offset="1" stop-color="#c31162"/></linearGradient><path d="M37.1 34.2L32.9 30 20.4 42.5c.5.5 1.2.5 2.1.1l14.6-8.4" fill="url(#c)"/><linearGradient id="d" gradientUnits="userSpaceOnUse" x1="17.262" y1="-386.212" x2="27.424" y2="-396.374" gradientTransform="matrix(1 0 0 -1 0 -376)"><stop offset="0" stop-color="#32a071"/><stop offset=".069" stop-color="#2da771"/><stop offset=".476" stop-color="#15cf74"/><stop offset=".801" stop-color="#06e775"/><stop offset="1" stop-color="#00f076"/></linearGradient><path d="M37.1 25.8l-14.6-8.3c-.9-.5-1.6-.4-2.1.1L32.9 30l4.2-4.2z" fill="url(#d)"/><path d="M37 34.1l-14.5 8.2c-.8.5-1.5.4-2 0l-.1.1.1.1c.5.4 1.2.5 2 0L37 34.1z" opacity=".2"/><path d="M20.4 42.3c-.3-.3-.4-.8-.4-1.4v.1c0 .6.2 1.1.5 1.4v-.1h-.1zm21.6-11l-5 2.8.1.1 4.9-2.9c.7-.3 1-.8 1-1.3 0 .5-.4.9-1 1.3z" opacity=".12"/><path d="M22.5 17.6L42 28.7c.6.4 1 .8 1 1.3 0-.5-.3-1-1-1.4L22.5 17.5c-1.4-.8-2.5-.1-2.5 1.5v.1c0-1.6 1.1-2.3 2.5-1.5z" opacity=".25" fill="#fff"/><path d="M51.8 38.9h-.7V37h.7v1.9zm1.3 4.1v-6.1H55c.9 0 1.7.3 2.2.8.6.6.8 1.3.8 2.2s-.3 1.6-.8 2.2c-.6.6-1.3.8-2.2.8l-1.9.1zm.8-.7H55c.7 0 1.3-.2 1.7-.6.4-.4.6-1 .6-1.7s-.2-1.3-.6-1.7c-.4-.4-1-.6-1.7-.6h-1.1v4.6zm8.8-4.6h-2.8v1.9h2.5v.7h-2.5v1.9h2.8v.8h-3.6v-6.1h3.6v.8zm1.1 5.3v-6.1h1l3 4.7v-4.8h.8V43h-.8l-3.1-5v5h-.9zm7.3 0l2.3-6.1h.9l2.3 6.1h-.9l-.6-1.6h-2.6l-.6 1.6h-.8zm1.7-2.4h2l-1-2.7-1 2.7zm4.5 2.4v-6.1h.8v5.3h2.6v.8h-3.4zm4.3 0v-6.1h.8V43h-.8zm2.2 0v-6.1h1l3 4.7v-4.8h.8V43h-.8l-3.1-5v5h-.9z" fill="#8500d1" stroke="#8500d1" stroke-width=".2" stroke-miterlimit="10"/></svg>