<?xml version="1.0" encoding="utf-8"?>
<!-- Generator: Adobe Illustrator 21.0.0, SVG Export Plug-In . SVG Version: 6.00 Build 0)  -->
<svg version="1.1" id="katman_1" xmlns="http://www.w3.org/2000/svg" xmlns:xlink="http://www.w3.org/1999/xlink" x="0px" y="0px"
	 viewBox="0 18 99 90" style="enable-background:new 0 0 100 125;" xml:space="preserve">
<g>
	<path fill="#FF80E6" d="M90.7,29.1C81.6,20,67,20,57.9,29.1l-0.3,0.3l-0.3-0.3c-9.1-9.1-23.7-9.1-32.8,0c-0.5,0.5-0.9,1-1.4,1.5
      c6.4-0.3,13,1.9,18,6.6c9.6-9,24.7-8.8,34,0.6c4.8,4.8,7.1,11,7.1,17.3s-2.4,12.5-7.1,17.3L55,92.4l2.6,2.6L74,78.6l6.5-6.5
      l10.2-10.2C99.8,52.8,99.8,38.1,90.7,29.1z"></path>
    <path fill="#FF80E6" d="M73.3,39.6c-8.5-8.5-22.4-8.5-30.9,0l-1.3,1.3l-1.3-1.3c-4.3-4.3-9.9-6.4-15.5-6.4c-1.1,0-2.2,0.1-3.3,0.3
      c-4.5,0.7-8.7,2.7-12.2,6.1c-4.1,4.1-6.4,9.6-6.4,15.5c0,5.8,2.3,11.3,6.4,15.5L41,102.8l12.1-12.1l20.2-20.2
      C81.8,62,81.8,48.1,73.3,39.6z"></path>
</g>
</svg>