<svg xmlns="http://www.w3.org/2000/svg" viewBox="0 0 1366 1597.95"><title>Asset 1</title><g id="Layer_2" data-name="Layer 2"><g id="Layer_1-2" data-name="Layer 1"><path d="M1,1589V1H1367V1593a3.93,3.93,0,0,1-1.48-.14c-12.24-6.83-24.59-13.46-36.65-20.59a143.59,143.59,0,0,0-68.89-20.08,193.72,193.72,0,0,0-37,2,439.23,439.23,0,0,0-49.56,10.89c-14.39,4-28.28,9.83-42.35,14.94-23.3,8.47-47.5,13.09-72,15.75-17.71,1.92-35.58,2.63-53.4,3-14.75.35-29.53-.37-44.29-.91-10.88-.41-21.8-.83-32.6-2.08-16.57-1.91-33.14-4.08-49.56-7-19.25-3.39-38.34-7.66-57.49-11.57-15.17-3.09-30.26-6.65-45.52-9.18-15.49-2.58-31.12-4.45-46.75-6.1-15.87-1.68-31.79-3.62-47.71-3.86-35.39-.54-70.87-1.4-106,4.83-13.65,2.42-27.4,4.45-40.85,7.73-15.63,3.81-30.81,9.49-46.47,13.09-16.67,3.84-33.6,6.78-50.56,9-16.13,2.13-32.43,3.26-48.69,4-10.57.48-21.22-.18-31.79-.92-20.52-1.42-41.07-2.69-61.48-5.1a376.63,376.63,0,0,1-47.69-8.47c-20.31-5.12-40.36-11.46-60.26-18-16.34-5.42-32.85-10.24-50-11.09-18.94-.94-37.89-.59-56.69,3.62a237,237,0,0,0-66.33,25.61C10.49,1585,5.65,1586.84,1,1589Z" transform="translate(-1 -1)"/></g></g></svg>