<svg xmlns="http://www.w3.org/2000/svg" viewBox="0 0 1366 1175.97"><title>Asset 1</title><g id="Layer_2" data-name="Layer 2"><g id="Layer_1-2" data-name="Layer 1"><path d="M1,1171V1H1367V1171a3.93,3.93,0,0,1-1.48-.14c-12.24-6.83-24.59-13.46-36.64-20.59a143.55,143.55,0,0,0-68.88-20.08,193.72,193.72,0,0,0-37,2,439.06,439.06,0,0,0-49.55,10.89c-14.38,4-28.23,10-42.35,14.91a279.8,279.8,0,0,1-68.16,15c-16.72,1.49-33.44,3.28-50.2,3.84-14.91.51-29.86-.44-44.79-.84-8.94-.23-17.87-.59-26.8-1-4.27-.2-8.56-.49-12.8-1.06-14.1-1.89-28.23-3.61-42.26-6-17.19-2.91-34.32-6.24-51.41-9.69-17.56-3.55-35-8-52.58-11.08-17.4-3-35-5.07-52.53-7.12-14.36-1.68-28.78-3.59-43.2-3.84-23.42-.41-46.87.08-70.28,1a310.14,310.14,0,0,0-39.66,4c-18.79,3.13-37.75,6.13-56,11.46-27.28,8-54.38,16.16-82.88,18.42-16.9,1.34-33.8,3.7-50.7,3.71-23.13,0-46.27-1.57-69.39-2.84a223.29,223.29,0,0,1-25.38-3c-13.82-2.37-27.7-4.58-41.27-8-18.75-4.73-37.46-9.85-55.77-16-18.6-6.3-37.24-12.44-56.87-13.62-22.43-1.35-44.88-.36-66.69,5.9-20.11,5.77-39.95,12.33-57.17,24.86C10,1165.09,5.43,1168,1,1171Z" transform="translate(-1 -1)"/></g></g></svg>