<svg width="43" height="43" version="1.1" xmlns="http://www.w3.org/2000/svg" xmlns:xlink="http://www.w3.org/1999/xlink" x="0px" y="0px"
	 viewBox="0 0 469.333 469.333" style="enable-background:new 0 0 469.333 469.333;" xml:space="preserve">
  <defs>
    <linearGradient id="svg-purse" x1="0" y1="0" x2="1" y2="1">
      <stop offset="0%" stop-color="#ffffff" />                   
      <stop offset="100%" stop-color="#ffa0eb" />            
    </linearGradient>     
  </defs>
	<g fill="url(#svg-purse) #ffa0eb">
		<path d="M459.885,306.437l-49.272-114.971c21.018-2.634,37.387-20.41,37.387-42.133V128c0-23.531-19.135-42.667-42.667-42.667
			H290.462c-9.171-4.313-25.49-13.592-38.272-24.957c4.367,2.238,9.24,3.624,14.477,3.624c17.646,0,32-14.354,32-32
			c0-17.646-14.354-32-32-32s-32,14.354-32,32c0-17.646-14.354-32-32-32s-32,14.354-32,32c0,17.646,14.354,32,32,32
			c4.242,0,8.276-0.87,11.984-2.375c-11.138,9.507-24.831,18.051-35.948,23.708H64c-23.531,0-42.667,19.135-42.667,42.667v21.333
			c0,21.723,16.368,39.499,37.387,42.133L9.448,306.437C3.177,321.052,0,336.542,0,352.469c0,64.438,52.427,116.865,116.865,116.865
			h235.604c64.438,0,116.865-52.427,116.865-116.865C469.333,336.542,466.156,321.052,459.885,306.437z M233.983,72.802
			c4.689,4.609,9.79,8.772,14.898,12.531h-29.831C224.137,81.557,229.229,77.358,233.983,72.802z M394.667,128h-320
			C68.771,128,64,132.771,64,138.667v32c-11.76,0-21.333-9.573-21.333-21.333V128c0-11.76,9.573-21.333,21.333-21.333h341.333
			c11.76,0,21.333,9.573,21.333,21.333v21.333c0,11.76-9.573,21.333-21.333,21.333v-32C405.333,132.771,400.563,128,394.667,128z"/>
	</g>
</svg>
