<svg id="katman_1" data-name="katman 1" xmlns="http://www.w3.org/2000/svg" viewBox="0 0 512 512">
  <defs> 
    <linearGradient id="svg-gradient-rules" x1="0.5" y1="0" x2="0.5" y2="1">
      <stop offset="0%" stop-color="#ffffff" />                 
      <stop offset="100%" stop-color="#ffa0eb" />            
    </linearGradient>     
  </defs>  
  <g fill="url(#svg-gradient-rules) #ffa0eb">
    
    <path class="cls-1" d="M324.67,167.73A61.42,61.42,0,0,0,274,141.25H238.7A61.41,61.41,0,0,0,188,167.73l-2.29,79.45H318.14Z"/>
    <path class="cls-1" d="M165.78,167.73a61.41,61.41,0,0,0-50.67-26.48H79.8A61.79,61.79,0,0,0,18,203v26.48a17.71,17.71,0,0,0,17.66,17.66H97.46Z"/>
    <path class="cls-1" d="M415.24,247.18H477a17.71,17.71,0,0,0,17.66-17.66V203a61.79,61.79,0,0,0-61.79-61.79H397.59a61.41,61.41,0,0,0-50.67,26.48Z"/>
    <path class="cls-2" d="M147.42,35.5a53,53,0,1,0-46.87,70.35,51.32,51.32,0,0,0,26.39-8.91Z"/>
    <path class="cls-2" d="M306.31,35.5a52.91,52.91,0,0,0-99.92,0l20.48,61.44a52.4,52.4,0,0,0,32.57,8.91,51.31,51.31,0,0,0,26.39-8.91Z"/>
    <path class="cls-2" d="M385.76,96.94a52.42,52.42,0,0,0,32.57,8.91A53,53,0,1,0,365.28,35.5Z"/>
    <path class="cls-1" d="M229.77,76.37a53,53,0,1,1-56-49.78A53,53,0,0,1,229.77,76.37Z"/>
    <path class="cls-1" d="M388.67,76.37a53,53,0,1,1-56-49.78A53,53,0,0,1,388.67,76.37Z"/>
    <path class="cls-2" d="M318.14,167.73h35.31a61.79,61.79,0,0,1,61.79,61.79V256a17.66,17.66,0,0,1-17.66,17.66H274A17.66,17.66,0,0,1,256.35,256V229.52A61.79,61.79,0,0,1,318.14,167.73Z"/>
    <path class="cls-2" d="M203.38,273.66H238.7A17.7,17.7,0,0,0,256.35,256V229.52a61.79,61.79,0,0,0-61.79-61.79H159.25a61.79,61.79,0,0,0-61.79,61.79V256a17.71,17.71,0,0,0,17.66,17.66Z"/>

    <path class="cls-1" d="M236.49,512a77.2,77.2,0,0,1-62.76-32.21,467.83,467.83,0,0,0-47.81-58.49l-20.7-20.7a23,23,0,0,1-2.05-31.06,22,22,0,0,1,16.7-7.6,21.64,21.64,0,0,1,15.53,6.44l8.77,8.77a8.83,8.83,0,0,0,15.07-6.24V235.35a23,23,0,0,1,20.45-23.48,22.07,22.07,0,0,1,23.68,22.07v88.27a22.07,22.07,0,0,1,44.14,0V331a22.07,22.07,0,0,1,44.14,0v8.83a22.07,22.07,0,1,1,44.14,0v94.9A77.23,77.23,0,0,1,258.55,512Z"/>
  </g>
</svg>