<svg id="Layer" enable-background="new 8 8 48 48" viewBox="8 8 48 48" xmlns="http://www.w3.org/2000/svg">
  <defs>    
    <linearGradient id="svg-gradient3" x1="0" y1="0" x2="1" y2="1">
      <stop offset="0%" stop-color="#3bc0fa" /> 
      <stop offset="26%" stop-color="#3bc0fa" />            
      <stop offset="100%" stop-color="#810dd3" />            
    </linearGradient>    
  </defs>
  <g fill="url(#svg-gradient3) #3bc0fa">
    <path d="m52.97 12.652c-.146-.828-.794-1.476-1.622-1.622l-17-3c-1.087-.191-2.125.534-2.317 1.622s.534 2.125 1.622 2.317l13.218 2.332-22.371 22.371-9.086-9.086c-.78-.781-2.048-.781-2.828 0-.781.781-.781 2.047 0 2.828l9.086 9.086-13.086 13.086c-.781.781-.781 2.047 0 2.828.39.391.902.586 1.414.586s1.024-.195 1.414-.586l13.086-13.086 8.086 8.086c.39.391.902.586 1.414.586s1.024-.195 1.414-.586c.781-.781.781-2.047 0-2.828l-8.086-8.086 22.37-22.37 2.332 13.218c.172.97 1.015 1.652 1.968 1.652.115 0 .232-.01.35-.031 1.088-.192 1.814-1.229 1.622-2.317z"/>
  </g>
</svg>