<?xml version="1.0" encoding="utf-8"?>
<!-- Generator: Adobe Illustrator 21.0.0, SVG Export Plug-In . SVG Version: 6.00 Build 0)  -->
<svg version="1.1" id="katman_1" xmlns="http://www.w3.org/2000/svg" xmlns:xlink="http://www.w3.org/1999/xlink" x="0px" y="0px"
	 viewBox="0 0 140 175" style="enable-background:new 0 0 140 175;" xml:space="preserve">
<defs>
  <linearGradient id="adv-svg-gradient" x1="0" y1="0" x2="1" y2="1">
    <stop offset="0%" stop-color="#ffffff" /> 
    <stop offset="26%" stop-color="#ffffff" />            
    <stop offset="100%" stop-color="#ffa0eb" />            
  </linearGradient>
</defs>
<g fill="url(#adv-svg-gradient) #ffa0eb" >
	<path d="M125.8,30.9l-55.5-9.4l-0.5,0l-55.7,9.4c-0.9,0.2-1.6,1.1-1.6,2v60c0,14,9.6,28.5,28.6,43c8,6.2,17.8,12.3,27.6,17.2
		c0.2,0.1,0.3,0.1,0.4,0.2c0.4,0.3,0.8,0.3,1,0.3c0.2,0,0.6,0,1-0.3c0.1,0,0.2-0.1,0.4-0.2c9.8-4.9,19.6-11,27.6-17.2
		c18.9-14.4,28.5-28.9,28.5-43v-60C127.4,31.9,126.8,31.1,125.8,30.9z M16.5,34.6L70,25.5l53.4,9.1v58.3c0,28.7-48,53.6-53.5,56.4
		c-5.5-2.8-53.4-27.6-53.4-56.4V34.6z"/>
	<path d="M63.9,81.8L60.6,98c-0.2,0.8,0.1,1.3,0.3,1.6c0.4,0.5,0.9,0.8,1.6,0.8h14.8c0.7,0,1.1-0.4,1.2-0.6l0.1-0.1
		c0.5-0.5,0.6-1.1,0.5-1.8l-3.2-16.1c3.3-2.1,5.4-5.7,5.4-9.7c0-6.3-5.1-11.4-11.4-11.4c-6.3,0-11.4,5.1-11.4,11.4
		C58.5,76,60.5,79.7,63.9,81.8z M73,78.9c-0.9,0.4-1.4,1.2-1.2,2.2l3.1,15.3H65l3.1-15.3c0.2-0.8-0.3-1.8-1.2-2.3
		c-2.6-1.1-4.4-3.9-4.4-6.8c0-4.1,3.3-7.4,7.4-7.4c4.1,0,7.4,3.3,7.4,7.4C77.4,75,75.6,77.7,73,78.9z"/>
	<path d="M68.1,144.2c-0.2,0.5-0.1,1.1,0.2,1.7c0.4,0.6,1,0.9,1.7,0.9h0.6l0.2-0.1c0.7-0.3,16.9-8.3,31.2-21
		c0.8-0.8,0.9-2.1,0.1-2.8c-0.8-0.8-2.1-0.9-2.8-0.1c-13.4,11.8-28.6,19.5-30.2,20.3C68.6,143.3,68.2,143.7,68.1,144.2z"/>
	<path d="M20.5,57.2c-1.2,0-2,0.8-2,2v31c0,1.2,0.8,2,2,2c1.1,0,2-0.9,2-2v-31C22.5,58,21.7,57.2,20.5,57.2z"/>
</g>
</svg>
