<svg xmlns="http://www.w3.org/2000/svg" xmlns:xlink="http://www.w3.org/1999/xlink" viewBox="0 0 100.5 92.47"><defs><style>.cls-1{isolation:isolate;}.cls-2,.cls-3{mix-blend-mode:multiply;}.cls-2{fill:url(#Degradado_sin_nombre_124);}.cls-3{fill:url(#Degradado_sin_nombre_124-2);}.cls-4{fill:#fff;fill-rule:evenodd;}</style><linearGradient id="Degradado_sin_nombre_124" x1="-42.08" y1="24.52" x2="-38.7" y2="-97.06" gradientTransform="translate(19.33 5.45) rotate(-165.82)" gradientUnits="userSpaceOnUse"><stop offset="0" stop-color="#1a83c6"/><stop offset="0.54" stop-color="#32dadf"/><stop offset="1" stop-color="#30edef"/></linearGradient><linearGradient id="Degradado_sin_nombre_124-2" x1="-22.74" y1="-78.32" x2="-23.02" y2="16.81" gradientTransform="translate(38.4 3.22) rotate(-157.57)" xlink:href="#Degradado_sin_nombre_124"/></defs><title>tw</title><g class="cls-1"><g id="OBJECTS"><path class="cls-2" d="M17.3,5.16A18.54,18.54,0,0,1,38.89,2.21c5,2.83,8.39,7.87,13.18,11.05,5.6,3.73,12.6,4.58,19.32,5.16,8.42.72,17.22,1.29,24,7.19a14.46,14.46,0,0,1,5.11,10c.46,8.45-7,13.18-13.7,16.66-5.78,3-12.17,6.34-14.36,12.46-1.3,3.63-.87,7.63-1.53,11.43a19.68,19.68,0,0,1-24.1,15.77c-.8-.19-1.61-.38-2.42-.51A25.64,25.64,0,0,1,22.82,66.08c0-8.87,4.46-18.13,1-26.3-2.12-4.95-6.8-8.34-9.44-13A18.54,18.54,0,0,1,17.3,5.16Z"/><path class="cls-3" d="M85,62.82c-5,1.76-10.44,2.07-15.22,4.35-8.49,4-13.52,13.62-22.33,16.91A18.57,18.57,0,0,1,25.2,75.49c-2.48-4.8-2.71-10.56-5.42-15.23-3.84-6.65-11.86-9.81-16.35-16A19.38,19.38,0,0,1,3.55,22a19.4,19.4,0,0,1,21.18-6.68c5.64,1.91,10.38,6.45,16.3,7,5.39.49,10.46-2.48,14.79-5.72s8.56-7,13.81-8.31c8.66-2.17,18,1.27,15.52,13.05-.69,3.23-2.29,6.32-2.22,9.63.21,8.15,11.68,12.58,11.83,20.74C94.88,57,90,61.06,85,62.82Z"/><path class="cls-4" d="M78.5,31.52a22.1,22.1,0,0,1-5.95,1.62,10.23,10.23,0,0,0,4.58-5.68A21.13,21.13,0,0,1,70.52,30a10.42,10.42,0,0,0-18,7,10.67,10.67,0,0,0,.3,2.33A29.44,29.44,0,0,1,31.48,28.58a10.08,10.08,0,0,0,3.18,13.63A10,10,0,0,1,30,40.95v.14a9.66,9.66,0,0,0,.71,3.67,10.34,10.34,0,0,0,7.62,6.31,10.19,10.19,0,0,1-2.74.38,9.26,9.26,0,0,1-1.95-.22,10.46,10.46,0,0,0,9.68,7.13,21,21,0,0,1-12.86,4.36c-.85,0-1.64-.06-2.49-.14a29.94,29.94,0,0,0,15.9,4.58c16.2,0,26.21-11.21,28.82-22.87a28.06,28.06,0,0,0,.69-6.17V36.81a21.45,21.45,0,0,0,5.16-5.29Z"/></g></g></svg>