<svg xmlns="http://www.w3.org/2000/svg" xmlns:xlink="http://www.w3.org/1999/xlink" viewBox="0 0 94.78 92.99"><defs><style>.cls-1{isolation:isolate;}.cls-2,.cls-3{mix-blend-mode:multiply;}.cls-2{fill:url(#Degradado_sin_nombre_85);}.cls-3{fill:url(#Degradado_sin_nombre_85-2);}.cls-4{fill:#fff;fill-rule:evenodd;}</style><linearGradient id="Degradado_sin_nombre_85" x1="-127.18" y1="18.53" x2="-40.18" y2="18.53" gradientTransform="matrix(0.88, -0.47, 0.47, 0.88, 116.72, -2.35)" gradientUnits="userSpaceOnUse"><stop offset="0" stop-color="#692237"/><stop offset="0.54" stop-color="#ff2828"/><stop offset="1" stop-color="#ff9c58"/></linearGradient><linearGradient id="Degradado_sin_nombre_85-2" x1="15.86" y1="-52.47" x2="15.58" y2="42.66" gradientTransform="translate(64.22 46.59) rotate(-157.57)" xlink:href="#Degradado_sin_nombre_85"/></defs><title>ytube</title><g class="cls-1"><g id="OBJECTS"><path class="cls-2" d="M85.93,88.41a18.47,18.47,0,0,1-21.62,2c-4.86-3-8-8.2-12.62-11.59-5.41-4-12.33-5.12-19-6-8.35-1.09-17.08-2.05-23.53-8.22A14.4,14.4,0,0,1,4.53,54.42C4.44,46,12,41.62,18.9,38.46c5.88-2.71,12.39-5.76,14.84-11.75,1.46-3.55,1.21-7.55,2-11.3A19.6,19.6,0,0,1,60.46.78c.79.23,1.58.44,2.39.62a25.54,25.54,0,0,1,20.3,26.15c-.37,8.83-5.24,17.85-2.13,26.12,1.89,5,6.39,8.6,8.81,13.39A18.46,18.46,0,0,1,85.93,88.41Z"/><path class="cls-3" d="M85,67.57c-5,1.76-10.44,2.07-15.22,4.35-8.49,4-13.52,13.62-22.33,16.91A18.57,18.57,0,0,1,25.2,80.24c-2.48-4.8-2.71-10.56-5.42-15.23C15.94,58.37,7.92,55.2,3.43,49a19.38,19.38,0,0,1,.12-22.2,19.4,19.4,0,0,1,21.18-6.68c5.64,1.91,10.38,6.45,16.3,7,5.39.49,10.46-2.48,14.79-5.72s8.56-7,13.81-8.31c8.66-2.17,18,1.27,15.52,13.05-.69,3.23-2.29,6.32-2.22,9.63.21,8.15,11.68,12.58,11.83,20.74C94.88,61.74,90,65.82,85,67.57Z"/><path class="cls-4" d="M74.1,40.6s-.52-3.65-2-5.24a7.24,7.24,0,0,0-5-2.25c-7.07-.52-17.68-.52-17.68-.52h-.06s-10.58,0-17.66.52a7.21,7.21,0,0,0-5.07,2.25c-1.51,1.59-2,5.24-2,5.24A80.53,80.53,0,0,0,24,49.1v4a79.19,79.19,0,0,0,.52,8.5s.52,3.65,2,5.26c1.92,2.11,4.44,2,5.59,2.25,4,.41,17.19.55,17.19.55S60,69.64,67,69.14a7.12,7.12,0,0,0,5-2.25c1.51-1.62,2-5.26,2-5.26a83.81,83.81,0,0,0,.49-8.5v-4c0-4.22-.49-8.5-.49-8.5Zm-16.34,10L44.08,58V43.15l6.2,3.37Z"/></g></g></svg>