<?xml version="1.0" encoding="iso-8859-1"?>
<!-- Generator: Adobe Illustrator 19.0.0, SVG Export Plug-In . SVG Version: 6.00 Build 0)  -->
<svg version="1.1" id="Layer_1" xmlns="http://www.w3.org/2000/svg" xmlns:xlink="http://www.w3.org/1999/xlink" x="0px" y="0px"
	 viewBox="0 0 502 502" style="enable-background:new 0 0 502 502;" xml:space="preserve">
<g>
	<g>
		<g>
			<path d="M464.861,0H385.14C364.661,0,348,16.66,348,37.139s16.661,37.14,37.14,37.14h42.58v42.581
				c0,20.479,16.661,37.14,37.14,37.14S502,137.339,502,116.861V37.14C502,16.661,485.339,0,464.861,0z M482,116.86
				c0,9.451-7.688,17.141-17.139,17.141c-9.451,0-17.14-7.689-17.14-17.14V64.28c0-5.523-4.477-10-10-10H385.14
				c-9.451,0-17.14-7.689-17.14-17.14S375.689,20,385.14,20h79.72c9.451,0,17.14,7.689,17.14,17.14V116.86z"/>
			<path d="M37.14,154c20.479,0,37.139-16.661,37.139-37.139V74.28h42.581c20.479,0,37.14-16.661,37.14-37.14S137.339,0,116.861,0
				H37.14C16.661,0,0,16.661,0,37.14v79.72C0,137.339,16.661,154,37.14,154z M20,37.14C20,27.689,27.689,20,37.14,20h79.72
				c9.451,0,17.141,7.688,17.141,17.139c0,9.451-7.689,17.14-17.14,17.14H64.28c-5.523,0-10,4.477-10,10v52.582
				c0,9.451-7.689,17.14-17.14,17.14S20,126.312,20,116.861V37.14z"/>
			<path d="M464.861,348c-20.479,0-37.14,16.661-37.14,37.14v42.58H385.14c-20.479,0-37.14,16.661-37.14,37.14
				S364.661,502,385.14,502h79.72c20.479,0,37.14-16.661,37.14-37.139V385.14C502,364.661,485.34,348,464.861,348z M482.001,464.86
				c0,9.451-7.689,17.14-17.14,17.14H385.14c-9.451,0-17.14-7.688-17.14-17.139c0-9.451,7.689-17.14,17.14-17.14h52.581
				c5.523,0,10-4.477,10-10V385.14c0-9.451,7.689-17.14,17.14-17.14c9.451,0,17.14,7.689,17.14,17.14V464.86z"/>
			<path d="M116.861,427.721H74.28V385.14c0-20.479-16.661-37.14-37.14-37.14S0,364.661,0,385.14v79.72
				C0,485.339,16.661,502,37.14,502h79.72c20.479,0,37.141-16.66,37.141-37.139S137.34,427.721,116.861,427.721z M116.861,482.001
				H37.14c-9.451,0-17.14-7.689-17.14-17.14V385.14c0-9.451,7.689-17.14,17.14-17.14c9.45,0,17.139,7.689,17.139,17.14v52.581
				c0,5.523,4.477,10,10,10h52.582c9.451,0,17.14,7.689,17.14,17.14C134.001,474.312,126.312,482.001,116.861,482.001z"/>
			<path d="M251,177.5c-5.523,0-10,4.477-10,10v127c0,5.523,4.477,10,10,10s10-4.477,10-10v-127
				C261,181.977,256.523,177.5,251,177.5z"/>
			<path d="M314.5,241H283c-5.523,0-10,4.477-10,10s4.477,10,10,10h31.5c5.523,0,10-4.477,10-10S320.023,241,314.5,241z"/>
			<path d="M219,241h-31.5c-5.523,0-10,4.477-10,10s4.477,10,10,10H219c5.523,0,10-4.477,10-10S224.523,241,219,241z"/>
		</g>
	</g>
</g>
<g>
</g>
<g>
</g>
<g>
</g>
<g>
</g>
<g>
</g>
<g>
</g>
<g>
</g>
<g>
</g>
<g>
</g>
<g>
</g>
<g>
</g>
<g>
</g>
<g>
</g>
<g>
</g>
<g>
</g>
</svg>
