<svg xmlns="http://www.w3.org/2000/svg" width="24" height="24" viewBox="0 0 24 24">
    <path fill="#515557" fill-rule="evenodd" d="M16 10.833c1.65 0 3-1.312 3-2.916C19 6.313 17.65 5 16 5s-3 1.313-3 2.917c0 1.604 1.35 2.916 3 2.916zm-8 0c1.65 0 3-1.312 3-2.916C11 6.313 9.65 5 8 5S5 6.313 5 7.917c0 1.604 1.35 2.916 3 2.916zm0 2.14c-2.35 0-7 1.117-7 3.402V19h14.143v-2.625c0-2.285-4.793-3.403-7.143-3.403zm8 .534c-.3 0-.507 0-.857.049 1.15.826 1.571 1.36 1.571 2.819V19H23v-2.625c0-2.285-4.65-2.868-7-2.868z"/>
</svg>
