<svg xmlns="http://www.w3.org/2000/svg" width="24" height="24" viewBox="0 0 24 24">
    <path fill="#ffffff" fill-rule="evenodd" d="M12.5 4A8.499 8.499 0 0 0 4 12.5c0 4.695 3.805 8.5 8.5 8.5s8.5-3.805 8.5-8.5S17.195 4 12.5 4zm4.45 6.065l-5.584 5.702h-.004c-.07.072-.263.233-.484.233-.159 0-.339-.09-.489-.242L8.05 13.381a.171.171 0 0 1 0-.242l.744-.756a.164.164 0 0 1 .117-.05c.041 0 .083.016.116.05l1.855 1.885 5.096-5.217A.164.164 0 0 1 16.095 9a.15.15 0 0 1 .117.05l.73.77a.17.17 0 0 1 .009.245z"/>
</svg>
