<svg xmlns="http://www.w3.org/2000/svg" width="24" height="24" viewBox="0 0 24 24">
    <path fill="#515557" fill-rule="evenodd" d="M19.503 16.5c-.61-.612-2.078-1.53-2.801-1.875-.84-.403-1.147-.395-1.741.033-.495.358-.815.69-1.384.565-.57-.12-1.692-.972-2.78-2.057-1.09-1.089-1.937-2.21-2.058-2.78-.12-.573.212-.89.566-1.384.428-.594.44-.902.033-1.741-.345-.727-1.26-2.19-1.874-2.801-.611-.611-.748-.478-1.085-.358 0 0-.499.2-.993.528-.611.407-.952.748-1.193 1.26-.237.51-.511 1.462.885 3.947 1.126 2.008 2.232 3.529 3.873 5.166l.005.004.004.005c1.641 1.641 3.158 2.747 5.165 3.873 2.486 1.396 3.437 1.122 3.948.885.512-.237.852-.578 1.26-1.193.328-.494.527-.993.527-.993.121-.337.258-.474-.357-1.085z"/>
</svg>
