<svg xmlns="http://www.w3.org/2000/svg" width="24" height="24" viewBox="0 0 24 24">
    <path fill="#515557" fill-rule="evenodd" d="M12.5 15.846c-1.76 0-3.2-1.384-3.2-3.077V5.077C9.3 3.385 10.74 2 12.5 2c1.76 0 3.2 1.385 3.2 3.077v7.692c0 1.693-1.44 3.077-3.2 3.077zm4.8-6.923c.385 0 .7.303.7.673v3.317c0 2.688-2.095 4.914-4.8 5.246v2.495H15c.385 0 .7.303.7.673 0 .37-.315.673-.7.673h-5c-.385 0-.7-.303-.7-.673 0-.37.315-.673.7-.673h1.8v-2.495C9.095 17.827 7 15.6 7 12.913V9.596c0-.37.315-.673.7-.673.385 0 .7.303.7.673v3.317c0 2.174 1.84 3.943 4.1 3.943s4.1-1.77 4.1-3.943V9.596c0-.37.315-.673.7-.673z"/>
</svg>
