<svg version="1.0" xmlns="http://www.w3.org/2000/svg" width="561.333" height="561.333" viewBox="0 0 421 421"><path d="M192.9 16.4c-.2.2-3.5.7-7.4 1-17 1.7-46.5 9-56.5 14.1-11.6 5.9-13 12.9-4 18.9 4.2 2.7 18.9 7.9 26 9.2 2.5.4 4.7.8 5 .9.3.1 3.2.5 6.5.9 3.3.5 6.9 1 8 1.2 4.4.8 23.8 1.8 36 1.8 33.8-.1 65.1-4.8 80.9-12.3 6.7-3.2 11.6-7.9 11.6-11.1 0-3.2-4.9-7.8-11.5-11-7-3.4-28.9-9.2-41.2-11-4.3-.6-8.9-1.4-10.3-1.6-3.1-.6-42.5-1.5-43.1-1zm28.4 4.1c12.8.6 15.5 1 23.7 3.2 13.7 3.8 16.5 9.5 6.8 14.2-10 4.7-22.2 6.6-44.8 6.6-28.2 0-47-4.7-47-11.6 0-6.1 14.7-10.8 38.4-12.5 4.5-.3 8.3-.7 8.4-.9.2-.2.9-.2 1.5 0 .7.2 6.5.6 13 1zm134.2 50c1.5 3.8 1.7 7.6.5 10.6-5.3 12.6-40 24.9-86 30.4-3 .4-6.6.8-8 1-1.4.2-6.8.6-12 1s-11.1.9-13 1.1c-6.5.6-54.4.6-63 0-12.2-.8-29.6-2.4-34-3.1-4.6-.7-11.5-1.7-13-2-.8-.1-3.5-.6-6-1s-9-1.8-14.5-3.1c-33.6-7.9-50-19.6-44.1-31.6 1.5-3 1.2-2.8-4 2.2-3.1 3-7.1 7-8.8 8.9-1.7 1.9-3.5 3.9-4.1 4.5-12.7 14-14.1 20.8-5.9 29 11 11 39.6 21.2 72.9 26.1 3.7.5 5.3.7 13 2 1.7.2 5.9.8 9.5 1.1 3.6.4 7.9.8 9.5 1 1.7.1 7.5.6 13 .9 5.5.4 11.6.9 13.5 1.1 4.3.5 60.6.4 67.5-.1 2.8-.2 9.1-.6 14-.9 14.6-1 25.6-2.2 46.5-5.2 11.6-1.7 35.4-7.2 46.7-10.9 24.7-8.1 36.8-16.5 38.7-26.9.7-4.1-.8-7.1-7.8-15.5-7.7-9.2-22.3-23.4-21.1-20.6zm58.5 92.9c0 4.4-4.6 12.1-10.2 17-11 9.6-40.7 21-65.8 25.1-1.9.3-5.1 1-7 1.5-1.9.5-6.2 1.1-9.5 1.5-3.2.4-6.2.8-6.5 1-.8.5-19.3 2.7-33.5 4-4.4.4-9.6.9-11.5 1-25.8 2.6-95 2.5-123.5 0-9.9-.9-17.3-1.6-20.5-2-1.9-.3-7.5-.9-12.5-1.5-9.5-1.2-14.4-1.8-18.5-2.6-1.4-.2-4.1-.7-6-1-21.5-3.5-48.4-11.5-61.7-18.3-9-4.6-20.3-16.5-20.3-21.3 0-3.5-1.7-.9-2.8 4.4-2.3 10.4-3.1 17.1-3.7 27.7-.3 7-.1 9 1.7 12.4 1.1 2.3 3 4.9 4.2 5.8 1.1.9 3.4 2.8 5 4.2 4.3 3.7 16.4 9.5 28.2 13.5 13.3 4.5 40.6 11 57.4 13.6 6.8 1 27.6 3.6 34 4.1 3.6.4 8.5.8 10.9 1.1 26.3 2.6 106.6 2.5 126.6-.1 1.7-.2 6.6-.7 11-1 4.4-.4 9.4-.8 11-1 1.7-.3 8.6-1.1 15.5-2 12.1-1.5 14.7-1.9 20-3 1.4-.3 5.2-1 8.5-1.6 12.4-2.2 31.5-6.9 42.1-10.4 30.8-10.2 46-23.4 44-38.1-.3-2.1-.8-6.6-1.1-9.9-.6-6-4.4-25.6-5.1-26.4-.2-.2-.4.8-.4 2.3zm-8.6 115.1c-13.9 17.1-70.5 33.2-133.4 38.1-4.1.3-8.6.7-10 1-14 2.2-90.2 2.2-113-.1-1.9-.2-6.9-.6-11-1-6.1-.5-24.2-2.6-33.5-4-12.5-1.7-30.5-5.6-43.5-9.2-19.9-5.6-36.1-13.3-43.1-20.6-4.6-4.7-4.4-3.8 1.9 9.1 5.4 10.9 12.3 21.3 16.9 25.7 11.5 10.9 54.2 23.7 92.8 27.9 2.8.3 6.8.8 9 1 18.2 2.2 37.4 3.1 65.5 3 23 0 50-.9 56.1-1.9 1.3-.2 5.8-.6 9.9-1 16.3-1.5 23.7-2.5 36-4.5 3-.5 7.1-1.2 9-1.5 19.6-3.2 48.7-12.1 60-18.3 12.8-7.1 17.8-13.2 28-34.9 2.3-4.8 4.6-9.6 5.1-10.6 1.5-2.7.4-2-2.7 1.8zM329.9 368c-1.9 1.1-18.2 6.6-21.9 7.4-1.4.3-5.6 1.2-9.3 2.1-3.7.8-8.2 1.7-10 2-1.8.3-5.8 1-8.9 1.6-3.2.5-7.9 1.2-10.5 1.5-2.7.2-6.4.6-8.3.9-23.7 2.7-84.3 2.8-104.2.1-1.8-.3-5.5-.8-8.3-1.1-17.3-2-38.1-6.6-50.2-11.1-3.5-1.3-6.3-2.2-6.3-2 0 .8 14.5 8.9 22.8 12.7 20.9 9.7 39.8 15.8 56.5 18.3 2 .3 5.3.9 7.2 1.2 12.4 2 39.3 2.4 53.5.9 7.6-.8 24.4-3.3 26.2-4 .7-.2 2.5-.6 3.9-.9 3.3-.5 17.5-4.5 20.3-5.7 1.2-.4 6.4-2.5 11.6-4.5 13.1-5.2 38-18.3 38-20 0-.6-.3-.5-2.1.6z"/></svg>