<?xml version="1.0" encoding="UTF-8"?>
<svg width="25px" height="24px" viewBox="0 0 25 24" version="1.1" xmlns="http://www.w3.org/2000/svg" xmlns:xlink="http://www.w3.org/1999/xlink">
    <!-- Generator: sketchtool 54.1 (76490) - https://sketchapp.com -->
    <title>3709E841-E5C8-4DD1-BAF1-FBF175818131</title>
    <desc>Created with sketchtool.</desc>
    <defs>
        <radialGradient cx="32.9351254%" cy="22.4100935%" fx="32.9351254%" fy="22.4100935%" r="78.1307812%" gradientTransform="translate(0.329351,0.224101),scale(0.972727,1.000000),translate(-0.329351,-0.224101)" id="radialGradient-1">
            <stop stop-color="#423325" stop-opacity="0.98" offset="0%"></stop>
            <stop stop-color="#1C0A00" offset="100%"></stop>
        </radialGradient>
    </defs>
    <g id="Desktop" stroke="none" stroke-width="1" fill="none" fill-rule="evenodd">
        <g id="Home-v2" transform="translate(-1067.000000, -3707.000000)" fill-rule="nonzero">
            <g id="Group-6" transform="translate(1064.000000, 3627.000000)">
                <g id="adobe-illustrator-cc" transform="translate(3.000000, 80.000000)">
                    <polygon id="Path" fill="url(#radialGradient-1)" points="1.02280412 1.05356701 23.5248247 1.05356701 23.5248247 22.9418969 1.02280412 22.9418969"></polygon>
                    <path d="M1.02280412,1.05356701 L23.5248247,1.05356701 L23.5248247,22.9418969 L1.02280412,22.9418969 L1.02280412,1.05356701 Z M0,23.9647423 L24.5476289,23.9647423 L24.5476289,0.0307628866 L0,0.0307628866 L0,23.9647423 Z M16.0786804,8.56107216 C16.0786804,8.47925773 16.1093608,8.43830928 16.2014433,8.43830928 L17.8072577,8.43830928 C17.8890309,8.43830928 17.9299794,8.46898969 17.9299794,8.56107216 L17.9299794,16.631134 C17.9299794,16.7129072 17.9095258,16.7538557 17.8072577,16.7538557 L16.2218969,16.7538557 C16.1196289,16.7538557 16.0889072,16.7027216 16.0889072,16.6209072 L16.0889072,8.56107216 L16.0786804,8.56107216 Z M15.9661856,6.23925773 C15.9661856,5.58465979 16.426433,5.196 17.0094845,5.196 C17.6334021,5.196 18.0527423,5.61534021 18.0527423,6.23925773 C18.0527423,6.91430928 17.6129485,7.28251546 16.9890309,7.28251546 C16.3957526,7.2825567 15.9661856,6.91430928 15.9661856,6.23925773 Z M11.3635052,11.9261443 C11.0771546,10.7908041 10.4021031,8.31558763 10.1463505,7.1188866 L10.1258969,7.1188866 C9.91109278,8.31558763 9.36903093,10.3407423 8.93946392,11.9261443 L11.3635052,11.9261443 L11.3635052,11.9261443 Z M8.52008247,13.583134 L7.71204124,16.6515876 C7.69158763,16.7333608 7.66090722,16.7538144 7.55863918,16.7538144 L6.05509278,16.7538144 C5.95282474,16.7538144 5.9323299,16.723134 5.95282474,16.6004124 L8.85760825,6.43356701 C8.90874227,6.24948454 8.93942268,6.08581443 8.95987629,5.58465979 C8.95987629,5.51307216 8.9905567,5.48239175 9.04169072,5.48239175 L11.1896082,5.48239175 C11.2611959,5.48239175 11.2918763,5.50284536 11.3123711,5.58465979 L14.5649072,16.620866 C14.5853608,16.7026392 14.5649072,16.7538144 14.4830928,16.7538144 L12.7851959,16.7538144 C12.7033814,16.7538144 12.6522062,16.7333608 12.6317938,16.6618144 L11.7930722,13.583134 L8.52008247,13.583134 L8.52008247,13.583134 Z" id="Shape" fill="#FF7F18"></path>
                </g>
            </g>
        </g>
    </g>
</svg>