<?xml version="1.0" encoding="UTF-8"?>
<svg width="24px" height="24px" viewBox="0 0 24 24" version="1.1" xmlns="http://www.w3.org/2000/svg" xmlns:xlink="http://www.w3.org/1999/xlink">
    <!-- Generator: sketchtool 54.1 (76490) - https://sketchapp.com -->
    <title>6E8CEB0B-6ABF-444B-BEB1-E665811FF99B</title>
    <desc>Created with sketchtool.</desc>
    <g id="Desktop" stroke="none" stroke-width="1" fill="none" fill-rule="evenodd">
        <g id="Home-v2" transform="translate(-1067.000000, -3867.000000)" fill-rule="nonzero">
            <g id="Group-6" transform="translate(1064.000000, 3627.000000)">
                <g id="invision" transform="translate(3.000000, 240.000000)">
                    <path d="M21.8243438,0 L2.17565625,0 C0.9740625,0 0,0.9740625 0,2.17565625 L0,21.8243438 C0,23.0259375 0.9740625,24 2.17565625,24 L21.8243438,24 C23.0259375,24 24,23.0259375 24,21.8243438 L24,2.17565625 C24,0.9740625 23.0259375,0 21.8243438,0" id="Path" fill="#DC395F"></path>
                    <path d="M8.02078125,7.55109375 C8.81859375,7.55109375 9.4869375,6.92578125 9.4869375,6.10621875 C9.4869375,5.28721875 8.81859375,4.662 8.02078125,4.662 C7.22296875,4.662 6.5548125,5.28721875 6.5548125,6.10621875 C6.5548125,6.9256875 7.22296875,7.55109375 8.02078125,7.55109375 M4.98084375,15.2873437 C4.8946875,15.6539063 4.85146875,16.0497188 4.85146875,16.3725938 C4.85146875,17.644875 5.541375,18.4894688 7.00753125,18.4894688 C8.22346875,18.4894688 9.20925,17.7674063 9.91903125,16.6014375 L9.485625,18.3407812 L11.9001562,18.3407812 L13.2801562,12.805875 C13.6251562,11.4045 14.2935,10.6770938 15.3069375,10.6770938 C16.1046562,10.6770938 16.6005,11.1732188 16.6005,11.9922188 C16.6005,12.2295 16.5789375,12.4879688 16.4926875,12.768375 L15.781125,15.3124688 C15.6733125,15.6790313 15.630375,16.0457813 15.630375,16.3905 C15.630375,17.5982813 16.3416562,18.4816875 17.829375,18.4816875 C19.1014687,18.4816875 20.1147187,17.6627813 20.6753437,15.7006875 L19.7267812,15.3345 C19.2524062,16.6489688 18.8427187,16.886625 18.5192812,16.886625 C18.1958437,16.886625 18.0233437,16.6711875 18.0233437,16.2402188 C18.0233437,16.0461563 18.0666562,15.8308125 18.1311562,15.5715 L18.82125,13.0929375 C18.9936562,12.5109375 19.0584375,11.9948438 19.0584375,11.5206563 C19.0584375,9.66646875 17.9371875,8.69878125 16.5789375,8.69878125 C15.3069375,8.69878125 14.0131875,9.8461875 13.3665,11.0537813 L13.8406875,8.88628125 L10.1540625,8.88628125 L9.6365625,10.7954063 L11.3614687,10.7954063 L10.2992812,15.0479063 C9.4651875,16.9020938 7.93303125,16.9321875 7.74075,16.8891562 C7.425,16.8179063 7.2230625,16.698 7.2230625,16.28775 C7.2230625,16.0510313 7.2661875,15.711 7.374,15.3010313 L8.9911875,8.88628125 L4.8946875,8.88628125 L4.3771875,10.7954063 L6.08034375,10.7954063 L4.9809375,15.2873437" id="Shape" fill="#FFFFFF"></path>
                </g>
            </g>
        </g>
    </g>
</svg>