<?xml version="1.0" encoding="UTF-8"?>
<svg width="25px" height="24px" viewBox="0 0 25 24" version="1.1" xmlns="http://www.w3.org/2000/svg" xmlns:xlink="http://www.w3.org/1999/xlink">
    <!-- Generator: sketchtool 54.1 (76490) - https://sketchapp.com -->
    <title>00B6316B-5F8A-4993-8389-AD3DC25BF2B6</title>
    <desc>Created with sketchtool.</desc>
    <g id="Desktop" stroke="none" stroke-width="1" fill="none" fill-rule="evenodd">
        <g id="Home-v2" transform="translate(-620.000000, -3747.000000)" fill-rule="nonzero">
            <g id="Group-5" transform="translate(616.000000, 3627.000000)">
                <g id="javascript" transform="translate(4.000000, 120.000000)">
                    <polygon id="Path" fill="#F7DF1E" points="0.0289855072 0 24.0289855 0 24.0289855 24 0.0289855072 24"></polygon>
                    <path d="M6.33948551,20.056125 L8.17604801,18.944625 C8.53042301,19.5728437 8.85273551,20.1044062 9.62589176,20.1044062 C10.3669855,20.1044062 10.8343293,19.8145312 10.8343293,18.6869062 L10.8343293,11.0183437 L13.089673,11.0183437 L13.089673,18.7187812 C13.089673,21.05475 11.7203605,22.1180625 9.72254801,22.1180625 C7.91832926,22.1180625 6.87104801,21.1836562 6.33939176,20.0559375 M14.3147043,19.8144375 L16.1510793,18.7512187 C16.634548,19.5406875 17.2628605,20.120625 18.3743605,20.120625 C19.3089543,20.120625 19.9048293,19.653375 19.9048293,19.0089375 C19.9048293,18.2356875 19.2926418,17.96175 18.2615793,17.5108125 L17.6978605,17.2689375 C16.0706418,16.5764062 14.991298,15.7064062 14.991298,13.8698437 C14.991298,12.1782187 16.2800793,10.8893437 18.293923,10.8893437 C19.7277355,10.8893437 20.758798,11.3888437 21.499798,12.69375 L19.743673,13.8215625 C19.3569543,13.1288437 18.9382668,12.855 18.2938293,12.855 C17.6332668,12.855 17.2143918,13.273875 17.2143918,13.8215625 C17.2143918,14.4981562 17.6332668,14.7721875 18.5998293,15.1910625 L19.1636418,15.4326562 C21.0808293,16.254375 22.160173,17.0920312 22.160173,18.9767812 C22.160173,21.0068437 20.565298,22.1183437 18.4226418,22.1183437 C16.3283605,22.1183437 14.9750793,21.1195312 14.3146105,19.8145312" id="Shape" fill="#000000"></path>
                </g>
            </g>
        </g>
    </g>
</svg>