<?xml version="1.0" encoding="UTF-8"?>
<svg width="18px" height="13px" viewBox="0 0 18 13" version="1.1" xmlns="http://www.w3.org/2000/svg" xmlns:xlink="http://www.w3.org/1999/xlink">
    <!-- Generator: sketchtool 54.1 (76490) - https://sketchapp.com -->
    <title>D628E2A6-FFCB-4D0E-A9D1-34222E645133</title>
    <desc>Created with sketchtool.</desc>
    <g id="Desktop" stroke="none" stroke-width="1" fill="none" fill-rule="evenodd">
        <g id="Home-One-Speciality" transform="translate(-56.000000, -50.000000)" fill="#C06C2E" fill-rule="nonzero">
            <path d="M62.14725,50.14625 C62.34225,49.95125 62.65925,49.95125 62.85425,50.14625 C63.04925,50.34125 63.04925,50.65825 62.85425,50.85325 L57.70825,55.99925 L73.5026299,55.999125 C73.7786299,55.999125 74.0026299,56.223125 74.0026299,56.499125 C74.0026299,56.775125 73.7786299,56.999125 73.5026299,56.999125 L57.70825,56.99925 L62.85425,62.14525 C63.04925,62.34025 63.04925,62.65725 62.85425,62.85225 C62.75625,62.95025 62.62825,62.99825 62.50025,62.99825 C62.37225,62.99825 62.24425,62.94925 62.14625,62.85225 L56.14625,56.85225 C55.95125,56.65725 55.95125,56.34025 56.14625,56.14525 L62.14725,50.14625 Z" id="Path"></path>
        </g>
    </g>
</svg>