<svg width="25" height="24" xmlns="http://www.w3.org/2000/svg"><defs><radialGradient cx="32.935%" cy="22.41%" fx="32.935%" fy="22.41%" r="78.131%" gradientTransform="matrix(.97273 0 0 1 .009 0)" id="a"><stop stop-color="#34364E" stop-opacity=".98" offset="0%"/><stop stop-color="#0C0824" offset="100%"/></radialGradient></defs><g fill="none"><path fill="url(#a)" d="M1.023 1.054h22.502v21.888H1.023z"/><path d="M1.023 1.054h22.502v21.888H1.023V1.054zM0 23.964h24.548V.032H0v23.934zM16.55 9.85c-.809 0-1.085.409-1.085.746 0 .369.184.624 1.268 1.187 1.606.777 2.107 1.524 2.107 2.618 0 1.637-1.248 2.516-2.935 2.516-.89 0-1.657-.184-2.097-.44-.072-.03-.082-.081-.082-.163V14.81c0-.102.051-.133.123-.081.644.419 1.38.603 2.056.603.808 0 1.145-.337 1.145-.798 0-.368-.235-.695-1.268-1.227-1.452-.696-2.056-1.401-2.056-2.578 0-1.319 1.033-2.413 2.823-2.413.88 0 1.494.133 1.831.286.082.051.102.133.102.205v1.4c0 .083-.05.134-.153.103-.45-.286-1.115-.46-1.78-.46zm-8.797 1.217c.235.02.42.02.828.02 1.197 0 2.322-.419 2.322-2.045 0-1.3-.808-1.954-2.168-1.954-.41 0-.798.02-.982.03v3.949zm-1.82-5.431c0-.072.143-.123.224-.123.655-.03 1.627-.051 2.64-.051 2.832 0 3.937 1.555 3.937 3.539 0 2.598-1.882 3.713-4.193 3.713-.39 0-.522-.02-.798-.02v3.927c0 .082-.031.123-.123.123H6.055c-.082 0-.123-.031-.123-.123V5.636z" fill="#31C5F0"/></g></svg>