<?xml version="1.0" encoding="UTF-8"?>
<svg width="25px" height="24px" viewBox="0 0 25 24" version="1.1" xmlns="http://www.w3.org/2000/svg" xmlns:xlink="http://www.w3.org/1999/xlink">
    <!-- Generator: sketchtool 54.1 (76490) - https://sketchapp.com -->
    <title>5A02BD28-91B6-4FDA-ADF2-3F5652CCF9C9</title>
    <desc>Created with sketchtool.</desc>
    <defs>
        <radialGradient cx="32.9351254%" cy="22.4100935%" fx="32.9351254%" fy="22.4100935%" r="78.1307812%" gradientTransform="translate(0.329351,0.224101),scale(0.972727,1.000000),translate(-0.329351,-0.224101)" id="radialGradient-1">
            <stop stop-color="#34364E" stop-opacity="0.98" offset="0%"></stop>
            <stop stop-color="#0C0824" offset="100%"></stop>
        </radialGradient>
    </defs>
    <g id="Desktop" stroke="none" stroke-width="1" fill="none" fill-rule="evenodd">
        <g id="Home-v2" transform="translate(-1067.000000, -3747.000000)" fill-rule="nonzero">
            <g id="Group-6" transform="translate(1064.000000, 3627.000000)">
                <g id="photoshop-cc-copy-2" transform="translate(3.000000, 120.000000)">
                    <polygon id="Path" fill="url(#radialGradient-1)" points="1.02280412 1.05356701 23.5248247 1.05356701 23.5248247 22.9418969 1.02280412 22.9418969"></polygon>
                    <path d="M1.02280412,1.05356701 L23.5248247,1.05356701 L23.5248247,22.9418969 L1.02280412,22.9418969 L1.02280412,1.05356701 Z M0,23.9647423 L24.5476289,23.9647423 L24.5476289,0.0307628866 L0,0.0307628866 L0,23.9647423 Z M16.5491959,9.84981443 C15.7411546,9.84981443 15.4650309,10.2589278 15.4650309,10.5964536 C15.4650309,10.9646598 15.6491134,11.2203711 16.7333196,11.7829278 C18.339134,12.5602887 18.8403299,13.3069278 18.8403299,14.4013608 C18.8403299,16.0378557 17.5924948,16.9174845 15.9048247,16.9174845 C15.0149691,16.9174845 14.2478351,16.7333608 13.8080412,16.4776907 C13.7364536,16.4470103 13.7262268,16.3958763 13.7262268,16.3140206 L13.7262268,14.8104742 C13.7262268,14.7082062 13.7773608,14.6774845 13.8489897,14.7286598 C14.4933608,15.1480412 15.2297732,15.3321237 15.9048247,15.3321237 C16.712866,15.3321237 17.0503918,14.9945979 17.0503918,14.5343093 C17.0503918,14.1661031 16.815134,13.8388041 15.7820619,13.3069278 C14.3296495,12.6114227 13.7262268,11.9056907 13.7262268,10.7294433 C13.7262268,9.40997938 14.759299,8.31558763 16.5491959,8.31558763 C17.4288247,8.31558763 18.0425155,8.44857732 18.3800412,8.60197938 C18.4618557,8.6531134 18.4823093,8.73492784 18.4823093,8.80651546 L18.4823093,10.2077526 C18.4823093,10.289567 18.4311753,10.3407423 18.328866,10.3100206 C17.8788454,10.0237113 17.2140206,9.84981443 16.5491959,9.84981443 L16.5491959,9.84981443 Z M7.75294845,11.0669691 C7.98820619,11.0874227 8.1723299,11.0874227 8.5814433,11.0874227 C9.77818557,11.0874227 10.9032577,10.6680825 10.9032577,9.04181443 C10.9032577,7.74284536 10.0952165,7.08820619 8.7348866,7.08820619 C8.3257732,7.08820619 7.93707216,7.10865979 7.75294845,7.1188866 L7.75294845,11.0669691 Z M5.93237113,5.63579381 C5.93237113,5.56420619 6.07558763,5.51303093 6.15736082,5.51303093 C6.812,5.48235052 7.7836701,5.46189691 8.79624742,5.46189691 C11.6294433,5.46189691 12.7340619,7.01657732 12.7340619,9.00086598 C12.7340619,11.5988041 10.8520825,12.7136907 8.54053608,12.7136907 C8.15187629,12.7136907 8.01892784,12.6932371 7.74272165,12.6932371 L7.74272165,16.620866 C7.74272165,16.7026804 7.71204124,16.7435876 7.62,16.7435876 L6.05509278,16.7435876 C5.97327835,16.7435876 5.9323299,16.7129072 5.9323299,16.620866 L5.9323299,5.63579381 L5.93237113,5.63579381 Z" id="Shape" fill="#31C5F0"></path>
                </g>
            </g>
        </g>
    </g>
</svg>