<?xml version="1.0" encoding="UTF-8"?>
<svg width="32px" height="18px" viewBox="0 0 32 18" version="1.1" xmlns="http://www.w3.org/2000/svg" xmlns:xlink="http://www.w3.org/1999/xlink">
    <!-- Generator: sketchtool 54.1 (76490) - https://sketchapp.com -->
    <title>244E8946-DBBE-4364-ABA5-A6EF5E6F5A25</title>
    <desc>Created with sketchtool.</desc>
    <g id="Desktop" stroke="none" stroke-width="1" fill="none" fill-rule="evenodd">
        <g id="Home-v2" transform="translate(-616.000000, -3791.000000)" fill-rule="nonzero">
            <g id="Group-5" transform="translate(616.000000, 3627.000000)">
                <g id="php-1-(1)" transform="translate(0.000000, 164.000000)">
                    <ellipse id="Oval" fill="#8993BE" cx="16" cy="8.84256927" rx="16" ry="8.5"></ellipse>
                    <path d="M5,13.3425693 L6.74414418,4.60717385 L10.7771357,4.60717385 C12.5211555,4.71505317 13.3932276,5.57771867 13.3932276,7.08766007 C13.3932276,9.6759026 11.3222118,11.185721 9.46902755,11.0778417 L7.50717618,11.0778417 L7.07114013,13.3425693 L5,13.3425693 Z M7.94308789,9.46026698 L7.94321223,9.46026698 L9.25119603,9.46026698 C10.2321839,9.35238766 11.104256,9.02887272 11.2131717,7.19541638 C11.2131717,6.5483865 10.6682199,6.22487156 9.90518793,6.22487156 L8.48816403,6.22487156 L7.94308789,9.46026698 Z M12.9880262,11.0778417 L14.732046,2.34256927 L16.8031862,2.34256927 L16.3671501,4.60717385 L18.3291258,4.60717385 C20.07327,4.71505317 20.7272619,5.57771867 20.5093061,6.65626582 L19.7462741,11.0778417 L17.5662182,11.0778417 L18.3292502,7.08766007 C18.4381659,6.5483865 18.4381659,6.22487156 17.6752583,6.22487156 L16.0401542,6.22487156 L15.0591663,11.0778417 L12.9880262,11.0778417 L12.9880262,11.0778417 Z M19.606648,13.3425693 L21.3506679,4.60717385 L25.3837837,4.60717385 C27.1279279,4.71505317 28,5.57771867 28,7.08766007 C28,9.6759026 25.9288599,11.185721 24.0757999,11.0778417 L22.1136999,11.0778417 L21.6776638,13.3425693 L19.606648,13.3425693 Z M22.5496116,9.46026698 L22.5497359,9.46026698 L23.8578441,9.46026698 C24.8388319,9.35238766 25.710904,9.02887272 25.8198198,7.19541638 C25.8198198,6.5483865 25.274868,6.22487156 24.511836,6.22487156 L23.0946877,6.22487156 L22.5496116,9.46026698 Z" id="Shape" fill="#232531"></path>
                </g>
            </g>
        </g>
    </g>
</svg>