<svg width="24" height="24" xmlns="http://www.w3.org/2000/svg"><defs><linearGradient x1="50%" y1="0%" x2="50%" y2="100%" id="a"><stop stop-color="#FFF" offset="0%"/><stop stop-color="#F2F2F2" offset="100%"/></linearGradient><linearGradient x1="50%" y1="0%" x2="50%" y2="100%" id="b"><stop stop-color="#C063D5" offset="0%"/><stop stop-color="#5A1AA9" offset="100%"/></linearGradient></defs><g fill="none"><circle fill="url(#a)" cx="12" cy="12" r="12"/><path d="M7.335 19.3a1 1 0 0 0-.635-1.88v-6.945c0-3.08 2.49-5.575 5.562-5.575h.05a5.478 5.478 0 0 1 5.486 5.609l-3.491-.07.002-.098 3.491.07c-.06 3.036-2.551 5.539-5.513 5.539a1.748 1.748 0 0 1-1.746-1.75c0-.966.782-1.75 1.746-1.75 1.043 0 1.999-.96 2.022-2.109l3.491.07-.002.098-3.491-.07A1.982 1.982 0 0 0 12.312 8.4h-.05c-1.143 0-2.07.929-2.07 2.075v7.475a1.748 1.748 0 0 1-2.857 1.35z" fill="url(#b)"/><circle fill="#F7F7F7" cx="12.3" cy="14.2" r="1.1"/></g></svg>