<?xml version="1.0" encoding="UTF-8"?>
<svg width="25px" height="24px" viewBox="0 0 25 24" version="1.1" xmlns="http://www.w3.org/2000/svg" xmlns:xlink="http://www.w3.org/1999/xlink">
    <!-- Generator: sketchtool 54.1 (76490) - https://sketchapp.com -->
    <title>B5A3778B-B625-4B46-BE88-75BE3A74FA49</title>
    <desc>Created with sketchtool.</desc>
    <defs>
        <linearGradient x1="12.959%" y1="12.039%" x2="79.639%" y2="78.201%" id="linearGradient-1">
            <stop stop-color="#387EB8" offset="0%"></stop>
            <stop stop-color="#366994" offset="100%"></stop>
        </linearGradient>
        <linearGradient x1="19.128%" y1="20.579%" x2="90.742%" y2="88.429%" id="linearGradient-2">
            <stop stop-color="#FFE052" offset="0%"></stop>
            <stop stop-color="#FFC331" offset="100%"></stop>
        </linearGradient>
    </defs>
    <g id="Desktop" stroke="none" stroke-width="1" fill="none" fill-rule="evenodd">
        <g id="Home-v2" transform="translate(-619.000000, -3827.000000)" fill-rule="nonzero">
            <g id="Group-5" transform="translate(616.000000, 3627.000000)">
                <g id="python-5" transform="translate(3.000000, 200.000000)">
                    <path d="M11.9740208,0.00677647059 C5.87218551,0.00677647059 6.25317374,2.65289412 6.25317374,2.65289412 L6.25995021,5.39435294 L12.0828208,5.39435294 L12.0828208,6.21741176 L3.94719727,6.21741176 C3.94719727,6.21741176 0.0426325661,5.77458824 0.0426325661,11.9312941 C0.0426325661,18.0881882 3.45063257,17.8698353 3.45063257,17.8698353 L5.48451492,17.8698353 L5.48451492,15.0128 C5.48451492,15.0128 5.37486786,11.6048 8.83811492,11.6048 L14.613362,11.6048 C14.613362,11.6048 17.8580679,11.6572235 17.8580679,8.46889412 L17.8580679,3.19717647 C17.8580679,3.19717647 18.3508679,0.00677647059 11.9740208,0.00677647059 Z M8.76329139,1.85035294 C9.04119004,1.85010292 9.30777853,1.96038702 9.50428263,2.15689111 C9.70078672,2.35339521 9.81107082,2.61998371 9.8108208,2.89788235 C9.81107082,3.175781 9.70078672,3.4423695 9.50428263,3.63887359 C9.30777853,3.83537769 9.04119004,3.94566179 8.76329139,3.94541176 C8.48539274,3.94566179 8.21880425,3.83537769 8.02230015,3.63887359 C7.82579606,3.4423695 7.71551196,3.175781 7.71576198,2.89788235 C7.71551196,2.61998371 7.82579606,2.35339521 8.02230015,2.15689111 C8.21880425,1.96038702 8.48539274,1.85010292 8.76329139,1.85035294 L8.76329139,1.85035294 Z" id="Shape" fill="url(#linearGradient-1)"></path>
                    <path d="M12.1472914,23.9177412 C18.2491267,23.9177412 17.8681384,21.2716235 17.8681384,21.2716235 L17.861362,18.5302588 L12.0383973,18.5302588 L12.0383973,17.7072 L20.1740208,17.7072 C20.1740208,17.7072 24.0785855,18.1500235 24.0785855,11.9931294 C24.0785855,5.83632941 20.6705855,6.05468235 20.6705855,6.05468235 L18.6367032,6.05468235 L18.6367032,8.91162353 C18.6367032,8.91162353 18.7463502,12.3196235 15.2831032,12.3196235 L9.5078561,12.3196235 C9.5078561,12.3196235 6.26315021,12.2672 6.26315021,15.4556235 L6.26315021,20.7274353 C6.26315021,20.7274353 5.77044433,23.9177412 12.1471973,23.9177412 L12.1472914,23.9177412 Z M15.3580208,22.0743529 C15.0801222,22.074603 14.8135337,21.9643189 14.6170296,21.7678148 C14.4205255,21.5713107 14.3102414,21.3047222 14.3104914,21.0268235 C14.3102164,20.7489086 14.4204894,20.4822959 14.6169962,20.2857714 C14.813503,20.089247 15.0801058,19.9789499 15.3580208,19.9792 C15.6359194,19.97895 15.9025079,20.0892341 16.099012,20.2857382 C16.2955161,20.4822423 16.4058002,20.7488308 16.4055502,21.0267294 C16.4058002,21.3046281 16.2955161,21.5712166 16.099012,21.7677207 C15.9025079,21.9642247 15.6359194,22.0745088 15.3580208,22.0742588 L15.3580208,22.0743529 Z" id="Shape" fill="url(#linearGradient-2)"></path>
                </g>
            </g>
        </g>
    </g>
</svg>