<?xml version="1.0" encoding="UTF-8"?>
<svg width="27px" height="24px" viewBox="0 0 27 24" version="1.1" xmlns="http://www.w3.org/2000/svg" xmlns:xlink="http://www.w3.org/1999/xlink">
    <!-- Generator: sketchtool 54.1 (76490) - https://sketchapp.com -->
    <title>8F35E224-C52A-4C2D-973D-09AE73047B66</title>
    <desc>Created with sketchtool.</desc>
    <g id="Desktop" stroke="none" stroke-width="1" fill="none" fill-rule="evenodd">
        <g id="Home-v2" transform="translate(-618.000000, -3868.000000)" fill-rule="nonzero">
            <g id="Group-5" transform="translate(616.000000, 3627.000000)">
                <g id="react" transform="translate(2.000000, 241.000000)">
                    <path d="M21.8215547,7.9787004 C21.5477803,7.88479048 21.2716832,7.79779371 20.9935262,7.71779289 C21.0396547,7.53035448 21.0823118,7.34207879 21.1214756,7.15306245 C21.7482456,4.11050751 21.3384432,1.65943399 19.9389681,0.852578656 C18.5972069,0.0787351779 16.4027152,0.885590514 14.1863673,2.81427984 C13.9679749,3.00476317 13.7544301,3.200734 13.5459373,3.40200474 C13.4063153,3.26817162 13.2642261,3.13693646 13.1197428,3.0083668 C10.7969602,0.94592253 8.46871357,0.076913834 7.07071831,0.886159684 C5.73020922,1.66216601 5.33315626,3.96650751 5.89743136,6.84992253 C5.95357279,7.13546474 6.01696084,7.41953428 6.08753412,7.70185613 C5.75809855,7.79542767 5.43993254,7.89514625 5.13554045,8.00123953 C2.41240369,8.95061502 0.673247958,10.438653 0.673247958,11.9820142 C0.673247958,13.5761455 2.54012543,15.1750577 5.37664084,16.144468 C5.60664036,16.2227095 5.83855427,16.2952064 6.07216653,16.3618909 C5.99627363,16.6660485 5.92889555,16.9722677 5.8701112,17.2801897 C5.33213175,20.1135178 5.75229302,22.363219 7.08927325,23.1344443 C8.47019341,23.930713 10.7878535,23.1122466 13.0447262,21.1395036 C13.2231041,20.983551 13.402165,20.8181502 13.5814535,20.644781 C13.8072799,20.8626661 14.0391359,21.0742138 14.2767515,21.2791779 C16.4628195,23.1602846 18.621795,23.9198988 19.9576369,23.1466245 C21.3373049,22.3479652 21.7855831,19.9311557 21.2034361,16.9907099 C21.1590408,16.7661154 21.1072464,16.5367399 21.049191,16.3031526 C21.2119736,16.2551146 21.3716827,16.205483 21.5275215,16.1538024 C24.4762772,15.1768791 26.3947215,13.5974324 26.3947215,11.9820142 C26.3947215,10.4330751 24.5995594,8.93501976 21.8215547,7.9787004 Z" id="Path" fill="#53C1DE"></path>
                    <path d="M21.1819215,15.1108553 C21.0413365,15.1574134 20.896995,15.2023779 20.7499215,15.2459763 C20.4243563,14.2154372 19.984957,13.1195573 19.4474329,11.9874783 C19.9604827,10.8821502 20.3828069,9.80038577 20.6992653,8.77644901 C20.9623357,8.85271779 21.2177792,8.93297075 21.4638883,9.01777708 C23.844157,9.83704032 25.2959958,11.0485755 25.2959958,11.9820142 C25.2959958,12.9763542 23.7279325,14.2672316 21.1820353,15.1108553 L21.1819215,15.1108553 Z M20.125542,17.2041486 C20.3829207,18.5043605 20.4196891,19.6799241 20.2491657,20.5989059 C20.0959452,21.4246577 19.7879104,21.9751589 19.4070219,22.1956553 C18.59641,22.6648791 16.8628321,22.0549565 14.9934503,20.4462545 C14.7791009,20.2618435 14.5631578,20.0649107 14.3466456,19.8565945 C15.0714266,19.0638545 15.7957523,18.1422545 16.5026614,17.118887 C17.7461839,17.0085818 18.9209507,16.8281549 19.9863231,16.581932 C20.0386867,16.7936632 20.0853586,17.0011826 20.125542,17.2041486 L20.125542,17.2041486 Z M9.44222187,22.1146055 C8.65027879,22.3942957 8.01952464,22.402264 7.6382946,22.1824506 C6.8268859,21.7145929 6.48970962,19.9080474 6.94971278,17.4850909 C7.00441457,17.1987484 7.06704734,16.913978 7.13753887,16.6311083 C8.19107246,16.8641265 9.35730171,17.031804 10.6037839,17.1328885 C11.3153602,18.1342862 12.0606314,19.0547478 12.811708,19.8608063 C12.6520842,20.015218 12.488683,20.1656762 12.3216527,20.3120443 C11.3236701,21.184468 10.3236385,21.8032696 9.4423357,22.1146055 L9.44222187,22.1146055 Z M5.73203057,15.1047083 C4.47780764,14.6760095 3.44203215,14.1189059 2.73204954,13.5110324 C2.09412385,12.9646292 1.77197365,12.4222103 1.77197365,11.9820142 C1.77197365,11.045502 3.16837523,9.85081423 5.49730487,9.03883636 C5.78961909,8.93736672 6.0848412,8.84447634 6.38259183,8.76028458 C6.70451436,9.80721581 7.12672464,10.9018435 7.63624559,12.0087652 C7.12012227,13.1321929 6.69187879,14.2442372 6.36699657,15.3034625 C6.15374468,15.2424238 5.9420254,15.1761524 5.73203057,15.1047083 L5.73203057,15.1047083 Z M6.97578076,6.63887431 C6.4923278,4.16833518 6.81333966,2.30475889 7.6212195,1.83712885 C8.48180448,1.3389913 10.3845397,2.04931542 12.3900669,3.83002055 C12.518244,3.94385455 12.6469903,4.06303874 12.7759642,4.18632095 C12.0287578,4.98873676 11.2903167,5.90225455 10.5848875,6.89784664 C9.37517365,7.00997312 8.21714045,7.1900585 7.15256495,7.43127273 C7.08698786,7.16862921 7.02804108,6.90437454 6.97578076,6.63876047 L6.97578076,6.63887431 Z M18.0708385,9.378517 C17.819388,8.94417544 17.5586097,8.51530124 17.2886851,8.09219289 C18.1094282,8.19578182 18.8956796,8.33352095 19.6340069,8.50210909 C19.4123721,9.21254704 19.136097,9.95542767 18.8107594,10.7169771 C18.5730532,10.2659429 18.3263637,9.81970055 18.0708385,9.378517 L18.0708385,9.378517 Z M13.5462788,4.97154783 C14.0530677,5.52056917 14.5606535,6.13367905 15.0599294,6.79881107 C14.0471496,6.750953 13.03268,6.75072508 12.0198788,6.79812806 C12.51961,6.13914308 13.0315215,5.52694387 13.5462788,4.97154783 L13.5462788,4.97154783 Z M8.99269144,9.38603004 C8.74036542,9.82370489 8.49828845,10.267209 8.26665823,10.7161802 C7.94667088,9.95724901 7.67290013,9.21106719 7.44933017,8.49049802 C8.18321792,8.32623557 8.96582661,8.1920253 9.7812195,8.09014387 C9.50826987,8.51587441 9.24535472,8.94795555 8.99269144,9.38603004 L8.99269144,9.38603004 Z M9.8046693,15.9523162 C8.96229776,15.8582893 8.16785033,15.7309091 7.43419025,15.5712 C7.66128906,14.8378814 7.94109302,14.075649 8.26791041,13.3004395 C8.50051711,13.7497435 8.74365784,14.1935152 8.99713096,14.6313866 C9.25577447,15.0780515 9.52503042,15.5184866 9.8046693,15.9523162 L9.8046693,15.9523162 Z M13.5766725,19.0701154 C13.0558819,18.508117 12.5364574,17.8865834 12.0290993,17.2180364 C12.5215452,17.2373881 13.0236669,17.2471779 13.5339847,17.2471779 C14.0583041,17.2471779 14.5765903,17.235453 15.0866804,17.2126862 C14.5858108,17.8934134 14.0800464,18.5158577 13.5766725,19.0701154 Z M18.8212321,13.2609391 C19.1650108,14.0445723 19.4548321,14.8027067 19.6850045,15.5236174 C18.9391642,15.6937992 18.1340163,15.8308553 17.2856116,15.9326229 C17.5574872,15.5016149 17.8207614,15.0652408 18.075278,14.6237597 C18.3340096,14.1750768 18.5827226,13.7206908 18.8212321,13.2609391 L18.8212321,13.2609391 Z M17.1233982,14.0748522 C16.7337672,14.7517041 16.3222295,15.4157071 15.8894377,16.0658087 C15.1262946,16.1203352 14.3376527,16.1484522 13.5339847,16.1484522 C12.7336179,16.1484522 11.9549934,16.1235225 11.2051689,16.0749154 C10.7611522,15.4263275 10.3418294,14.7611753 9.94810013,14.0808854 C9.55621117,13.4042048 9.19016085,12.7128861 8.85074045,12.0084237 C9.18929753,11.3037502 9.55424171,10.6120612 9.94479895,9.93482372 L9.94479895,9.93505138 C10.3352337,9.25766964 10.7512552,8.59536144 11.1919642,7.94955889 C11.9569286,7.89173123 12.7412448,7.86145138 13.5340986,7.86145138 C14.3304812,7.86145138 15.1158219,7.89195889 15.8805586,7.9502419 C16.3168099,8.59505067 16.7301706,9.25505347 17.1198693,9.92901818 C17.5117696,10.604749 17.8815841,11.2930497 18.2287262,11.9928285 C17.885155,12.6997368 17.5165166,13.3941849 17.123512,14.0748522 L17.1233982,14.0748522 Z M19.3901744,1.8044585 C20.2514424,2.30123004 20.5864559,4.3043668 20.0452891,6.93131383 C20.0098185,7.10244356 19.9712604,7.27291878 19.9296337,7.44265613 C18.8625539,7.1964332 17.7037238,7.01316047 16.4904812,6.89932648 C15.7836859,5.89292016 15.0513918,4.9778087 14.3162519,4.18575178 C14.508889,4.00003708 14.7061103,3.81913699 14.9077333,3.64321897 C16.806712,1.99057708 18.5814978,1.33808063 19.3901744,1.8044585 L19.3901744,1.8044585 Z" id="Shape" fill="#FFFFFF"></path>
                    <path d="M13.5339847,9.68518577 C14.8025507,9.68518577 15.8308132,10.7135621 15.8308132,11.9820142 C15.8308132,13.2505802 14.8025507,14.2789565 13.5339847,14.2789565 C12.2655325,14.2789565 11.2371563,13.2505802 11.2371563,11.9820142 C11.2371563,10.7135621 12.2655325,9.68518577 13.5339847,9.68518577" id="Path" fill="#53C1DE"></path>
                </g>
            </g>
        </g>
    </g>
</svg>