<svg width="22" height="22" xmlns="http://www.w3.org/2000/svg"><defs><linearGradient x1="84.75%" y1="111.399%" x2="58.254%" y2="64.584%" id="a"><stop stop-color="#FB7655" offset="0%"/><stop stop-color="#FB7655" offset="0%"/><stop stop-color="#E42B1E" offset="41%"/><stop stop-color="#900" offset="99%"/><stop stop-color="#900" offset="100%"/></linearGradient><linearGradient x1="116.651%" y1="60.89%" x2="1.746%" y2="19.288%" id="b"><stop stop-color="#871101" offset="0%"/><stop stop-color="#871101" offset="0%"/><stop stop-color="#911209" offset="99%"/><stop stop-color="#911209" offset="100%"/></linearGradient><linearGradient x1="75.774%" y1="219.327%" x2="38.978%" y2="7.829%" id="c"><stop stop-color="#871101" offset="0%"/><stop stop-color="#871101" offset="0%"/><stop stop-color="#911209" offset="99%"/><stop stop-color="#911209" offset="100%"/></linearGradient><linearGradient x1="50.012%" y1="7.234%" x2="66.483%" y2="79.135%" id="d"><stop stop-color="#FFF" offset="0%"/><stop stop-color="#FFF" offset="0%"/><stop stop-color="#E57252" offset="23%"/><stop stop-color="#DE3B20" offset="46%"/><stop stop-color="#A60003" offset="99%"/><stop stop-color="#A60003" offset="100%"/></linearGradient><linearGradient x1="46.174%" y1="16.348%" x2="49.932%" y2="83.047%" id="e"><stop stop-color="#FFF" offset="0%"/><stop stop-color="#FFF" offset="0%"/><stop stop-color="#E4714E" offset="23%"/><stop stop-color="#BE1A0D" offset="56%"/><stop stop-color="#A80D00" offset="99%"/><stop stop-color="#A80D00" offset="100%"/></linearGradient><linearGradient x1="36.965%" y1="15.594%" x2="49.528%" y2="92.478%" id="f"><stop stop-color="#FFF" offset="0%"/><stop stop-color="#FFF" offset="0%"/><stop stop-color="#E46342" offset="18%"/><stop stop-color="#C82410" offset="40%"/><stop stop-color="#A80D00" offset="99%"/><stop stop-color="#A80D00" offset="100%"/></linearGradient><linearGradient x1="13.609%" y1="58.346%" x2="85.764%" y2="-46.717%" id="g"><stop stop-color="#FFF" offset="0%"/><stop stop-color="#FFF" offset="0%"/><stop stop-color="#C81F11" offset="54%"/><stop stop-color="#BF0905" offset="99%"/><stop stop-color="#BF0905" offset="100%"/></linearGradient><linearGradient x1="27.624%" y1="21.135%" x2="50.745%" y2="79.056%" id="h"><stop stop-color="#FFF" offset="0%"/><stop stop-color="#FFF" offset="0%"/><stop stop-color="#DE4024" offset="31%"/><stop stop-color="#BF190B" offset="99%"/><stop stop-color="#BF190B" offset="100%"/></linearGradient><linearGradient x1="-20.667%" y1="122.282%" x2="104.242%" y2="-6.342%" id="i"><stop stop-color="#BD0012" offset="0%"/><stop stop-color="#BD0012" offset="0%"/><stop stop-color="#FFF" offset="7%"/><stop stop-color="#FFF" offset="17%"/><stop stop-color="#C82F1C" offset="27%"/><stop stop-color="#820C01" offset="33%"/><stop stop-color="#A31601" offset="46%"/><stop stop-color="#B31301" offset="72%"/><stop stop-color="#E82609" offset="99%"/><stop stop-color="#E82609" offset="100%"/></linearGradient><linearGradient x1="58.792%" y1="65.205%" x2="11.964%" y2="50.128%" id="j"><stop stop-color="#8C0C01" offset="0%"/><stop stop-color="#8C0C01" offset="0%"/><stop stop-color="#990C00" offset="54%"/><stop stop-color="#A80D0E" offset="99%"/><stop stop-color="#A80D0E" offset="100%"/></linearGradient><linearGradient x1="79.319%" y1="62.754%" x2="23.088%" y2="17.888%" id="k"><stop stop-color="#7E110B" offset="0%"/><stop stop-color="#7E110B" offset="0%"/><stop stop-color="#9E0C00" offset="99%"/><stop stop-color="#9E0C00" offset="100%"/></linearGradient><linearGradient x1="92.88%" y1="74.122%" x2="59.841%" y2="39.704%" id="l"><stop stop-color="#79130D" offset="0%"/><stop stop-color="#79130D" offset="0%"/><stop stop-color="#9E120B" offset="99%"/><stop stop-color="#9E120B" offset="100%"/></linearGradient><radialGradient cx="32.001%" cy="40.21%" fx="32.001%" fy="40.21%" r="133.145%" gradientTransform="matrix(.52253 0 0 1 .153 0)" id="m"><stop stop-color="#A80D00" offset="0%"/><stop stop-color="#A80D00" offset="0%"/><stop stop-color="#7E0E08" offset="99%"/><stop stop-color="#7E0E08" offset="100%"/></radialGradient><radialGradient cx="13.549%" cy="40.86%" fx="13.549%" fy="40.86%" r="113.54%" gradientTransform="matrix(.77846 0 0 1 .03 0)" id="n"><stop stop-color="#A30C00" offset="0%"/><stop stop-color="#A30C00" offset="0%"/><stop stop-color="#800E08" offset="99%"/><stop stop-color="#800E08" offset="100%"/></radialGradient><linearGradient x1="56.57%" y1="101.717%" x2="3.105%" y2="11.993%" id="o"><stop stop-color="#8B2114" offset="0%"/><stop stop-color="#8B2114" offset="0%"/><stop stop-color="#9E100A" offset="43%"/><stop stop-color="#B3100C" offset="99%"/><stop stop-color="#B3100C" offset="100%"/></linearGradient><linearGradient x1="30.87%" y1="35.599%" x2="92.471%" y2="100.694%" id="p"><stop stop-color="#B31000" offset="0%"/><stop stop-color="#B31000" offset="0%"/><stop stop-color="#910F08" offset="44%"/><stop stop-color="#791C12" offset="99%"/><stop stop-color="#791C12" offset="100%"/></linearGradient></defs><g fill="none"><path fill="url(#a)" d="M17.065 14.474L4.511 21.929l16.256-1.103 1.252-16.392-4.954 10.04z"/><path fill="url(#b)" d="M20.793 20.814l-1.397-9.643-3.806 5.025 5.203 4.618z"/><path fill="url(#c)" d="M20.812 20.814l-10.236-.803-6.011 1.897z"/><path fill="url(#d)" d="M4.58 21.91l2.557-8.377-5.628 1.203 3.07 7.174z"/><path fill="url(#e)" d="M15.59 16.224l-2.354-9.216-6.733 6.312 9.086 2.904z"/><path fill="url(#f)" d="M21.485 7.137L15.12 1.94l-1.773 5.73 8.138-.532z"/><path fill="url(#g)" d="M18.508.085l-3.743 2.07L12.403.057l6.105.027z"/><path fill="url(#h)" d="M.029 17.546l1.568-2.86L.33 11.278z"/><path d="M.244 11.17l1.277 3.621 5.546-1.244 6.331-5.885 1.787-5.675L12.372 0 7.588 1.79C6.081 3.192 3.157 5.966 3.051 6.018 2.947 6.07 1.12 9.524.244 11.17z" fill="#FFF"/><path d="M4.726 4.667c3.266-3.239 7.477-5.152 9.093-3.522 1.615 1.63-.098 5.593-3.364 8.83-3.266 3.238-7.425 5.257-9.04 3.626-1.616-1.629.045-5.697 3.31-8.934z" fill="url(#i)"/><path d="M4.58 21.906l2.537-8.403 8.426 2.707c-3.047 2.856-6.435 5.271-10.964 5.696z" fill="url(#j)"/><path d="M13.41 7.646l2.163 8.568c2.545-2.676 4.829-5.553 5.947-9.11l-8.11.542z" fill="url(#k)"/><path d="M21.498 7.146c.866-2.612 1.066-6.36-3.017-7.056l-3.35 1.85 6.367 5.206z" fill="url(#l)"/><path d="M.029 17.508c.12 4.312 3.23 4.376 4.556 4.414l-3.061-7.149-1.495 2.735z" fill="#9E1209"/><path d="M13.422 7.66a2032.89 2032.89 0 0 0 5.976 3.66c.125.07 1.7-2.656 2.057-4.197l-8.033.536z" fill="url(#m)"/><path d="M7.113 13.503l3.392 6.543c2.005-1.087 3.576-2.413 5.014-3.832l-8.406-2.711z" fill="url(#n)"/><path d="M1.51 14.782l-.48 5.723c.907 1.238 2.154 1.346 3.463 1.25-.947-2.357-2.838-7.068-2.982-6.973z" fill="url(#o)"/><path d="M15.112 1.954l6.738.946C21.49 1.376 20.386.393 18.504.085l-3.392 1.87z" fill="url(#p)"/></g></svg>