<?xml version="1.0" encoding="UTF-8"?>
<svg width="27px" height="24px" viewBox="0 0 27 24" version="1.1" xmlns="http://www.w3.org/2000/svg" xmlns:xlink="http://www.w3.org/1999/xlink">
    <!-- Generator: sketchtool 54.1 (76490) - https://sketchapp.com -->
    <title>0776F522-808F-4C7A-B307-7DA1E70205BF</title>
    <desc>Created with sketchtool.</desc>
    <g id="Desktop" stroke="none" stroke-width="1" fill="none" fill-rule="evenodd">
        <g id="Home-v2" transform="translate(-1066.000000, -3667.000000)" fill-rule="nonzero">
            <g id="Group-6" transform="translate(1064.000000, 3627.000000)">
                <g id="sketch-2" transform="translate(2.000000, 40.000000)">
                    <g id="a-link" transform="translate(0.047442, 8.623535)" fill="#EA6C00">
                        <polygon id="a" points="5.33888372 0 13.1807442 15.3488372 0 0"></polygon>
                    </g>
                    <g id="b-link" transform="translate(19.411163, 16.623535) scale(-1, 1) translate(-19.411163, -16.623535) translate(12.411163, 8.623535)" fill="#EA6C00">
                        <polygon id="b" points="5.33888372 0 13.1807442 15.3488372 0 0"></polygon>
                    </g>
                    <g id="c-link" transform="translate(5.386047, 8.623535)" fill="#FDAD00">
                        <polygon id="c" points="0 0 15.6837209 0 7.84186047 15.3488372"></polygon>
                    </g>
                    <g id="d-link" transform="translate(5.386047, 0.117209)" fill="#FDD231">
                        <polygon id="d" points="7.84186047 0 0.412744186 0.785302326 0 8.50632558"></polygon>
                    </g>
                    <g id="e-link" transform="translate(17.069767, 4.617209) scale(-1, 1) translate(-17.069767, -4.617209) translate(13.069767, 0.117209)" fill="#FDD231">
                        <polygon id="e" points="7.84186047 0 0.412744186 0.785302326 0 8.50632558"></polygon>
                    </g>
                    <g id="f-link" transform="translate(23.411163, 4.902512) scale(-1, 1) translate(-23.411163, -4.902512) translate(20.411163, 0.902512)" fill="#FDAD00">
                        <polygon id="f" points="0 7.72102326 5.75162791 0 5.33888372 7.72102326"></polygon>
                    </g>
                    <g id="g-link" transform="translate(0.047442, 0.902512)" fill="#FDAD00">
                        <polygon id="g" points="0 7.72102326 5.75162791 0 5.33888372 7.72102326"></polygon>
                    </g>
                    <g id="h-link" transform="translate(5.386047, 0.117209)" fill="#FEEEB7">
                        <polygon id="h" points="7.84186047 0 0 8.50632558 15.6837209 8.50632558"></polygon>
                    </g>
                </g>
            </g>
        </g>
    </g>
</svg>