<?xml version="1.0" encoding="UTF-8"?>
<svg width="30px" height="24px" viewBox="0 0 30 24" version="1.1" xmlns="http://www.w3.org/2000/svg" xmlns:xlink="http://www.w3.org/1999/xlink">
    <!-- Generator: sketchtool 54.1 (76490) - https://sketchapp.com -->
    <title>1A41C2D3-0AF8-4CF0-A6DA-973DF1A21561</title>
    <desc>Created with sketchtool.</desc>
    <g id="Desktop" stroke="none" stroke-width="1" fill="none" fill-rule="evenodd">
        <g id="Home-v2" transform="translate(-1064.000000, -3827.000000)" fill-rule="nonzero">
            <g id="Group-6" transform="translate(1064.000000, 3627.000000)">
                <g id="zeplin" transform="translate(0.000000, 200.000000)">
                    <path d="M4.62545455,16.5494026 L3.05579221,17.1229091 L2.97225974,21.792 L8.40561039,19.8071688 C6.54046753,19.1825455 5.18025974,18.0816623 4.62545455,16.5494026" id="Path" fill="#FDBD39"></path>
                    <path d="M5.44706494,11.611013 L0,13.6008312 L3.05579221,17.1241558 L4.62545455,16.5506494 C4.0718961,15.0233766 4.41350649,13.2991169 5.44706494,11.611013" id="Path" fill="#F69833"></path>
                    <path d="M14.6119481,4.87231169 C7.67625974,7.40571429 3.20415584,12.6345974 4.62545455,16.5494026 L29.7412987,7.37454545 C28.32,3.45974026 21.5476364,2.33890909 14.6119481,4.87231169" id="Path" fill="#FECF33"></path>
                    <path d="M19.7535584,19.0528831 C26.6892468,16.5194805 31.1688312,11.3142857 29.7400519,7.37579221 L4.62420779,16.5494026 C6.05298701,20.4891429 12.8178701,21.5862857 19.7535584,19.0528831" id="Path" fill="#EE6723"></path>
                    <path d="M29.7400519,7.37454545 L4.62545455,16.5494026 C5.11667532,17.9058701 6.99303896,18.5741299 9.62368831,18.5741299 C12.1895065,18.5741299 15.4734545,17.9395325 18.897039,16.689039 C25.8327273,14.1556364 30.7112727,10.0525714 29.7400519,7.37454545" id="Path" fill="#F69833"></path>
                    <path d="M24.7418182,5.35106494 C22.1772468,5.35106494 18.8920519,5.98566234 15.4684675,7.23615584 C8.53277922,9.76955844 3.65423377,13.8713766 4.62545455,16.5494026 L29.7412987,7.37454545 C29.2488312,6.01807792 27.3737143,5.35106494 24.7418182,5.35106494" id="Path" fill="#FDBD39"></path>
                    <g id="Group" transform="translate(9.712208, 0.000000)" fill="#EE6723">
                        <path d="M13.641974,22.0401039 C12.9026494,22.0401039 11.812987,21.3730909 10.4016623,20.0565195 C8.73225974,18.4993247 6.82098701,16.2177662 5.01693506,13.6332468 C3.21412987,11.0487273 1.73298701,8.46545455 0.845298701,6.35719481 C-0.120935065,4.06067532 -0.259324675,2.64935065 0.435116883,2.16062338 C0.595948052,2.05090909 0.786701299,1.99480519 0.981194805,1.99979221 C1.54597403,1.99979221 2.6481039,2.41994805 4.68405195,4.42472727 L4.72893506,4.46836364 L4.7227013,4.5307013 C4.70898701,4.67532468 4.69651948,4.81994805 4.6852987,4.96332468 L4.66285714,5.24633766 L4.46337662,5.04561039 C2.26909091,2.83511688 1.3041039,2.59698701 0.989922078,2.59698701 C0.900155844,2.59698701 0.829090909,2.61444156 0.777974026,2.6505974 C0.47625974,2.86254545 0.456311688,3.89984416 1.39387013,6.1252987 C2.26535065,8.19490909 3.7252987,10.7395325 5.50441558,13.2903896 C7.28477922,15.8424935 9.16737662,18.0891429 10.8081039,19.6189091 C12.576,21.2683636 13.3726753,21.4466494 13.6332468,21.4466494 C13.723013,21.4466494 13.7953247,21.4279481 13.8501818,21.3892987 C14.1681039,21.1661299 14.1681039,20.0552727 13.1233247,17.659013 L13.0747013,17.5492987 L13.1794286,17.4919481 C13.2841558,17.4345974 13.3863896,17.3784935 13.4811429,17.3236364 L13.6070649,17.2525714 L13.6656623,17.3847273 C14.4062338,19.0828052 15.0994286,21.2409351 14.1905455,21.8792727 C14.0297143,21.988987 13.8377143,22.0450909 13.641974,22.0401039 Z M13.6857403,21.7782857 L13.6857403,21.9091948 L13.6857403,21.7782857 Z" id="Shape"></path>
                        <path d="M10.2096623,18.9805714 L10.1996883,19.1102338 C10.0238961,21.2795844 9.5625974,23.8877922 8.35823377,23.9937662 C8.3332987,23.9962597 8.30836364,23.9962597 8.28467532,23.9962597 C7.46680519,23.9962597 6.69257143,22.8243117 5.98566234,20.5140779 C5.31490909,18.3272727 4.79501299,15.3924156 4.52197403,12.2493506 C4.24768831,9.10628571 4.25142857,6.1252987 4.53319481,3.85496104 C4.8398961,1.3814026 5.42337662,0.0897662338 6.26867532,0.014961039 C6.29361039,0.0124675325 6.31979221,0.0112207792 6.34472727,0.0112207792 C6.93818182,0.0112207792 7.8321039,0.683220779 8.74722078,3.81257143 L8.15002597,3.92727273 C7.84457143,2.88249351 7.51168831,2.03220779 7.1812987,1.44623377 C6.87584416,0.90638961 6.57787013,0.608415584 6.34472727,0.608415584 C6.33724675,0.608415584 6.32976623,0.608415584 6.32103896,0.609662338 C5.95449351,0.642077922 5.42088312,1.52976623 5.12415584,3.92851948 C4.84737662,6.15771429 4.84363636,9.09506494 5.11418182,12.196987 C5.38472727,15.3001558 5.8958961,18.1913766 6.55418182,20.3382857 C6.84841558,21.2995325 7.17132468,22.0924675 7.48924675,22.6298182 C7.78098701,23.126026 8.064,23.3990649 8.28467532,23.3990649 C8.29215584,23.3990649 8.29963636,23.3990649 8.30711688,23.3978182 C8.65745455,23.3678961 9.31823377,22.4428052 9.59625974,19.190026 L10.2096623,18.9805714 Z" id="Path"></path>
                    </g>
                </g>
            </g>
        </g>
    </g>
</svg>