<?xml version="1.0" encoding="utf-8"?>
<!-- Generator: Adobe Illustrator 22.0.1, SVG Export Plug-In . SVG Version: 6.00 Build 0)  -->
<svg version="1.1"
	 id="katman_1" xmlns:cc="http://creativecommons.org/ns#" xmlns:dc="http://purl.org/dc/elements/1.1/" xmlns:inkscape="http://www.inkscape.org/namespaces/inkscape" xmlns:rdf="http://www.w3.org/1999/02/22-rdf-syntax-ns#" xmlns:sodipodi="http://sodipodi.sourceforge.net/DTD/sodipodi-0.dtd" xmlns:svg="http://www.w3.org/2000/svg"
	 xmlns="http://www.w3.org/2000/svg" xmlns:xlink="http://www.w3.org/1999/xlink" x="0px" y="0px" viewBox="0 0 86 78"
	 style="enable-background:new 0 0 86 78;" xml:space="preserve">
<g transform="translate(0,-952.36218)">
	<path d="M38,952.4c-2.8,0.1-5.7,0.5-8.5,1.2C8.6,958.8-4.1,980,1.2,1000.9c5.2,20.9,26.5,33.5,47.3,28.3
		c20.9-5.2,33.5-26.5,28.3-47.3c-0.2-1.6-1.7-2.8-3.4-2.6c-1.6,0.2-2.8,1.7-2.6,3.4c0,0.2,0.1,0.4,0.2,0.6c4.4,17.7-6.3,35.6-24,40
		c-17.7,4.4-35.6-6.3-40.1-24c-4.4-17.7,6.3-35.6,24-40.1c9.5-2.4,19.6-0.4,27.5,5.3c1.2,1.1,3.1,1,4.2-0.2c1.1-1.2,1-3.1-0.2-4.2
		c-0.2-0.1-0.3-0.3-0.5-0.4C54.9,954.8,46.5,952.2,38,952.4L38,952.4z M82.9,954.3c-0.8,0-1.5,0.4-2,1c-10.6,11.1-27.8,30.1-39,41.9
		L27,984.1c-1.2-1.1-3.1-1-4.2,0.2s-1,3.1,0.2,4.2l17,15c1.2,1.1,3,1,4.2-0.2c11.2-11.7,30-32.4,41-44c1.2-1.2,1.2-3.1,0-4.2
		C84.6,954.6,83.7,954.3,82.9,954.3L82.9,954.3z"/>
</g>
</svg>
