<?xml version="1.0" encoding="utf-8"?>
<!-- Generator: Adobe Illustrator 22.0.1, SVG Export Plug-In . SVG Version: 6.00 Build 0)  -->
<svg version="1.1" id="katman_1" xmlns="http://www.w3.org/2000/svg" xmlns:xlink="http://www.w3.org/1999/xlink" x="0px" y="0px"
	 viewBox="0 0 90 72.8" style="enable-background:new 0 0 90 72.8;" xml:space="preserve">
<path d="M86.3,0H3.7C1.7,0,0,1.4,0,3.2v55.5c0,2.1,1.7,3.7,3.7,3.7h30.4v8.1h-2.8v2.3h29.3v-2.3h-3.3v-8.1h29c2,0,3.7-1.7,3.7-3.7
	V3.2C90,1.4,88.3,0,86.3,0z M43.1,58.4c0-1,0.8-1.8,1.8-1.8s1.8,0.8,1.8,1.8s-0.8,1.8-1.8,1.8C43.9,60.2,43.1,59.4,43.1,58.4z
	 M86.2,51.7H3.7V4.4h82.5V51.7z"/>
</svg>
