<?xml version="1.0" encoding="iso-8859-1"?>
<!-- Generator: Adobe Illustrator 19.0.0, SVG Export Plug-In . SVG Version: 6.00 Build 0)  -->
<svg version="1.1" id="Layer_1" xmlns="http://www.w3.org/2000/svg" xmlns:xlink="http://www.w3.org/1999/xlink" x="0px" y="0px"
	 viewBox="0 0 512 512" style="enable-background:new 0 0 512 512;" xml:space="preserve">
<polygon style="fill:#F25B22;" points="256.426,9.268 9.268,9.268 9.268,502.732 256.426,502.732 502.732,502.732 502.732,9.268 "/>
<rect x="9.268" y="9.268" style="fill:#F04925;" width="247.158" height="493.463"/>
<path d="M512,512H0V0h512V512z M18.537,493.463h474.926V18.537H18.537V493.463z"/>
<g>
	<path style="fill:#E7ECED;" d="M434.874,114.125c0,13.631-11.036,24.679-24.666,24.679c-13.631,0-24.679-11.048-24.679-24.679
		c0-13.618,11.048-24.666,24.679-24.666C423.839,89.459,434.874,100.507,434.874,114.125z"/>
	<rect x="385.529" y="175.816" style="fill:#E7ECED;" width="49.345" height="240.559"/>
	<path style="fill:#E7ECED;" d="M255.994,114.125l92.524,302.249h-61.678l-43.178-117.202h-67.845l-37.012,117.202H77.113
		l92.536-302.249C169.649,114.125,255.994,114.125,255.994,114.125z M243.661,249.827l-18.5-67.845h-24.679l-18.5,67.845H243.661z"
		/>
</g>
<path d="M361.047,425.643h-80.67l-43.178-117.202h-54.59l-37.011,117.202H64.584l98.211-320.786h100.057L361.047,425.643z
	 M293.302,407.106h42.684l-86.848-283.713h-72.632L89.644,407.106h42.367l37.011-117.202h81.102L293.302,407.106z"/>
<path d="M444.144,425.643h-67.883V166.547h67.883V425.643z M394.798,407.106h30.809V185.084h-30.809V407.106z"/>
<path d="M410.209,148.072c-18.719,0-33.948-15.229-33.948-33.947c0-18.712,15.229-33.935,33.948-33.935
	c18.712,0,33.935,15.222,33.935,33.935C444.144,132.844,428.92,148.072,410.209,148.072z M410.209,98.727
	c-8.497,0-15.412,6.907-15.412,15.398c0,8.497,6.914,15.41,15.412,15.41c8.49,0,15.398-6.913,15.398-15.41
	C425.607,105.634,418.699,98.727,410.209,98.727z"/>
<path d="M255.796,259.096h-85.948l23.557-86.382h38.837L255.796,259.096z M194.117,240.559h37.409l-13.444-49.308h-10.52
	L194.117,240.559z"/>
<g>
	<polygon style="fill:#FFFFFF;" points="475.779,82.254 457.242,82.254 457.242,55.685 428.201,55.685 428.201,37.148 
		475.779,37.148 	"/>
	<rect x="441.795" y="457.316" style="fill:#FFFFFF;" width="25.952" height="18.537"/>
	<polygon style="fill:#FFFFFF;" points="129.14,475.853 39.545,475.853 39.545,433.218 58.082,433.218 58.082,457.316 
		129.14,457.316 	"/>
	<polygon style="fill:#FFFFFF;" points="55.611,82.254 37.074,82.254 37.074,37.148 84.652,37.148 84.652,55.685 55.611,55.685 	"/>
</g>
<g>
</g>
<g>
</g>
<g>
</g>
<g>
</g>
<g>
</g>
<g>
</g>
<g>
</g>
<g>
</g>
<g>
</g>
<g>
</g>
<g>
</g>
<g>
</g>
<g>
</g>
<g>
</g>
<g>
</g>
</svg>
