<?xml version="1.0" encoding="iso-8859-1"?>
<!-- Generator: Adobe Illustrator 19.0.0, SVG Export Plug-In . SVG Version: 6.00 Build 0)  -->
<svg version="1.1" id="Layer_1" xmlns="http://www.w3.org/2000/svg" xmlns:xlink="http://www.w3.org/1999/xlink" x="0px" y="0px"
	 viewBox="0 0 512 512" style="enable-background:new 0 0 512 512;" xml:space="preserve">
<path style="fill:#25B6D2;" d="M256,90.624l180.472,129.968V496H75.528V220.592L256,90.624 M256,70.904L59.528,212.4V512h392.944
	V212.4L256,70.912V70.904z"/>
<polygon style="fill:#415E72;" points="256,0 20.024,168.776 20.024,207.176 256,38.4 491.976,207.176 491.976,168.776 "/>
<polygon style="fill:#2C3E50;" points="162.144,271.544 156.864,265.528 257.72,177.08 355.048,265.576 349.672,271.496 
	257.624,187.808 "/>
<circle style="fill:#415E72;" cx="257.68" cy="190.096" r="22.992"/>
<circle style="fill:#517A91;" cx="257.68" cy="190.096" r="11.984"/>
<rect x="98.944" y="259.256" style="fill:#E04F5F;" width="314.16" height="188.8"/>
<g>
	<path style="fill:#FFFFFF;" d="M133.168,375.552c5.416,3.008,11.496,4.616,17.688,4.664c8.576,0,13.352-4,13.352-9.984
		c0-5.528-3.688-8.8-13.024-12.16c-12.048-4.336-19.752-10.744-19.752-21.264c0-11.936,9.984-21.056,25.832-21.056
		c6.072-0.176,12.104,1.088,17.6,3.688l-3.248,10.744c-4.496-2.32-9.488-3.512-14.544-3.472c-8.464,0-12.16,4.552-12.16,8.8
		c0,5.64,4.232,8.248,14,12.048c12.704,4.8,18.88,11.2,18.88,21.704c0,11.72-8.896,21.92-27.784,21.92
		c-6.848,0.056-13.616-1.504-19.752-4.552L133.168,375.552z"/>
	<path style="fill:#FFFFFF;" d="M254.736,352.8c0,24.52-14.864,38.52-35.056,38.52c-20.616,0-33.64-15.736-33.64-37.224
		c0-22.464,14.112-38.304,34.728-38.304C242.144,315.76,254.736,331.928,254.736,352.8z M200.152,353.888
		c0,14.864,7.496,26.696,20.296,26.696s20.176-11.936,20.176-27.24c0-13.784-6.832-26.808-20.176-26.808
		s-20.304,12.232-20.304,27.312L200.152,353.888z"/>
	<path style="fill:#FFFFFF;" d="M266.256,316.952h13.352v61.96h30.056v11.2h-43.408V316.952z"/>
	<path style="fill:#FFFFFF;" d="M319.776,317.928c7.04-1.064,14.152-1.576,21.272-1.52c10.64-0.848,21.232,2.16,29.84,8.472
		c7.816,6.68,12.04,16.648,11.392,26.912c0.568,10.88-3.584,21.48-11.392,29.08c-9.448,7.256-21.224,10.808-33.104,9.984
		c-6.016,0.048-12.04-0.28-18.016-0.976L319.776,317.928z M333.128,379.888c2.448,0.296,4.912,0.4,7.376,0.328
		c17.368,0.112,27.672-9.448,27.672-28c1.304-12.744-7.968-24.136-20.712-25.448c-1.736-0.176-3.488-0.16-5.216,0.056
		c-3.056-0.072-6.12,0.176-9.12,0.76V379.888z"/>
</g>
<g>
</g>
<g>
</g>
<g>
</g>
<g>
</g>
<g>
</g>
<g>
</g>
<g>
</g>
<g>
</g>
<g>
</g>
<g>
</g>
<g>
</g>
<g>
</g>
<g>
</g>
<g>
</g>
<g>
</g>
</svg>
