<svg xmlns="http://www.w3.org/2000/svg" width="20.198" height="15.148" viewBox="0 0 20.198 15.148"><defs><style>.a{fill:#b1c100;}</style></defs><path class="a" d="M19.815,69a.237.237,0,0,1,.383.185v8.067A1.894,1.894,0,0,1,18.3,79.148H1.894A1.894,1.894,0,0,1,0,77.255V69.191a.236.236,0,0,1,.383-.185c.884.686,2.055,1.558,6.079,4.481.832.608,2.237,1.886,3.637,1.878,1.408.012,2.84-1.294,3.641-1.878C17.764,70.564,18.931,69.689,19.815,69ZM10.1,74.1c.915.016,2.233-1.152,2.9-1.633,5.235-3.8,5.633-4.13,6.84-5.077a.944.944,0,0,0,.363-.746v-.75A1.894,1.894,0,0,0,18.3,64H1.894A1.894,1.894,0,0,0,0,65.894v.75a.95.95,0,0,0,.363.746c1.207.943,1.606,1.278,6.84,5.077.663.481,1.98,1.649,2.9,1.633Z" transform="translate(0 -64)"/></svg>