<svg xmlns="http://www.w3.org/2000/svg" width="13.71" height="16" viewBox="0 0 13.71 16"><defs><style>.a{fill:#fff;}</style></defs><path class="a" d="M5.834,38.356q-.1.177-2.5,4.41a.75.75,0,0,1-.632.446H.374a.34.34,0,0,1-.3-.514l2.464-4.331q.011,0,0-.011l-1.568-2.7a.318.318,0,0,1,.3-.5H3.6a.74.74,0,0,1,.643.436ZM13.686,32.5,8.544,41.537v.011L11.815,47.5a.32.32,0,0,1-.3.5H9.183a.711.711,0,0,1-.643-.436l-3.3-6.017q.177-.311,5.17-9.112A.72.72,0,0,1,11.036,32h2.346a.325.325,0,0,1,.3.5Z" transform="translate(-0.025 -32)"/></svg>