<svg xmlns="http://www.w3.org/2000/svg" viewBox="0 0 34 57.9"><path d="M19 7V1c0-.6-.4-1-1-1h-.2c-.4.1-.8.5-.8 1v6h2zM8 7V1c0-.6-.4-1-1-1h-.1C6.4.1 6 .5 6 1v6h2zM6 50.9v6c0 .6.4 1 1 1s1-.4 1-1v-6H6zm11 0v6c0 .6.4 1 1 1s1-.4 1-1v-6h-2z" fill="#07495d"/><path d="M24.3 28.3c3.4-2 5.8-5.6 5.8-9.8C30 12.3 25.1 7.3 19 7H.8c-.5.1-.8.5-.8 1v42c0 .6.4 1 1 1h21.5C28.9 51 34 45.8 34 39.5c0-5.8-4.3-10.3-9.7-11.2zM2 9h16.5c5.3 0 9.5 4.2 9.5 9.5 0 5-3.8 9-8.6 9.4-.1 0-.2 0-.3.1H2V9zm20.5 40H2V30h20.5c5.3 0 9.5 4.2 9.5 9.5S27.8 49 22.5 49z" fill="#0f8a64"/></svg>