<svg version="1.1" id="katman_1" xmlns="http://www.w3.org/2000/svg" x="0" y="0" viewBox="0 0 70.4 56.3" xml:space="preserve"><style>.st0{fill:#2c9877}.st1{fill:#094b62}</style><path class="st0" d="M53.6 56.3H5c-2.8 0-5-2.2-5-5V16.9c0-2.8 2.2-5 5-5h48.6c2.8 0 5 2.2 5 5v34.4c0 2.8-2.3 5-5 5zM5 13.9c-1.7 0-3 1.3-3 3v34.4c0 1.7 1.3 3 3 3h48.6c1.7 0 3-1.3 3-3V16.9c0-1.7-1.3-3-3-3H5z"/><path class="st0" d="M50.3 51H37.5c-1.7 0-3-1.3-3-3v-6.5c0-1.7 1.3-3 3-3h12.8c1.7 0 3 1.3 3 3V48c0 1.7-1.4 3-3 3zM37.5 40.5c-.6 0-1 .4-1 1V48c0 .6.4 1 1 1h12.8c.6 0 1-.4 1-1v-6.5c0-.6-.4-1-1-1H37.5z"/><path class="st1" d="M65.6 44.4h-3.8c-.6 0-1-.4-1-1s.4-1 1-1h3.8c1.6 0 2.8-1.3 2.8-3V5c0-1.7-1.3-3-3-3H16.9c-1.7 0-3 1.3-3 2.8v3.8c0 .6-.4 1-1 1s-1-.4-1-1V4.8c0-2.7 2.2-4.8 5-4.8h48.6c2.8 0 5 2.2 5 5v34.4c-.1 2.8-2.2 5-4.9 5z"/><path class="st1" d="M65.4 8.5H16.9c-.6 0-1-.4-1-1s.4-1 1-1h48.6c.6 0 1 .4 1 1s-.5 1-1.1 1zm0 7.6h-3.7c-.6 0-1-.4-1-1s.4-1 1-1h3.7c.6 0 1 .4 1 1s-.4 1-1 1z"/></svg>