<svg version="1.1" id="katman_1" xmlns="http://www.w3.org/2000/svg" x="0" y="0" viewBox="0 0 77 77" xml:space="preserve"><style>.st0{fill:#07495d}.st1{fill:#0f8a64}</style><path class="st0" d="M1 23h8.2v8.3H3c-.6 0-1 .4-1 1s.4 1 1 1h7.1c.6 0 1-.4 1-1V23h6.2v4.8c0 .6.4 1 1 1H23v4.6c0 .6.4 1 1 1s1-.4 1-1v-5.6c0-.6-.4-1-1-1h-4.6V23H22c.6 0 1-.4 1-1V11.6h4.6v8.8c0 .6.4 1 1 1h5.1v5c0 .6.4 1 1 1s1-.4 1-1v-6c0-.6-.4-1-1-1h-5.1v-7.8h4.8c.6 0 1-.4 1-1V4.4c0-.6-.4-1-1-1s-1 .4-1 1v5.1H23V1c0-.6-.4-1-1-1H1C.4 0 0 .4 0 1v21c0 .5.4 1 1 1zM2 2h19v19H2V2z"/><path class="st0" d="M12.9 10.5H9.6c-.6 0-1 .4-1 1s.4 1 1 1h3.3c.6 0 1-.4 1-1s-.5-1-1-1zm-3.3 56h3.3c.6 0 1-.4 1-1s-.4-1-1-1H9.6c-.6 0-1 .4-1 1s.5 1 1 1z"/><path class="st1" d="M76 23c.6 0 1-.4 1-1V1c0-.6-.4-1-1-1H55c-.6 0-1 .4-1 1v9.5h-9.4V4.8c0-.6-.4-1-1-1s-1 .4-1 1v6.7c0 .6.4 1 1 1H54V22c0 .6.4 1 1 1h14.3v4.8h-5.7c-.6 0-1 .4-1 1v8.8H49.2c-.6 0-1 .4-1 1s.4 1 1 1h7.3v9.3h-11c-.6 0-1 .4-1 1s.4 1 1 1h12c.6 0 1-.4 1-1V39.5h5.1c.6 0 1-.4 1-1v-8.8H76c.6 0 1-.4 1-1s-.4-1-1-1h-4.7V23H76zm-20-2V2h19v19H56z"/><path class="st1" d="M66.9 10.5h-3.3c-.6 0-1 .4-1 1s.4 1 1 1h3.3c.6 0 1-.4 1-1s-.4-1-1-1z"/><path class="st0" d="M37.5 61.8c0 .6.4 1 1 1s1-.4 1-1V55c0-.6-.4-1-1-1h-6.9c-.6 0-1 .4-1 1v2.1H26c-.6 0-1 .4-1 1s.4 1 1 1h4.6v7.4H23V55c0-.6-.4-1-1-1h-8.1v-4H26c.6 0 1-.4 1-1s-.4-1-1-1h-3.6v-7.6h7.3c.6 0 1-.4 1-1v-7.1c0-.6-.4-1-1-1s-1 .4-1 1v6.1H6.6c-.6 0-1 .4-1 1s.4 1 1 1h13.8V48h-7.5c-.6 0-1 .4-1 1v5H9.4v-8c0-.6-.4-1-1-1H1c-.6 0-1 .4-1 1s.4 1 1 1h6.4v7H1c-.6 0-1 .4-1 1v21c0 .6.4 1 1 1h21c.6 0 1-.4 1-1v-7.5h7.6V76c0 .6.4 1 1 1s1-.4 1-1V56h4.9v5.8zM21 75H2V56h19v19zm24.3-4.5h-5.8v-2.4c0-.6-.4-1-1-1s-1 .4-1 1v3.4c0 .6.4 1 1 1h6.8c.6 0 1-.4 1-1s-.5-1-1-1z"/><path class="st1" d="M53.9 54h-8.6c-.6 0-1 .4-1 1v4.3c0 .6.4 1 1 1s1-.4 1-1V56h6.6v3.3c0 .6.4 1 1 1h6c.6 0 1-.4 1-1s-.4-1-1-1h-5V55c0-.5-.5-1-1-1z"/><path class="st0" d="M43.7 42.1h-8.6c-.6 0-1 .4-1 1V49c0 .6.4 1 1 1s1-.4 1-1v-4.9h7.6c.6 0 1-.4 1-1s-.5-1-1-1z"/><path class="st1" d="M76 57.1h-5.3v-6.4c0-.6-.4-1-1-1s-1 .4-1 1v7.4c0 .6.4 1 1 1H76c.6 0 1-.4 1-1s-.4-1-1-1zm-34.1-20c.6 0 1-.4 1-1V25.7h5.3v6.6c0 .6.4 1 1 1h7.7c.6 0 1-.4 1-1s-.4-1-1-1h-6.7V17.8c0-.6-.4-1-1-1s-1 .4-1 1v5.9h-6.3c-.6 0-1 .4-1 1v11.4c0 .6.4 1 1 1zm23.4 27.1h-6.9c-.6 0-1 .4-1 1v2.7h-6.7v-3.3c0-.6-.4-1-1-1h-7c-.6 0-1 .4-1 1s.4 1 1 1h6v3.3c0 .6.4 1 1 1h7.7V76c0 .6.4 1 1 1s1-.4 1-1v-9.8h5.9c.6 0 1-.4 1-1s-.5-1-1-1zM76 66.5h-7.1c-.6 0-1 .4-1 1V76c0 .6.4 1 1 1s1-.4 1-1v-7.5H76c.6 0 1-.4 1-1s-.4-1-1-1z"/><path class="st1" d="M76 42.1H64.7c-.6 0-1 .4-1 1v12c0 .6.4 1 1 1s1-.4 1-1v-11H76c.6 0 1-.4 1-1s-.4-1-1-1z"/></svg>