<svg xmlns="http://www.w3.org/2000/svg" viewBox="0 0 72 64.7"><path d="M36.8.038c-12.6-.3-24.3 6.7-29.9 18.1-.3.6-.1 1.3.4 1.6.6.3 1.3.1 1.6-.4 0 0 0-.1.1-.1 5.2-10.5 16-17.1 27.8-16.8 11.7.3 22.1 7.3 26.8 18a6.3 6.3 0 0 0-4.1 5.9c0 3.4 2.9 6.2 6.3 6.2s6.2-2.9 6.2-6.3-2.8-6.1-6.1-6.2c0-.1 0-.2-.1-.4-5-11.7-16.4-19.3-29-19.6zm28.9 22.2c2.2 0 3.9 1.7 3.9 3.9s-1.7 3.9-3.9 3.9-3.9-1.7-3.9-3.9c0-2.1 1.7-3.9 3.9-3.9zm-59.5 10c-3.4 0-6.2 2.9-6.2 6.3s2.9 6.2 6.3 6.2h.3c0 .1 0 .3.1.4 5.1 11.7 16.6 19.4 29.4 19.6 12.8.2 24.5-7.2 29.9-18.8.3-.6 0-1.3-.6-1.6-.6-.3-1.3 0-1.6.6-5 10.8-15.8 17.6-27.7 17.5-11.9-.1-22.5-7.2-27.3-18.1 2.2-1 3.7-3.2 3.7-5.7 0-3.6-2.9-6.4-6.3-6.4zm0 2.4c2.2 0 3.9 1.7 3.9 3.9s-1.7 3.9-3.9 3.9-3.9-1.7-3.9-3.9 1.7-3.9 3.9-3.9z" fill="#07495d"/><path d="M35.8 16.1c-.6 0-1.1.5-1.1 1.1v3.6c-3 .6-5.1 3.5-4.9 6.7.2 3.3 2.8 5.9 6 6h.3c1.7 0 3.1 1.1 3.7 2.7.6 1.6.1 3.4-1.1 4.6-1.3 1.1-3 1.3-4.5.6s-2.3-2.4-2.1-4.2c.1-.6-.3-1.2-1-1.3-.6-.1-1.2.3-1.3 1v.1c-.3 2.6 1 5.2 3.3 6.4.5.3 1 .4 1.5.5v3.5c0 .6.5 1.1 1.1 1.1.6 0 1.1-.5 1.1-1.1V44c1.2-.2 2.4-.7 3.3-1.5 1.9-1.8 2.6-4.5 1.7-7s-3.2-4.2-5.8-4.2h-.3c-2 0-3.6-1.6-3.8-3.9-.1-2.2 1.3-4.1 3.3-4.4 1.9-.3 3.8 1 4.3 3.1.1.6.7 1 1.3.9s1-.7.9-1.3v-.1c-.5-2.5-2.5-4.4-4.8-4.8v-3.6c0-.6-.5-1.1-1.1-1.1z" fill="#0f8a64"/></svg>