<?xml version="1.0" encoding="UTF-8"?>
<svg width="101px" height="38px" viewBox="0 0 101 38" version="1.1" xmlns="http://www.w3.org/2000/svg" xmlns:xlink="http://www.w3.org/1999/xlink">
    <!-- Generator: Sketch 47 (45396) - http://www.bohemiancoding.com/sketch -->
    <title>Icons/PlatformLogos</title>
    <desc>Created with Sketch.</desc>
    <defs></defs>
    <g id="Design---Mobile" stroke="none" stroke-width="1" fill="none" fill-rule="evenodd">
        <g id="Landing-Page" transform="translate(-138.000000, -1978.000000)">
            <g id="Content">
                <g id="Platforms" transform="translate(0.000000, 1904.000000)">
                    <g id="Icons/PlatformLogos" transform="translate(134.000000, 74.000000)">
                        <g id="Android-Logo" transform="translate(69.000000, 0.000000)">
                            <rect id="Form" x="0" y="0" width="38" height="38"></rect>
                            <path d="M26.7392606,29.5307298 L26.8554372,29.5307298 C28.4882518,29.5307298 29.803417,28.1949668 29.803417,26.537255 L29.803417,11.1215176 C29.803417,11.0295798 29.8000786,10.9383082 29.7924002,10.8487022 L8.21110511,10.8487022 C8.20325986,10.9386414 8.19641612,11.0295798 8.19641612,11.1215176 L8.19641612,26.537255 C8.19641612,28.1951334 9.51158132,29.5307298 11.144229,29.5307298 L11.2609063,29.5307298 L11.2609063,35.6282712 C11.2609063,36.9382183 12.3251902,38 13.6378516,38 C14.95068,38 16.0149639,36.9382183 16.0149639,35.6282712 L16.0149639,29.5307298 L21.985203,29.5307298 L21.985203,35.6282712 C21.985203,36.9382183 23.049487,38 24.3621484,38 C25.6749767,38 26.7392606,36.9382183 26.7392606,35.6282712 L26.7392606,29.5307298 L26.7392606,29.5307298 Z M4.37711228,12.2206074 C5.68977368,12.2206074 6.75405764,13.2825556 6.75405764,14.5925027 L6.75405764,24.7672858 C6.75405764,26.0772329 5.68977368,27.1391811 4.37711228,27.1391811 C3.06428396,27.1391811 2,26.0772329 2,24.7674523 L2,14.5926693 C1.99983308,13.2827222 3.06411704,12.2206074 4.37711228,12.2206074 Z M33.6230546,12.2206074 C34.935716,12.2206074 36,13.2825556 36,14.5925027 L36,24.7672858 C36,26.0772329 34.935716,27.1391811 33.6230546,27.1391811 C32.3102263,27.1391811 31.2459424,26.0772329 31.2459424,24.7674523 L31.2459424,14.5926693 C31.2459424,13.2827222 32.3102263,12.2206074 33.6230546,12.2206074 Z M27.0964042,3.85418989 C28.7039276,5.4598599 29.6871865,7.54848861 29.7191222,9.83605396 L8.28054396,9.83605396 C8.31248025,7.54828666 9.29585171,5.45957978 10.9034693,3.85391428 L8.89046209,0.374784111 C8.82132369,0.255290496 8.86235772,0.102497037 8.98211416,0.0335103699 C9.1018706,-0.0354762977 9.25500012,0.00546767331 9.32413853,0.124961289 L11.2768062,3.49980516 C12.9671938,1.97682843 15.2506552,0.952746473 17.8053513,0.70689684 L20.1943149,0.70689684 C22.7492157,0.952830775 25.0327184,1.97702408 26.723078,3.5000692 L28.676032,0.124955052 C28.7451739,0.00546342543 28.8983046,-0.0354761414 29.018059,0.0335139704 C29.1378135,0.102504082 29.1788431,0.255298721 29.1097012,0.374790348 L27.0964042,3.85418989 Z M15.8066474,5.59259149 L15.8066474,5.58592933 C15.8046443,4.92371067 15.2524719,4.38890582 14.57344,4.39073792 C13.8942412,4.39257001 13.3452403,4.93053939 13.3470764,5.59259149 L13.3470764,5.59925364 C13.3490795,6.26113919 13.9012519,6.79611059 14.5802838,6.79444505 C15.2596495,6.79261296 15.8086504,6.25447703 15.8066474,5.59259149 Z M24.9865973,5.59259149 L24.9865973,5.58592933 C24.9845942,4.92371067 24.4324218,4.38890582 23.75339,4.39073792 C23.0741912,4.39257001 22.5251902,4.93053939 22.5270264,5.59259149 L22.5270264,5.59925364 C22.5290294,6.26113919 23.0812018,6.79611059 23.7602337,6.79444505 C24.4395994,6.79261296 24.9886003,6.25447703 24.9865973,5.59259149 Z" id="Android" fill="#FFFFFF" fill-rule="nonzero"></path>
                        </g>
                        <text id="&amp;" font-family="OpenSans-Semibold, Open Sans" font-size="14" font-weight="500" fill="#FFFFFF">
                            <tspan x="48" y="25">&amp;</tspan>
                        </text>
                        <g id="Appe-Logo">
                            <rect id="Form" x="0" y="0" width="38" height="38"></rect>
                            <path d="M21.1043314,3.30685298 C23.6027969,0.0160432903 27.0762612,0 27.0762612,0 C27.0762612,0 27.5929331,3.09392044 25.1108341,6.07435176 C22.4605717,9.25679121 19.4481829,8.73603974 19.4481829,8.73603974 C19.4481829,8.73603974 18.8825362,6.23316161 21.1043314,3.30685298 Z M19.765957,10.9033197 C21.0512962,10.9033197 23.4368198,9.13768383 26.5419109,9.13768383 C31.886788,9.13768383 33.989457,12.9383206 33.989457,12.9383206 C33.989457,12.9383206 29.8770088,15.0394922 29.8770088,20.1378875 C29.8770088,25.8893135 35,27.8714401 35,27.8714401 C35,27.8714401 31.4188411,37.9441918 26.581703,37.9441918 C24.3600326,37.9441918 22.6327956,36.4480458 20.2919366,36.4480458 C17.906413,36.4480458 15.5391301,38 13.9972978,38 C9.58025612,38.0001249 4,28.4450658 4,20.7643874 C4,13.2076855 8.72332168,9.24355706 13.1536065,9.24355706 C16.0336883,9.24355706 18.2686643,10.9033197 19.765957,10.9033197 Z" id="Shape" fill="#FFFFFF" fill-rule="nonzero"></path>
                        </g>
                    </g>
                </g>
            </g>
        </g>
    </g>
</svg>