<?xml version="1.0" encoding="UTF-8"?>
<svg width="87px" height="16px" viewBox="0 0 87 16" version="1.1" xmlns="http://www.w3.org/2000/svg" xmlns:xlink="http://www.w3.org/1999/xlink">
    <!-- Generator: Sketch 47 (45396) - http://www.bohemiancoding.com/sketch -->
    <title>Icons/SmartFestLogo_Light</title>
    <desc>Created with Sketch.</desc>
    <defs></defs>
    <g id="Design---Mobile" stroke="none" stroke-width="1" fill="none" fill-rule="evenodd">
        <g id="Landing-Page" transform="translate(-24.000000, -25.000000)" fill="#FFFFFF">
            <g id="Content">
                <g id="Hero">
                    <g id="Nav" transform="translate(10.000000, 10.000000)">
                        <path d="M16.9701356,21.7067031 C15.1291871,21.3216626 14.2262414,20.3626778 14.2262414,18.8227765 C14.2262414,16.9188167 15.7591705,15.6658223 18.0901349,15.6658223 C20.2783952,15.6658223 21.8375845,16.8700105 21.9495323,18.6199932 C21.95266,18.6691903 21.9125856,18.7107635 21.863193,18.7107635 L20.0402944,18.7107635 C19.9976786,18.7107635 19.9625565,18.6794207 19.9551932,18.6373263 C19.8218072,17.8803428 19.0944071,17.3808131 18.1041447,17.3808131 C17.0471567,17.3808131 16.3471897,17.870764 16.3471897,18.6407147 C16.3471897,19.2637257 16.8301682,19.6207467 18.013179,19.872727 L19.2311163,20.1317447 C21.2610337,20.5586842 22.1360251,21.4336756 22.1360251,23.0015965 C22.1360251,25.0385513 20.5750765,26.2845734 18.0411333,26.2845734 C15.6723099,26.2845734 14.1232208,25.1398126 14,23.302448 C14.0009123,23.2563787 14.039488,23.2185849 14.0864696,23.2185849 L15.964886,23.2185849 C16.0076321,23.2185849 16.0426239,23.2501232 16.0500523,23.2921525 C16.1874784,24.0689452 16.9991325,24.5626102 18.1531463,24.5626102 C19.2520984,24.5626102 20.0290866,24.0306301 20.0290866,23.2676517 C20.0290866,22.6236586 19.5251259,22.252693 18.2861413,21.9866378 L16.9701356,21.7067031 Z M40.4584533,15.92484 L42.8208908,15.92484 C42.8575769,15.92484 42.8902229,15.9481028 42.9022126,15.9827688 L46.3493319,25.9111317 C46.3687501,25.9671707 46.3271769,26.0255556 46.2679449,26.0255556 L44.1631568,26.0255556 C44.1256236,26.0255556 44.0923911,26.0012503 44.081053,25.9654114 L43.3561291,23.6777795 C43.3447909,23.6419405 43.3116236,23.6176352 43.2740253,23.6176352 L39.8509507,23.6176352 C39.8135479,23.6176352 39.7804458,23.641745 39.7689773,23.6773233 L39.0305649,25.9658675 C39.0190313,26.0014458 38.9859291,26.0255556 38.9485263,26.0255556 L37.0113992,26.0255556 C36.9521672,26.0255556 36.9106592,25.9671707 36.9300123,25.9111317 L40.3771315,15.9827688 C40.3891213,15.9481028 40.4217673,15.92484 40.4584533,15.92484 Z M41.4910056,18.084755 L40.2791935,21.874299 C40.2613392,21.9299471 40.302782,21.9866378 40.3611669,21.9866378 L42.7715634,21.9866378 C42.829818,21.9866378 42.8712608,21.9301426 42.8537323,21.8745596 L41.6552131,18.0849505 C41.643875,18.0491767 41.6106425,18.0248062 41.5730442,18.0248062 C41.5355763,18.0248062 41.5024089,18.0490464 41.4910056,18.084755 Z M48.1971223,15.92484 L52.3528099,15.92484 C54.5718265,15.92484 55.9367036,17.1568524 55.9367036,19.1657225 C55.9367036,20.421193 55.2983795,21.5168871 54.1900441,21.9993443 C54.1435838,22.0195444 54.1233185,22.0743454 54.1472329,22.1190464 L56.1631405,25.8988161 C56.1937665,25.9562236 56.1522585,26.0255556 56.0872271,26.0255556 L53.8893228,26.0255556 C53.8570678,26.0255556 53.8275496,26.007571 53.8127578,25.9788347 L51.9779346,22.4114269 C51.9631429,22.3827558 51.9335595,22.364706 51.9013045,22.364706 L50.3110983,22.364706 C50.2634651,22.364706 50.2249545,22.4032165 50.2249545,22.4508497 L50.2249545,25.9394118 C50.2249545,25.9869799 50.1863136,26.0255556 50.1387456,26.0255556 L48.1971223,26.0255556 C48.1495543,26.0255556 48.1109785,25.9869799 48.1109785,25.9394118 L48.1109785,16.011049 C48.1109785,15.9634158 48.1495543,15.92484 48.1971223,15.92484 Z M50.2249545,17.7189372 L50.2249545,20.6546022 C50.2249545,20.7021703 50.2634651,20.740746 50.3110983,20.740746 L52.0798475,20.740746 C53.143873,20.740746 53.7668188,20.1666714 53.7668188,19.193742 C53.7668188,18.2348224 53.108816,17.6327934 52.0588655,17.6327934 L50.3110983,17.6327934 C50.2634651,17.6327934 50.2249545,17.671304 50.2249545,17.7189372 Z M57.5698513,15.92484 L65.5732723,15.92484 C65.6209055,15.92484 65.6594161,15.9634158 65.6594161,16.011049 L65.6594161,17.6446529 C65.6594161,17.6922209 65.6209055,17.7307966 65.5732723,17.7307966 L62.7147587,17.7307966 C62.6671255,17.7307966 62.6285498,17.7693724 62.6285498,17.8169404 L62.6285498,25.9394118 C62.6285498,25.9869799 62.5899741,26.0255556 62.542406,26.0255556 L60.6007828,26.0255556 C60.5531496,26.0255556 60.5145738,25.9869799 60.5145738,25.9394118 L60.5145738,17.8169404 C60.5145738,17.7693724 60.4760633,17.7307966 60.4284301,17.7307966 L57.5698513,17.7307966 C57.5222833,17.7307966 57.4837075,17.6922209 57.4837075,17.6446529 L57.4837075,16.011049 C57.4837075,15.9634158 57.5222833,15.92484 57.5698513,15.92484 Z M67.6845115,15.92484 L73.504038,15.92484 C73.5516712,15.92484 73.5901818,15.9634158 73.5901818,16.011049 L73.5901818,16.7066502 C73.5901818,16.7542182 73.5516712,16.7928591 73.504038,16.7928591 L68.6434963,16.7928591 C68.5959282,16.7928591 68.5573525,16.8314348 68.5573525,16.8790029 L68.5573525,20.50056 C68.5573525,20.548128 68.5959282,20.5867038 68.6434963,20.5867038 L73.0980806,20.5867038 C73.1456486,20.5867038 73.1842244,20.6252795 73.1842244,20.6728475 L73.1842244,21.3545041 C73.1842244,21.4021373 73.1456486,21.4406479 73.0980806,21.4406479 L68.6434963,21.4406479 C68.5959282,21.4406479 68.5573525,21.4792236 68.5573525,21.5268568 L68.5573525,25.9394118 C68.5573525,25.9869799 68.5188419,26.0255556 68.4712087,26.0255556 L67.6845115,26.0255556 C67.6369434,26.0255556 67.5983677,25.9869799 67.5983677,25.9394118 L67.5983677,16.011049 C67.5983677,15.9634158 67.6369434,15.92484 67.6845115,15.92484 Z M75.7693194,15.92484 L81.7007938,15.92484 C81.748427,15.92484 81.7869375,15.9634158 81.7869375,16.011049 L81.7869375,16.7066502 C81.7869375,16.7542182 81.748427,16.7928591 81.7007938,16.7928591 L76.7283042,16.7928591 C76.680671,16.7928591 76.6420953,16.8314348 76.6420953,16.8790029 L76.6420953,20.3395454 C76.6420953,20.3871786 76.680671,20.4257543 76.7283042,20.4257543 L81.4418411,20.4257543 C81.4894743,20.4257543 81.5279849,20.4642649 81.5279849,20.5118981 L81.5279849,21.1935547 C81.5279849,21.2411227 81.4894743,21.2796985 81.4418411,21.2796985 L76.7283042,21.2796985 C76.680671,21.2796985 76.6420953,21.3182742 76.6420953,21.3658422 L76.6420953,25.0713928 C76.6420953,25.119026 76.680671,25.1575366 76.7283042,25.1575366 L81.7007938,25.1575366 C81.748427,25.1575366 81.7869375,25.1961775 81.7869375,25.2437455 L81.7869375,25.9394118 C81.7869375,25.9869799 81.748427,26.0255556 81.7007938,26.0255556 L75.7693194,26.0255556 C75.7217514,26.0255556 75.6831105,25.9869799 75.6831105,25.9394118 L75.6831105,16.011049 C75.6831105,15.9634158 75.7217514,15.92484 75.7693194,15.92484 Z M86.5538419,21.1466383 C84.6569196,20.6777347 83.8588842,19.8867367 83.8588842,18.5147571 C83.8588842,16.8838248 85.2658557,15.714889 87.3168203,15.714889 C89.2094419,15.714889 90.6183031,16.8098663 90.7736486,18.3022648 C90.7789267,18.3524393 90.738331,18.3957718 90.6877655,18.3957718 L89.8887527,18.3957718 C89.8466582,18.3957718 89.8115361,18.3650807 89.8041076,18.3235075 C89.6178103,17.2854816 88.6572617,16.5898804 87.2888007,16.5898804 C85.8398651,16.5898804 84.838851,17.3877854 84.838851,18.4868027 C84.838851,19.3687664 85.4618621,19.8797644 87.0018286,20.2646746 L88.0027775,20.5167201 C90.0887339,21.0346905 90.9426781,21.8606802 90.9426781,23.2886338 C90.9426781,25.0525611 89.4937424,26.2355066 87.2818284,26.2355066 C85.2347084,26.2355066 83.7472622,25.129908 83.5799921,23.4944144 C83.5748443,23.4441096 83.6154401,23.4006467 83.6659404,23.4006467 L84.4629983,23.4006467 C84.5059399,23.4006467 84.5413227,23.4325108 84.547904,23.4749962 C84.7206477,24.5964943 85.8589575,25.3605804 87.3658219,25.3605804 C88.8777689,25.3605804 89.9627112,24.5136086 89.9627112,23.3936093 C89.9627112,22.4416619 89.2697817,21.8256884 87.7088331,21.4406479 L86.5538419,21.1466383 Z M92.4568406,15.92484 L100.012275,15.92484 C100.059843,15.92484 100.098419,15.9634158 100.098419,16.011049 L100.098419,16.7066502 C100.098419,16.7542182 100.059843,16.7928591 100.012275,16.7928591 L96.7966751,16.7928591 C96.7491071,16.7928591 96.7105314,16.8314348 96.7105314,16.8790029 L96.7105314,25.9394118 C96.7105314,25.9869799 96.6719556,26.0255556 96.6243876,26.0255556 L95.8447278,26.0255556 C95.7971598,26.0255556 95.758584,25.9869799 95.758584,25.9394118 L95.758584,16.8790029 C95.758584,16.8314348 95.7200083,16.7928591 95.6723751,16.7928591 L92.4568406,16.7928591 C92.4092725,16.7928591 92.3706316,16.7542182 92.3706316,16.7066502 L92.3706316,16.011049 C92.3706316,15.9634158 92.4092725,15.92484 92.4568406,15.92484 Z M34.4143144,15.0416383 C34.4460481,15.0132278 34.483451,15.0002606 34.5226783,15 C34.6058246,15.0005865 34.68454,15.0658133 34.68454,15.162383 L34.8148634,27.7419149 C34.8148634,28.7838505 34.0390482,29.8270893 32.925174,29.8270893 C31.811365,29.8270893 31.0354846,29.3051441 31.0354846,28.2632085 C31.0354846,27.2212077 32.0719467,26.5038425 33.1858208,26.5038425 C33.2622555,26.5038425 33.3637774,26.5191555 33.4608684,26.5381827 C33.6224694,26.5699816 33.7722761,26.4444802 33.7722761,26.2798817 L33.6419527,20.1298551 C33.6419527,19.9898226 33.4761814,19.9157337 33.3717923,20.0091756 L29.9818199,22.8115849 C29.8840773,22.8989668 29.7409171,22.9127811 29.6283828,22.8455993 L25.9373633,20.8754353 C25.8293904,20.8109903 25.692225,20.8887934 25.692225,21.0146207 L25.8226136,28.9148255 C25.8226136,29.9567611 25.0613294,31 23.9654399,31 C22.8696155,31 22.1083313,30.4780548 22.1083313,29.4361191 C22.1083313,28.3941183 23.1302623,27.6767532 24.2260867,27.6767532 C24.2998497,27.6767532 24.3985045,27.6850939 24.4921419,27.6952591 C24.6456629,27.7120708 24.7799611,27.5924339 24.7799611,27.4379355 L24.6497029,16.7298477 C24.6497029,16.6040205 24.7868031,16.5262174 24.8947761,16.5906623 L29.4742754,19.3246519 C29.5770354,19.3860342 29.7076194,19.3733928 29.7966955,19.2935698 L34.4143144,15.0416383 Z" id="Icons/SmartFestLogo_Light"></path>
                    </g>
                </g>
            </g>
        </g>
    </g>
</svg>