<?xml version="1.0" encoding="utf-8"?>
<!-- Generator: Adobe Illustrator 21.0.0, SVG Export Plug-In . SVG Version: 6.00 Build 0)  -->
<svg version="1.1" id="katman_1" xmlns="http://www.w3.org/2000/svg" xmlns:xlink="http://www.w3.org/1999/xlink" x="0px" y="0px"
	 viewBox="0 0 512 512" style="enable-background:new 0 0 512 512;" xml:space="preserve">
<style type="text/css">
	.st0{fill:url(#SVGID_1_);}
	.st1{fill:url(#SVGID_2_);}
</style>
<g id="Bitcoin">
	<linearGradient id="SVGID_1_" gradientUnits="userSpaceOnUse" x1="176" y1="256.0001" x2="320.0003" y2="256.0001">
		<stop  offset="0" style="stop-color:#096987"/>
		<stop  offset="1" style="stop-color:#5700B1"/>
	</linearGradient>
	<path class="st0" d="M320,216c0-26.5-21.5-48-48-48v-24c0-4.4-3.6-8-8-8s-8,3.6-8,8v24h-15.9l-0.1-24c0-4.4-3.6-8-8-8l0,0
		c-4.4,0-8,3.6-8,8l0.1,24H184c-4.4,0-8,3.6-8,8s3.6,8,8,8h24v144h-24c-4.4,0-8,3.6-8,8s3.6,8,8,8h40v24c0,4.4,3.6,8,8,8s8-3.6,8-8
		v-24h16.1l-0.1,24c0,4.4,3.5,8,8,8l0,0l0,0c4.4,0,8-3.6,8-8l0.2-24c26.5-0.1,47.9-21.7,47.8-48.2c-0.1-16-8.1-30.9-21.5-39.8
		C311.9,247.1,320,232.1,320,216z M304,296c0,17.7-14.3,32-32,32h-48v-64h48C289.7,264,304,278.3,304,296z M272,248h-48v-64h48
		c17.7,0,32,14.3,32,32S289.7,248,272,248z"/>
	<linearGradient id="SVGID_2_" gradientUnits="userSpaceOnUse" x1="15.984" y1="256.0001" x2="496.016" y2="256.0001">
		<stop  offset="0" style="stop-color:#096987"/>
		<stop  offset="1" style="stop-color:#5700B1"/>
	</linearGradient>
	<path class="st1" d="M488,264c4.4,0,8-3.6,8-8s-3.6-8-8-8h-80.4c-0.5-10.8-2.3-21.5-5.1-32H448c13.3,0,24-10.7,24-24v-25.1
		c17.1-4.4,27.4-21.9,23-39s-21.9-27.4-39-23s-27.4,21.9-23,39c2.9,11.3,11.7,20.1,23,23V192c0,4.4-3.6,8-8,8h-50.8
		c-13.2-33.2-37.7-60.8-69.2-77.8V80c0-4.4,3.6-8,8-8h17.1c4.4,17.1,21.9,27.4,39,23s27.4-21.9,23-39s-21.9-27.4-39-23
		c-11.3,2.9-20.1,11.7-23,23H336c-13.3,0-24,10.7-24,24v34.8c-15.3-6.1-31.5-9.6-48-10.4V24c0-4.4-3.6-8-8-8s-8,3.6-8,8v80.4
		c-16.5,0.8-32.7,4.3-48,10.4V80c0-13.3-10.7-24-24-24h-17.1c-4.4-17.1-21.9-27.4-39-23s-27.4,21.9-23,39s21.9,27.4,39,23
		c11.3-2.9,20.1-11.7,23-23H176c4.4,0,8,3.6,8,8v42.2c-31.5,17-55.9,44.6-69.2,77.8H64c-4.4,0-8-3.6-8-8v-25.1
		c17.1-4.4,27.4-21.9,23-39s-21.9-27.4-39-23s-27.4,21.9-23,39c2.9,11.3,11.7,20.1,23,23V192c0,13.3,10.7,24,24,24h45.5
		c-2.8,10.5-4.6,21.2-5.1,32H24c-4.4,0-8,3.6-8,8s3.6,8,8,8h80.4c0.5,10.8,2.3,21.5,5.1,32H64c-13.3,0-24,10.7-24,24v25.1
		c-17.1,4.4-27.4,21.9-23,39s21.9,27.4,39,23s27.4-21.9,23-39c-2.9-11.3-11.7-20.1-23-23V320c0-4.4,3.6-8,8-8h50.8
		c13.2,33.2,37.7,60.8,69.2,77.8V432c0,4.4-3.6,8-8,8h-17.1c-4.4-17.1-21.9-27.4-39-23s-27.4,21.9-23,39s21.9,27.4,39,23
		c11.3-2.9,20.1-11.7,23-23H176c13.3,0,24-10.7,24-24v-34.8c15.3,6.1,31.5,9.6,48,10.4V488c0,4.4,3.6,8,8,8s8-3.6,8-8v-80.4
		c16.5-0.8,32.7-4.3,48-10.4V432c0,13.3,10.7,24,24,24h17.1c4.4,17.1,21.9,27.4,39,23s27.4-21.9,23-39s-21.9-27.4-39-23
		c-11.3,2.9-20.1,11.7-23,23H336c-4.4,0-8-3.6-8-8v-42.2c31.5-17,55.9-44.6,69.2-77.8H448c4.4,0,8,3.6,8,8v25.1
		c-17.1,4.4-27.4,21.9-23,39s21.9,27.4,39,23s27.4-21.9,23-39c-2.9-11.3-11.7-20.1-23-23V320c0-13.3-10.7-24-24-24h-45.5
		c2.8-10.5,4.6-21.2,5.1-32H488z M448,136c0-8.8,7.2-16,16-16s16,7.2,16,16s-7.2,16-16,16S448,144.8,448,136z M384,48
		c8.8,0,16,7.2,16,16s-7.2,16-16,16s-16-7.2-16-16S375.2,48,384,48z M128,80c-8.8,0-16-7.2-16-16s7.2-16,16-16s16,7.2,16,16
		S136.8,80,128,80z M32,136c0-8.8,7.2-16,16-16s16,7.2,16,16s-7.2,16-16,16S32,144.8,32,136z M64,376c0,8.8-7.2,16-16,16
		s-16-7.2-16-16s7.2-16,16-16S64,367.2,64,376z M128,464c-8.8,0-16-7.2-16-16s7.2-16,16-16s16,7.2,16,16S136.8,464,128,464z
		 M384,432c8.8,0,16,7.2,16,16s-7.2,16-16,16s-16-7.2-16-16S375.2,432,384,432z M480,376c0,8.8-7.2,16-16,16s-16-7.2-16-16
		s7.2-16,16-16S480,367.2,480,376z M256,392c-75.1,0-136-60.9-136-136s60.9-136,136-136s136,60.9,136,136
		C391.9,331.1,331.1,391.9,256,392z"/>
</g>
</svg>
