<?xml version="1.0" encoding="utf-8"?>
<!-- Generator: Adobe Illustrator 21.0.0, SVG Export Plug-In . SVG Version: 6.00 Build 0)  -->
<svg version="1.1"
	 id="katman_1" xmlns:cc="http://creativecommons.org/ns#" xmlns:dc="http://purl.org/dc/elements/1.1/" xmlns:inkscape="http://www.inkscape.org/namespaces/inkscape" xmlns:rdf="http://www.w3.org/1999/02/22-rdf-syntax-ns#" xmlns:sodipodi="http://sodipodi.sourceforge.net/DTD/sodipodi-0.dtd" xmlns:svg="http://www.w3.org/2000/svg"
	 xmlns="http://www.w3.org/2000/svg" xmlns:xlink="http://www.w3.org/1999/xlink" x="0px" y="0px" viewBox="0 0 7.4 7.4"
	 style="enable-background:new 0 0 7.4 7.4;" xml:space="preserve">
<style type="text/css">
	.st0{fill:url(#SVGID_1_);}
</style>
<g transform="translate(0,-288.53332)">
	<linearGradient id="SVGID_1_" gradientUnits="userSpaceOnUse" x1="0" y1="292.4001" x2="7.4" y2="292.4001">
		<stop  offset="0" style="stop-color:#096987"/>
		<stop  offset="1" style="stop-color:#5700B1"/>
	</linearGradient>
	<path class="st0" d="M7.4,289.6L5,290.2c0.1,0.1,0.1,0.2,0.1,0.2l0.8-0.2l-0.7,0.4c0,0.1,0,0.2,0.1,0.3l0.7-0.4l-1,0.7
		c0.1-0.4-0.1-0.8-0.3-1c-0.4-0.5-1.2-0.5-1.6-0.1c0,0,0,0-0.1,0.1c-0.4,0.5-0.4,1.2,0,1.7c0.2,0.2,0.4,0.3,0.6,0.3l-1.4,1l-0.4,1.1
		v-1.7l1-0.5c0,0,0,0-0.1-0.1l-0.1-0.1l-1,0.5l-1-0.9l1.7-0.4c0-0.1,0-0.2,0-0.3L0,291.3l1.4,1.3v2.6l1.4-1.4l0.9,0.9L7.4,289.6z
		 M3.7,290v0.2c-0.2,0.1-0.3,0.4-0.2,0.6c0.1,0.1,0.2,0.3,0.4,0.3c0.1,0,0.2,0.1,0.2,0.2s-0.1,0.2-0.2,0.2H3.8c-0.1,0-0.1,0-0.2,0
		c0,0.1,0,0.1,0,0.2c0.1,0,0.1,0.1,0.2,0.1v0.2c-0.2,0-0.4-0.1-0.5-0.3c-0.3-0.4-0.3-1,0-1.3C3.3,290.2,3.5,290.1,3.7,290z M4,290
		c0.2,0,0.4,0.1,0.5,0.3c0.3,0.3,0.3,0.7,0.2,1.1L4,291.9v-0.2c0.2-0.1,0.3-0.4,0.2-0.6c-0.1-0.1-0.2-0.3-0.4-0.3
		c-0.1,0-0.2-0.1-0.2-0.2s0.1-0.2,0.2-0.2h0.1c0.1,0,0.1,0,0.2,0c0-0.1,0-0.1,0-0.2C4,290.2,4,290.1,4,290L4,290L4,290z M6.6,290.3
		l-2.8,4l-1.3-1.1L6.6,290.3z M2.4,293.3l0.4,0.3l-0.7,0.7L2.4,293.3z"/>
</g>
</svg>
