<svg id="access_key" xmlns="http://www.w3.org/2000/svg" viewBox="0 0 206 205.2">
  <path id="path" d="M206 42.7c-.8-14.1-33.4-25-75-25h-7V5a5.2 5.2 0 0 0-1.9-3.9 4.9 4.9 0 0 0-4.1-1L4.1 21.7a5.1 5.1 0 0 0-4.1 5v151.8a5.1 5.1 0 0 0 4.1 5L118 205.1a4.9 4.9 0 0 0 4.1-1 5.2 5.2 0 0 0 1.9-3.9v-21.8h7c42.1 0 75-11.2 75-25.6zm-84 157.5a3.2 3.2 0 0 1-1.2 2.4 2.9 2.9 0 0 1-1.9.7h-.3L4.5 181.6a3.2 3.2 0 0 1-2.5-3.1V26.8a3.2 3.2 0 0 1 2.5-3.1L118.4 2.1a3 3 0 0 1 2.5.5A3.2 3.2 0 0 1 122 5zm9-133.4h-7v-47h7c39.6 0 73 10.8 73 23.6s-33.4 23.4-73 23.4zm73 86.2c0 12.8-33.4 23.6-73 23.6h-7v-34.7h7c36 0 65.3-8.2 73-19.6zm.2-67.2v30.6c0 12.8-33.4 23.6-73 23.6H124v-34.7h7.2c36 .1 65.3-8.1 73-19.4zm0-36.6v30.6c0 12.8-33.4 23.6-73 23.6H124V68.7h7.2c36 .1 65.3-8.1 73-19.4z" fill="#738fab"/>
  <path id="key" d="M57.8 158.3l-6.8-12V102a24 24 0 1 1 21.3.3c.6 2.5 1.6 6.9 1.7 7.1v.5l-5.9 5.9 3.9 8.9-6 9 4 11.1zM53 145.7l5.2 9.2 9.7-10.5-4-10.9 6-9-4.1-9.1 6.1-6.1c-.3-1.5-1.3-5.6-1.8-7.3l-.2-.8.8-.3a22 22 0 1 0-18.3-.4l.6.3zm9-66.1a7.5 7.5 0 1 1 7.5-7.5 7.5 7.5 0 0 1-7.5 7.5zm0-13a5.5 5.5 0 1 0 5.5 5.5 5.5 5.5 0 0 0-5.5-5.5z" fill="#738fab"/>
</svg>
