<svg id="custom_measuring" xmlns="http://www.w3.org/2000/svg" viewBox="0 0 292.9 194">
  <path id="display" d="M241 0H52.9a13 13 0 0 0-13 13v128a13 13 0 0 0 13 13h75.3l-6.9 28h-17.4a6 6 0 1 0 0 12h86a6 6 0 0 0 0-12h-17.4l-6.9-28h75.3a13 13 0 0 0 13-13V13A13 13 0 0 0 241 0zM52.9 2h188a11 11 0 0 1 11 11v114H42V13A11 11 0 0 1 52.9 2zm137 182a4 4 0 0 1 0 8h-86a4 4 0 1 1 0-8zm-19.6-2h-46.8l6.9-28h33.2zm70.6-30h-188a11 11 0 0 1-11-11v-12h210v12a11 11 0 0 1-10.9 11z" fill="#738fab"/>
  <path id="content" d="M146.9 111.1a4.5 4.5 0 1 1 4.5-4.5 4.5 4.5 0 0 1-4.5 4.5zm0-7a2.5 2.5 0 1 0 2.5 2.5 2.5 2.5 0 0 0-2.5-2.5zm-2.1-82h11.3a.8.8 0 0 1 .8.8v.6a.8.8 0 0 1-.8.8h-11.3a.8.8 0 0 1-.8-.8v-.6a.8.8 0 0 1 .8-.8zm-6.2-1a2.1 2.1 0 1 1-2.1 2.1 2.1 2.1 0 0 1 2.1-2.1zm83.6 10.5a1 1 0 0 0-1-1h-10.5V19.5a1 1 0 0 0-1-1 1 1 0 0 0-1 1v11.1h-33.1V20.2a6.7 6.7 0 0 0-6.7-6.7h-44.5a6.7 6.7 0 0 0-6.7 6.7v10.4H84.6V19.5a1 1 0 0 0-1-1 1 1 0 0 0-1 1v11.1H72.2a1 1 0 0 0-1 1 1 1 0 0 0 1 1h10.4v65.2H72.2a1 1 0 0 0-1 1 1 1 0 0 0 1 1h10.4v10.8a1 1 0 0 0 1 1 1 1 0 0 0 1-1V99.8h33.2v9a6.7 6.7 0 0 0 6.7 6.7H169a6.7 6.7 0 0 0 6.7-6.7v-9h33.1v10.8a1 1 0 0 0 1 1 1 1 0 0 0 1-1V99.8h10.4a1 1 0 0 0 1-1 1 1 0 0 0-1-1h-10.5V32.6h10.5a1 1 0 0 0 1-1zM119.8 20.2a4.7 4.7 0 0 1 4.7-4.7H169a4.7 4.7 0 0 1 4.7 4.7v10.4h-53.9zm53.9 12.3v65.3h-53.9V32.6zM84.6 97.8V32.6h33.2v65.2zm89.1 11a4.7 4.7 0 0 1-4.7 4.7h-44.6a4.7 4.7 0 0 1-4.7-4.7v-9h53.9zm35.1-11h-33.2V32.6h33.1zM163 55.3h-32.7a1.2 1.2 0 0 1-1.2-1.2v-11a1.2 1.2 0 0 1 1.2-1.2H163a1.2 1.2 0 0 1 1.2 1.2v11a1.2 1.2 0 0 1-1.2 1.2zm-31.9-2h31.1v-9.4h-31.1zm-2 9.5v24.4a1.2 1.2 0 0 0 1.2 1.2H163a1.2 1.2 0 0 0 1.2-1.2V62.8a1.2 1.2 0 0 0-1.2-1.2h-32.7a1.2 1.2 0 0 0-1.2 1.2zM145 75l-13.9 10.4V64.6zm-11.9-11.4h27.1l-13.5 10.1zm13.5 12.7l13.6 10.1h-27.1zm1.7-1.2l13.9-10.5v20.8z" fill="#738fab"/>
  <path id="stars-2" d="M277 35a1.2 1.2 0 0 1-1.1-.8l-.7-1.8a4.4 4.4 0 0 0-2.6-2.6l-1.8-.7a1.2 1.2 0 0 1 0-2.2l1.8-.7a4.4 4.4 0 0 0 2.6-2.6l.7-1.8a1.2 1.2 0 0 1 2.2 0l.7 1.8a4.4 4.4 0 0 0 2.6 2.6l1.8.7a1.2 1.2 0 0 1 0 2.2l-1.8.7a4.4 4.4 0 0 0-2.6 2.6l-.7 1.8a1.2 1.2 0 0 1-1.1.8zm-3.5-7a6.4 6.4 0 0 1 3.5 3.5 6.4 6.4 0 0 1 3.5-3.5 6.4 6.4 0 0 1-3.5-3.5 6.4 6.4 0 0 1-3.5 3.5zm-5.6 24.5h-1.5V51a1 1 0 0 0-2 0v1.5h-1.5a1 1 0 0 0 0 2h1.5V56a1 1 0 0 0 2 0v-1.5h1.5a1 1 0 0 0 0-2zm24 24h-1.5V75a1 1 0 0 0-2 0v1.5h-1.5a1 1 0 0 0 0 2h1.5V80a1 1 0 0 0 2 0v-1.5h1.5a1 1 0 0 0 0-2zm-18 21h-1.5V96a1 1 0 0 0-2 0v1.5h-1.5a1 1 0 0 0 0 2h1.5v1.5a1 1 0 0 0 2 0v-1.5h1.5a1 1 0 0 0 0-2z" fill="#738fab"/>
  <path id="stars" d="M21 66a1.2 1.2 0 0 1-1.1-.8l-.8-2.1A5.3 5.3 0 0 0 16 60l-2.1-.8a1.2 1.2 0 0 1 0-2.3l2.1-.8a5.3 5.3 0 0 0 3.1-3.1l.8-2.1a1.2 1.2 0 0 1 2.3 0L23 53a5.3 5.3 0 0 0 3.1 3.1l2.1.8a1.2 1.2 0 0 1 0 2.3l-2.1.8a5.3 5.3 0 0 0-3.1 3.1l-.8 2.1a1.2 1.2 0 0 1-1.2.8zm-4.5-8h.1a7.3 7.3 0 0 1 4.3 4.3h.1a7.3 7.3 0 0 1 4.3-4.3 7.3 7.3 0 0 1-4.3-4.3h-.1a7.3 7.3 0 0 1-4.3 4.3zm5.9-40H21v-1.5a1 1 0 0 0-2 0V18h-1.5a1 1 0 0 0 0 2H19v1.5a1 1 0 0 0 2 0V20h1.5a1 1 0 1 0 0-2zM5.9 36.5H4.5V35a1 1 0 0 0-2 0v1.5H1a1 1 0 0 0 0 2h1.4V40a1 1 0 0 0 2 0v-1.5h1.5a1 1 0 1 0 0-2zm3 57H7.5V92a1 1 0 0 0-2 0v1.5H4a1 1 0 0 0 0 2h1.4V97a1 1 0 0 0 2 0v-1.5h1.5a1 1 0 1 0 0-2z" fill="#738fab"/>
</svg>
