<svg id="custom_2colors" xmlns="http://www.w3.org/2000/svg" viewBox="0 0 292.9 194">
  <path id="display" d="M241.1 0H53a13 13 0 0 0-13 13v128a13 13 0 0 0 13 13h75.3l-6.9 28H104a6 6 0 0 0 0 12h86a6 6 0 0 0 0-12h-17.4l-6.9-28H241a13 13 0 0 0 13-13V13a13.1 13.1 0 0 0-12.9-13zM53 2h188a11 11 0 0 1 11 11v114H42.1V13A11.1 11.1 0 0 1 53 2zm137 182a4 4 0 0 1 0 8h-86a4 4 0 0 1 0-8zm-19.6-2h-46.8l6.9-28h33.2l6.7 28zm70.6-30H53a11 11 0 0 1-11-11v-12h210v12a11.1 11.1 0 0 1-10.9 11z" transform="translate(-.1)" fill="#ccd6e0"/>
  <path id="settings" d="M112.1 97h-5c-2.5 0-4.6-1.4-5-3.3l-1.3-6.3a1.4 1.4 0 0 0-.9-1.1l-2.5-1a1.4 1.4 0 0 0-1.4.1L90.7 89c-1.6 1.1-4.1.6-5.9-1.2l-3.5-3.6c-1.8-1.8-2.3-4.2-1.2-5.9l3.5-5.3a1.4 1.4 0 0 0 .1-1.4 26 26 0 0 1-1-2.5 1.4 1.4 0 0 0-1.1-.9L75.3 67c-1.9-.4-3.3-2.5-3.3-5v-5c0-2.5 1.4-4.6 3.3-5l6.3-1.3a1.4 1.4 0 0 0 1.1-.9l1-2.5a1.4 1.4 0 0 0-.1-1.4L80 40.5c-1.1-1.6-.6-4.1 1.2-5.9l3.5-3.5c1.8-1.8 4.2-2.3 5.9-1.2l5.4 3.6a1.4 1.4 0 0 0 1.4.1l2.5-1a1.4 1.4 0 0 0 .9-1.1l1.3-6.3c.4-1.9 2.5-3.3 5-3.3h5c2.5 0 4.6 1.4 5 3.3l1.3 6.3a1.4 1.4 0 0 0 .9 1.1l2.5 1a1.4 1.4 0 0 0 1.4-.1l5.4-3.6c1.6-1.1 4.1-.6 5.9 1.2l3.5 3.5c1.8 1.8 2.3 4.2 1.2 5.9l-3.7 5.5a1.4 1.4 0 0 0-.1 1.4 26 26 0 0 1 1 2.5 1.4 1.4 0 0 0 1.1.9l6.3 1.3c1.9.4 3.3 2.5 3.3 5v5c0 2.5-1.4 4.6-3.3 5l-6.3 1.3a1.4 1.4 0 0 0-1.1.9l-1 2.5a1.4 1.4 0 0 0 .1 1.4l3.6 5.4c1.1 1.6.6 4.1-1.2 5.9l-3.6 3.3c-1.8 1.8-4.2 2.3-5.9 1.2l-5.4-3.6a1.4 1.4 0 0 0-1.4-.1l-2.5 1a1.4 1.4 0 0 0-.9 1.1l-1.3 6.3c-.2 1.9-2.3 3.3-4.8 3.3zM96.8 83.2a3.2 3.2 0 0 1 1.4.3l2.3 1a3.4 3.4 0 0 1 2.2 2.6l1.3 6.3c.2.9 1.5 1.7 3 1.7h5c1.5 0 2.9-.7 3-1.7l1.3-6.3a3.4 3.4 0 0 1 2.2-2.6l2.3-1a3.3 3.3 0 0 1 3.3.3l5.4 3.6c.8.5 2.3.1 3.3-1l3.5-3.5c1.1-1.1 1.5-2.5 1-3.3l-3.6-5.4a3.3 3.3 0 0 1-.3-3.3 22.9 22.9 0 0 0 1-2.3 3.4 3.4 0 0 1 2.6-2.2l6.3-1.3c.9-.2 1.7-1.5 1.7-3V57c0-1.5-.7-2.9-1.7-3l-6.3-1.3a3.4 3.4 0 0 1-2.6-2.2 16 16 0 0 0-1-2.3 3.3 3.3 0 0 1 .3-3.3l3.6-5.4c.5-.8.1-2.3-1-3.3l-3.5-3.5c-1.1-1.1-2.5-1.5-3.3-1l-5.4 3.6a3.3 3.3 0 0 1-3.3.3l-2.3-1a3.4 3.4 0 0 1-2.2-2.6l-1.3-6.3c-.2-.9-1.5-1.7-3-1.7h-5c-1.5 0-2.9.7-3 1.7l-1.3 6.3a3.4 3.4 0 0 1-2.2 2.6l-2.3 1a3.3 3.3 0 0 1-3.3-.3l-5.4-3.6c-.8-.5-2.3-.1-3.3 1l-3.5 3.5c-1.1 1.1-1.5 2.5-1 3.3l3.6 5.4a3.3 3.3 0 0 1 .3 3.3 22.9 22.9 0 0 0-1 2.3 3.4 3.4 0 0 1-2.6 2.2L75.7 54c-.9.2-1.7 1.5-1.7 3v5c0 1.5.7 2.9 1.7 3l6.3 1.3a3.4 3.4 0 0 1 2.6 2.2 16 16 0 0 0 1 2.3 3.3 3.3 0 0 1-.3 3.3l-3.6 5.4c-.5.8-.1 2.3 1 3.3l3.5 3.5c1.1 1.1 2.5 1.5 3.3 1l5.4-3.6a4.1 4.1 0 0 1 1.9-.5zm12.8-8.7a15 15 0 1 1 15-15 15 15 0 0 1-15 15zm0-28a13 13 0 1 0 13 13 13 13 0 0 0-13-13zm69.8 72.5h-2.6a3 3 0 0 1-3.1-2.1l-.7-3.3-.2-.2-1.3-.6h-.2l-2.8 1.8a2.9 2.9 0 0 1-3.7-.7l-1.8-1.8a2.9 2.9 0 0 1-.7-3.7l1.9-2.8v-.2l-.6-1.3-.2-.2-3.3-.7a3 3 0 0 1-2.1-3.1v-2.4a3 3 0 0 1 2.1-3.1l3.3-.7.2-.2.6-1.3v-.2l-1.9-2.8a2.9 2.9 0 0 1 .7-3.7l1.8-1.8a2.9 2.9 0 0 1 3.7-.7l2.8 1.9h.2l1.3-.6.2-.2.7-3.3a3 3 0 0 1 3.1-2.1h2.6a3 3 0 0 1 3.1 2.1l.7 3.3.2.2 1.3.6h.2l2.8-1.8a2.9 2.9 0 0 1 3.7.7l1.8 1.8a2.9 2.9 0 0 1 .7 3.7l-1.9 2.8v.2l.6 1.3.2.2 3.3.7a3 3 0 0 1 2.1 3.1v2.6a3 3 0 0 1-2.1 3.1l-3.3.7-.2.2-.6 1.3v.2l1.9 2.8a2.9 2.9 0 0 1-.7 3.7l-1.8 1.8a2.9 2.9 0 0 1-3.7.7l-2.8-1.9h-.2l-1.3.6-.2.2-.7 3.3a3 3 0 0 1-3.1 1.9zm-7.9-8.1l.9.2 1.2.5a2.2 2.2 0 0 1 1.4 1.7l.7 3.3c0 .2.4.5 1.1.5h2.6c.7 0 1.1-.3 1.1-.5l.7-3.3a2.2 2.2 0 0 1 1.4-1.7l1.2-.5a2.5 2.5 0 0 1 2.2.2l2.8 1.9c.1.1.7 0 1.1-.4l1.8-1.8c.5-.5.5-1 .4-1.1l-1.9-2.8a2.5 2.5 0 0 1-.2-2.2l.5-1.2a2.2 2.2 0 0 1 1.7-1.4l3.3-.7c.2 0 .5-.4.5-1.1v-2.8c0-.7-.3-1.1-.5-1.1l-3.3-.7a2.2 2.2 0 0 1-1.7-1.4l-.5-1.2a2.5 2.5 0 0 1 .2-2.2l1.9-2.8c.1-.1 0-.7-.4-1.1l-1.8-1.8c-.5-.5-1-.5-1.1-.4l-2.8 1.9a2.5 2.5 0 0 1-2.2.2l-1.2-.5a2.2 2.2 0 0 1-1.4-1.7l-.7-3.3c0-.2-.4-.5-1.1-.5h-2.6c-.7 0-1.1.3-1.1.5l-.7 3.3a2.2 2.2 0 0 1-1.4 1.7l-1.2.5a2.5 2.5 0 0 1-2.2-.2l-2.8-1.9c-.1-.1-.7 0-1.1.4l-1.8 1.8c-.5.5-.5 1-.4 1.1l1.9 2.8a2.5 2.5 0 0 1 .2 2.2l-.5 1.2a2.2 2.2 0 0 1-1.7 1.4l-3.3.7c-.2 0-.5.4-.5 1.1v2.6c0 .7.3 1.1.5 1.1l3.3.7a2.2 2.2 0 0 1 1.7 1.4l.5 1.2a2.5 2.5 0 0 1-.2 2.2l-1.9 2.8c-.1.1 0 .7.4 1.1l1.8 1.8c.5.5 1 .5 1.1.4l2.8-1.9a2.5 2.5 0 0 1 1.2-.2zm6.6-3.9a8 8 0 1 1 8-8 8 8 0 0 1-8 8zm0-14a6 6 0 1 0 6 6 6 6 0 0 0-6-6zm36-45h-10v-1.5a4.5 4.5 0 0 0-4.5-4.5h-1.1a4.5 4.5 0 0 0-4.5 4.5V48h-20a1 1 0 0 0 0 2h20v1.5a4.5 4.5 0 0 0 4.5 4.5h1.1a4.5 4.5 0 0 0 4.5-4.5V50h10a1 1 0 0 0 0-2zm-12 3.5a2.5 2.5 0 0 1-2.5 2.5h-1.1a2.5 2.5 0 0 1-2.5-2.5v-5a2.5 2.5 0 0 1 2.5-2.5h1.1a2.5 2.5 0 0 1 2.5 2.5zm12-25.5h-22v-1.5a4.5 4.5 0 0 0-4.5-4.5h-1.1a4.5 4.5 0 0 0-4.5 4.5V26h-8a1 1 0 0 0 0 2h8v1.5a4.5 4.5 0 0 0 4.5 4.5h1.1a4.5 4.5 0 0 0 4.5-4.5V28h22a1 1 0 0 0 0-2zm-24 3.5a2.5 2.5 0 0 1-2.5 2.5h-1.1a2.5 2.5 0 0 1-2.5-2.5v-5a2.5 2.5 0 0 1 2.5-2.5h1.1a2.5 2.5 0 0 1 2.5 2.5v5.1z" transform="translate(-.1)" fill="#738fab"/>
  <path id="stars-2" d="M277.1 35a1.2 1.2 0 0 1-1.1-.8l-.7-1.8a4.2 4.2 0 0 0-2.6-2.6l-1.8-.7a1.2 1.2 0 0 1-.6-1.6.9.9 0 0 1 .6-.6l1.8-.7a4.2 4.2 0 0 0 2.6-2.6l.7-1.8a1.2 1.2 0 0 1 1.6-.6.9.9 0 0 1 .6.6l.7 1.8a4.2 4.2 0 0 0 2.6 2.6l1.8.7a1.2 1.2 0 0 1 .6 1.6.9.9 0 0 1-.6.6l-1.8.7a4.2 4.2 0 0 0-2.6 2.6l-.7 1.8a1.2 1.2 0 0 1-1.1.8zm-3.5-7a6.7 6.7 0 0 1 3.5 3.5 6.7 6.7 0 0 1 3.5-3.5 6.7 6.7 0 0 1-3.5-3.5 6.7 6.7 0 0 1-3.5 3.5zM268 52.5h-1.5V51a1 1 0 0 0-2 0v1.5H263a1 1 0 0 0 0 2h1.5V56a1 1 0 0 0 2 0v-1.5h1.5a1 1 0 0 0 0-2zm24 24h-1.5V75a1 1 0 0 0-2 0v1.5H287a1 1 0 0 0 0 2h1.5V80a1 1 0 0 0 2 0v-1.5h1.5a1 1 0 0 0 0-2zm-18 21h-1.5V96a1 1 0 0 0-2 0v1.5H269a1 1 0 0 0 0 2h1.5v1.5a1 1 0 0 0 2 0v-1.5h1.5a1 1 0 0 0 0-2z" transform="translate(-.1)" fill="#ccd6e0"/>
  <path id="stars" d="M21.1 66a1.2 1.2 0 0 1-1.1-.8l-.8-2.1a5.3 5.3 0 0 0-3.1-3.1l-2.1-.8a1.2 1.2 0 0 1-.8-1.5 1.1 1.1 0 0 1 .8-.8l2.1-.8a5.3 5.3 0 0 0 3.1-3.1l.8-2.1a1.2 1.2 0 0 1 1.5-.8 1.1 1.1 0 0 1 .8.8l.8 2.1a5.3 5.3 0 0 0 3.1 3.1l2.1.8a1.2 1.2 0 0 1 .8 1.5 1.1 1.1 0 0 1-.8.8l-2.1.8a5.3 5.3 0 0 0-3.1 3.1l-.8 2.1a1.3 1.3 0 0 1-1.2.8zm-4.5-8h.1a7 7 0 0 1 4.3 4.3h.1a7 7 0 0 1 4.3-4.3 7 7 0 0 1-4.3-4.3H21a7 7 0 0 1-4.3 4.3zm5.9-40h-1.4v-1.5a1 1 0 0 0-2 0V18h-1.5a1 1 0 1 0 0 2h1.5v1.5a1 1 0 0 0 2 0V20h1.5a.9.9 0 0 0 1-1 1 1 0 0 0-1.1-1zM6 36.5H4.6V35a.9.9 0 0 0-1-1 .9.9 0 0 0-1 1v1.5H1.1a1 1 0 1 0 0 2h1.4V40a.9.9 0 0 0 1 1 .9.9 0 0 0 1-1v-1.5H6a1 1 0 0 0 0-2zm3 57H7.6V92a.9.9 0 0 0-1-1 .9.9 0 0 0-1 1v1.5H4.1a1 1 0 0 0 0 2h1.4V97a.9.9 0 0 0 1 1 .9.9 0 0 0 1-1v-1.5H9a1 1 0 0 0 0-2z" transform="translate(-.1)" fill="#ccd6e0"/>
</svg>
