<svg id="custom_simple" xmlns="http://www.w3.org/2000/svg" viewBox="0 0 214 194">
  <path id="display" d="M201 0H12.9a13 13 0 0 0-13 13v128a13 13 0 0 0 13 13h75.3l-6.9 28H63.9a6 6 0 0 0 0 12h86a6 6 0 1 0 0-12h-17.4l-6.9-28h75.3a13 13 0 0 0 13-13V13A13 13 0 0 0 201 0zM12.9 2h188a11 11 0 0 1 11 11v114H2V13A11 11 0 0 1 12.9 2zm137 182a4 4 0 1 1 0 8h-86a4 4 0 0 1 0-8zm-19.6-2H83.5l6.9-28h33.2zm70.6-30h-188a11 11 0 0 1-11-11v-12h210v12a11 11 0 0 1-10.9 11z" transform="translate(.1)" fill="#738fab"/>
  <g id="arrow" fill="#738fab">
    <path d="M56.8 63.5h101v2h-101z" transform="translate(.1)"/>
    <path d="M145.7 75.5a1 1 0 0 1 .1-1.4l10.5-9.6-10.5-9.6a1 1 0 1 1 1.3-1.5l11.1 10.1a1.3 1.3 0 0 1 0 1.8l-11.1 10.3a1 1 0 0 1-1.4-.1zm-78.4.1L56.2 65.4a1.3 1.3 0 0 1 0-1.8l11.1-10.1a1 1 0 1 1 1.3 1.5l-10.4 9.5 10.5 9.6a1 1 0 0 1-1.3 1.6z" transform="translate(.1)"/>
  </g>
</svg>
