<svg id="database_schema" xmlns="http://www.w3.org/2000/svg" viewBox="0 0 222 225.4">
  <path d="M221 66h-42a1 1 0 0 0-1 1v20h-40.6L112 61.6V22h23a6 6 0 0 0 6-6V6a6 6 0 0 0-6-6H87a6 6 0 0 0-6 6v10a6 6 0 0 0 6 6h23v39.6L84.6 87H44V67a1 1 0 0 0-1-1H1a1 1 0 0 0-1 1v42a1 1 0 0 0 1 1h42a1 1 0 0 0 1-1V89h39.6v.2l26.4 26.2V145H41a1 1 0 0 0-1 1v22c-12.2.1-25 3.1-25 8.5V217c0 5.4 13.1 8.4 25.5 8.4s25.5-3 25.5-8.4v-40.5c0-5.3-12.1-8.3-24-8.5v-21h68v21c-12.2.1-25 3.1-25 8.5V217c0 5.4 13.1 8.4 25.5 8.4s25.5-3 25.5-8.4v-40.2-.3c0-5.3-12.1-8.3-24-8.5v-21h69v21c-12.2.1-25 3.1-25 8.5V217c0 5.4 13.1 8.4 25.5 8.4s25.5-3 25.5-8.4v-40.2-.3c0-5.3-12.1-8.3-24-8.5v-22a1 1 0 0 0-1-1h-70v-29.6l26.2-26.2V89H178v20a1 1 0 0 0 1 1h42a1 1 0 0 0 1-1V67a1 1 0 0 0-1-1zM87 20a4 4 0 0 1-4-4V6a4 4 0 0 1 4-4h48a4 4 0 0 1 4 4v10a4 4 0 0 1-4 4zM42 68v7H2v-7zM2 108V77h40v31zm62 109c0 2.7-8.9 6.4-23.5 6.4S17 219.6 17 217v-16.7c4.1 3.2 14 4.9 23.5 4.9s19.4-1.7 23.5-4.9zm0-20c0 2.7-8.9 6.3-23.5 6.3S17 199.6 17 196.9V180c4.1 3.3 14 5 23.5 5s19.4-1.7 23.5-5zm0-20.4c0 3.1-10 6.5-23.5 6.5S17 179.6 17 176.5s10-6.5 23.5-6.5 23.5 3.4 23.5 6.5zM205 217c0 2.7-8.9 6.4-23.5 6.4S158 219.6 158 217v-16.7c4.1 3.2 14 4.9 23.5 4.9s19.4-1.7 23.5-4.9zm0-20c0 2.7-8.9 6.3-23.5 6.3S158 199.6 158 197v-17c4.1 3.3 14 5 23.5 5s19.4-1.7 23.5-5zm0-20.4c0 3.1-10 6.5-23.5 6.5s-23.5-3.4-23.5-6.5 10-6.5 23.5-6.5 23.5 3.3 23.5 6.4zM134 217c0 2.7-8.9 6.4-23.5 6.4S87 219.6 87 217v-16.7c4.1 3.2 14 4.9 23.5 4.9s19.4-1.7 23.5-4.9zm0-20c0 2.7-8.9 6.3-23.5 6.3S87 199.6 87 196.9V180c4.1 3.3 14 5 23.5 5s19.4-1.7 23.5-5zm0-20.4c0 3.1-10 6.5-23.5 6.5S87 179.6 87 176.5s10-6.5 23.5-6.5 23.5 3.4 23.5 6.5zm-23-62.9L85.9 88.5 111 63.4l25.1 25.1zM220 68v7h-40v-7zm-40 40V77h40v31z" fill="#e7ecf1"/>
</svg>
