<svg id="database_schema_doc" data-name="database_schema+doc" xmlns="http://www.w3.org/2000/svg" viewBox="0 0 194 172.7">
  <path id="database" d="M126.1 165.8a203.1 203.1 0 0 1-45.6 4.9C37.9 170.7 2 159.1 2 145.3v-33.1c8.1 12.3 39.7 21.2 78.5 21.2H84v-2h-3.5C37.9 131.4 2 119.8 2 106V72.9c8.1 12.3 39.7 21.2 78.5 21.2H84v-2h-3.5C37.9 92.1 2 80.5 2 66.7V33.6c8 12.3 39.6 21.2 78.5 21.2H84v-2h-3.5C37.9 52.8 2 41.2 2 27.4S37.9 2 80.5 2c36.7 0 68.4 8.6 76.5 19.8h2.4C152.1 9.2 120 0 80.5 0 35.4 0 0 12 0 27.4v117.9c0 15.4 35.4 27.4 80.5 27.4 20.9 0 39.7-2.6 53.9-6.9z" fill="#e7ecf1"/>
  <path id="doc" d="M165.5 21.8H84.9a.9.9 0 0 0-.9.9v142.2a.9.9 0 0 0 .9.9h108.2a.9.9 0 0 0 .9-.9V50.4a1.6 1.6 0 0 0-.5-1.1l-26.9-27a1.6 1.6 0 0 0-1.1-.5zm.5 2.6l24.3 24.4H166zm25.1 139.4H86.9a.9.9 0 0 1-.9-.9V24.7a.9.9 0 0 1 .9-.9H164v26.1a.9.9 0 0 0 .9.9H192v112.1a.9.9 0 0 1-.9.9z" fill="#97acc1"/>
  <path id="schema" d="M179 102.8v-26h-26v12h-22.5L116 74.3V52.8h11a6 6 0 0 0 6-6v-2a6 6 0 0 0-6-6h-23a6 6 0 0 0-6 6v2a6 6 0 0 0 6 6h10v21.5L98.4 89.9l15.6 15.6v17.4h-12v26h26v-12h25v12h26v-26h-12v-20zm-79-56v-2a4 4 0 0 1 4-4h23a4 4 0 0 1 4 4v2a4 4 0 0 1-4 4h-23a4 4 0 0 1-4-4zm55 54v-16h22v16zm22-22v4h-22v-4zm-62-2.7l13.8 13.8-13.8 13.7-13.8-13.7zm11 48.7v4h-22v-4zm-22 22v-16h22v16zm51 0v-16h22v16zm22-18h-22v-4h22zm-12-6h-12v12h-25v-12h-12v-17.3l14.6-14.6H153v12h12z" fill="#e7ecf1"/>
</svg>
