<svg id="database_doc" xmlns="http://www.w3.org/2000/svg" viewBox="0 0 232.2 167.2">
  <path id="database" d="M64.5 28.9C28.3 28.9 0 38.6 0 50.9v94.2c0 12.4 28.3 22.1 64.5 22.1s64.5-9.7 64.5-22.1V50.9c0-12.3-28.4-22-64.5-22zm0 2c33.9 0 62.5 9.2 62.5 20S98.4 71 64.5 71 2 61.8 2 50.9s28.6-20 62.5-20zM127 145.1c0 10.9-28.6 20.1-62.5 20.1S2 156 2 145.1v-25.8c7.1 9.6 32 16.5 62.5 16.5s55.4-6.9 62.5-16.5zm-62.5-11.3c-33.9 0-62.5-9.2-62.5-20.1V87.9c7.1 9.6 32 16.5 62.5 16.5s55.4-6.9 62.5-16.5v25.8c0 10.9-28.6 20.1-62.5 20.1zM127 82.3c0 10.9-28.6 20.1-62.5 20.1S2 93.2 2 82.3V56.5C9.1 66.1 34 73 64.5 73s55.4-6.9 62.5-16.5z" fill="#e7ecf1"/>
  <g id="doc" fill="#e7ecf1">
    <path id="paper" d="M190 58h-32a1 1 0 0 0 0 2h32a1 1 0 0 0 0-2zm0 24h-32a1 1 0 0 0 0 2h32a1 1 0 0 0 0-2zm-32-10h27.3a1 1 0 1 0 0-2H158a1 1 0 0 0 0 2z"/>
    <path id="line" d="M232 18.3a1.1 1.1 0 0 0-.3-.6L214.4.3l-.7-.3H174a1 1 0 0 0-1 1v13h-13a1 1 0 0 0-1 1v13h-13a1 1 0 0 0-1 1v71a1 1 0 0 0 1 1h57a1 1 0 0 0 1-1V87h13a1 1 0 0 0 1-1V73h13a1 1 0 0 0 1-1V18.4zm-3.1-.3H215V4.1zM147 99V30h38v17a1 1 0 0 0 1 1h16v51zm40-66.9L200.9 46H187zM204 85V46.4a1.1 1.1 0 0 0-.3-.7l-17.3-17.4-.7-.3H161V16h38v17a1 1 0 0 0 1 1h16v51zm-3-66.9L214.9 32H201zM218 71V32.4a1.1 1.1 0 0 0-.3-.7l-17.3-17.4-.7-.3H175V2h38v17a1 1 0 0 0 1 1h16v51z"/>
  </g>
  <path id="arrow" d="M142.1 148.9a1 1 0 0 1-.8-.5l-4.3-6.6a.7.7 0 0 1-.1-1l.4-.2 6.6-4.3a1 1 0 0 1 1.1 1.7l-4.7 3a91.1 91.1 0 0 0 34.5 1.4c26.3-4.2 44.9-20.4 55.4-48.1a1 1 0 1 1 1.9.7c-13.4 35.4-38.4 46.4-57 49.4a93.3 93.3 0 0 1-34.9-1.4l2.9 4.5a1 1 0 0 1-.3 1.4h-.7z" fill="#e7ecf1"/>
</svg>
