<svg id="database_schema3" xmlns="http://www.w3.org/2000/svg" viewBox="0 0 233 178.1">
  <path id="path" d="M232 43h-34a1 1 0 0 0-1 1v16h-24l-20-20V15h13.4a5.6 5.6 0 0 0 5.6-5.6V5.6a5.6 5.6 0 0 0-5.6-5.6h-28.8a5.6 5.6 0 0 0-5.6 5.6v3.8a5.6 5.6 0 0 0 5.6 5.6H151v25.2L131.3 60a1 1 0 0 0 0 1.4L151 81.1V100h-29V67.2c0-11.8-26.8-21.1-61-21.1S0 55.4 0 67.2V157c0 11.8 26.8 21.1 61 21.1s61-9.3 61-21.1v-55h29v18.6a1 1 0 0 0 .1.4h-13.8a5.3 5.3 0 0 0-5.3 5.3v3.5a5.3 5.3 0 0 0 5.3 5.3H151v25.6a1 1 0 0 0 .1.4h-13.8a5.3 5.3 0 0 0-5.3 5.3v3.5a5.3 5.3 0 0 0 5.3 5.3h29.5a5.3 5.3 0 0 0 5.3-5.3v-3.5a5.3 5.3 0 0 0-5.3-5.3h-13.9a1 1 0 0 0 .1-.4V135h13.7a5.3 5.3 0 0 0 5.3-5.3v-3.5a5.3 5.3 0 0 0-5.3-5.3h-13.8a1 1 0 0 0 .1-.4V102h44v19h-13.7a5.3 5.3 0 0 0-5.3 5.3v3.5a5.3 5.3 0 0 0 5.3 5.3h29.5a5.3 5.3 0 0 0 5.3-5.3v-3.5a5.3 5.3 0 0 0-5.3-5.3H199v-20a1 1 0 0 0-1-1h-45V81.4L172.3 62H197v16a1 1 0 0 0 1 1h34a1 1 0 0 0 1-1V44a1 1 0 0 0-1-1zM120 157c0 10.3-27 19.1-59 19.1S2 167.4 2 157v-24.4c6.8 9.1 30.3 15.6 59 15.6s52.2-6.5 59-15.6zm0-29.9c0 10.4-27 19.1-59 19.1s-59-8.8-59-19.1v-24.5c6.8 9.1 30.3 15.6 59 15.6s52.2-6.5 59-15.6zm0-29.9c0 10.4-27 19.1-59 19.1S2 107.5 2 97.2V72.7c6.8 9.1 30.3 15.6 59 15.6s52.2-6.5 59-15.6zM61 86.3c-32 0-59-8.7-59-19.1s27-19.1 59-19.1 59 8.7 59 19.1-27 19.1-59 19.1zM212.7 123a3.3 3.3 0 0 1 3.3 3.3v3.5a3.3 3.3 0 0 1-3.3 3.3h-29.4a3.3 3.3 0 0 1-3.3-3.3v-3.5a3.3 3.3 0 0 1 3.3-3.3h29.4zM137.6 13a3.6 3.6 0 0 1-3.6-3.6V5.6a3.6 3.6 0 0 1 3.6-3.6h28.9a3.6 3.6 0 0 1 3.5 3.6v3.8a3.6 3.6 0 0 1-3.6 3.6h-28.8zm29.2 150a3.3 3.3 0 0 1 3.3 3.3v3.5a3.3 3.3 0 0 1-3.3 3.3h-29.5a3.3 3.3 0 0 1-3.3-3.3v-3.5a3.3 3.3 0 0 1 3.3-3.3h29.5zm0-40a3.3 3.3 0 0 1 3.3 3.3v3.5a3.3 3.3 0 0 1-3.3 3.3h-29.5a3.3 3.3 0 0 1-3.3-3.3v-3.5a3.3 3.3 0 0 1 3.3-3.3h29.5zm-14.7-43.6l-18.7-18.7 18.7-18.8 18.7 18.8zM231 77h-32V51h32zm0-28h-32v-4h32z" fill="#e7ecf1"/>
</svg>
