<svg id="database_simple" xmlns="http://www.w3.org/2000/svg" viewBox="0 0 192 206">
  <path id="path" d="M96 0C42.2 0 0 14.3 0 32.5v141C0 191.7 42.2 206 96 206s96-14.3 96-32.5v-141C192 14.3 149.8 0 96 0zM29.1 11.2C47 5.3 70.7 2 96 2s49 3.3 66.9 9.2S190 24.7 190 32.5s-9.9 15.6-27.1 21.4-41.6 9.2-66.9 9.2-49-3.3-66.9-9.2S2 40.4 2 32.5s9.9-15.6 27.1-21.3zM190 173.5c0 7.8-9.9 15.6-27.1 21.3S121.3 204 96 204s-49-3.3-66.9-9.2S2 181.3 2 173.5v-40.2c9 14.8 47 25.7 94 25.7s85-10.9 94-25.8zm-27.1-25.6C145 153.8 121.3 157 96 157s-49-3.3-66.9-9.2S2 134.3 2 126.5V86.3c9 14.9 47 25.8 94 25.8s85-10.9 94-25.8v40.2c0 7.8-9.9 15.6-27.1 21.3zM190 79.5c0 7.8-9.9 15.6-27.1 21.4s-41.6 9.2-66.9 9.2-49-3.3-66.9-9.2S2 87.4 2 79.5V39.3c9 14.9 47 25.8 94 25.8s85-10.9 94-25.8z" fill="#e7ecf1"/>
</svg>
