<svg id="microsoft_access_custom" xmlns="http://www.w3.org/2000/svg" viewBox="0 0 206 205.2">
  <path d="M206 42.7c-.8-14.1-33.4-25-75-25h-7V5a5.2 5.2 0 0 0-1.9-3.9 4.9 4.9 0 0 0-4.1-1L4.1 21.7a5.1 5.1 0 0 0-4.1 5v151.8a5.1 5.1 0 0 0 4.1 5L118 205.1a4.9 4.9 0 0 0 4.1-1 5.2 5.2 0 0 0 1.9-3.9v-21.8h7c42.1 0 75-11.2 75-25.6zm-84 157.5a3.2 3.2 0 0 1-1.2 2.4 2.9 2.9 0 0 1-1.9.7h-.3L4.5 181.6a3.2 3.2 0 0 1-2.5-3.1V26.8a3.2 3.2 0 0 1 2.5-3.1L118.4 2.1a3 3 0 0 1 2.5.5A3.2 3.2 0 0 1 122 5zM69.9 56.8c8.8 29.4 17.2 58.9 25.9 88.3l-18.1-1.4c-1.6-6.6-3.3-13.2-5.1-19.7-8 0-16.2-.3-24.2-.7-1.5 6.2-3 12.4-4.6 18.6l-15.5-1c7.6-27.6 15.7-55.2 23.3-82.8zm13 51.5L93 142.9l-13.8-1.1c-1.3-5.3-2.8-11.2-4.7-18.3l-.4-1.5h-1.5c-7.2 0-14.8-.3-24.1-.7h-1.7l-.4 1.6-1.2 5-3 11.9-8.2-.5-3.2-.2c3.4-12.2 6.9-24.5 10.3-36.5 4-13.9 8.1-28.4 12-42.6l6.1-.4 9.1-.6c5 16.4 9.9 33.1 14.6 49.3zM60 72.4c2.4 12.4 6 24.6 9 36.8H51.7c2.7-12.4 6.6-24.3 8.3-36.8zm3.9 25c.9 3.2 1.7 6.6 2.6 9.9H54.2c.8-3.7 1.8-7.4 2.7-11s2.3-8.9 3.3-13.5l3.7 14.5zM131 66.8h-7v-47h7c39.6 0 73 10.8 73 23.6s-33.4 23.4-73 23.4zm73 86.2c0 12.8-33.4 23.6-73 23.6h-7v-34.7h7c36 0 65.3-8.2 73-19.6zm.2-67.2v30.6c0 12.8-33.4 23.6-73 23.6H124v-34.7h7.2c36 .1 65.3-8.1 73-19.4zm0-36.6v30.6c0 12.8-33.4 23.6-73 23.6H124V68.7h7.2c36 .1 65.3-8.1 73-19.4z" fill="#738fab" fill-rule="evenodd"/>
</svg>
