<svg id="microsoft_access_custom" xmlns="http://www.w3.org/2000/svg" viewBox="0 0 206 205.2">
  <path d="M206 42.7c-.8-14.1-33.4-25-75-25h-7V5a5.2 5.2 0 0 0-1.9-3.9 4.9 4.9 0 0 0-4.1-1L4.1 21.7a5.1 5.1 0 0 0-4.1 5v151.8a5.1 5.1 0 0 0 4.1 5L118 205.1a4.9 4.9 0 0 0 4.1-1 5.2 5.2 0 0 0 1.9-3.9v-21.8h7c42.1 0 75-11.2 75-25.6zm-75 24.1h-7v-47h7c39.6 0 73 10.8 73 23.6s-33.4 23.4-73 23.4zm73 86.2c0 12.8-33.4 23.6-73 23.6h-7v-34.7h7c36 0 65.3-8.2 73-19.6zm.2-67.2v30.6c0 12.8-33.4 23.6-73 23.6H124v-34.7h7.2c36 .1 65.3-8.1 73-19.4zm-134.3-29c8.8 29.4 17.2 58.9 25.9 88.3l-18.1-1.4c-1.6-6.6-3.3-13.2-5.1-19.7-8 0-16.2-.3-24.2-.7-1.5 6.2-3 12.4-4.6 18.6l-15.5-1c7.6-27.6 15.7-55.2 23.3-82.8zM60 72.4c-1.8 12.5-5.6 24.4-8.3 36.7H69c-3-12.1-6.6-24.3-9-36.7zm144.2-23.1v30.5c0 12.8-33.4 23.6-73 23.6H124V68.7h7.2c36 .1 65.3-8.1 73-19.4z" fill="#738fab"/>
</svg>
