<svg id="mobile_code" xmlns="http://www.w3.org/2000/svg" viewBox="0 0 120 214">
  <path id="phone" d="M114 0H6a6 6 0 0 0-6 6v202a6 6 0 0 0 6 6h108a6 6 0 0 0 6-6V6a6 6 0 0 0-6-6zM6 2h108a4 4 0 0 1 4 4v28H2V6a4 4 0 0 1 4-4zm112 34v142H2V36zm-4 176H6a4 4 0 0 1-4-4v-28h116v28a4 4 0 0 1-4 4zm-53.9-7a9 9 0 1 1 9-9 9 9 0 0 1-9 9zm0-16a7 7 0 1 0 7 7 7 7 0 0 0-7-7zM81 19H56a1 1 0 0 1 0-2h25a1 1 0 0 1 0 2zm-38 4.5a5.5 5.5 0 1 1 5.5-5.5 5.5 5.5 0 0 1-5.5 5.5zm0-9a3.5 3.5 0 1 0 3.5 3.5 3.5 3.5 0 0 0-3.5-3.5z" fill="#738fab"/>
  <path id="code" d="M49.8 120.6l19-28.3a1 1 0 0 1 1.4-.3 1 1 0 0 1 .3 1.4l-19 28.3a1 1 0 0 1-1.4.3 1 1 0 0 1-.3-1.4zm-9.3 1.6l-22-14.2a1 1 0 0 1-.3-1.4l.3-.3 22-14.2a1 1 0 0 1 1.4.3 1 1 0 0 1-.3 1.4l-19.4 12.5a1 1 0 0 0-.3 1.4l.3.3 19.4 12.5a1 1 0 0 1 .3 1.4 1 1 0 0 1-1.4.3zm37.6-.3a1 1 0 0 1 .3-1.4L97.8 108a1 1 0 0 0 .3-1.4l-.3-.3-19.4-12.4a1 1 0 0 1-.3-1.4 1 1 0 0 1 1.4-.3l22 14.2a1 1 0 0 1 .3 1.4l-.3.3-22 14.2a1 1 0 0 1-1.4-.3z" fill="#738fab"/>
</svg>
