<svg id="mobile_pic" xmlns="http://www.w3.org/2000/svg" viewBox="0 0 120 214">
  <path id="phone" d="M114 0H6a6 6 0 0 0-6 6v202a6 6 0 0 0 6 6h108a6 6 0 0 0 6-6V6a6 6 0 0 0-6-6zM6 2h108a4 4 0 0 1 4 4v28H2V6a4 4 0 0 1 4-4zm112 34v142H2V36zm-4 176H6a4 4 0 0 1-4-4v-28h116v28a4 4 0 0 1-4 4zm-53.9-7a9 9 0 1 1 9-9 9 9 0 0 1-9 9zm0-16a7 7 0 1 0 7 7 7 7 0 0 0-7-7zM81 19H56a1 1 0 0 1 0-2h25a1 1 0 0 1 0 2zm-38 4.5a5.5 5.5 0 1 1 5.5-5.5 5.5 5.5 0 0 1-5.5 5.5zm0-9a3.5 3.5 0 1 0 3.5 3.5 3.5 3.5 0 0 0-3.5-3.5z" fill="#ccd6e0"/>
  <path id="lines" d="M11 110h49a1 1 0 0 1 0 2H11a1 1 0 0 1 0-2zm0 8h44a1 1 0 0 1 0 2H11a1 1 0 0 1 0-2zm0 8h44a1 1 0 0 1 0 2H11a1 1 0 0 1 0-2zm0 14h41a1 1 0 0 1 0 2H11a1 1 0 0 1 0-2zm0 8h44a1 1 0 0 1 0 2H11a1 1 0 0 1 0-2zm0 8h14a1 1 0 0 1 0 2H11a1 1 0 0 1 0-2z" fill="#738fab"/>
  <g id="chart" fill="#738fab">
    <path d="M82.6 152H82a17.7 17.7 0 0 1-.1-35.3h.7a1 1 0 0 1 1 1v15.6h15.7a1 1 0 0 1 1 1A17.6 17.6 0 0 1 82.8 152h-.2zm-1-33.2A15.6 15.6 0 0 0 67 135a15.9 15.9 0 0 0 15 15 15.6 15.6 0 0 0 16.2-14.6H82.6a1 1 0 0 1-1-1z"/>
    <path d="M106 128.6H89.4a1 1 0 0 1-1-1V111a1 1 0 0 1 1-1 17.7 17.7 0 0 1 17.6 17.6 1 1 0 0 1-1 1zm-15.6-2H105A15.7 15.7 0 0 0 90.4 112z"/>
  </g>
  <g id="pic" fill="#738fab">
    <path d="M109 99H11a1 1 0 0 1-1-1V49a1 1 0 0 1 1-1h98a1 1 0 0 1 1 1v49a1 1 0 0 1-1 1zm-97-2h96V50H12z"/>
    <path d="M73.7 83.2H40.3a1 1 0 0 1-.9-1.5c.6-1.1 5.8-10.9 9-12.8a3.1 3.1 0 0 1 3.1-.3 3.3 3.3 0 0 1 1.3 1.3c.9-1.4 2.2-3.1 3.9-3.5a3.1 3.1 0 0 1 2.5.4 3.6 3.6 0 0 1 1 .9c.8-1.1 2-2.4 3.5-2.5s2.5.7 3.5 2.3c3.1 5 7.3 14 7.5 14.4a1 1 0 0 1-.5 1.3zm-31.7-2h30.2c-1.3-2.8-4.4-9.1-6.7-12.8-.4-.6-1-1.4-1.6-1.3s-2.4 2.1-2.8 3.1a1 1 0 0 1-1.9-.2 2.8 2.8 0 0 0-.9-1.6 1.1 1.1 0 0 0-.9-.1c-1.6.4-3.2 3.4-3.7 4.4a1 1 0 0 1-1.9-.2c-.1-.6-.4-1.8-1-2.1s-.7 0-1.2.3c-2.1 1.1-5.7 7-7.6 10.5zm34.1-10.9a4.6 4.6 0 1 1 4.6-4.6 4.6 4.6 0 0 1-4.6 4.6zm0-7.2a2.6 2.6 0 1 0 2.6 2.6 2.6 2.6 0 0 0-2.6-2.6z"/>
  </g>
</svg>
