<svg id="web_code2" xmlns="http://www.w3.org/2000/svg" viewBox="0 0 246.1 178">
  <path id="window" d="M210 178H6a6 6 0 0 1-6-6V6a6 6 0 0 1 6-6h204a6 6 0 0 1 6 6v166a6 6 0 0 1-6 6zM6 2a4 4 0 0 0-4 4v166a4 4 0 0 0 4 4h204a4 4 0 0 0 4-4V6a4 4 0 0 0-4-4zm208 32H2v2h212zM44.6 25.3a7.2 7.2 0 1 1 7.1-7.3 7.2 7.2 0 0 1-7.1 7.3zm-22.6 0a7.2 7.2 0 1 1 7.1-7.3 7.2 7.2 0 0 1-7.1 7.3zm45.2 0a7.2 7.2 0 1 1 7.1-7.3 7.2 7.2 0 0 1-7.1 7.3zm0-12.3a5.2 5.2 0 1 0 5.1 5.3 5.2 5.2 0 0 0-5.1-5.3zm-22.6 0a5.2 5.2 0 1 0 5.1 5.3 5.2 5.2 0 0 0-5.1-5.3zM22 13a5.2 5.2 0 1 0 5.1 5.3A5.2 5.2 0 0 0 22 13zm192 73.7v71.7a4 4 0 0 0 2-2.3V89a4 4 0 0 0-2-2.3z" fill="#e7ecf1"/>
  <path id="cogwheel" d="M246.1 120.1v5c0 2.5-1.4 4.6-3.3 5l-6.3 1.3a1.4 1.4 0 0 0-1.1.9l-1 2.5a1.4 1.4 0 0 0 .1 1.4l3.6 5.4c1.1 1.6.6 4.1-1.2 5.9l-3.5 3.5c-1.8 1.8-4.2 2.3-5.9 1.2l-5.4-3.6a1.4 1.4 0 0 0-1.4-.1l-2.5 1a1.4 1.4 0 0 0-.9 1.1l-1.3 6.3c-.4 1.9-2.5 3.3-5 3.3h-5c-2.5 0-4.6-1.4-5-3.3l-1.3-6.3a1.4 1.4 0 0 0-.9-1.1l-2.5-1a1.4 1.4 0 0 0-1.4.1l-5.4 3.6c-1.6 1.1-4.1.6-5.9-1.2l-3.5-3.5c-1.8-1.8-2.3-4.2-1.2-5.9l3.6-5.4a1.4 1.4 0 0 0 .1-1.4 26 26 0 0 1-1-2.5 1.4 1.4 0 0 0-1.1-.9l-6.3-1.3c-1.9-.4-3.3-2.5-3.3-5v-5c0-2.5 1.4-4.6 3.3-5l6.3-1.3a1.4 1.4 0 0 0 1.1-.9l1-2.5a1.4 1.4 0 0 0-.1-1.4l-3.6-5.4c-1.1-1.6-.6-4.1 1.2-5.9l3.5-3.5c1.8-1.8 4.2-2.3 5.9-1.2l5.4 3.6a1.4 1.4 0 0 0 1.4.1l2.5-1a1.4 1.4 0 0 0 .9-1.1l1.3-6.3c.4-1.9 2.5-3.3 5-3.3h5c2.5 0 4.6 1.4 5 3.3l1.3 6.3a1.4 1.4 0 0 0 .9 1.1l2.5 1a1.4 1.4 0 0 0 1.4-.1l5.4-3.6c1.6-1.1 4.1-.6 5.9 1.2l3.5 3.5c1.8 1.8 2.3 4.2 1.2 5.9l-3.6 5.4a1.4 1.4 0 0 0-.1 1.4 26 26 0 0 1 1 2.5 1.4 1.4 0 0 0 1.1.9l6.3 1.3c1.9.3 3.3 2.4 3.3 5zm-52.2 26.8l-5.4 3.6c-.8.5-2.3.1-3.3-1l-3.5-3.5c-1.1-1.1-1.5-2.5-1-3.4l3.6-5.4a3.4 3.4 0 0 0 .3-3.3 22.9 22.9 0 0 1-1-2.3 3.5 3.5 0 0 0-2.6-2.2l-6.3-1.3c-.9-.2-1.7-1.5-1.7-3v-5c0-1.5.7-2.9 1.7-3l6.3-1.3a3.5 3.5 0 0 0 2.6-2.2 16 16 0 0 1 1-2.3 3.4 3.4 0 0 0-.3-3.3l-3.6-5.4c-.5-.8-.1-2.3 1-3.3l3.5-3.5c1.1-1.1 2.5-1.5 3.4-1l5.4 3.6a3.4 3.4 0 0 0 3.3.3l2.3-1a3.5 3.5 0 0 0 2.2-2.6l1.3-6.3c.2-.9 1.5-1.7 3-1.7h5c1.5 0 2.9.7 3 1.7l1.3 6.3a3.5 3.5 0 0 0 2.2 2.6l2.3 1a3.4 3.4 0 0 0 3.3-.3l5.4-3.6c.8-.5 2.3-.1 3.3 1l3.5 3.5c1.1 1.1 1.5 2.5 1 3.4l-3.6 5.4a3.4 3.4 0 0 0-.3 3.3 22.9 22.9 0 0 1 1 2.3 3.5 3.5 0 0 0 2.6 2.2l6.3 1.3c.9.2 1.7 1.5 1.7 3v5c0 1.5-.7 2.9-1.7 3l-6.3 1.3a3.5 3.5 0 0 0-2.6 2.2 16 16 0 0 1-1 2.3 3.4 3.4 0 0 0 .3 3.3l3.6 5.4c.5.8.1 2.3-1 3.4l-3.5 3.5c-1.1 1.1-2.5 1.5-3.4 1l-5.4-3.6a3.4 3.4 0 0 0-3.3-.3l-2.3 1a3.5 3.5 0 0 0-2.2 2.6l-1.3 6.3c-.2.9-1.5 1.7-3 1.7h-5c-1.5 0-2.9-.7-3-1.7l-1.3-6.3a3.5 3.5 0 0 0-2.2-2.6l-2.3-1a3.3 3.3 0 0 0-1.4-.3 3.5 3.5 0 0 0-1.9.5zm14.7-9.3a15 15 0 1 1 15-15 15 15 0 0 1-15 15zm0-28a13 13 0 1 0 13 13 13 13 0 0 0-12.9-13.1h-.1z" fill="#e7ecf1" fill-rule="evenodd"/>
  <path id="code" d="M11 100h5v2h-5zm0 13h5v2h-5zm0 12h5v2h-5zm0 13h5v2h-5zm0 13h5v2h-5zm0 13h5v2h-5zm0-116h5v2h-5zm0 13h5v2h-5zm0 13h5v2h-5zm0 13h5v2h-5zm0 0h5v2h-5zm38-39h22v2H49zm27 0h10v2H76zm15 0h27v2H91zm32 0h10v2h-10zm16 0h16v2h-16zM55 61h15v2H55zm20 0h8v2h-8zm13 0h15v2H88zM40 74h10v2H40zm15 0h21v2H55zm27 0h22v2H82zm28 0h17v2h-17zM40 87h14v2H40zm19 0h19v2H59zm-16 13h11v2H43zm15 12h17v2H58zm21 0h11v2H79zm-33 13h11v2H46zm17 0h16v2H63zm-18 13h15v2H45zm-6 13h14v2H39zm6 13h19v2H45zm24 0h14v2H69zm-12-13h14v2H57zm2-51h24v2H59zM26 48h18v2H26zm0 13h25v2H26zm0 13h8v2h-8zm0 13h10v2H26zm0 0h10v2H26zm0 13h12v2H26zm0 12h28v2H26zm0 13h16v2H26zm0 13h14v2H26zm0 13h8v2h-8zm0 13h14v2H26z" fill="#e7ecf1"/>
</svg>
