<svg id="web_code" xmlns="http://www.w3.org/2000/svg" viewBox="0 0 216 178">
  <path id="window" d="M210 0H6a6 6 0 0 0-6 6v166a6 6 0 0 0 6 6h204a6 6 0 0 0 6-6V6a6 6 0 0 0-6-6zM6 2h204a4 4 0 0 1 4 4v28H2V6a4 4 0 0 1 4-4zm204 174H6a4 4 0 0 1-4-4V36h212v136a4 4 0 0 1-4 4zM22.3 25.3a7.2 7.2 0 1 0-7.1-7.3 7.2 7.2 0 0 0 7.1 7.3zm0-12.3a5.2 5.2 0 1 1-5.1 5.3 5.2 5.2 0 0 1 5.1-5.3zm22.5 12.3a7.2 7.2 0 1 0-7.1-7.3 7.2 7.2 0 0 0 7.1 7.3zm0-12.3a5.2 5.2 0 1 1-5.1 5.3 5.2 5.2 0 0 1 5.1-5.3zm22.7 12.3a7.2 7.2 0 1 0-7.1-7.3 7.2 7.2 0 0 0 7.1 7.3zm0-12.3a5.2 5.2 0 1 1-5.1 5.3 5.2 5.2 0 0 1 5.1-5.3z" fill="#e7ecf1"/>
  <path d="M90.9 129.9l32.8-49 1.7 1.1-32.8 49zM78 131.1l-38.5-24.8L78 81.5l1.1 1.6-35.9 23.2 35.9 23.1zm60 0l-1.1-1.7 35.9-23.1-35.9-23.2 1.1-1.6 38.5 24.8z" fill="#e7ecf1" id="code"/>
</svg>
