<svg id="web_devices" xmlns="http://www.w3.org/2000/svg" viewBox="0 0 232 194">
  <path id="devices" d="M226 86h-12V13a13 13 0 0 0-13-13H13A13 13 0 0 0 0 13v128a13 13 0 0 0 13 13h75.3l-6.9 28H64a6 6 0 0 0 0 12h162a6 6 0 0 0 6-6V92a6 6 0 0 0-6-6zM13 152a11 11 0 0 1-11-11v-12h88v23zm77 3.7V182h-6.5zM64 192a4 4 0 0 1 0-8h26v4a5.9 5.9 0 0 0 1.5 4zM90 61v66H2V13A11 11 0 0 1 13 2h188a11 11 0 0 1 11 11v73h-25V61a6 6 0 0 0-6-6H96a6 6 0 0 0-6 6zm6 131a4 4 0 0 1-4-4v-15.9h79V188a5.9 5.9 0 0 0 1.5 4zm75-100v78.1H92V61a4 4 0 0 1 4-4h85a4 4 0 0 1 4 4v25h-8l-2 .2a6 6 0 0 0-4 5.8zm59 96a4 4 0 0 1-4 4h-49a4 4 0 0 1-4-4v-11h57zm0-13h-57v-69h57zm0-71h-57V92a4 4 0 0 1 4-4h49a4 4 0 0 1 4 4zm-91.5 84.2a6.2 6.2 0 1 1 6.2-6.2 6.2 6.2 0 0 1-6.2 6.2zm0-10.3a4.2 4.2 0 1 0 4.2 4.2 4.2 4.2 0 0 0-4.2-4.2zm63 2.4a5 5 0 1 0 5 5 5 5 0 0 0-5-5zm0 8a3 3 0 1 1 3-3 2.9 2.9 0 0 1-2.8 3h-.2zM201 95h10a1 1 0 0 1 0 2h-10a1 1 0 0 1 0-2zm-8-2a3 3 0 1 1-3 3 3 3 0 0 1 3-3z" style="isolation:isolate" fill="#abbccd" opacity=".65"/>
  <path id="content_display" d="M92.1 47.3l-2.4-2.4a1.1 1.1 0 0 0-1.4.2.9.9 0 0 0 0 1.2l.7.7H66V24a.9.9 0 0 0-.8-1H57a.9.9 0 0 0-1 1v23h-7V33a.9.9 0 0 0-.8-1H40a.9.9 0 0 0-1 1v14h-7V28a.9.9 0 0 0-.8-1H23a.9.9 0 0 0-1 1v19h-7V17.1l.7.7a1.1 1.1 0 0 0 1.4-.2.9.9 0 0 0 0-1.2L14.7 14a1 1 0 0 0-1.4 0l-2.4 2.4a1.1 1.1 0 0 0 .2 1.4.9.9 0 0 0 1.2 0l.7-.7V49h76l-.7.7a1 1 0 0 0 1.2 1.6l.2-.2 2.4-2.4a1 1 0 0 0 0-1.4zM24 47V29h6v18zm17 0V34h6v13zm17 0V25h6v22zm142.8-28H107a1 1 0 0 1 0-2h93.8a1 1 0 0 1 0 2zm-3.8 8h-90a1 1 0 0 1 0-2h90a1 1 0 0 1 0 2zm4 8h-94a1 1 0 0 1 0-2h94a1 1 0 0 1 0 2zm-73 8h-21a1 1 0 0 1 0-2h21a1 1 0 0 1 0 2zM15 67v39h75v2H14a.9.9 0 0 1-1-1V66a.9.9 0 0 1 .8-1H90v2zm51.5 27.7h-28a.9.9 0 0 1-1-1 .7.7 0 0 1 .1-.5c.5-.9 4.9-9.2 7.6-10.8a2.6 2.6 0 0 1 3.7.4v.2a6.1 6.1 0 0 1 3.3-2.8 2.9 2.9 0 0 1 2.2.3l.7.6a4 4 0 0 1 2.9-2c1.2-.1 2.2.6 3 2 2.6 4.2 6.1 11.8 6.3 12.1a1 1 0 0 1-.5 1.3h-.4zm-26.3-2h24.7c-1.2-2.4-3.6-7.4-5.5-10.4-.3-.4-.7-1.1-1.2-1a5.9 5.9 0 0 0-2.2 2.5 1 1 0 0 1-1.3.5 1.1 1.1 0 0 1-.6-.7 1.9 1.9 0 0 0-.7-1.2h-.6c-1.2.3-2.5 2.6-3 3.6a1 1 0 0 1-1.3.5 1.1 1.1 0 0 1-.6-.7 2.5 2.5 0 0 0-.8-1.6c-.4-.2-.6.1-.8.2a61 61 0 0 0-6.1 8.3zM68.5 84a4 4 0 1 1 4-4 4 4 0 0 1-4 4zm0-6a2 2 0 1 0 2 2 2 2 0 0 0-2-2z" fill="#e7ecf1"/>
  <path id="content_tablet" d="M155 150.9h-.5a13.9 13.9 0 0 1 0-27.8h.5a.9.9 0 0 1 1 1V136h11.9a.9.9 0 0 1 1 1 13.9 13.9 0 0 1-13.9 13.9zm-1-25.7a11.9 11.9 0 0 0-10.9 12.3 12.1 12.1 0 0 0 11.4 11.4 11.9 11.9 0 0 0 12.3-10.9H155a.9.9 0 0 1-1-1zm7-5V131h10v2h-11a.9.9 0 0 1-1-1v-12.8a.9.9 0 0 1 .8-1h.2a13.9 13.9 0 0 1 11 5.4v4a11.8 11.8 0 0 0-10-7.4zm-26-.2h-33a1 1 0 0 1 0-2h33a1 1 0 0 1 0 2zm-4 8h-29a1 1 0 0 1 0-2h29a1 1 0 0 1 0 2zm4 8h-33a1 1 0 0 1 0-2h33a1 1 0 0 1 0 2zm-3 8h-30a1 1 0 0 1 0-2h30a1 1 0 0 1 0 2zm-19 8h-11a1 1 0 0 1 0-2h11a1 1 0 0 1 0 2zm64-66V68a.9.9 0 0 0-.8-1H102a.9.9 0 0 0-1 1v40a.9.9 0 0 0 .8 1H171v-2h-68V69h72v17.2z" fill="#e7ecf1"/>
  <path id="content_mobile" d="M199 137.5h-1.2a11 11 0 1 1 1.3-22 .9.9 0 0 1 1 1v9h9a.9.9 0 0 1 1 1 11 11 0 0 1-11 11zm-1-20a9.1 9.1 0 0 0-8 9.9 9 9 0 0 0 17.9.1h-9a.9.9 0 0 1-1-1zm16 5h-10a.9.9 0 0 1-1-1v-10a.9.9 0 0 1 .8-1h.2a11 11 0 0 1 11 11 .9.9 0 0 1-.8 1h-.2zm-9-2h8a8.9 8.9 0 0 0-8-8zm13 25.5h-38a1 1 0 0 1 0-2h38a1 1 0 0 1 0 2zm5 8h-43a1 1 0 0 1 0-2h43a1 1 0 0 1 0 2zm-17 8h-26a1 1 0 0 1 0-2h26a1 1 0 0 1 0 2z" fill="#e7ecf1"/>
</svg>
