<svg id="chart" xmlns="http://www.w3.org/2000/svg" viewBox="0 0 216 178">
  <path id="window" d="M210 0H6a6 6 0 0 0-6 6v166a6 6 0 0 0 6 6h204a6 6 0 0 0 6-6V6a6 6 0 0 0-6-6zM6 2h204a4 4 0 0 1 4 4v28H2V6a4 4 0 0 1 4-4zm204 174H6a4 4 0 0 1-4-4V36h212v136a4 4 0 0 1-4 4zM22.3 25.3a7.2 7.2 0 1 0-7.1-7.3 7.2 7.2 0 0 0 7.1 7.3zm0-12.3a5.2 5.2 0 1 1-5.1 5.3 5.2 5.2 0 0 1 5.1-5.3zm22.5 12.3a7.2 7.2 0 1 0-7.1-7.3 7.2 7.2 0 0 0 7.1 7.3zm0-12.3a5.2 5.2 0 1 1-5.1 5.3 5.2 5.2 0 0 1 5.1-5.3zm22.7 12.3a7.2 7.2 0 1 0-7.1-7.3 7.2 7.2 0 0 0 7.1 7.3zm0-12.3a5.2 5.2 0 1 1-5.1 5.3 5.2 5.2 0 0 1 5.1-5.3z" fill="#e7ecf1"/>
  <path id="content" d="M13 91h76.3l-.8.8a1 1 0 1 0 1.5 1.4l2.4-2.4a1 1 0 0 0 0-1.4L90 87a1 1 0 0 0-1.4 1.4l.5.5H66V66a1 1 0 0 0-1-1h-8a1 1 0 0 0-1 1v23h-7V75a1 1 0 0 0-1-1h-8a1 1 0 0 0-1 1v14h-7V70a1 1 0 0 0-1-1h-8a1 1 0 0 0-1 1v19h-7V59.1l.9.9a1 1 0 0 0 1.4-1.4L15 56.2a1 1 0 0 0-1.4 0l-2.4 2.4a1 1 0 0 0 1.4 1.4l.4-.4zm45-24h6v22h-6zm-17 9h6v13h-6zm-17-5h6v18h-6zm177-12h-94a1 1 0 0 0 0 2h94a1 1 0 0 0 0-2zm-94 10h90a1 1 0 0 0 0-2h-90a1 1 0 0 0 0 2zm94 6h-94a1 1 0 0 0 0 2h94a1 1 0 0 0 0-2zm-72 9a1 1 0 0 0-1-1h-21a1 1 0 0 0 0 2h21a1 1 0 0 0 1-1zm-33 27H14a1 1 0 0 0-1 1v41a1 1 0 0 0 1 1h82a1 1 0 0 0 1-1v-41a1 1 0 0 0-1-1zm-1 41H15v-39h80zm-56.2-11h28a1 1 0 0 0 .9-1.4c-.1-.3-3.7-7.9-6.3-12.1a3.6 3.6 0 0 0-3-2 4.3 4.3 0 0 0-2.9 2l-.7-.6a2.8 2.8 0 0 0-2.2-.3 6.2 6.2 0 0 0-3.2 2.8 2.6 2.6 0 0 0-3.6-.7h-.2c-2.8 1.7-7.1 9.9-7.6 10.8a1 1 0 0 0 .4 1.4h.4zm7.8-10.6c.2-.1.6-.3.8-.2a4 4 0 0 1 .8 1.6 1 1 0 0 0 1.9.3c.4-1 1.7-3.3 3-3.6h.6a2.2 2.2 0 0 1 .7 1.2 1 1 0 0 0 1.9.2c.5-1 1.5-2.4 2.2-2.5s1 .6 1.2 1c1.9 3 4.3 8 5.5 10.4H40.4c1.9-3.2 4.6-7.6 6.1-8.5zM69 130a4 4 0 1 0-4-4 4 4 0 0 0 4 4zm0-6a2 2 0 1 1-2 2 2 2 0 0 1 2-2zm73.1 9H128v-14.1a1 1 0 0 0-1-1 16.1 16.1 0 0 0-16.1 16.1v.7a16.2 16.2 0 0 0 15.3 15.3h.8a16.1 16.1 0 0 0 16.1-16 1 1 0 0 0-1-1zm-5.4 11.2a13.9 13.9 0 0 1-10.4 3.9 14.1 14.1 0 0 1-.3-28.1v14a1 1 0 0 0 1 1h14a13.9 13.9 0 0 1-4.3 9.2zm-3.7-32.3a1 1 0 0 0-1 1V128a1 1 0 0 0 1 1h15.1a1 1 0 0 0 1-1 16.1 16.1 0 0 0-16.1-16.1zm1 15.1v-13a14.1 14.1 0 0 1 13 13zm26 12a1 1 0 0 0-1 1v11a1 1 0 0 0 2 0v-11a1 1 0 0 0-1-1zm8 3a1 1 0 0 0-1 1v8a1 1 0 0 0 2 0v-8a1 1 0 0 0-1-1zm8 6a1 1 0 0 0-1 1v2a1 1 0 0 0 2 0v-2a1 1 0 0 0-1-1zm8-11a1 1 0 0 0-1 1v13a1 1 0 0 0 2 0v-13a1 1 0 0 0-1-1zm8 5a1 1 0 0 0-1 1v8a1 1 0 0 0 2 0v-8a1 1 0 0 0-1-1zm-3-31h-28a1 1 0 0 0 0 2h28a1 1 0 0 0 0-2zm-28 10h15a1 1 0 0 0 0-2h-15a1 1 0 0 0 0 2zm20 6h-20a1 1 0 0 0 0 2h20a1 1 0 0 0 0-2z" fill="#e7ecf1"/>
</svg>
