<svg width="421" height="388" xmlns="http://www.w3.org/2000/svg"><path d="M89.4 351.6c4.5 3.2 9.3 6.1 14.2 8.9-4.9-2.8-9.7-5.7-14.2-8.9-1.5-.8-2.9-1.5-4.1-2.3 14.5 9.3 14.7 9.4 23.2 13.8-1.4-.7-2.7-1.4-4-2.1 1.3.7 2.7 1.5 4 2.2 5.3 2.5 12.3 5.8 17.7 8.1 50 22 118.8 22 171.7-1.4 12.8-5.8 15.9-7.2 28.2-14.4 4.2-2.7 9.8-6.3 13.8-9.1-11.6 8.2-35 15.4-67.8 19.8-67.5 8.9-149.3 2.4-182.7-14.6zm210-53.9c-98.9 13.2-218.6 3.7-267.5-21.2.3 1 .7 1.9 1.1 2.8-.4-.9-.7-1.9-1.1-2.8-10.2-5.2-16.5-10.7-19.2-16.2 7.6 17.3 7.9 17.9 13.6 27.5l5.6 8.7c4.2 4.9 5.9 7 16.2 12.5-.4-.6-.8-1.3-1.2-1.9.4.6.8 1.3 1.2 1.9 91.8 42.4 315 25.7 342.6-15.3l5.4-8.8c9.3-17.5 9.6-18.2 13.6-28.9-6.2 17-45.9 33.1-110.3 41.7zM21.8 212.8c0-1 0-1 0 0 107.3 49.5 398.1 29.6 399-27.4-1.8-19.9-2-22-5.5-36.7l-1.5-5.4c8.9 64.2-295.7 75.4-386.8 29.8-.2.8-22.9-14.1-20.7-26.6L3 160.7c-1.2 8.4-2.5 19.6-3 28.1-.2 8.1 6.8 16.3 21.8 24zM65.9 53c.5-.4 1-.9 1.5-1.4-.5.5-1 .9-1.5 1.4zm-13.5 58.5c.5-.8 1-1.6 1.5-2.5-.4.9-1 1.7-1.5 2.5 42.8 21.9 147.9 30.2 234.6 18.6 72.7-9.7 109.5-30.3 94.2-49.6-4-4.7-9.2-10.9-13.4-15.4-4.6-4.4-10.7-10.2-15.8-14.6 18.5 17-12.5 35.9-77.3 44.5-73.4 9.8-162.2 2.7-198.5-15.7-1 1.1-1 1.1 0 0C59.9 70.9 57.1 61.6 65.9 53 53.5 64.4 52.2 65.7 44.6 74.4l-7.1 8.8c-7.1 9.4-2.7 19.3 14.9 28.3zm75.8-75.2c22 11.2 76 15.5 120.5 9.6 44.6-5.9 62.8-19.9 40.8-31.1-2.8-1.4-6.2-2.8-10-4-4.1-1.2-9.6-2.8-13.8-3.9-9.6-2.2-9.6-2.2-14.8-3.2-8-1.3-8-1.3-12.1-1.8-7-.8-7-.8-10.4-1.1-6.4-.4-6.4-.4-9.5-.6-6-.2-6-.2-9-.2-6 .1-6.1.1-9.2.2-6.3.3-6.4.3-9.7.6-6.9.7-7.1.7-10.8 1.2-10.5 1.6-21.4 3.2-40.8 9.3-21.8 7-27.4 16.7-11.2 25zm58.8-31c24.3-3.2 53.8-.9 65.8 5.2 12 6.1 2 13.7-22.3 17-24.3 3.2-53.8.9-65.8-5.2-1.7.6-1.7.6 0 0-12-6.1-2-13.7 22.3-17z" fill="#FFF"/></svg>