<svg xmlns="http://www.w3.org/2000/svg" viewBox="0 0 1496.9 391.6"><linearGradient id="a" gradientUnits="userSpaceOnUse" x1="881.077" y1="-590.385" x2="1135.758" y2="-590.385" gradientTransform="matrix(-.9999 .01038 -.01038 -.9999 1215.076 -233.284)"><stop offset=".153" stop-color="#1915ff"/><stop offset=".753" stop-color="#f7560f"/><stop offset=".815" stop-color="#f7560f"/></linearGradient><path d="M89.4 351.6c4.5 3.2 9.3 6.1 14.2 8.9-4.9-2.8-9.7-5.7-14.2-8.9-1.5-.8-2.9-1.5-4.1-2.3 14.5 9.3 14.7 9.4 23.2 13.8-1.4-.7-2.7-1.4-4-2.1 1.3.7 2.7 1.5 4 2.2 5.3 2.5 12.3 5.8 17.7 8.1 50 22 118.8 22 171.7-1.4 12.8-5.8 15.9-7.2 28.2-14.4 4.2-2.7 9.8-6.3 13.8-9.1-11.6 8.2-35 15.4-67.8 19.8-67.5 8.9-149.3 2.4-182.7-14.6z" fill="url(#a)"/><linearGradient id="b" gradientUnits="userSpaceOnUse" x1="810.288" y1="-518.631" x2="1207.381" y2="-518.631" gradientTransform="matrix(-.9999 .01038 -.01038 -.9999 1215.076 -233.284)"><stop offset=".153" stop-color="#1915ff"/><stop offset=".753" stop-color="#f7560f"/><stop offset=".815" stop-color="#f7560f"/></linearGradient><path d="M299.4 297.7c-98.9 13.2-218.6 3.7-267.5-21.2.3 1 .7 1.9 1.1 2.8-.4-.9-.7-1.9-1.1-2.8-10.2-5.2-16.5-10.7-19.2-16.2 7.6 17.3 7.9 17.9 13.6 27.5l5.6 8.7c4.2 4.9 5.9 7 16.2 12.5-.4-.6-.8-1.3-1.2-1.9.4.6.8 1.3 1.2 1.9 91.8 42.4 315 25.7 342.6-15.3l5.4-8.8c9.3-17.5 9.6-18.2 13.6-28.9-6.2 17-45.9 33.1-110.3 41.7z" fill="url(#b)"/><linearGradient id="c" gradientUnits="userSpaceOnUse" x1="798.623" y1="-415.479" x2="1219.397" y2="-415.479" gradientTransform="matrix(-.9999 .01038 -.01038 -.9999 1215.076 -233.284)"><stop offset=".153" stop-color="#1915ff"/><stop offset=".753" stop-color="#f7560f"/><stop offset=".815" stop-color="#f7560f"/></linearGradient><path d="M21.8 212.8c0-1 0-1 0 0 107.3 49.5 398.1 29.6 399-27.4-1.8-19.9-2-22-5.5-36.7l-1.5-5.4c8.9 64.2-295.7 75.4-386.8 29.8-.2.8-22.9-14.1-20.7-26.6L3 160.7c-1.2 8.4-2.5 19.6-3 28.1-.2 8.1 6.8 16.3 21.8 24z" fill="url(#c)"/><linearGradient id="d" gradientUnits="userSpaceOnUse" x1="1150.569" y1="-273.673" x2="1152.056" y2="-273.673" gradientTransform="matrix(-.9999 .01038 -.01038 -.9999 1215.076 -233.284)"><stop offset=".153" stop-color="#1915ff"/><stop offset=".753" stop-color="#f7560f"/><stop offset=".815" stop-color="#f7560f"/></linearGradient><path d="M65.9 53c.5-.4 1-.9 1.5-1.4-.5.5-1 .9-1.5 1.4z" fill="url(#d)"/><linearGradient id="e" gradientUnits="userSpaceOnUse" x1="833.697" y1="-316.24" x2="1184.098" y2="-316.24" gradientTransform="matrix(-.9999 .01038 -.01038 -.9999 1215.076 -233.284)"><stop offset=".153" stop-color="#1915ff"/><stop offset=".753" stop-color="#f7560f"/><stop offset=".815" stop-color="#f7560f"/></linearGradient><path d="M52.4 111.5c.5-.8 1-1.6 1.5-2.5-.4.9-1 1.7-1.5 2.5 42.8 21.9 147.9 30.2 234.6 18.6 72.7-9.7 109.5-30.3 94.2-49.6-4-4.7-9.2-10.9-13.4-15.4-4.6-4.4-10.7-10.2-15.8-14.6 18.5 17-12.5 35.9-77.3 44.5-73.4 9.8-162.2 2.7-198.5-15.7-1 1.1-1 1.1 0 0C59.9 70.9 57.1 61.6 65.9 53 53.5 64.4 52.2 65.7 44.6 74.4l-7.1 8.8c-7.1 9.4-2.7 19.3 14.9 28.3z" fill="url(#e)"/><linearGradient id="f" gradientUnits="userSpaceOnUse" x1="1088.372" y1="-127.385" x2="1245.443" y2="-127.385" gradientTransform="rotate(149.2 666.83 -182.895)"><stop offset=".153" stop-color="#1915ff"/><stop offset=".753" stop-color="#f7560f"/><stop offset=".815" stop-color="#f7560f"/></linearGradient><path d="M128.2 36.3c22 11.2 76 15.5 120.5 9.6 44.6-5.9 62.8-19.9 40.8-31.1-2.8-1.4-6.2-2.8-10-4-4.1-1.2-9.6-2.8-13.8-3.9-9.6-2.2-9.6-2.2-14.8-3.2-8-1.3-8-1.3-12.1-1.8-7-.8-7-.8-10.4-1.1-6.4-.4-6.4-.4-9.5-.6-6-.2-6-.2-9-.2-6 .1-6.1.1-9.2.2-6.3.3-6.4.3-9.7.6-6.9.7-7.1.7-10.8 1.2-10.5 1.6-21.4 3.2-40.8 9.3-21.8 7-27.4 16.7-11.2 25zm58.8-31c24.3-3.2 53.8-.9 65.8 5.2 12 6.1 2 13.7-22.3 17-24.3 3.2-53.8.9-65.8-5.2-1.7.6-1.7.6 0 0-12-6.1-2-13.7 22.3-17z" fill="url(#f)"/><path d="M515.7 211.1h17.8c22.5 0 31.7-7.5 36.4-30l14.6-68.6h42.4l-18 84.4c-6.4 29.8-26.8 46.9-56.8 46.9h-43.3l6.9-32.7zm201.8-23.2l16.1-75.4H776l-16.9 78.7c-9.6 45-31.5 54-72.7 54-36 0-58.9-12.6-58.9-40.5 0-4.1.8-10.3 1.5-13.5l16.9-78.7h42.4l-16.1 75.4c-.6 3-.9 5.8-.9 8.2 0 10.9 6.6 15 18.7 15 14.9 0 23.9-6.4 27.5-23.2zm49.1 55.8l23.6-110.6c2.8-13.1 11.8-20.6 24.9-20.6h70.7c23.6 0 32.6 12.9 32.6 32.8 0 4.7-.6 11.2-1.7 17.4-5.4 30.2-13.3 43.1-47.1 43.1H817l-8.1 37.9h-42.3zm87.2-70.5c11.3 0 16.5-1.3 19.5-12.4.6-1.9.9-5.2.9-6.7 0-7.1-5.1-9-14.4-9h-21.6c-5.6 0-8.8 2.6-9.9 8.2l-4.3 19.9h29.8zm60.3 70.5L942 112.5h42.4l-27.9 131.2h-42.4zm98.7 0l21-98.6h-46.9l6.9-32.6h136.1l-6.9 32.6h-46.9l-21 98.6h-42.3zm235.3-99.3h-64.9c-5.6 0-8.8 2.6-9.9 8.3l-2.1 9.7h71.6l-6.2 28.9H1165l-2.6 12.4c-.2 1.1-.4 2.1-.4 3 0 3.6 2.2 5.2 6.7 5.2h65.6l-6.8 31.9H1132c-11.1 0-16.7-6.8-16.7-15.6 0-1.7.2-3.4.6-5.1l19.1-90c2.8-13.1 9.9-20.6 24.9-20.6h94.9l-6.7 31.9zm18.2-11.3c2.8-13.1 11.8-20.6 24.9-20.6h70.3c23.8 0 33.2 12.7 33.2 32.1 0 5.1-.4 10.5-1.5 16.3-3.6 18.7-9 42.9-39 42.9h-3.7l-.2.8 27.2 39.2h-47.2l-21.7-34.1c-3.8-6-5.6-8.1-5.6-14.1 0-1.3.2-2.4.4-3.7l.6-2.8c2.4-11.2 10.9-14.8 22.1-14.8h6.4c11.2 0 15.7-3.6 18.2-14.8.6-2.2.7-4.3.7-6 0-6.4-3.8-8.2-12.7-8.2h-24.2c-5.6 0-8.8 2.6-9.9 8.2l-19.3 90.4h-42.4l23.4-110.8z"/><path d="M1196 391.6h-13.2v-38.2c0-3.7-.8-6.6-2.5-8.4-1.7-1.9-4.3-2.8-8-2.8H1160v49.5h-13v-49.5h-19.2c-1.3 0-2.3.2-2.8.7-.5.5-.7 1.6-.7 3.3v45.4h-13.2v-49.3c0-2.9.6-5.2 1.7-6.8 1.6-2.4 4.6-3.6 9-3.6h53.7c6.8 0 11.8 1.6 15.2 4.7 3.6 3.4 5.4 8.2 5.4 14.6v40.4zm87.4-36.7c0 4.1-.9 7.2-2.8 9-1.5 1.5-3.6 2.3-6.4 2.3h-34.6c0 3.5.3 6.2.8 8.2 1.2 4.7 5.2 7.1 12 7.1h29.1v10.1h-33.1c-8.6 0-14.7-2.5-18.2-7.5-2.9-4.1-4.3-11.3-4.3-21.8 0-6.5.4-11.4 1.1-14.5 1-4.4 3-7.9 6-10.5 4.3-3.8 11.8-5.6 22.3-5.6 9.1 0 15.6 1.3 19.7 3.8 5.6 3.5 8.4 10 8.4 19.4zm-13.6-2.3c0-3.4-1.2-6-3.7-7.9-2.5-1.9-6.3-2.8-11.4-2.8-6 0-10.2 1.3-12.5 4-1.7 1.9-2.6 5.3-2.7 10.3h27.3c2-.1 3-1.3 3-3.6zm97.5 28.6c0 3.3-.6 5.8-1.8 7.4-1.5 2-4.2 3-8.2 3h-23.5c-9.4 0-15.7-3.9-19-11.8-2-4.7-2.9-10.9-2.9-18.9 0-8.9 1.5-15.6 4.6-20 4.1-5.9 10.8-8.9 20-8.9h17.7v-19.1h13.2v68.3zm-13.1-4.8v-34.3h-15.1c-5.2 0-8.8 1.8-11 5.3-1.7 2.8-2.6 7.4-2.6 13.9s.5 10.9 1.6 13.4c2 4.5 6 6.7 12 6.7h10.6c1.6 0 2.8-.3 3.5-.9.6-.5 1-1.9 1-4.1zm57.7-53.1h-13.2v-10.5h13.2v10.5zm0 68.3h-13.2V332h13.2v59.6zm85-10c0 3.5-.8 6.1-2.4 7.6-1.6 1.6-4.3 2.4-8.2 2.4h-28.5c-4.9 0-8.6-1-10.8-2.9-3.5-3-5.2-8.4-5.2-16.2 0-6.8 1.7-11.6 5.1-14.5 2.6-2.3 6.3-3.5 10.9-3.5h25.9v-4.2c0-2.3-.6-4.2-1.7-5.6-1.4-1.7-3.6-2.6-6.4-2.6h-29.4V332h33.9c11.2 0 16.8 6.2 16.8 18.7v30.9zm-13.1-3.3v-13.7h-21.9c-2.2 0-3.8.7-4.8 2s-1.5 3.5-1.5 6.5c0 3.1.6 5.3 1.7 6.6 1.2 1.2 2.6 1.9 4.3 1.9h18.3c1.4 0 2.4-.2 3-.7.6-.5.9-1.4.9-2.6z" fill="#9b9b9b"/><linearGradient id="g" gradientUnits="userSpaceOnUse" x1="612.594" y1="284.366" x2="1496.941" y2="284.366"><stop offset=".153" stop-color="#1915ff"/><stop offset=".753" stop-color="#f7560f"/><stop offset=".815" stop-color="#f7560f"/></linearGradient><path fill="url(#g)" d="M612.6 275h884.3v18.7H612.6z"/></svg>