<?xml version="1.0" encoding="utf-8"?>
<!-- Generator: Adobe Illustrator 21.1.0, SVG Export Plug-In . SVG Version: 6.00 Build 0)  -->
<svg version="1.1" id="katman_1" xmlns="http://www.w3.org/2000/svg" xmlns:xlink="http://www.w3.org/1999/xlink" x="0px" y="0px"
	 viewBox="0 0 90.5 64.9" style="enable-background:new 0 0 90.5 64.9;" xml:space="preserve">
<style type="text/css">
	.st0{fill:url(#SVGID_1_);}
	.st1{fill:url(#SVGID_2_);}
	.st2{fill:url(#SVGID_3_);}
	.st3{fill:url(#SVGID_4_);}
	.st4{fill:url(#SVGID_5_);}
</style>
<g>
	<linearGradient id="SVGID_1_" gradientUnits="userSpaceOnUse" x1="56.5" y1="2.054812e-02" x2="56.5" y2="64.8795">
		<stop  offset="0" style="stop-color:#079D70"/>
		<stop  offset="1" style="stop-color:#064C5C"/>
	</linearGradient>
	<path class="st0" d="M81.5,7.8c-0.6-0.6-1.5-0.6-2.1-0.1c-0.6,0.6-0.6,1.5-0.1,2.1c5,5.4,7.8,12.3,8.2,19.5h-3.1
		c-0.8,0-1.5,0.7-1.5,1.5s0.7,1.5,1.5,1.5h3.1c-0.8,16-13.6,28.8-29.5,29.5v-3.1c0-0.8-0.7-1.5-1.5-1.5S55,57.9,55,58.7v3.1
		C39.1,61,26.3,48.2,25.5,32.3h3.1c0.8,0,1.5-0.7,1.5-1.5s-0.7-1.5-1.5-1.5h-3.1C26.1,18,32.9,7.8,43.2,2.9c0.7-0.4,1.1-1.2,0.7-2
		c-0.4-0.7-1.2-1.1-2-0.7C30.1,5.8,22.5,17.8,22.5,30.9c0,18.7,15.3,34,34,34s34-15.3,34-34C90.5,22.3,87.3,14.1,81.5,7.8z"/>
	<linearGradient id="SVGID_2_" gradientUnits="userSpaceOnUse" x1="55.35" y1="9.6295" x2="55.35" y2="35.4795">
		<stop  offset="0" style="stop-color:#079D70"/>
		<stop  offset="1" style="stop-color:#064C5C"/>
	</linearGradient>
	<path class="st1" d="M55.3,26.4L39,10.1c-0.6-0.6-1.5-0.6-2.1,0s-0.6,1.5,0,2.1l15.9,15.9c-0.6,0.8-0.9,1.7-0.9,2.8
		c0,2.6,2.1,4.6,4.6,4.6s4.6-2.1,4.6-4.6c0-0.7-0.2-1.4-0.5-2l13.2-13.2c0.6-0.6,0.6-1.5,0-2.1c-0.6-0.6-1.5-0.6-2.1,0L58.5,26.7
		c-0.6-0.3-1.3-0.5-2-0.5C56.1,26.2,55.7,26.3,55.3,26.4z"/>
	<linearGradient id="SVGID_3_" gradientUnits="userSpaceOnUse" x1="11.5" y1="16.8795" x2="11.5" y2="19.8795">
		<stop  offset="0" style="stop-color:#079D70"/>
		<stop  offset="1" style="stop-color:#064C5C"/>
	</linearGradient>
	<path class="st2" d="M6.5,19.9h10c0.8,0,1.5-0.7,1.5-1.5s-0.7-1.5-1.5-1.5h-10c-0.8,0-1.5,0.7-1.5,1.5S5.7,19.9,6.5,19.9z"/>
	<linearGradient id="SVGID_4_" gradientUnits="userSpaceOnUse" x1="10.25" y1="29.3795" x2="10.25" y2="32.3795">
		<stop  offset="0" style="stop-color:#079D70"/>
		<stop  offset="1" style="stop-color:#064C5C"/>
	</linearGradient>
	<path class="st3" d="M19,29.4H1.5C0.7,29.4,0,30,0,30.9s0.7,1.5,1.5,1.5H19c0.8,0,1.5-0.7,1.5-1.5S19.8,29.4,19,29.4z"/>
	<linearGradient id="SVGID_5_" gradientUnits="userSpaceOnUse" x1="11.5" y1="41.8795" x2="11.5" y2="44.8795">
		<stop  offset="0" style="stop-color:#079D70"/>
		<stop  offset="1" style="stop-color:#064C5C"/>
	</linearGradient>
	<path class="st4" d="M16.5,41.9h-10c-0.8,0-1.5,0.7-1.5,1.5s0.7,1.5,1.5,1.5h10c0.8,0,1.5-0.7,1.5-1.5S17.3,41.9,16.5,41.9z"/>
</g>
</svg>
