<?xml version="1.0" encoding="utf-8"?>
<!-- Generator: Adobe Illustrator 22.0.1, SVG Export Plug-In . SVG Version: 6.00 Build 0)  -->
<svg version="1.1" id="katman_1" xmlns="http://www.w3.org/2000/svg" xmlns:xlink="http://www.w3.org/1999/xlink" x="0px" y="0px"
	 viewBox="0 0 70.4 56.3" style="enable-background:new 0 0 70.4 56.3;" xml:space="preserve">
<style type="text/css">
	.st0{fill:#2C9877;}
	.st1{fill:#094B62;}
</style>
<g>
	<g>
		<g>
			<path class="st0" d="M53.6,56.3H5c-2.8,0-5-2.2-5-5V16.9c0-2.8,2.2-5,5-5h48.6c2.8,0,5,2.2,5,5v34.4
				C58.6,54.1,56.3,56.3,53.6,56.3z M5,13.9c-1.7,0-3,1.3-3,3v34.4c0,1.7,1.3,3,3,3h48.6c1.7,0,3-1.3,3-3V16.9c0-1.7-1.3-3-3-3H5z"
				/>
		</g>
	</g>
	<g>
		<g>
			<path class="st0" d="M50.3,51H37.5c-1.7,0-3-1.3-3-3v-6.5c0-1.7,1.3-3,3-3h12.8c1.7,0,3,1.3,3,3V48C53.3,49.7,51.9,51,50.3,51z
				 M37.5,40.5c-0.6,0-1,0.4-1,1V48c0,0.6,0.4,1,1,1h12.8c0.6,0,1-0.4,1-1v-6.5c0-0.6-0.4-1-1-1H37.5z"/>
		</g>
	</g>
	<g>
		<g>
			<path class="st1" d="M65.6,44.4h-3.8c-0.6,0-1-0.4-1-1s0.4-1,1-1h3.8c1.6,0,2.8-1.3,2.8-3V5c0-1.7-1.3-3-3-3H16.9
				c-1.7,0-3,1.3-3,2.8v3.8c0,0.6-0.4,1-1,1s-1-0.4-1-1V4.8c0-2.7,2.2-4.8,5-4.8h48.6c2.8,0,5,2.2,5,5v34.4
				C70.4,42.2,68.3,44.4,65.6,44.4z"/>
		</g>
	</g>
	<g>
		<g>
			<path class="st1" d="M65.4,8.5H16.9c-0.6,0-1-0.4-1-1s0.4-1,1-1h48.6c0.6,0,1,0.4,1,1S66,8.5,65.4,8.5z"/>
		</g>
	</g>
	<g>
		<g>
			<path class="st1" d="M65.4,16.1h-3.7c-0.6,0-1-0.4-1-1s0.4-1,1-1h3.7c0.6,0,1,0.4,1,1S66,16.1,65.4,16.1z"/>
		</g>
	</g>
</g>
</svg>
