<?xml version="1.0" encoding="utf-8"?>
<!-- Generator: Adobe Illustrator 21.1.0, SVG Export Plug-In . SVG Version: 6.00 Build 0)  -->
<svg version="1.1" id="katman_1" xmlns="http://www.w3.org/2000/svg" xmlns:xlink="http://www.w3.org/1999/xlink" x="0px" y="0px"
	 viewBox="0 0 73.5 89.1" style="enable-background:new 0 0 73.5 89.1;" xml:space="preserve">
<style type="text/css">
	.st0{fill:url(#SVGID_1_);}
	.st1{fill:url(#SVGID_2_);}
</style>
<g>
	<linearGradient id="SVGID_1_" gradientUnits="userSpaceOnUse" x1="36.75" y1="-4.165536e-03" x2="36.75" y2="89.1042">
		<stop  offset="0" style="stop-color:#079D70"/>
		<stop  offset="1" style="stop-color:#064C5C"/>
	</linearGradient>
	<path class="st0" d="M69.1,46.1C66.5,40.8,63,36.7,59,32.2c-3.5-4-5-7-5.7-8.9c1.5-0.4,2.5-1.8,2.5-3.4c0-1.5-0.9-2.7-2.2-3.3
		c1.4-2.3,3.8-5.2,7-6.7c0.4-0.2,0.6-0.5,0.7-0.8c0.1-0.4,0.1-0.8-0.1-1.1c-0.2-0.3-5.1-8.3-11-7.9c-2.7,0.2-5.1,1.9-7.1,5.3
		C41.9,2.8,39.8,0,36.7,0s-5.2,2.8-6.5,5.3c-2-3.4-4.4-5.2-7.1-5.3c-6-0.3-10.8,7.6-11,7.9C11.9,8.3,11.9,8.7,12,9
		c0.1,0.4,0.4,0.7,0.7,0.8c3.3,1.5,5.6,4.4,7,6.7c-1.3,0.5-2.2,1.8-2.2,3.3c0,1.6,1,2.9,2.5,3.4c-0.7,1.9-2.2,4.9-5.7,8.9
		c-3.8,4.6-7.3,8.7-9.9,14C1.4,52,0,58.3,0,66.2c0,0.2,0.4,5.7,3.2,11.3c2.7,5.3,8.1,11.6,18.8,11.6h29.4c10.7,0,16.1-6.3,18.8-11.6
		c2.9-5.7,3.2-11.3,3.2-11.3v-0.1C73.5,58.3,72.1,52,69.1,46.1z M23,2.8c2.3,0.1,4.3,2.3,6.2,6.4c0.2,0.5,0.8,0.9,1.4,0.8
		c0.6,0,1.1-0.4,1.2-1c0.5-1.6,2.4-6.3,5-6.3c2.6,0,4.5,4.6,5,6.3c0.2,0.6,0.7,1,1.2,1c0.6,0.1,1.1-0.3,1.4-0.8
		c1.8-4.1,3.9-6.3,6.2-6.4c3.1-0.2,6.2,3.5,7.6,5.4c-3.6,2.2-6,5.6-7.5,8.2H22.8c-1.4-2.6-3.9-6.1-7.5-8.2C16.7,6.2,19.8,2.6,23,2.8
		z M21.1,20.7c-0.4,0-0.8-0.4-0.8-0.8s0.4-0.8,0.8-0.8h31.2c0.4,0,0.8,0.4,0.8,0.8s-0.4,0.8-0.8,0.8H21.1z M23,23.5h27.6
		c0.7,2.3,2.3,5.9,6.5,10.6c8,9.1,13.7,16.7,13.7,32c0,0.5-0.5,5.4-2.9,10.2c-3.4,6.7-8.9,10-16.3,10H22c-7.4,0-12.9-3.4-16.3-10
		c-2.5-5-2.9-10.1-3-10.3c0-15.3,5.7-22.9,13.7-32C20.6,29.3,22.3,25.7,23,23.5z"/>
	<linearGradient id="SVGID_2_" gradientUnits="userSpaceOnUse" x1="36.7975" y1="35.2042" x2="36.7975" y2="78.4042">
		<stop  offset="0" style="stop-color:#079D70"/>
		<stop  offset="1" style="stop-color:#064C5C"/>
	</linearGradient>
	<path class="st1" d="M32.8,57.9l2.5,0.2v12.1h-2.5c-1.5,0-2.7-1.2-2.7-2.7c0-0.8-0.6-1.4-1.4-1.4s-1.4,0.6-1.4,1.4
		c0,3,2.5,5.5,5.5,5.5h2.5v4c0,0.8,0.6,1.4,1.4,1.4s1.4-0.6,1.4-1.4v-4h2.5c3,0,5.5-2.5,5.5-5.5v-6.3c0-3-2.4-5.4-5.4-5.5l-2.5-0.2
		V43.4h2.6c1.4,0.1,2.6,1.2,2.6,2.7c0,0.8,0.6,1.4,1.4,1.4c0.8,0,1.4-0.6,1.4-1.4c0-3-2.5-5.5-5.5-5.5h-2.5v-4
		c0-0.8-0.6-1.4-1.4-1.4s-1.4,0.6-1.4,1.4v4h-2.5c-3,0-5.5,2.5-5.5,5.5v6.3C27.4,55.5,29.9,57.9,32.8,57.9z M35.3,55.3L33,55.2h-0.1
		c-1.5,0-2.7-1.2-2.7-2.7v-6.3c0-1.5,1.2-2.7,2.7-2.7h2.5v11.8H35.3z M38.1,70.2V58.3l2.4,0.2h0.1c1.5,0,2.7,1.2,2.7,2.7v6.3
		c0,1.5-1.2,2.7-2.7,2.7H38.1z"/>
</g>
</svg>
