<?xml version="1.0" encoding="utf-8"?>
<!-- Generator: Adobe Illustrator 21.1.0, SVG Export Plug-In . SVG Version: 6.00 Build 0)  -->
<svg version="1.1" id="katman_1" xmlns="http://www.w3.org/2000/svg" xmlns:xlink="http://www.w3.org/1999/xlink" x="0px" y="0px"
	 viewBox="0 0 86 80" style="enable-background:new 0 0 86 80;" xml:space="preserve">
<style type="text/css">
	.st0{fill:url(#SVGID_1_);}
</style>
<linearGradient id="SVGID_1_" gradientUnits="userSpaceOnUse" x1="43" y1="-7.054926e-02" x2="43" y2="79.9295">
	<stop  offset="0" style="stop-color:#079D70"/>
	<stop  offset="1" style="stop-color:#064C5C"/>
</linearGradient>
<path class="st0" d="M83,18.4H62.1c1-0.9,1.8-1.9,2.4-3.1c0.7-1.3,1.1-2.8,1.1-4.4c0-3-1.1-5.7-2.9-7.7c-2-2-4.7-3.3-7.7-3.3
	c-3.3,0-6.1,0.8-8.3,2.5c-2.1,1.7-3.5,4.1-4.3,6.9c0,0,0,0.1,0,0.2c-0.5-0.8-1.2-1.6-2-2.3c-1.6-1.4-3.9-2.3-6.4-2.3
	c-4.7,0-8.5,3.8-8.5,8.5c0,1.2,0.3,2.4,0.9,3.4c0.3,0.6,0.7,1.1,1.1,1.6H3c-1.7,0-3,1.3-3,3v16c0,1.7,1.3,3,3,3h3.5v36
	c0,1.9,1.6,3.5,3.5,3.5h66c1.9,0,3.5-1.6,3.5-3.5v-36H83c1.7,0,3-1.3,3-3v-16C86,19.7,84.7,18.4,83,18.4z M45.1,11.9
	c0.1-0.7,0.2-1.4,0.3-1.8C46,7.7,47,6,48.6,4.8c1.5-1.2,3.6-1.9,6.4-1.9c2.2,0,4,0.9,5.4,2.3c1.3,1.4,2.1,3.4,2.1,5.7
	c0,1.1-0.3,2.1-0.7,3c-0.7,1.4-1.9,2.7-3.4,3.6c-0.6,0.4-1.3,0.7-2,0.9H44.6c0.1-1.1,0.1-2.6,0.2-4C44.9,13.5,45,12.6,45.1,11.9z
	 M30.5,17.2c-0.6-0.5-1.1-1.1-1.5-1.8c-0.3-0.6-0.5-1.3-0.5-2c0-1.5,0.6-2.9,1.6-3.9s2.4-1.6,3.9-1.6c1.8,0,3.3,0.6,4.5,1.6
	s2.1,2.5,2.5,4.2c0.1,0.3,0.2,0.9,0.2,1.6c0.1,1,0.1,2.1,0.2,3h-8.9C31.8,18.1,31.1,17.7,30.5,17.2z M3,21.4h38.5v16H3V21.4z
	 M9.6,76.8c-0.1-0.1-0.1-0.2-0.1-0.4v-36h32v36.5H10C9.9,76.9,9.7,76.8,9.6,76.8z M76.5,76.4c0,0.1-0.1,0.3-0.1,0.4
	c-0.1,0-0.3,0.1-0.4,0.1H44.5V40.4h32V76.4z M83,37.4H44.5v-16H83V37.4z"/>
</svg>
