<?xml version="1.0" encoding="utf-8"?>
<!-- Generator: Adobe Illustrator 16.0.0, SVG Export Plug-In . SVG Version: 6.00 Build 0)  -->
<!DOCTYPE svg PUBLIC "-//W3C//DTD SVG 1.1//EN" "http://www.w3.org/Graphics/SVG/1.1/DTD/svg11.dtd">
<svg version="1.1" id="Layer_1" xmlns="http://www.w3.org/2000/svg" xmlns:xlink="http://www.w3.org/1999/xlink" x="0px" y="0px"
	 width="300px" height="300px" viewBox="200 150 300 300" enable-background="new 200 150 300 300" xml:space="preserve">
<title>Çalışma Yüzeyi 6</title>
<g id="OBJECTS">
	<g id="_Grup_">
		<path id="_Bileşik_Yol_" fill="#FFFFFF" d="M290.388,409.143V265.854h-47.631v143.289H290.388z M266.573,246.328
			c16.592,0,26.924-11.032,26.924-24.779s-10.332-24.691-26.618-24.691c-16.285,0-26.968,10.726-26.968,24.779
			c-0.076,13.636,10.917,24.752,24.554,24.829c0.571,0.003,1.143-0.013,1.714-0.05L266.573,246.328z"/>
		<path id="_Yol_" fill="#FFFFFF" d="M316.7,409.143h47.631v-79.984c-0.188-3.945,0.348-7.893,1.576-11.646
			c3.668-10.38,13.42-17.37,24.429-17.512c17.249,0,24.166,13.134,24.166,32.396v76.745h47.588v-82.13
			c0-44.042-23.466-64.487-54.812-64.487c-17.803-0.716-34.508,8.6-43.254,24.123h0.307v-20.795H316.7
			C317.356,279.293,316.7,409.143,316.7,409.143z"/>
	</g>
</g>
</svg>
