<?xml version="1.0" encoding="utf-8"?>
<!-- Generator: Adobe Illustrator 16.0.0, SVG Export Plug-In . SVG Version: 6.00 Build 0)  -->
<!DOCTYPE svg PUBLIC "-//W3C//DTD SVG 1.1//EN" "http://www.w3.org/Graphics/SVG/1.1/DTD/svg11.dtd">
<svg version="1.1" id="Layer_1" xmlns="http://www.w3.org/2000/svg" xmlns:xlink="http://www.w3.org/1999/xlink" x="0px" y="0px"
	 width="300px" height="300px" viewBox="200 150 300 300" enable-background="new 200 150 300 300" xml:space="preserve">
<title>Çalışma Yüzeyi 7</title>
<g id="OBJECTS">
	<g id="_Grup_">
		<g id="_Grup_2">
			<path fill="#FFFFFF" d="M416.96,422.778H283.04c-30.817-0.023-55.794-25-55.818-55.818V233.041
				c0.024-30.817,25-55.794,55.818-55.818h133.92c30.817,0.024,55.794,25.001,55.818,55.818V366.96
				C472.754,397.778,447.777,422.755,416.96,422.778z M283.04,203.49c-16.32,0-29.551,13.23-29.551,29.551l0,0V366.96
				c0.024,16.311,13.24,29.527,29.551,29.551h133.92c16.311-0.023,29.527-13.24,29.551-29.551V233.041
				c0-16.32-13.23-29.551-29.551-29.551l0,0H283.04z"/>
		</g>
		<g id="_Grup_3">
			<path fill="#FFFFFF" d="M350.021,358.511c-32.326,0.024-58.552-26.162-58.576-58.488c-0.023-32.327,26.162-58.552,58.489-58.576
				c32.326-0.024,58.552,26.162,58.576,58.489c0,0.015,0,0.029,0,0.043C408.463,332.269,382.312,358.438,350.021,358.511z
				 M350.021,267.757c-17.818-0.024-32.284,14.402-32.309,32.221c-0.023,17.819,14.402,32.284,32.222,32.31
				c17.819,0.023,32.285-14.402,32.309-32.222c0-0.029,0-0.059,0-0.088C382.22,282.193,367.808,267.781,350.021,267.757z"/>
		</g>
		<g id="_Grup_4">
			<path fill="#FFFFFF" d="M415.428,216.755c9.019,0,16.33,7.311,16.33,16.33s-7.312,16.33-16.33,16.33s-16.329-7.311-16.329-16.33
				c0-0.015,0-0.029,0-0.044C399.122,224.039,406.427,216.755,415.428,216.755z"/>
		</g>
	</g>
</g>
</svg>
