<?xml version="1.0" encoding="utf-8"?>
<!-- Generator: Adobe Illustrator 21.1.0, SVG Export Plug-In . SVG Version: 6.00 Build 0)  -->
<svg version="1.1"
	 id="katman_1" xmlns:cc="http://creativecommons.org/ns#" xmlns:dc="http://purl.org/dc/elements/1.1/" xmlns:inkscape="http://www.inkscape.org/namespaces/inkscape" xmlns:rdf="http://www.w3.org/1999/02/22-rdf-syntax-ns#" xmlns:sodipodi="http://sodipodi.sourceforge.net/DTD/sodipodi-0.dtd" xmlns:svg="http://www.w3.org/2000/svg"
	 xmlns="http://www.w3.org/2000/svg" xmlns:xlink="http://www.w3.org/1999/xlink" x="0px" y="0px" viewBox="0 0 82 82"
	 style="enable-background:new 0 0 82 82;" xml:space="preserve">
<style type="text/css">
	.st0{fill:url(#SVGID_1_);}
</style>
<g transform="translate(0,-952.36218)">
	<g transform="translate(-145,-7604.9582)">
		<g transform="translate(-255.00003,0)">
			<g>
				<g transform="translate(409.00397,8566.2889)">
					<linearGradient id="SVGID_1_" gradientUnits="userSpaceOnUse" x1="32" y1="-9" x2="32" y2="73">
						<stop  offset="0" style="stop-color:#079D70"/>
						<stop  offset="1" style="stop-color:#064C5C"/>
					</linearGradient>
					<path class="st0" d="M-6-9c-1.7,0-3,1.3-3,3v76c0,1.7,1.3,3,3,3h76c1.6,0,3-1.3,3-3V-6c0-1.6-1.3-3-3-3H-6z M-6-7h76
						c0.6,0,1,0.4,1,1v76c0,0.6-0.4,1-1,1H-6c-0.6,0-1-0.5-1-1V-6C-7-6.6-6.6-7-6-7z M9.8,2C9.4,2.1,9,2.5,9,3v4H0.8
						c-0.5,0.1-1,0.6-0.9,1.1S0.5,9.1,1,9h8v4c0,0.5,0.5,1,1,1h4c0.5,0,1-0.5,1-1V9h48c0.5,0,1-0.5,1-1s-0.5-1-1-1H15V3
						c0-0.5-0.5-1-1-1H9.8z M49.8,18c-0.5,0.1-0.8,0.5-0.8,1v4H0.8c-0.5,0-1,0.6-0.9,1.1C0,24.7,0.5,25.1,1,25h48v4c0,0.5,0.5,1,1,1
						h4c0.5,0,1-0.5,1-1v-4h8c0.5,0,1-0.5,1-1s-0.5-1-1-1h-8v-4c0-0.5-0.5-1-1-1H49.8z M23.8,34c-0.5,0.1-0.8,0.5-0.8,1v4H0.8
						c-0.5,0.1-1,0.6-0.9,1.1s0.6,1,1.1,0.9h22v4c0,0.5,0.5,1,1,1h4c0.5,0,1-0.5,1-1v-4h34c0.5,0,1-0.5,1-1s-0.5-1-1-1H29v-4
						c0-0.5-0.5-1-1-1H23.8z M43.8,52c-0.4,0.1-0.8,0.5-0.8,1v4H0.8c-0.5,0.1-1,0.6-0.9,1.1s0.6,1,1.1,0.9h42v4c0,0.5,0.5,1,1,1h4
						c0.5,0,1-0.5,1-1v-4h14c0.5,0,1-0.5,1-1s-0.5-1-1-1H49v-4c0-0.5-0.5-1-1-1H43.8z"/>
				</g>
			</g>
		</g>
	</g>
</g>
</svg>
