<?xml version="1.0" encoding="utf-8"?>
<!-- Generator: Adobe Illustrator 22.0.1, SVG Export Plug-In . SVG Version: 6.00 Build 0)  -->
<svg version="1.1" id="katman_1" xmlns="http://www.w3.org/2000/svg" xmlns:xlink="http://www.w3.org/1999/xlink" x="0px" y="0px"
	 viewBox="0 0 73.1 81" style="enable-background:new 0 0 73.1 81;" xml:space="preserve">
<style type="text/css">
	.st0{fill:#0F8A64;}
	.st1{fill:#07495D;}
</style>
<g>
	<g>
		<path class="st0" d="M53,54.8c-0.5,0-1,0.4-1,1v12.5H1.9V6.4c0-2.5,2-4.5,4.5-4.5c0,0,0,0,0,0h41.1c2.5,0,4.5,2,4.5,4.5
			c0,0,0,0,0,0v12.3c0,0.5,0.4,1,1,1c0.5,0,1-0.4,1-1V6.4c0,0,0,0,0,0C54,2.9,51.1,0,47.5,0H6.4c0,0,0,0,0,0C2.9,0,0,2.9,0,6.4v68.1
			l0,0C0,78.1,2.9,81,6.4,81h41.1c0,0,0,0,0,0c3.6,0,6.4-2.9,6.4-6.4c0,0,0,0,0,0V55.8C54,55.2,53.5,54.8,53,54.8z M52,74.5
			C52,74.5,52,74.6,52,74.5c0,2.5-2,4.5-4.5,4.5c0,0,0,0,0,0H6.4c-2.5,0-4.5-2-4.5-4.5v-4.3H52L52,74.5L52,74.5z"/>
		<path class="st0" d="M22.4,75.5h10.7c0.5,0,1-0.4,1-1c0-0.5-0.4-1-1-1H22.4c-0.5,0-1,0.4-1,1C21.5,75.1,21.9,75.5,22.4,75.5z"/>
	</g>
	<g>
		<g>
			<path class="st1" d="M21.2,38.3c0-1.8-0.5-3.4-1.4-4.5c-0.4-0.5-1-0.9-1.8-1.2c-0.8-0.3-1.5-0.4-2.3-0.4c-1.4,0-2.8,0.4-4,1.2
				C10.6,34,10,35.4,10,37.5v11.4h1.3c0.4,0,0.7-0.1,0.9-0.4c0.3-0.3,0.4-0.6,0.4-0.9V42l0.5,0.9c0.3,0.6,0.8,1,1.4,1.3
				c0.5,0.3,1.2,0.4,1.9,0.4c1.4,0,2.5-0.6,3.4-1.7C20.8,41.7,21.2,40.2,21.2,38.3z M17.8,41.2c-0.5,0.7-1.2,1.1-2.1,1.1
				c-1,0-1.7-0.4-2.2-1.1c-0.5-0.6-0.8-1.6-0.8-2.8c0-1.3,0.2-2.3,0.7-3c0.5-0.7,1.2-1.1,2.2-1.1c1,0,1.7,0.4,2.2,1.1
				c0.5,0.7,0.7,1.7,0.7,3C18.5,39.6,18.3,40.5,17.8,41.2z"/>
			<path class="st1" d="M23.2,43.7c0.8,0.6,1.7,0.9,2.8,0.9c0.5,0,1.2,0,1.9-0.1c0.7-0.1,1.4-0.3,2-0.6l0,0c0.6-0.3,1.1-0.8,1.5-1.4
				c0.4-0.7,0.6-1.6,0.6-2.8v-4.3c0-1-0.4-1.8-1.2-2.4c-0.8-0.6-2.1-0.8-3.8-0.8c-1.5,0-2.7,0.3-3.4,1c-0.6,0.5-1,1.2-1.2,1.9h2.7
				c0.2-0.3,0.5-0.6,0.8-0.7c0.4-0.1,0.8-0.2,1.3-0.2c0.4,0,0.9,0.1,1.4,0.2c0.6,0.2,0.9,0.6,0.9,1.2c0,1.1-1.7,1.4-2.3,1.5
				c-0.3,0-0.5,0.1-0.7,0.1c-0.2,0.1-0.4,0.1-0.6,0.1c-1.1,0.2-2,0.5-2.8,1.1c-0.7,0.5-1,1.4-1,2.6C22,42.2,22.4,43.1,23.2,43.7z
				 M24.9,39.6c0.3-0.3,0.8-0.5,1.4-0.7l1.1-0.2c0.6-0.1,1.2-0.3,1.8-0.6l0.4-0.2v1.6c0,0.9-0.3,1.7-0.8,2.2
				c-0.5,0.5-1.3,0.8-2.2,0.8c-0.6,0-1.1-0.1-1.4-0.4c-0.3-0.3-0.5-0.8-0.5-1.3C24.6,40.4,24.7,40,24.9,39.6z"/>
			<path class="st1" d="M41.1,32.5c-0.8-0.3-1.5-0.4-2.3-0.4c-1.4,0-2.8,0.4-4,1.2C33.6,34,33,35.4,33,37.5v11.4h1.3
				c0.4,0,0.7-0.1,0.9-0.4c0.3-0.3,0.4-0.6,0.4-0.9V42l0.5,0.9c0.3,0.6,0.8,1,1.4,1.3c0.5,0.3,1.2,0.4,1.9,0.4
				c1.4,0,2.5-0.6,3.4-1.7c0.9-1.2,1.3-2.7,1.3-4.6c0-1.8-0.5-3.4-1.4-4.5C42.5,33.2,41.9,32.8,41.1,32.5z M40.8,41.2
				c-0.5,0.7-1.2,1.1-2.1,1.1c-1,0-1.7-0.4-2.2-1.1c-0.5-0.6-0.7-1.6-0.7-2.8c0-1.3,0.2-2.3,0.7-3c0.5-0.7,1.2-1.1,2.2-1.1
				c1,0,1.7,0.4,2.2,1.1c0.5,0.7,0.7,1.7,0.7,3C41.5,39.6,41.3,40.5,40.8,41.2z"/>
			<path class="st1" d="M46.2,43.7c0.8,0.6,1.7,0.9,2.8,0.9c0.5,0,1.2,0,1.9-0.1c0.7-0.1,1.4-0.3,2-0.6l0,0c0.6-0.3,1.1-0.8,1.5-1.4
				c0.4-0.7,0.6-1.6,0.6-2.8v-4.3c0-1-0.4-1.8-1.2-2.4c-0.8-0.6-2.1-0.8-3.8-0.8c-1.5,0-2.6,0.3-3.4,1c-0.6,0.5-1,1.2-1.2,1.9h2.7
				c0.2-0.3,0.5-0.6,0.8-0.7c0.4-0.1,0.8-0.2,1.3-0.2c0.4,0,0.9,0.1,1.4,0.2c0.6,0.2,0.9,0.6,0.9,1.2c0,1.1-1.7,1.4-2.3,1.5
				c-0.3,0-0.5,0.1-0.7,0.1c-0.2,0.1-0.4,0.1-0.6,0.1c-1.1,0.2-2,0.5-2.8,1.1c-0.7,0.5-1,1.4-1,2.6C45,42.2,45.4,43.1,46.2,43.7z
				 M48,39.6c0.3-0.3,0.8-0.5,1.4-0.7l1.1-0.2c0.6-0.1,1.2-0.3,1.8-0.6l0.4-0.2v1.6c0,0.9-0.3,1.7-0.8,2.2c-0.5,0.5-1.3,0.8-2.2,0.8
				c-0.6,0-1.1-0.1-1.4-0.4c-0.3-0.3-0.5-0.8-0.5-1.3C47.6,40.4,47.7,40,48,39.6z"/>
			<path class="st1" d="M64.3,43.7c0.8,0.6,1.7,0.9,2.8,0.9c0.5,0,1.2,0,1.9-0.1c0.7-0.1,1.4-0.3,2-0.6l0,0c0.6-0.3,1.1-0.8,1.5-1.4
				c0.4-0.7,0.6-1.6,0.6-2.8v-4.3c0-1-0.4-1.8-1.2-2.4c-0.8-0.6-2.1-0.8-3.8-0.8c-1.5,0-2.6,0.3-3.4,1c-0.6,0.5-1,1.2-1.2,1.9h2.7
				c0.2-0.3,0.5-0.6,0.8-0.7c0.4-0.1,0.8-0.2,1.3-0.2c0.4,0,0.9,0.1,1.4,0.2c0.6,0.2,0.9,0.6,0.9,1.2c0,1.1-1.7,1.4-2.3,1.5
				c-0.3,0-0.5,0.1-0.7,0.1c-0.2,0.1-0.4,0.1-0.6,0.1c-1.1,0.2-2,0.5-2.8,1.1c-0.7,0.5-1,1.4-1,2.6C63.1,42.2,63.5,43.1,64.3,43.7z
				 M66,39.6c0.3-0.3,0.8-0.5,1.4-0.7l1.1-0.2c0.6-0.1,1.2-0.3,1.8-0.6l0.4-0.2v1.6c0,0.9-0.3,1.7-0.8,2.2c-0.5,0.5-1.3,0.8-2.2,0.8
				c-0.6,0-1.1-0.1-1.4-0.4c-0.3-0.3-0.5-0.8-0.5-1.3C65.6,40.4,65.8,40,66,39.6z"/>
			<path class="st1" d="M61.7,35.2h0.8v-2.8h-0.2c-0.8,0-1.6,0.1-2.4,0.3c-0.8,0.2-1.4,0.5-2,1c-0.6,0.5-1.1,1.1-1.4,1.9
				c-0.3,0.8-0.5,1.8-0.5,3v5.8h2.8v-6.2c0-1,0.2-1.8,0.7-2.2C60,35.4,60.8,35.2,61.7,35.2z"/>
		</g>
	</g>
</g>
</svg>
