<?xml version="1.0" encoding="utf-8"?>
<!-- Generator: Adobe Illustrator 22.0.1, SVG Export Plug-In . SVG Version: 6.00 Build 0)  -->
<svg version="1.1" id="katman_1" xmlns="http://www.w3.org/2000/svg" xmlns:xlink="http://www.w3.org/1999/xlink" x="0px" y="0px"
	 viewBox="0 0 77 77" style="enable-background:new 0 0 77 77;" xml:space="preserve">
<style type="text/css">
	.st0{fill:#07495D;}
	.st1{fill:#0F8A64;}
</style>
<g>
	<path class="st0" d="M1,23h8.2v8.3H3c-0.6,0-1,0.4-1,1s0.4,1,1,1h7.1c0.6,0,1-0.4,1-1V23h6.2v4.8c0,0.6,0.4,1,1,1H23v4.6
		c0,0.6,0.4,1,1,1s1-0.4,1-1v-5.6c0-0.6-0.4-1-1-1h-4.6V23H22c0.6,0,1-0.4,1-1V11.6h4.6v8.8c0,0.6,0.4,1,1,1h5.1v5c0,0.6,0.4,1,1,1
		s1-0.4,1-1v-6c0-0.6-0.4-1-1-1h-5.1v-7.8h4.8c0.6,0,1-0.4,1-1V4.4c0-0.6-0.4-1-1-1s-1,0.4-1,1v5.1H23V1c0-0.6-0.4-1-1-1H1
		C0.4,0,0,0.4,0,1v21C0,22.5,0.4,23,1,23z M2,2h19v19H2V2z"/>
	<path class="st0" d="M12.9,10.5H9.6c-0.6,0-1,0.4-1,1s0.4,1,1,1h3.3c0.6,0,1-0.4,1-1S13.4,10.5,12.9,10.5z"/>
	<path class="st0" d="M9.6,66.5h3.3c0.6,0,1-0.4,1-1s-0.4-1-1-1H9.6c-0.6,0-1,0.4-1,1S9.1,66.5,9.6,66.5z"/>
	<path class="st1" d="M76,23c0.6,0,1-0.4,1-1V1c0-0.6-0.4-1-1-1H55c-0.6,0-1,0.4-1,1v9.5h-9.4V4.8c0-0.6-0.4-1-1-1s-1,0.4-1,1v6.7
		c0,0.6,0.4,1,1,1H54V22c0,0.6,0.4,1,1,1h14.3v4.8h-5.7c-0.6,0-1,0.4-1,1v8.8H49.2c-0.6,0-1,0.4-1,1s0.4,1,1,1h7.3v9.3h-11
		c-0.6,0-1,0.4-1,1s0.4,1,1,1h12c0.6,0,1-0.4,1-1V39.5h5.1c0.6,0,1-0.4,1-1v-8.8H76c0.6,0,1-0.4,1-1s-0.4-1-1-1h-4.7V23H76z M56,21
		V2h19v19H56z"/>
	<path class="st1" d="M66.9,10.5h-3.3c-0.6,0-1,0.4-1,1s0.4,1,1,1h3.3c0.6,0,1-0.4,1-1S67.5,10.5,66.9,10.5z"/>
	<path class="st0" d="M37.5,61.8c0,0.6,0.4,1,1,1s1-0.4,1-1V55c0-0.6-0.4-1-1-1h-6.9c-0.6,0-1,0.4-1,1v2.1H26c-0.6,0-1,0.4-1,1
		s0.4,1,1,1h4.6v7.4H23V55c0-0.6-0.4-1-1-1h-8.1V50H26c0.6,0,1-0.4,1-1s-0.4-1-1-1h-3.6v-7.6h7.3c0.6,0,1-0.4,1-1v-7.1
		c0-0.6-0.4-1-1-1s-1,0.4-1,1v6.1h-7.3H6.6c-0.6,0-1,0.4-1,1s0.4,1,1,1h13.8V48h-7.5c-0.6,0-1,0.4-1,1V54H9.4v-8c0-0.6-0.4-1-1-1H1
		c-0.6,0-1,0.4-1,1s0.4,1,1,1h6.4v7H1c-0.6,0-1,0.4-1,1v21c0,0.6,0.4,1,1,1h21c0.6,0,1-0.4,1-1v-7.5h7.6V76c0,0.6,0.4,1,1,1
		s1-0.4,1-1V56h4.9V61.8z M21,75H2V56h19V75z"/>
	<path class="st0" d="M45.3,70.5h-5.8v-2.4c0-0.6-0.4-1-1-1s-1,0.4-1,1v3.4c0,0.6,0.4,1,1,1h6.8c0.6,0,1-0.4,1-1
		S45.8,70.5,45.3,70.5z"/>
	<path class="st1" d="M53.9,54h-8.6c-0.6,0-1,0.4-1,1v4.3c0,0.6,0.4,1,1,1s1-0.4,1-1V56h6.6v3.3c0,0.6,0.4,1,1,1h6c0.6,0,1-0.4,1-1
		s-0.4-1-1-1h-5V55C54.9,54.5,54.4,54,53.9,54z"/>
	<path class="st0" d="M43.7,42.1h-8.6c-0.6,0-1,0.4-1,1V49c0,0.6,0.4,1,1,1s1-0.4,1-1v-4.9h7.6c0.6,0,1-0.4,1-1S44.2,42.1,43.7,42.1
		z"/>
	<path class="st1" d="M76,57.1h-5.3v-6.4c0-0.6-0.4-1-1-1s-1,0.4-1,1v7.4c0,0.6,0.4,1,1,1H76c0.6,0,1-0.4,1-1S76.6,57.1,76,57.1z"/>
	<path class="st1" d="M41.9,37.1c0.6,0,1-0.4,1-1V25.7h5.3v6.6c0,0.6,0.4,1,1,1h7.7c0.6,0,1-0.4,1-1s-0.4-1-1-1h-6.7V17.8
		c0-0.6-0.4-1-1-1s-1,0.4-1,1v5.9h-6.3c-0.6,0-1,0.4-1,1v11.4C40.9,36.7,41.3,37.1,41.9,37.1z"/>
	<path class="st1" d="M65.3,64.2h-6.9c-0.6,0-1,0.4-1,1v2.7h-6.7v-3.3c0-0.6-0.4-1-1-1h-7c-0.6,0-1,0.4-1,1s0.4,1,1,1h6v3.3
		c0,0.6,0.4,1,1,1h7.7V76c0,0.6,0.4,1,1,1s1-0.4,1-1v-9.8h5.9c0.6,0,1-0.4,1-1S65.8,64.2,65.3,64.2z"/>
	<path class="st1" d="M76,66.5h-7.1c-0.6,0-1,0.4-1,1V76c0,0.6,0.4,1,1,1s1-0.4,1-1v-7.5H76c0.6,0,1-0.4,1-1S76.6,66.5,76,66.5z"/>
	<path class="st1" d="M76,42.1H64.7c-0.6,0-1,0.4-1,1v12c0,0.6,0.4,1,1,1s1-0.4,1-1v-11H76c0.6,0,1-0.4,1-1S76.6,42.1,76,42.1z"/>
</g>
</svg>
