<?xml version="1.0" encoding="utf-8"?>
<!-- Generator: Adobe Illustrator 15.0.0, SVG Export Plug-In . SVG Version: 6.00 Build 0)  -->
<!DOCTYPE svg PUBLIC "-//W3C//DTD SVG 1.1//EN" "http://www.w3.org/Graphics/SVG/1.1/DTD/svg11.dtd">
<svg version="1.1" id="Layer_1" xmlns="http://www.w3.org/2000/svg" xmlns:xlink="http://www.w3.org/1999/xlink" x="0px" y="0px"
	 width="220px" height="220px" viewBox="0 0 220 220" enable-background="new 0 0 220 220" xml:space="preserve">
<circle fill="#FFFFFF" cx="110" cy="110" r="102.5"/>
<g>
	<g>
		<g>
			<path fill="#0668B3" d="M110,217.105c-59.058,0-107.106-48.045-107.106-107.104C2.894,50.941,50.942,2.895,110,2.895
				c59.059,0,107.105,48.047,107.105,107.105C217.107,169.061,169.059,217.105,110,217.105z M110,11.26
				c-54.446,0-98.74,44.295-98.74,98.74c0,54.442,44.294,98.737,98.74,98.737c54.445,0,98.74-44.295,98.74-98.737
				C208.74,55.556,164.445,11.26,110,11.26z"/>
		</g>
	</g>
</g>
<g>
	<g>
		<polygon fill="#FFFFFF" points="113.656,100.86 148.39,87.737 148.998,88.334 119.75,111.598 113.656,100.86 		"/>
		<polyline fill="#0668B3" points="119.75,111.598 113.656,100.86 113.656,100.86 144.39,88.737 		"/>
		<path fill="none" stroke="#0668B3" stroke-width="5" stroke-miterlimit="10" d="M110.001,100.264
			c-5.484,0-9.751,4.174-9.751,9.546c0,5.366,4.267,9.545,9.751,9.545c5.483,0,9.749-4.179,9.749-9.545
			C119.75,104.438,115.484,100.264,110.001,100.264L110.001,100.264z"/>
		<path fill="none" stroke="#0668B3" stroke-width="5" stroke-linecap="round" stroke-miterlimit="10" d="M158.749,141.425
			c6.092-8.948,9.748-19.687,9.748-31.615c0-31.62-26.2-57.27-58.496-57.27s-58.498,25.65-58.498,57.27
			c0,11.929,3.657,22.667,9.75,31.615"/>
		
			<line fill="none" stroke="#0668B3" stroke-width="5" stroke-linecap="round" stroke-miterlimit="10" x1="168.497" y1="109.81" x2="161.187" y2="109.81"/>
		
			<line fill="none" stroke="#0668B3" stroke-width="5" stroke-linecap="round" stroke-miterlimit="10" x1="51.503" y1="109.81" x2="58.815" y2="109.81"/>
		
			<line fill="none" stroke="#0668B3" stroke-width="5" stroke-linecap="round" stroke-miterlimit="10" x1="110.001" y1="52.54" x2="110.001" y2="59.699"/>
		
			<line fill="none" stroke="#0668B3" stroke-width="5" stroke-linecap="round" stroke-miterlimit="10" x1="80.753" y1="60.296" x2="84.408" y2="66.262"/>
		
			<line fill="none" stroke="#0668B3" stroke-width="5" stroke-linecap="round" stroke-miterlimit="10" x1="160.576" y1="138.443" x2="154.481" y2="134.861"/>
		
			<line fill="none" stroke="#0668B3" stroke-width="5" stroke-linecap="round" stroke-miterlimit="10" x1="59.425" y1="81.175" x2="65.519" y2="84.755"/>
		
			<line fill="none" stroke="#0668B3" stroke-width="5" stroke-linecap="round" stroke-miterlimit="10" x1="59.425" y1="138.443" x2="65.519" y2="134.861"/>
		
			<line fill="none" stroke="#0668B3" stroke-width="5" stroke-linecap="round" stroke-miterlimit="10" x1="160.576" y1="81.175" x2="154.481" y2="84.755"/>
		
			<line fill="none" stroke="#0668B3" stroke-width="5" stroke-linecap="round" stroke-miterlimit="10" x1="139.249" y1="60.296" x2="135.593" y2="66.262"/>
	</g>
</g>
</svg>
