<?xml version="1.0" encoding="utf-8"?>
<!-- Generator: Adobe Illustrator 22.0.1, SVG Export Plug-In . SVG Version: 6.00 Build 0)  -->
<svg version="1.1"
	 id="katman_1" xmlns:cc="http://creativecommons.org/ns#" xmlns:dc="http://purl.org/dc/elements/1.1/" xmlns:inkscape="http://www.inkscape.org/namespaces/inkscape" xmlns:rdf="http://www.w3.org/1999/02/22-rdf-syntax-ns#" xmlns:sodipodi="http://sodipodi.sourceforge.net/DTD/sodipodi-0.dtd" xmlns:svg="http://www.w3.org/2000/svg"
	 xmlns="http://www.w3.org/2000/svg" xmlns:xlink="http://www.w3.org/1999/xlink" x="0px" y="0px" viewBox="0 0 72 64.7"
	 style="enable-background:new 0 0 72 64.7;" xml:space="preserve">
<style type="text/css">
	.st0{fill:#07495D;}
	.st1{fill:#0F8A64;}
</style>
<g transform="translate(0,-952.3622)">
	<path class="st0" d="M36.8,952.4c-12.6-0.3-24.3,6.7-29.9,18.1c-0.3,0.6-0.1,1.3,0.4,1.6c0.6,0.3,1.3,0.1,1.6-0.4
		c0,0,0-0.1,0.1-0.1c5.2-10.5,16-17.1,27.8-16.8c11.7,0.3,22.1,7.3,26.8,18c-2.4,0.9-4.1,3.2-4.1,5.9c0,3.4,2.9,6.2,6.3,6.2
		c3.4,0,6.2-2.9,6.2-6.3c0-3.4-2.8-6.1-6.1-6.2c0-0.1,0-0.2-0.1-0.4C60.8,960.3,49.4,952.7,36.8,952.4z M65.7,974.6
		c2.2,0,3.9,1.7,3.9,3.9c0,2.2-1.7,3.9-3.9,3.9c-2.2,0-3.9-1.7-3.9-3.9C61.8,976.4,63.5,974.6,65.7,974.6z M6.2,984.6
		c-3.4,0-6.2,2.9-6.2,6.3c0,3.4,2.9,6.2,6.3,6.2c0.1,0,0.2,0,0.3,0c0,0.1,0,0.3,0.1,0.4c5.1,11.7,16.6,19.4,29.4,19.6
		c12.8,0.2,24.5-7.2,29.9-18.8c0.3-0.6,0-1.3-0.6-1.6c-0.6-0.3-1.3,0-1.6,0.6c-5,10.8-15.8,17.6-27.7,17.5
		c-11.9-0.1-22.5-7.2-27.3-18.1c2.2-1,3.7-3.2,3.7-5.7C12.5,987.4,9.6,984.6,6.2,984.6L6.2,984.6z M6.2,987c2.2,0,3.9,1.7,3.9,3.9
		c0,2.2-1.7,3.9-3.9,3.9c-2.2,0-3.9-1.7-3.9-3.9C2.3,988.7,4,987,6.2,987z"/>
</g>
<path class="st1" d="M35.8,16.1c-0.6,0-1.1,0.5-1.1,1.1v0v3.6c-3,0.6-5.1,3.5-4.9,6.7c0.2,3.3,2.8,5.9,6,6c0.1,0,0.1,0,0.2,0
	c0,0,0.1,0,0.1,0c1.7,0,3.1,1.1,3.7,2.7c0.6,1.6,0.1,3.4-1.1,4.6c-1.3,1.1-3,1.3-4.5,0.6s-2.3-2.4-2.1-4.2c0.1-0.6-0.3-1.2-1-1.3
	c-0.6-0.1-1.2,0.3-1.3,1c0,0,0,0,0,0.1c-0.3,2.6,1,5.2,3.3,6.4c0.5,0.3,1,0.4,1.5,0.5v3.5c0,0.6,0.5,1.1,1.1,1.1
	c0.6,0,1.1-0.5,1.1-1.1c0,0,0,0,0,0V44c1.2-0.2,2.4-0.7,3.3-1.5c1.9-1.8,2.6-4.5,1.7-7s-3.2-4.2-5.8-4.2c-0.1,0-0.1,0-0.2,0
	c0,0-0.1,0-0.1,0c-2,0-3.6-1.6-3.8-3.9c-0.1-2.2,1.3-4.1,3.3-4.4c1.9-0.3,3.8,1,4.3,3.1c0.1,0.6,0.7,1,1.3,0.9s1-0.7,0.9-1.3
	c0,0,0,0,0-0.1c-0.5-2.5-2.5-4.4-4.8-4.8v-3.6C36.9,16.6,36.4,16.1,35.8,16.1C35.8,16.1,35.8,16.1,35.8,16.1L35.8,16.1z"/>
</svg>
