<svg enable-background="new 0 0 1440 722" viewBox="0 0 1440 722" xmlns="http://www.w3.org/2000/svg"><path d="m0 0h1440.4v722h-1440.4z" fill="#f6f6f6"/><path d="m0 607.8c43.5-13.3 219.3-73 344.4-200.5 143.6-146.3 268.6-124.7 368.6-80s154.7 119.2 353.8-65.6c138.2-128.2 292.2-105.3 373.6-79.2" fill="none" stroke="#96c2cc" stroke-miterlimit="10" stroke-width=".75"/><path d="m-.3 525.2c60.3-5.3 224.5-24.8 291.1-82.7 82.3-71.6 202.7-203 464.5-76.3s345.6-197.2 462.6-218.2c102.4-18.4 147.4 104 222 120.2" fill="none" stroke="#96c2cc" stroke-miterlimit="10" stroke-width=".75"/><path d="m30.9 577.1-6-8.1h-2.2l7.1 9.7z" fill="#96c2cc"/><path d="m33.5 577.1 6.2-8.1h2.1l-7.1 9.7z" fill="#96c2cc"/><path d="m34.3 581.6-2-2.6-2.1 2.6-10.4 13.6h4.6l7.9-10.5 7.9 10.5h4.6z" fill="#064a5f"/><path d="m80.9 580.5-4.9-6.5h-1.7l5.7 7.8z" fill="#96c2cc"/><path d="m83 580.6 5-6.6h1.8l-5.8 7.8z" fill="#96c2cc"/><path d="m83.7 584.2-1.7-2.1-1.6 2.1-8.5 11h3.7l6.4-8.5 6.4 8.5h3.8z" fill="#064a5f"/><path d="m274.9 475.8-6.6-8.8h-2.4l7.7 10.4z" fill="#96c2cc"/><path d="m277.7 475.8 6.7-8.8h2.3l-7.7 10.5z" fill="#96c2cc"/><path d="m278.5 480.7-2.2-2.9-2.2 2.9-11.4 14.8h5l8.6-11.4 8.6 11.4h5z" fill="#064a5f"/><path d="m227.4 505-4-5.2h-1.3l4.5 6.2z" fill="#96c2cc"/><path d="m229.1 505 4-5.2h1.3l-4.6 6.2z" fill="#96c2cc"/><path d="m229.6 508-1.4-1.8-1.3 1.8-6.7 8.8h2.9l5.1-6.8 5.2 6.8h3z" fill="#064a5f"/><path d="m336 440.5-4-5.3h-1.3l4.5 6.3z" fill="#96c2cc"/><path d="m337.7 440.5 4-5.3h1.3l-4.6 6.3z" fill="#96c2cc"/><path d="m338.2 443.4-1.4-1.7-1.3 1.7-6.7 8.8h2.9l5.1-6.8 5.2 6.8h3z" fill="#064a5f"/><path d="m396.5 453.8-4-5.2h-1.4l4.6 6.2z" fill="#96c2cc"/><path d="m398.1 453.9 4-5.3h1.4l-4.6 6.3z" fill="#96c2cc"/><path d="m398.6 456.8-1.3-1.8-1.3 1.8-6.8 8.8h3l5.1-6.8 5.1 6.8h3z" fill="#064a5f"/><path d="m541 513.5-4-5.2h-1.4l4.6 6.2z" fill="#96c2cc"/><path d="m542.6 513.5 4-5.2h1.4l-4.6 6.2z" fill="#96c2cc"/><path d="m543.1 516.5-1.3-1.8-1.3 1.8-6.8 8.7h3l5.1-6.7 5.1 6.7h3z" fill="#064a5f"/><path d="m501.2 507.1-3.9-5.2h-1.4l4.6 6.2z" fill="#96c2cc"/><path d="m502.9 507.1 4-5.2h1.4l-4.6 6.3z" fill="#96c2cc"/><path d="m503.4 510.1-1.3-1.8-1.3 1.8-6.8 8.8h3l5.1-6.8 5.1 6.8h3z" fill="#064a5f"/><path d="m637.6 425.8-4-5.2h-1.4l4.6 6.2z" fill="#96c2cc"/><path d="m639.3 425.8 4-5.2h1.3l-4.6 6.2z" fill="#96c2cc"/><path d="m639.8 428.8-1.4-1.8-1.3 1.8-6.8 8.8h3l5.1-6.8 5.2 6.8h3z" fill="#064a5f"/><path d="m867 399.4-3.9-5.3h-1.4l4.6 6.3z" fill="#96c2cc"/><path d="m868.7 399.4 4-5.3h1.4l-4.6 6.3z" fill="#96c2cc"/><path d="m869.2 402.3-1.3-1.7-1.3 1.7-6.8 8.8h3l5.1-6.8 5.1 6.8h3z" fill="#064a5f"/><path d="m814.3 359.7-4-5.2h-1.3l4.5 6.2z" fill="#96c2cc"/><path d="m816 359.7 4-5.2h1.4l-4.7 6.2z" fill="#96c2cc"/><path d="m816.5 362.7-1.4-1.8-1.3 1.8-6.7 8.7h2.9l5.2-6.7 5.1 6.7h3z" fill="#064a5f"/><path d="m764.2 384.4-4-5.2h-1.4l4.6 6.2z" fill="#96c2cc"/><path d="m765.9 384.4 4-5.2h1.3l-4.6 6.2z" fill="#96c2cc"/><path d="m766.4 387.4-1.4-1.8-1.3 1.8-6.7 8.8h2.9l5.1-6.8 5.2 6.8h3z" fill="#064a5f"/><path d="m996.9 335.4-3.9-5.2h-1.4l4.6 6.2z" fill="#96c2cc"/><path d="m998.6 335.5 4-5.3h1.4l-4.6 6.3z" fill="#96c2cc"/><path d="m999.1 338.4-1.3-1.8-1.3 1.8-6.8 8.8h3l5.1-6.8 5.1 6.8h3z" fill="#064a5f"/><path d="m909.9 397.7-3.2-4.3h-1.1l3.7 5.1z" fill="#96c2cc"/><path d="m911.3 397.7 3.3-4.3h1.1l-3.8 5.1z" fill="#96c2cc"/><path d="m911.7 400.1-1.1-1.4-1 1.4-5.6 7.2h2.5l4.1-5.6 4.2 5.6h2.5z" fill="#064a5f"/><path d="m1131.9 272-3.3-4.3h-1.1l3.7 5.1z" fill="#96c2cc"/><path d="m1133.2 272 3.3-4.3h1.1l-3.7 5.1z" fill="#96c2cc"/><path d="m1133.6 274.4-1-1.4-1.1 1.4-5.6 7.2h2.5l4.2-5.6 4.2 5.6h2.4z" fill="#064a5f"/><path d="m1062.8 354.9-3.2-4.2h-1.1l3.7 5.1z" fill="#96c2cc"/><path d="m1064.2 355 3.3-4.3h1.1l-3.8 5.1z" fill="#96c2cc"/><path d="m1064.6 357.4-1.1-1.5-1 1.5-5.6 7.1h2.5l4.1-5.5 4.2 5.5h2.5z" fill="#064a5f"/><path d="m1222.2 278.9-3.2-4.3h-1.1l3.7 5.1z" fill="#96c2cc"/><path d="m1223.6 278.9 3.3-4.3h1.1l-3.8 5.2z" fill="#96c2cc"/><path d="m1224 281.3-1.1-1.4-1 1.4-5.6 7.2h2.5l4.1-5.5 4.2 5.5h2.5z" fill="#064a5f"/><path d="m1346.6 246.3-3.2-4.3h-1.1l3.7 5.1z" fill="#96c2cc"/><path d="m1348 246.3 3.2-4.3h1.2l-3.8 5.2z" fill="#96c2cc"/><path d="m1348.4 248.7-1.1-1.4-1.1 1.4-5.5 7.2h2.4l4.2-5.5 4.2 5.5h2.4z" fill="#064a5f"/><path d="m1361.7 235.5-2.6-3.5h-.9l3 4.1z" fill="#96c2cc"/><path d="m1362.9 235.5 2.6-3.5h.9l-3 4.1z" fill="#96c2cc"/><path d="m1363.2 237.4-.9-1.1-.9 1.1-4.5 5.9h2l3.4-4.5 3.4 4.5h2z" fill="#064a5f"/><path d="m1430.4 151.5-2.6-3.5h-.9l3 4.2z" fill="#96c2cc"/><path d="m1431.6 151.5 2.6-3.5h.9l-3 4.2z" fill="#96c2cc"/><path d="m1431.9 153.5-.9-1.2-.9 1.1-4.5 5.9h2l3.4-4.5 3.4 4.5h2z" fill="#064a5f"/><path d="m1291.9 265.1-3.2-4.3h-1.1l3.7 5.1z" fill="#96c2cc"/><path d="m1293.3 265.1 3.2-4.3h1.2l-3.8 5.1z" fill="#96c2cc"/><path d="m1293.7 267.5-1.1-1.5-1.1 1.5-5.5 7.1h2.4l4.2-5.5 4.2 5.5h2.4z" fill="#064a5f"/><path d="m1370.6 218.1-3.3-4.2h-1.1l3.7 5.1z" fill="#96c2cc"/><path d="m1371.9 218.2 3.3-4.3h1.1l-3.7 5.1z" fill="#96c2cc"/><path d="m1372.3 220.6-1-1.5-1.1 1.5-5.5 7.1h2.4l4.2-5.5 4.2 5.5h2.4z" fill="#064a5f"/><path d="m1188.4 240.6-3.2-4.3h-1.1l3.7 5.2z" fill="#96c2cc"/><path d="m1189.8 240.6 3.3-4.3h1.1l-3.8 5.2z" fill="#96c2cc"/><path d="m1190.2 243-1.1-1.4-1 1.4-5.6 7.2h2.5l4.1-5.5 4.2 5.5h2.5z" fill="#064a5f"/><path d="m1052.7 374.3-3.2-4.3h-1.2l3.8 5.1z" fill="#96c2cc"/><path d="m1054.1 374.3 3.2-4.3h1.2l-3.8 5.1z" fill="#96c2cc"/><path d="m1054.5 376.7-1.1-1.4-1.1 1.4-5.5 7.1h2.4l4.2-5.5 4.2 5.5h2.4z" fill="#064a5f"/><path d="m1251.8 270.2-3.2-4.3h-1.1l3.7 5.1z" fill="#96c2cc"/><path d="m1253.2 270.2 3.3-4.3h1.1l-3.8 5.1z" fill="#96c2cc"/><path d="m1253.6 272.6-1.1-1.5-1 1.5-5.6 7.1h2.5l4.1-5.5 4.2 5.5h2.5z" fill="#064a5f"/><path d="m1421.9 167.4-3.2-4.3h-1.1l3.7 5.1z" fill="#96c2cc"/><path d="m1423.3 167.4 3.3-4.3h1.1l-3.8 5.1z" fill="#96c2cc"/><path d="m1423.7 169.8-1.1-1.4-1 1.4-5.6 7.2h2.5l4.1-5.6 4.2 5.6h2.5z" fill="#064a5f"/><path d="m727.6 345.9-3-4h-1l3.5 4.8z" fill="#96c2cc"/><path d="m728.9 345.9 3.1-4h1l-3.5 4.8z" fill="#96c2cc"/><path d="m729.3 348.2-1-1.4-1 1.4-5.2 6.7h2.3l3.9-5.2 3.9 5.2h2.3z" fill="#064a5f"/><path d="m1015.3 348.4-3-4h-1l3.5 4.8z" fill="#96c2cc"/><path d="m1016.6 348.4 3.1-4h1l-3.5 4.8z" fill="#96c2cc"/><path d="m1017 350.6-1-1.3-1 1.3-5.2 6.7h2.3l3.9-5.1 3.9 5.1h2.3z" fill="#064a5f"/><path d="m803.7 383-3-4.1h-1.1l3.5 4.8z" fill="#96c2cc"/><path d="m805 383 3-4.1h1.1l-3.5 4.8z" fill="#96c2cc"/><path d="m805.4 385.2-1-1.3-1 1.3-5.2 6.7h2.3l3.9-5.2 3.9 5.2h2.3z" fill="#064a5f"/><path d="m952.7 365-3-4h-1.1l3.5 4.8z" fill="#96c2cc"/><path d="m954 365.1 3-4.1h1.1l-3.5 4.8z" fill="#96c2cc"/><path d="m954.4 367.3-1.1-1.3-1 1.3-5.1 6.7h2.2l3.9-5.2 4 5.2h2.2z" fill="#064a5f"/><path d="m196.7 536.8-4.9-6.6h-1.8l5.7 7.8z" fill="#96c2cc"/><path d="m198.8 536.8 5-6.6h1.7l-5.7 7.8z" fill="#96c2cc"/><path d="m199.4 540.5-1.6-2.2-1.7 2.2-8.5 11h3.8l6.4-8.5 6.4 8.5h3.7z" fill="#064a5f"/><path d="m354 464.3-4.9-6.5h-1.8l5.8 7.8z" fill="#96c2cc"/><path d="m356.1 464.3 5-6.5h1.7l-5.7 7.8z" fill="#96c2cc"/><path d="m356.8 468-1.7-2.2-1.6 2.2-8.5 11h3.7l6.4-8.5 6.4 8.5h3.7z" fill="#064a5f"/><path d="m569.8 545.7-5-6.6h-1.7l5.7 7.8z" fill="#96c2cc"/><path d="m571.9 545.7 5-6.6h1.7l-5.8 7.8z" fill="#96c2cc"/><path d="m572.5 549.4-1.7-2.2-1.6 2.2-8.5 11h3.7l6.4-8.5 6.5 8.5h3.7z" fill="#064a5f"/><path d="m376.5 478.1-6-8.1h-2.1l7 9.6z" fill="#96c2cc"/><path d="m379.1 478.1 6.1-8.1h2.1l-7 9.6z" fill="#96c2cc"/><path d="m379.9 482.6-2.1-2.7-2 2.7-10.3 13.4h4.5l7.8-10.4 7.9 10.4h4.5z" fill="#064a5f"/><path d="m592.1 516-6.1-8h-2.1l7 9.5z" fill="#96c2cc"/><path d="m594.6 516 6.1-8h2.2l-7.1 9.6z" fill="#96c2cc"/><path d="m595.4 520.5-2-2.6-2 2.6-10.4 13.5h4.5l7.9-10.4 7.8 10.4h4.6z" fill="#064a5f"/><path d="m477.8 488.1-6.1-8h-2.1l7 9.5z" fill="#96c2cc"/><path d="m480.4 488.1 6-8h2.2l-7.1 9.6z" fill="#96c2cc"/><path d="m481.1 492.6-2-2.7-2 2.7-10.4 13.4h4.6l7.8-10.3 7.8 10.3h4.6z" fill="#064a5f"/><path d="m142.7 537.6-4.9-6.6h-1.7l5.7 7.8z" fill="#96c2cc"/><path d="m144.9 537.6 4.9-6.6h1.8l-5.8 7.9z" fill="#96c2cc"/><path d="m145.5 541.3-1.7-2.2-1.6 2.2-8.5 11h3.7l6.4-8.5 6.4 8.5h3.8z" fill="#064a5f"/><path d="m248.9 491.5-5-6.5h-1.7l5.7 7.8z" fill="#96c2cc"/><path d="m251 491.6 5-6.6h1.7l-5.8 7.8z" fill="#96c2cc"/><path d="m251.6 495.2-1.7-2.1-1.6 2.1-8.5 11h3.7l6.4-8.5 6.5 8.5h3.7z" fill="#064a5f"/><path d="m623.4 452.7-6.6-8.8h-2.4l7.7 10.5z" fill="#96c2cc"/><path d="m626.2 452.7 6.7-8.8h2.3l-7.7 10.5z" fill="#96c2cc"/><path d="m627.1 457.6-2.3-2.9-2.2 2.9-11.4 14.8h5l8.6-11.4 8.7 11.4h5z" fill="#064a5f"/><path d="m694.9 360.9-6.6-8.8h-2.4l7.7 10.5z" fill="#96c2cc"/><path d="m697.7 361 6.7-8.9h2.3l-7.7 10.5z" fill="#96c2cc"/><path d="m698.6 365.9-2.3-2.9-2.2 2.9-11.4 14.7h5l8.6-11.4 8.7 11.4h5z" fill="#064a5f"/><path d="m974.6 346.7-6.6-8.8h-2.3l7.7 10.5z" fill="#96c2cc"/><path d="m977.5 346.7 6.7-8.8h2.3l-7.7 10.5z" fill="#96c2cc"/><path d="m978.3 351.6-2.2-2.9-2.2 2.9-11.4 14.8h5l8.6-11.4 8.6 11.4h5z" fill="#064a5f"/><path d="m1095.4 307.1-6.6-8.8h-2.3l7.7 10.5z" fill="#96c2cc"/><path d="m1098.3 307.2 6.7-8.9h2.3l-7.7 10.6z" fill="#96c2cc"/><path d="m1099.1 312.1-2.2-2.9-2.2 2.9-11.4 14.7h5l8.6-11.4 8.6 11.4h5z" fill="#064a5f"/><path d="m607.8 486.4-4.9-6.5h-1.8l5.8 7.8z" fill="#96c2cc"/><path d="m609.9 486.5 5-6.6h1.7l-5.7 7.8z" fill="#96c2cc"/><path d="m610.5 490.1-1.6-2.1-1.7 2.1-8.5 11h3.8l6.4-8.5 6.4 8.5h3.7z" fill="#064a5f"/><path d="m783.7 396.8-5-6.6h-1.7l5.7 7.8z" fill="#96c2cc"/><path d="m785.8 396.8 5-6.6h1.7l-5.8 7.8z" fill="#96c2cc"/><path d="m786.4 400.4-1.7-2.1-1.6 2.1-8.5 11h3.7l6.5-8.5 6.4 8.5h3.7z" fill="#064a5f"/><path d="m932.5 378.9-5.7-7.5h-2l6.6 9z" fill="#96c2cc"/><path d="m934.9 379 5.6-7.6h2l-6.5 9z" fill="#96c2cc"/><path d="m935.6 383.1-1.9-2.4-1.9 2.4-9.7 12.6h4.3l7.3-9.7 7.3 9.7h4.3z" fill="#064a5f"/><path d="m1121.6 293.2-4.8-6.4h-1.7l5.6 7.7z" fill="#96c2cc"/><path d="m1123.7 293.3 4.8-6.5h1.7l-5.6 7.7z" fill="#96c2cc"/><path d="m1124.3 296.8-1.6-2.1-1.6 2.1-8.3 10.7h3.6l6.3-8.2 6.2 8.2h3.7z" fill="#064a5f"/><path d="m1203 262.2-4.8-6.4h-1.7l5.6 7.6z" fill="#96c2cc"/><path d="m1205.1 262.2 4.8-6.4h1.7l-5.6 7.7z" fill="#96c2cc"/><path d="m1205.7 265.8-1.6-2.1-1.6 2.1-8.3 10.7h3.6l6.3-8.3 6.2 8.3h3.6z" fill="#064a5f"/><path d="m1331.3 267.8-5.2-7h-1.9l6.1 8.3z" fill="#96c2cc"/><path d="m1333.6 267.8 5.3-7h1.8l-6.1 8.3z" fill="#96c2cc"/><path d="m1334.2 271.7-1.7-2.3-1.8 2.3-9 11.7h4l6.8-9.1 6.8 9.1h3.9z" fill="#064a5f"/><path d="m1411.3 186.4-4.2-5.6h-1.5l4.9 6.7z" fill="#96c2cc"/><path d="m1413.1 186.5 4.3-5.7h1.5l-4.9 6.7z" fill="#96c2cc"/><path d="m1413.7 189.6-1.5-1.9-1.4 1.9-7.3 9.5h3.2l5.5-7.3 5.6 7.3h3.2z" fill="#064a5f"/><path d="m1310.2 254.2-3.9-5.2h-1.4l4.5 6.2z" fill="#96c2cc"/><path d="m1311.9 254.2 4-5.2h1.3l-4.6 6.2z" fill="#96c2cc"/><path d="m1312.4 257.1-1.3-1.7-1.3 1.7-6.8 8.8h3l5.1-6.8 5.1 6.8h3z" fill="#064a5f"/><path d="m745.7 358.9-4.9-6.6h-1.8l5.8 7.8z" fill="#96c2cc"/><path d="m747.8 358.9 5-6.6h1.8l-5.8 7.9z" fill="#96c2cc"/><path d="m748.5 362.6-1.7-2.2-1.6 2.2-8.5 11h3.7l6.4-8.5 6.4 8.5h3.8z" fill="#064a5f"/><path d="m668.6 384.5-5-6.5h-1.7l5.7 7.8z" fill="#96c2cc"/><path d="m670.7 384.6 5-6.6h1.7l-5.8 7.8z" fill="#96c2cc"/><path d="m671.3 388.2-1.7-2.2-1.6 2.2-8.5 11h3.7l6.4-8.5 6.5 8.5h3.7z" fill="#064a5f"/><path d="m1150.8 254.3-4.9-6.6h-1.7l5.7 7.9z" fill="#96c2cc"/><path d="m1152.9 254.3 5-6.6h1.8l-5.8 7.9z" fill="#96c2cc"/><path d="m1153.6 258-1.7-2.2-1.6 2.2-8.5 11h3.7l6.4-8.5 6.4 8.5h3.8z" fill="#064a5f"/><path d="m1032.7 358.5-4.9-6.5h-1.8l5.8 7.8z" fill="#96c2cc"/><path d="m1034.8 358.6 5-6.6h1.7l-5.7 7.8z" fill="#96c2cc"/><path d="m1035.4 362.2-1.6-2.1-1.6 2.1-8.5 11h3.7l6.4-8.5 6.4 8.5h3.7z" fill="#064a5f"/><path d="m1240.5 290.6-5-6.5h-1.7l5.7 7.8z" fill="#96c2cc"/><path d="m1242.6 290.7 5-6.6h1.7l-5.8 7.8z" fill="#96c2cc"/><path d="m1243.2 294.3-1.7-2.1-1.6 2.1-8.5 11h3.7l6.4-8.5 6.5 8.5h3.7z" fill="#064a5f"/><path d="m1082.2 337.8-4.9-6.5h-1.8l5.8 7.8z" fill="#96c2cc"/><path d="m1084.3 337.9 5-6.6h1.7l-5.7 7.8z" fill="#96c2cc"/><path d="m1084.9 341.5-1.6-2.1-1.6 2.1-8.5 11h3.7l6.4-8.5 6.4 8.5h3.7z" fill="#064a5f"/><path d="m1271.9 251.5-4.9-6.6h-1.7l5.7 7.9z" fill="#96c2cc"/><path d="m1274.1 251.5 4.9-6.6h1.8l-5.8 7.9z" fill="#96c2cc"/><path d="m1274.7 255.2-1.7-2.2-1.6 2.2-8.5 11h3.7l6.4-8.5 6.5 8.5h3.7z" fill="#064a5f"/><path d="m1389.9 201.7-4.9-6.5h-1.7l5.7 7.8z" fill="#96c2cc"/><path d="m1392.1 201.8 4.9-6.6h1.8l-5.8 7.8z" fill="#96c2cc"/><path d="m1392.7 205.4-1.7-2.2-1.6 2.2-8.5 11h3.7l6.4-8.5 6.4 8.5h3.8z" fill="#064a5f"/><path d="m1165.7 225.9-5.8-7.7h-2.1l6.8 9.2z" fill="#96c2cc"/><path d="m1168.2 226 5.9-7.8h2l-6.8 9.3z" fill="#96c2cc"/><path d="m1168.9 230.3-1.9-2.6-1.9 2.6-10.1 13h4.4l7.6-10.1 7.6 10.1h4.4z" fill="#064a5f"/><path d="m315.4 421.8-4.9-6.6h-1.7l5.7 7.9z" fill="#96c2cc"/><path d="m317.5 421.8 5-6.6h1.8l-5.8 7.9z" fill="#96c2cc"/><path d="m318.2 425.5-1.7-2.2-1.6 2.2-8.5 11h3.7l6.4-8.5 6.4 8.5h3.8z" fill="#064a5f"/><path d="m55.8 559.1-6.7-8.9h-2.4l7.8 10.6z" fill="#96c2cc"/><path d="m58.6 559.1 6.7-8.9h2.4l-7.8 10.6z" fill="#96c2cc"/><path d="m59.5 564.1-2.3-2.9-2.2 2.9-11.5 14.9h5l8.7-11.5 8.7 11.5h5z" fill="#064a5f"/><path d="m169.3 519.3-6.7-8.9h-2.4l7.8 10.5z" fill="#96c2cc"/><path d="m172.1 519.3 6.7-8.9h2.4l-7.8 10.6z" fill="#96c2cc"/><path d="m173 524.2-2.3-2.9-2.2 2.9-11.5 14.9h5l8.7-11.5 8.7 11.5h5z" fill="#064a5f"/><path d="m289.9 442-6.6-8.9h-2.4l7.8 10.6z" fill="#96c2cc"/><path d="m292.8 442 6.7-8.9h2.4l-7.8 10.6z" fill="#96c2cc"/><path d="m293.6 447-2.2-3-2.2 3-11.5 14.9h5l8.7-11.5 8.7 11.5h5z" fill="#064a5f"/><path d="m840.1 376.4-6.7-8.9h-2.4l7.8 10.6z" fill="#96c2cc"/><path d="m842.9 376.4 6.8-8.9h2.3l-7.8 10.6z" fill="#96c2cc"/><path d="m843.8 381.4-2.3-3-2.2 3-11.5 14.8h5.1l8.6-11.4 8.7 11.4h5z" fill="#064a5f"/><path d="m459.5 451.4-7.7-10.2h-2.7l8.9 12.2z" fill="#96c2cc"/><path d="m462.8 451.5 7.7-10.3h2.7l-9 12.2z" fill="#96c2cc"/><path d="m463.7 457.2-2.6-3.4-2.5 3.4-13.2 17.1h5.8l9.9-13.2 10.1 13.2h5.8z" fill="#064a5f"/><path d="m121.8 564.6-6.7-8.9h-2.4l7.8 10.6z" fill="#96c2cc"/><path d="m124.6 564.6 6.7-8.9h2.4l-7.8 10.6z" fill="#96c2cc"/><path d="m125.5 569.6-2.3-3-2.2 3-11.5 14.8h5l8.7-11.5 8.7 11.5h5z" fill="#064a5f"/><path d="m9 590.3-3-3.9h-1l3.4 4.7z" fill="#96c2cc"/><path d="m10.3 590.4 3-4h1l-3.4 4.7z" fill="#96c2cc"/><path d="m10.7 592.6-1-1.3-1 1.3-5.1 6.6h2.2l3.9-5.1 3.8 5.1h2.3z" fill="#064a5f"/><path d="m213.4 525.3-3-4h-1.1l3.5 4.7z" fill="#96c2cc"/><path d="m214.7 525.3 3-4h1l-3.5 4.7z" fill="#96c2cc"/><path d="m215 527.5-1-1.3-1 1.3-5.1 6.6h2.3l3.8-5.1 3.9 5.1h2.3z" fill="#064a5f"/><path d="m414.5 442.4-3-4h-1l3.4 4.7z" fill="#96c2cc"/><path d="m415.8 442.4 3-4h1l-3.5 4.8z" fill="#96c2cc"/><path d="m416.1 444.6-1-1.3-.9 1.3-5.2 6.7h2.3l3.8-5.2 3.9 5.2h2.3z" fill="#064a5f"/><path d="m550.8 534.1-3-4h-1l3.4 4.8z" fill="#96c2cc"/><path d="m552.1 534.1 3-4h1l-3.5 4.8z" fill="#96c2cc"/><path d="m552.4 536.3-1-1.3-1 1.3-5.1 6.7h2.3l3.8-5.2 3.9 5.2h2.3z" fill="#064a5f"/><path d="m656.2 410.7-3-4h-1l3.4 4.7z" fill="#96c2cc"/><path d="m657.5 410.7 3-4h1.1l-3.5 4.8z" fill="#96c2cc"/><path d="m657.9 412.9-1-1.3-1 1.3-5.1 6.7h2.2l3.9-5.2 3.9 5.2h2.2z" fill="#064a5f"/><path d="m433.9 426.3-4.4-5.7h-1.5l5 6.8z" fill="#96c2cc"/><path d="m435.7 426.4 4.4-5.8h1.5l-5 6.9z" fill="#96c2cc"/><path d="m436.3 429.6-1.5-1.9-1.4 1.9-7.5 9.6h3.3l5.6-7.4 5.7 7.4h3.3z" fill="#064a5f"/><path d="m522.1 498.3-4.4-5.8h-1.5l5 6.9z" fill="#96c2cc"/><path d="m523.9 498.3 4.4-5.8h1.5l-5.1 6.9z" fill="#96c2cc"/><path d="m524.5 501.6-1.5-2-1.4 2-7.5 9.6h3.3l5.6-7.4 5.7 7.4h3.2z" fill="#064a5f"/><path d="m709 331.6-4.3-5.8h-1.6l5.1 6.9z" fill="#96c2cc"/><path d="m710.9 331.6 4.3-5.8h1.6l-5.1 6.9z" fill="#96c2cc"/><path d="m711.4 334.8-1.5-1.9-1.4 1.9-7.5 9.7h3.3l5.6-7.5 5.7 7.5h3.3z" fill="#064a5f"/><path d="m100.8 592.8-3-4h-1.1l3.5 4.7z" fill="#96c2cc"/><path d="m102 592.8 3-4h1.1l-3.5 4.8z" fill="#96c2cc"/><path d="m102.4 595-1-1.3-1 1.3-5.1 6.6h2.2l3.9-5.1 3.9 5.1h2.2z" fill="#064a5f"/></svg>