<?xml version="1.0" encoding="utf-8"?>
<!-- Generator: Adobe Illustrator 16.0.0, SVG Export Plug-In . SVG Version: 6.00 Build 0)  -->
<!DOCTYPE svg PUBLIC "-//W3C//DTD SVG 1.1//EN" "http://www.w3.org/Graphics/SVG/1.1/DTD/svg11.dtd">
<svg version="1.1" id="Layer_1" xmlns="http://www.w3.org/2000/svg" xmlns:xlink="http://www.w3.org/1999/xlink" x="0px" y="0px"
	 width="300px" height="300px" viewBox="98.5 147.5 300 300" enable-background="new 98.5 147.5 300 300" xml:space="preserve">
<title>Çalışma Yüzeyi 3</title>
<g id="OBJECTS">
	<path id="_Yol_" fill="#FFFFFF" d="M375.58,212.616c-8.599,3.826-17.77,6.207-27.143,7.048
		c10.855-6.528,18.986-16.758,22.896-28.807c-10.234,6.058-21.428,10.322-33.098,12.608c-19.743-20.963-52.742-21.951-73.705-2.208
		c-10.443,9.836-16.373,23.542-16.392,37.888c-0.004,3.996,0.466,7.979,1.401,11.864c-41.913-2.104-80.962-21.899-107.434-54.461
		c-13.833,23.816-6.757,54.282,16.155,69.565c-8.274-0.257-16.366-2.494-23.597-6.523c-0.021,0.218-0.021,0.438,0,0.657
		c0.004,24.794,17.467,46.157,41.765,51.09c-4.466,1.214-9.074,1.832-13.703,1.838c-3.292-0.006-6.576-0.328-9.807-0.963
		c6.776,21.172,26.239,35.713,48.463,36.205c-21.838,17.094-49.559,24.838-77.095,21.539c0,0,19.175,26.574,86.245,35.855
		s182.515-35.986,141.625-167.367C361.555,231.422,369.507,222.652,375.58,212.616z"/>
</g>
</svg>
