<?xml version="1.0" encoding="utf-8"?>
<!-- Generator: Adobe Illustrator 16.0.0, SVG Export Plug-In . SVG Version: 6.00 Build 0)  -->
<!DOCTYPE svg PUBLIC "-//W3C//DTD SVG 1.1//EN" "http://www.w3.org/Graphics/SVG/1.1/DTD/svg11.dtd">
<svg version="1.1" id="Layer_1" xmlns="http://www.w3.org/2000/svg" xmlns:xlink="http://www.w3.org/1999/xlink" x="0px" y="0px"
	 width="85px" height="85px" viewBox="0 0 85 85" enable-background="new 0 0 85 85" xml:space="preserve">
<g>
	<defs>
		<path id="SVGID_1_" d="M25.096-0.212c-13.37,0-24.308,10.939-24.308,24.308v34.808c0,13.369,10.938,24.307,24.308,24.307h34.808
			c13.37,0,24.308-10.938,24.308-24.307V24.096c0-13.369-10.938-24.308-24.308-24.308H25.096z"/>
	</defs>
	<clipPath id="SVGID_2_">
		<use xlink:href="#SVGID_1_"  overflow="visible"/>
	</clipPath>
	
		<linearGradient id="SVGID_3_" gradientUnits="userSpaceOnUse" x1="-32.0142" y1="108.0039" x2="-31.0142" y2="108.0039" gradientTransform="matrix(79.4941 55.6624 55.6624 -79.4941 -3464.0371 10381.2227)">
		<stop  offset="0" style="stop-color:#6BCE98"/>
		<stop  offset="0.1306" style="stop-color:#46B383"/>
		<stop  offset="0.2767" style="stop-color:#239A6F"/>
		<stop  offset="0.3969" style="stop-color:#0E8B63"/>
		<stop  offset="0.4752" style="stop-color:#06855F"/>
		<stop  offset="1" style="stop-color:#064A5F"/>
	</linearGradient>
	<polygon clip-path="url(#SVGID_2_)" fill="url(#SVGID_3_)" points="28.234,-39.408 123.408,27.233 56.767,122.407 -38.408,55.766 	
		"/>
</g>
<g>
	<defs>
		<rect id="SVGID_4_" x="-33" y="-24" width="151" height="131"/>
	</defs>
	<clipPath id="SVGID_5_">
		<use xlink:href="#SVGID_4_"  overflow="visible"/>
	</clipPath>
	<polygon clip-path="url(#SVGID_5_)" fill="#6BCE98" points="40.092,32.49 29.132,17.925 25.272,17.925 37.977,35.273 	"/>
	<polygon clip-path="url(#SVGID_5_)" fill="#6BCE98" points="44.768,32.54 55.819,17.925 59.68,17.925 46.882,35.323 	"/>
	<polygon clip-path="url(#SVGID_5_)" fill="#F6F6F6" points="46.157,40.668 42.461,35.846 38.844,40.667 20.002,65.075 
		28.261,65.075 42.468,46.222 56.741,65.075 64.998,65.075 	"/>
</g>
</svg>
