<svg data-name="katman 1" xmlns="http://www.w3.org/2000/svg" viewBox="0 0 318.66 33.96"><title>TrendFX Logo</title><path class="cls-1" d="M25.79 3.54h-11.1v30.38h-3.6V3.54H0V.13h25.79zm13.2 5.59v3.6h-.43a7.7 7.7 0 0 0-6.34 3.12 11.25 11.25 0 0 0-2.3 7.11v10.95h-3.61V9.51h3.61v5.91a9.1 9.1 0 0 1 8.83-6.29zm13.98 21.52a7.26 7.26 0 0 0 7-4h3.94a11.66 11.66 0 0 1-4 5.28 11.4 11.4 0 0 1-7 2 11.62 11.62 0 0 1-8.84-3.6 12.3 12.3 0 0 1-3.31-8.79 12.46 12.46 0 0 1 3.17-8.79 12.41 12.41 0 0 1 17.48 0 12.5 12.5 0 0 1 3.17 8.79v1.44H44.47a8.64 8.64 0 0 0 2.64 5.47 8.08 8.08 0 0 0 5.86 2.2zm-.29-18.25a7.92 7.92 0 0 0-5.57 2.07 8.51 8.51 0 0 0-2.6 5.14h16.33a8.5 8.5 0 0 0-2.59-5.14 7.94 7.94 0 0 0-5.57-2.07zm19.93-2.88v3.75a12 12 0 0 1 3.17-2.93 7.72 7.72 0 0 1 4.27-1.2 11.35 11.35 0 0 1 4.13.67 8.44 8.44 0 0 1 3 2 10.37 10.37 0 0 1 3 7.73V33.9h-3.6V19.65a7.36 7.36 0 0 0-1.87-5.28 6.41 6.41 0 0 0-4.85-2 7.19 7.19 0 0 0-5.14 2 7.07 7.07 0 0 0-2.11 5.28v14.22H69V9.47zm42.3 20.17q-2.88 4.23-8.59 4.23a10.87 10.87 0 0 1-8.45-3.6 13.77 13.77 0 0 1 0-17.58 11.15 11.15 0 0 1 8.69-3.6 9.51 9.51 0 0 1 8.35 4.27V.13h3.61v33.84h-3.61zm-8.11 1a7.57 7.57 0 0 0 6.14-2.69 10.63 10.63 0 0 0 0-12.87 7.59 7.59 0 0 0-6.14-2.69 8 8 0 0 0-6.24 2.69 10.29 10.29 0 0 0 0 12.87 8 8 0 0 0 6.24 2.65z"/><path class="cls-2" d="M163.29 10.49L155.46.08h-2.76l9.08 12.4 1.51-1.99zm3.34.04l7.9-10.45h2.76l-9.14 12.44-1.52-1.99z"/><path class="cls-3" d="M129.05 4.69h19.88V.11h-24.6v33.68h4.72V19.64h17.71v-4.63h-17.71V4.69zm38.58 11.65l-2.64-3.45-2.59 3.45-13.47 17.44h5.91l10.15-13.47 10.2 13.47h5.9l-13.46-17.44z"/><path class="cls-4" d="M208.6 12.45h-1.37V7.27L203.3.13h1.55l3.06 5.76 3.06-5.76h1.54l-3.91 7.13zm7.61 0L219.59.13h3l3.38 12.31h-1.35l-.89-3.17h-5.27l-.89 3.17zm4.41-11.13l-1.87 6.74h4.65l-1.86-6.74zm9.11.05V.13h8.89v1.23h-3.75v11.08h-1.36V1.37zm14.58 11.08V.13h1.37v12.31zM254 7.74v4.71h-1.37V.13h4.55a4.2 4.2 0 0 1 3 .91 3.69 3.69 0 0 1 1 2.83c0 1.89-.75 3.08-2.26 3.57l2.37 5h-1.51l-2.23-4.71zm3.2-1.21a2.59 2.59 0 0 0 0-5.18H254v5.18zm10.33 5.92V.13h1.37v12.31zm8.33 0V.13h2.47l3.48 10.41L285.3.13h2.47v12.31h-1.37V1.6h-.25L282.58 12h-1.53l-3.58-10.4h-.25v10.85zm23.27 0h-4.39V.13h4.39a3.88 3.88 0 0 1 4 2.39 9.69 9.69 0 0 1 .56 3.59q0 4.64-2.31 5.85a4.78 4.78 0 0 1-2.25.49zm3.15-6.33c0-2.36-.53-3.83-1.58-4.41a3.17 3.17 0 0 0-1.57-.36h-3v9.89h3q3.15 0 3.15-5.11zm6.54 6.33L312.2.13h3l3.38 12.31h-1.35l-.89-3.17h-5.27l-.88 3.17zm4.41-11.13l-1.83 6.74h4.66l-1.87-6.74zm-104.2 32.47h-4.39V21.48h4.39a3.87 3.87 0 0 1 4 2.38 9.52 9.52 0 0 1 .57 3.6q0 4.63-2.31 5.85a4.84 4.84 0 0 1-2.26.48zm3.15-6.33q0-3.54-1.59-4.41a3.13 3.13 0 0 0-1.56-.36h-3v9.89h3q3.15 0 3.15-5.12zm13.15.26a8.38 8.38 0 0 1-1.05 4.77c-.69 1-2 1.47-3.81 1.47s-3.11-.5-3.81-1.51a8.44 8.44 0 0 1-1.05-4.75 8.7 8.7 0 0 1 1.06-4.82c.72-1.05 2-1.58 3.79-1.58s3.08.53 3.8 1.57a8.65 8.65 0 0 1 1.07 4.85zm-8.32 0a7.94 7.94 0 0 0 .71 3.88 3.79 3.79 0 0 0 5.49 0 7.85 7.85 0 0 0 .7-3.88 8.11 8.11 0 0 0-.73-4 3.6 3.6 0 0 0-5.45 0 8.15 8.15 0 0 0-.72 3.97zm15.7 1v-1.23h3.4v6a22 22 0 0 1-4 .42c-1.79 0-3-.51-3.73-1.54a11.5 11.5 0 0 1 0-9.56 4.12 4.12 0 0 1 3.69-1.56 17.34 17.34 0 0 1 3.44.36l.6.11v1.13a24.39 24.39 0 0 0-3.83-.37 2.94 2.94 0 0 0-2.75 1.18 11.23 11.23 0 0 0 0 7.86 2.92 2.92 0 0 0 2.74 1.19 14 14 0 0 0 2.54-.25v-3.79zm-1.64-10.3a1.78 1.78 0 0 0 2.2 0 1.27 1.27 0 0 0 .46-1h1.24a2.23 2.23 0 0 1-.82 1.69 3 3 0 0 1-2 .64 2.93 2.93 0 0 1-2-.64 2.28 2.28 0 0 1-.81-1.69h1.23a1.24 1.24 0 0 0 .5 1zm9.09 10.65v4.72h-1.36V21.48h4.6a4.19 4.19 0 0 1 2.94.91 3.66 3.66 0 0 1 1 2.83c0 1.89-.76 3.08-2.26 3.57l2.36 5h-1.51l-2.22-4.72zm3.21-1.2c1.67 0 2.5-.87 2.5-2.59s-.84-2.59-2.52-2.59h-3.19v5.18zm7.66 2.26q0 2.67 2.88 2.67a3.38 3.38 0 0 0 2.25-.64 2.5 2.5 0 0 0 .76-2v-8.61h1.35v8.57a3.71 3.71 0 0 1-1.1 3 4.85 4.85 0 0 1-3.22.92 4.77 4.77 0 0 1-3.21-.92 3.74 3.74 0 0 1-1.08-3v-8.57h1.37zm21.71 3.66v-5.57h-6.26v5.57h-1.37V21.48h1.37v5.51h6.26v-5.51h1.35v12.31zm3.29 0l3.37-12.31h3l3.38 12.31h-1.38l-.89-3.17h-5.27l-.89 3.17zm4.37-11.13l-1.87 6.73h4.66l-1.79-6.73zm7.32 11.13V21.48h2.47l3.48 10.4 3.49-10.4h2.47v12.31h-1.37V22.94h-.25l-3.61 10.4h-1.53l-3.58-10.4h-.25v10.85zm21.68 0h-6.78V21.48h1.37v11.08h5.41zm1.77 0V21.48h7.49v1.21h-6.12v4.25h5.05v1.19h-5.05v4.45h6.12v1.21z"/><path class="cls-5" d="M192.07 0v33.92"/></svg>