<svg xmlns="http://www.w3.org/2000/svg" width="96" height="32" viewBox="0 0 96 32">
    <g fill="none" fill-rule="evenodd">
        <g fill="#FFF">
            <path d="M83.477 7.262h4.67l-.002 20.621h.963l.006-20.629 4.658.006-.002-.85-10.293-.006zM82.508 6.35l-.003 1.03h-6.457v11.17h5.371v.959h-5.364l.01 8.385-.981.006.004-21.55zM61.09 26.872c5.321-.027 9.754-4.527 9.715-9.862-.039-5.41-4.4-9.778-9.762-9.778-5.346 0-9.759 4.41-9.782 9.776-.023 5.392 4.46 9.892 9.83 9.864m10.71-9.877c.034 5.081-4.569 10.991-10.964 10.877-5.51-.1-10.676-5.127-10.652-10.94.025-5.906 5.403-10.751 11.004-10.685 5.805.07 10.576 5.313 10.612 10.748M45.982 17.361c1.862 1.627 2.548 4.313 1.708 6.729-.74 2.13-2.873 3.582-5.333 3.714-1.995.107-3.593-.263-5.036-1.701a5.08 5.08 0 0 1-.88-1.173c0-.601.012-.775.012-1.518.984 1.713 2.16 2.915 4.01 3.318 2.713.591 5.27-.5 6.21-2.704.982-2.305.095-4.946-2.224-6.49-1.515-1.01-3.086-1.938-4.595-2.957-1.262-.852-2.328-1.905-2.446-3.54-.262-3.626 2.728-5.768 6.204-4.415.922.353 1.424.78 2.016 1.478l-.001 1.4c-.84-1.142-1.783-1.91-3.136-2.198-1.453-.31-3.04.254-3.72 1.383-.72 1.192-.483 2.9.574 4.017.773.817 1.709 1.415 2.677 1.973 1.384.799 2.75 1.626 3.96 2.684"/>
        </g>
        <path fill="#FFF" d="M3 2.01h28v28H3z"/>
        <path fill="#EDA923" d="M8.973 26.512c0-.239.007-.652.007-.882-.08-.004-.804-.117-1.098-.197a3.922 3.922 0 0 1-2.091-1.395c-.616-.779-.614-1.117-.614-2.104.003-5.431.002-10.863 0-16.295 0-.09.02-.185-.027-.278h-.89V22.022c0 .944.129 1.593.532 2.192.932 1.389 2.092 2.088 3.743 2.28.143.017.242.022.438.018zm14.491-.338V13.796h-.928v2.837c-2.303-3.636-6.85-3.969-9.608-1.766-2.758 2.202-3.355 6.238-1.077 9.15 1.073 1.373 2.498 2.21 4.23 2.407 2.77.315 4.885-.812 6.46-3.084v2.834h.923zm5.84-14.576h1.14l-3.586-3.1h-1.14l3.586 3.1zm3.367-7.254v23.322a4.323 4.323 0 0 1-4.322 4.323H4.323A4.323 4.323 0 0 1 0 27.666V4.344A4.323 4.323 0 0 1 4.323.02h24.026a4.323 4.323 0 0 1 4.322 4.323zm-15.695 10.06c-2.897-.026-5.806 2.42-5.587 5.977.164 2.66 2.418 5.18 5.584 5.18 3.059 0 5.554-2.507 5.56-5.579.001-3.031-2.475-5.551-5.557-5.579z"/>
    </g>
</svg>
