<svg width="109" height="32" viewBox="0 0 109 32" fill="none" xmlns="http://www.w3.org/2000/svg">
<path d="M31.985 15.9925C31.985 24.8273 24.8273 31.985 15.9925 31.985C7.1577 31.985 0 24.8273 0 15.9925C0 7.15772 7.1577 2.34035e-05 15.9925 2.34035e-05C24.8124 -0.0149508 31.985 7.15772 31.985 15.9925Z" fill="#FFF32A"/>
<path d="M23.839 29.9336C31.5357 25.5911 34.2611 15.8428 29.9185 8.14606L2.03644 23.8541C6.37898 31.5508 16.1422 34.2761 23.839 29.9336Z" fill="#FFCB05"/>
<path d="M3.20453 10.6617C2.51572 12.2939 2.14136 14.1058 2.14136 15.9926C2.14136 23.0005 7.36738 28.7955 14.1208 29.709C15.6781 25.8606 15.5284 21.3683 13.2822 17.49C11.066 13.6416 7.27753 11.2607 3.20453 10.6617Z" fill="#ED1C24"/>
<path d="M29.8283 15.9925C29.8283 14.1207 29.4539 12.3388 28.7801 10.7216C24.6622 11.2906 20.8437 13.6865 18.6126 17.5499C16.3814 21.4132 16.2167 25.8905 17.759 29.7239C24.5574 28.8404 29.8283 23.0304 29.8283 15.9925Z" fill="#1B75BC"/>
<path d="M16.0524 12.9079C20.4847 12.9079 24.4379 10.8265 26.9985 7.59205C24.4679 4.28274 20.4847 2.14142 15.9925 2.14142C11.5451 2.14142 7.59189 4.23781 5.04626 7.50221C7.59189 10.7965 11.575 12.9079 16.0524 12.9079Z" fill="#39B54A"/>
<path d="M25.5162 10.6168C25.6659 10.8863 25.8007 11.1558 25.9355 11.4254C26.8639 11.0959 27.8072 10.8564 28.7806 10.7216C28.5709 10.1975 28.3164 9.68836 28.0319 9.19421L25.5162 10.6168Z" fill="#DDB10A"/>
<path d="M26.9837 7.59198C26.3697 8.35567 25.6809 9.05946 24.9322 9.68838C25.1418 9.98786 25.3365 10.2873 25.5162 10.6018L28.0319 9.17925C27.7174 8.64018 27.373 8.10111 26.9837 7.59198Z" fill="#EBD723"/>
<path d="M26.9836 7.59205C24.453 4.28274 20.4698 2.14142 15.9776 2.14142C11.5302 2.14142 7.577 4.23781 5.03137 7.5022C5.63034 8.28087 6.31916 8.98466 7.06787 9.61358C9.05945 6.84334 12.3089 5.03145 15.9776 5.03145C19.6762 5.03145 22.9556 6.87329 24.9322 9.68845C25.6959 9.0745 26.3847 8.37071 26.9836 7.59205Z" fill="#32A242"/>
<path d="M5.03139 15.9925C5.03139 14.3454 5.39077 12.788 6.04964 11.3954C5.13621 11.051 4.17786 10.8114 3.20453 10.6767C2.51571 12.3089 2.14136 14.1058 2.14136 15.9925C2.14136 23.0005 7.3524 28.7955 14.1208 29.7089C14.4951 28.7955 14.7647 27.8521 14.9294 26.8938C9.37393 26.3547 5.03139 21.6827 5.03139 15.9925Z" fill="#D31820"/>
<path d="M15.9776 29.8288C16.5916 29.8288 17.1756 29.7838 17.7745 29.709C17.4151 28.8105 17.1456 27.8671 16.9809 26.8938C16.6515 26.9237 16.322 26.9387 15.9776 26.9387C15.6482 26.9387 15.3187 26.9237 14.9893 26.8938C14.8246 27.8671 14.5551 28.8105 14.1957 29.709C14.7797 29.7988 15.3786 29.8288 15.9776 29.8288Z" fill="#DDB10A"/>
<path d="M29.8285 15.9925C29.8285 14.1207 29.4541 12.3538 28.7803 10.7216C27.8069 10.8564 26.8486 11.0959 25.9351 11.4254C26.579 12.818 26.9384 14.3603 26.9384 15.9925C26.9384 21.7127 22.551 26.3996 16.9656 26.8938C17.1303 27.8521 17.3998 28.8105 17.7592 29.7089C24.5575 28.8404 29.8285 23.0304 29.8285 15.9925Z" fill="#1969A9"/>
<path d="M3.13079 10.6617C3.11323 10.6968 3.13079 10.6617 3.13079 10.6617V10.6617Z" fill="#EBD723"/>
<path d="M6.04951 11.3954C6.33402 10.7665 6.67843 10.1825 7.08274 9.62846C6.33403 8.99954 5.64521 8.28078 5.04624 7.51709C4.29753 8.47544 3.68358 9.53862 3.20441 10.6767C4.16276 10.8114 5.12111 11.051 6.04951 11.3954Z" fill="#EBD723"/>
<path d="M43.066 18.059C42.9611 19.5864 42.8413 21.0988 42.7365 22.6261C42.5718 22.5962 42.4071 22.5812 42.2424 22.5812C42.0777 22.5812 41.9279 22.5812 41.7782 22.5812C41.6135 22.5812 41.4487 22.5812 41.299 22.5812C41.1493 22.5812 40.9845 22.5962 40.8198 22.6261C41.2541 20.2902 41.6434 17.9692 41.9878 15.6631C42.3322 13.3571 42.6467 11.0061 42.9312 8.6402C43.0809 8.67015 43.2157 8.68512 43.3505 8.71507C43.4852 8.73004 43.62 8.74501 43.7698 8.74501C43.8895 8.74501 44.0243 8.73004 44.1591 8.71507C44.2938 8.70009 44.4436 8.67015 44.5933 8.6402C44.9527 9.44881 45.3421 10.2874 45.7464 11.1259C46.1507 11.9645 46.555 12.803 46.9443 13.6416C47.3486 14.4802 47.7529 15.2888 48.1422 16.0974C48.5465 16.906 48.9209 17.6547 49.2952 18.3735C50.1039 16.8461 50.9274 15.2588 51.7361 13.5967C52.5447 11.9345 53.3083 10.2724 54.0421 8.6402C54.3865 8.71507 54.671 8.74501 54.9256 8.74501C55.1502 8.74501 55.4347 8.71507 55.7791 8.6402C55.9139 9.80819 56.0636 11.066 56.2134 12.4137C56.3631 13.7614 56.5278 15.0791 56.6776 16.3519C56.8273 17.6397 56.977 18.8377 57.1268 19.9458C57.2765 21.0538 57.4113 21.9523 57.5311 22.6411C57.2616 22.6112 56.977 22.5962 56.7075 22.5962C56.423 22.5962 56.1535 22.5962 55.8839 22.5962C55.6144 22.5962 55.3299 22.5962 55.0454 22.5962C54.7609 22.5962 54.4763 22.6112 54.1918 22.6411C54.117 21.2485 54.0121 19.7211 53.8624 18.1039C53.7127 16.4717 53.5479 14.8545 53.3832 13.2523H53.3383C52.5596 14.8545 51.796 16.4268 51.0622 17.9841C50.3135 19.5265 49.5798 21.0838 48.846 22.6561C48.7711 22.6411 48.7113 22.6261 48.6514 22.6261C48.5915 22.6261 48.5316 22.6112 48.4567 22.6112C48.3818 22.6112 48.3219 22.6112 48.262 22.6261C48.2021 22.6261 48.1422 22.6411 48.0674 22.6561C47.3336 21.1287 46.5999 19.6163 45.8811 18.0889C45.1474 16.5616 44.3987 15.0192 43.635 13.4619H43.5901C43.3355 14.9893 43.1708 16.5316 43.066 18.059Z" fill="#58585A"/>
<path d="M60.3014 11.2607C60.2714 10.3772 60.2415 9.50866 60.1966 8.62518C60.8105 8.64016 61.4095 8.65513 62.0084 8.68508C62.6074 8.71503 63.2064 8.73 63.8203 8.73C64.8236 8.73 65.7221 8.71503 66.5007 8.70005C67.2794 8.68508 67.8035 8.65513 68.073 8.62518C68.0131 8.8498 67.9981 9.13431 67.9981 9.47872C67.9981 9.70333 67.9981 9.86805 68.0131 9.98784C68.0281 10.1076 68.0431 10.2424 68.073 10.3921C67.6837 10.3622 67.2494 10.3322 66.7852 10.3173C66.321 10.2873 65.8568 10.2574 65.4226 10.2424C64.9883 10.2125 64.584 10.1975 64.2246 10.1825C63.8652 10.1675 63.6257 10.1675 63.4759 10.1675C63.416 10.9162 63.3861 11.65 63.3861 12.3837C63.3861 13.1175 63.3711 13.8512 63.3711 14.5999C64.2546 14.5849 65.0482 14.57 65.767 14.54C66.4857 14.5101 67.2195 14.4801 67.9981 14.4352C67.9532 14.6598 67.9233 14.8395 67.9233 14.9593C67.9083 15.0791 67.9083 15.2139 67.9083 15.3486C67.9083 15.4534 67.9233 15.5732 67.9382 15.6781C67.9532 15.7978 67.9832 15.9626 68.0131 16.1722C66.4708 16.0524 64.9284 15.9925 63.3861 15.9925C63.3861 16.4268 63.3861 16.861 63.3711 17.2953C63.3711 17.7295 63.3561 18.1638 63.3561 18.598C63.3561 19.4815 63.3711 20.335 63.416 21.1437C64.1947 21.1437 64.9584 21.1287 65.737 21.0838C66.5157 21.0388 67.2943 20.9789 68.073 20.8741C68.0431 21.0239 68.0281 21.1586 68.0131 21.2784C67.9981 21.3982 67.9981 21.5779 67.9981 21.7875C67.9981 22.0122 67.9981 22.1769 68.0131 22.2967C68.0281 22.4165 68.0431 22.5213 68.073 22.5962C67.7136 22.5812 67.2494 22.5662 66.7253 22.5662C66.1863 22.5662 65.4525 22.5512 64.5091 22.5512C63.6856 22.5512 63.0117 22.5512 62.4876 22.5512C61.9785 22.5512 61.5742 22.5512 61.2747 22.5512C60.9752 22.5512 60.7356 22.5512 60.5859 22.5662C60.4361 22.5662 60.3014 22.5812 60.1816 22.5962C60.2265 21.7576 60.2714 20.8891 60.2864 20.0206C60.3163 19.1371 60.3164 18.1488 60.3164 17.0108V14.2405C60.3463 13.1474 60.3313 12.1441 60.3014 11.2607Z" fill="#58585A"/>
<path d="M74.0927 20.0955C74.1077 21.1586 74.1526 21.9972 74.2424 22.6261C74.0178 22.5962 73.7633 22.5812 73.4937 22.5812C73.2242 22.5812 72.9097 22.5812 72.5803 22.5812C72.2359 22.5812 71.9364 22.5812 71.6669 22.5812C71.3973 22.5812 71.1428 22.5962 70.9182 22.6261C70.978 21.7876 71.008 20.9191 71.0379 20.0505C71.0679 19.1671 71.0829 18.1788 71.0829 17.0407V14.2705C71.0829 13.1474 71.0679 12.1441 71.0379 11.2607C71.008 10.3772 70.9631 9.50866 70.9182 8.62518C71.1428 8.65513 71.3973 8.67011 71.6669 8.70005C71.9364 8.71503 72.2509 8.73 72.5803 8.73C72.9247 8.73 73.2242 8.71503 73.4937 8.70005C73.7633 8.68508 74.0178 8.65513 74.2424 8.62518C74.1676 9.02949 74.1376 9.64343 74.1077 10.452C74.0927 11.2607 74.0777 12.1741 74.0777 13.1624V15.124C74.5419 14.5849 75.0361 13.986 75.5602 13.3421C76.0843 12.6982 76.5934 12.0693 77.0876 11.4553C77.5817 10.8414 78.016 10.2873 78.4053 9.7782C78.7946 9.26908 79.0791 8.87975 79.2588 8.62518C79.4535 8.65513 79.6332 8.67011 79.8278 8.70005C80.0225 8.71503 80.2022 8.73 80.3969 8.73C80.5915 8.73 80.7862 8.71503 80.9809 8.70005C81.1755 8.68508 81.3852 8.65513 81.6248 8.62518C81.4001 8.8498 81.0408 9.22415 80.5616 9.74825C80.0824 10.2574 79.5733 10.8264 79.0492 11.4254C78.5101 12.0243 78.001 12.6083 77.5068 13.1624C77.0127 13.7314 76.6383 14.1657 76.3688 14.4951C76.803 15.154 77.2822 15.8877 77.8213 16.6963C78.3454 17.5049 78.8845 18.2836 79.3936 19.0473C79.9177 19.811 80.3969 20.5147 80.8461 21.1736C81.2953 21.8175 81.6547 22.3117 81.9242 22.6261C81.5349 22.5962 81.1755 22.5812 80.8611 22.5812C80.5466 22.5812 80.2471 22.5812 79.9476 22.5812C79.6481 22.5812 79.3487 22.5812 79.0642 22.5812C78.7647 22.5812 78.4802 22.5962 78.1807 22.6261C77.4919 21.5929 76.803 20.5447 76.1442 19.4815C75.4853 18.4184 74.7965 17.3552 74.1077 16.292H74.0627C74.0777 17.7595 74.0777 19.0323 74.0927 20.0955Z" fill="#58585A"/>
<path d="M95.6855 22.6261C95.3561 22.5962 95.0566 22.5812 94.7571 22.5812C94.4576 22.5812 94.1731 22.5812 93.8886 22.5812C93.6041 22.5812 93.3196 22.5812 93.0201 22.5812C92.7206 22.5812 92.4361 22.5962 92.1516 22.6261C91.927 21.9673 91.7173 21.2784 91.4777 20.5896C91.2531 19.9008 90.9986 19.197 90.744 18.5082C90.3097 18.4932 89.8755 18.4782 89.4412 18.4782C89.007 18.4782 88.5727 18.4633 88.1385 18.4633C87.7791 18.4633 87.4347 18.4633 87.0753 18.4782C86.7159 18.4782 86.3715 18.4932 86.0121 18.5082C85.7426 19.197 85.488 19.9008 85.2634 20.5896C85.0388 21.2784 84.8292 21.9673 84.6345 22.6261C84.4698 22.5962 84.3051 22.5812 84.1553 22.5812C84.0056 22.5812 83.8409 22.5812 83.6761 22.5812C83.5114 22.5812 83.3467 22.5812 83.182 22.5812C83.0173 22.5812 82.8376 22.5962 82.6579 22.6261C82.8226 22.2667 83.0322 21.7876 83.3168 21.1586C83.5863 20.5297 83.8858 19.8259 84.2152 19.0323C84.5446 18.2387 84.8891 17.4001 85.2634 16.5016C85.6378 15.6032 86.0121 14.6898 86.3865 13.7614C86.7608 12.833 87.1202 11.9345 87.4796 11.036C87.839 10.1376 88.1684 9.29903 88.4679 8.53534C88.6027 8.56529 88.7374 8.58026 88.8572 8.61021C88.977 8.62518 89.1118 8.64016 89.2466 8.64016C89.3813 8.64016 89.5161 8.62518 89.6359 8.61021C89.7557 8.59524 89.8905 8.56529 90.0252 8.53534C90.4595 9.68836 90.9237 10.9312 91.4178 12.249C91.912 13.5667 92.4061 14.8545 92.9153 16.1273C93.4244 17.4001 93.9036 18.598 94.3827 19.7511C94.8619 20.8741 95.2962 21.8325 95.6855 22.6261ZM88.4829 12.4586C88.1235 13.2672 87.7941 14.0758 87.4796 14.8695C87.1651 15.6631 86.8657 16.4717 86.5662 17.3103H90.2948C89.9953 16.4867 89.6958 15.6631 89.4113 14.8695C89.1118 14.0758 88.7973 13.2672 88.4829 12.4586Z" fill="#58585A"/>
<path d="M101.316 16.2022V17.0407C101.316 18.1638 101.331 19.1671 101.361 20.0505C101.391 20.9191 101.436 21.7876 101.481 22.6261C101.256 22.5962 101.001 22.5812 100.732 22.5812C100.462 22.5812 100.148 22.5812 99.8184 22.5812C99.489 22.5812 99.1746 22.5812 98.905 22.5812C98.6355 22.5812 98.3809 22.5962 98.1563 22.6261C98.2162 21.7876 98.2462 20.9191 98.2761 20.0505C98.3061 19.1671 98.321 18.1788 98.321 17.0407V14.2705C98.321 13.1474 98.3061 12.1441 98.2761 11.2607C98.2462 10.3772 98.2012 9.50866 98.1563 8.62518C98.3809 8.65513 98.6355 8.67011 98.905 8.70005C99.1746 8.71503 99.489 8.73 99.8184 8.73C100.193 8.73 100.597 8.71503 101.076 8.68508C101.54 8.65513 102.124 8.64016 102.813 8.64016C103.322 8.64016 103.772 8.65513 104.131 8.68508C104.49 8.71503 104.82 8.75995 105.074 8.80488C105.344 8.86477 105.569 8.92467 105.763 9.01451C105.958 9.10436 106.153 9.20918 106.317 9.32898C106.722 9.62846 107.051 10.0028 107.291 10.4371C107.53 10.8713 107.65 11.4104 107.65 12.0094C107.65 12.9977 107.38 13.8063 106.841 14.4352C106.302 15.0641 105.524 15.4984 104.505 15.7529C105.164 16.906 105.853 18.059 106.602 19.212C107.35 20.365 108.099 21.503 108.848 22.6261C108.533 22.5962 108.234 22.5812 107.934 22.5812C107.635 22.5812 107.336 22.5812 107.021 22.5812C106.707 22.5812 106.392 22.5812 106.093 22.5812C105.793 22.5812 105.479 22.5962 105.164 22.6261L101.511 16.2022H101.316ZM104.356 11.036C104.236 10.6767 104.041 10.4221 103.802 10.2274C103.547 10.0477 103.218 9.92794 102.828 9.86804C102.424 9.80815 101.945 9.79317 101.391 9.79317C101.346 11.635 101.331 13.4918 101.331 15.3337C101.406 15.3486 101.496 15.3636 101.57 15.3636C101.645 15.3636 101.72 15.3786 101.78 15.3786C102.679 15.3786 103.367 15.139 103.832 14.6598C104.311 14.1806 104.55 13.4469 104.55 12.4736C104.535 11.8596 104.475 11.3804 104.356 11.036Z" fill="#58585A"/>
</svg>
