<svg width="57" height="56" viewBox="0 0 57 56" xmlns="http://www.w3.org/2000/svg" xmlns:xlink="http://www.w3.org/1999/xlink"><title>Atom/Icon/edcat</title><defs><path id="a" d="M8.943 9.5H0V.072h8.943V9.5z"/></defs><g fill="none" fill-rule="evenodd"><path d="M.5 27.829C.5 12.459 12.96 0 28.329 0c15.37 0 27.829 12.46 27.829 27.829 0 15.37-12.46 27.829-27.83 27.829C12.96 55.658.5 43.198.5 27.828z" fill="#FFF"/><path d="M51.512 25.879V24.06h-2.263v-2.534h-2.45v8.482c0 1.576.075 1.982.39 2.446.41.612 1.114.853 2.375.853.5 0 1.335-.02 1.948-.094v-2.01a14.85 14.85 0 0 1-1.186.053c-.928 0-1.077-.185-1.077-1.294v-4.083h2.263zm-9.033 3.944c0 .612-.093.908-.409 1.26-.445.481-1.058.74-1.763.74-.854 0-1.373-.462-1.373-1.203 0-.814.446-1.15 1.819-1.352 1.002-.13 1.337-.223 1.726-.462v1.017zm2.375.28c.018-.797.018-1.373.018-1.724.02-1.037.02-1.056.02-1.278 0-1.297-.168-1.76-.78-2.26-.687-.555-1.781-.852-3.174-.852-2.578 0-3.99 1.02-4.137 2.982h2.319c.168-.982.631-1.333 1.763-1.333 1.095 0 1.614.389 1.614 1.166 0 .723-.241.834-2.171 1.075-1.336.185-1.855.277-2.337.5-1.04.427-1.577 1.241-1.577 2.333 0 1.685 1.187 2.705 3.136 2.705 1.224 0 2.189-.37 2.969-1.112 0 .315.017.463.147.87h2.505c-.241-.592-.315-1.129-.315-2.407v-.666zm-13.639 1.321c-1.317 0-2.097-.896-2.097-2.693 0-1.834.798-2.748 2.153-2.748.946 0 1.595.414 1.78 1.378h2.413c-.203-2.075-1.818-3.372-4.213-3.372-2.782 0-4.602 1.89-4.602 4.797 0 2.798 1.82 4.63 4.566 4.63 2.393 0 3.99-1.37 4.305-3.667h-2.393c-.187 1.185-.854 1.675-1.912 1.675m-10.555-.007c-1.319 0-2.135-1.056-2.135-2.78 0-1.758.798-2.758 2.153-2.758 1.317 0 2.134 1.056 2.134 2.777 0 1.741-.798 2.761-2.152 2.761zm2.06-6.094c-.577-.87-1.54-1.352-2.728-1.352-2.375 0-3.936 1.852-3.936 4.685 0 2.89 1.597 4.761 4.065 4.761 1.224 0 2.098-.445 2.709-1.389v1.148h2.339V21.5h-2.45v3.823z" fill="#000"/><g transform="translate(6 23.917)"><mask id="b" fill="#fff"><use xlink:href="#a"/></mask><path d="M2.505 3.851c.13-1.24.91-1.878 2.003-1.878 1.096 0 1.783.581 1.93 1.878H2.505zM4.508.072C1.91.072 0 2.09 0 4.832 0 7.627 1.836 9.5 4.582 9.5c2.098 0 3.73-1.185 4.213-3.02H6.438c-.37.889-.928 1.12-1.836 1.12-1.317 0-2.042-.676-2.097-2.176h6.438v-.37c0-3-1.762-4.982-4.435-4.982z" fill="#000" mask="url(#b)"/></g></g></svg>