<svg width="57" height="56" viewBox="0 0 57 56" xmlns="http://www.w3.org/2000/svg"><title>Atom/Icon/Insta</title><g fill="none" fill-rule="evenodd"><path d="M.5 27.829C.5 12.459 12.96 0 28.329 0c15.37 0 27.829 12.46 27.829 27.829 0 15.37-12.46 27.829-27.83 27.829C12.96 55.658.5 43.198.5 27.828z" fill="#FFF"/><path d="M26.999 15.662h1.331c3.963 0 4.433.014 5.998.085 1.447.066 2.232.308 2.756.511a4.59 4.59 0 0 1 1.705 1.11c.52.52.841 1.014 1.11 1.707.204.523.446 1.308.512 2.755.071 1.565.087 2.035.087 5.996 0 3.96-.016 4.43-.087 5.995-.066 1.447-.308 2.233-.511 2.755a4.59 4.59 0 0 1-1.11 1.705 4.59 4.59 0 0 1-1.706 1.11c-.523.205-1.309.446-2.756.512-1.565.071-2.035.087-5.998.087s-4.433-.016-5.997-.087c-1.447-.067-2.233-.309-2.756-.512a4.597 4.597 0 0 1-1.707-1.11 4.6 4.6 0 0 1-1.11-1.706c-.204-.522-.446-1.308-.512-2.755-.071-1.565-.085-2.035-.085-5.998 0-3.964.014-4.431.085-5.996.066-1.447.308-2.232.511-2.755a4.599 4.599 0 0 1 1.11-1.707 4.606 4.606 0 0 1 1.708-1.11c.523-.205 1.309-.446 2.756-.513 1.369-.062 1.9-.08 4.666-.083v.004zm9.254 2.464a1.78 1.78 0 1 0 0 3.563 1.78 1.78 0 0 0 0-3.564v.001zm-7.923 2.081a7.622 7.622 0 1 0 .002 15.245 7.622 7.622 0 0 0-.002-15.245zm0-7.22c-4.03 0-4.536.017-6.12.09-1.58.072-2.658.322-3.602.69a7.268 7.268 0 0 0-2.63 1.71 7.286 7.286 0 0 0-1.712 2.63c-.368.944-.619 2.022-.69 3.602-.07 1.583-.09 2.09-.09 6.12 0 4.031.019 4.535.09 6.119.073 1.58.323 2.658.69 3.602.38.976.887 1.804 1.712 2.63a7.268 7.268 0 0 0 2.628 1.712c.945.367 2.023.617 3.603.69 1.583.072 2.089.09 6.12.09 4.03 0 4.535-.018 6.118-.09 1.58-.073 2.66-.323 3.604-.69a7.262 7.262 0 0 0 2.628-1.713 7.286 7.286 0 0 0 1.713-2.629c.365-.944.615-2.023.69-3.602.07-1.583.09-2.088.09-6.119 0-4.03-.02-4.537-.09-6.12-.075-1.58-.325-2.658-.69-3.602a7.285 7.285 0 0 0-1.713-2.63 7.254 7.254 0 0 0-2.629-1.71c-.946-.368-2.025-.618-3.605-.69-1.583-.073-2.087-.09-6.12-.09h.005zm0 9.895a4.947 4.947 0 1 1 0 9.895 4.947 4.947 0 0 1 0-9.895z" fill="#000"/></g></svg>