<svg width="48" height="48" viewBox="0 0 48 48" xmlns="http://www.w3.org/2000/svg"><title>Atom/Icon/Search White</title><path d="M26.858 29.662a8.258 8.258 0 0 1-5.48 2.07A8.378 8.378 0 0 1 13 23.354C13 18.726 16.75 15 21.378 15a8.352 8.352 0 0 1 8.354 8.354c0 2.094-.78 4.018-2.046 5.504l6.186 6.186c.17.17.17.292 0 .463l-.365.365c-.17.17-.268.17-.439 0l-6.21-6.21zm-5.48-13.517a7.208 7.208 0 0 0-7.209 7.209 7.208 7.208 0 0 0 7.21 7.209c3.969 0 7.184-3.24 7.184-7.21 0-3.97-3.215-7.208-7.185-7.208z" stroke="#FFF" stroke-width="1.232" fill="#FFF" fill-rule="evenodd"/></svg>