<svg width="48" height="48" viewBox="0 0 48 48" xmlns="http://www.w3.org/2000/svg"><title>Atom/Icon/Search Grey</title><path d="M27.838 28.756a9.437 9.437 0 0 1-6.263 2.366A9.574 9.574 0 0 1 12 21.547C12 16.26 16.286 12 21.575 12c5.26 0 9.547 4.259 9.547 9.547 0 2.394-.89 4.593-2.338 6.29l7.07 7.07c.195.195.195.335 0 .53l-.418.417c-.194.195-.306.195-.5 0l-7.098-7.098zm-6.263-15.448c-4.565 0-8.239 3.702-8.239 8.24a8.238 8.238 0 0 0 8.239 8.238c4.537 0 8.211-3.702 8.211-8.239 0-4.537-3.674-8.239-8.211-8.239z" fill="#96989E" fill-rule="evenodd"/></svg>