<svg width="48" height="48" viewBox="0 0 48 48" xmlns="http://www.w3.org/2000/svg"><title>Atom/Icon/Search Black</title><path d="M27.518 28.36a8.65 8.65 0 0 1-5.741 2.169A8.777 8.777 0 0 1 13 21.752C13 16.904 16.93 13 21.777 13c4.822 0 8.752 3.904 8.752 8.752 0 2.194-.817 4.21-2.144 5.766l6.481 6.48c.179.18.179.307 0 .485l-.383.383c-.178.179-.28.179-.459 0l-6.506-6.506zM21.777 14.2a7.552 7.552 0 0 0-7.552 7.552 7.552 7.552 0 0 0 7.552 7.552c4.159 0 7.527-3.394 7.527-7.552 0-4.16-3.368-7.553-7.527-7.553z" fill-rule="evenodd"/></svg>