<svg width="129" height="125" xmlns="http://www.w3.org/2000/svg"><defs><linearGradient x1="50.001%" y1="100%" x2="50.001%" y2="0%" id="a"><stop stop-color="gray" stop-opacity=".25" offset="1%"/><stop stop-color="gray" stop-opacity=".12" offset="54%"/><stop stop-color="gray" stop-opacity=".1" offset="100%"/></linearGradient><linearGradient x1="50%" y1="100%" x2="50%" y2="0%" id="b"><stop stop-color="#B3B3B3" stop-opacity=".25" offset="0%"/><stop stop-color="#B3B3B3" stop-opacity=".1" offset="54%"/><stop stop-color="#B3B3B3" stop-opacity=".05" offset="100%"/></linearGradient><linearGradient x1="50%" y1="100.011%" x2="50%" y2="0%" id="c"><stop stop-color="#B3B3B3" stop-opacity=".25" offset="0%"/><stop stop-color="#B3B3B3" stop-opacity=".1" offset="54%"/><stop stop-color="#B3B3B3" stop-opacity=".05" offset="100%"/></linearGradient><linearGradient x1="49.999%" y1="100%" x2="49.999%" y2="0%" id="d"><stop stop-color="gray" stop-opacity=".25" offset="1%"/><stop stop-color="gray" stop-opacity=".12" offset="54%"/><stop stop-color="gray" stop-opacity=".1" offset="100%"/></linearGradient><linearGradient x1="49.994%" y1="100%" x2="49.994%" y2="0%" id="e"><stop stop-color="#B3B3B3" stop-opacity=".25" offset="0%"/><stop stop-color="#B3B3B3" stop-opacity=".1" offset="54%"/><stop stop-color="#B3B3B3" stop-opacity=".05" offset="100%"/></linearGradient></defs><g fill="none" fill-rule="evenodd"><path fill="url(#a)" d="M79.763 124.076H0V30.274L12.052 16.74h67.711z"/><path fill="#FAFAFA" d="M78.779 121.122H.985V31.623L12.738 18.71h66.04z"/><path fill="#E0E0E0" d="M7.878 29.542h38.405v6.893H7.878zm1.969 16.74H37.42v6.893H9.847z"/><path fill="#2C559C" d="M9.847 73.855H70.9v23.634H9.847z"/><path fill="#F5F5F5" d="M58.099 29.542h13.786v6.893H58.099zm0 8.863h13.786v6.893H58.099z"/><path fill="url(#b)" d="M13.786 18.71v13.786H1.97v-1.205L12.653 18.71z"/><path fill="#EEE" d="M1.97 31.511L12.801 18.71v12.8z"/><path fill="url(#a)" d="M105.366 115.214H25.603V21.41L37.655 7.878h67.711z"/><path fill="#FAFAFA" d="M104.382 112.26H26.588v-89.5L38.34 9.847h66.04z"/><path fill="#E0E0E0" d="M33.481 20.679h38.405v6.893H33.481zm.985 16.741h27.573v6.893H34.466z"/><path fill="#2C559C" d="M34.466 63.023h61.053v23.634H34.466z"/><path fill="#F5F5F5" d="M81.733 20.679h13.786v6.893H81.733zm0 9.848h13.786v6.893H81.733z"/><path fill="url(#c)" d="M38.405 8.863v13.786H26.588v-1.205L37.27 8.863z"/><path fill="#EEE" d="M26.588 21.664L37.42 8.863v12.801z"/><path fill="url(#d)" d="M129 107.336H49.237V13.533L61.287 0H129z"/><path fill="#FFF" d="M128.015 103.397H50.221v-89.5L61.976.984h66.04z"/><path fill="#E0E0E0" d="M57.115 11.817H95.52v6.893H57.115zm.984 17.725h27.573v6.893H58.099z"/><path fill="#2C559C" d="M59.084 56.13h61.053v23.634H59.084z"/><path fill="#E0E0E0" d="M106.351 11.817h13.786v6.893h-13.786zm0 10.832h13.786v6.893h-13.786zm0 9.847h13.786v6.893h-13.786z"/><path fill="url(#e)" d="M63.023 1.97v13.786H50.22v-1.207l11.574-12.58z"/><path fill="#EEE" d="M50.221 13.786L61.053.985v12.801z"/></g></svg>