<svg width="180" height="216" xmlns="http://www.w3.org/2000/svg"><defs><linearGradient x1="47.022%" y1="97.173%" x2="52.989%" y2="2.81%" id="a"><stop stop-color="gray" stop-opacity=".25" offset="0%"/><stop stop-color="gray" stop-opacity=".12" offset="54%"/><stop stop-color="gray" stop-opacity=".1" offset="100%"/></linearGradient><linearGradient x1="56.826%" y1="93.826%" x2="43.169%" y2="6.189%" id="b"><stop stop-color="gray" stop-opacity=".25" offset="0%"/><stop stop-color="gray" stop-opacity=".12" offset="54%"/><stop stop-color="gray" stop-opacity=".1" offset="100%"/></linearGradient><linearGradient x1="50%" y1="100%" x2="50%" y2="0%" id="c"><stop stop-color="gray" stop-opacity=".25" offset="0%"/><stop stop-color="gray" stop-opacity=".12" offset="54%"/><stop stop-color="gray" stop-opacity=".1" offset="100%"/></linearGradient><linearGradient x1="49.992%" y1="100%" x2="49.992%" y2="0%" id="d"><stop stop-color="gray" stop-opacity=".25" offset="0%"/><stop stop-color="gray" stop-opacity=".12" offset="54%"/><stop stop-color="gray" stop-opacity=".1" offset="100%"/></linearGradient></defs><g fill="none"><path fill="url(#a)" d="M164.812 216L27 204.767 42.188 18 180 29.233z"/><path fill-opacity=".716" fill="#213C68" d="M162.307 213L29 202.048 43.693 20 177 30.95z"/><path fill="url(#b)" d="M171 184.778L35.288 211 0 26.222 135.712 0z"/><path fill="#E0E0E0" d="M169 182.523L37.256 208 3 28.474 134.744 3z"/><path fill="url(#c)" d="M17 14h138v188H17z"/><path fill="#FFF" d="M19 17h134v183H19z"/><circle stroke="#FFF" fill="#FFF" cx="85.5" cy="42.5" r="8.5"/><path d="M85.5 53h0c-4.152.027-7.503 3.491-7.5 7.753v5.9a21.55 21.55 0 0 0 15 0v-5.9c.003-4.262-3.348-7.726-7.5-7.753h0zm-7.58-10.454a8.306 8.306 0 0 1-.905-4.301A5.75 5.75 0 0 1 78.9 34.35c1.238-1.06 2.917-1.434 4.539-1.563 1.622-.13 3.267-.05 4.863-.368A10.157 10.157 0 0 0 94.791 28c.101 1.251.203 2.53-.037 3.756-.24 1.226-.872 2.446-1.938 3.093 1.292-.6 1.151.807.872 1.647.64.776 2.195.906 2.274 1.91.079 1.003.065 2.04-.325 2.965-.39.925.028 2.559-.97 2.629" stroke="#FFF" fill="#FFF"/><path d="M92 34s5.514.5 1.591 9" fill="#FFF"/><path fill="url(#d)" d="M0 0h18v18H0z" transform="translate(31 161)"/><path fill="#5C6F8E" d="M33 162h15v15H33z"/><path fill="url(#d)" d="M0 0h18v18H0z" transform="translate(31 122)"/><path fill="#5C6F8E" d="M33 123h15v15H33z"/><path fill="url(#d)" d="M0 0h18v18H0z" transform="translate(31 82)"/><path fill="#5C6F8E" d="M33 83h15v15H33z"/><path fill="url(#d)" d="M0 0h18v18H0z" transform="translate(31 42)"/><path fill="#5C6F8E" d="M33 43h15v15H33z"/><path fill="#213C68" d="M64 85h44v3H64z"/><path fill="#E0E0E0" d="M64 90h74v3H64zm0 4h74v3H64z"/><path fill="#213C68" d="M64 45h44v3H64z"/><path fill="#E0E0E0" d="M64 50h74v3H64zm0 4h74v3H64z"/><path fill="#213C68" d="M64 125h44v3H64z"/><path fill="#E0E0E0" d="M64 129h74v3H64zm0 4h74v3H64z"/><path fill="#213C68" d="M64 164h44v3H64z"/><path fill="#E0E0E0" d="M64 169h74v3H64zm0 4h74v3H64z"/></g></svg>