<svg xmlns="http://www.w3.org/2000/svg" width="24" height="24" viewBox="0 0 24 24">
    <path fill="#515557" fill-rule="evenodd" d="M6.234 9.766v11.211H3V7.185L11.727 3l9.24 4.185v13.792h-3.235V9.767H6.234zm3.453 9.025h2.04v1.756h-2.04V18.79zm2.504 0h2.04v1.756h-2.04V18.79zm-5.008 0h2.04v1.756h-2.04V18.79zm2.504-2.409h2.04v1.756h-2.04v-1.756zm-2.504 0h2.04v1.756h-2.04v-1.756zm5.008 0h2.04v1.756h-2.04v-1.756zm-2.504-2.408h2.04v1.756h-2.04v-1.756zm-2.504 0h2.04v1.756h-2.04v-1.756zm7.511 4.817h2.04v1.756h-2.04V18.79z"/>
</svg>
