<svg width="136" height="136" viewBox="0 0 136 136" fill="none" xmlns="http://www.w3.org/2000/svg">
<g filter="url(#filter0_d)">
<circle cx="68" cy="68" r="63" fill="white"/>
</g>
<circle cx="77" cy="66" r="30" fill="#D7FDFE"/>
<path d="M84.5 76.046C86.2166 73.6768 87.2287 70.7638 87.2287 67.6143C87.2287 59.6693 80.7879 53.2285 72.8429 53.2285C64.8978 53.2285 58.457 59.6693 58.457 67.6143C58.457 69.5186 58.827 71.3365 59.4991 73" stroke="#4A91E1" stroke-width="2"/>
<rect x="41" y="68.3425" width="6.68579" height="22.4288" rx="2" fill="white" stroke="#4A91E1" stroke-width="2" stroke-linecap="round" stroke-linejoin="round"/>
<rect x="41" y="68.3425" width="6.68579" height="22.4288" rx="2" stroke="#4A91E1" stroke-width="2" stroke-linecap="round" stroke-linejoin="round"/>
<path d="M58.8022 81.5713C59.7973 80.8762 62.274 79.486 64.22 79.486C66.166 79.486 70.9646 79.486 73.1207 79.486C75.719 78.7158 82.3973 76.668 88.3237 74.639C92.0277 73.3709 93.2992 73.85 94.0732 74.639C94.8472 75.4281 95.2894 77.0062 94.0732 78.2461C92.857 79.486 77.2117 89.5745 74.5028 89.969C72.3357 90.2846 56.3882 90.1005 48.6853 89.969" stroke="#4A91E1" stroke-width="2" stroke-linecap="round" stroke-linejoin="round"/>
<path d="M64.4297 53.7722H81.2584" stroke="#4A91E1" stroke-width="2" stroke-linecap="round" stroke-linejoin="round"/>
<path d="M48.6853 69.7426C49.9671 69.4598 53.0321 69.2124 55.0383 70.4849C57.5461 72.0755 59.218 73.6131 64.0106 73.242C68.8033 72.8708 70.3637 73.6131 71.1438 75.4689C71.924 77.3246 71.1996 79.0743 70.6423 79.2864" stroke="#4A91E1" stroke-width="2" stroke-linecap="round" stroke-linejoin="round"/>
<path d="M73.242 68.9712L71.8435 66.9734C72.6687 66.6521 73.1377 65.9746 73.1377 65.0539C73.1377 63.7076 72.1475 62.8911 70.5494 62.8911H68.0479V68.9712H69.177V67.1993H70.5494C70.6275 67.1993 70.7057 67.1993 70.7839 67.1906L72.0259 68.9712H73.242ZM71.9999 65.0539C71.9999 65.8182 71.4874 66.2699 70.4972 66.2699H69.177V63.8465H70.4972C71.4874 63.8465 71.9999 64.2895 71.9999 65.0539Z" fill="#4A91E1"/>
<path d="M76.8678 64.2808C76.2337 64.2808 75.6952 64.498 75.3304 64.941V64.333H74.2968V70.6562H75.3825V68.4066C75.756 68.8322 76.2772 69.032 76.8678 69.032C78.2228 69.032 79.2216 68.0939 79.2216 66.6521C79.2216 65.2189 78.2228 64.2808 76.8678 64.2808ZM76.7462 68.1026C75.9645 68.1026 75.3652 67.538 75.3652 66.6521C75.3652 65.7661 75.9645 65.2015 76.7462 65.2015C77.5279 65.2015 78.1186 65.7661 78.1186 66.6521C78.1186 67.538 77.5279 68.1026 76.7462 68.1026Z" fill="#4A91E1"/>
<path d="M69.4468 53.7713L67.7005 47.8567C67.5946 46.9987 67.9862 45.3594 70.3994 45.6661" stroke="#4A91E1" stroke-width="2" stroke-linecap="round" stroke-linejoin="round"/>
<path d="M71.4313 48.8858L70.3999 46.0217C70.6532 45.3665 71.8765 44 73.2228 44C74.9057 44 75.8285 45.5724 75.8285 46.0217C75.8285 46.3811 75.3942 48.0808 75.1771 48.8858" stroke="#4A91E1" stroke-width="2" stroke-linecap="round" stroke-linejoin="round"/>
<path d="M76.9152 53.7713L78.5435 47.7589C78.56 46.8922 78.0402 45.2672 75.8296 45.7005" stroke="#4A91E1" stroke-width="2" stroke-linecap="round" stroke-linejoin="round"/>
<defs>
<filter id="filter0_d" x="0" y="0" width="136" height="136" filterUnits="userSpaceOnUse" color-interpolation-filters="sRGB">
<feFlood flood-opacity="0" result="BackgroundImageFix"/>
<feColorMatrix in="SourceAlpha" type="matrix" values="0 0 0 0 0 0 0 0 0 0 0 0 0 0 0 0 0 0 127 0"/>
<feMorphology radius="1" operator="dilate" in="SourceAlpha" result="effect1_dropShadow"/>
<feOffset/>
<feGaussianBlur stdDeviation="2"/>
<feColorMatrix type="matrix" values="0 0 0 0 0.490196 0 0 0 0 0.490196 0 0 0 0 0.490196 0 0 0 0.1 0"/>
<feBlend mode="normal" in2="BackgroundImageFix" result="effect1_dropShadow"/>
<feBlend mode="normal" in="SourceGraphic" in2="effect1_dropShadow" result="shape"/>
</filter>
</defs>
</svg>
