<svg width="129" height="122" viewBox="0 0 129 122" fill="none" xmlns="http://www.w3.org/2000/svg">
<rect x="37" width="92" height="92" rx="6" fill="#D8FCFF"/>
<path d="M8.46199 65.5001C8.46199 35.4961 29.298 11.1731 55.0004 11.1731C25.793 11.1731 2.11572 35.4961 2.11572 65.5001C2.11572 95.504 25.793 119.827 55.0004 119.827C29.298 119.827 8.46199 95.504 8.46199 65.5001Z" fill="white"/>
<path d="M55.0018 11.8461H55C26.0947 11.8461 2.7307 35.9061 2.7307 65.5C2.7307 95.0939 26.0947 119.154 55 119.154C83.9053 119.154 107.269 95.0939 107.269 65.5V65.4983C107.236 35.9193 83.8922 11.8802 55.0018 11.8461ZM54.9983 120.5C25.4896 120.499 1.5 95.9134 1.5 65.5C1.5 35.086 25.4905 10.5 55 10.5C84.5089 10.5 108.499 35.0851 108.5 65.4984C108.467 95.899 84.495 120.466 54.9983 120.5Z" fill="#428DFF" stroke="#4A91E1" stroke-width="3"/>
<path d="M48.6521 85.0577C48.1724 85.0579 47.7068 84.8902 47.3321 84.5823L26.1782 67.1977C25.2694 66.4471 25.1233 65.0825 25.8514 64.1467C26.5795 63.2109 27.9075 63.0569 28.8203 63.8022L48.4061 79.8988L80.9178 42.3263C81.6936 41.4291 83.0306 41.3479 83.9039 42.1448C84.7772 42.9418 84.8563 44.3152 84.0805 45.2124L50.2344 84.3278C49.8329 84.7926 49.2569 85.0583 48.6521 85.0577Z" fill="#428DFF" stroke="#4A91E1" stroke-width="6"/>
</svg>
