<svg xmlns="http://www.w3.org/2000/svg" width="24" height="24" viewBox="0 0 24 24">
    <path fill="#515557" fill-rule="evenodd" d="M5.95 15.071a.256.256 0 0 1-.21-.402l4.353-7.006a.252.252 0 0 1 .416 0l4.357 7.006a.254.254 0 0 1-.206.402H5.95zm8.866-2.649a.263.263 0 0 1-.005-.287l1.215-1.466a.252.252 0 0 1 .416 0l2.813 4.005a.254.254 0 0 1-.205.402h-2.43a.247.247 0 0 1-.206-.11l-1.598-2.544zm2.028-3.946a1.279 1.279 0 1 1-.26-2.544 1.279 1.279 0 0 1 .26 2.544zM20.538 3A1.46 1.46 0 0 1 22 4.462v16.076A1.46 1.46 0 0 1 20.538 22H4.462A1.46 1.46 0 0 1 3 20.538V4.462A1.46 1.46 0 0 1 4.462 3h16.076zm-.123 12.788h.005V4.95a.366.366 0 0 0-.366-.365H4.95a.366.366 0 0 0-.365.365v10.838c0 .201.164.366.365.366h15.1a.366.366 0 0 0 .365-.366z"/>
</svg>
