<svg xmlns="http://www.w3.org/2000/svg" width="24" height="24" viewBox="0 0 24 24">
    <path fill="#515557" fill-rule="evenodd" d="M3.531 14.066C2.686 14.066 2 13.365 2 12.5c0-.865.686-1.566 1.531-1.566.846 0 1.531.701 1.531 1.566 0 .865-.685 1.566-1.53 1.566zm0-6.934C2.686 7.132 2 6.43 2 5.566 2 4.7 2.686 4 3.531 4c.846 0 1.531.701 1.531 1.566 0 .865-.685 1.566-1.53 1.566zm0 13.868C2.686 21 2 20.299 2 19.434c0-.865.686-1.566 1.531-1.566.846 0 1.531.701 1.531 1.566 0 .865-.685 1.566-1.53 1.566zm18.594-9.395c.481 0 .875.403.875.895a.888.888 0 0 1-.875.895H8.973a.888.888 0 0 1-.875-.895c0-.492.393-.895.875-.895h13.152zm0 6.934c.481 0 .875.403.875.895a.888.888 0 0 1-.875.895H8.973a.888.888 0 0 1-.875-.895c0-.492.393-.895.875-.895h13.152zM8.973 6.461a.888.888 0 0 1-.875-.895c0-.492.393-.895.875-.895h13.152c.481 0 .875.403.875.895a.888.888 0 0 1-.875.895H8.973z"/>
</svg>
