<svg xmlns="http://www.w3.org/2000/svg" width="24" height="24" viewBox="0 0 24 24">
    <path fill="#515557" fill-rule="evenodd" d="M13.28 5a1.84 1.84 0 0 1 1.84 1.84c0 .308-.252.56-.56.56a.562.562 0 0 1-.56-.56.722.722 0 0 0-.72-.72H5.84a.722.722 0 0 0-.72.72v10.4c0 .396.324.72.72.72h7.44c.396 0 .72-.324.72-.72 0-.308.252-.56.56-.56.308 0 .56.252.56.56a1.84 1.84 0 0 1-1.84 1.84H5.84A1.84 1.84 0 0 1 4 17.24V6.84A1.84 1.84 0 0 1 5.84 5zm3.32 2.96c.152 0 .292.06.396.164l3.38 3.368c.168.168.26.368.26.58a.819.819 0 0 1-.26.588l-3.304 3.296a.54.54 0 0 1-.396.164.578.578 0 0 1-.392-.156.566.566 0 0 1-.004-.796l2.544-2.564H8.56a.562.562 0 0 1-.56-.56c0-.308.252-.56.56-.56h10.252l-2.608-2.568a.558.558 0 0 1 .396-.956z"/>
</svg>
