<svg width="89" height="26" viewBox="0 0 89 26" fill="none" xmlns="http://www.w3.org/2000/svg">
<path d="M25.9878 12.9939C25.9878 20.1722 20.1722 25.9878 12.9939 25.9878C5.81563 25.9878 0 20.1722 0 12.9939C0 5.81564 5.81563 1.90153e-05 12.9939 1.90153e-05C20.16 -0.0121476 25.9878 5.81564 25.9878 12.9939Z" fill="#FFF32A"/>
<path d="M19.3698 24.3215C25.6234 20.7932 27.8378 12.8728 24.3094 6.61914L1.65527 19.3819C5.18358 25.6355 13.1162 27.8498 19.3698 24.3215Z" fill="#FFCB05"/>
<path d="M2.60309 8.66309C2.04342 9.98924 1.73926 11.4614 1.73926 12.9944C1.73926 18.6883 5.9854 23.3968 11.4725 24.139C12.7378 21.0122 12.6162 17.3622 10.7912 14.211C8.99054 11.0842 5.9124 9.14975 2.60309 8.66309Z" fill="#ED1C24"/>
<path d="M24.2348 12.9936C24.2348 11.4728 23.9306 10.0249 23.3831 8.71094C20.0373 9.17327 16.9348 11.1199 15.122 14.2589C13.3092 17.3979 13.1753 21.0357 14.4285 24.1503C19.9521 23.4325 24.2348 18.7119 24.2348 12.9936Z" fill="#1B75BC"/>
<path d="M13.043 10.488C16.6443 10.488 19.8563 8.79685 21.9368 6.16887C19.8806 3.48006 16.6443 1.74023 12.9944 1.74023C9.38088 1.74023 6.1689 3.44355 4.10059 6.09587C6.1689 8.77252 9.40522 10.488 13.043 10.488Z" fill="#39B54A"/>
<path d="M20.7314 8.62653C20.8531 8.84553 20.9626 9.06453 21.0721 9.28353C21.8264 9.01586 22.5929 8.82119 23.3838 8.7117C23.2134 8.28587 23.0066 7.8722 22.7754 7.4707L20.7314 8.62653Z" fill="#DDB10A"/>
<path d="M21.9237 6.16895C21.4248 6.78944 20.8652 7.36127 20.2568 7.87227C20.4272 8.1156 20.5853 8.35893 20.7313 8.61443L22.7753 7.4586C22.5198 7.02061 22.24 6.58261 21.9237 6.16895Z" fill="#EBD723"/>
<path d="M21.9241 6.16887C19.8679 3.48005 16.6316 1.74023 12.9817 1.74023C9.36819 1.74023 6.15621 3.44355 4.08789 6.09587C4.57455 6.72853 5.13422 7.30036 5.74255 7.81136C7.3607 5.56054 10.0008 4.08838 12.9817 4.08838C15.9868 4.08838 18.6513 5.58487 20.2573 7.87219C20.8778 7.37336 21.4374 6.80153 21.9241 6.16887Z" fill="#32A242"/>
<path d="M4.08741 12.9939C4.08741 11.6556 4.3794 10.3903 4.91473 9.2588C4.17257 8.97897 3.39391 8.7843 2.60309 8.6748C2.04342 10.001 1.73926 11.461 1.73926 12.9939C1.73926 18.6879 5.97323 23.3964 11.4725 24.1385C11.7767 23.3964 11.9957 22.6299 12.1295 21.8512C7.61572 21.4132 4.08741 17.6172 4.08741 12.9939Z" fill="#D31820"/>
<path d="M12.982 24.2362C13.4808 24.2362 13.9553 24.1997 14.442 24.1389C14.15 23.4089 13.931 22.6424 13.7972 21.8516C13.5295 21.8759 13.2618 21.8881 12.982 21.8881C12.7143 21.8881 12.4467 21.8759 12.179 21.8516C12.0452 22.6424 11.8262 23.4089 11.5342 24.1389C12.0087 24.2119 12.4953 24.2362 12.982 24.2362Z" fill="#DDB10A"/>
<path d="M24.2353 12.9936C24.2353 11.4728 23.9311 10.0371 23.3836 8.71094C22.5928 8.82044 21.8141 9.0151 21.0719 9.28277C21.5951 10.4143 21.8871 11.6674 21.8871 12.9936C21.8871 17.6412 18.3223 21.4493 13.7842 21.8508C13.918 22.6295 14.137 23.4082 14.429 24.1382C19.9526 23.4325 24.2353 18.7119 24.2353 12.9936Z" fill="#1969A9"/>
<path d="M2.54491 8.66211C2.52736 8.69722 2.54491 8.66211 2.54491 8.66211V8.66211Z" fill="#EBD723"/>
<path d="M4.91516 9.25856C5.14633 8.74757 5.42616 8.27307 5.75466 7.82291C5.14633 7.31191 4.58667 6.72792 4.1 6.10742C3.49168 6.88608 2.99285 7.74991 2.60352 8.67457C3.38218 8.78407 4.16083 8.97873 4.91516 9.25856Z" fill="#EBD723"/>
<path d="M34.99 14.6723C34.9049 15.9133 34.8075 17.1421 34.7224 18.3831C34.5885 18.3588 34.4547 18.3466 34.3209 18.3466C34.187 18.3466 34.0654 18.3466 33.9437 18.3466C33.8099 18.3466 33.676 18.3466 33.5544 18.3466C33.4327 18.3466 33.2989 18.3588 33.165 18.3831C33.5179 16.4851 33.8342 14.5993 34.114 12.7256C34.3939 10.852 34.6494 8.94185 34.8805 7.01953C35.0022 7.04386 35.1117 7.05603 35.2212 7.08036C35.3307 7.09253 35.4402 7.10469 35.5619 7.10469C35.6592 7.10469 35.7687 7.09253 35.8782 7.08036C35.9877 7.0682 36.1094 7.04386 36.231 7.01953C36.523 7.67653 36.8393 8.35785 37.1678 9.03918C37.4963 9.72051 37.8248 10.4018 38.1412 11.0832C38.4697 11.7645 38.7982 12.4215 39.1145 13.0785C39.443 13.7355 39.7472 14.3438 40.0513 14.9278C40.7083 13.6868 41.3775 12.3972 42.0345 11.0467C42.6915 9.69618 43.312 8.34569 43.9081 7.01953C44.188 7.08036 44.4191 7.10469 44.6259 7.10469C44.8084 7.10469 45.0396 7.08036 45.3194 7.01953C45.4289 7.96852 45.5506 8.99051 45.6723 10.0855C45.7939 11.1805 45.9278 12.2512 46.0494 13.2853C46.1711 14.3316 46.2928 15.305 46.4144 16.2053C46.5361 17.1056 46.6456 17.8356 46.7429 18.3953C46.5239 18.3709 46.2928 18.3588 46.0738 18.3588C45.8426 18.3588 45.6236 18.3588 45.4046 18.3588C45.1856 18.3588 44.9544 18.3588 44.7233 18.3588C44.4921 18.3588 44.2609 18.3709 44.0298 18.3953C43.969 17.2638 43.8838 16.0228 43.7621 14.7088C43.6405 13.3826 43.5066 12.0687 43.3728 10.7668H43.3363C42.7036 12.0687 42.0831 13.3461 41.487 14.6115C40.8786 15.8646 40.2825 17.1299 39.6863 18.4074C39.6255 18.3953 39.5768 18.3831 39.5282 18.3831C39.4795 18.3831 39.4308 18.3709 39.37 18.3709C39.3092 18.3709 39.2605 18.3709 39.2118 18.3831C39.1632 18.3831 39.1145 18.3953 39.0537 18.4074C38.4575 17.1664 37.8613 15.9376 37.2773 14.6966C36.6812 13.4556 36.0728 12.2025 35.4524 10.9372H35.4159C35.209 12.1782 35.0752 13.4313 34.99 14.6723Z" fill="#58585A"/>
<path d="M48.9938 9.14913C48.9695 8.4313 48.9452 7.72564 48.9087 7.00781C49.4075 7.01998 49.8941 7.03214 50.3808 7.05648C50.8675 7.08081 51.3541 7.09298 51.853 7.09298C52.6681 7.09298 53.3981 7.08081 54.0308 7.06865C54.6634 7.05648 55.0893 7.03215 55.3083 7.00781C55.2596 7.19031 55.2474 7.42148 55.2474 7.70131C55.2474 7.88381 55.2474 8.01764 55.2596 8.11497C55.2718 8.2123 55.2839 8.3218 55.3083 8.44347C54.9919 8.41913 54.6391 8.3948 54.2619 8.38263C53.8848 8.3583 53.5076 8.33397 53.1548 8.3218C52.802 8.29747 52.4735 8.2853 52.1815 8.27313C51.8895 8.26097 51.6948 8.26097 51.5731 8.26097C51.5245 8.8693 51.5001 9.46546 51.5001 10.0616C51.5001 10.6578 51.488 11.2539 51.488 11.8623C52.2058 11.8501 52.8506 11.8379 53.4346 11.8136C54.0186 11.7893 54.6148 11.7649 55.2474 11.7284C55.2109 11.9109 55.1866 12.0569 55.1866 12.1543C55.1744 12.2516 55.1744 12.3611 55.1744 12.4706C55.1744 12.5558 55.1866 12.6531 55.1988 12.7383C55.2109 12.8356 55.2353 12.9694 55.2596 13.1398C54.0064 13.0424 52.7533 12.9938 51.5001 12.9938C51.5001 13.3466 51.5001 13.6994 51.488 14.0523C51.488 14.4051 51.4758 14.7579 51.4758 15.1107C51.4758 15.8286 51.488 16.5221 51.5245 17.1791C52.1571 17.1791 52.7776 17.1669 53.4103 17.1304C54.0429 17.0939 54.6756 17.0452 55.3083 16.9601C55.2839 17.0817 55.2718 17.1912 55.2596 17.2886C55.2474 17.3859 55.2474 17.5319 55.2474 17.7022C55.2474 17.8847 55.2474 18.0186 55.2596 18.1159C55.2718 18.2132 55.2839 18.2984 55.3083 18.3592C55.0163 18.347 54.6391 18.3349 54.2133 18.3349C53.7753 18.3349 53.1791 18.3227 52.4126 18.3227C51.7435 18.3227 51.196 18.3227 50.7701 18.3227C50.3565 18.3227 50.028 18.3227 49.7846 18.3227C49.5413 18.3227 49.3466 18.3227 49.225 18.3349C49.1033 18.3349 48.9938 18.347 48.8965 18.3592C48.933 17.6779 48.9695 16.9722 48.9817 16.2666C49.006 15.5487 49.006 14.7457 49.006 13.8211V11.5703C49.0303 10.6821 49.0181 9.86696 48.9938 9.14913Z" fill="#58585A"/>
<path d="M60.1994 16.3274C60.2116 17.1912 60.2481 17.8726 60.3211 18.3836C60.1386 18.3592 59.9318 18.3471 59.7128 18.3471C59.4938 18.3471 59.2383 18.3471 58.9706 18.3471C58.6908 18.3471 58.4474 18.3471 58.2284 18.3471C58.0094 18.3471 57.8026 18.3592 57.6201 18.3836C57.6688 17.7022 57.6931 16.9966 57.7174 16.2909C57.7418 15.5731 57.7539 14.7701 57.7539 13.8454V11.5946C57.7539 10.6821 57.7418 9.86696 57.7174 9.14913C57.6931 8.4313 57.6566 7.72564 57.6201 7.00781C57.8026 7.03215 58.0094 7.04431 58.2284 7.06865C58.4474 7.08081 58.7029 7.09298 58.9706 7.09298C59.2504 7.09298 59.4938 7.08081 59.7128 7.06865C59.9318 7.05648 60.1386 7.03215 60.3211 7.00781C60.2603 7.33631 60.2359 7.83514 60.2116 8.49214C60.1994 9.14913 60.1873 9.89129 60.1873 10.6943V12.2881C60.5644 11.8501 60.9659 11.3634 61.3918 10.8403C61.8176 10.3171 62.2313 9.80612 62.6327 9.30729C63.0342 8.80847 63.3871 8.3583 63.7034 7.94464C64.0197 7.53098 64.2509 7.21464 64.3969 7.00781C64.5551 7.03215 64.7011 7.04431 64.8592 7.06865C65.0174 7.08081 65.1634 7.09298 65.3216 7.09298C65.4797 7.09298 65.6379 7.08081 65.7961 7.06865C65.9542 7.05648 66.1246 7.03215 66.3192 7.00781C66.1367 7.19031 65.8447 7.49448 65.4554 7.92031C65.0661 8.33397 64.6524 8.7963 64.2266 9.28296C63.7886 9.76963 63.3749 10.2441 62.9734 10.6943C62.5719 11.1566 62.2678 11.5094 62.0488 11.7771C62.4016 12.3124 62.7909 12.9086 63.2289 13.5656C63.6547 14.2226 64.0927 14.8553 64.5064 15.4758C64.9322 16.0962 65.3216 16.6681 65.6866 17.2034C66.0516 17.7266 66.3436 18.1281 66.5626 18.3836C66.2462 18.3592 65.9542 18.3471 65.6987 18.3471C65.4432 18.3471 65.1999 18.3471 64.9566 18.3471C64.7132 18.3471 64.4699 18.3471 64.2387 18.3471C63.9954 18.3471 63.7642 18.3592 63.5209 18.3836C62.9612 17.5441 62.4016 16.6924 61.8663 15.8286C61.3309 14.9648 60.7713 14.1009 60.2116 13.2371H60.1751C60.1873 14.4294 60.1873 15.4636 60.1994 16.3274Z" fill="#58585A"/>
<path d="M77.7421 18.3833C77.4745 18.359 77.2312 18.3468 76.9878 18.3468C76.7445 18.3468 76.5133 18.3468 76.2822 18.3468C76.051 18.3468 75.8198 18.3468 75.5765 18.3468C75.3332 18.3468 75.102 18.359 74.8708 18.3833C74.6883 17.848 74.518 17.2883 74.3233 16.7287C74.1408 16.169 73.934 15.5972 73.7272 15.0375C73.3743 15.0253 73.0215 15.0132 72.6687 15.0132C72.3159 15.0132 71.963 15.001 71.6102 15.001C71.3182 15.001 71.0384 15.001 70.7464 15.0132C70.4544 15.0132 70.1745 15.0253 69.8825 15.0375C69.6635 15.5972 69.4567 16.169 69.2742 16.7287C69.0917 17.2883 68.9214 17.848 68.7632 18.3833C68.6294 18.359 68.4956 18.3468 68.3739 18.3468C68.2522 18.3468 68.1184 18.3468 67.9846 18.3468C67.8507 18.3468 67.7169 18.3468 67.5831 18.3468C67.4492 18.3468 67.3032 18.359 67.1572 18.3833C67.2911 18.0913 67.4614 17.702 67.6926 17.191C67.9115 16.68 68.1549 16.1082 68.4225 15.4633C68.6902 14.8185 68.97 14.1372 69.2742 13.4072C69.5784 12.6772 69.8825 11.935 70.1867 11.1807C70.4909 10.4264 70.7829 9.69638 71.0749 8.96639C71.3669 8.2364 71.6345 7.55507 71.8779 6.93457C71.9874 6.9589 72.0969 6.97107 72.1942 6.9954C72.2915 7.00757 72.401 7.01974 72.5105 7.01974C72.62 7.01974 72.7295 7.00757 72.8268 6.9954C72.9242 6.98324 73.0337 6.9589 73.1432 6.93457C73.496 7.8714 73.8732 8.88122 74.2747 9.95188C74.6762 11.0225 75.0777 12.0689 75.4913 13.103C75.905 14.1372 76.2943 15.1105 76.6837 16.0473C77.073 16.9598 77.4258 17.7385 77.7421 18.3833ZM71.89 10.1222C71.598 10.7792 71.3304 11.4362 71.0749 12.081C70.8194 12.7259 70.576 13.3829 70.3327 14.0642H73.3622C73.1188 13.395 72.8755 12.7259 72.6443 12.081C72.401 11.4362 72.1455 10.7792 71.89 10.1222Z" fill="#58585A"/>
<path d="M82.3171 13.1641V13.8454C82.3171 14.7579 82.3293 15.5731 82.3536 16.2909C82.378 16.9966 82.4145 17.7022 82.451 18.3836C82.2685 18.3592 82.0616 18.3471 81.8426 18.3471C81.6236 18.3471 81.3682 18.3471 81.1005 18.3471C80.8328 18.3471 80.5773 18.3471 80.3583 18.3471C80.1393 18.3471 79.9325 18.3592 79.75 18.3836C79.7987 17.7022 79.823 16.9966 79.8473 16.2909C79.8717 15.5731 79.8838 14.7701 79.8838 13.8454V11.5946C79.8838 10.6821 79.8717 9.86696 79.8473 9.14913C79.823 8.4313 79.7865 7.72564 79.75 7.00781C79.9325 7.03215 80.1393 7.04431 80.3583 7.06865C80.5773 7.08081 80.8328 7.09298 81.1005 7.09298C81.4047 7.09298 81.7332 7.08081 82.1225 7.05648C82.4996 7.03214 82.9741 7.01998 83.5338 7.01998C83.9475 7.01998 84.3125 7.03214 84.6045 7.05648C84.8965 7.08081 85.1641 7.11731 85.3709 7.15381C85.5899 7.20248 85.7725 7.25114 85.9306 7.32414C86.0888 7.39714 86.2469 7.48231 86.3808 7.57964C86.7093 7.82297 86.9769 8.12714 87.1716 8.47997C87.3663 8.8328 87.4636 9.2708 87.4636 9.75746C87.4636 10.5605 87.2446 11.2174 86.8066 11.7284C86.3686 12.2394 85.7359 12.5923 84.9086 12.7991C85.444 13.7359 86.0036 14.6728 86.6119 15.6096C87.2203 16.5464 87.8286 17.4711 88.4369 18.3836C88.1814 18.3592 87.9381 18.3471 87.6948 18.3471C87.4514 18.3471 87.2081 18.3471 86.9526 18.3471C86.6971 18.3471 86.4416 18.3471 86.1983 18.3471C85.955 18.3471 85.6995 18.3592 85.444 18.3836L82.4753 13.1641H82.3171ZM84.787 8.96663C84.6896 8.67463 84.5315 8.4678 84.3368 8.30964C84.13 8.16364 83.8623 8.0663 83.546 8.01764C83.2175 7.96897 82.8281 7.9568 82.378 7.9568C82.3415 9.45329 82.3293 10.9619 82.3293 12.4584C82.3901 12.4706 82.4631 12.4828 82.524 12.4828C82.5848 12.4828 82.6456 12.4949 82.6943 12.4949C83.4243 12.4949 83.984 12.3003 84.3611 11.9109C84.7505 11.5216 84.9451 10.9255 84.9451 10.1346C84.933 9.63579 84.8843 9.24646 84.787 8.96663Z" fill="#58585A"/>
</svg>
