<svg xmlns="http://www.w3.org/2000/svg" width="24" height="24" viewBox="0 0 24 24">
    <path fill="#515557" fill-rule="evenodd" d="M8.4 17.4c-.99 0-1.8.81-1.8 1.8S7.41 21 8.4 21s1.8-.81 1.8-1.8-.81-1.8-1.8-1.8zM3 3v1.8h1.8l3.24 6.84-1.26 2.16c-.09.27-.18.63-.18.9 0 .99.81 1.8 1.8 1.8h10.8v-1.8H8.76c-.09 0-.18-.09-.18-.18v-.09l.81-1.53h6.66c.72 0 1.26-.36 1.53-.9l3.24-5.85c.18-.18.18-.27.18-.45 0-.54-.36-.9-.9-.9H6.78L5.97 3H3zm14.4 14.4c-.99 0-1.8.81-1.8 1.8s.81 1.8 1.8 1.8 1.8-.81 1.8-1.8-.81-1.8-1.8-1.8z"/>
</svg>
