<svg xmlns="http://www.w3.org/2000/svg" width="24" height="24" viewBox="0 0 24 24">
    <path fill="#515557" fill-rule="evenodd" d="M18.948 8.558l1.938-1.852a.358.358 0 0 0 0-.524l-1.938-1.851a.397.397 0 0 0-.275-.109h-5.04v-.74c0-.818-.696-1.482-1.551-1.482-.856 0-1.551.664-1.551 1.481v4.444H4.327a.396.396 0 0 0-.275.109L2.114 9.886a.358.358 0 0 0 0 .523l1.938 1.852c.073.07.172.108.275.108h6.204V22h3.102v-5.927h3.877a.396.396 0 0 0 .274-.109l1.939-1.851a.358.358 0 0 0 0-.524l-1.939-1.852a.397.397 0 0 0-.274-.108h-3.877V8.666c3.495-.026 5.266-.062 5.315-.108z"/>
</svg>
