<svg width="100" height="100" id="Layer_1" data-name="Layer 1" xmlns="http://www.w3.org/2000/svg" viewBox="0 0 114.23 110.87">
<path class="cls-1" d="M279.4,453c-8.95,0-17.9-.08-26.85.06-2.1,0-2.58-.48-2.57-2.58.08-27.82.05-55.65.05-83.48,0-7.41.09-14.82-.06-22.23,0-2.11.48-2.58,2.58-2.57,26.43.08,52.86,0,79.29,0,9.93,0,19.85.07,29.78-.06,2.1,0,2.58.48,2.57,2.58-.08,27.54-.05,55.09-.05,82.64,0,7.69-.09,15.38.06,23.07,0,2.11-.48,2.58-2.58,2.58-26.57-.09-53.14-.06-79.71-.06-.77-2.13,1-2.67,2.26-3.37A116.65,116.65,0,0,0,301,438.78c5-4.06,7.77-3.72,13.1.1,8.26,5.92,17.95,8.3,27.56,10.68,3.56.89,5.27-1.45,4.06-5.5a117.6,117.6,0,0,1-4.28-19.18c-.29-2.35-.6-4.71-1-7.05a13.43,13.43,0,0,1,4-12.22c4.43-4.45,9-8.8,13.28-13.38,4-4.21,3.32-7.08-2.16-8.94-8.18-2.78-16.19-6.27-25.06-6.39-2.9,0-4.34-2.14-5.65-4.39-3.3-5.68-5.61-11.87-9.16-17.41-1-1.53-1.89-3.1-3-4.57-3.7-5-7-4.75-9.4.94s-5,11.6-6.39,17.72c-1.51,6.68-5.12,9.77-12,10.67a84.23,84.23,0,0,0-25.52,7.9c-5.83,2.8-6.28,5.58-1.31,9.48,6.14,4.82,12.11,10,19.61,12.7,2.66,1,3.45,2.94,3.56,5.54.23,5.37-1.78,10.45-1.9,15.76-.15,6.88-2.61,13.79.3,20.63C279.92,452.2,279.61,452.67,279.4,453Z" transform="translate(-249.97 -342.22)"/>
<path d="M279.4,453c-3.24-2.28-3.74-5.53-3.32-9.15.57-4.82,1-9.65,1.63-14.46.4-3.15,1.05-6.26,1.46-9.41a20.07,20.07,0,0,0,.18-5.41,3.85,3.85,0,0,0-2-2.65c-8.59-3.08-15.19-9.12-22.13-14.63-1.34-1.06-2.88-2.35-3.4-3.86-.88-2.58.29-4.56,3.82-6q10.91-4.44,22.1-8.2c3.1-1,6.49-1.23,9.76-1.79,3.42-.59,5.66-2.25,6.75-5.82,2.22-7.23,4.72-14.38,7.31-21.5,1-2.69,2.09-5.8,5.53-6.12s5.52,2.19,7.11,4.93c3,5.15,5.89,10.33,8.82,15.51a23.23,23.23,0,0,1,2.23,4.16c1.41,4.51,3.78,7,9.07,6.51,3-.26,6.26.93,9.29,1.82,4.9,1.45,9.72,3.18,14.56,4.82,5.69,1.93,6.72,6.07,2.49,10.45-4.76,4.92-9.56,9.81-14.51,14.55-3.08,2.95-4.45,6.41-3.75,10.52,1.45,8.58,2.11,17.32,5.2,25.58,1,2.8,2.64,6.47-.29,8.42-1.83,1.21-5.39.63-7.88-.13-7.26-2.22-14.43-4.77-21.5-7.53a22.89,22.89,0,0,1-6.52-4.41,5,5,0,0,0-6.45-.69,13.76,13.76,0,0,0-2.42,1.61c-6.11,5.52-13.49,9-20.63,12.87Z" transform="translate(-249.97 -342.22)"/>
<path class="cls-1" d="M287.1,431.9c1.21-3.62,2.21-7.33,3.68-10.84,7.11-17,14.34-33.85,21.54-50.77a6.33,6.33,0,0,1,.74-1.47,7,7,0,0,1,1.19-1,4.19,4.19,0,0,1,.43,1.09c.2,2,.87,4.17.44,6.06-4.3,18.7-12.25,35.93-21.5,52.62-1.41,2.54-2.72,5.15-4.14,7.69a6.44,6.44,0,0,1-1.35,1.3,17.53,17.53,0,0,1-.31-1.88c-.05-.84,0-1.68,0-2.51Z" transform="translate(-249.97 -342.22)"/>
<path class="cls-1" d="M348.38,389.82c-1.14,1.34-2,2.38-2.92,3.44-2.85,3.38-5.73,6.73-8.49,10.19a5.5,5.5,0,0,0-1.28,3c-.14,7.54-3.11,14.45-4.74,21.66-1.33,5.92-1.46,5.89-7.09,3.89-2.54-.9-2.66-1.26-1.28-4.25,1.94-4.21,4.05-8.37,5.84-12.65,3.63-8.67,7-17.46,10.69-26.1,1.47-3.45,1-3.63,4.69-1.69,1,.52,2.08.75,3.08,1.24A8.35,8.35,0,0,1,348.38,389.82Z" transform="translate(-249.97 -342.22)"/>
<path class="cls-1" d="M335,384.21c-.81,2.19-1.33,3.77-2,5.29-2.64,6.22-5.34,12.42-8,18.65-2.7,6.4-5.34,12.82-8,19.23-.16.38-.48.7-.61,1.09-.63,1.86-2.07,1.13-3.11.77-.35-.12-.56-1.61-.31-2.28q4.89-13,9.95-26c2.18-5.58,4.62-11.07,6.63-16.71.58-1.64,1.31-2.06,2.65-1.63A14.77,14.77,0,0,1,335,384.21Z" transform="translate(-249.97 -342.22)"/>
<path class="cls-1" d="M301.08,429.5c-.12-.31-.58-.88-.45-1.26a20.27,20.27,0,0,1,1.32-2.58c6-12.14,12.22-24.21,16.07-37.28.39-1.32.44-2.86,1.16-3.94.57-.84-.33-3.33,2.29-2.4,2.14.75,1.27,1.94.8,3.26-2,5.56-3.89,11.18-5.93,16.73-2.9,7.89-5.89,15.76-8.87,23.62A6.58,6.58,0,0,1,301.08,429.5Z" transform="translate(-249.97 -342.22)"/>
<path class="cls-1" d="M285.85,405.94c1-2.55,2.17-5.79,3.57-8.92,1.71-3.78,3.59-7.48,5.46-11.2.42-.84.89-2,1.63-2.29,4.21-1.72,4.33-5.7,5.53-9.19,1.69-4.93,3.63-9.78,5.5-14.65a4.71,4.71,0,0,1,1-1.15c.34.56,1.05,1.18,1,1.67a17.55,17.55,0,0,1-1.19,3.92q-9.5,22.88-19,45.72a15.8,15.8,0,0,1-.88,1.86,9.85,9.85,0,0,1-1,1.23c-.13-.45-.3-.89-.39-1.35C286.64,410,286.33,408.35,285.85,405.94Z" transform="translate(-249.97 -342.22)"/>
<path class="cls-1" d="M288.12,386.62c-.52.92-1.07,1.73-1.47,2.6-1.61,3.48-3.16,7-4.76,10.48a8.48,8.48,0,0,1-.84,1.18c-.51-.42-1.52-1-1.45-1.22a84.24,84.24,0,0,1,3.57-10.5c.58-1.27,2.46-2,3.78-2.87.28-.19.75-.11,1.13-.16Z" transform="translate(-249.97 -342.22)"/>
</svg>