<svg xmlns="http://www.w3.org/2000/svg" xmlns:xlink="http://www.w3.org/1999/xlink" viewBox="0 0 61.92 31.73"><defs><style>.cls-1{fill:none;}.cls-2{clip-path:url(#clip-path);}.cls-3{fill:#fff;}</style><clipPath id="clip-path" transform="translate(0 0)"><rect class="cls-1" width="61.92" height="31.73"/></clipPath></defs><title>Asset 1</title><g id="Layer_2" data-name="Layer 2"><g id="Layer_1-2" data-name="Layer 1"><g class="cls-2"><path class="cls-3" d="M61.92.67a.67.67,0,0,0-1.34,0c0,2.06-3.06,4.15-8.39,5.74A77.45,77.45,0,0,1,31,9,77.45,77.45,0,0,1,9.73,6.41C4.4,4.82,1.34,2.73,1.34.67A.67.67,0,0,0,0,.67c0,2.77,3.23,5.2,9.35,7l1.26.35-.78,3.88-1.75-.34a.65.65,0,0,0-.78.52l-.66,3.32a.65.65,0,0,0,.07.45A9.59,9.59,0,0,0,4.07,21a9.5,9.5,0,0,0,.41,5.22A4.13,4.13,0,0,0,7.1,29.06a2.21,2.21,0,0,0,.37,0c2,0,4.8-2.75,5.5-6.3A9.64,9.64,0,0,0,12.51,17a.73.73,0,0,0,.23-.4l.66-3.31a.62.62,0,0,0-.1-.5.69.69,0,0,0-.42-.29l-1.74-.35.77-3.81a84,84,0,0,0,18.38,2v4H28.52a.67.67,0,0,0-.67.67v3.38a.65.65,0,0,0,.16.43,9.55,9.55,0,0,0-1.59,5.56c0,4,2.48,7.29,4.54,7.29s4.54-3.43,4.54-7.29a9.55,9.55,0,0,0-1.59-5.56.65.65,0,0,0,.16-.43V15.07a.67.67,0,0,0-.67-.67H31.63v-4A84,84,0,0,0,50,8.38l.77,3.81L49,12.54a.67.67,0,0,0-.52.79l.66,3.31a.62.62,0,0,0,.24.39A9.59,9.59,0,0,0,49,22.8c.7,3.55,3.53,6.3,5.5,6.3a2.21,2.21,0,0,0,.37,0,4.13,4.13,0,0,0,2.62-2.81A9.5,9.5,0,0,0,57.85,21a9.59,9.59,0,0,0-2.64-5.15.65.65,0,0,0,.07-.45l-.66-3.32a.65.65,0,0,0-.78-.52l-1.75.34-.78-3.88,1.26-.35c6.12-1.83,9.35-4.26,9.35-7M11.66,22.54c-.67,3.37-3.36,5.4-4.3,5.21-.46-.09-1.15-.74-1.63-2a8.23,8.23,0,0,1-.35-4.47,7.55,7.55,0,0,1,2.81-4.87l2.74.54a7.54,7.54,0,0,1,.73,5.58m.3-8.82-.4,2L8.08,15l.4-2Zm20.93,15c-.69,1.07-1.5,1.63-1.93,1.63-1.12,0-3.2-2.45-3.2-5.95a7.5,7.5,0,0,1,1.81-5.32h2.78a7.5,7.5,0,0,1,1.81,5.32,7.93,7.93,0,0,1-1.27,4.32m-.16-11H29.19v-2h3.54Zm23.81,3.51a8.23,8.23,0,0,1-.35,4.47c-.48,1.25-1.16,1.9-1.63,2h-.13c-1,0-3.53-2-4.17-5.22A7.54,7.54,0,0,1,51,17l2.74-.54a7.55,7.55,0,0,1,2.81,4.87M53.44,13l.4,2-3.48.7-.4-2Z" transform="translate(0 0)"/></g></g></g></svg>