<svg xmlns="http://www.w3.org/2000/svg" xmlns:xlink="http://www.w3.org/1999/xlink" viewBox="0 0 55.01 43.95"><defs><style>.cls-1{fill:none;}.cls-2{clip-path:url(#clip-path);}.cls-3{fill:#fff;}</style><clipPath id="clip-path" transform="translate(0 0)"><rect class="cls-1" x="1.15" width="52.71" height="43.95"/></clipPath></defs><title>Asset 2</title><g id="Layer_2" data-name="Layer 2"><g id="Layer_1-2" data-name="Layer 1"><g class="cls-2"><path class="cls-3" d="M54.74,5.16H51.37a.24.24,0,0,0-.18.09L42.94,14H40.58V5.52a.29.29,0,0,0-.2-.28L22.5,0a.23.23,0,0,0-.26.08L.08,25a.3.3,0,0,0-.08.2v4.75a.29.29,0,0,0,.21.28l14,3.61v9.85a.28.28,0,0,0,.26.29h17.7a.25.25,0,0,0,.19-.09L54.93,18a.32.32,0,0,0,.08-.21V5.46a.29.29,0,0,0-.27-.3M15.06,32.84l-14-3.61V26.05L17.43,31v9.49a.28.28,0,0,0,.26.3H29.1a.28.28,0,0,0,.27-.3V31.23l2.16-.18V42.79H15.27V33.12a.29.29,0,0,0-.21-.28M53.2,6.33,31.82,29.86,30.1,30,44.94,13.46l6.75-7.13ZM39.52,6.19v8.64a.28.28,0,0,0,.26.29H42L28.45,30.18a.65.65,0,0,0-.14.61v8.82H18.49V30.32a.28.28,0,0,0-.2-.28L1.54,25,22.67,1.27ZM54,17.48,32.58,41.92V30.66L54,7.15Z" transform="translate(0 0)"/><rect class="cls-3" x="36.92" y="27.48" width="0.48" height="6.97"/><rect class="cls-3" x="38.75" y="25.29" width="0.48" height="6.97"/><polygon class="cls-3" points="35.92 31.69 35.71 31.47 40.22 26.3 40.43 26.52 35.92 31.69"/><polygon class="cls-3" points="35.92 34.27 35.71 34.05 40.22 28.89 40.43 29.11 35.92 34.27"/><rect class="cls-3" x="46.53" y="16.99" width="0.48" height="6.97"/><rect class="cls-3" x="48.35" y="14.8" width="0.48" height="6.97"/><polygon class="cls-3" points="45.52 21.2 45.31 20.98 49.82 15.82 50.03 16.04 45.52 21.2"/><polygon class="cls-3" points="45.52 23.79 45.31 23.57 49.82 18.4 50.03 18.62 45.52 23.79"/><path class="cls-3" d="M26.37,34l-.45.36a.31.31,0,0,1-.46-.08l-.58-.89a.31.31,0,0,0-.37-.14c-.58.21-2.23.54-3.75-1.76-.19-.29.08-.68.38-.55l.41.16a.35.35,0,0,0,.38-.54,5.14,5.14,0,0,1-.68-3.75.35.35,0,0,1,.33-.28,3.74,3.74,0,0,1,3,1.8.33.33,0,0,0,.58-.3v0a.41.41,0,0,1,.72-.37,3.53,3.53,0,0,1,.11,4.52.41.41,0,0,0,0,.45l.57.91a.39.39,0,0,1-.09.5" transform="translate(0 0)"/><path class="cls-3" d="M12.07,16.82v.62a.35.35,0,0,0,.34.36h1a.33.33,0,0,1,.32.25c.19.64.93,2.31,3.58,2.34a.37.37,0,0,0,.19-.67l-.37-.27a.37.37,0,0,1,.19-.65,4.32,4.32,0,0,0,3.26-1.58.38.38,0,0,0,0-.45,3.89,3.89,0,0,0-3.14-1.59.37.37,0,0,1-.11-.7h0a.46.46,0,0,0-.16-.86,3.06,3.06,0,0,0-3.5,2.53.37.37,0,0,1-.32.29l-1,0a.35.35,0,0,0-.33.36" transform="translate(0 0)"/><path class="cls-3" d="M29.85,6.84,29.31,7a.39.39,0,0,0-.21.47l.32,1.07A.41.41,0,0,1,29.3,9c-.5.39-1.71,1.68-.92,4.47a.32.32,0,0,0,.63,0l.12-.47a.32.32,0,0,1,.62,0,4.89,4.89,0,0,0,2.37,2.93.32.32,0,0,0,.4-.12A4.79,4.79,0,0,0,32.93,12c-.09-.38.34-.63.57-.33,0,0,0,0,0,0,.29.37.82,0,.7-.43C33.85,9.84,33,8.23,31,8.4a.35.35,0,0,1-.35-.25l-.34-1.07a.33.33,0,0,0-.41-.24" transform="translate(0 0)"/></g></g></g></svg>