<svg xmlns="http://www.w3.org/2000/svg" xmlns:xlink="http://www.w3.org/1999/xlink" viewBox="0 0 55.35 51.4"><defs><style>.cls-1{fill:none;}.cls-2{clip-path:url(#clip-path);}.cls-3{fill:#fff;}</style><clipPath id="clip-path"><rect class="cls-1" width="55.35" height="51.4"/></clipPath></defs><title>Asset 3</title><g id="Layer_2" data-name="Layer 2"><g id="Layer_1-2" data-name="Layer 1"><g class="cls-2"><path class="cls-3" d="M3.39,51.25A1.34,1.34,0,0,1,3,50.16Q3.07,36.59,3.1,23V21.7A2.58,2.58,0,0,0,3,21.44a1.67,1.67,0,0,0-.23.12L1.44,22.64l-.16.13c-.42.31-.83.33-1.11,0s-.22-.69.17-1l3.19-2.56L21.89,4.51,27.13.32c.54-.43.76-.43,1.31,0l7.49,6.08c.19.15.4.27.59.4,0-.22.06-.45.06-.68,0-1.72,0-3.44,0-5.16,0-.72.21-.92,1-.92L45,.08c.78,0,1,.19,1,.92,0,4.29,0,8.58-.05,12.87A1.23,1.23,0,0,0,46.46,15c2.93,2.35,5.84,4.73,8.75,7.1a.61.61,0,0,0,.14.07V23c-.59.34-.77.33-1.29-.08-.34-.27-.67-.56-1-.82s-.45-.31-.67-.46c0,.26-.06.52-.06.78q0,14-.08,28.08a1,1,0,0,1-.44.95l-48.4-.15M27.58,50l14,0,8.77,0c.44,0,.44,0,.45-.41v-.35q0-9.54.07-19.08c0-3.17,0-6.35,0-9.52a.74.74,0,0,0-.31-.69c-.51-.38-1-.79-1.47-1.18l-14.77-12q-3.12-2.52-6.22-5.06c-.2-.16-.34-.33-.66-.07Q22.44,5.82,17.36,9.88q-6.22,5-12.44,10a.92.92,0,0,0-.38.81q0,14.4-.1,28.81v.25c0,.16.06.25.25.24h.49l22.4.08m17-42.65h0c0-1.84,0-3.67,0-5.51,0-.5,0-.5-.51-.5l-5.57,0c-.5,0-.5,0-.5.46,0,1.95,0,3.91,0,5.86a.8.8,0,0,0,.34.69c2,1.58,3.93,3.18,5.89,4.78.08.06.18.11.26.16a1.29,1.29,0,0,0,.08-.31c0-1.87,0-3.74,0-5.61"/><path class="cls-3" d="M39.6,23.15c-.09.65-.16,1.35-.27,2-.07.47-.08.49.33.6a8,8,0,0,1,5.77,7,8.16,8.16,0,0,1-5.71,8.9A7.82,7.82,0,0,1,30,35.07a6.13,6.13,0,0,1-.09-.85c0-.28-.09-.39-.39-.38a10.25,10.25,0,0,1-9.76-7c-2.19-6.16,1.43-13,7.52-14.35,5.52-1.19,11.05,2.59,12.11,8.7.11.63.13,1.29.2,2M20.54,23c0,.45,0,.92.08,1.36a9.3,9.3,0,0,0,3.22,6,8.22,8.22,0,0,0,5.75,2c.31,0,.45-.1.54-.47a8.1,8.1,0,0,1,3.93-5.39,6.82,6.82,0,0,1,3.31-.95c.33,0,.5-.11.57-.51a10.67,10.67,0,0,0,.12-3.29c-.69-5.22-5.46-8.83-10.32-7.85a9.23,9.23,0,0,0-7.2,9.1m17.19,4a6.56,6.56,0,0,0-6.41,6.68,6.59,6.59,0,0,0,6.28,6.81A6.75,6.75,0,0,0,37.73,27"/><path class="cls-3" d="M17.61,45.82a.77.77,0,0,1-.72-.46c-.26-.52-.54-1-.8-1.55a11.12,11.12,0,0,0-4.69-5c-.43-.24-.85-.5-1.27-.74s-.61-.39-.6-.81a.88.88,0,0,1,.58-.75l1.53-.87A11,11,0,0,0,16,31.09l.72-1.4c.2-.38.35-.84.86-.85s.69.48.9.88.44.87.67,1.31a10.89,10.89,0,0,0,4.39,4.67c.52.3,1.05.6,1.56.91.7.43.69,1.06,0,1.48l-1.42.82A10.93,10.93,0,0,0,19,43.79c-.26.52-.53,1-.8,1.55-.19.35-.41.48-.61.48m5.74-8.45-.05-.09c-.12-.08-.24-.17-.37-.24a12.34,12.34,0,0,1-5.06-5.39c-.08-.15-.2-.3-.3-.45-.08.15-.18.29-.26.44a12.39,12.39,0,0,1-4.95,5.28l-.42.25c-.13.07-.21.16,0,.26l.23.14A12.38,12.38,0,0,1,17.3,43c.07.14.18.26.26.4.08-.13.17-.25.24-.39a12,12,0,0,1,3.35-4.2c.62-.49,1.3-.88,2-1.32l.24-.16"/><path class="cls-3" d="M11.28,23.06c1,0,1,0,1-1,0-.26,0-.53,0-.8a.75.75,0,0,1,.76-.73.72.72,0,0,1,.64.77c0,.44,0,.88,0,1.32s0,.49.49.49h1.14a.74.74,0,0,1,.81.72.77.77,0,0,1-.84.76,11.81,11.81,0,0,1-1.19,0c-.35,0-.44.12-.42.46s0,.84,0,1.26-.27.83-.7.83-.68-.31-.7-.84,0-.88,0-1.32c0-.28-.07-.41-.36-.39s-.83,0-1.25,0a.72.72,0,0,1-.79-.73c0-.48.27-.74.82-.75h.59"/><path class="cls-3" d="M27.47,45.52c0-1,0-1-1-1-.24,0-.47,0-.71,0a.72.72,0,0,1-.72-.75.69.69,0,0,1,.74-.72h1.29c.28,0,.39-.08.38-.38s0-.84,0-1.26a1.39,1.39,0,0,1,.17-.64.58.58,0,0,1,.71-.26.63.63,0,0,1,.5.59c0,.48,0,1,0,1.43s0,.52.51.52h1.13a.75.75,0,0,1,.8.74.78.78,0,0,1-.81.74H29.34c-.43,0-.43,0-.44.48s0,.8,0,1.2c0,.55-.26.84-.68.85s-.71-.3-.74-.86c0-.23,0-.46,0-.69"/><path class="cls-3" d="M23.23,22.83a6.37,6.37,0,0,1,5.36-6.2,5.54,5.54,0,0,1,.71,0,.67.67,0,0,1,.74.71.72.72,0,0,1-.7.77,9.24,9.24,0,0,0-.92.1,4.83,4.83,0,0,0-3.74,4.38c0,.13,0,.26,0,.4-.07.53-.35.84-.74.81s-.69-.41-.67-.94"/><path class="cls-3" d="M33.7,33.57a4.12,4.12,0,0,1,3.78-4c.57,0,.91.23.93.7s-.29.75-.83.78A2.56,2.56,0,0,0,35.23,33a5.21,5.21,0,0,0-.13.79c-.08.49-.36.76-.75.73s-.66-.4-.65-.9"/></g></g></g></svg>