<svg xmlns="http://www.w3.org/2000/svg" viewBox="0 0 2775 333">    
  <g>
    <path d="M7,333H0V0H2775V296c-3.3-.4-6.6-.7-9.9-1.4-36.5-8.3-72.8-17.5-109.5-24.8-68-13.5-136.2-26.7-204.6-38.4-52.1-8.9-104.7-15.8-157.2-22.5q-69.7-9-140-15.6c-47.2-4.5-94.5-8.5-141.9-11.4-65.5-3.9-131.1-7.7-196.7-9.5-73.4-2.1-146.9-2.5-220.4-2.5-51.3-.1-102.7,1.1-154,2.7s-104.5,4-156.8,6.5c-35.7,1.7-71.5,3.9-107.2,6.3q-57.5,3.9-114.7,8.6-54.1,4.4-108.5,9.4c-35,3.3-69.9,6.9-104.9,10.6q-56.1,5.9-112.2,12.4c-42,4.9-84,10.2-125.9,15.6s-82.2,10.7-123.3,16.4Q417.7,268.3,347,279q-75.9,11.4-151.5,23.4c-52.1,8.3-104.2,17-156.2,25.7C28.5,329.8,17.8,332,7,333Z"/>
  </g>  
</svg>