<svg xmlns="http://www.w3.org/2000/svg" viewBox="0 0 2775 623">
  <g>
    <path d="M0,617V0H2775V520l-10.1-2c-27.9-6.2-55.9-12.7-83.9-18.6-22.3-4.8-44.7-9-67-13.4-17-3.3-34.1-6.6-51.2-9.7s-33.6-5.5-50.4-8.3c-11.4-1.9-22.9-3.9-34.4-5.7l-35.4-5.3c-8.3-1.2-16.6-2.1-24.9-3.2l-34.6-4.8-25.4-3.2c-13.2-1.6-26.4-3.3-39.6-4.8-10.6-1.2-21.3-1.9-31.9-3.1-14-1.5-28-3.4-42-4.8-12.1-1.3-24.2-2.1-36.4-3.1l-50.7-4c-11.2-.8-22.4-1.3-33.6-2-16.8-1-33.6-2.1-50.4-3-15-.8-30.1-1.4-45.1-2l-52.6-2-38.8-1c-18.3-.4-36.5-1-54.8-.9-55.6.1-111.2.5-166.8.9-11.3.1-22.5.7-33.8,1l-40.3,1c-7.8.2-15.5.7-23.3,1-19.2.7-38.4,1.2-57.6,2-12.4.5-24.7,1.3-37.1,2-18.3,1-36.6,1.9-54.9,3l-28.1,2-44.9,3-38.1,2-16.3,1-48.2,4c-8.4.7-16.8,1.3-25.1,2.1l-40.2,3.9c-8.4.8-16.8,1.3-25.1,2.1-12.8,1.2-25.5,2.7-38.2,3.9-8.9.8-17.8,1.2-26.6,2.1-12,1.2-23.8,2.6-35.7,3.9-7.2.8-14.4,1.3-21.6,2.1-11.3,1.2-22.5,2.6-33.7,3.9l-29.4,3.1L988,469l-26.9,3.2L925.4,477c-8.6,1.1-17.3,2.1-25.9,3.3L865.4,485l-32.2,4.3L800,494l-30.6,4.3c-12.9,1.8-25.7,3.8-38.5,5.7l-36.6,5.3c-12.5,1.8-24.9,3.8-37.4,5.7l-35.5,5.3L584.9,526l-34.5,5.3L508.6,538l-40.9,6.4L426.9,551l-40.4,6.3L339.3,565,293,572.3,245.2,580c-13.5,2.2-27,4.2-40.5,6.3L156.4,594c-14,2.2-28,4.5-42,6.6l-43,6.4c-12.2,1.8-24.4,3.9-36.6,5.6S12.3,615.5,0,617Z"/>      
  </g>  
</svg>