<svg xmlns="http://www.w3.org/2000/svg" xmlns:xlink="http://www.w3.org/1999/xlink" viewBox="0 0 309.51 501.76">
	<defs>
		<style>
			.cls-1{fill:none;}.cls-2{clip-path:url(#clip-path);}.cls-3{fill-rule:evenodd;}
		</style>
		<clipPath id="clip-path" transform="translate(-17.42 -25.88)">
			<rect class="cls-1" width="349.79" height="555.98"/>
		</clipPath>
	</defs>
	<title>Asset 4</title>
	<g fill="#ffffff" id="Layer_2" data-name="Layer 2">
		<g id="Layer_1-2" data-name="Layer 1">
			<g class="cls-2">
				<path class="cls-3" d="M145.18,153.79l-17.92,24.67c-9,12.37-6.2,34.29,6.06,43.14l33.22,24c5.7,4.12,6.15,8.2,3.45,12.55l4.82,3.58,16.81-23.29c10.4-14.39,9.49-34-5.92-45.21l-33.49-24.39c-4-2.93-4.43-7-2.21-11.58ZM173.92,44.71,146,83.28c-13.08,18.1-8.32,49,9.55,62.11L201.43,179c9.29,6.83,10.51,24.2,3.74,33.11l3.89,2.92,31.63-44.5c14.2-20,13.38-49.52-8.92-65.71L182.72,69.24c-6.87-5-10.3-13.46-4.58-21.55ZM100.41,286.63h37L144,309h60.41L211,286.63h37l-4.85-16.48H105.26ZM46.91,25.88H297.44a29.58,29.58,0,0,1,29.5,29.49V498.16a29.58,29.58,0,0,1-29.5,29.48H46.91a29.57,29.57,0,0,1-29.49-29.48V55.37A29.58,29.58,0,0,1,46.91,25.88m0,2H297.44a27.55,27.55,0,0,1,27.47,27.47V498.16a27.55,27.55,0,0,1-27.47,27.46H46.91a27.55,27.55,0,0,1-27.47-27.46V55.37A27.55,27.55,0,0,1,46.91,27.9M318.84,429.22v68.94a21.46,21.46,0,0,1-21.4,21.39H46.91a21.45,21.45,0,0,1-21.39-21.39V429.22Zm-244,38-11-27.43H58.26L47.2,467.25h6.19l2.27-6.11H66.23l2.27,6.11ZM64.25,455.93H57.64l1.86-5c.31-.81.59-1.59.85-2.35s.46-1.4.6-1.92c.13.52.33,1.16.59,1.92s.55,1.54.85,2.35Zm35-11.63a15.15,15.15,0,0,0-6.93-4.46,13.87,13.87,0,0,0-3.67-.45,12.78,12.78,0,0,0-5.2,1,11.89,11.89,0,0,0-4,2.9,13.4,13.4,0,0,0-2.64,4.47,16.7,16.7,0,0,0-1,5.74,17.52,17.52,0,0,0,.91,5.85,12.78,12.78,0,0,0,2.58,4.45,11.3,11.3,0,0,0,4,2.84,12.87,12.87,0,0,0,5.16,1c3.5,0,9.57-1.91,11.29-5.33l-4.11-3.64c-1.17,1.87-4.82,3.53-7,3.53a6.22,6.22,0,0,1-2.89-.67,6.39,6.39,0,0,1-2.17-1.84A8.65,8.65,0,0,1,82.23,457a12.53,12.53,0,0,1-.46-3.43,12.85,12.85,0,0,1,.46-3.51,8.62,8.62,0,0,1,1.32-2.74,6.26,6.26,0,0,1,2.15-1.81,6.33,6.33,0,0,1,2.89-.64,9.57,9.57,0,0,1,6.67,3.32Zm54.84,22.95-6.41-10.42a10.94,10.94,0,0,0,4.82-3.23,9.91,9.91,0,0,0,.6-8.9A7.76,7.76,0,0,0,151,442a8.94,8.94,0,0,0-3.18-1.62,13.4,13.4,0,0,0-3.84-.54H130.49v27.43h5.79v-9.87l5.15.23,6,9.64ZM148,448.64c0,2.38-1.38,3.56-4.13,3.56h-7.55v-7.05h7.55a5.11,5.11,0,0,1,3,.8,3.15,3.15,0,0,1,1.09,2.69m30.45,18.61v-5.37H163.5v-6.62h12v-5.33h-12v-4.74h14.29v-5.37H157.72v27.43Zm27.73-13.71a16.45,16.45,0,0,0-1.1-6.37,11.3,11.3,0,0,0-3-4.25,11.58,11.58,0,0,0-4.55-2.37,21.05,21.05,0,0,0-5.71-.73h-9.05v27.43h8.63a19.27,19.27,0,0,0,5.43-.78,13.84,13.84,0,0,0,4.75-2.45,12,12,0,0,0,3.34-4.27,14.16,14.16,0,0,0,1.27-6.21m-5.95,0a10.37,10.37,0,0,1-.54,3.43,6.84,6.84,0,0,1-1.61,2.64,7.28,7.28,0,0,1-2.74,1.71,11.72,11.72,0,0,1-4,.6H188.5V445.15h3.06c3.06,0,5.25.7,6.6,2.1s2,3.49,2,6.29m17.32-13.72h-5.78v27.43h5.78Zm26.94,5.41v-5.41H222.07v5.41h8.3v22h5.78v-22Zm52.14,8.31a16.46,16.46,0,0,0-1.09-6.37,11.21,11.21,0,0,0-3-4.25,11.47,11.47,0,0,0-4.54-2.37,21.1,21.1,0,0,0-5.71-.73h-9.05v27.43h8.63a19.27,19.27,0,0,0,5.43-.78A13.84,13.84,0,0,0,292,464a12.08,12.08,0,0,0,3.34-4.27,14.16,14.16,0,0,0,1.26-6.21m-5.94,0a10.37,10.37,0,0,1-.54,3.43,7,7,0,0,1-1.61,2.64,7.32,7.32,0,0,1-2.75,1.71,11.62,11.62,0,0,1-3.94.6H279V445.15H282q4.58,0,6.6,2.1t2,6.29m-21.8,13.71v-5.37H253.94v-6.62h12v-5.33h-12v-4.74h14.29v-5.37H248.16v27.43Zm-48.37,35.41V497.3H205.57v-6.62h12v-5.33h-12v-4.74h14.29v-5.37H199.8v27.42ZM126,444.3a15.23,15.23,0,0,0-6.92-4.46,14.05,14.05,0,0,0-3.68-.45,12.78,12.78,0,0,0-5.2,1,11.89,11.89,0,0,0-4,2.9,13.4,13.4,0,0,0-2.64,4.47,16.7,16.7,0,0,0-1,5.74,17.52,17.52,0,0,0,.91,5.85,12.62,12.62,0,0,0,2.58,4.45,11.3,11.3,0,0,0,4,2.84,12.85,12.85,0,0,0,5.17,1c3.5,0,9.56-1.91,11.28-5.33l-4.11-3.64c-1.17,1.87-4.82,3.53-7,3.53a6.25,6.25,0,0,1-2.89-.67,6.49,6.49,0,0,1-2.17-1.84,8.65,8.65,0,0,1-1.34-2.76,12.53,12.53,0,0,1-.45-3.43,12.86,12.86,0,0,1,.45-3.51,8.62,8.62,0,0,1,1.32-2.74,6.26,6.26,0,0,1,2.15-1.81,6.33,6.33,0,0,1,2.89-.64,9.57,9.57,0,0,1,6.67,3.32Zm-23.63,49.51a6.13,6.13,0,0,0-1.12-3.76,7,7,0,0,0-2.82-2.23,6,6,0,0,0,2.19-2.2,6.22,6.22,0,0,0,.79-3.13A6.4,6.4,0,0,0,99,477.1a10.4,10.4,0,0,0-6.51-1.86H79.52v27.42H92.31a13.61,13.61,0,0,0,4.11-.57,8.7,8.7,0,0,0,3.16-1.68,7.73,7.73,0,0,0,2-2.78,9.53,9.53,0,0,0,.72-3.82m-6.68-10.89a2.57,2.57,0,0,1-.7,1.86,3.42,3.42,0,0,1-2.48.73H85v-5.22h7.16a4.15,4.15,0,0,1,2.66.67,2.4,2.4,0,0,1,.8,2m.89,11a3.43,3.43,0,0,1-1,2.6,4.2,4.2,0,0,1-3,1H85v-7.09h7.48q4,0,4,3.53m32.36-3.33V475.24h-5.63v15.39a8,8,0,0,1-1.55,5.22,5.22,5.22,0,0,1-4.25,1.88,5.1,5.1,0,0,1-4.22-1.92,8.2,8.2,0,0,1-1.53-5.25V475.24h-5.63v15.39a15.79,15.79,0,0,0,.82,5.33,10.94,10.94,0,0,0,2.32,3.9,9.52,9.52,0,0,0,3.6,2.41,12.68,12.68,0,0,0,4.64.83q5.4,0,8.41-3.28t3-9.26m25.88,3.8a6.86,6.86,0,0,0-3-6.07,11.32,11.32,0,0,0-3-1.48c-1.12-.35-2.24-.66-3.36-.92s-2.05-.49-2.78-.7a8.58,8.58,0,0,1-1.73-.67,2.17,2.17,0,0,1-.9-.8,2.22,2.22,0,0,1-.26-1.11,2.19,2.19,0,0,1,.2-.91,2,2,0,0,1,.68-.78,3.81,3.81,0,0,1,1.25-.57,7.25,7.25,0,0,1,1.89-.21,8.14,8.14,0,0,1,3.48.72,10.16,10.16,0,0,1,2.92,2.1l4.06-3.84a15.3,15.3,0,0,0-4.48-3.18,15,15,0,0,0-9.7-.59,10.1,10.1,0,0,0-3.2,1.59,7.67,7.67,0,0,0-2.15,2.53,7,7,0,0,0-.79,3.37,8,8,0,0,0,.65,3.41,6.1,6.1,0,0,0,1.81,2.27,10.18,10.18,0,0,0,2.8,1.49,30,30,0,0,0,3.55,1c1.32.28,2.39.56,3.22.82a8.26,8.26,0,0,1,1.91.82,2.42,2.42,0,0,1,.91.93,2.57,2.57,0,0,1,.24,1.15,2.43,2.43,0,0,1-1.19,2.27,7.52,7.52,0,0,1-3.72.71,10.3,10.3,0,0,1-3.88-.73,8.6,8.6,0,0,1-3.32-2.41l-4.06,3.53a10.78,10.78,0,0,0,4.5,3.64,15.24,15.24,0,0,0,6.44,1.34,17.22,17.22,0,0,0,5-.63,9.65,9.65,0,0,0,3.44-1.78,7,7,0,0,0,2-2.77,9.44,9.44,0,0,0,.64-3.56M165,475.24h-5.63v27.42H165Zm28.66,27.42V475.24h-5.55v11.59c0,.4,0,.88,0,1.46s0,1.16,0,1.76,0,1.12,0,1.62,0,.9,0,1.16c-.19-.36-.48-.84-.87-1.43l-1.1-1.67-10-14.49h-5.39v27.42h5.55V490.6c0-.4,0-.88,0-1.45s0-1.15,0-1.73,0-1.15,0-1.66,0-.9,0-1.16a16.25,16.25,0,0,0,.87,1.43c.39.59.75,1.15,1.1,1.67l10.34,15Zm49.84-8.3a7.13,7.13,0,0,0-.85-3.68,7.28,7.28,0,0,0-2.19-2.39,11,11,0,0,0-3-1.48c-1.11-.35-2.23-.66-3.36-.92s-2.05-.49-2.77-.7a8.58,8.58,0,0,1-1.73-.67,2.27,2.27,0,0,1-.91-.8,2.22,2.22,0,0,1-.26-1.11,2.19,2.19,0,0,1,.2-.91,2.1,2.1,0,0,1,.69-.78,3.63,3.63,0,0,1,1.25-.57,7.22,7.22,0,0,1,1.88-.21,8.14,8.14,0,0,1,3.48.72,10,10,0,0,1,2.92,2.1l4.07-3.84a15.21,15.21,0,0,0-4.49-3.18,15,15,0,0,0-9.7-.59,10,10,0,0,0-3.19,1.59,7.55,7.55,0,0,0-2.15,2.53,7,7,0,0,0-.79,3.37,8,8,0,0,0,.64,3.41,6.21,6.21,0,0,0,1.81,2.27,10.18,10.18,0,0,0,2.8,1.49,29.68,29.68,0,0,0,3.56,1c1.31.28,2.39.56,3.22.82a8.46,8.46,0,0,1,1.91.82,2.46,2.46,0,0,1,.9.93,2.57,2.57,0,0,1,.24,1.15,2.44,2.44,0,0,1-1.18,2.27,7.52,7.52,0,0,1-3.72.71,10.39,10.39,0,0,1-3.89-.73,8.75,8.75,0,0,1-3.32-2.41l-4.06,3.53a10.88,10.88,0,0,0,4.51,3.64,15.16,15.16,0,0,0,6.43,1.34,17.17,17.17,0,0,0,5-.63,9.57,9.57,0,0,0,3.44-1.78,7,7,0,0,0,2-2.77,9.44,9.44,0,0,0,.65-3.56m24.19,0a7.24,7.24,0,0,0-.84-3.68,7.31,7.31,0,0,0-2.2-2.39,11.11,11.11,0,0,0-3-1.48c-1.11-.35-2.23-.66-3.36-.92s-2.05-.49-2.78-.7a8.58,8.58,0,0,1-1.73-.67,2.17,2.17,0,0,1-.9-.8,2.12,2.12,0,0,1-.26-1.11,2,2,0,0,1,.2-.91,2,2,0,0,1,.68-.78,3.72,3.72,0,0,1,1.25-.57,7.25,7.25,0,0,1,1.89-.21,8.17,8.17,0,0,1,3.48.72A10.3,10.3,0,0,1,263,483l4.06-3.84a15.08,15.08,0,0,0-4.49-3.18,15,15,0,0,0-9.69-.59,10.1,10.1,0,0,0-3.2,1.59,7.67,7.67,0,0,0-2.15,2.53,7.13,7.13,0,0,0-.78,3.37,8,8,0,0,0,.64,3.41,6.1,6.1,0,0,0,1.81,2.27A10.11,10.11,0,0,0,252,490a30.79,30.79,0,0,0,3.56,1c1.32.28,2.39.56,3.22.82a8.26,8.26,0,0,1,1.91.82,2.42,2.42,0,0,1,.91.93,2.57,2.57,0,0,1,.24,1.15,2.45,2.45,0,0,1-1.19,2.27,7.52,7.52,0,0,1-3.72.71,10.3,10.3,0,0,1-3.88-.73,8.6,8.6,0,0,1-3.32-2.41l-4.06,3.53a10.78,10.78,0,0,0,4.5,3.64,15.24,15.24,0,0,0,6.44,1.34,17.22,17.22,0,0,0,5-.63,9.57,9.57,0,0,0,3.44-1.78,7,7,0,0,0,2-2.77,9.44,9.44,0,0,0,.64-3.56M103.2,388.92H81.06V370.38H103.2c16.29,0,15.3,18.54,0,18.54m75.89,0H156.94V370.38h22.15c16.29,0,15.3,18.54,0,18.54m75.88,0H232.83V370.38H255c16.3,0,15.31,18.54,0,18.54M101.69,355.87H81.06V338.54h19.86c12.4,0,12.85,17.33.77,17.33m75.89,0H156.94V338.54H176.8c12.41,0,12.86,17.33.78,17.33m75.89,0H232.83V338.54h19.86c12.4,0,12.85,17.33.78,17.33M132.19,378.6c-1.58-10.66-5.87-13.21-14.46-17,6.49-3.8,10.48-9.39,10.48-17.05,0-15.31-12.54-21.54-26.22-21.54H63.77v81.27h37.86c16.17,0,33.31-7.07,30.56-25.68m75.89,0c-1.58-10.66-5.88-13.21-14.46-17,6.49-3.8,10.48-9.39,10.48-17.05,0-15.31-12.54-21.54-26.23-21.54H139.65v81.27h37.87c16.17,0,33.31-7.07,30.56-25.68m75.88,0c-1.58-10.66-5.87-13.21-14.46-17,6.5-3.8,10.49-9.39,10.49-17.05,0-15.31-12.54-21.54-26.23-21.54H215.54v81.27H253.4c16.18,0,33.31-7.07,30.56-25.68m7.34,23a2.5,2.5,0,0,0-.14-.9,1.85,1.85,0,0,0-.45-.72,3.2,3.2,0,0,0-.84-.61,10.07,10.07,0,0,0-1.3-.54c-.48-.17-.86-.33-1.15-.46a2.86,2.86,0,0,1-.68-.43,1.11,1.11,0,0,1-.33-.45,1.62,1.62,0,0,1-.08-.52,1.25,1.25,0,0,1,.1-.51,1.21,1.21,0,0,1,.33-.43,1.61,1.61,0,0,1,.57-.29,2.85,2.85,0,0,1,.83-.12,3.31,3.31,0,0,1,1.24.22,4.2,4.2,0,0,1,1,.64l.68-.8a4.82,4.82,0,0,0-1.26-.72,4.49,4.49,0,0,0-1.61-.26,4.22,4.22,0,0,0-1.21.16,2.41,2.41,0,0,0-.92.46,2.07,2.07,0,0,0-.82,1.72,2.62,2.62,0,0,0,.14.88,1.9,1.9,0,0,0,.46.69,3.32,3.32,0,0,0,.84.57,9.68,9.68,0,0,0,1.28.54,7.27,7.27,0,0,1,1.08.44,3.3,3.3,0,0,1,.69.44,1.12,1.12,0,0,1,.37.48,1.48,1.48,0,0,1,.11.57,1.34,1.34,0,0,1-.55,1.15,2.3,2.3,0,0,1-1.49.43,3,3,0,0,1-1.34-.3,5,5,0,0,1-1.16-.81l-.7.77a4.87,4.87,0,0,0,1.38.91,4.38,4.38,0,0,0,1.78.35,4.08,4.08,0,0,0,1.32-.19,2.94,2.94,0,0,0,1-.54,2.1,2.1,0,0,0,.61-.81,2.47,2.47,0,0,0,.21-1m9.78,2.41v-9.17h-1.14l-2.25,5.49c-.06.13-.12.28-.18.44a5.38,5.38,0,0,0-.2.51l-.18.47c-.05.14-.09.27-.12.36,0-.09-.07-.22-.12-.36s-.11-.3-.18-.46-.12-.34-.19-.5-.12-.32-.18-.46l-2.22-5.49h-1.18V404h1v-7.19c0,.09.06.2.11.32s.08.26.13.39.1.28.16.42.1.28.15.39l2.48,5.91,2.53-5.91.15-.39.17-.42c.05-.13.1-.26.14-.39l.1-.32V404Z" transform="translate(-17.42 -25.88)"/>
			</g>
		</g>
	</g>
</svg>