<svg xmlns="http://www.w3.org/2000/svg" xmlns:xlink="http://www.w3.org/1999/xlink" viewBox="0 0 278 66.94"><defs><style>.cls-1{fill:none;}.cls-2{clip-path:url(#clip-path);}</style><clipPath id="clip-path"><rect class="cls-1" width="278" height="66.94"/></clipPath></defs><title>Asset 3</title><g id="Layer_2" data-name="Layer 2"><g id="Layer_1-2" data-name="Layer 1"><rect y="32.92" width="278" height="1.17"/><polygon points="0.24 27.39 0.24 0.44 7.3 0.44 7.3 22.27 19.67 22.27 19.67 27.39 0.24 27.39"/><rect x="23.83" y="0.44" width="7.06" height="26.95"/><g class="cls-2"><path d="M50.69,0C41.51,0,35.55,6,35.55,14.12c0,7.67,5.4,13.71,14.63,13.71s15.28-5.36,15.28-14.19C65.46,6.2,60.25,0,50.69,0m-.14,23C45.84,23,43,19.28,43,14s2.77-9.16,7.53-9.16S58,9,58,13.84C58,19.08,55.31,23,50.55,23"/><path d="M89.38,8.32A85.1,85.1,0,0,0,90,19.55h-.14a74.9,74.9,0,0,0-5.08-9.23L78.3.44H70.08v27h6.46V19.28c0-4.4-.09-8.2-.27-11.76l.13,0A98,98,0,0,0,81.8,17l6.65,10.39h7.39V.44H89.38Z"/><path d="M114,11.4c-4-1.32-5.77-2.08-5.77-3.8,0-1.4,1.48-2.6,4.53-2.6a16.68,16.68,0,0,1,6.51,1.28l1.57-4.92A21.61,21.61,0,0,0,112.92,0c-7.34,0-11.77,3.52-11.77,8.12,0,3.92,3.37,6.4,8.54,8,3.73,1.16,5.21,2.12,5.21,3.8s-1.71,2.91-4.94,2.91a20.18,20.18,0,0,1-7.8-1.67l-1.43,5a23,23,0,0,0,8.82,1.64c8.54,0,12.55-3.84,12.55-8.35,0-3.8-2.58-6.28-8.08-8"/><path d="M148.28,11.4c-4-1.32-5.77-2.08-5.77-3.8C142.51,6.2,144,5,147,5a16.68,16.68,0,0,1,6.51,1.28l1.57-4.92A21.61,21.61,0,0,0,147.17,0c-7.34,0-11.77,3.52-11.77,8.12,0,3.92,3.37,6.4,8.54,8,3.74,1.16,5.21,2.12,5.21,3.8s-1.7,2.91-4.94,2.91a20.22,20.22,0,0,1-7.8-1.67l-1.43,5a23,23,0,0,0,8.82,1.64c8.54,0,12.56-3.84,12.56-8.35,0-3.8-2.59-6.28-8.08-8"/><polygon points="179.76 10.8 168.17 10.8 168.17 0.44 161.11 0.44 161.11 27.39 168.17 27.39 168.17 16.12 179.76 16.12 179.76 27.39 186.78 27.39 186.78 0.44 179.76 0.44 179.76 10.8"/><path d="M200.16.44l-9.51,27H198l2.21-6.91h8.91l2.4,6.91H219L209.39.44Zm1,15.48L203,10.2c.51-1.56,1-3.6,1.43-5.2h.1c.46,1.6,1,3.6,1.57,5.2l1.94,5.72Z"/><path d="M240,14.76v-.12c2.68-.84,5.49-3.2,5.49-6.64a6.49,6.49,0,0,0-2.86-5.64C240.41.84,237.18.24,232.57.24A71.13,71.13,0,0,0,223.2.8V27.39h7V16.8h2.12c2.86,0,4.2,1,5,4.32a30.24,30.24,0,0,0,2.17,6.27h7.2a72.61,72.61,0,0,1-2.54-7.59c-.78-2.48-2-4.28-4.15-5m-7.06-2.36h-2.77V5a20.13,20.13,0,0,1,3.18-.2c3.23,0,5.17,1.28,5.17,3.76s-2.08,3.88-5.58,3.88"/><polygon points="257.63 22.39 257.63 16 269.08 16 269.08 11.04 257.63 11.04 257.63 5.44 269.77 5.44 269.77 0.44 250.57 0.44 250.57 27.39 270.42 27.39 270.42 22.39 257.63 22.39"/><path d="M28.69,66.54,28,54.7c-.22-3.76-.48-8.27-.43-11.63h-.13c-1,3.16-2.22,6.51-3.69,10.23L18.54,66.38H15.67L10.94,53.54c-1.39-3.8-2.56-7.27-3.38-10.47H7.47c-.09,3.36-.3,7.87-.56,11.91L6.13,66.54H2.52l2-26.95H9.38l5,13c1.21,3.32,2.21,6.28,3,9.08h.13c.74-2.72,1.78-5.68,3.08-9.08l5.21-13h4.81l1.83,27Zm27.29,0-3.12-8.48H42.49l-3,8.48h-3.9l9.93-26.95H50l10,27Zm-6.77-19c-.65-1.76-1.08-3.36-1.52-4.92h-.08c-.44,1.6-.91,3.24-1.48,4.88l-2.86,7.79h8.81Zm15.1-8h3.78v27H64.31Zm28.51,27L83.54,52.86a82,82,0,0,1-5.47-9l-.13,0c.22,3.4.3,6.64.3,11.11V66.54H74.68V39.59h4.13l9.37,13.64A74,74,0,0,1,93.43,62l.09,0a109.54,109.54,0,0,1-.44-11.07V39.59h3.56v27Zm19.79-24v24h-3.82v-24h-8.9v-3h21.66v3Zm28.64,21.07v2.92H124.8V39.59h15.8v2.92h-12V51h11.36V53.9H128.58v9.72Zm23,2.92L155,52.86a81.83,81.83,0,0,1-5.46-9l-.14,0c.22,3.4.31,6.64.31,11.11V66.54h-3.56V39.59h4.12l9.37,13.64A74.18,74.18,0,0,1,164.9,62l.08,0a109.69,109.69,0,0,1-.43-11.07V39.59h3.56v27Zm28.64,0-3.13-8.48H179.43l-3,8.48h-3.9l9.93-26.95H187l10,27Zm-6.77-19c-.65-1.76-1.09-3.36-1.52-4.92h-.09c-.43,1.6-.91,3.24-1.48,4.88l-2.86,7.79H189Zm33.23,19-9.28-13.68a83.54,83.54,0,0,1-5.47-9l-.13,0c.22,3.4.3,6.64.3,11.11V66.54h-3.55V39.59h4.12l9.37,13.64A74,74,0,0,1,220,62l.09,0a109.54,109.54,0,0,1-.44-11.07V39.59h3.56v27Zm30-23.35a14.73,14.73,0,0,0-5.9-1.12c-6.86,0-11.42,4-11.42,11.11,0,6.6,4.13,10.84,11.24,10.84a16.18,16.18,0,0,0,6.16-1.12l.79,2.76a20.17,20.17,0,0,1-7.73,1.28c-8.24,0-14.45-4.8-14.45-13.64,0-8.43,6.21-14.15,15.28-14.15a16.83,16.83,0,0,1,6.94,1.2Zm22,20.43v2.92H255V39.59h15.8v2.92h-12V51h11.37V53.9H258.75v9.72Z"/></g></g></g></svg>