<svg xmlns="http://www.w3.org/2000/svg" viewBox="0 0 239.06 66.55"><defs><style>.cls-1{fill-rule:evenodd;}</style></defs><title>Asset 1</title><g id="Layer_2" data-name="Layer 2"><g id="Layer_1-2" data-name="Layer 1"><polygon class="cls-1" points="0 32.73 239.06 32.73 239.06 33.9 0 33.9 0 32.73 0 32.73"/><polygon points="6.28 0.44 0.2 0.44 0.2 27.23 16.92 27.23 16.92 22.14 6.28 22.14 6.28 0.44"/><rect x="20.49" y="0.44" width="6.07" height="26.8"/><path d="M43.59,0c-7.9,0-13,6-13,14,0,7.64,4.65,13.64,12.58,13.64s13.14-5.33,13.14-14.11C56.29,6.16,51.81,0,43.59,0Zm-.12,22.86c-4,0-6.51-3.7-6.51-8.94s2.38-9.11,6.47-9.11,6.47,4.14,6.47,9C49.9,19,47.56,22.86,43.47,22.86Z"/><path d="M76.86,8.27a101.26,101.26,0,0,0,.51,11.17h-.12a77.08,77.08,0,0,0-4.36-9.18L67.33.44H60.26V27.23h5.56V19.16c0-4.37-.08-8.15-.24-11.68l.12,0a100.06,100.06,0,0,0,4.65,9.46l5.71,10.33h6.35V.44H76.86Z"/><path d="M98.05,11.33c-3.45-1.31-5-2.07-5-3.78C93.09,6.16,94.36,5,97,5a12.81,12.81,0,0,1,5.6,1.27l1.35-4.89A16.47,16.47,0,0,0,97.1,0C90.79,0,87,3.5,87,8.07c0,3.9,2.9,6.36,7.34,7.91,3.22,1.16,4.49,2.11,4.49,3.78s-1.47,2.9-4.25,2.9A15.36,15.36,0,0,1,87.85,21l-1.23,5a17.43,17.43,0,0,0,7.58,1.63c7.35,0,10.8-3.82,10.8-8.31C105,15.55,102.78,13.08,98.05,11.33Z"/><path d="M127.51,11.33c-3.46-1.31-5-2.07-5-3.78,0-1.39,1.27-2.58,3.89-2.58A12.76,12.76,0,0,1,132,6.24l1.35-4.89A16.47,16.47,0,0,0,126.55,0c-6.31,0-10.12,3.5-10.12,8.07,0,3.9,2.9,6.36,7.35,7.91,3.21,1.16,4.48,2.11,4.48,3.78s-1.47,2.9-4.25,2.9a15.28,15.28,0,0,1-6.7-1.67l-1.23,5a17.36,17.36,0,0,0,7.58,1.63c7.34,0,10.79-3.82,10.79-8.31C134.45,15.55,132.23,13.08,127.51,11.33Z"/><polygon points="154.58 10.73 144.62 10.73 144.62 0.44 138.54 0.44 138.54 27.23 144.62 27.23 144.62 16.02 154.58 16.02 154.58 27.23 160.61 27.23 160.61 0.44 154.58 0.44 154.58 10.73"/><path d="M172.13.44,164,27.23h6.27l1.91-6.87h7.66l2.06,6.87h6.51L180.07.44ZM173,15.82l1.59-5.68c.43-1.55.83-3.58,1.23-5.17h.08c.39,1.59.87,3.58,1.35,5.17l1.66,5.68Z"/><path d="M206.38,14.67v-.12A7.1,7.1,0,0,0,211.11,8a6.82,6.82,0,0,0-2.46-5.6C206.74.84,204,.24,200,.24a52.89,52.89,0,0,0-8.06.56V27.23h6V16.7h1.82c2.47,0,3.62.95,4.33,4.29A32.68,32.68,0,0,0,206,27.23h6.19A78.08,78.08,0,0,1,210,19.68C209.28,17.22,208.25,15.43,206.38,14.67Zm-6.07-2.35h-2.38V4.93a14.93,14.93,0,0,1,2.74-.2c2.78,0,4.44,1.27,4.44,3.74S203.33,12.32,200.31,12.32Z"/><polygon points="221.55 22.26 221.55 15.9 231.39 15.9 231.39 10.97 221.55 10.97 221.55 5.41 231.99 5.41 231.99 0.44 215.47 0.44 215.47 27.23 232.54 27.23 232.54 22.26 221.55 22.26"/><path d="M24.67,66.15,24,54.38c-.19-3.73-.41-8.23-.38-11.56h-.11C22.69,46,21.65,49.3,20.38,53L15.94,66H13.48L9.41,53.23C8.21,49.45,7.21,46,6.5,42.82H6.42c-.07,3.33-.26,7.83-.48,11.84L5.27,66.15H2.17L3.92,39.36H8.07l4.29,13c1,3.3,1.9,6.24,2.53,9H15c.63-2.7,1.53-5.64,2.65-9l4.47-13h4.14l1.57,26.79Zm23.47,0-2.69-8.43H36.54l-2.62,8.43H30.57l8.54-26.79H43l8.58,26.79ZM42.32,47.31c-.56-1.75-.93-3.34-1.31-4.89h-.07c-.37,1.59-.78,3.22-1.27,4.85L37.21,55h7.57l-2.46-7.71Zm13,18.84V39.36h3.24V66.15Zm24.51,0-8-13.59a88.94,88.94,0,0,1-4.7-9l-.11,0c.19,3.38.26,6.6.26,11.05V66.15H64.22V39.36h3.55l8.06,13.55a77.89,77.89,0,0,1,4.51,8.71l.08,0c-.3-3.58-.38-6.84-.38-11V39.36H83.1V66.15Zm17-23.85V66.15H93.55V42.3H85.9V39.36h18.62V42.3Zm24.63,21v2.9H107.32V39.36H120.9v2.9H110.57v8.47h9.77v2.86h-9.77v9.66Zm19.82,2.9-8-13.59a88.94,88.94,0,0,1-4.7-9l-.11,0c.18,3.38.26,6.6.26,11.05V66.15h-3.06V39.36h3.54l8.06,13.55a78.08,78.08,0,0,1,4.52,8.71l.07,0c-.3-3.58-.37-6.84-.37-11V39.36h3.06V66.15Zm24.62,0-2.68-8.43H154.3l-2.61,8.43h-3.36l8.54-26.79h3.92l8.58,26.79Zm-5.82-18.84c-.56-1.75-.93-3.34-1.3-4.89h-.08c-.37,1.59-.78,3.22-1.27,4.85L155,55h7.57l-2.46-7.71Zm28.58,18.84-8-13.59a88.94,88.94,0,0,1-4.7-9l-.11,0c.18,3.38.26,6.6.26,11.05V66.15h-3.06V39.36h3.54l8.06,13.55a78.08,78.08,0,0,1,4.52,8.71l.07,0c-.3-3.58-.37-6.84-.37-11V39.36H192V66.15Zm25.79-23.22a11.32,11.32,0,0,0-5.08-1.11c-5.89,0-9.81,4-9.81,11,0,6.56,3.55,10.78,9.66,10.78a12.23,12.23,0,0,0,5.3-1.12l.67,2.75a15.33,15.33,0,0,1-6.64,1.27c-7.09,0-12.42-4.77-12.42-13.56,0-8.39,5.33-14.07,13.13-14.07a12.74,12.74,0,0,1,6,1.19l-.78,2.82Zm19,20.32v2.9H219.26V39.36h13.58v2.9H222.51v8.47h9.77v2.86h-9.77v9.66Z"/></g></g></svg>