<svg xmlns="http://www.w3.org/2000/svg" xmlns:xlink="http://www.w3.org/1999/xlink" viewBox="665 665 1400 1400"><defs><style>.cls-1{fill:none;}.cls-2{clip-path:url(#clip-path);}.cls-3{fill:url(#linear-gradient);}.cls-4{clip-path:url(#clip-path-2);}.cls-5{fill:url(#linear-gradient-2);}.cls-6{clip-path:url(#clip-path-3);}.cls-7{fill:url(#radial-gradient);}.cls-8{clip-path:url(#clip-path-4);}.cls-9{fill:url(#linear-gradient-3);}.cls-10{clip-path:url(#clip-path-5);}.cls-11{fill:url(#linear-gradient-4);}.cls-12{clip-path:url(#clip-path-6);}.cls-13{fill:url(#linear-gradient-5);}.cls-14{clip-path:url(#clip-path-7);}.cls-15{fill:url(#radial-gradient-2);}.cls-16{clip-path:url(#clip-path-8);}.cls-17{fill:url(#linear-gradient-6);}.cls-18{clip-path:url(#clip-path-9);}.cls-19{fill:url(#radial-gradient-3);}.cls-20{clip-path:url(#clip-path-10);}.cls-21{fill:url(#radial-gradient-4);}.cls-22{clip-path:url(#clip-path-11);}.cls-23{fill:url(#radial-gradient-5);}.cls-24{clip-path:url(#clip-path-12);}.cls-25{fill:url(#radial-gradient-6);}.cls-26{clip-path:url(#clip-path-13);}.cls-27{fill:url(#radial-gradient-7);}.cls-28{clip-path:url(#clip-path-14);}.cls-29{fill:url(#radial-gradient-8);}.cls-30{clip-path:url(#clip-path-15);}.cls-31{fill:url(#radial-gradient-9);}.cls-32{clip-path:url(#clip-path-16);}.cls-33{fill:url(#radial-gradient-10);}.cls-34{clip-path:url(#clip-path-17);}.cls-35{fill:url(#radial-gradient-11);}.cls-36{clip-path:url(#clip-path-18);}.cls-37{fill:url(#radial-gradient-12);}.cls-38{clip-path:url(#clip-path-19);}.cls-39{fill:url(#radial-gradient-13);}.cls-40{clip-path:url(#clip-path-20);}.cls-41{fill:url(#radial-gradient-14);}.cls-42{clip-path:url(#clip-path-21);}.cls-43{fill:url(#radial-gradient-15);}.cls-44{clip-path:url(#clip-path-22);}.cls-45{fill:url(#radial-gradient-16);}.cls-46{clip-path:url(#clip-path-23);}.cls-47{fill:url(#radial-gradient-17);}.cls-48{clip-path:url(#clip-path-24);}.cls-49{fill:url(#radial-gradient-18);}.cls-50{clip-path:url(#clip-path-25);}.cls-51{fill:url(#radial-gradient-19);}.cls-52{clip-path:url(#clip-path-26);}.cls-53{fill:url(#radial-gradient-20);}.cls-54{clip-path:url(#clip-path-27);}.cls-55{fill:url(#radial-gradient-21);}.cls-56{clip-path:url(#clip-path-28);}.cls-57{fill:url(#radial-gradient-22);}.cls-58{clip-path:url(#clip-path-29);}.cls-59{fill:url(#radial-gradient-23);}.cls-60{clip-path:url(#clip-path-30);}.cls-61{fill:url(#radial-gradient-24);}.cls-62{clip-path:url(#clip-path-31);}.cls-63{fill:url(#radial-gradient-25);}.cls-64{clip-path:url(#clip-path-32);}.cls-65{fill:url(#radial-gradient-26);}.cls-66{clip-path:url(#clip-path-33);}.cls-67{fill:url(#radial-gradient-27);}.cls-68{clip-path:url(#clip-path-34);}.cls-69{fill:url(#radial-gradient-28);}.cls-70{clip-path:url(#clip-path-35);}.cls-71{fill:url(#radial-gradient-29);}.cls-72{clip-path:url(#clip-path-36);}.cls-73{fill:url(#radial-gradient-30);}.cls-74{clip-path:url(#clip-path-37);}.cls-75{fill:url(#radial-gradient-31);}.cls-76{clip-path:url(#clip-path-38);}.cls-77{fill:url(#radial-gradient-32);}.cls-78{clip-path:url(#clip-path-39);}.cls-79{fill:url(#radial-gradient-33);}.cls-80{clip-path:url(#clip-path-40);}.cls-81{fill:url(#radial-gradient-34);}.cls-82{clip-path:url(#clip-path-41);}.cls-83{fill:url(#radial-gradient-35);}.cls-84{clip-path:url(#clip-path-42);}.cls-85{fill:url(#radial-gradient-36);}.cls-86{clip-path:url(#clip-path-43);}.cls-87{fill:url(#radial-gradient-37);}.cls-88{clip-path:url(#clip-path-44);}.cls-89{fill:url(#radial-gradient-38);}.cls-90{clip-path:url(#clip-path-45);}.cls-91{fill:url(#radial-gradient-39);}.cls-92{clip-path:url(#clip-path-46);}.cls-93{fill:url(#radial-gradient-40);}.cls-94{clip-path:url(#clip-path-47);}.cls-95{fill:url(#radial-gradient-41);}.cls-96{clip-path:url(#clip-path-48);}.cls-97{fill:url(#radial-gradient-42);}.cls-98{clip-path:url(#clip-path-49);}.cls-99{fill:url(#radial-gradient-43);}.cls-100{clip-path:url(#clip-path-50);}.cls-101{fill:url(#radial-gradient-44);}.cls-102{clip-path:url(#clip-path-51);}.cls-103{fill:url(#radial-gradient-45);}.cls-104{clip-path:url(#clip-path-52);}.cls-105{fill:url(#radial-gradient-46);}.cls-106{clip-path:url(#clip-path-53);}.cls-107{fill:url(#radial-gradient-47);}.cls-108{clip-path:url(#clip-path-54);}.cls-109{fill:url(#radial-gradient-48);}.cls-110{clip-path:url(#clip-path-55);}.cls-111{fill:url(#radial-gradient-49);}.cls-112{clip-path:url(#clip-path-56);}.cls-113{fill:url(#radial-gradient-50);}.cls-114{clip-path:url(#clip-path-57);}.cls-115{fill:url(#linear-gradient-7);}.cls-116{clip-path:url(#clip-path-58);}.cls-117{fill:url(#linear-gradient-8);}.cls-118{clip-path:url(#clip-path-59);}.cls-119{fill:url(#linear-gradient-9);}.cls-120{clip-path:url(#clip-path-60);}.cls-121{fill:url(#linear-gradient-10);}</style><clipPath id="clip-path"><path class="cls-1" d="M682.54,1365.12c0,376.92,305.59,682.51,682.51,682.51s682.58-305.59,682.58-682.51-305.55-682.58-682.58-682.58S682.54,988.08,682.54,1365.12"/></clipPath><linearGradient id="linear-gradient" x1="673.72" y1="2060.57" x2="697.76" y2="2060.57" gradientTransform="matrix(0, 77.46, 77.46, 0, -158255.87, -51574.1)" gradientUnits="userSpaceOnUse"><stop offset="0" stop-color="#eebe47"/><stop offset="0.09" stop-color="#f6d46b"/><stop offset="0.21" stop-color="#ffee96"/><stop offset="0.29" stop-color="#d8b468"/><stop offset="0.36" stop-color="#bb8845"/><stop offset="0.41" stop-color="#a96d2f"/><stop offset="0.45" stop-color="#a26327"/><stop offset="0.5" stop-color="#af6f2e"/><stop offset="0.6" stop-color="#d38d3f"/><stop offset="0.67" stop-color="#eea54d"/><stop offset="1" stop-color="#eebe47"/></linearGradient><clipPath id="clip-path-2"><path class="cls-1" d="M698.24,1365.12c0,368.24,298.57,666.81,666.81,666.81s666.88-298.57,666.88-666.81-298.55-666.88-666.88-666.88S698.24,996.79,698.24,1365.12"/></clipPath><linearGradient id="linear-gradient-2" x1="673.75" y1="2036.4" x2="697.79" y2="2036.4" gradientTransform="matrix(0, -75.68, -75.68, 0, 155479.71, 53086.95)" xlink:href="#linear-gradient"/><clipPath id="clip-path-3"><path class="cls-1" d="M712.69,1365.12c0,360.31,292.08,652.34,652.36,652.34s652.43-292,652.43-652.34S1725.4,712.69,1365.05,712.69s-652.36,292.08-652.36,652.43"/></clipPath><radialGradient id="radial-gradient" cx="691.39" cy="2069.56" r="24.04" gradientTransform="matrix(52.51, 0, 0, -52.51, -35160.42, 109567.14)" gradientUnits="userSpaceOnUse"><stop offset="0" stop-color="#314153"/><stop offset="0.23" stop-color="#2d3c4f"/><stop offset="0.52" stop-color="#0f1d30"/><stop offset="1" stop-color="#0f1429"/></radialGradient><clipPath id="clip-path-4"><path class="cls-1" d="M736.42,1365.12c0,347.18,281.45,628.63,628.63,628.63s628.7-281.45,628.7-628.63-281.47-628.71-628.7-628.71-628.63,281.48-628.63,628.71"/></clipPath><linearGradient id="linear-gradient-3" x1="669.72" y1="2030.67" x2="693.76" y2="2030.67" gradientTransform="matrix(0, -51.34, -51.34, 0, 105623.36, 36374.39)" xlink:href="#linear-gradient"/><clipPath id="clip-path-5"><path class="cls-1" d="M749.08,1365.12c0,340.18,275.79,616,616,616s616.06-275.79,616.06-616-275.76-616-616.06-616-616,275.74-616,616"/></clipPath><linearGradient id="linear-gradient-4" x1="673.02" y1="2066.95" x2="697.06" y2="2066.95" gradientTransform="matrix(0, 50.31, 50.31, 0, -102619.54, -33105.21)" xlink:href="#linear-gradient"/><clipPath id="clip-path-6"><path class="cls-1" d="M928.56,1365.12c0,241,195.44,436.49,436.49,436.49s436.56-195.47,436.56-436.49-195.44-436.56-436.56-436.56S928.56,1124,928.56,1365.12"/></clipPath><linearGradient id="linear-gradient-5" x1="673.7" y1="2074.48" x2="697.74" y2="2074.48" gradientTransform="matrix(0, 35.65, 35.65, 0, -72586.79, -23084.87)" xlink:href="#linear-gradient"/><clipPath id="clip-path-7"><path class="cls-1" d="M945.2,1365.12c0,231.86,188,419.85,419.85,419.85s420-188,420-419.85-188-419.95-419.95-419.95-419.85,188-419.85,419.95"/></clipPath><radialGradient id="radial-gradient-2" cx="667.79" cy="2022.95" r="24.04" gradientTransform="matrix(-33.79, 0, 0, 33.79, 23787.07, -67220.31)" gradientUnits="userSpaceOnUse"><stop offset="0" stop-color="#2d3c4f"/><stop offset="0.06" stop-color="#2d3c4f"/><stop offset="0.52" stop-color="#0f1d30"/><stop offset="1" stop-color="#0f1429"/></radialGradient><clipPath id="clip-path-8"><path class="cls-1" d="M981.26,1365.12c0-212,171.86-383.86,383.79-383.86s383.86,171.86,383.86,383.86-171.83,383.79-383.86,383.79-383.79-171.86-383.79-383.79m-10,0c0,217.44,176.35,393.74,393.79,393.74s393.89-176.3,393.89-393.74-176.33-393.84-393.89-393.84-393.79,176.28-393.79,393.84"/></clipPath><linearGradient id="linear-gradient-6" x1="673.95" y1="2077.29" x2="697.99" y2="2077.29" gradientTransform="matrix(0, 32.16, 32.16, 0, -65442.72, -20701.28)" xlink:href="#linear-gradient"/><clipPath id="clip-path-9"><path class="cls-1" d="M857.21,1123.62q-7.28,3.06-11.2,11.88c-2.64,6-3,11.7-1.27,17.06s5.57,9.35,11.44,12a19.19,19.19,0,0,0,9.88,1.44,54.73,54.73,0,0,0,12.12-3l20.79-7.4a82.74,82.74,0,0,1,15-4.09,20.1,20.1,0,0,1,11.22,1.35c4.11,1.82,6.81,4.35,8,7.52s1,6.83-.77,10.87a15.93,15.93,0,0,1-4.54,6.08,14,14,0,0,1-6.37,2.88,29.79,29.79,0,0,1-7.19.32,38.73,38.73,0,0,1-7.55-1.64l-1,7.89a44.89,44.89,0,0,0,9.83,1.46,29.83,29.83,0,0,0,9.18-1.17,20.91,20.91,0,0,0,8-4.28,22.9,22.9,0,0,0,5.67-7.79q4.15-9.42,1.54-17.55c-1.71-5.43-5.75-9.62-12.12-12.38a19,19,0,0,0-3.94-1.3,27.23,27.23,0,0,0-3.75-.6,15.55,15.55,0,0,0-4.09.1c-1.68.16-3,.4-3.82.5s-2.31.51-4.2,1l-3.85,1.17c-.7.24-2.09.68-4.21,1.37s-3.41,1.18-3.94,1.37l-20,6.81a45.9,45.9,0,0,1-9.66,2.19,16.16,16.16,0,0,1-7.74-1.21c-3.95-1.75-6.37-4.2-7.36-7.42s-.58-6.78,1.18-10.7a13.49,13.49,0,0,1,8.6-7.94,23.43,23.43,0,0,1,13.06,0l.77.25.86-7.55-.89-.24a38.84,38.84,0,0,0-8.29-1,22.67,22.67,0,0,0-9.26,1.8"/></clipPath><radialGradient id="radial-gradient-3" cx="701.5" cy="2057.08" r="24.04" gradientTransform="matrix(0, 41.1, 41.1, 0, -84189.82, -27044.86)" xlink:href="#radial-gradient-2"/><clipPath id="clip-path-10"><path class="cls-1" d="M885.32,1081.62,940,1102l-10.37,17.58Zm-10.53.22L948.92,1148l4.4-7.5L934,1123.33,945.44,1104l24.35,8.68,4.45-7.52-93.76-33Z"/></clipPath><radialGradient id="radial-gradient-4" cx="701.5" cy="2057.08" r="24.04" gradientTransform="matrix(0, 41.1, 41.1, 0, -84201.94, -27118.86)" xlink:href="#radial-gradient-2"/><clipPath id="clip-path-11"><polygon class="cls-1" points="895.17 1048.26 900.77 1052.34 912 1037.08 984.98 1090.78 990.1 1083.81 917.14 1030.13 928.47 1014.7 922.89 1010.59 895.17 1048.26"/></clipPath><radialGradient id="radial-gradient-5" cx="701.5" cy="2057.07" r="24.04" gradientTransform="matrix(0, 41.1, 41.1, 0, -84252.22, -27195.96)" xlink:href="#radial-gradient-2"/><clipPath id="clip-path-12"><polygon class="cls-1" points="932.82 999.31 1006.74 1062.87 1012.39 1056.38 938.44 992.77 932.82 999.31"/></clipPath><radialGradient id="radial-gradient-6" cx="701.51" cy="2057.08" r="24.04" gradientTransform="matrix(0, 41.1, 41.1, 0, -84239.75, -27245.35)" xlink:href="#radial-gradient-2"/><clipPath id="clip-path-13"><path class="cls-1" d="M982.65,952.82c-5.33.14-10.26,2.43-14.83,6.85q-7,6.93-7.52,15.41c-.32,5.67,1.73,10.79,6.2,15.36a19,19,0,0,0,8.65,5,50.79,50.79,0,0,0,12.33,1.66l22.1.82A87.68,87.68,0,0,1,1025,999.7a19.54,19.54,0,0,1,9.91,5.45c3.17,3.2,4.76,6.54,4.73,10s-1.58,6.75-4.73,9.83a17,17,0,0,1-6.47,4,14.77,14.77,0,0,1-7.07.29,28.91,28.91,0,0,1-6.75-2.43,35.54,35.54,0,0,1-6.4-4.28l-3.84,6.92a38.28,38.28,0,0,0,8.51,5,31.21,31.21,0,0,0,9,2.36,20.63,20.63,0,0,0,9-1.06,22.12,22.12,0,0,0,8.15-5.19c4.85-4.76,7.5-10,7.93-15.68s-1.83-11-6.64-16a24.38,24.38,0,0,0-3.22-2.6c-1.2-.81-2.3-1.44-3.27-2a17.71,17.71,0,0,0-3.87-1.4c-1.58-.4-2.83-.72-3.72-.91a33.1,33.1,0,0,0-4.26-.67c-1.92-.19-3.27-.31-4-.34l-4.42-.26c-2.21-.12-3.58-.2-4.18-.22l-21.16-1.13a40.83,40.83,0,0,1-9.76-1.54,15.4,15.4,0,0,1-6.75-4c-3-3.06-4.36-6.25-4-9.62s2-6.51,5-9.54a13.76,13.76,0,0,1,10.94-4.16,23,23,0,0,1,12.12,4.88l.6.45,3.63-6.65-.75-.53c-5.5-3.85-10.82-5.82-15.89-5.82Z"/></clipPath><radialGradient id="radial-gradient-7" cx="701.5" cy="2057.07" r="24.04" gradientTransform="matrix(0, 41.1, 41.1, 0, -84245.91, -27308.37)" xlink:href="#radial-gradient-2"/><clipPath id="clip-path-14"><polygon class="cls-1" points="1003.13 929.57 1063.66 1005.99 1070.4 1000.61 1041.16 963.68 1056.93 951.16 1052.92 946.04 1037.1 958.56 1014.17 929.62 1034.27 913.68 1029.99 908.27 1003.13 929.57"/></clipPath><radialGradient id="radial-gradient-8" cx="701.5" cy="2057.08" r="24.04" gradientTransform="matrix(0, 41.09, 41.09, 0, -84244.31, -27374.73)" xlink:href="#radial-gradient-2"/><clipPath id="clip-path-15"><path class="cls-1" d="M1065.06,895.63l39.54,42.89-17.18,11Zm-9.47-4.54,36.18,92.52,7.31-4.64-9.45-24.08,19-12.07,17.74,18.77,7.33-4.73L1065,885.05Z"/></clipPath><radialGradient id="radial-gradient-9" cx="701.5" cy="2057.07" r="24.04" gradientTransform="matrix(0, 41.1, 41.1, 0, -84217.38, -27455.76)" xlink:href="#radial-gradient-2"/><clipPath id="clip-path-16"><path class="cls-1" d="M1131.55,850.19a23.74,23.74,0,0,0-10.57,2.7,27.77,27.77,0,0,0-8.15,5.55,18.5,18.5,0,0,0-4.45,6.78,20,20,0,0,0-1.23,7.76,33.43,33.43,0,0,0,1.32,8.39,67,67,0,0,0,3.49,8.78L1129.65,927a66.64,66.64,0,0,0,4.69,8.24,33.68,33.68,0,0,0,5.6,6.23,19.74,19.74,0,0,0,6.78,4,18.4,18.4,0,0,0,8.1.79,28.6,28.6,0,0,0,9.59-2.91,25.87,25.87,0,0,0,7.75-5.41,18.09,18.09,0,0,0,4.08-6.65,20.67,20.67,0,0,0,1-7.65,35.17,35.17,0,0,0-1.51-8.34,66,66,0,0,0-3.51-8.7l-2.09-4.31-7.41,3.56,2.94,6a45.7,45.7,0,0,1,2.93,7.81,20.81,20.81,0,0,1,.72,6.92,10.94,10.94,0,0,1-2.14,6,14.66,14.66,0,0,1-5.67,4.44,16.84,16.84,0,0,1-7.69,2,10.41,10.41,0,0,1-6.33-2,21.33,21.33,0,0,1-5-4.83,44.1,44.1,0,0,1-4.21-7.19l-19.37-40.29a48.69,48.69,0,0,1-2.57-6.25,31.45,31.45,0,0,1-1.21-5.79,12.92,12.92,0,0,1,.6-5.26,11.54,11.54,0,0,1,2.79-4.55,18.11,18.11,0,0,1,5.41-3.77,14.68,14.68,0,0,1,7-1.66,11.5,11.5,0,0,1,6,2,22.23,22.23,0,0,1,5,4.93,41.5,41.5,0,0,1,4.26,7.18l2.59,5.27,7.36-3.51-1.68-3.56q-9.42-19.54-22.89-19.57h0"/></clipPath><radialGradient id="radial-gradient-10" cx="701.51" cy="2057.08" r="24.04" gradientTransform="matrix(0, 41.1, 41.1, 0, -84205.96, -27536.58)" xlink:href="#radial-gradient-2"/><clipPath id="clip-path-17"><polygon class="cls-1" points="1155.23 838.73 1157.56 845.27 1175.47 838.97 1205.6 924.38 1213.74 921.52 1183.57 836.11 1201.63 829.71 1199.32 823.17 1155.23 838.73"/></clipPath><radialGradient id="radial-gradient-11" cx="701.5" cy="2057.07" r="24.04" gradientTransform="matrix(0, 41.1, 41.1, 0, -84193.17, -27603.17)" xlink:href="#radial-gradient-2"/><clipPath id="clip-path-18"><polygon class="cls-1" points="1213.6 819.52 1239.06 913.61 1247.33 911.42 1221.92 817.26 1213.6 819.52"/></clipPath><radialGradient id="radial-gradient-12" cx="701.51" cy="2057.08" r="24.04" gradientTransform="matrix(0, 41.09, 41.09, 0, -84151.94, -27655.02)" xlink:href="#radial-gradient-2"/><clipPath id="clip-path-19"><path class="cls-1" d="M1266.58,879.62l-7.47-44q-3.46-20.6,12.57-23.3c10.7-1.85,17.16,4.16,19.47,17.82l7.5,44.11c2.33,13.75-1.83,21.61-12.52,23.37a21.63,21.63,0,0,1-3.61.33q-12.84,0-15.94-18.29m3.92-74.21a30.07,30.07,0,0,0-9.47,3.2,19.47,19.47,0,0,0-6.27,5.26,21.35,21.35,0,0,0-3.44,7.14,30.71,30.71,0,0,0-1.18,8.46,54,54,0,0,0,.79,9.47l6.85,40.25c3.32,19.59,13.13,27.95,29.48,25.24s22.86-14,19.57-33.54L1300,830.6a47.27,47.27,0,0,0-2.35-9.21,29.33,29.33,0,0,0-3.9-7.57,21.43,21.43,0,0,0-5.55-5.6,19.23,19.23,0,0,0-7.69-2.91,23.57,23.57,0,0,0-4.38-.38,36.32,36.32,0,0,0-5.6.48"/></clipPath><radialGradient id="radial-gradient-13" cx="701.5" cy="2057.07" r="24.04" gradientTransform="matrix(0, 41.1, 41.1, 0, -84119.56, -27715.2)" xlink:href="#radial-gradient-2"/><clipPath id="clip-path-20"><polygon class="cls-1" points="1360.53 798.65 1363.2 875.84 1329.69 799.71 1323.05 799.95 1326.42 897.38 1333.85 897.12 1331.22 821.61 1364.76 896.06 1371.18 895.87 1367.84 798.39 1360.53 798.65"/></clipPath><radialGradient id="radial-gradient-14" cx="701.5" cy="2057.07" r="24.04" gradientTransform="matrix(0, 41.1, 41.1, 0, -84066.53, -27790.51)" xlink:href="#radial-gradient-2"/><clipPath id="clip-path-21"><path class="cls-1" d="M1449.36,833.82,1441,874.4c-.22,1.18-.41,2.36-.6,3.3s-.32,2.23-.46,3.87-.19,3-.19,4.27a41.64,41.64,0,0,0,.53,4.4,16.84,16.84,0,0,0,1.25,4.38,26.38,26.38,0,0,0,2.3,4.13,19.15,19.15,0,0,0,3.63,3.73,30.26,30.26,0,0,0,5.15,2.93,33.58,33.58,0,0,0,6.9,2.09,20.14,20.14,0,0,0,11.22-.74,16.09,16.09,0,0,0,8.3-6.49l.6,9.83,3.7.75,9.35-45.56-20.17-4.13-1.27,6.37L1483,870l-3.29,16.11a30.76,30.76,0,0,1-1.92,6.28,21.79,21.79,0,0,1-3.37,5.12,11.11,11.11,0,0,1-5.53,3.31,16.44,16.44,0,0,1-7.84,0,19,19,0,0,1-7.69-3.12,10.92,10.92,0,0,1-4.11-5.15,19.08,19.08,0,0,1-1.13-6,27.69,27.69,0,0,1,.7-6.71l9.73-47.72a33.13,33.13,0,0,1,2.31-7.07,22,22,0,0,1,3.9-5.53,12.43,12.43,0,0,1,6.1-3.36,21,21,0,0,1,13.9,2.11,8.2,8.2,0,0,1,3.27,3.61,21.94,21.94,0,0,1,1.56,4.23,15.28,15.28,0,0,1,.12,5.48c-.22,2.33-.43,4.21-.65,5.58s-.65,3.44-1.2,6.15a5.59,5.59,0,0,1-.17.72l-.14.72,8.43,1.76.15-.7c.53-2.64,1-5,1.25-7.19s.43-4.39.53-6.73a33.47,33.47,0,0,0-.41-6.29,22.51,22.51,0,0,0-1.66-5.51,15.52,15.52,0,0,0-3.15-4.74,18.25,18.25,0,0,0-5-3.51,26.82,26.82,0,0,0-7.07-2.38,35.19,35.19,0,0,0-7-.76q-19,0-24.23,25.21"/></clipPath><radialGradient id="radial-gradient-15" cx="701.51" cy="2057.08" r="24.04" gradientTransform="matrix(0, 41.09, 41.09, 0, -83932.22, -27898.68)" xlink:href="#radial-gradient-2"/><clipPath id="clip-path-22"><path class="cls-1" d="M1504.14,891.73a50.63,50.63,0,0,0-2,7.77,28,28,0,0,0,0,7.31,18.9,18.9,0,0,0,2.46,6.78,21.76,21.76,0,0,0,5.65,5.84,33.77,33.77,0,0,0,9.25,4.66c15.31,5.39,25.75,0,31.35-16l24.25-69.45-8.07-2.84-24.91,71.33c-1.8,5.24-4.35,8.75-7.52,10.55s-7.45,1.8-12.82-.07c-5.64-2-9.25-4.69-10.72-8.1s-1.32-7.79.58-13.06l24.86-71.3-8.15-2.81Z"/></clipPath><radialGradient id="radial-gradient-16" cx="701.51" cy="2057.08" r="24.04" gradientTransform="matrix(0, 41.09, 41.09, 0, -83848.25, -27952.27)" xlink:href="#radial-gradient-2"/><clipPath id="clip-path-23"><path class="cls-1" d="M1580.06,913.56l34.71-46.88-16.47,56Zm-27,21.25,7.71,3.92,15.82-20.53,20.1,10.1-7,24.88,7.81,3.82,26.3-95.8-10-5Z"/></clipPath><radialGradient id="radial-gradient-17" cx="701.51" cy="2057.08" r="24.04" gradientTransform="matrix(0, 41.1, 41.1, 0, -83773.11, -27973.88)" xlink:href="#radial-gradient-2"/><clipPath id="clip-path-24"><path class="cls-1" d="M1664.94,934a11.89,11.89,0,0,1-6-2.24l-14.4-9.54,20-30.1,14.47,9.59a13,13,0,0,1,3.73,3.68,9.09,9.09,0,0,1,1.54,4.09,12,12,0,0,1-.39,4.57,23.77,23.77,0,0,1-1.73,4.68,53.51,53.51,0,0,1-2.83,4.81,45.28,45.28,0,0,1-4.19,5.34,22.2,22.2,0,0,1-4.61,3.75,9.25,9.25,0,0,1-4.79,1.39l-.72,0m-57.79,28.82,7.19,4.76L1640.66,928l13.66,9-14.5,47.55,7.65,5.05,14.35-48.85c9.4,2.26,17.52-1.83,24.42-12.16a55,55,0,0,0,3.9-6.81,29.22,29.22,0,0,0,2.16-6.85,16.23,16.23,0,0,0,0-6.66,16.9,16.9,0,0,0-3-6.32,26.83,26.83,0,0,0-6.51-5.94l-21.62-14.37Z"/></clipPath><radialGradient id="radial-gradient-18" cx="701.5" cy="2057.07" r="24.04" gradientTransform="matrix(0, 41.1, 41.1, 0, -83692.09, -28009.93)" xlink:href="#radial-gradient-2"/><clipPath id="clip-path-25"><path class="cls-1" d="M1684.32,979.86l45.14-36.92-29.71,50.24Zm-31.45,14,6.57,5.65,20.36-16,17,14.66-12.91,22.41,6.61,5.69,49-86.42-8.46-7.33Z"/></clipPath><radialGradient id="radial-gradient-19" cx="701.5" cy="2057.08" r="24.04" gradientTransform="matrix(0, 41.1, 41.1, 0, -83599.24, -28012.89)" xlink:href="#radial-gradient-2"/><clipPath id="clip-path-26"><polygon class="cls-1" points="1698.45 1034.24 1703.45 1039.77 1759.56 989.14 1724.17 1062.7 1728.5 1067.51 1800.89 1002.2 1796.01 996.79 1738.67 1048.52 1775.28 973.85 1770.84 968.97 1698.45 1034.24"/></clipPath><radialGradient id="radial-gradient-20" cx="701.51" cy="2057.08" r="24.04" gradientTransform="matrix(0, 41.1, 41.1, 0, -83508.15, -28028.87)" xlink:href="#radial-gradient-2"/><clipPath id="clip-path-27"><polygon class="cls-1" points="1806.37 1019.91 1817.45 1035.37 1743.86 1088.16 1748.86 1095.13 1822.47 1042.34 1833.63 1057.89 1839.25 1053.88 1812.02 1015.92 1806.37 1019.91"/></clipPath><radialGradient id="radial-gradient-21" cx="701.51" cy="2057.08" r="24.04" gradientTransform="matrix(0, 41.09, 41.09, 0, -83428.63, -28034.54)" xlink:href="#radial-gradient-2"/><clipPath id="clip-path-28"><polygon class="cls-1" points="1763.58 1117.01 1780.67 1146.36 1786.65 1142.92 1773.87 1120.97 1808.63 1100.73 1817.76 1116.41 1823.36 1113.11 1814.25 1097.44 1846.2 1078.88 1858.96 1100.81 1864.93 1097.32 1847.81 1067.92 1763.58 1117.01"/></clipPath><radialGradient id="radial-gradient-22" cx="701.5" cy="2057.08" r="24.04" gradientTransform="matrix(0, 41.1, 41.1, 0, -83359.92, -28009.78)" xlink:href="#radial-gradient-2"/><clipPath id="clip-path-29"><polygon class="cls-1" points="1785.98 1157.2 1800.19 1188.07 1806.46 1185.16 1795.86 1162.13 1832.42 1145.35 1839.97 1161.79 1845.91 1159.08 1838.36 1142.59 1871.92 1127.18 1882.48 1150.3 1888.8 1147.39 1874.57 1116.5 1785.98 1157.2"/></clipPath><radialGradient id="radial-gradient-23" cx="701.51" cy="2057.08" r="24.04" gradientTransform="matrix(0, 41.09, 41.09, 0, -83289.47, -27988.93)" xlink:href="#radial-gradient-2"/><clipPath id="clip-path-30"><path class="cls-1" d="M912.24,1576.45a18.51,18.51,0,0,0-7.31,6.73,53.31,53.31,0,0,0-5.19,11.23l-7.21,20.79a83,83,0,0,1-6.08,14.09,19.75,19.75,0,0,1-8.06,7.86c-4,2.07-7.57,2.57-10.82,1.59s-6-3.46-8-7.38a15.16,15.16,0,0,1-1.88-7.31,13.65,13.65,0,0,1,1.73-6.73,26.3,26.3,0,0,1,4.23-5.72,33.74,33.74,0,0,1,5.92-4.83l-5.43-5.68a38.39,38.39,0,0,0-7.24,6.66,32.1,32.1,0,0,0-4.86,7.81,21.58,21.58,0,0,0-1.58,8.83,21.11,21.11,0,0,0,2.62,9.28c3,6,7.26,10,12.55,12.06s11,1.52,17.09-1.65a18.15,18.15,0,0,0,3.46-2.31c1.11-.92,2-1.71,2.84-2.48a19.72,19.72,0,0,0,2.47-3.27c.82-1.44,1.52-2.5,2-3.32a30.78,30.78,0,0,0,1.85-3.84c.72-1.78,1.25-3,1.51-3.73s.73-2,1.5-4,1.25-3.43,1.44-3.94l7.19-19.78a42.27,42.27,0,0,1,4.27-8.83,15.72,15.72,0,0,1,5.73-5.28c3.79-1.93,7.21-2.31,10.33-1.06s5.65,3.77,7.58,7.57a13.77,13.77,0,0,1,.84,11.61,22.8,22.8,0,0,1-8.18,10l-.65.45,5.34,5.41.72-.6q8.16-6.37,10.29-14c1.42-5.09.65-10.48-2.26-16.08-3-5.82-7.14-9.69-12.45-11.63a17.77,17.77,0,0,0-6.4-1.18,21.45,21.45,0,0,0-9.9,2.64"/></clipPath><radialGradient id="radial-gradient-24" cx="702.66" cy="2056.01" r="24.04" gradientTransform="matrix(41.1, 0, 0, -41.1, -27358.1, 86222.42)" xlink:href="#radial-gradient-2"/><clipPath id="clip-path-31"><path class="cls-1" d="M905.87,1660.57,959,1637.34l-41.9,40.1Zm-33.75,5,4.76,7.19,23.73-9.86,12.33,18.61-18.32,18,4.83,7.21,70.1-69.5-6.23-9.28Z"/></clipPath><radialGradient id="radial-gradient-25" cx="702.66" cy="2056.01" r="24.04" gradientTransform="matrix(41.1, 0, 0, -41.1, -27357.14, 86221.87)" xlink:href="#radial-gradient-2"/><clipPath id="clip-path-32"><polygon class="cls-1" points="972.99 1654.89 984.84 1669.53 914.88 1726.1 920.25 1732.73 990.22 1676.19 1002.2 1690.95 1007.51 1686.67 978.33 1650.57 972.99 1654.89"/></clipPath><radialGradient id="radial-gradient-26" cx="702.66" cy="2056.01" r="24.04" gradientTransform="matrix(41.09, 0, 0, -41.09, -27354.49, 86214.44)" xlink:href="#radial-gradient-2"/><clipPath id="clip-path-33"><polygon class="cls-1" points="941.11 1756.75 946.93 1763.02 1017.77 1697.06 1011.93 1690.76 941.11 1756.75"/></clipPath><radialGradient id="radial-gradient-27" cx="702.66" cy="2056.01" r="24.04" gradientTransform="matrix(41.1, 0, 0, -41.1, -27358.84, 86228.97)" xlink:href="#radial-gradient-2"/><clipPath id="clip-path-34"><path class="cls-1" d="M1012.44,1720.21a19.41,19.41,0,0,0-4.55,8.82,58,58,0,0,0-1,12.36l.43,22a82.73,82.73,0,0,1-.84,15.36,19.86,19.86,0,0,1-4.83,10.12c-3,3.27-6.22,5-9.66,5.22s-6.73-1.21-9.95-4.16a15.51,15.51,0,0,1-4.31-6.23,13.44,13.44,0,0,1-.7-6.92,26.69,26.69,0,0,1,2-6.83,32.38,32.38,0,0,1,3.89-6.56l-7.07-3.49a44.15,44.15,0,0,0-4.47,8.75,31.05,31.05,0,0,0-1.85,9,21.27,21.27,0,0,0,1.56,8.85,22,22,0,0,0,5.6,7.81c5,4.54,10.32,6.88,16,7s10.82-2.4,15.46-7.5a15.9,15.9,0,0,0,2.45-3.34c.75-1.25,1.3-2.33,1.81-3.32a16.85,16.85,0,0,0,1.15-3.89l.72-3.8a30,30,0,0,0,.41-4.23c0-2,.12-3.32.12-4v-8.55l-.07-21a42.17,42.17,0,0,1,1-9.81,15.35,15.35,0,0,1,3.54-7c2.83-3.12,6-4.64,9.3-4.54s6.59,1.59,9.76,4.5a13.52,13.52,0,0,1,4.71,10.62,22.52,22.52,0,0,1-4.11,12.24l-.45.67,6.82,3.15.48-.72c3.63-5.94,5.29-11.52,4.84-16.73s-3-10.08-7.67-14.31c-4.83-4.37-10.08-6.58-15.68-6.58s-10.57,2.33-14.85,7"/></clipPath><radialGradient id="radial-gradient-28" cx="702.66" cy="2056.01" r="24.04" gradientTransform="matrix(41.09, 0, 0, -41.09, -27354.98, 86218.4)" xlink:href="#radial-gradient-2"/><clipPath id="clip-path-35"><polygon class="cls-1" points="1009.67 1820.36 1016.52 1825.55 1044.6 1788.07 1060.64 1800.12 1064.51 1794.92 1048.5 1782.9 1070.52 1753.58 1090.9 1768.87 1095.01 1763.38 1067.8 1742.95 1009.67 1820.36"/></clipPath><radialGradient id="radial-gradient-29" cx="702.65" cy="2056.01" r="24.04" gradientTransform="matrix(41.1, 0, 0, -41.1, -27357.82, 86227.54)" xlink:href="#radial-gradient-2"/><clipPath id="clip-path-36"><path class="cls-1" d="M1072.54,1827l38.34-43.39-21,54ZM1044,1845.82l7.36,4.51,17.38-18.94,19,11.66-9,24,7.38,4.5,34.18-92.58-9.52-5.82Z"/></clipPath><radialGradient id="radial-gradient-30" cx="702.65" cy="2056.01" r="24.04" gradientTransform="matrix(41.1, 0, 0, -41.1, -27358.11, 86229.8)" xlink:href="#radial-gradient-2"/><clipPath id="clip-path-37"><path class="cls-1" d="M1147.47,1799.08a21.13,21.13,0,0,0-6.73,3.94,33.25,33.25,0,0,0-5.61,6.26,66.75,66.75,0,0,0-4.61,8.24l-17.17,36.71a62.81,62.81,0,0,0-3.41,8.75,31,31,0,0,0-1.32,8.24,20,20,0,0,0,1.13,7.75,19.48,19.48,0,0,0,4.54,6.7,29,29,0,0,0,8.25,5.6,26.35,26.35,0,0,0,9,2.5,17.65,17.65,0,0,0,7.64-1,19.88,19.88,0,0,0,6.52-4.14,33.18,33.18,0,0,0,5.45-6.34,60.54,60.54,0,0,0,4.55-8.18l2-4.32-7.38-3.44-2.83,6a44.34,44.34,0,0,1-4.16,7.21,23,23,0,0,1-4.86,4.88,11.63,11.63,0,0,1-6,2.12,14.67,14.67,0,0,1-7-1.56,16.82,16.82,0,0,1-6.32-4.67,11,11,0,0,1-2.45-6.17,21,21,0,0,1,.6-6.78,44.62,44.62,0,0,1,3-7.79l18.82-40.22a53,53,0,0,1,3.22-5.91,26.63,26.63,0,0,1,3.7-4.55,13.79,13.79,0,0,1,4.4-2.91,12.25,12.25,0,0,1,5.32-.65,17.06,17.06,0,0,1,6.27,1.81,13.91,13.91,0,0,1,5.63,4.37,10.72,10.72,0,0,1,2.26,5.94,21.51,21.51,0,0,1-.65,6.88,41.6,41.6,0,0,1-2.86,7.81l-2.53,5.29,7.43,3.46,1.66-3.58q12.54-26.73-8-36.35a27.74,27.74,0,0,0-9.45-2.77c-.74-.07-1.49-.12-2.21-.12a18.07,18.07,0,0,0-5.79.94"/></clipPath><radialGradient id="radial-gradient-31" cx="702.66" cy="2056.01" r="24.04" gradientTransform="matrix(41.1, 0, 0, -41.1, -27355.8, 86223.03)" xlink:href="#radial-gradient-2"/><clipPath id="clip-path-38"><polygon class="cls-1" points="1183.93 1818.82 1201.75 1825.09 1171.84 1909.98 1179.94 1912.81 1209.8 1827.93 1227.73 1834.25 1230.04 1827.74 1186.22 1812.38 1183.93 1818.82"/></clipPath><radialGradient id="radial-gradient-32" cx="702.66" cy="2056.01" r="24.04" gradientTransform="matrix(41.09, 0, 0, -41.09, -27353.25, 86215.33)" xlink:href="#radial-gradient-2"/><clipPath id="clip-path-39"><polygon class="cls-1" points="1210.09 1922.26 1218.34 1924.55 1244.08 1831.2 1235.79 1828.91 1210.09 1922.26"/></clipPath><radialGradient id="radial-gradient-33" cx="702.65" cy="2056.01" r="24.04" gradientTransform="matrix(41.1, 0, 0, -41.1, -27357.02, 86226.88)" xlink:href="#radial-gradient-2"/><clipPath id="clip-path-40"><path class="cls-1" d="M1265.19,1929.57c-10.58-1.9-14.64-9.74-12.14-23.39l7.93-43.66q3.72-20.44,19.57-17.57t12.24,23.34l-8,43.66c-2.16,12-7.45,18-15.86,18a19,19,0,0,1-3.75-.34m6.71-91.62a19.59,19.59,0,0,0-7.67,2.84,20.22,20.22,0,0,0-5.6,5.48,29.35,29.35,0,0,0-4,7.5,54.09,54.09,0,0,0-2.43,9l-7.24,40c-3.53,19.42,2.79,30.55,19,33.53s26-5.31,29.59-24.73l7.24-39.91a54.45,54.45,0,0,0,1-9.35,32,32,0,0,0-1.08-8.44,22.15,22.15,0,0,0-3.37-7.11,20.14,20.14,0,0,0-6.2-5.34,27.6,27.6,0,0,0-9.33-3.22,32.26,32.26,0,0,0-5.94-.55,26.37,26.37,0,0,0-4,.28"/></clipPath><radialGradient id="radial-gradient-34" cx="702.66" cy="2056.01" r="24.04" gradientTransform="matrix(41.1, 0, 0, -41.1, -27355.71, 86222.9)" xlink:href="#radial-gradient-2"/><clipPath id="clip-path-41"><polygon class="cls-1" points="1312.55 1941.92 1319.88 1942.31 1324.11 1867.4 1350.55 1944.07 1356.95 1944.4 1362.4 1847.71 1355.14 1847.31 1350.84 1923.9 1324.49 1845.62 1317.95 1845.24 1312.55 1941.92"/></clipPath><radialGradient id="radial-gradient-35" cx="702.66" cy="2056.01" r="24.04" gradientTransform="matrix(41.1, 0, 0, -41.1, -27353.77, 86216.36)" xlink:href="#radial-gradient-2"/><clipPath id="clip-path-42"><path class="cls-1" d="M1446.69,1839.18c-16.78,2.79-23.56,14-20.22,33.82l6.68,40.51c.24,1.27.44,2.4.63,3.32s.48,2.21.91,3.7a35,35,0,0,0,1.35,4.09c.53,1.13,1.2,2.45,2,3.89a21.68,21.68,0,0,0,2.74,3.66,24.13,24.13,0,0,0,3.63,2.95,21.2,21.2,0,0,0,4.69,2.21,31,31,0,0,0,5.79.87,34,34,0,0,0,7.14-.51,20.61,20.61,0,0,0,10.2-4.68,16.15,16.15,0,0,0,5.33-9l4.06,8.91,3.68-.64-7.52-45.56-20.17,3.34,1.08,6.37,11.71-1.92,2.69,16.13a29.16,29.16,0,0,1,.41,6.51,20.15,20.15,0,0,1-1.25,5.94,11,11,0,0,1-4,5,16.73,16.73,0,0,1-7.18,2.82,19.4,19.4,0,0,1-8.32-.15,10.86,10.86,0,0,1-5.6-3.32,18.2,18.2,0,0,1-3.22-5.19,30.76,30.76,0,0,1-1.78-6.49l-7.86-47.72a29.84,29.84,0,0,1-.41-7.38,19.56,19.56,0,0,1,1.61-6.56,12.7,12.7,0,0,1,4.42-5.22,21.65,21.65,0,0,1,13.68-3A8.6,8.6,0,0,1,1458,1848a30.14,30.14,0,0,1,3,3.43,16.21,16.21,0,0,1,2.07,5c.6,2.26,1,4.09,1.32,5.46s.7,3.39,1.1,6.13a3.15,3.15,0,0,0,.15.7l.09.72,8.42-1.42-.07-.62c-.46-2.67-.92-5-1.45-7.14a52.3,52.3,0,0,0-1.92-6.45,34,34,0,0,0-2.57-5.74,23.05,23.05,0,0,0-3.54-4.42,15.25,15.25,0,0,0-4.56-3.27,16.74,16.74,0,0,0-5.92-1.54c-.72-.07-1.54-.12-2.33-.12a30.77,30.77,0,0,0-5,.43"/></clipPath><radialGradient id="radial-gradient-36" cx="702.66" cy="2056.01" r="24.04" gradientTransform="matrix(41.1, 0, 0, -41.1, -27353.2, 86212.45)" xlink:href="#radial-gradient-2"/><clipPath id="clip-path-43"><path class="cls-1" d="M1518.88,1822.91l21.27,71.92c1.57,5.27,1.57,9.57.07,12.91s-5,5.7-10.38,7.28c-5.7,1.71-10.17,1.64-13.37-.24s-5.57-5.55-7.14-10.86l-21.27-71.9-8.25,2.38,20.8,70.07a41.91,41.91,0,0,0,2.88,7.38,23.8,23.8,0,0,0,4.26,5.92,18.22,18.22,0,0,0,5.94,4.06,21.68,21.68,0,0,0,7.9,1.42,35.63,35.63,0,0,0,10.17-1.61q23.19-6.9,16-31.11l-20.75-70Z"/></clipPath><radialGradient id="radial-gradient-37" cx="702.65" cy="2056.01" r="24.04" gradientTransform="matrix(41.1, 0, 0, -41.1, -27354.86, 86215.6)" xlink:href="#radial-gradient-2"/><clipPath id="clip-path-44"><path class="cls-1" d="M1560.92,1816.2l31.86,48.39-18.66,8Zm-8.6-6,20.57,96.52,7.94-3.37-5.39-25.12,20.56-8.82,14.37,21.27,7.94-3.43-55.75-81.45Z"/></clipPath><radialGradient id="radial-gradient-38" cx="702.66" cy="2056.01" r="24.04" gradientTransform="matrix(41.09, 0, 0, -41.09, -27352.54, 86206.71)" xlink:href="#radial-gradient-2"/><clipPath id="clip-path-45"><path class="cls-1" d="M1598.71,1795.91l15-8.53a12.71,12.71,0,0,1,4.93-1.69,9.63,9.63,0,0,1,4.35.46,11.35,11.35,0,0,1,3.85,2.38,20.2,20.2,0,0,1,3.38,3.6,45.62,45.62,0,0,1,3,4.69,37.52,37.52,0,0,1,2.86,6.06,22.36,22.36,0,0,1,1.3,5.77,9.49,9.49,0,0,1-1.25,5.51,11.89,11.89,0,0,1-4.66,4.32l-14.91,8.54Zm19.79-17.6a25.87,25.87,0,0,0-8.18,3.1l-22.42,12.77,48.1,84.11,7.4-4.23L1619.94,1833l14.09-8.1,35.79,34.06,7.86-4.54-37-34.52c6.2-7.36,6.27-16.37.09-27a45,45,0,0,0-4.35-6.52,26.63,26.63,0,0,0-5-4.93,17.27,17.27,0,0,0-5.94-3,13.72,13.72,0,0,0-3.51-.43,20.11,20.11,0,0,0-3.46.33"/></clipPath><radialGradient id="radial-gradient-39" cx="702.66" cy="2056.01" r="24.04" gradientTransform="matrix(41.1, 0, 0, -41.1, -27355.1, 86212.3)" xlink:href="#radial-gradient-2"/><clipPath id="clip-path-46"><path class="cls-1" d="M1658.36,1760.47l42,39.93-16.33,12Zm-9.74-3.87,42,89.34,6.93-5.1-11-23.25,18-13.24,18.85,17.45,7-5.12L1657.59,1750Z"/></clipPath><radialGradient id="radial-gradient-40" cx="702.66" cy="2056.01" r="24.04" gradientTransform="matrix(41.1, 0, 0, -41.1, -27355.12, 86209.99)" xlink:href="#radial-gradient-2"/><clipPath id="clip-path-47"><polygon class="cls-1" points="1706.87 1707.59 1759.2 1763.67 1684.41 1728.53 1679.61 1733 1745.62 1803.87 1751.03 1798.79 1699.82 1743.91 1773.53 1777.86 1778.22 1773.5 1712.2 1702.66 1706.87 1707.59"/></clipPath><radialGradient id="radial-gradient-41" cx="702.66" cy="2056.01" r="24.04" gradientTransform="matrix(41.1, 0, 0, -41.1, -27355.91, 86209.57)" xlink:href="#radial-gradient-2"/><clipPath id="clip-path-48"><polygon class="cls-1" points="1715.42 1699.34 1720.59 1703.86 1732.97 1689.63 1800.89 1748.65 1806.49 1742.23 1738.6 1683.14 1751.05 1668.81 1745.88 1664.32 1715.42 1699.34"/></clipPath><radialGradient id="radial-gradient-42" cx="702.66" cy="2056.01" r="24.04" gradientTransform="matrix(41.09, 0, 0, -41.09, -27355.16, 86204.49)" xlink:href="#radial-gradient-2"/><clipPath id="clip-path-49"><polygon class="cls-1" points="1748.79 1660.04 1827.18 1716.8 1847.02 1689.49 1841.44 1685.42 1826.66 1705.88 1794.32 1682.44 1804.85 1667.83 1799.64 1664.08 1789.08 1678.62 1759.35 1657.13 1774.18 1636.72 1768.55 1632.7 1748.79 1660.04"/></clipPath><radialGradient id="radial-gradient-43" cx="702.66" cy="2056.01" r="24.04" gradientTransform="matrix(41.09, 0, 0, -41.09, -27354.9, 86201.56)" xlink:href="#radial-gradient-2"/><clipPath id="clip-path-50"><polygon class="cls-1" points="1773.72 1624.32 1856.97 1673.84 1874.25 1644.87 1868.32 1641.34 1855.48 1662.99 1821.13 1642.56 1830.33 1627.1 1824.76 1623.79 1815.55 1639.22 1784.06 1620.49 1796.89 1598.81 1791.01 1595.32 1773.72 1624.32"/></clipPath><radialGradient id="radial-gradient-44" cx="702.66" cy="2056.01" r="24.04" gradientTransform="matrix(41.1, 0, 0, -41.1, -27357.3, 86206.36)" xlink:href="#radial-gradient-2"/><clipPath id="clip-path-51"><polygon class="cls-1" points="1877.4 1339.66 1841.63 1343 1868.63 1366.71 1860.77 1401.76 1891.68 1383.46 1922.57 1401.76 1914.64 1366.71 1941.61 1342.98 1905.89 1339.66 1891.63 1306.68 1877.4 1339.66"/></clipPath><radialGradient id="radial-gradient-45" cx="691.24" cy="2048.28" r="24.04" gradientTransform="matrix(82.42, 0, 0, -82.42, -55584.68, 170907.72)" xlink:href="#radial-gradient-2"/><clipPath id="clip-path-52"><polygon class="cls-1" points="1861.99 1236 1838.36 1246.46 1862.16 1256.46 1864.76 1282.23 1881.71 1262.69 1907 1268.12 1893.61 1246.03 1906.61 1223.65 1881.44 1229.49 1864.18 1210.23 1861.99 1236"/></clipPath><radialGradient id="radial-gradient-46" cx="699.57" cy="2046.47" r="24.04" gradientTransform="matrix(59.34, 0, 0, -59.34, -39997.81, 123205.11)" xlink:href="#radial-gradient-2"/><clipPath id="clip-path-53"><polygon class="cls-1" points="1872.79 1464.26 1847.67 1458.13 1860.38 1480.61 1846.75 1502.56 1872.04 1497.43 1888.73 1517.22 1891.68 1491.55 1915.63 1481.81 1892.09 1471.06 1890.27 1445.27 1872.79 1464.26"/></clipPath><radialGradient id="radial-gradient-47" cx="692.39" cy="2055.28" r="24.04" gradientTransform="matrix(0, 59.34, 59.34, 0, -120600.58, -39969.52)" xlink:href="#radial-gradient-2"/><clipPath id="clip-path-54"><polygon class="cls-1" points="813.65 1339.66 777.91 1342.98 804.88 1366.71 796.95 1401.76 827.89 1383.46 858.75 1401.76 850.91 1366.71 877.86 1343 842.09 1339.66 827.93 1306.68 813.65 1339.66"/></clipPath><radialGradient id="radial-gradient-48" cx="675.51" cy="2048.28" r="24.04" gradientTransform="translate(57006.23 170905.28) rotate(180) scale(82.42)" xlink:href="#radial-gradient-2"/><clipPath id="clip-path-55"><polygon class="cls-1" points="838.05 1229.49 812.88 1223.65 825.89 1246.03 812.52 1268.12 837.81 1262.69 854.76 1282.23 857.36 1256.46 881.21 1246.46 857.53 1236 855.32 1210.23 838.05 1229.49"/></clipPath><radialGradient id="radial-gradient-49" cx="678.83" cy="2053.38" r="24.04" gradientTransform="translate(-121527.93 41888.04) rotate(-90) scale(59.34)" xlink:href="#radial-gradient-2"/><clipPath id="clip-path-56"><polygon class="cls-1" points="827.4 1471.06 803.89 1481.81 827.86 1491.55 830.84 1517.22 847.48 1497.43 872.82 1502.56 859.18 1480.61 871.85 1458.13 846.73 1464.26 829.28 1445.27 827.4 1471.06"/></clipPath><radialGradient id="radial-gradient-50" cx="671.75" cy="2048.07" r="24.04" gradientTransform="matrix(-59.34, 0, 0, -59.34, 41066.21, 123540.54)" xlink:href="#radial-gradient-2"/><clipPath id="clip-path-57"><path class="cls-1" d="M1132.49,1236.08c-3.73,8.51-9.76,15.67-18.2,21.68a57,57,0,0,1-26.63,10.55v27.17h33.12V1493.8h38.85V1236.08h-27.14Z"/></clipPath><linearGradient id="linear-gradient-7" x1="678.18" y1="2067.73" x2="702.22" y2="2067.73" gradientTransform="matrix(0, 40.4, 40.4, 0, -82419.3, -26128.43)" xlink:href="#linear-gradient"/><clipPath id="clip-path-58"><path class="cls-1" d="M1238.43,1450.22a21.83,21.83,0,0,1-6.46-15.84V1293.6a21.85,21.85,0,0,1,6.46-15.81,21.26,21.26,0,0,1,15.72-6.57,22.45,22.45,0,0,1,22.43,22.38v140.78a22.48,22.48,0,0,1-22.43,22.43,21.28,21.28,0,0,1-15.72-6.59m-26.59-199.46a59.34,59.34,0,0,0-18.12,43.64V1435a59.44,59.44,0,0,0,18,43.52c12,11.92,26.56,18,43.7,18a59.35,59.35,0,0,0,43.35-17.91c12.09-11.87,18.1-26.44,18.1-43.56V1294.4a59.53,59.53,0,0,0-17.91-43.54q-17.82-18.1-43.54-18.1a59.45,59.45,0,0,0-43.56,18"/></clipPath><linearGradient id="linear-gradient-8" x1="678.18" y1="2069.78" x2="702.22" y2="2069.78" gradientTransform="matrix(0, 40.4, 40.4, 0, -82371.32, -26228.71)" xlink:href="#linear-gradient"/><clipPath id="clip-path-59"><path class="cls-1" d="M1395.05,1450.22a21.84,21.84,0,0,1-6.47-15.84V1293.6a21.86,21.86,0,0,1,6.47-15.81,21.31,21.31,0,0,1,15.75-6.57,22.43,22.43,0,0,1,22.38,22.38v140.78a22.47,22.47,0,0,1-22.38,22.43,21.33,21.33,0,0,1-15.75-6.59m-26.59-199.46a59.31,59.31,0,0,0-18.12,43.64V1435a61.62,61.62,0,0,0,105.05,43.56c12-11.87,18.08-26.44,18.08-43.56V1294.4a59.88,59.88,0,0,0-17.86-43.54q-17.92-18.1-43.61-18.1a59.52,59.52,0,0,0-43.54,18"/></clipPath><linearGradient id="linear-gradient-9" x1="678.18" y1="2072.2" x2="702.22" y2="2072.2" gradientTransform="matrix(0, 40.4, 40.4, 0, -82313.55, -26347.91)" xlink:href="#linear-gradient"/><clipPath id="clip-path-60"><path class="cls-1" d="M1638,1471.11a11.4,11.4,0,0,1-3.36-8.36v-73.57a11.33,11.33,0,0,1,3.36-8.34,11.72,11.72,0,0,1,20,8.34v73.57a11.55,11.55,0,0,1-11.73,11.73,11.37,11.37,0,0,1-8.32-3.37m-13.84-104.31a30.91,30.91,0,0,0-9.5,22.77v73.56a30.45,30.45,0,0,0,9.5,22.55,32.33,32.33,0,0,0,45.41.07,30.38,30.38,0,0,0,9.42-22.62v-73.56a31.26,31.26,0,0,0-9.33-22.69,31.92,31.92,0,0,0-45.5-.08m19.93-141.2-131.57,272.51h22.79l131.37-272.51Zm-120.56,113.15a11.44,11.44,0,0,1-3.39-8.37v-73.61a11.75,11.75,0,0,1,20-8.27,11.16,11.16,0,0,1,3.39,8.27v73.61a11.78,11.78,0,0,1-20,8.37m-13.87-104.33a31,31,0,0,0-9.47,22.81v73.56a30.65,30.65,0,0,0,9.47,22.62,32.06,32.06,0,0,0,45.5,0,30.6,30.6,0,0,0,9.57-22.62v-73.56a32.42,32.42,0,0,0-32.26-32.26,31,31,0,0,0-22.81,9.45"/></clipPath><linearGradient id="linear-gradient-10" x1="678.18" y1="2075" x2="702.22" y2="2075" gradientTransform="matrix(0, 40.4, 40.4, 0, -82248.62, -26483.64)" xlink:href="#linear-gradient"/></defs><title>Asset 1</title><g id="Layer_2" data-name="Layer 2"><g id="Layer_1-2" data-name="Layer 1"><g class="cls-2"><rect class="cls-3" x="399.82" y="399.82" width="1930.52" height="1930.52" transform="translate(-565.44 1365.08) rotate(-45)"/></g><g class="cls-4"><rect class="cls-5" x="422.02" y="422.02" width="1886.12" height="1886.12" transform="translate(-565.44 1365.08) rotate(-45)"/></g><g class="cls-6"><rect class="cls-7" x="712.69" y="712.69" width="1304.79" height="1304.77"/></g><g class="cls-8"><rect class="cls-9" x="479.74" y="479.74" width="1770.68" height="1770.68" transform="translate(-557.34 1541.76) rotate(-50.25)"/></g><g class="cls-10"><rect class="cls-11" x="497.59" y="497.57" width="1735.02" height="1735.02" transform="translate(-557.33 1541.77) rotate(-50.25)"/></g><g class="cls-12"><rect class="cls-13" x="750.34" y="750.34" width="1229.49" height="1229.49" transform="translate(-557.34 1541.76) rotate(-50.25)"/></g><g class="cls-14"><rect class="cls-15" x="945.2" y="945.17" width="839.8" height="839.8"/></g><g class="cls-16"><rect class="cls-17" x="810.5" y="810.47" width="1109.2" height="1109.21" transform="translate(-557.32 1541.77) rotate(-50.25)"/></g><g class="cls-18"><rect class="cls-19" x="856.56" y="1104.06" width="71.5" height="101.97" transform="translate(-307.49 1986.22) rotate(-87.03)"/></g><g class="cls-20"><rect class="cls-21" x="884.06" y="1058.47" width="80.9" height="103.25" transform="translate(-232.07 1975.75) rotate(-87.03)"/></g><g class="cls-22"><rect class="cls-23" x="900.13" y="1001.2" width="85.01" height="98.97" transform="translate(-155.55 1937.52) rotate(-87.03)"/></g><g class="cls-24"><rect class="cls-25" x="935.54" y="986.27" width="74.13" height="83.1" transform="translate(-104.31 1945.77) rotate(-87.03)"/></g><g class="cls-26"><rect class="cls-27" x="959.3" y="949.16" width="88.73" height="91.62" transform="translate(-42.06 1945.65) rotate(-87.03)"/></g><g class="cls-28"><rect class="cls-29" x="986.23" y="921.01" width="101.08" height="72.24" transform="translate(27.12 1942.83) rotate(-87.03)"/></g><g class="cls-30"><rect class="cls-31" x="1043.4" y="892.78" width="102.48" height="83.11" transform="translate(104.76 1979.01) rotate(-87.03)"/></g><g class="cls-32"><rect class="cls-33" x="1092.26" y="860.78" width="99.87" height="75.17" transform="translate(185.75 1992.4) rotate(-87.03)"/></g><g class="cls-34"><rect class="cls-35" x="1132.43" y="841.93" width="104.11" height="63.69" transform="translate(250.42 2011.32) rotate(-87.03)"/></g><g class="cls-36"><rect class="cls-37" x="1181.48" y="846.09" width="97.97" height="38.68" transform="translate(302.34 2049.33) rotate(-87.03)"/></g><g class="cls-38"><rect class="cls-39" x="1227.51" y="823.41" width="105.19" height="65.25" transform="translate(358.79 2089.99) rotate(-87.03)"/></g><g class="cls-40"><rect class="cls-41" x="1296.44" y="821.29" width="101.36" height="53.2" transform="translate(430.46 2149.18) rotate(-87.03)"/></g><g class="cls-42"><rect class="cls-43" x="1416.29" y="828.05" width="105.12" height="63.36" transform="translate(534.06 2281.98) rotate(-87.03)"/></g><g class="cls-44"><rect class="cls-45" x="1483.09" y="836.51" width="110.83" height="78.76" transform="translate(583.95 2366.87) rotate(-87.03)"/></g><g class="cls-46"><rect class="cls-47" x="1536.26" y="868.65" width="104.33" height="75.91" transform="matrix(0.05, -1, 1, 0.05, 600.61, 2445.84)"/></g><g class="cls-48"><rect class="cls-49" x="1593.82" y="890.07" width="112.26" height="91.09" transform="translate(629.97 2534.79) rotate(-87.03)"/></g><g class="cls-50"><rect class="cls-51" x="1647.15" y="933.69" width="98.13" height="91.44" transform="translate(630.1 2622.51) rotate(-87.03)"/></g><g class="cls-52"><rect class="cls-53" x="1697.81" y="964.54" width="103.72" height="107.41" transform="translate(641.99 2712.71) rotate(-87.03)"/></g><g class="cls-54"><rect class="cls-55" x="1749.53" y="1005.84" width="84.05" height="99.37" transform="translate(644.48 2789.89) rotate(-87.03)"/></g><g class="cls-56"><rect class="cls-57" x="1772.45" y="1054.5" width="83.6" height="105.28" transform="translate(614.45 2861.49) rotate(-87.03)"/></g><g class="cls-58"><rect class="cls-59" x="1798.99" y="1099.09" width="76.81" height="106.39" transform="translate(591.3 2927.4) rotate(-87.03)"/></g><g class="cls-60"><rect class="cls-61" x="849.81" y="1573.04" width="95.45" height="75.52" transform="translate(-26.14 14.84) rotate(-0.93)"/></g><g class="cls-62"><rect class="cls-63" x="871.48" y="1627.08" width="98.7" height="80.36" transform="translate(-27.05 15.23) rotate(-0.93)"/></g><g class="cls-64"><rect class="cls-65" x="914.22" y="1649.82" width="93.95" height="83.67" transform="translate(-27.45 15.89) rotate(-0.93)"/></g><g class="cls-66"><rect class="cls-67" x="940.53" y="1690.14" width="77.83" height="73.5" transform="matrix(1, -0.02, 0.02, 1, -28.02, 16.19)"/></g><g class="cls-68"><rect class="cls-69" x="968.72" y="1712.58" width="83.09" height="89.52" transform="translate(-28.51 16.7) rotate(-0.93)"/></g><g class="cls-70"><rect class="cls-71" x="1009" y="1742.26" width="86.68" height="83.98" transform="translate(-28.94 17.39) rotate(-0.93)"/></g><g class="cls-72"><rect class="cls-73" x="1043.2" y="1772.58" width="77.94" height="99.63" transform="translate(-29.56 17.88) rotate(-0.93)"/></g><g class="cls-74"><rect class="cls-75" x="1107.7" y="1797.56" width="74.39" height="97" transform="translate(-29.94 18.91) rotate(-0.93)"/></g><g class="cls-76"><rect class="cls-77" x="1171.03" y="1811.91" width="59.83" height="101.37" transform="translate(-30.2 19.82) rotate(-0.93)"/></g><g class="cls-78"><rect class="cls-79" x="1209.31" y="1828.64" width="35.55" height="96.17" transform="translate(-30.43 20.25) rotate(-0.93)"/></g><g class="cls-80"><rect class="cls-81" x="1240.61" y="1837.18" width="61.99" height="102.56" transform="translate(-30.61 20.98) rotate(-0.93)"/></g><g class="cls-82"><rect class="cls-83" x="1311.74" y="1844.84" width="51.47" height="99.96" transform="translate(-30.71 22.05) rotate(-0.93)"/></g><g class="cls-84"><rect class="cls-85" x="1422.32" y="1838.25" width="63.83" height="100.52" transform="translate(-30.59 23.95) rotate(-0.93)"/></g><g class="cls-86"><rect class="cls-87" x="1478.98" y="1819.92" width="74.41" height="103.94" transform="translate(-30.31 24.96) rotate(-0.93)"/></g><g class="cls-88"><rect class="cls-89" x="1551.5" y="1805.26" width="67.62" height="101.98" transform="translate(-30.05 26.09) rotate(-0.93)"/></g><g class="cls-90"><rect class="cls-91" x="1587.08" y="1777.25" width="91.41" height="101.77" transform="translate(-29.58 26.86) rotate(-0.93)"/></g><g class="cls-92"><rect class="cls-93" x="1647.84" y="1749.36" width="83.34" height="97.24" transform="translate(-29.08 27.78) rotate(-0.93)"/></g><g class="cls-94"><rect class="cls-95" x="1678.79" y="1701.86" width="100.25" height="102.8" transform="translate(-28.35 28.41) rotate(-0.93)"/></g><g class="cls-96"><rect class="cls-97" x="1714.74" y="1663.58" width="92.42" height="85.8" transform="translate(-27.58 28.93) rotate(-0.93)"/></g><g class="cls-98"><rect class="cls-99" x="1748.11" y="1631.91" width="99.58" height="85.68" transform="matrix(1, -0.02, 0.02, 1, -27.06, 29.53)"/></g><g class="cls-100"><rect class="cls-101" x="1773.09" y="1594.51" width="101.8" height="80.14" transform="matrix(1, -0.02, 0.02, 1, -26.4, 29.95)"/></g><g class="cls-102"><rect class="cls-103" x="1841.63" y="1306.68" width="99.98" height="95.08"/></g><g class="cls-104"><rect class="cls-105" x="1828.74" y="1201.23" width="87.87" height="90" transform="translate(-297.92 655.87) rotate(-18.43)"/></g><g class="cls-106"><rect class="cls-107" x="1835.87" y="1436.87" width="90.63" height="88.74" transform="matrix(0.33, -0.94, 0.94, 0.33, -137.45, 2768.89)"/></g><g class="cls-108"><rect class="cls-109" x="777.91" y="1306.68" width="99.96" height="95.08"/></g><g class="cls-110"><rect class="cls-111" x="801.86" y="1202.27" width="90.02" height="87.92" transform="translate(-603.17 1655.73) rotate(-71.57)"/></g><g class="cls-112"><rect class="cls-113" x="793.96" y="1435.92" width="88.79" height="90.65" transform="translate(-441.48 359.22) rotate(-19.25)"/></g><g class="cls-114"><rect class="cls-115" x="1002.42" y="1253.7" width="242.44" height="222.48" transform="translate(-643.93 1328.53) rotate(-49.36)"/></g><g class="cls-116"><rect class="cls-117" x="1115.13" y="1232.02" width="280.3" height="265.2" transform="translate(-597.78 1428.31) rotate(-49.36)"/></g><g class="cls-118"><rect class="cls-119" x="1271.75" y="1232.02" width="280.3" height="265.2" transform="translate(-543.17 1547.15) rotate(-49.36)"/></g><g class="cls-120"><rect class="cls-121" x="1427.72" y="1204.75" width="323.72" height="313.58" transform="translate(-478.89 1680.9) rotate(-49.36)"/></g></g></g></svg>